G04 ================== begin FILE IDENTIFICATION RECORD ==================*
G04 Layout Name:  C:/Users/rock/Documents/Work/ZHG/RPI-CMIO/RPI-CMIO.brd*
G04 Film Name:    DRILL-1-4*
G04 File Format:  Gerber RS274X*
G04 File Origin:  Cadence Allegro 17.2-S045*
G04 Origin Date:  Mon Mar 25 15:18:37 2019*
G04 *
G04 Layer:  MANUFACTURING/NCLEGEND-1-4*
G04 Layer:  BOARD GEOMETRY/OUTLINE*
G04 Layer:  BOARD GEOMETRY/DIMENSION*
G04 *
G04 Offset:    (0.000 0.000)*
G04 Mirror:    No*
G04 Mode:      Positive*
G04 Rotation:  0*
G04 FullContactRelief:  No*
G04 UndefLineWidth:     1.000*
G04 ================== end FILE IDENTIFICATION RECORD ====================*
%FSAX55Y55*MOIN*%
%IR0*IPPOS*OFA0.00000B0.00000*MIA0B0*SFA1.00000B1.00000*%
%AMMACRO23*
1,1,.001,-.035433,.011811*
20,1,.001,-.035433,.011811,-.034895,.017964,0.0*
1,1,.001,-.034895,.017964*
20,1,.001,-.034895,.017964,-.033296,.02393,0.0*
1,1,.001,-.033296,.02393*
20,1,.001,-.033296,.02393,-.030686,.029527,0.0*
1,1,.001,-.030686,.029527*
20,1,.001,-.030686,.029527,-.027143,.034587,0.0*
1,1,.001,-.027143,.034587*
20,1,.001,-.027143,.034587,-.022776,.038954,0.0*
1,1,.001,-.022776,.038954*
20,1,.001,-.022776,.038954,-.017717,.042497,0.0*
1,1,.001,-.017717,.042497*
20,1,.001,-.017717,.042497,-.012119,.045107,0.0*
1,1,.001,-.012119,.045107*
20,1,.001,-.012119,.045107,-.006153,.046706,0.0*
1,1,.001,-.006153,.046706*
20,1,.001,-.006153,.046706,0.0,.047244,0.0*
1,1,.001,0.0,.047244*
20,1,.001,0.0,.047244,.006153,.046706,0.0*
1,1,.001,.006153,.046706*
20,1,.001,.006153,.046706,.012119,.045107,0.0*
1,1,.001,.012119,.045107*
20,1,.001,.012119,.045107,.017716,.042497,0.0*
1,1,.001,.017716,.042497*
20,1,.001,.017716,.042497,.022776,.038954,0.0*
1,1,.001,.022776,.038954*
20,1,.001,.022776,.038954,.027143,.034587,0.0*
1,1,.001,.027143,.034587*
20,1,.001,.027143,.034587,.030686,.029528,0.0*
1,1,.001,.030686,.029528*
20,1,.001,.030686,.029528,.033296,.02393,0.0*
1,1,.001,.033296,.02393*
20,1,.001,.033296,.02393,.034895,.017964,0.0*
1,1,.001,.034895,.017964*
20,1,.001,.034895,.017964,.035433,.011811,0.0*
1,1,.001,.035433,.011811*
20,1,.001,.035433,.011811,.035433,-.011811,0.0*
1,1,.001,.035433,-.011811*
20,1,.001,.035433,-.011811,.034895,-.017964,0.0*
1,1,.001,.034895,-.017964*
20,1,.001,.034895,-.017964,.033296,-.02393,0.0*
1,1,.001,.033296,-.02393*
20,1,.001,.033296,-.02393,.030686,-.029527,0.0*
1,1,.001,.030686,-.029527*
20,1,.001,.030686,-.029527,.027143,-.034587,0.0*
1,1,.001,.027143,-.034587*
20,1,.001,.027143,-.034587,.022776,-.038954,0.0*
1,1,.001,.022776,-.038954*
20,1,.001,.022776,-.038954,.017717,-.042497,0.0*
1,1,.001,.017717,-.042497*
20,1,.001,.017717,-.042497,.012119,-.045107,0.0*
1,1,.001,.012119,-.045107*
20,1,.001,.012119,-.045107,.006153,-.046706,0.0*
1,1,.001,.006153,-.046706*
20,1,.001,.006153,-.046706,0.0,-.047244,0.0*
1,1,.001,0.0,-.047244*
20,1,.001,0.0,-.047244,-.006153,-.046706,0.0*
1,1,.001,-.006153,-.046706*
20,1,.001,-.006153,-.046706,-.012119,-.045107,0.0*
1,1,.001,-.012119,-.045107*
20,1,.001,-.012119,-.045107,-.017716,-.042497,0.0*
1,1,.001,-.017716,-.042497*
20,1,.001,-.017716,-.042497,-.022776,-.038954,0.0*
1,1,.001,-.022776,-.038954*
20,1,.001,-.022776,-.038954,-.027143,-.034587,0.0*
1,1,.001,-.027143,-.034587*
20,1,.001,-.027143,-.034587,-.030686,-.029528,0.0*
1,1,.001,-.030686,-.029528*
20,1,.001,-.030686,-.029528,-.033296,-.02393,0.0*
1,1,.001,-.033296,-.02393*
20,1,.001,-.033296,-.02393,-.034895,-.017964,0.0*
1,1,.001,-.034895,-.017964*
20,1,.001,-.034895,-.017964,-.035433,-.011811,0.0*
1,1,.001,-.035433,-.011811*
20,1,.001,-.035433,-.011811,-.035433,.011811,0.0*
1,1,.001,-.035433,.011811*
%
%ADD23MACRO23*%
%AMMACRO18*
1,1,.001,0.0,.02953*
20,1,.001,0.0,.02953,-.025573,.014765,0.0*
1,1,.001,-.025573,.014765*
20,1,.001,-.025573,.014765,-.025573,-.014765,0.0*
1,1,.001,-.025573,-.014765*
20,1,.001,-.025573,-.014765,0.0,-.02953,0.0*
1,1,.001,0.0,-.02953*
20,1,.001,0.0,-.02953,.025573,-.014765,0.0*
1,1,.001,.025573,-.014765*
20,1,.001,.025573,-.014765,.025573,.014765,0.0*
1,1,.001,.025573,.014765*
20,1,.001,.025573,.014765,0.0,.02953,0.0*
1,1,.001,0.0,.02953*
%
%ADD18MACRO18*%
%AMMACRO14*
1,1,.001,-.01575,.017715*
20,1,.001,-.01575,.017715,.01575,.017715,0.0*
1,1,.001,.01575,.017715*
20,1,.001,.01575,.017715,.018826,.017445,0.0*
1,1,.001,.018826,.017445*
20,1,.001,.018826,.017445,.021809,.016646,0.0*
1,1,.001,.021809,.016646*
20,1,.001,.021809,.016646,.024607,.015341,0.0*
1,1,.001,.024607,.015341*
20,1,.001,.024607,.015341,.027137,.01357,0.0*
1,1,.001,.027137,.01357*
20,1,.001,.027137,.01357,.02932,.011387,0.0*
1,1,.001,.02932,.011387*
20,1,.001,.02932,.011387,.031091,.008857,0.0*
1,1,.001,.031091,.008857*
20,1,.001,.031091,.008857,.032396,.006059,0.0*
1,1,.001,.032396,.006059*
20,1,.001,.032396,.006059,.033195,.003076,0.0*
1,1,.001,.033195,.003076*
20,1,.001,.033195,.003076,.033465,0.0,0.0*
1,1,.001,.033465,0.0*
20,1,.001,.033465,0.0,.033195,-.003076,0.0*
1,1,.001,.033195,-.003076*
20,1,.001,.033195,-.003076,.032396,-.006059,0.0*
1,1,.001,.032396,-.006059*
20,1,.001,.032396,-.006059,.031091,-.008857,0.0*
1,1,.001,.031091,-.008857*
20,1,.001,.031091,-.008857,.02932,-.011387,0.0*
1,1,.001,.02932,-.011387*
20,1,.001,.02932,-.011387,.027137,-.01357,0.0*
1,1,.001,.027137,-.01357*
20,1,.001,.027137,-.01357,.024607,-.015341,0.0*
1,1,.001,.024607,-.015341*
20,1,.001,.024607,-.015341,.021809,-.016646,0.0*
1,1,.001,.021809,-.016646*
20,1,.001,.021809,-.016646,.018826,-.017445,0.0*
1,1,.001,.018826,-.017445*
20,1,.001,.018826,-.017445,.01575,-.017715,0.0*
1,1,.001,.01575,-.017715*
20,1,.001,.01575,-.017715,-.01575,-.017715,0.0*
1,1,.001,-.01575,-.017715*
20,1,.001,-.01575,-.017715,-.018826,-.017445,0.0*
1,1,.001,-.018826,-.017445*
20,1,.001,-.018826,-.017445,-.021809,-.016646,0.0*
1,1,.001,-.021809,-.016646*
20,1,.001,-.021809,-.016646,-.024607,-.015341,0.0*
1,1,.001,-.024607,-.015341*
20,1,.001,-.024607,-.015341,-.027137,-.01357,0.0*
1,1,.001,-.027137,-.01357*
20,1,.001,-.027137,-.01357,-.02932,-.011387,0.0*
1,1,.001,-.02932,-.011387*
20,1,.001,-.02932,-.011387,-.031091,-.008857,0.0*
1,1,.001,-.031091,-.008857*
20,1,.001,-.031091,-.008857,-.032396,-.006059,0.0*
1,1,.001,-.032396,-.006059*
20,1,.001,-.032396,-.006059,-.033195,-.003076,0.0*
1,1,.001,-.033195,-.003076*
20,1,.001,-.033195,-.003076,-.033465,0.0,0.0*
1,1,.001,-.033465,0.0*
20,1,.001,-.033465,0.0,-.033195,.003076,0.0*
1,1,.001,-.033195,.003076*
20,1,.001,-.033195,.003076,-.032396,.006059,0.0*
1,1,.001,-.032396,.006059*
20,1,.001,-.032396,.006059,-.031091,.008857,0.0*
1,1,.001,-.031091,.008857*
20,1,.001,-.031091,.008857,-.02932,.011387,0.0*
1,1,.001,-.02932,.011387*
20,1,.001,-.02932,.011387,-.027137,.01357,0.0*
1,1,.001,-.027137,.01357*
20,1,.001,-.027137,.01357,-.024607,.015341,0.0*
1,1,.001,-.024607,.015341*
20,1,.001,-.024607,.015341,-.021809,.016646,0.0*
1,1,.001,-.021809,.016646*
20,1,.001,-.021809,.016646,-.018826,.017445,0.0*
1,1,.001,-.018826,.017445*
20,1,.001,-.018826,.017445,-.01575,.017715,0.0*
1,1,.001,-.01575,.017715*
1,1,.001,-.008857,-.008857*
20,1,.001,-.008857,-.008857,-.011219,-.008562,0.0*
1,1,.001,-.011219,-.008562*
20,1,.001,-.011219,-.008562,-.013285,-.007381,0.0*
1,1,.001,-.013285,-.007381*
20,1,.001,-.013285,-.007381,-.015057,-.00561,0.0*
1,1,.001,-.015057,-.00561*
20,1,.001,-.015057,-.00561,-.016238,-.003543,0.0*
1,1,.001,-.016238,-.003543*
20,1,.001,-.016238,-.003543,-.016828,-.001181,0.0*
1,1,.001,-.016828,-.001181*
20,1,.001,-.016828,-.001181,-.016828,.001181,0.0*
1,1,.001,-.016828,.001181*
20,1,.001,-.016828,.001181,-.016238,.003543,0.0*
1,1,.001,-.016238,.003543*
20,1,.001,-.016238,.003543,-.015057,.00561,0.0*
1,1,.001,-.015057,.00561*
20,1,.001,-.015057,.00561,-.013285,.007381,0.0*
1,1,.001,-.013285,.007381*
20,1,.001,-.013285,.007381,-.011219,.008562,0.0*
1,1,.001,-.011219,.008562*
20,1,.001,-.011219,.008562,-.008857,.008857,0.0*
1,1,.001,-.008857,.008857*
20,1,.001,-.008857,.008857,-.006495,.008562,0.0*
1,1,.001,-.006495,.008562*
20,1,.001,-.006495,.008562,-.004429,.007381,0.0*
1,1,.001,-.004429,.007381*
20,1,.001,-.004429,.007381,-.002657,.00561,0.0*
1,1,.001,-.002657,.00561*
20,1,.001,-.002657,.00561,-.001476,.003543,0.0*
1,1,.001,-.001476,.003543*
20,1,.001,-.001476,.003543,-.000886,.001181,0.0*
1,1,.001,-.000886,.001181*
20,1,.001,-.000886,.001181,-.000886,-.001181,0.0*
1,1,.001,-.000886,-.001181*
20,1,.001,-.000886,-.001181,-.001476,-.003543,0.0*
1,1,.001,-.001476,-.003543*
20,1,.001,-.001476,-.003543,-.002657,-.00561,0.0*
1,1,.001,-.002657,-.00561*
20,1,.001,-.002657,-.00561,-.004429,-.007381,0.0*
1,1,.001,-.004429,-.007381*
20,1,.001,-.004429,-.007381,-.006495,-.008562,0.0*
1,1,.001,-.006495,-.008562*
20,1,.001,-.006495,-.008562,-.008857,-.008857,0.0*
1,1,.001,-.008857,-.008857*
1,1,.001,.01122,.000591*
20,1,.001,.01122,.000591,.012401,.001476,0.0*
1,1,.001,.012401,.001476*
20,1,.001,.012401,.001476,.013286,.002952,0.0*
1,1,.001,.013286,.002952*
20,1,.001,.013286,.002952,.013877,.005019,0.0*
1,1,.001,.013877,.005019*
20,1,.001,.013877,.005019,.013286,.00679,0.0*
1,1,.001,.013286,.00679*
20,1,.001,.013286,.00679,.012106,.007971,0.0*
1,1,.001,.012106,.007971*
20,1,.001,.012106,.007971,.010039,.008857,0.0*
1,1,.001,.010039,.008857*
20,1,.001,.010039,.008857,.002068,.008857,0.0*
1,1,.001,.002068,.008857*
20,1,.001,.002068,.008857,.002068,-.008857,0.0*
1,1,.001,.002068,-.008857*
20,1,.001,.002068,-.008857,.011811,-.008857,0.0*
1,1,.001,.011811,-.008857*
20,1,.001,.011811,-.008857,.013877,-.007676,0.0*
1,1,.001,.013877,-.007676*
20,1,.001,.013877,-.007676,.015058,-.005905,0.0*
1,1,.001,.015058,-.005905*
20,1,.001,.015058,-.005905,.015648,-.003838,0.0*
1,1,.001,.015648,-.003838*
20,1,.001,.015648,-.003838,.015058,-.001772,0.0*
1,1,.001,.015058,-.001772*
20,1,.001,.015058,-.001772,.013286,0.0,0.0*
1,1,.001,.013286,0.0*
20,1,.001,.013286,0.0,.01122,.000591,0.0*
1,1,.001,.01122,.000591*
20,1,.001,.01122,.000591,.002068,.000591,0.0*
1,1,.001,.002068,.000591*
%
%ADD14MACRO14*%
%AMMACRO16*
1,1,.001,.018754,-.045276*
20,1,.001,.018754,-.045276,-.018754,-.045276,0.0*
1,1,.001,-.018754,-.045276*
20,1,.001,-.018754,-.045276,-.045276,-.018754,0.0*
1,1,.001,-.045276,-.018754*
20,1,.001,-.045276,-.018754,-.045276,.018754,0.0*
1,1,.001,-.045276,.018754*
20,1,.001,-.045276,.018754,-.018754,.045276,0.0*
1,1,.001,-.018754,.045276*
20,1,.001,-.018754,.045276,.018754,.045276,0.0*
1,1,.001,.018754,.045276*
20,1,.001,.018754,.045276,.045276,.018754,0.0*
1,1,.001,.045276,.018754*
20,1,.001,.045276,.018754,.045276,-.018754,0.0*
1,1,.001,.045276,-.018754*
20,1,.001,.045276,-.018754,.018754,-.045276,0.0*
1,1,.001,.018754,-.045276*
%
%ADD16MACRO16*%
%AMMACRO20*
1,1,.001,.019685,.019685*
20,1,.001,.019685,.019685,.019685,-.019685,0.0*
1,1,.001,.019685,-.019685*
20,1,.001,.019685,-.019685,-.019685,-.019685,0.0*
1,1,.001,-.019685,-.019685*
20,1,.001,-.019685,-.019685,-.019685,.019685,0.0*
1,1,.001,-.019685,.019685*
20,1,.001,-.019685,.019685,.019685,.019685,0.0*
1,1,.001,.019685,.019685*
%
%ADD20MACRO20*%
%AMMACRO13*
1,1,.001,.012796,0.0*
20,1,.001,.012796,0.0,0.0,-.012796,0.0*
1,1,.001,0.0,-.012796*
20,1,.001,0.0,-.012796,-.012796,0.0,0.0*
1,1,.001,-.012796,0.0*
20,1,.001,-.012796,0.0,0.0,.012796,0.0*
1,1,.001,0.0,.012796*
20,1,.001,0.0,.012796,.012796,0.0,0.0*
1,1,.001,.012796,0.0*
%
%ADD13MACRO13*%
%AMMACRO10*
1,1,.001,.066929,0.0*
20,1,.001,.066929,0.0,.065912,-.011622,0.0*
1,1,.001,.065912,-.011622*
20,1,.001,.065912,-.011622,.062893,-.022891,0.0*
1,1,.001,.062893,-.022891*
20,1,.001,.062893,-.022891,.057962,-.033464,0.0*
1,1,.001,.057962,-.033464*
20,1,.001,.057962,-.033464,.051271,-.043021,0.0*
1,1,.001,.051271,-.043021*
20,1,.001,.051271,-.043021,.043021,-.051271,0.0*
1,1,.001,.043021,-.051271*
20,1,.001,.043021,-.051271,.033465,-.057962,0.0*
1,1,.001,.033465,-.057962*
20,1,.001,.033465,-.057962,.022891,-.062893,0.0*
1,1,.001,.022891,-.062893*
20,1,.001,.022891,-.062893,.011622,-.065912,0.0*
1,1,.001,.011622,-.065912*
20,1,.001,.011622,-.065912,0.0,-.066929,0.0*
1,1,.001,0.0,-.066929*
20,1,.001,0.0,-.066929,-.011622,-.065912,0.0*
1,1,.001,-.011622,-.065912*
20,1,.001,-.011622,-.065912,-.022891,-.062893,0.0*
1,1,.001,-.022891,-.062893*
20,1,.001,-.022891,-.062893,-.033464,-.057962,0.0*
1,1,.001,-.033464,-.057962*
20,1,.001,-.033464,-.057962,-.043021,-.051271,0.0*
1,1,.001,-.043021,-.051271*
20,1,.001,-.043021,-.051271,-.051271,-.043021,0.0*
1,1,.001,-.051271,-.043021*
20,1,.001,-.051271,-.043021,-.057962,-.033465,0.0*
1,1,.001,-.057962,-.033465*
20,1,.001,-.057962,-.033465,-.062893,-.022891,0.0*
1,1,.001,-.062893,-.022891*
20,1,.001,-.062893,-.022891,-.065912,-.011622,0.0*
1,1,.001,-.065912,-.011622*
20,1,.001,-.065912,-.011622,-.066929,0.0,0.0*
1,1,.001,-.066929,0.0*
20,1,.001,-.066929,0.0,-.065912,.011622,0.0*
1,1,.001,-.065912,.011622*
20,1,.001,-.065912,.011622,-.062893,.022891,0.0*
1,1,.001,-.062893,.022891*
20,1,.001,-.062893,.022891,-.057962,.033464,0.0*
1,1,.001,-.057962,.033464*
20,1,.001,-.057962,.033464,-.051271,.043021,0.0*
1,1,.001,-.051271,.043021*
20,1,.001,-.051271,.043021,-.043021,.051271,0.0*
1,1,.001,-.043021,.051271*
20,1,.001,-.043021,.051271,-.033465,.057962,0.0*
1,1,.001,-.033465,.057962*
20,1,.001,-.033465,.057962,-.022891,.062893,0.0*
1,1,.001,-.022891,.062893*
20,1,.001,-.022891,.062893,-.011622,.065912,0.0*
1,1,.001,-.011622,.065912*
20,1,.001,-.011622,.065912,0.0,.066929,0.0*
1,1,.001,0.0,.066929*
20,1,.001,0.0,.066929,.011622,.065912,0.0*
1,1,.001,.011622,.065912*
20,1,.001,.011622,.065912,.022891,.062893,0.0*
1,1,.001,.022891,.062893*
20,1,.001,.022891,.062893,.033464,.057962,0.0*
1,1,.001,.033464,.057962*
20,1,.001,.033464,.057962,.043021,.051271,0.0*
1,1,.001,.043021,.051271*
20,1,.001,.043021,.051271,.051271,.043021,0.0*
1,1,.001,.051271,.043021*
20,1,.001,.051271,.043021,.057962,.033465,0.0*
1,1,.001,.057962,.033465*
20,1,.001,.057962,.033465,.062893,.022891,0.0*
1,1,.001,.062893,.022891*
20,1,.001,.062893,.022891,.065912,.011622,0.0*
1,1,.001,.065912,.011622*
20,1,.001,.065912,.011622,.066929,0.0,0.0*
1,1,.001,.066929,0.0*
%
%ADD10MACRO10*%
%AMMACRO17*
1,1,.001,-.035435,.017715*
20,1,.001,-.035435,.017715,.035435,.017715,0.0*
1,1,.001,.035435,.017715*
20,1,.001,.035435,.017715,.038511,.017445,0.0*
1,1,.001,.038511,.017445*
20,1,.001,.038511,.017445,.041494,.016646,0.0*
1,1,.001,.041494,.016646*
20,1,.001,.041494,.016646,.044292,.015341,0.0*
1,1,.001,.044292,.015341*
20,1,.001,.044292,.015341,.046822,.01357,0.0*
1,1,.001,.046822,.01357*
20,1,.001,.046822,.01357,.049005,.011387,0.0*
1,1,.001,.049005,.011387*
20,1,.001,.049005,.011387,.050776,.008857,0.0*
1,1,.001,.050776,.008857*
20,1,.001,.050776,.008857,.052081,.006059,0.0*
1,1,.001,.052081,.006059*
20,1,.001,.052081,.006059,.05288,.003076,0.0*
1,1,.001,.05288,.003076*
20,1,.001,.05288,.003076,.05315,0.0,0.0*
1,1,.001,.05315,0.0*
20,1,.001,.05315,0.0,.05288,-.003076,0.0*
1,1,.001,.05288,-.003076*
20,1,.001,.05288,-.003076,.052081,-.006059,0.0*
1,1,.001,.052081,-.006059*
20,1,.001,.052081,-.006059,.050776,-.008857,0.0*
1,1,.001,.050776,-.008857*
20,1,.001,.050776,-.008857,.049005,-.011387,0.0*
1,1,.001,.049005,-.011387*
20,1,.001,.049005,-.011387,.046822,-.01357,0.0*
1,1,.001,.046822,-.01357*
20,1,.001,.046822,-.01357,.044292,-.015341,0.0*
1,1,.001,.044292,-.015341*
20,1,.001,.044292,-.015341,.041494,-.016646,0.0*
1,1,.001,.041494,-.016646*
20,1,.001,.041494,-.016646,.038511,-.017445,0.0*
1,1,.001,.038511,-.017445*
20,1,.001,.038511,-.017445,.035435,-.017715,0.0*
1,1,.001,.035435,-.017715*
20,1,.001,.035435,-.017715,-.035435,-.017715,0.0*
1,1,.001,-.035435,-.017715*
20,1,.001,-.035435,-.017715,-.038511,-.017445,0.0*
1,1,.001,-.038511,-.017445*
20,1,.001,-.038511,-.017445,-.041494,-.016646,0.0*
1,1,.001,-.041494,-.016646*
20,1,.001,-.041494,-.016646,-.044292,-.015341,0.0*
1,1,.001,-.044292,-.015341*
20,1,.001,-.044292,-.015341,-.046822,-.01357,0.0*
1,1,.001,-.046822,-.01357*
20,1,.001,-.046822,-.01357,-.049005,-.011387,0.0*
1,1,.001,-.049005,-.011387*
20,1,.001,-.049005,-.011387,-.050776,-.008857,0.0*
1,1,.001,-.050776,-.008857*
20,1,.001,-.050776,-.008857,-.052081,-.006059,0.0*
1,1,.001,-.052081,-.006059*
20,1,.001,-.052081,-.006059,-.05288,-.003076,0.0*
1,1,.001,-.05288,-.003076*
20,1,.001,-.05288,-.003076,-.05315,0.0,0.0*
1,1,.001,-.05315,0.0*
20,1,.001,-.05315,0.0,-.05288,.003076,0.0*
1,1,.001,-.05288,.003076*
20,1,.001,-.05288,.003076,-.052081,.006059,0.0*
1,1,.001,-.052081,.006059*
20,1,.001,-.052081,.006059,-.050776,.008857,0.0*
1,1,.001,-.050776,.008857*
20,1,.001,-.050776,.008857,-.049005,.011387,0.0*
1,1,.001,-.049005,.011387*
20,1,.001,-.049005,.011387,-.046822,.01357,0.0*
1,1,.001,-.046822,.01357*
20,1,.001,-.046822,.01357,-.044292,.015341,0.0*
1,1,.001,-.044292,.015341*
20,1,.001,-.044292,.015341,-.041494,.016646,0.0*
1,1,.001,-.041494,.016646*
20,1,.001,-.041494,.016646,-.038511,.017445,0.0*
1,1,.001,-.038511,.017445*
20,1,.001,-.038511,.017445,-.035435,.017715,0.0*
1,1,.001,-.035435,.017715*
1,1,.001,-.008857,-.008857*
20,1,.001,-.008857,-.008857,-.011219,-.008562,0.0*
1,1,.001,-.011219,-.008562*
20,1,.001,-.011219,-.008562,-.013285,-.007381,0.0*
1,1,.001,-.013285,-.007381*
20,1,.001,-.013285,-.007381,-.015057,-.00561,0.0*
1,1,.001,-.015057,-.00561*
20,1,.001,-.015057,-.00561,-.016238,-.003543,0.0*
1,1,.001,-.016238,-.003543*
20,1,.001,-.016238,-.003543,-.016828,-.001181,0.0*
1,1,.001,-.016828,-.001181*
20,1,.001,-.016828,-.001181,-.016828,.001181,0.0*
1,1,.001,-.016828,.001181*
20,1,.001,-.016828,.001181,-.016238,.003543,0.0*
1,1,.001,-.016238,.003543*
20,1,.001,-.016238,.003543,-.015057,.00561,0.0*
1,1,.001,-.015057,.00561*
20,1,.001,-.015057,.00561,-.013285,.007381,0.0*
1,1,.001,-.013285,.007381*
20,1,.001,-.013285,.007381,-.011219,.008562,0.0*
1,1,.001,-.011219,.008562*
20,1,.001,-.011219,.008562,-.008857,.008857,0.0*
1,1,.001,-.008857,.008857*
20,1,.001,-.008857,.008857,-.006495,.008562,0.0*
1,1,.001,-.006495,.008562*
20,1,.001,-.006495,.008562,-.004429,.007381,0.0*
1,1,.001,-.004429,.007381*
20,1,.001,-.004429,.007381,-.002657,.00561,0.0*
1,1,.001,-.002657,.00561*
20,1,.001,-.002657,.00561,-.001476,.003543,0.0*
1,1,.001,-.001476,.003543*
20,1,.001,-.001476,.003543,-.000886,.001181,0.0*
1,1,.001,-.000886,.001181*
20,1,.001,-.000886,.001181,-.000886,-.001181,0.0*
1,1,.001,-.000886,-.001181*
20,1,.001,-.000886,-.001181,-.001476,-.003543,0.0*
1,1,.001,-.001476,-.003543*
20,1,.001,-.001476,-.003543,-.002657,-.00561,0.0*
1,1,.001,-.002657,-.00561*
20,1,.001,-.002657,-.00561,-.004429,-.007381,0.0*
1,1,.001,-.004429,-.007381*
20,1,.001,-.004429,-.007381,-.006495,-.008562,0.0*
1,1,.001,-.006495,-.008562*
20,1,.001,-.006495,-.008562,-.008857,-.008857,0.0*
1,1,.001,-.008857,-.008857*
1,1,.001,.015353,.007381*
20,1,.001,.015353,.007381,.013582,.008267,0.0*
1,1,.001,.013582,.008267*
20,1,.001,.013582,.008267,.011515,.008857,0.0*
1,1,.001,.011515,.008857*
20,1,.001,.011515,.008857,.009153,.008857,0.0*
1,1,.001,.009153,.008857*
20,1,.001,.009153,.008857,.006496,.007971,0.0*
1,1,.001,.006496,.007971*
20,1,.001,.006496,.007971,.00443,.006495,0.0*
1,1,.001,.00443,.006495*
20,1,.001,.00443,.006495,.002953,.004724,0.0*
1,1,.001,.002953,.004724*
20,1,.001,.002953,.004724,.001772,.001771,0.0*
1,1,.001,.001772,.001771*
20,1,.001,.001772,.001771,.001477,-.000886,0.0*
1,1,.001,.001477,-.000886*
20,1,.001,.001477,-.000886,.002068,-.003543,0.0*
1,1,.001,.002068,-.003543*
20,1,.001,.002068,-.003543,.002953,-.005314,0.0*
1,1,.001,.002953,-.005314*
20,1,.001,.002953,-.005314,.004725,-.007086,0.0*
1,1,.001,.004725,-.007086*
20,1,.001,.004725,-.007086,.006792,-.008267,0.0*
1,1,.001,.006792,-.008267*
20,1,.001,.006792,-.008267,.008858,-.008857,0.0*
1,1,.001,.008858,-.008857*
20,1,.001,.008858,-.008857,.010924,-.008857,0.0*
1,1,.001,.010924,-.008857*
20,1,.001,.010924,-.008857,.012991,-.008267,0.0*
1,1,.001,.012991,-.008267*
20,1,.001,.012991,-.008267,.014763,-.007381,0.0*
1,1,.001,.014763,-.007381*
20,1,.001,.014763,-.007381,.016239,-.0062,0.0*
1,1,.001,.016239,-.0062*
%
%ADD17MACRO17*%
%AMMACRO15*
1,1,.001,.020081,0.0*
20,1,.001,.020081,0.0,.01004,.01739,0.0*
1,1,.001,.01004,.01739*
20,1,.001,.01004,.01739,-.01004,.01739,0.0*
1,1,.001,-.01004,.01739*
20,1,.001,-.01004,.01739,-.020081,0.0,0.0*
1,1,.001,-.020081,0.0*
20,1,.001,-.020081,0.0,-.01004,-.01739,0.0*
1,1,.001,-.01004,-.01739*
20,1,.001,-.01004,-.01739,.01004,-.01739,0.0*
1,1,.001,.01004,-.01739*
20,1,.001,.01004,-.01739,.020081,0.0,0.0*
1,1,.001,.020081,0.0*
%
%ADD15MACRO15*%
%AMMACRO21*
1,1,.001,0.0,.021656*
20,1,.001,0.0,.021656,.021656,-.021656,0.0*
1,1,.001,.021656,-.021656*
20,1,.001,.021656,-.021656,-.021656,-.021656,0.0*
1,1,.001,-.021656,-.021656*
20,1,.001,-.021656,-.021656,0.0,.021656,0.0*
1,1,.001,0.0,.021656*
%
%ADD21MACRO21*%
%AMMACRO19*
1,1,.001,.059055,.044291*
20,1,.001,.059055,.044291,.059055,-.044291,0.0*
1,1,.001,.059055,-.044291*
20,1,.001,.059055,-.044291,-.059055,-.044291,0.0*
1,1,.001,-.059055,-.044291*
20,1,.001,-.059055,-.044291,-.059055,.044291,0.0*
1,1,.001,-.059055,.044291*
20,1,.001,-.059055,.044291,.059055,.044291,0.0*
1,1,.001,.059055,.044291*
%
%ADD19MACRO19*%
%AMMACRO22*
1,1,.001,-.007874,.02362*
20,1,.001,-.007874,.02362,.007874,.02362,0.0*
1,1,.001,.007874,.02362*
20,1,.001,.007874,.02362,.011975,.023262,0.0*
1,1,.001,.011975,.023262*
20,1,.001,.011975,.023262,.015952,.022196,0.0*
1,1,.001,.015952,.022196*
20,1,.001,.015952,.022196,.019684,.020456,0.0*
1,1,.001,.019684,.020456*
20,1,.001,.019684,.020456,.023056,.018094,0.0*
1,1,.001,.023056,.018094*
20,1,.001,.023056,.018094,.025968,.015183,0.0*
1,1,.001,.025968,.015183*
20,1,.001,.025968,.015183,.028329,.01181,0.0*
1,1,.001,.028329,.01181*
20,1,.001,.028329,.01181,.03007,.008079,0.0*
1,1,.001,.03007,.008079*
20,1,.001,.03007,.008079,.031135,.004102,0.0*
1,1,.001,.031135,.004102*
20,1,.001,.031135,.004102,.031494,0.0,0.0*
1,1,.001,.031494,0.0*
20,1,.001,.031494,0.0,.031135,-.004102,0.0*
1,1,.001,.031135,-.004102*
20,1,.001,.031135,-.004102,.03007,-.008079,0.0*
1,1,.001,.03007,-.008079*
20,1,.001,.03007,-.008079,.028329,-.01181,0.0*
1,1,.001,.028329,-.01181*
20,1,.001,.028329,-.01181,.025968,-.015183,0.0*
1,1,.001,.025968,-.015183*
20,1,.001,.025968,-.015183,.023056,-.018094,0.0*
1,1,.001,.023056,-.018094*
20,1,.001,.023056,-.018094,.019684,-.020456,0.0*
1,1,.001,.019684,-.020456*
20,1,.001,.019684,-.020456,.015952,-.022196,0.0*
1,1,.001,.015952,-.022196*
20,1,.001,.015952,-.022196,.011975,-.023262,0.0*
1,1,.001,.011975,-.023262*
20,1,.001,.011975,-.023262,.007874,-.02362,0.0*
1,1,.001,.007874,-.02362*
20,1,.001,.007874,-.02362,-.007874,-.02362,0.0*
1,1,.001,-.007874,-.02362*
20,1,.001,-.007874,-.02362,-.011975,-.023262,0.0*
1,1,.001,-.011975,-.023262*
20,1,.001,-.011975,-.023262,-.015952,-.022196,0.0*
1,1,.001,-.015952,-.022196*
20,1,.001,-.015952,-.022196,-.019684,-.020456,0.0*
1,1,.001,-.019684,-.020456*
20,1,.001,-.019684,-.020456,-.023056,-.018094,0.0*
1,1,.001,-.023056,-.018094*
20,1,.001,-.023056,-.018094,-.025968,-.015183,0.0*
1,1,.001,-.025968,-.015183*
20,1,.001,-.025968,-.015183,-.028329,-.01181,0.0*
1,1,.001,-.028329,-.01181*
20,1,.001,-.028329,-.01181,-.03007,-.008079,0.0*
1,1,.001,-.03007,-.008079*
20,1,.001,-.03007,-.008079,-.031135,-.004102,0.0*
1,1,.001,-.031135,-.004102*
20,1,.001,-.031135,-.004102,-.031494,0.0,0.0*
1,1,.001,-.031494,0.0*
20,1,.001,-.031494,0.0,-.031135,.004102,0.0*
1,1,.001,-.031135,.004102*
20,1,.001,-.031135,.004102,-.03007,.008079,0.0*
1,1,.001,-.03007,.008079*
20,1,.001,-.03007,.008079,-.028329,.01181,0.0*
1,1,.001,-.028329,.01181*
20,1,.001,-.028329,.01181,-.025968,.015183,0.0*
1,1,.001,-.025968,.015183*
20,1,.001,-.025968,.015183,-.023056,.018094,0.0*
1,1,.001,-.023056,.018094*
20,1,.001,-.023056,.018094,-.019684,.020456,0.0*
1,1,.001,-.019684,.020456*
20,1,.001,-.019684,.020456,-.015952,.022196,0.0*
1,1,.001,-.015952,.022196*
20,1,.001,-.015952,.022196,-.011975,.023262,0.0*
1,1,.001,-.011975,.023262*
20,1,.001,-.011975,.023262,-.007874,.02362,0.0*
1,1,.001,-.007874,.02362*
%
%ADD22MACRO22*%
%AMMACRO12*
1,1,.001,-.015745,.00886*
20,1,.001,-.015745,.00886,.015745,.00886,0.0*
1,1,.001,.015745,.00886*
20,1,.001,.015745,.00886,.017283,.008725,0.0*
1,1,.001,.017283,.008725*
20,1,.001,.017283,.008725,.018775,.008326,0.0*
1,1,.001,.018775,.008326*
20,1,.001,.018775,.008326,.020174,.007673,0.0*
1,1,.001,.020174,.007673*
20,1,.001,.020174,.007673,.02144,.006787,0.0*
1,1,.001,.02144,.006787*
20,1,.001,.02144,.006787,.022532,.005695,0.0*
1,1,.001,.022532,.005695*
20,1,.001,.022532,.005695,.023417,.00443,0.0*
1,1,.001,.023417,.00443*
20,1,.001,.023417,.00443,.02407,.00303,0.0*
1,1,.001,.02407,.00303*
20,1,.001,.02407,.00303,.02447,.001539,0.0*
1,1,.001,.02447,.001539*
20,1,.001,.02447,.001539,.024605,0.0,0.0*
1,1,.001,.024605,0.0*
20,1,.001,.024605,0.0,.02447,-.001539,0.0*
1,1,.001,.02447,-.001539*
20,1,.001,.02447,-.001539,.02407,-.00303,0.0*
1,1,.001,.02407,-.00303*
20,1,.001,.02407,-.00303,.023417,-.00443,0.0*
1,1,.001,.023417,-.00443*
20,1,.001,.023417,-.00443,.022532,-.005695,0.0*
1,1,.001,.022532,-.005695*
20,1,.001,.022532,-.005695,.02144,-.006787,0.0*
1,1,.001,.02144,-.006787*
20,1,.001,.02144,-.006787,.020175,-.007673,0.0*
1,1,.001,.020175,-.007673*
20,1,.001,.020175,-.007673,.018775,-.008326,0.0*
1,1,.001,.018775,-.008326*
20,1,.001,.018775,-.008326,.017283,-.008725,0.0*
1,1,.001,.017283,-.008725*
20,1,.001,.017283,-.008725,.015745,-.00886,0.0*
1,1,.001,.015745,-.00886*
20,1,.001,.015745,-.00886,-.015745,-.00886,0.0*
1,1,.001,-.015745,-.00886*
20,1,.001,-.015745,-.00886,-.017283,-.008725,0.0*
1,1,.001,-.017283,-.008725*
20,1,.001,-.017283,-.008725,-.018775,-.008326,0.0*
1,1,.001,-.018775,-.008326*
20,1,.001,-.018775,-.008326,-.020174,-.007673,0.0*
1,1,.001,-.020174,-.007673*
20,1,.001,-.020174,-.007673,-.02144,-.006787,0.0*
1,1,.001,-.02144,-.006787*
20,1,.001,-.02144,-.006787,-.022532,-.005695,0.0*
1,1,.001,-.022532,-.005695*
20,1,.001,-.022532,-.005695,-.023417,-.00443,0.0*
1,1,.001,-.023417,-.00443*
20,1,.001,-.023417,-.00443,-.02407,-.00303,0.0*
1,1,.001,-.02407,-.00303*
20,1,.001,-.02407,-.00303,-.02447,-.001539,0.0*
1,1,.001,-.02447,-.001539*
20,1,.001,-.02447,-.001539,-.024605,0.0,0.0*
1,1,.001,-.024605,0.0*
20,1,.001,-.024605,0.0,-.02447,.001539,0.0*
1,1,.001,-.02447,.001539*
20,1,.001,-.02447,.001539,-.02407,.00303,0.0*
1,1,.001,-.02407,.00303*
20,1,.001,-.02407,.00303,-.023417,.00443,0.0*
1,1,.001,-.023417,.00443*
20,1,.001,-.023417,.00443,-.022532,.005695,0.0*
1,1,.001,-.022532,.005695*
20,1,.001,-.022532,.005695,-.02144,.006787,0.0*
1,1,.001,-.02144,.006787*
20,1,.001,-.02144,.006787,-.020175,.007673,0.0*
1,1,.001,-.020175,.007673*
20,1,.001,-.020175,.007673,-.018775,.008326,0.0*
1,1,.001,-.018775,.008326*
20,1,.001,-.018775,.008326,-.017283,.008725,0.0*
1,1,.001,-.017283,.008725*
20,1,.001,-.017283,.008725,-.015745,.00886,0.0*
1,1,.001,-.015745,.00886*
1,1,.001,-.00443,-.00443*
20,1,.001,-.00443,-.00443,-.005611,-.004282,0.0*
1,1,.001,-.005611,-.004282*
20,1,.001,-.005611,-.004282,-.006645,-.003692,0.0*
1,1,.001,-.006645,-.003692*
20,1,.001,-.006645,-.003692,-.007531,-.002806,0.0*
1,1,.001,-.007531,-.002806*
20,1,.001,-.007531,-.002806,-.008122,-.001772,0.0*
1,1,.001,-.008122,-.001772*
20,1,.001,-.008122,-.001772,-.008417,-.000591,0.0*
1,1,.001,-.008417,-.000591*
20,1,.001,-.008417,-.000591,-.008417,.000591,0.0*
1,1,.001,-.008417,.000591*
20,1,.001,-.008417,.000591,-.008122,.001772,0.0*
1,1,.001,-.008122,.001772*
20,1,.001,-.008122,.001772,-.007531,.002806,0.0*
1,1,.001,-.007531,.002806*
20,1,.001,-.007531,.002806,-.006645,.003692,0.0*
1,1,.001,-.006645,.003692*
20,1,.001,-.006645,.003692,-.005611,.004282,0.0*
1,1,.001,-.005611,.004282*
20,1,.001,-.005611,.004282,-.00443,.00443,0.0*
1,1,.001,-.00443,.00443*
20,1,.001,-.00443,.00443,-.003249,.004282,0.0*
1,1,.001,-.003249,.004282*
20,1,.001,-.003249,.004282,-.002215,.003692,0.0*
1,1,.001,-.002215,.003692*
20,1,.001,-.002215,.003692,-.001329,.002806,0.0*
1,1,.001,-.001329,.002806*
20,1,.001,-.001329,.002806,-.000738,.001772,0.0*
1,1,.001,-.000738,.001772*
20,1,.001,-.000738,.001772,-.000443,.000591,0.0*
1,1,.001,-.000443,.000591*
20,1,.001,-.000443,.000591,-.000443,-.000591,0.0*
1,1,.001,-.000443,-.000591*
20,1,.001,-.000443,-.000591,-.000738,-.001772,0.0*
1,1,.001,-.000738,-.001772*
20,1,.001,-.000738,-.001772,-.001329,-.002806,0.0*
1,1,.001,-.001329,-.002806*
20,1,.001,-.001329,-.002806,-.002215,-.003692,0.0*
1,1,.001,-.002215,-.003692*
20,1,.001,-.002215,-.003692,-.003249,-.004282,0.0*
1,1,.001,-.003249,-.004282*
20,1,.001,-.003249,-.004282,-.00443,-.00443,0.0*
1,1,.001,-.00443,-.00443*
1,1,.001,.000739,-.00443*
20,1,.001,.000739,-.00443,.004431,.00443,0.0*
1,1,.001,.004431,.00443*
20,1,.001,.004431,.00443,.008123,-.00443,0.0*
1,1,.001,.008123,-.00443*
1,1,.001,.006794,-.001329*
20,1,.001,.006794,-.001329,.002068,-.001329,0.0*
1,1,.001,.002068,-.001329*
%
%ADD12MACRO12*%
%AMMACRO11*
1,1,.001,.005,0.0*
20,1,.001,.005,0.0,-.005,0.0,0.0*
1,1,.001,-.005,0.0*
1,1,.001,0.0,.005*
20,1,.001,0.0,.005,0.0,-.005,0.0*
1,1,.001,0.0,-.005*
%
%ADD11MACRO11*%
%ADD24C,.001*%
G75*
%LPD*%
G75*
G54D10*
X0000015748Y0000015748D03*
X0000015748Y0000397638D03*
X0000377989Y0000015748D03*
X0000377989Y0000397638D03*
G54D11*
X0000008500Y0000050000D03*
X0000008500Y0000073000D03*
X0000005500Y0000097500D03*
X0000008000Y0000120000D03*
X0000013500Y0000138500D03*
X0000006500Y0000150500D03*
X0000006500Y0000168000D03*
X0000015100Y0000152200D03*
X0000013100Y0000156500D03*
X0000007000Y0000183000D03*
X0000015500Y0000241000D03*
X0000005000Y0000245500D03*
X0000005000Y0000259000D03*
X0000004000Y0000271500D03*
X0000012000Y0000279500D03*
X0000004000Y0000283000D03*
X0000013500Y0000296500D03*
X0000005500Y0000299500D03*
X0000006000Y0000322500D03*
X0000010000Y0000335500D03*
X0000005000Y0000367500D03*
X0000007500Y0000354500D03*
X0000004500Y0000385000D03*
X0000013500Y0000377000D03*
X0000018500Y0000035000D03*
X0000023000Y0000053000D03*
X0000034000Y0000041000D03*
X0000031500Y0000068000D03*
X0000019000Y0000088500D03*
X0000025000Y0000108500D03*
X0000034000Y0000099500D03*
X0000023000Y0000125500D03*
X0000026500Y0000148000D03*
X0000022500Y0000168500D03*
X0000019500Y0000168500D03*
X0000021300Y0000152000D03*
X0000022435Y0000172565D03*
X0000022500Y0000176500D03*
X0000019500Y0000180000D03*
X0000022500Y0000180000D03*
X0000027000Y0000200500D03*
X0000030000Y0000200500D03*
X0000027000Y0000203500D03*
X0000030000Y0000203500D03*
X0000029000Y0000216500D03*
X0000030000Y0000206500D03*
X0000027000Y0000206500D03*
X0000019000Y0000230000D03*
X0000029000Y0000226000D03*
X0000020500Y0000278000D03*
X0000022000Y0000270500D03*
X0000028500Y0000270900D03*
X0000024500Y0000264000D03*
X0000027500Y0000264000D03*
X0000024000Y0000261500D03*
X0000027500Y0000261500D03*
X0000024500Y0000274000D03*
X0000028500Y0000275000D03*
X0000020500Y0000274000D03*
X0000028500Y0000278000D03*
X0000028600Y0000291300D03*
X0000031800Y0000294300D03*
X0000031900Y0000285200D03*
X0000030500Y0000280000D03*
X0000028500Y0000282000D03*
X0000022925Y0000282000D03*
X0000032000Y0000298838D03*
X0000034000Y0000304500D03*
X0000016000Y0000328500D03*
X0000030000Y0000352500D03*
X0000028500Y0000361500D03*
X0000029500Y0000387000D03*
X0000029000Y0000409000D03*
X0000043000Y0000005500D03*
X0000037500Y0000020500D03*
X0000049500Y0000057500D03*
X0000047500Y0000072000D03*
X0000049500Y0000086500D03*
X0000049500Y0000105000D03*
X0000049500Y0000098500D03*
X0000049500Y0000114500D03*
X0000051500Y0000126000D03*
X0000047000Y0000133500D03*
X0000042000Y0000143000D03*
X0000036260Y0000151000D03*
X0000045500Y0000155000D03*
X0000049660Y0000175240D03*
X0000046300Y0000175170D03*
X0000049630Y0000178500D03*
X0000046300Y0000178400D03*
X0000049530Y0000181750D03*
X0000046240Y0000181720D03*
X0000051055Y0000192945D03*
X0000047500Y0000193000D03*
X0000046200Y0000270500D03*
X0000049000Y0000309500D03*
X0000045000Y0000304500D03*
X0000050500Y0000322500D03*
X0000045000Y0000329000D03*
X0000037500Y0000321000D03*
X0000037500Y0000346500D03*
X0000039500Y0000361500D03*
X0000045500Y0000373000D03*
X0000036500Y0000401000D03*
X0000042500Y0000392000D03*
X0000044000Y0000409000D03*
X0000064000Y0000006000D03*
X0000068500Y0000056500D03*
X0000063000Y0000056500D03*
X0000063500Y0000068500D03*
X0000063000Y0000083000D03*
X0000063500Y0000093500D03*
X0000057500Y0000101000D03*
X0000060500Y0000101000D03*
X0000057500Y0000118500D03*
X0000060500Y0000118500D03*
X0000060500Y0000129000D03*
X0000062858Y0000162058D03*
X0000062858Y0000158558D03*
X0000062858Y0000155058D03*
X0000059358Y0000162058D03*
X0000059358Y0000158558D03*
X0000059358Y0000155058D03*
X0000059500Y0000166500D03*
X0000054500Y0000151500D03*
X0000061000Y0000151500D03*
X0000063000Y0000166500D03*
X0000067500Y0000276000D03*
X0000068500Y0000289000D03*
X0000068500Y0000285500D03*
X0000065000Y0000287000D03*
X0000061400Y0000291400D03*
X0000057800Y0000297400D03*
X0000064500Y0000297000D03*
X0000065675Y0000279458D03*
X0000057875Y0000294319D03*
X0000057875Y0000291419D03*
X0000065675Y0000282358D03*
X0000061425Y0000285464D03*
X0000061425Y0000288364D03*
X0000053725Y0000297375D03*
X0000066614Y0000312886D03*
X0000054000Y0000304500D03*
X0000062000Y0000304500D03*
X0000053725Y0000300275D03*
X0000066500Y0000316114D03*
X0000060500Y0000317000D03*
X0000064000Y0000321500D03*
X0000068500Y0000321500D03*
X0000059500Y0000321500D03*
X0000055500Y0000321500D03*
X0000059500Y0000329500D03*
X0000067114Y0000342886D03*
X0000059500Y0000334500D03*
X0000066400Y0000336600D03*
X0000066500Y0000370000D03*
X0000057500Y0000364500D03*
X0000061500Y0000354500D03*
X0000060000Y0000380000D03*
X0000065000Y0000391000D03*
X0000060000Y0000408000D03*
X0000084000Y0000006000D03*
X0000072000Y0000024000D03*
X0000076500Y0000058000D03*
X0000075000Y0000046000D03*
X0000084000Y0000064500D03*
X0000081500Y0000079500D03*
X0000088500Y0000106500D03*
X0000083900Y0000148100D03*
X0000081200Y0000140200D03*
X0000074500Y0000144000D03*
X0000077500Y0000144000D03*
X0000074500Y0000141000D03*
X0000077500Y0000141000D03*
X0000074500Y0000138000D03*
X0000077500Y0000138000D03*
X0000077500Y0000166000D03*
X0000077000Y0000150700D03*
X0000077114Y0000174680D03*
X0000080307Y0000180693D03*
X0000082000Y0000197000D03*
X0000085000Y0000197000D03*
X0000088000Y0000197000D03*
X0000079000Y0000228500D03*
X0000078500Y0000231500D03*
X0000085000Y0000228500D03*
X0000082000Y0000228500D03*
X0000085500Y0000260000D03*
X0000088500Y0000260000D03*
X0000081500Y0000260000D03*
X0000078000Y0000260000D03*
X0000085500Y0000268500D03*
X0000074000Y0000274500D03*
X0000071063Y0000278063D03*
X0000078000Y0000265000D03*
X0000071000Y0000273000D03*
X0000072008Y0000292500D03*
X0000072000Y0000304000D03*
X0000086000Y0000300500D03*
X0000086500Y0000317870D03*
X0000086543Y0000328500D03*
X0000088800Y0000332043D03*
X0000088800Y0000324957D03*
X0000086543Y0000321413D03*
X0000076500Y0000352500D03*
X0000072500Y0000334500D03*
X0000086543Y0000335587D03*
X0000088386Y0000362886D03*
X0000071000Y0000361500D03*
X0000081500Y0000364500D03*
X0000088000Y0000382500D03*
X0000071500Y0000383000D03*
X0000079000Y0000375500D03*
X0000078500Y0000393000D03*
X0000084500Y0000401500D03*
X0000075500Y0000408000D03*
X0000095500Y0000004000D03*
X0000090000Y0000020500D03*
X0000100500Y0000015000D03*
X0000106500Y0000026000D03*
X0000107500Y0000046000D03*
X0000106000Y0000056500D03*
X0000091000Y0000055500D03*
X0000100500Y0000065000D03*
X0000101000Y0000079500D03*
X0000100500Y0000118741D03*
X0000098500Y0000128500D03*
X0000097500Y0000116500D03*
X0000097500Y0000125500D03*
X0000100500Y0000122509D03*
X0000102300Y0000148200D03*
X0000091000Y0000137000D03*
X0000091000Y0000134000D03*
X0000094000Y0000137000D03*
X0000094000Y0000134000D03*
X0000097000Y0000137000D03*
X0000097000Y0000134000D03*
X0000103000Y0000133000D03*
X0000100000Y0000167500D03*
X0000102000Y0000159000D03*
X0000091000Y0000174000D03*
X0000096500Y0000179000D03*
X0000092500Y0000187000D03*
X0000100000Y0000181500D03*
X0000092000Y0000180000D03*
X0000105500Y0000181500D03*
X0000105500Y0000184500D03*
X0000096000Y0000197000D03*
X0000105500Y0000197000D03*
X0000091000Y0000197000D03*
X0000105500Y0000240000D03*
X0000103000Y0000257500D03*
X0000107500Y0000261000D03*
X0000094847Y0000289500D03*
X0000100500Y0000288000D03*
X0000105000Y0000292886D03*
X0000098000Y0000292886D03*
X0000095270Y0000300730D03*
X0000102357Y0000300500D03*
X0000103000Y0000335500D03*
X0000098814Y0000335500D03*
X0000094000Y0000335500D03*
X0000091614Y0000363000D03*
X0000100000Y0000366500D03*
X0000104000Y0000359500D03*
X0000096500Y0000360000D03*
X0000103500Y0000388000D03*
X0000100000Y0000379500D03*
X0000092500Y0000371500D03*
X0000101000Y0000400000D03*
X0000092500Y0000391500D03*
X0000092500Y0000408000D03*
X0000119938Y0000012000D03*
X0000108500Y0000019500D03*
X0000115886Y0000029500D03*
X0000120500Y0000024000D03*
X0000115500Y0000061500D03*
X0000119114Y0000063500D03*
X0000121500Y0000060000D03*
X0000110508Y0000094992D03*
X0000111500Y0000079500D03*
X0000125000Y0000079500D03*
X0000121500Y0000103000D03*
X0000125500Y0000122500D03*
X0000113000Y0000123000D03*
X0000116500Y0000123000D03*
X0000110508Y0000142492D03*
X0000118700Y0000148000D03*
X0000113700Y0000148000D03*
X0000108284Y0000148000D03*
X0000111500Y0000134500D03*
X0000116500Y0000134500D03*
X0000123700Y0000148098D03*
X0000121000Y0000139000D03*
X0000121500Y0000134500D03*
X0000125000Y0000143500D03*
X0000117761Y0000166156D03*
X0000110761Y0000166156D03*
X0000114261Y0000166156D03*
X0000110761Y0000173156D03*
X0000114261Y0000173156D03*
X0000110761Y0000169656D03*
X0000114261Y0000169656D03*
X0000117761Y0000173156D03*
X0000117761Y0000169656D03*
X0000125500Y0000174577D03*
X0000113500Y0000181000D03*
X0000120500Y0000182500D03*
X0000121000Y0000230000D03*
X0000120500Y0000240500D03*
X0000121000Y0000234000D03*
X0000113200Y0000230590D03*
X0000116200Y0000230590D03*
X0000113200Y0000227590D03*
X0000116200Y0000227590D03*
X0000120500Y0000243500D03*
X0000109500Y0000271000D03*
X0000116500Y0000261000D03*
X0000112987Y0000310500D03*
X0000120074Y0000310500D03*
X0000120500Y0000317870D03*
X0000111500Y0000356500D03*
X0000121500Y0000356500D03*
X0000122500Y0000369000D03*
X0000111500Y0000362500D03*
X0000111500Y0000368500D03*
X0000122000Y0000363000D03*
X0000122500Y0000382500D03*
X0000111500Y0000374000D03*
X0000111500Y0000380500D03*
X0000111500Y0000386500D03*
X0000122000Y0000387500D03*
X0000122500Y0000376000D03*
X0000109500Y0000405500D03*
X0000110723Y0000392777D03*
X0000121000Y0000405500D03*
X0000122337Y0000392663D03*
X0000124500Y0000405500D03*
X0000112500Y0000405500D03*
X0000128599Y0000003599D03*
X0000140000Y0000003500D03*
X0000127114Y0000029500D03*
X0000127736Y0000024236D03*
X0000133642Y0000024236D03*
X0000139547Y0000024236D03*
X0000127000Y0000056500D03*
X0000130500Y0000046000D03*
X0000127000Y0000060000D03*
X0000131886Y0000168386D03*
X0000126500Y0000162000D03*
X0000126500Y0000157000D03*
X0000138000Y0000176500D03*
X0000132000Y0000172000D03*
X0000138000Y0000198000D03*
X0000132500Y0000240008D03*
X0000136000Y0000236500D03*
X0000143000Y0000236500D03*
X0000142000Y0000227500D03*
X0000142037Y0000250500D03*
X0000139000Y0000250500D03*
X0000135500Y0000250500D03*
X0000132400Y0000277614D03*
X0000131114Y0000263886D03*
X0000142400Y0000273000D03*
X0000136800Y0000273000D03*
X0000143400Y0000268600D03*
X0000136500Y0000297000D03*
X0000141000Y0000297000D03*
X0000127469Y0000285969D03*
X0000140000Y0000313000D03*
X0000141000Y0000303500D03*
X0000131500Y0000355500D03*
X0000133000Y0000367000D03*
X0000132000Y0000379500D03*
X0000132500Y0000391000D03*
X0000134500Y0000405500D03*
X0000149500Y0000006500D03*
X0000157500Y0000012500D03*
X0000145453Y0000024236D03*
X0000151358Y0000024236D03*
X0000157264Y0000024236D03*
X0000160000Y0000048000D03*
X0000160500Y0000091500D03*
X0000160500Y0000094500D03*
X0000161000Y0000082500D03*
X0000161000Y0000085500D03*
X0000160500Y0000103500D03*
X0000160500Y0000100000D03*
X0000159000Y0000111500D03*
X0000159000Y0000108500D03*
X0000159500Y0000119500D03*
X0000161000Y0000123000D03*
X0000158509Y0000132250D03*
X0000152500Y0000136000D03*
X0000160500Y0000136000D03*
X0000154741Y0000132250D03*
X0000154500Y0000165500D03*
X0000156500Y0000185000D03*
X0000158500Y0000187750D03*
X0000153500Y0000187500D03*
X0000158500Y0000199000D03*
X0000149000Y0000187500D03*
X0000163000Y0000190500D03*
X0000149500Y0000192000D03*
X0000158500Y0000193000D03*
X0000158500Y0000196000D03*
X0000155500Y0000240000D03*
X0000145500Y0000227500D03*
X0000146000Y0000240008D03*
X0000156800Y0000232400D03*
X0000163000Y0000251500D03*
X0000145500Y0000250500D03*
X0000152500Y0000243386D03*
X0000159500Y0000251500D03*
X0000149800Y0000273000D03*
X0000146100Y0000272900D03*
X0000147886Y0000293386D03*
X0000160114Y0000293500D03*
X0000144741Y0000297759D03*
X0000158528Y0000309472D03*
X0000151000Y0000313000D03*
X0000146000Y0000324000D03*
X0000145000Y0000318000D03*
X0000155000Y0000317500D03*
X0000159500Y0000332000D03*
X0000154832Y0000331832D03*
X0000146000Y0000329500D03*
X0000151500Y0000329500D03*
X0000147000Y0000367500D03*
X0000162000Y0000371000D03*
X0000158500Y0000355000D03*
X0000147000Y0000353000D03*
X0000163000Y0000384500D03*
X0000147000Y0000382000D03*
X0000149500Y0000405000D03*
X0000146500Y0000395000D03*
X0000160000Y0000397000D03*
X0000180000Y0000005500D03*
X0000164500Y0000005500D03*
X0000171000Y0000020500D03*
X0000168500Y0000034000D03*
X0000174500Y0000029500D03*
X0000174500Y0000034000D03*
X0000163169Y0000024236D03*
X0000176000Y0000025000D03*
X0000168500Y0000038500D03*
X0000168500Y0000047500D03*
X0000168500Y0000043000D03*
X0000164000Y0000082500D03*
X0000164000Y0000085500D03*
X0000178500Y0000105000D03*
X0000178500Y0000102000D03*
X0000175500Y0000105000D03*
X0000164000Y0000103500D03*
X0000164000Y0000100000D03*
X0000164500Y0000129500D03*
X0000164500Y0000126600D03*
X0000167700Y0000132500D03*
X0000164600Y0000132400D03*
X0000175500Y0000169500D03*
X0000168500Y0000185000D03*
X0000175969Y0000222031D03*
X0000179000Y0000206000D03*
X0000166000Y0000240000D03*
X0000168400Y0000232300D03*
X0000167900Y0000227300D03*
X0000179000Y0000234500D03*
X0000179000Y0000227500D03*
X0000181087Y0000239086D03*
X0000170500Y0000229500D03*
X0000181000Y0000243898D03*
X0000181000Y0000257000D03*
X0000181020Y0000260433D03*
X0000170886Y0000277614D03*
X0000177000Y0000264000D03*
X0000180500Y0000276900D03*
X0000181000Y0000264000D03*
X0000169000Y0000300500D03*
X0000169000Y0000303500D03*
X0000174000Y0000303500D03*
X0000174000Y0000300500D03*
X0000179000Y0000300500D03*
X0000179000Y0000303500D03*
X0000174000Y0000332000D03*
X0000173500Y0000342500D03*
X0000178000Y0000349500D03*
X0000173000Y0000365000D03*
X0000180500Y0000377500D03*
X0000181000Y0000388500D03*
X0000170000Y0000377500D03*
X0000174000Y0000390000D03*
X0000165000Y0000409000D03*
X0000184500Y0000012000D03*
X0000199500Y0000012000D03*
X0000198000Y0000005000D03*
X0000186500Y0000034000D03*
X0000186500Y0000031000D03*
X0000189500Y0000031000D03*
X0000192500Y0000031000D03*
X0000189500Y0000034000D03*
X0000192500Y0000034000D03*
X0000188500Y0000041000D03*
X0000194000Y0000041000D03*
X0000192500Y0000077500D03*
X0000181500Y0000079000D03*
X0000192500Y0000085000D03*
X0000188000Y0000082000D03*
X0000185000Y0000082000D03*
X0000185000Y0000085000D03*
X0000185000Y0000088000D03*
X0000188000Y0000088000D03*
X0000188000Y0000085000D03*
X0000181500Y0000105000D03*
X0000198000Y0000099500D03*
X0000198000Y0000096800D03*
X0000197000Y0000110500D03*
X0000184000Y0000119500D03*
X0000196400Y0000129300D03*
X0000184000Y0000149409D03*
X0000184000Y0000142323D03*
X0000196500Y0000137598D03*
X0000184000Y0000156496D03*
X0000184000Y0000163583D03*
X0000184000Y0000170669D03*
X0000184000Y0000184843D03*
X0000184000Y0000177756D03*
X0000197000Y0000202000D03*
X0000184000Y0000191929D03*
X0000184000Y0000199016D03*
X0000198000Y0000192500D03*
X0000184000Y0000213189D03*
X0000184000Y0000206102D03*
X0000184000Y0000220276D03*
X0000199500Y0000205500D03*
X0000184000Y0000227362D03*
X0000184000Y0000234449D03*
X0000184000Y0000241535D03*
X0000184000Y0000248622D03*
X0000184000Y0000255709D03*
X0000197000Y0000243500D03*
X0000196000Y0000256000D03*
X0000184000Y0000262795D03*
X0000184000Y0000269882D03*
X0000184000Y0000276969D03*
X0000184000Y0000284055D03*
X0000184000Y0000291142D03*
X0000197500Y0000313583D03*
X0000184000Y0000312402D03*
X0000198000Y0000303500D03*
X0000196563Y0000328937D03*
X0000184000Y0000319488D03*
X0000184000Y0000326575D03*
X0000184000Y0000333661D03*
X0000196500Y0000333500D03*
X0000196714Y0000338386D03*
X0000184000Y0000340748D03*
X0000184000Y0000347835D03*
X0000196000Y0000348000D03*
X0000197500Y0000350197D03*
X0000184000Y0000354921D03*
X0000197500Y0000355500D03*
X0000195000Y0000361500D03*
X0000190500Y0000385500D03*
X0000194500Y0000393500D03*
X0000185500Y0000390500D03*
X0000205500Y0000005000D03*
X0000205000Y0000061500D03*
X0000213000Y0000061500D03*
X0000203000Y0000071000D03*
X0000215500Y0000071000D03*
X0000206000Y0000071000D03*
X0000216000Y0000078500D03*
X0000218000Y0000088500D03*
X0000201000Y0000099500D03*
X0000201000Y0000096800D03*
X0000215400Y0000110200D03*
X0000212000Y0000100500D03*
X0000201050Y0000123960D03*
X0000216500Y0000128500D03*
X0000200000Y0000141500D03*
X0000205000Y0000132500D03*
X0000213500Y0000139500D03*
X0000204000Y0000149500D03*
X0000200000Y0000137500D03*
X0000204500Y0000167000D03*
X0000212500Y0000157500D03*
X0000204500Y0000184000D03*
X0000215500Y0000177500D03*
X0000202000Y0000202500D03*
X0000205000Y0000196500D03*
X0000215500Y0000190000D03*
X0000216000Y0000199000D03*
X0000215000Y0000217500D03*
X0000205500Y0000218500D03*
X0000215500Y0000209000D03*
X0000215000Y0000229500D03*
X0000205000Y0000226500D03*
X0000210500Y0000233500D03*
X0000202000Y0000235500D03*
X0000211000Y0000240500D03*
X0000215500Y0000235500D03*
X0000214000Y0000243500D03*
X0000215500Y0000248500D03*
X0000216000Y0000259500D03*
X0000204000Y0000251500D03*
X0000209000Y0000255500D03*
X0000205000Y0000243500D03*
X0000201000Y0000257000D03*
X0000201000Y0000253500D03*
X0000204000Y0000262000D03*
X0000217000Y0000275500D03*
X0000212000Y0000262500D03*
X0000206500Y0000271500D03*
X0000210000Y0000271500D03*
X0000206500Y0000268000D03*
X0000206500Y0000265000D03*
X0000216000Y0000266339D03*
X0000216000Y0000263000D03*
X0000213000Y0000285000D03*
X0000217000Y0000283000D03*
X0000209500Y0000286000D03*
X0000209500Y0000282500D03*
X0000202000Y0000282500D03*
X0000202000Y0000286000D03*
X0000212780Y0000288780D03*
X0000203000Y0000299000D03*
X0000200500Y0000311500D03*
X0000214500Y0000303000D03*
X0000215500Y0000311500D03*
X0000208500Y0000319500D03*
X0000208500Y0000324100D03*
X0000204000Y0000324213D03*
X0000201000Y0000315945D03*
X0000215500Y0000322000D03*
X0000212000Y0000333000D03*
X0000204500Y0000333500D03*
X0000200500Y0000327500D03*
X0000211500Y0000322000D03*
X0000209500Y0000345600D03*
X0000201000Y0000347500D03*
X0000206000Y0000347500D03*
X0000208900Y0000349000D03*
X0000202500Y0000350000D03*
X0000206636Y0000338136D03*
X0000200900Y0000338300D03*
X0000200000Y0000366500D03*
X0000212000Y0000365500D03*
X0000217500Y0000358500D03*
X0000214000Y0000382000D03*
X0000217000Y0000386000D03*
X0000207000Y0000377500D03*
X0000200500Y0000395500D03*
X0000212000Y0000400500D03*
X0000210000Y0000409500D03*
X0000220000Y0000020000D03*
X0000229500Y0000020000D03*
X0000235000Y0000016000D03*
X0000231000Y0000005500D03*
X0000220000Y0000033500D03*
X0000227500Y0000055031D03*
X0000222000Y0000061500D03*
X0000234114Y0000062500D03*
X0000227000Y0000071000D03*
X0000232500Y0000091500D03*
X0000235500Y0000101000D03*
X0000235500Y0000104000D03*
X0000235500Y0000098000D03*
X0000229500Y0000119500D03*
X0000229500Y0000130000D03*
X0000233500Y0000120500D03*
X0000233500Y0000117500D03*
X0000236500Y0000120500D03*
X0000236500Y0000117500D03*
X0000228598Y0000148228D03*
X0000228598Y0000141142D03*
X0000233500Y0000159000D03*
X0000233500Y0000154500D03*
X0000228598Y0000162402D03*
X0000235000Y0000167000D03*
X0000228598Y0000169488D03*
X0000228598Y0000176575D03*
X0000228598Y0000183661D03*
X0000228598Y0000197835D03*
X0000228598Y0000204921D03*
X0000233500Y0000189000D03*
X0000228598Y0000212008D03*
X0000228598Y0000219095D03*
X0000228598Y0000226181D03*
X0000228598Y0000233268D03*
X0000228598Y0000240354D03*
X0000235500Y0000232000D03*
X0000228598Y0000247441D03*
X0000228598Y0000254528D03*
X0000228598Y0000275787D03*
X0000228598Y0000268701D03*
X0000228598Y0000261614D03*
X0000232500Y0000284500D03*
X0000232500Y0000288500D03*
X0000228598Y0000282874D03*
X0000228598Y0000289961D03*
X0000222500Y0000296000D03*
X0000228598Y0000311221D03*
X0000231500Y0000300000D03*
X0000228598Y0000318307D03*
X0000228598Y0000332480D03*
X0000228598Y0000325394D03*
X0000228598Y0000339567D03*
X0000228598Y0000346654D03*
X0000226000Y0000358500D03*
X0000223000Y0000366000D03*
X0000233500Y0000358500D03*
X0000233000Y0000366500D03*
X0000219500Y0000382000D03*
X0000225500Y0000386000D03*
X0000233500Y0000382500D03*
X0000233000Y0000375000D03*
X0000223000Y0000400500D03*
X0000232000Y0000391000D03*
X0000232000Y0000394500D03*
X0000235500Y0000394500D03*
X0000235500Y0000391000D03*
X0000224500Y0000408500D03*
X0000249000Y0000020500D03*
X0000241500Y0000016000D03*
X0000245000Y0000005000D03*
X0000244500Y0000033500D03*
X0000244500Y0000039000D03*
X0000251000Y0000035500D03*
X0000251000Y0000038500D03*
X0000254000Y0000038500D03*
X0000254000Y0000035500D03*
X0000251000Y0000032500D03*
X0000254000Y0000032500D03*
X0000238500Y0000101000D03*
X0000238500Y0000104000D03*
X0000238500Y0000098000D03*
X0000239500Y0000120500D03*
X0000239500Y0000117500D03*
X0000240000Y0000143500D03*
X0000239500Y0000136000D03*
X0000237500Y0000150500D03*
X0000244500Y0000167500D03*
X0000249000Y0000167500D03*
X0000244500Y0000163500D03*
X0000249000Y0000163500D03*
X0000237500Y0000176000D03*
X0000246000Y0000186500D03*
X0000249000Y0000174500D03*
X0000240500Y0000241000D03*
X0000248500Y0000232500D03*
X0000242000Y0000225500D03*
X0000240500Y0000246000D03*
X0000238500Y0000254500D03*
X0000251500Y0000254500D03*
X0000250000Y0000246000D03*
X0000242500Y0000266000D03*
X0000252500Y0000272500D03*
X0000243500Y0000282000D03*
X0000244000Y0000296000D03*
X0000252500Y0000287500D03*
X0000242000Y0000318500D03*
X0000241000Y0000324000D03*
X0000245400Y0000332300D03*
X0000249700Y0000332500D03*
X0000237000Y0000343900D03*
X0000248100Y0000344000D03*
X0000243600Y0000343900D03*
X0000237000Y0000339600D03*
X0000241000Y0000365500D03*
X0000240000Y0000358500D03*
X0000238500Y0000375000D03*
X0000250500Y0000375500D03*
X0000244500Y0000375000D03*
X0000239500Y0000409000D03*
X0000254000Y0000409000D03*
X0000266500Y0000019000D03*
X0000256500Y0000015000D03*
X0000259500Y0000005000D03*
X0000266500Y0000011000D03*
X0000258000Y0000027500D03*
X0000262900Y0000023500D03*
X0000264000Y0000041500D03*
X0000260000Y0000049000D03*
X0000273000Y0000068500D03*
X0000269000Y0000363000D03*
X0000257500Y0000381000D03*
X0000259000Y0000374000D03*
X0000271000Y0000389000D03*
X0000264000Y0000404000D03*
X0000268500Y0000409000D03*
X0000274000Y0000005000D03*
X0000289500Y0000005000D03*
X0000274000Y0000011500D03*
X0000281500Y0000013000D03*
X0000288000Y0000022500D03*
X0000290650Y0000036350D03*
X0000274000Y0000025000D03*
X0000276500Y0000028500D03*
X0000280500Y0000028500D03*
X0000284500Y0000028500D03*
X0000278500Y0000025000D03*
X0000291000Y0000054500D03*
X0000277114Y0000066386D03*
X0000275000Y0000062500D03*
X0000290500Y0000073000D03*
X0000278900Y0000062800D03*
X0000282000Y0000062400D03*
X0000285500Y0000063500D03*
X0000290500Y0000085000D03*
X0000283000Y0000077000D03*
X0000287000Y0000256890D03*
X0000287000Y0000262000D03*
X0000285500Y0000270500D03*
X0000274500Y0000346000D03*
X0000284500Y0000334500D03*
X0000286500Y0000357000D03*
X0000276000Y0000404500D03*
X0000287500Y0000407114D03*
X0000303000Y0000005000D03*
X0000305500Y0000013000D03*
X0000293886Y0000022714D03*
X0000305114Y0000022500D03*
X0000298500Y0000055500D03*
X0000296200Y0000057600D03*
X0000297000Y0000052000D03*
X0000297950Y0000062950D03*
X0000301500Y0000063000D03*
X0000303000Y0000074886D03*
X0000293000Y0000060000D03*
X0000292886Y0000078114D03*
X0000292500Y0000112500D03*
X0000309000Y0000096500D03*
X0000292500Y0000123000D03*
X0000303500Y0000118500D03*
X0000310030Y0000142005D03*
X0000310030Y0000138245D03*
X0000298000Y0000150000D03*
X0000292500Y0000150000D03*
X0000307000Y0000140000D03*
X0000306500Y0000144500D03*
X0000305000Y0000149000D03*
X0000292500Y0000145500D03*
X0000292500Y0000136500D03*
X0000307000Y0000136000D03*
X0000298000Y0000153500D03*
X0000295500Y0000168000D03*
X0000295500Y0000163500D03*
X0000299000Y0000168000D03*
X0000299000Y0000163500D03*
X0000305000Y0000154000D03*
X0000306000Y0000163500D03*
X0000297000Y0000215500D03*
X0000297000Y0000226000D03*
X0000297000Y0000239000D03*
X0000298000Y0000250000D03*
X0000294500Y0000249803D03*
X0000298500Y0000259500D03*
X0000296000Y0000275500D03*
X0000292000Y0000288500D03*
X0000301500Y0000307000D03*
X0000300500Y0000320000D03*
X0000304000Y0000335000D03*
X0000300500Y0000370000D03*
X0000304500Y0000385000D03*
X0000300500Y0000408000D03*
X0000306500Y0000410000D03*
X0000310500Y0000012000D03*
X0000321500Y0000012000D03*
X0000318500Y0000005000D03*
X0000315500Y0000013000D03*
X0000316000Y0000033000D03*
X0000320000Y0000033000D03*
X0000324000Y0000033000D03*
X0000317000Y0000025000D03*
X0000321000Y0000025000D03*
X0000317900Y0000036000D03*
X0000326000Y0000108500D03*
X0000321000Y0000097500D03*
X0000325883Y0000131628D03*
X0000325500Y0000124000D03*
X0000311000Y0000123000D03*
X0000326000Y0000144995D03*
X0000326000Y0000148755D03*
X0000321000Y0000144500D03*
X0000314000Y0000135500D03*
X0000325883Y0000135388D03*
X0000323475Y0000161005D03*
X0000323475Y0000157245D03*
X0000320500Y0000154000D03*
X0000323000Y0000216500D03*
X0000324000Y0000239500D03*
X0000324000Y0000228500D03*
X0000323500Y0000260000D03*
X0000324000Y0000249000D03*
X0000326500Y0000269000D03*
X0000310500Y0000291500D03*
X0000324500Y0000304000D03*
X0000318000Y0000321000D03*
X0000328000Y0000347000D03*
X0000323500Y0000369500D03*
X0000313000Y0000385000D03*
X0000323500Y0000385000D03*
X0000313000Y0000404500D03*
X0000325600Y0000408200D03*
X0000329500Y0000015000D03*
X0000341000Y0000016000D03*
X0000346500Y0000006500D03*
X0000335500Y0000005500D03*
X0000340300Y0000036500D03*
X0000330300Y0000033700D03*
X0000336000Y0000023500D03*
X0000344000Y0000031500D03*
X0000342500Y0000043000D03*
X0000345500Y0000103500D03*
X0000336500Y0000108000D03*
X0000342500Y0000108500D03*
X0000335000Y0000097500D03*
X0000332000Y0000118000D03*
X0000331500Y0000123500D03*
X0000334000Y0000154005D03*
X0000329500Y0000152000D03*
X0000342000Y0000152000D03*
X0000334000Y0000150245D03*
X0000331000Y0000214500D03*
X0000331000Y0000208500D03*
X0000346000Y0000218500D03*
X0000331000Y0000221000D03*
X0000331000Y0000232000D03*
X0000331000Y0000227000D03*
X0000346000Y0000223973D03*
X0000346000Y0000238973D03*
X0000346000Y0000228000D03*
X0000331000Y0000239000D03*
X0000331000Y0000245000D03*
X0000331000Y0000250500D03*
X0000336500Y0000278500D03*
X0000335500Y0000261500D03*
X0000347000Y0000288500D03*
X0000343000Y0000303000D03*
X0000343000Y0000315500D03*
X0000342500Y0000328000D03*
X0000345000Y0000344500D03*
X0000343000Y0000384000D03*
X0000340000Y0000403500D03*
X0000335000Y0000390000D03*
X0000333800Y0000408300D03*
X0000344500Y0000409000D03*
X0000329800Y0000408300D03*
X0000338200Y0000408300D03*
X0000358000Y0000013500D03*
X0000359500Y0000004500D03*
X0000351500Y0000039000D03*
X0000360500Y0000026500D03*
X0000351500Y0000025000D03*
X0000359500Y0000047000D03*
X0000353000Y0000052000D03*
X0000360500Y0000056000D03*
X0000353000Y0000057500D03*
X0000352000Y0000063500D03*
X0000355900Y0000111900D03*
X0000351500Y0000096500D03*
X0000363500Y0000127300D03*
X0000353500Y0000116500D03*
X0000365000Y0000152500D03*
X0000354000Y0000183500D03*
X0000356000Y0000197000D03*
X0000356000Y0000194000D03*
X0000356000Y0000191000D03*
X0000359000Y0000191000D03*
X0000359000Y0000194000D03*
X0000359000Y0000197000D03*
X0000348000Y0000202000D03*
X0000348000Y0000208500D03*
X0000349500Y0000252500D03*
X0000348000Y0000246500D03*
X0000349500Y0000257500D03*
X0000348500Y0000269000D03*
X0000362500Y0000279500D03*
X0000353500Y0000315000D03*
X0000360500Y0000301500D03*
X0000353500Y0000324500D03*
X0000354500Y0000339500D03*
X0000349500Y0000350000D03*
X0000355000Y0000356000D03*
X0000350000Y0000358000D03*
X0000356500Y0000363000D03*
X0000349500Y0000377500D03*
X0000356500Y0000372000D03*
X0000354000Y0000399500D03*
X0000361000Y0000389500D03*
X0000360000Y0000409000D03*
X0000380000Y0000034500D03*
X0000367500Y0000054500D03*
X0000374000Y0000049000D03*
X0000375000Y0000062500D03*
X0000375000Y0000069000D03*
X0000366000Y0000073500D03*
X0000366000Y0000096500D03*
X0000380000Y0000096500D03*
X0000378500Y0000103000D03*
X0000381500Y0000103000D03*
X0000382000Y0000123500D03*
X0000378000Y0000128500D03*
X0000378000Y0000123500D03*
X0000382000Y0000128500D03*
X0000378000Y0000118500D03*
X0000378000Y0000113500D03*
X0000382000Y0000113500D03*
X0000369200Y0000113500D03*
X0000366000Y0000113500D03*
X0000370500Y0000117000D03*
X0000371000Y0000127300D03*
X0000367000Y0000127300D03*
X0000382000Y0000118500D03*
X0000371500Y0000146000D03*
X0000381000Y0000138000D03*
X0000382000Y0000133000D03*
X0000377951Y0000137900D03*
X0000371150Y0000132850D03*
X0000371000Y0000138300D03*
X0000380500Y0000149500D03*
X0000368500Y0000147500D03*
X0000378000Y0000133000D03*
X0000365500Y0000163000D03*
X0000373500Y0000156500D03*
X0000367000Y0000177000D03*
X0000380000Y0000169500D03*
X0000366000Y0000197000D03*
X0000378000Y0000201000D03*
X0000373000Y0000187500D03*
X0000374000Y0000204500D03*
X0000373600Y0000213800D03*
X0000380000Y0000214000D03*
X0000371800Y0000232300D03*
X0000377500Y0000224000D03*
X0000377500Y0000237000D03*
X0000368000Y0000245000D03*
X0000382500Y0000253500D03*
X0000379000Y0000268500D03*
X0000367500Y0000264000D03*
X0000372500Y0000290500D03*
X0000371000Y0000315500D03*
X0000379000Y0000305000D03*
X0000373000Y0000332500D03*
X0000380000Y0000324500D03*
X0000372000Y0000348500D03*
X0000379500Y0000341000D03*
X0000372000Y0000359000D03*
X0000382500Y0000359500D03*
X0000372500Y0000380500D03*
X0000383000Y0000375000D03*
X0000389500Y0000029500D03*
X0000389500Y0000041000D03*
X0000390500Y0000052000D03*
X0000390500Y0000072500D03*
X0000390500Y0000062000D03*
X0000390500Y0000084500D03*
X0000385500Y0000100000D03*
X0000389800Y0000105530D03*
X0000389500Y0000096500D03*
X0000389974Y0000117734D03*
X0000389974Y0000122459D03*
X0000389974Y0000129545D03*
X0000388874Y0000143718D03*
X0000389000Y0000141000D03*
X0000389974Y0000136632D03*
X0000388900Y0000147200D03*
X0000386000Y0000150000D03*
X0000386000Y0000157000D03*
X0000384000Y0000181000D03*
X0000388000Y0000195500D03*
X0000385000Y0000204500D03*
X0000386200Y0000213900D03*
X0000386100Y0000234500D03*
X0000387000Y0000240500D03*
X0000387000Y0000281500D03*
X0000388000Y0000314000D03*
X0000387500Y0000297500D03*
X0000387500Y0000331500D03*
X0000387000Y0000348000D03*
X0000388000Y0000367500D03*
X0000389000Y0000383500D03*
G54D20*
X0000043000Y0000095510D03*
X0000043000Y0000113227D03*
X0000043000Y0000105353D03*
X0000043000Y0000123070D03*
G54D12*
X0000006886Y0000192618D03*
X0000006886Y0000220768D03*
X0000020469Y0000192618D03*
X0000020469Y0000220768D03*
G54D21*
X0000206299Y0000098819D03*
G54D22*
X0000206299Y0000361811D03*
G54D13*
X0000015252Y0000198819D03*
X0000015252Y0000214567D03*
G54D14*
X0000012402Y0000254547D03*
X0000012402Y0000311633D03*
G54D23*
X0000312598Y0000109055D03*
X0000312598Y0000351575D03*
G54D24*
G01X-0000009843Y0D02*
X-0000133043Y0D01*
G01X-0000009843Y0000413386D02*
X-0000133043Y0000413386D01*
G01X0Y0D02*
X0000393737Y0D01*
X0000393737Y0000413386D01*
X0Y0000413386D01*
X0Y0D01*
G01X0Y0000423229D02*
X0Y0000539043D01*
G01X0000015748Y0000005905D02*
X0000015748Y-0000072443D01*
G01X0000195600Y-0000062600D02*
X0000015748Y-0000062600D01*
G01X0000031496Y-0000060140D02*
X0000015748Y-0000062600D01*
X0000031496Y-0000065060D01*
X0000031496Y-0000060140D01*
G01X0000174365Y-0000048642D02*
X0000175450Y-0000049683D01*
X0000176690Y-0000050100D01*
X0000177930Y-0000049683D01*
X0000179015Y-0000048434D01*
X0000179790Y-0000046558D01*
X0000180100Y-0000044683D01*
X0000180100Y-0000042392D01*
X0000179790Y-0000040517D01*
X0000179015Y-0000038850D01*
X0000178085Y-0000038017D01*
X0000177000Y-0000037600D01*
X0000175760Y-0000038017D01*
X0000174830Y-0000038850D01*
X0000174210Y-0000040100D01*
X0000173900Y-0000041767D01*
X0000174210Y-0000043225D01*
X0000174985Y-0000044683D01*
X0000175915Y-0000045517D01*
X0000177000Y-0000045725D01*
X0000178240Y-0000045309D01*
X0000179170Y-0000044267D01*
X0000180100Y-0000042392D01*
G01X0000186455Y-0000039683D02*
X0000187385Y-0000038434D01*
X0000188470Y-0000037808D01*
X0000189710Y-0000037600D01*
X0000191260Y-0000038017D01*
X0000192345Y-0000039058D01*
X0000192655Y-0000040308D01*
X0000192500Y-0000041559D01*
X0000191880Y-0000042600D01*
X0000188780Y-0000044683D01*
X0000187385Y-0000046142D01*
X0000186455Y-0000048225D01*
X0000186145Y-0000050100D01*
X0000192655Y-0000050100D01*
G01X0000197770Y-0000050100D02*
X0000197770Y-0000037600D01*
X0000201800Y-0000048017D01*
X0000205830Y-0000037600D01*
X0000205830Y-0000050100D01*
G01X0000210170Y-0000050100D02*
X0000210170Y-0000037600D01*
X0000214200Y-0000048017D01*
X0000218230Y-0000037600D01*
X0000218230Y-0000050100D01*
G01X0000166100Y-0000056350D02*
X0000166100Y-0000031350D01*
X0000225100Y-0000031350D01*
X0000225100Y-0000056350D01*
X0000166100Y-0000056350D01*
G01X0000195600Y-0000062600D02*
X0000377989Y-0000062600D01*
G01X0000362241Y-0000065060D02*
X0000377989Y-0000062600D01*
X0000362241Y-0000060140D01*
X0000362241Y-0000065060D01*
G01X0000377989Y0000005905D02*
X0000377989Y-0000072443D01*
G01X0000387832Y0000015748D02*
X0000457943Y0000015748D01*
G01X0000387832Y0000397638D02*
X0000457943Y0000397638D01*
G01X0000393737Y0000423229D02*
X0000393737Y0000539043D01*
G01X0000441850Y0000187700D02*
X0000416850Y0000187700D01*
X0000416850Y0000246700D01*
X0000441850Y0000246700D01*
X0000441850Y0000187700D01*
G01X0000434142Y0000195965D02*
X0000435183Y0000197050D01*
X0000435600Y0000198290D01*
X0000435183Y0000199530D01*
X0000433934Y0000200615D01*
X0000432058Y0000201390D01*
X0000430183Y0000201700D01*
X0000427892Y0000201700D01*
X0000426017Y0000201390D01*
X0000424350Y0000200615D01*
X0000423517Y0000199685D01*
X0000423100Y0000198600D01*
X0000423517Y0000197360D01*
X0000424350Y0000196430D01*
X0000425600Y0000195810D01*
X0000427267Y0000195500D01*
X0000428725Y0000195810D01*
X0000430183Y0000196585D01*
X0000431017Y0000197515D01*
X0000431225Y0000198600D01*
X0000430809Y0000199840D01*
X0000429767Y0000200770D01*
X0000427892Y0000201700D01*
G01X0000435600Y0000210690D02*
X0000432892Y0000211000D01*
X0000430600Y0000211465D01*
X0000428517Y0000212085D01*
X0000426225Y0000212860D01*
X0000423100Y0000214100D01*
X0000423100Y0000207900D01*
G01X0000435600Y0000219370D02*
X0000423100Y0000219370D01*
X0000433517Y0000223400D01*
X0000423100Y0000227430D01*
X0000435600Y0000227430D01*
G01X0000435600Y0000231770D02*
X0000423100Y0000231770D01*
X0000433517Y0000235800D01*
X0000423100Y0000239830D01*
X0000435600Y0000239830D01*
G54D15*
X0000015084Y0000347592D03*
X0000015084Y0000365308D03*
X0000041878Y0000038189D03*
X0000053689Y0000038189D03*
X0000041878Y0000050000D03*
X0000053689Y0000050000D03*
X0000065500Y0000038189D03*
X0000065500Y0000050000D03*
X0000182000Y0000404000D03*
X0000172000Y0000404000D03*
X0000192000Y0000404000D03*
X0000212500Y0000010500D03*
X0000202000Y0000404000D03*
X0000222500Y0000010500D03*
X0000383221Y0000046752D03*
X0000383221Y0000056752D03*
X0000383221Y0000066752D03*
X0000383221Y0000076752D03*
G54D16*
X0000032331Y0000083424D03*
X0000032331Y0000135156D03*
G54D17*
X0000035866Y0000254547D03*
X0000035866Y0000311633D03*
G54D18*
X0000024926Y0000342670D03*
X0000024926Y0000370230D03*
G54D19*
X0000053689Y0000021181D03*
M02*
