G04 ================== begin FILE IDENTIFICATION RECORD ==================*
G04 Layout Name:  C:/Users/rock/Documents/Work/ZHG/RPI-CMIO/RPI-CMIO.brd*
G04 Film Name:    PWR03*
G04 File Format:  Gerber RS274X*
G04 File Origin:  Cadence Allegro 17.2-S045*
G04 Origin Date:  Mon Mar 25 15:18:37 2019*
G04 *
G04 Layer:  ETCH/PWR03*
G04 Layer:  PIN/PWR03*
G04 Layer:  VIA CLASS/PWR03*
G04 Layer:  BOARD GEOMETRY/OUTLINE*
G04 *
G04 Offset:    (0.000 0.000)*
G04 Mirror:    No*
G04 Mode:      Positive*
G04 Rotation:  0*
G04 FullContactRelief:  No*
G04 UndefLineWidth:     6.000*
G04 ================== end FILE IDENTIFICATION RECORD ====================*
%FSAX55Y55*MOIN*%
%IR0*IPPOS*OFA0.00000B0.00000*MIA0B0*SFA1.00000B1.00000*%
%ADD19C,.11811*%
%ADD16C,.135831*%
%ADD17O,.129921X.059059*%
%ADD11C,.02*%
%ADD21C,.03937*%
%ADD13C,.025591*%
%ADD12O,.072831X.041339*%
%ADD15C,.068902*%
%ADD20C,.059059*%
%ADD14O,.090551X.059059*%
%ADD18C,.098429*%
%ADD10C,.019689*%
%ADD22C,.025*%
%ADD23C,.006*%
%ADD26C,.150124*%
%ADD28C,.220624*%
%ADD32C,.114434*%
%ADD27C,.220482*%
%ADD31C,.151836*%
%ADD24C,.032004*%
%ADD34C,.075064*%
%ADD25C,.059316*%
%ADD29C,.041596*%
%ADD30C,.084906*%
%ADD33C,.078906*%
%ADD35C,.078992*%
G75*
%LPD*%
G75*
G36*
G01X0000005500Y0000297900D02*
G03X0000005500Y0000301100I0J0000001600D01*
G03X0000004623Y0000300838I0J-0000001600D01*
G02X0000004004Y0000301173I-0000000219J0000000335D01*
G01X0000004004Y0000321295D01*
G02X0000004723Y0000321536I0000000400J0D01*
G03X0000006000Y0000320900I0000001277J0000000964D01*
G03X0000006000Y0000324100I0J0000001600D01*
G03X0000004723Y0000323464I0J-0000001600D01*
G02X0000004004Y0000323706I-0000000319J0000000241D01*
G01X0000004004Y0000365591D01*
G02X0000004523Y0000365972I0000000400J0D01*
G03X0000005000Y0000365900I0000000477J0000001528D01*
G03X0000005000Y0000369100I0J0000001600D01*
G03X0000004523Y0000369028I0J-0000001600D01*
G02X0000004004Y0000369409I-0000000119J0000000382D01*
G01X0000004004Y0000383002D01*
G02X0000004423Y0000383402I0000000400J0D01*
G03X0000004499Y0000383400I0000000076J0000001598D01*
G01X0000004500Y0000383400D01*
G03X0000004500Y0000386600I0J0000001600D01*
G01X0000004499Y0000386600D01*
G03X0000004423Y0000386598I0J-0000001600D01*
G02X0000004004Y0000386998I-0000000019J0000000400D01*
G01X0000004004Y0000388490D01*
G02X0000004715Y0000388741I0000000400J0D01*
G03X0000024645Y0000408670I0000011033J0000008897D01*
G02X0000024896Y0000409382I0000000251J0000000311D01*
G01X0000027000Y0000409382D01*
G02X0000027400Y0000408986I0J-0000000400D01*
G03X0000030600Y0000408986I0000001600J0000000014D01*
G02X0000031000Y0000409382I0000000400J-0000000004D01*
G01X0000042000Y0000409382D01*
G02X0000042400Y0000408986I0J-0000000400D01*
G03X0000045600Y0000408986I0000001600J0000000014D01*
G02X0000046000Y0000409382I0000000400J-0000000004D01*
G01X0000058257Y0000409382D01*
G02X0000058606Y0000408786I0J-0000000400D01*
G03X0000058400Y0000408000I0000001394J-0000000786D01*
G03X0000061600Y0000408000I0000001600J0D01*
G03X0000061394Y0000408786I-0000001600J0D01*
G02X0000061743Y0000409382I0000000348J0000000196D01*
G01X0000073757Y0000409382D01*
G02X0000074106Y0000408786I0J-0000000400D01*
G03X0000073900Y0000408000I0000001394J-0000000786D01*
G03X0000077100Y0000408000I0000001600J0D01*
G03X0000076894Y0000408786I-0000001600J0D01*
G02X0000077243Y0000409382I0000000348J0000000196D01*
G01X0000090757Y0000409382D01*
G02X0000091106Y0000408786I0J-0000000400D01*
G03X0000090900Y0000408000I0000001394J-0000000786D01*
G03X0000094100Y0000408000I0000001600J0D01*
G03X0000093894Y0000408786I-0000001600J0D01*
G02X0000094243Y0000409382I0000000348J0000000196D01*
G01X0000163000Y0000409382D01*
G02X0000163400Y0000408986I0J-0000000400D01*
G03X0000166600Y0000408986I0000001600J0000000014D01*
G02X0000167000Y0000409382I0000000400J-0000000004D01*
G01X0000208395Y0000409382D01*
X0000208425Y0000409217D01*
G03X0000211575Y0000409217I0000001575J0000000283D01*
G01X0000211605Y0000409382D01*
X0000222559Y0000409382D01*
G02X0000222947Y0000408885I0J-0000000400D01*
G03X0000222900Y0000408500I0000001553J-0000000385D01*
G03X0000226100Y0000408500I0000001600J0D01*
G03X0000226053Y0000408885I-0000001600J0D01*
G02X0000226441Y0000409382I0000000388J0000000096D01*
G01X0000237500Y0000409382D01*
G02X0000237900Y0000408986I0J-0000000400D01*
G03X0000241100Y0000408986I0000001600J0000000014D01*
G02X0000241500Y0000409382I0000000400J-0000000004D01*
G01X0000252000Y0000409382D01*
G02X0000252400Y0000408986I0J-0000000400D01*
G03X0000255600Y0000408986I0000001600J0000000014D01*
G02X0000256000Y0000409382I0000000400J-0000000004D01*
G01X0000266500Y0000409382D01*
G02X0000266900Y0000408986I0J-0000000400D01*
G03X0000270100Y0000408986I0000001600J0000000014D01*
G02X0000270500Y0000409382I0000000400J-0000000004D01*
G01X0000298757Y0000409382D01*
G02X0000299106Y0000408786I0J-0000000400D01*
G03X0000298900Y0000408000I0000001394J-0000000786D01*
G03X0000302100Y0000408000I0000001600J0D01*
G03X0000301894Y0000408786I-0000001600J0D01*
G02X0000302243Y0000409382I0000000348J0000000196D01*
G01X0000305019Y0000409382D01*
X0000305075Y0000409273D01*
G03X0000307925Y0000409273I0000001425J0000000727D01*
G01X0000307981Y0000409382D01*
X0000323759Y0000409382D01*
G02X0000324127Y0000408826I0J-0000000400D01*
G03X0000324000Y0000408200I0000001473J-0000000625D01*
G03X0000327200Y0000408200I0000001600J0D01*
G03X0000327073Y0000408826I-0000001600J0D01*
G02X0000327441Y0000409382I0000000368J0000000156D01*
G01X0000327920Y0000409382D01*
G02X0000328296Y0000408846I0J-0000000400D01*
G03X0000328200Y0000408300I0000001504J-0000000546D01*
G03X0000331400Y0000408300I0000001600J0D01*
G03X0000331304Y0000408846I-0000001600J0D01*
G02X0000331680Y0000409382I0000000376J0000000136D01*
G01X0000331920Y0000409382D01*
G02X0000332296Y0000408846I0J-0000000400D01*
G03X0000332200Y0000408300I0000001504J-0000000546D01*
G03X0000335400Y0000408300I0000001600J0D01*
G03X0000335304Y0000408846I-0000001600J0D01*
G02X0000335680Y0000409382I0000000376J0000000136D01*
G01X0000336320Y0000409382D01*
G02X0000336696Y0000408846I0J-0000000400D01*
G03X0000336600Y0000408300I0000001504J-0000000546D01*
G03X0000339800Y0000408300I0000001600J0D01*
G03X0000339704Y0000408846I-0000001600J0D01*
G02X0000340080Y0000409382I0000000376J0000000136D01*
G01X0000342500Y0000409382D01*
G02X0000342900Y0000408986I0J-0000000400D01*
G03X0000346100Y0000408986I0000001600J0000000014D01*
G02X0000346500Y0000409382I0000000400J-0000000004D01*
G01X0000358000Y0000409382D01*
G02X0000358400Y0000408986I0J-0000000400D01*
G03X0000361600Y0000408986I0000001600J0000000014D01*
G02X0000362000Y0000409382I0000000400J-0000000004D01*
G01X0000368840Y0000409382D01*
G02X0000369091Y0000408670I0J-0000000400D01*
G03X0000389022Y0000388741I0000008897J-0000011033D01*
G02X0000389733Y0000388490I0000000311J-0000000251D01*
G01X0000389733Y0000385472D01*
G02X0000389266Y0000385078I-0000000400J0D01*
G03X0000389001Y0000385100I-0000000266J-0000001578D01*
G01X0000389000Y0000385100D01*
G03X0000389000Y0000381900I0J-0000001600D01*
G01X0000389001Y0000381900D01*
G03X0000389266Y0000381922I0J0000001600D01*
G02X0000389733Y0000381528I0000000067J-0000000394D01*
G01X0000389733Y0000368991D01*
G02X0000389066Y0000368693I-0000000400J0D01*
G03X0000388000Y0000369100I-0000001067J-0000001193D01*
G03X0000388000Y0000365900I0J-0000001600D01*
G03X0000389066Y0000366307I0J0000001600D01*
G02X0000389733Y0000366009I0000000267J-0000000298D01*
G01X0000389733Y0000315491D01*
G02X0000389066Y0000315193I-0000000400J0D01*
G03X0000388000Y0000315600I-0000001067J-0000001193D01*
G03X0000388000Y0000312400I0J-0000001600D01*
G03X0000389066Y0000312807I0J0000001600D01*
G02X0000389733Y0000312509I0000000267J-0000000298D01*
G01X0000389733Y0000196991D01*
G02X0000389066Y0000196693I-0000000400J0D01*
G03X0000388000Y0000197100I-0000001067J-0000001193D01*
G03X0000388000Y0000193900I0J-0000001600D01*
G03X0000389066Y0000194307I0J0000001600D01*
G02X0000389733Y0000194009I0000000267J-0000000298D01*
G01X0000389733Y0000149153D01*
G02X0000389246Y0000148762I-0000000400J0D01*
G03X0000388900Y0000148800I-0000000347J-0000001562D01*
G03X0000388900Y0000145600I0J-0000001600D01*
G03X0000389246Y0000145638I0J0000001600D01*
G02X0000389733Y0000145247I0000000087J-0000000391D01*
G01X0000389733Y0000142972D01*
G02X0000389266Y0000142578I-0000000400J0D01*
G03X0000389001Y0000142600I-0000000266J-0000001578D01*
G01X0000389000Y0000142600D01*
G03X0000389000Y0000139400I0J-0000001600D01*
G01X0000389001Y0000139400D01*
G03X0000389266Y0000139422I0J0000001600D01*
G02X0000389733Y0000139028I0000000067J-0000000394D01*
G01X0000389733Y0000138222D01*
X0000389582Y0000138183D01*
G03X0000389582Y0000135080I0000000392J-0000001551D01*
G01X0000389733Y0000135042D01*
X0000389733Y0000131135D01*
X0000389582Y0000131097D01*
G03X0000389582Y0000127994I0000000392J-0000001552D01*
G01X0000389733Y0000127956D01*
X0000389733Y0000124048D01*
X0000389582Y0000124010D01*
G03X0000389582Y0000120907I0000000392J-0000001551D01*
G01X0000389733Y0000120869D01*
X0000389733Y0000119324D01*
X0000389582Y0000119286D01*
G03X0000389582Y0000116183I0000000392J-0000001551D01*
G01X0000389733Y0000116145D01*
X0000389733Y0000107138D01*
X0000389563Y0000107112D01*
G03X0000389563Y0000103947I0000000237J-0000001583D01*
G01X0000389733Y0000103922D01*
X0000389733Y0000098493D01*
G02X0000389366Y0000098095I-0000000400J0D01*
G03X0000389366Y0000094905I0000000133J-0000001595D01*
G02X0000389733Y0000094507I-0000000033J-0000000399D01*
G01X0000389733Y0000085904D01*
G03X0000389733Y0000083096I0000000767J-0000001404D01*
G01X0000389733Y0000073904D01*
G03X0000389733Y0000071096I0000000767J-0000001404D01*
G01X0000389733Y0000063404D01*
G03X0000389733Y0000060596I0000000767J-0000001404D01*
G01X0000389733Y0000053404D01*
G03X0000389733Y0000050596I0000000767J-0000001404D01*
G01X0000389733Y0000042993D01*
G02X0000389366Y0000042595I-0000000400J0D01*
G03X0000389366Y0000039405I0000000133J-0000001595D01*
G02X0000389733Y0000039007I-0000000033J-0000000399D01*
G01X0000389733Y0000031493D01*
G02X0000389366Y0000031095I-0000000400J0D01*
G03X0000389366Y0000027905I0000000133J-0000001595D01*
G02X0000389733Y0000027507I-0000000033J-0000000399D01*
G01X0000389733Y0000024896D01*
G02X0000389022Y0000024645I-0000000400J0D01*
G03X0000369091Y0000004715I-0000011033J-0000008897D01*
G02X0000368840Y0000004004I-0000000251J-0000000311D01*
G01X0000361498Y0000004004D01*
G02X0000361098Y0000004423I0J0000000400D01*
G03X0000361100Y0000004499I-0000001598J0000000076D01*
G01X0000361100Y0000004500D01*
G03X0000357900Y0000004500I-0000001600J0D01*
G01X0000357900Y0000004499D01*
G03X0000357902Y0000004423I0000001600J0D01*
G02X0000357502Y0000004004I-0000000400J-0000000019D01*
G01X0000337173Y0000004004D01*
G02X0000336839Y0000004623I0J0000000400D01*
G03X0000337100Y0000005500I-0000001338J0000000877D01*
G03X0000333900Y0000005500I-0000001600J0D01*
G03X0000334162Y0000004623I0000001600J0D01*
G02X0000333827Y0000004004I-0000000335J-0000000219D01*
G01X0000320409Y0000004004D01*
G02X0000320028Y0000004523I0J0000000400D01*
G03X0000320100Y0000005000I-0000001528J0000000477D01*
G03X0000316900Y0000005000I-0000001600J0D01*
G03X0000316972Y0000004523I0000001600J0D01*
G02X0000316591Y0000004004I-0000000382J-0000000119D01*
G01X0000304909Y0000004004D01*
G02X0000304528Y0000004523I0J0000000400D01*
G03X0000304600Y0000005000I-0000001528J0000000477D01*
G03X0000301400Y0000005000I-0000001600J0D01*
G03X0000301472Y0000004523I0000001600J0D01*
G02X0000301091Y0000004004I-0000000382J-0000000119D01*
G01X0000291409Y0000004004D01*
G02X0000291028Y0000004523I0J0000000400D01*
G03X0000291100Y0000005000I-0000001528J0000000477D01*
G03X0000287900Y0000005000I-0000001600J0D01*
G03X0000287972Y0000004523I0000001600J0D01*
G02X0000287591Y0000004004I-0000000382J-0000000119D01*
G01X0000275909Y0000004004D01*
G02X0000275528Y0000004523I0J0000000400D01*
G03X0000275600Y0000005000I-0000001528J0000000477D01*
G03X0000272400Y0000005000I-0000001600J0D01*
G03X0000272472Y0000004523I0000001600J0D01*
G02X0000272091Y0000004004I-0000000382J-0000000119D01*
G01X0000261409Y0000004004D01*
G02X0000261028Y0000004523I0J0000000400D01*
G03X0000261100Y0000005000I-0000001528J0000000477D01*
G03X0000257900Y0000005000I-0000001600J0D01*
G03X0000257972Y0000004523I0000001600J0D01*
G02X0000257591Y0000004004I-0000000382J-0000000119D01*
G01X0000246909Y0000004004D01*
G02X0000246528Y0000004523I0J0000000400D01*
G03X0000246600Y0000005000I-0000001528J0000000477D01*
G03X0000243400Y0000005000I-0000001600J0D01*
G03X0000243472Y0000004523I0000001600J0D01*
G02X0000243091Y0000004004I-0000000382J-0000000119D01*
G01X0000232673Y0000004004D01*
G02X0000232339Y0000004623I0J0000000400D01*
G03X0000232600Y0000005500I-0000001338J0000000877D01*
G03X0000229400Y0000005500I-0000001600J0D01*
G03X0000229661Y0000004623I0000001600J0D01*
G02X0000229327Y0000004004I-0000000335J-0000000219D01*
G01X0000207409Y0000004004D01*
G02X0000207028Y0000004523I0J0000000400D01*
G03X0000207100Y0000005000I-0000001528J0000000477D01*
G03X0000203900Y0000005000I-0000001600J0D01*
G03X0000203972Y0000004523I0000001600J0D01*
G02X0000203591Y0000004004I-0000000382J-0000000119D01*
G01X0000199909Y0000004004D01*
G02X0000199528Y0000004523I0J0000000400D01*
G03X0000199600Y0000005000I-0000001528J0000000477D01*
G03X0000196400Y0000005000I-0000001600J0D01*
G03X0000196472Y0000004523I0000001600J0D01*
G02X0000196091Y0000004004I-0000000382J-0000000119D01*
G01X0000181673Y0000004004D01*
G02X0000181338Y0000004623I0J0000000400D01*
G03X0000181600Y0000005500I-0000001338J0000000877D01*
G03X0000178400Y0000005500I-0000001600J0D01*
G03X0000178662Y0000004623I0000001600J0D01*
G02X0000178327Y0000004004I-0000000335J-0000000219D01*
G01X0000166173Y0000004004D01*
G02X0000165838Y0000004623I0J0000000400D01*
G03X0000166100Y0000005500I-0000001338J0000000877D01*
G03X0000162900Y0000005500I-0000001600J0D01*
G03X0000163162Y0000004623I0000001600J0D01*
G02X0000162827Y0000004004I-0000000335J-0000000219D01*
G01X0000141524Y0000004004D01*
X0000141473Y0000004126D01*
G03X0000138527Y0000004126I-0000001473J-0000000626D01*
G01X0000138476Y0000004004D01*
X0000130153Y0000004004D01*
X0000130106Y0000004137D01*
G03X0000127092Y0000004137I-0000001507J-0000000538D01*
G01X0000127044Y0000004004D01*
X0000097110Y0000004004D01*
X0000097090Y0000004181D01*
G03X0000093910Y0000004181I-0000001590J-0000000181D01*
G01X0000093890Y0000004004D01*
X0000085206Y0000004004D01*
G02X0000084964Y0000004723I0J0000000400D01*
G03X0000085600Y0000006000I-0000000964J0000001277D01*
G03X0000082400Y0000006000I-0000001600J0D01*
G03X0000083036Y0000004723I0000001600J0D01*
G02X0000082794Y0000004004I-0000000241J-0000000319D01*
G01X0000065205Y0000004004D01*
G02X0000064964Y0000004723I0J0000000400D01*
G03X0000065600Y0000006000I-0000000964J0000001277D01*
G03X0000062400Y0000006000I-0000001600J0D01*
G03X0000063036Y0000004723I0000001600J0D01*
G02X0000062795Y0000004004I-0000000241J-0000000319D01*
G01X0000044673Y0000004004D01*
G02X0000044338Y0000004623I0J0000000400D01*
G03X0000044600Y0000005500I-0000001338J0000000877D01*
G03X0000041400Y0000005500I-0000001600J0D01*
G03X0000041662Y0000004623I0000001600J0D01*
G02X0000041327Y0000004004I-0000000335J-0000000219D01*
G01X0000024896Y0000004004D01*
G02X0000024645Y0000004715I0J0000000400D01*
G03X0000004715Y0000024645I-0000008897J0000011033D01*
G02X0000004004Y0000024896I-0000000311J0000000251D01*
G01X0000004004Y0000095827D01*
G02X0000004623Y0000096162I0000000400J0D01*
G03X0000005500Y0000095900I0000000877J0000001338D01*
G03X0000005500Y0000099100I0J0000001600D01*
G03X0000004623Y0000098838I0J-0000001600D01*
G02X0000004004Y0000099173I-0000000219J0000000335D01*
G01X0000004004Y0000189480D01*
G02X0000004515Y0000189864I0000000400J0D01*
G03X0000005311Y0000189751I0000000796J0000002754D01*
G01X0000008460Y0000189751D01*
G03X0000008460Y0000195485I0J0000002867D01*
G01X0000005311Y0000195485D01*
G03X0000004515Y0000195372I0J-0000002867D01*
G02X0000004004Y0000195757I-0000000111J0000000384D01*
G01X0000004004Y0000217629D01*
G02X0000004515Y0000218013I0000000400J0D01*
G03X0000005311Y0000217901I0000000796J0000002754D01*
G01X0000008460Y0000217901D01*
G03X0000008460Y0000223635I0J0000002867D01*
G01X0000005311Y0000223635D01*
G03X0000004515Y0000223522I0J-0000002867D01*
G02X0000004004Y0000223906I-0000000111J0000000384D01*
G01X0000004004Y0000243591D01*
G02X0000004523Y0000243972I0000000400J0D01*
G03X0000005000Y0000243900I0000000477J0000001528D01*
G03X0000005000Y0000247100I0J0000001600D01*
G03X0000004523Y0000247028I0J-0000001600D01*
G02X0000004004Y0000247409I-0000000119J0000000382D01*
G01X0000004004Y0000257091D01*
G02X0000004523Y0000257472I0000000400J0D01*
G03X0000005000Y0000257400I0000000477J0000001528D01*
G03X0000005000Y0000260600I0J0000001600D01*
G03X0000004523Y0000260528I0J-0000001600D01*
G02X0000004004Y0000260909I-0000000119J0000000382D01*
G01X0000004004Y0000269890D01*
X0000004181Y0000269910D01*
G03X0000004181Y0000273090I-0000000181J0000001590D01*
G01X0000004004Y0000273110D01*
X0000004004Y0000281390D01*
X0000004181Y0000281410D01*
G03X0000004181Y0000284590I-0000000181J0000001590D01*
G01X0000004004Y0000284610D01*
X0000004004Y0000297827D01*
G02X0000004623Y0000298161I0000000400J0D01*
G03X0000005500Y0000297900I0000000877J0000001338D01*
G37*
%LPC*%
G75*
G36*
G01X0000316518Y0000035194D02*
G02X0000317900Y0000034400I0000001383J0000000806D01*
G02X0000317762Y0000034406I0J0000001600D01*
G03X0000317382Y0000033806I-0000000034J-0000000399D01*
G02X0000317600Y0000033000I-0000001382J-0000000806D01*
G02X0000316000Y0000034600I-0000001600J0D01*
G02X0000316138Y0000034594I0J-0000001600D01*
G03X0000316518Y0000035194I0000000034J0000000399D01*
G37*
G36*
G01X0000280632Y0000061570D02*
G03X0000280012Y0000061650I-0000000342J-0000000208D01*
G02X0000278900Y0000061200I-0000001112J0000001150D01*
G02X0000278900Y0000064400I0J0000001600D01*
G02X0000280268Y0000063630I0J-0000001600D01*
G03X0000280888Y0000063550I0000000342J0000000208D01*
G02X0000282000Y0000064000I0000001112J-0000001150D01*
G02X0000282000Y0000060800I0J-0000001600D01*
G02X0000280632Y0000061570I0J0000001600D01*
G37*
G36*
G01X0000196819Y0000097880D02*
G03X0000196819Y0000098420I-0000000295J0000000270D01*
G02X0000196400Y0000099500I0000001181J0000001080D01*
G02X0000198000Y0000101100I0000001600J0D01*
G02X0000199200Y0000100559I0J-0000001600D01*
G03X0000199800Y0000100559I0000000300J0000000265D01*
G02X0000201000Y0000101100I0000001200J-0000001059D01*
G02X0000202600Y0000099500I0J-0000001600D01*
G02X0000202181Y0000098420I-0000001600J0D01*
G03X0000202181Y0000097880I0000000295J-0000000270D01*
G02X0000202600Y0000096800I-0000001181J-0000001080D01*
G02X0000201000Y0000095200I-0000001600J0D01*
G02X0000199800Y0000095741I0J0000001600D01*
G03X0000199200Y0000095741I-0000000300J-0000000265D01*
G02X0000198000Y0000095200I-0000001200J0000001059D01*
G02X0000196400Y0000096800I0J0000001600D01*
G02X0000196819Y0000097880I0000001600J0D01*
G37*
G36*
G01X0000039409Y0000307880D02*
X0000032323Y0000307880D01*
G02X0000032323Y0000315386I0J0000003753D01*
G01X0000039409Y0000315386D01*
G02X0000039409Y0000307880I0J-0000003753D01*
G37*
G36*
G01X0000039409Y0000250794D02*
X0000032323Y0000250794D01*
G02X0000032323Y0000258300I0J0000003753D01*
G01X0000039409Y0000258300D01*
G02X0000039409Y0000250794I0J-0000003753D01*
G37*
G36*
G01X0000022044Y0000217901D02*
X0000018894Y0000217901D01*
G02X0000018894Y0000223635I0J0000002867D01*
G01X0000022044Y0000223635D01*
G02X0000022044Y0000217901I0J-0000002867D01*
G37*
G36*
G01X0000022044Y0000189751D02*
X0000018894Y0000189751D01*
G02X0000018894Y0000195485I0J0000002867D01*
G01X0000022044Y0000195485D01*
G02X0000022044Y0000189751I0J-0000002867D01*
G37*
G36*
G01X0000013977Y0000307880D02*
X0000010827Y0000307880D01*
G02X0000010827Y0000315386I0J0000003753D01*
G01X0000013977Y0000315386D01*
G02X0000013977Y0000307880I0J-0000003753D01*
G37*
G36*
G01X0000013977Y0000250794D02*
X0000010827Y0000250794D01*
G02X0000010827Y0000258300I0J0000003753D01*
G01X0000013977Y0000258300D01*
G02X0000013977Y0000250794I0J-0000003753D01*
G37*
G36*
G01X0000127800Y0000405332D02*
X0000127800Y0000348668D01*
X0000122832Y0000343700D01*
X0000112168Y0000343700D01*
X0000106700Y0000349168D01*
X0000106700Y0000405332D01*
X0000109168Y0000407800D01*
X0000125332Y0000407800D01*
X0000127800Y0000405332D01*
G37*
G36*
G01X0000187700Y0000035059D02*
G03X0000188300Y0000035059I0000000300J0000000265D01*
G02X0000189500Y0000035600I0000001200J-0000001059D01*
G02X0000190700Y0000035059I0J-0000001600D01*
G03X0000191300Y0000035059I0000000300J0000000265D01*
G02X0000192500Y0000035600I0000001200J-0000001059D01*
G02X0000194100Y0000034000I0J-0000001600D01*
G02X0000193559Y0000032800I-0000001600J0D01*
G03X0000193559Y0000032200I0000000265J-0000000300D01*
G02X0000194100Y0000031000I-0000001059J-0000001200D01*
G02X0000192500Y0000029400I-0000001600J0D01*
G02X0000191300Y0000029941I0J0000001600D01*
G03X0000190700Y0000029941I-0000000300J-0000000265D01*
G02X0000189500Y0000029400I-0000001200J0000001059D01*
G02X0000188300Y0000029941I0J0000001600D01*
G03X0000187700Y0000029941I-0000000300J-0000000265D01*
G02X0000186500Y0000029400I-0000001200J0000001059D01*
G02X0000184900Y0000031000I0J0000001600D01*
G02X0000185441Y0000032200I0000001600J0D01*
G03X0000185441Y0000032800I-0000000265J0000000300D01*
G02X0000184900Y0000034000I0000001059J0000001200D01*
G02X0000186500Y0000035600I0000001600J0D01*
G02X0000187700Y0000035059I0J-0000001600D01*
G37*
G36*
G01X0000249941Y0000036700D02*
G03X0000249941Y0000037300I-0000000265J0000000300D01*
G02X0000249400Y0000038500I0000001059J0000001200D01*
G02X0000251000Y0000040100I0000001600J0D01*
G02X0000252200Y0000039559I0J-0000001600D01*
G03X0000252800Y0000039559I0000000300J0000000265D01*
G02X0000254000Y0000040100I0000001200J-0000001059D01*
G02X0000255600Y0000038500I0J-0000001600D01*
G02X0000255059Y0000037300I-0000001600J0D01*
G03X0000255059Y0000036700I0000000265J-0000000300D01*
G02X0000255059Y0000034300I-0000001059J-0000001200D01*
G03X0000255059Y0000033700I0000000265J-0000000300D01*
G02X0000255600Y0000032500I-0000001059J-0000001200D01*
G02X0000254000Y0000030900I-0000001600J0D01*
G02X0000252800Y0000031441I0J0000001600D01*
G03X0000252200Y0000031441I-0000000300J-0000000265D01*
G02X0000251000Y0000030900I-0000001200J0000001059D01*
G02X0000249400Y0000032500I0J0000001600D01*
G02X0000249941Y0000033700I0000001600J0D01*
G03X0000249941Y0000034300I-0000000265J0000000300D01*
G02X0000249941Y0000036700I0000001059J0000001200D01*
G37*
G36*
G01X0000204800Y0000069941D02*
G03X0000204200Y0000069941I-0000000300J-0000000265D01*
G02X0000203000Y0000069400I-0000001200J0000001059D01*
G02X0000203000Y0000072600I0J0000001600D01*
G02X0000204200Y0000072059I0J-0000001600D01*
G03X0000204800Y0000072059I0000000300J0000000265D01*
G02X0000206000Y0000072600I0000001200J-0000001059D01*
G02X0000206000Y0000069400I0J-0000001600D01*
G02X0000204800Y0000069941I0J0000001600D01*
G37*
G36*
G01X0000159941Y0000083700D02*
G03X0000159941Y0000084300I-0000000265J0000000300D01*
G02X0000159400Y0000085500I0000001059J0000001200D01*
G02X0000161000Y0000087100I0000001600J0D01*
G02X0000162200Y0000086559I0J-0000001600D01*
G03X0000162800Y0000086559I0000000300J0000000265D01*
G02X0000164000Y0000087100I0000001200J-0000001059D01*
G02X0000165600Y0000085500I0J-0000001600D01*
G02X0000165059Y0000084300I-0000001600J0D01*
G03X0000165059Y0000083700I0000000265J-0000000300D01*
G02X0000165600Y0000082500I-0000001059J-0000001200D01*
G02X0000164000Y0000080900I-0000001600J0D01*
G02X0000162800Y0000081441I0J0000001600D01*
G03X0000162200Y0000081441I-0000000300J-0000000265D01*
G02X0000161000Y0000080900I-0000001200J0000001059D01*
G02X0000159400Y0000082500I0J0000001600D01*
G02X0000159941Y0000083700I0000001600J0D01*
G37*
G36*
G01X0000183941Y0000086200D02*
G03X0000183941Y0000086800I-0000000265J0000000300D01*
G02X0000183400Y0000088000I0000001059J0000001200D01*
G02X0000185000Y0000089600I0000001600J0D01*
G02X0000186200Y0000089059I0J-0000001600D01*
G03X0000186800Y0000089059I0000000300J0000000265D01*
G02X0000188000Y0000089600I0000001200J-0000001059D01*
G02X0000189600Y0000088000I0J-0000001600D01*
G02X0000189059Y0000086800I-0000001600J0D01*
G03X0000189059Y0000086200I0000000265J-0000000300D01*
G02X0000189059Y0000083800I-0000001059J-0000001200D01*
G03X0000189059Y0000083200I0000000265J-0000000300D01*
G02X0000189600Y0000082000I-0000001059J-0000001200D01*
G02X0000188000Y0000080400I-0000001600J0D01*
G02X0000186800Y0000080941I0J0000001600D01*
G03X0000186200Y0000080941I-0000000300J-0000000265D01*
G02X0000185000Y0000080400I-0000001200J0000001059D01*
G02X0000183400Y0000082000I0J0000001600D01*
G02X0000183941Y0000083200I0000001600J0D01*
G03X0000183941Y0000083800I-0000000265J0000000300D01*
G02X0000183941Y0000086200I0000001059J0000001200D01*
G37*
G36*
G01X0000159441Y0000092700D02*
G03X0000159441Y0000093300I-0000000265J0000000300D01*
G02X0000158900Y0000094500I0000001059J0000001200D01*
G02X0000162100Y0000094500I0000001600J0D01*
G02X0000161559Y0000093300I-0000001600J0D01*
G03X0000161559Y0000092700I0000000265J-0000000300D01*
G02X0000162100Y0000091500I-0000001059J-0000001200D01*
G02X0000158900Y0000091500I-0000001600J0D01*
G02X0000159441Y0000092700I0000001600J0D01*
G37*
G36*
G01X0000059300Y0000099941D02*
G03X0000058700Y0000099941I-0000000300J-0000000265D01*
G02X0000057500Y0000099400I-0000001200J0000001059D01*
G02X0000057500Y0000102600I0J0000001600D01*
G02X0000058700Y0000102059I0J-0000001600D01*
G03X0000059300Y0000102059I0000000300J0000000265D01*
G02X0000060500Y0000102600I0000001200J-0000001059D01*
G02X0000060500Y0000099400I0J-0000001600D01*
G02X0000059300Y0000099941I0J0000001600D01*
G37*
G36*
G01X0000380300Y0000101941D02*
G03X0000379700Y0000101941I-0000000300J-0000000265D01*
G02X0000378500Y0000101400I-0000001200J0000001059D01*
G02X0000378500Y0000104600I0J0000001600D01*
G02X0000379700Y0000104059I0J-0000001600D01*
G03X0000380300Y0000104059I0000000300J0000000265D01*
G02X0000381500Y0000104600I0000001200J-0000001059D01*
G02X0000381500Y0000101400I0J-0000001600D01*
G02X0000380300Y0000101941I0J0000001600D01*
G37*
G36*
G01X0000234441Y0000102200D02*
G03X0000234441Y0000102800I-0000000265J0000000300D01*
G02X0000233900Y0000104000I0000001059J0000001200D01*
G02X0000235500Y0000105600I0000001600J0D01*
G02X0000236700Y0000105059I0J-0000001600D01*
G03X0000237300Y0000105059I0000000300J0000000265D01*
G02X0000238500Y0000105600I0000001200J-0000001059D01*
G02X0000240100Y0000104000I0J-0000001600D01*
G02X0000239559Y0000102800I-0000001600J0D01*
G03X0000239559Y0000102200I0000000265J-0000000300D01*
G02X0000239559Y0000099800I-0000001059J-0000001200D01*
G03X0000239559Y0000099200I0000000265J-0000000300D01*
G02X0000240100Y0000098000I-0000001059J-0000001200D01*
G02X0000238500Y0000096400I-0000001600J0D01*
G02X0000237300Y0000096941I0J0000001600D01*
G03X0000236700Y0000096941I-0000000300J-0000000265D01*
G02X0000235500Y0000096400I-0000001200J0000001059D01*
G02X0000233900Y0000098000I0J0000001600D01*
G02X0000234441Y0000099200I0000001600J0D01*
G03X0000234441Y0000099800I-0000000265J0000000300D01*
G02X0000234441Y0000102200I0000001059J0000001200D01*
G37*
G36*
G01X0000157941Y0000109700D02*
G03X0000157941Y0000110300I-0000000265J0000000300D01*
G02X0000157400Y0000111500I0000001059J0000001200D01*
G02X0000160600Y0000111500I0000001600J0D01*
G02X0000160059Y0000110300I-0000001600J0D01*
G03X0000160059Y0000109700I0000000265J-0000000300D01*
G02X0000160600Y0000108500I-0000001059J-0000001200D01*
G02X0000157400Y0000108500I-0000001600J0D01*
G02X0000157941Y0000109700I0000001600J0D01*
G37*
G36*
G01X0000040561Y0000108959D02*
G03X0000040561Y0000109622I-0000000224J0000000331D01*
G02X0000038647Y0000113227I0000002439J0000003606D01*
G02X0000047353Y0000113227I0000004353J0D01*
G02X0000045439Y0000109622I-0000004353J0D01*
G03X0000045439Y0000108959I0000000224J-0000000331D01*
G02X0000047353Y0000105353I-0000002439J-0000003606D01*
G02X0000038647Y0000105353I-0000004353J0D01*
G02X0000040561Y0000108959I0000004353J0D01*
G37*
G36*
G01X0000059300Y0000117441D02*
G03X0000058700Y0000117441I-0000000300J-0000000265D01*
G02X0000057500Y0000116900I-0000001200J0000001059D01*
G02X0000057500Y0000120100I0J0000001600D01*
G02X0000058700Y0000119559I0J-0000001600D01*
G03X0000059300Y0000119559I0000000300J0000000265D01*
G02X0000060500Y0000120100I0000001200J-0000001059D01*
G02X0000060500Y0000116900I0J-0000001600D01*
G02X0000059300Y0000117441I0J0000001600D01*
G37*
G36*
G01X0000234700Y0000121559D02*
G03X0000235300Y0000121559I0000000300J0000000265D01*
G02X0000237700Y0000121559I0000001200J-0000001059D01*
G03X0000238300Y0000121559I0000000300J0000000265D01*
G02X0000239500Y0000122100I0000001200J-0000001059D01*
G02X0000241100Y0000120500I0J-0000001600D01*
G02X0000240559Y0000119300I-0000001600J0D01*
G03X0000240559Y0000118700I0000000265J-0000000300D01*
G02X0000241100Y0000117500I-0000001059J-0000001200D01*
G02X0000239500Y0000115900I-0000001600J0D01*
G02X0000238300Y0000116441I0J0000001600D01*
G03X0000237700Y0000116441I-0000000300J-0000000265D01*
G02X0000235300Y0000116441I-0000001200J0000001059D01*
G03X0000234700Y0000116441I-0000000300J-0000000265D01*
G02X0000233500Y0000115900I-0000001200J0000001059D01*
G02X0000231900Y0000117500I0J0000001600D01*
G02X0000232441Y0000118700I0000001600J0D01*
G03X0000232441Y0000119300I-0000000265J0000000300D01*
G02X0000231900Y0000120500I0000001059J0000001200D01*
G02X0000233500Y0000122100I0000001600J0D01*
G02X0000234700Y0000121559I0J-0000001600D01*
G37*
G36*
G01X0000163439Y0000130698D02*
G03X0000163459Y0000131278I-0000000265J0000000299D01*
G02X0000163000Y0000132400I0000001141J0000001122D01*
G02X0000164600Y0000134000I0000001600J0D01*
G02X0000165807Y0000133450I0J-0000001600D01*
G03X0000166427Y0000133470I0000000302J0000000262D01*
G02X0000167700Y0000134100I0000001273J-0000000970D01*
G02X0000167700Y0000130900I0J-0000001600D01*
G02X0000166493Y0000131450I0J0000001600D01*
G03X0000165873Y0000131430I-0000000302J-0000000262D01*
G02X0000165661Y0000131202I-0000001273J0000000970D01*
G03X0000165641Y0000130622I0000000265J-0000000299D01*
G02X0000166100Y0000129500I-0000001141J-0000001122D01*
G02X0000165602Y0000128340I-0000001600J0D01*
G03X0000165602Y0000127760I0000000275J-0000000290D01*
G02X0000166100Y0000126600I-0000001102J-0000001160D01*
G02X0000162900Y0000126600I-0000001600J0D01*
G02X0000163398Y0000127760I0000001600J0D01*
G03X0000163398Y0000128340I-0000000275J0000000290D01*
G02X0000162900Y0000129500I0000001102J0000001160D01*
G02X0000163439Y0000130698I0000001600J0D01*
G37*
G36*
G01X0000092200Y0000138059D02*
G03X0000092800Y0000138059I0000000300J0000000265D01*
G02X0000095200Y0000138059I0000001200J-0000001059D01*
G03X0000095800Y0000138059I0000000300J0000000265D01*
G02X0000097000Y0000138600I0000001200J-0000001059D01*
G02X0000098600Y0000137000I0J-0000001600D01*
G02X0000098059Y0000135800I-0000001600J0D01*
G03X0000098059Y0000135200I0000000265J-0000000300D01*
G02X0000098600Y0000134000I-0000001059J-0000001200D01*
G02X0000097000Y0000132400I-0000001600J0D01*
G02X0000095800Y0000132941I0J0000001600D01*
G03X0000095200Y0000132941I-0000000300J-0000000265D01*
G02X0000092800Y0000132941I-0000001200J0000001059D01*
G03X0000092200Y0000132941I-0000000300J-0000000265D01*
G02X0000091000Y0000132400I-0000001200J0000001059D01*
G02X0000089400Y0000134000I0J0000001600D01*
G02X0000089941Y0000135200I0000001600J0D01*
G03X0000089941Y0000135800I-0000000265J0000000300D01*
G02X0000089400Y0000137000I0000001059J0000001200D01*
G02X0000091000Y0000138600I0000001600J0D01*
G02X0000092200Y0000138059I0J-0000001600D01*
G37*
G36*
G01X0000317700Y0000148832D02*
X0000317700Y0000162332D01*
X0000321168Y0000165800D01*
X0000338332Y0000165800D01*
X0000360332Y0000143800D01*
X0000384832Y0000143800D01*
X0000386300Y0000142332D01*
X0000386300Y0000117168D01*
X0000383831Y0000114700D01*
G03X0000383467Y0000114140I0000000002J-0000000400D01*
G02X0000383600Y0000113500I-0000001467J-0000000640D01*
G02X0000380400Y0000113500I-0000001600J0D01*
G02X0000380533Y0000114140I0000001600J0D01*
G03X0000380167Y0000114700I-0000000367J0000000160D01*
G01X0000379833Y0000114700D01*
G03X0000379467Y0000114140I0J-0000000400D01*
G02X0000379600Y0000113500I-0000001467J-0000000640D01*
G02X0000376400Y0000113500I-0000001600J0D01*
G02X0000376533Y0000114140I0000001600J0D01*
G03X0000376167Y0000114700I-0000000367J0000000160D01*
G01X0000371033Y0000114700D01*
G03X0000370667Y0000114140I0J-0000000400D01*
G02X0000370800Y0000113500I-0000001467J-0000000640D01*
G02X0000369200Y0000111900I-0000001600J0D01*
G02X0000367920Y0000112540I0J0000001600D01*
G03X0000367280Y0000112540I-0000000320J-0000000240D01*
G02X0000366000Y0000111900I-0000001280J0000000960D01*
G02X0000364400Y0000113500I0J0000001600D01*
G02X0000364533Y0000114140I0000001600J0D01*
G03X0000364167Y0000114700I-0000000367J0000000160D01*
G01X0000334668Y0000114700D01*
X0000332775Y0000116593D01*
X0000332650Y0000116538D01*
G02X0000332000Y0000116400I-0000000650J0000001462D01*
G02X0000330400Y0000118000I0J0000001600D01*
G02X0000330538Y0000118649I0000001600J0D01*
G01X0000330593Y0000118775D01*
X0000326570Y0000122798D01*
X0000326432Y0000122699D01*
G02X0000325500Y0000122400I-0000000932J0000001300D01*
G02X0000323900Y0000124000I0J0000001600D01*
G02X0000324199Y0000124932I0000001600J0D01*
G01X0000324298Y0000125070D01*
X0000316168Y0000133200D01*
X0000307168Y0000133200D01*
X0000304700Y0000135668D01*
X0000304700Y0000145832D01*
X0000306668Y0000147800D01*
X0000316668Y0000147800D01*
X0000317700Y0000148832D01*
G37*
G36*
G01X0000021300Y0000167441D02*
G03X0000020700Y0000167441I-0000000300J-0000000265D01*
G02X0000019500Y0000166900I-0000001200J0000001059D01*
G02X0000019500Y0000170100I0J0000001600D01*
G02X0000020700Y0000169559I0J-0000001600D01*
G03X0000021300Y0000169559I0000000300J0000000265D01*
G02X0000022500Y0000170100I0000001200J-0000001059D01*
G02X0000022500Y0000166900I0J-0000001600D01*
G02X0000021300Y0000167441I0J0000001600D01*
G37*
G36*
G01X0000104441Y0000182700D02*
G03X0000104441Y0000183300I-0000000265J0000000300D01*
G02X0000103900Y0000184500I0000001059J0000001200D01*
G02X0000107100Y0000184500I0000001600J0D01*
G02X0000106559Y0000183300I-0000001600J0D01*
G03X0000106559Y0000182700I0000000265J-0000000300D01*
G02X0000107100Y0000181500I-0000001059J-0000001200D01*
G02X0000103900Y0000181500I-0000001600J0D01*
G02X0000104441Y0000182700I0000001600J0D01*
G37*
G36*
G01X0000086200Y0000198059D02*
G03X0000086800Y0000198059I0000000300J0000000265D01*
G02X0000089200Y0000198059I0000001200J-0000001059D01*
G03X0000089800Y0000198059I0000000300J0000000265D01*
G02X0000091000Y0000198600I0000001200J-0000001059D01*
G02X0000091000Y0000195400I0J-0000001600D01*
G02X0000089800Y0000195941I0J0000001600D01*
G03X0000089200Y0000195941I-0000000300J-0000000265D01*
G02X0000086800Y0000195941I-0000001200J0000001059D01*
G03X0000086200Y0000195941I-0000000300J-0000000265D01*
G02X0000083800Y0000195941I-0000001200J0000001059D01*
G03X0000083200Y0000195941I-0000000300J-0000000265D01*
G02X0000082000Y0000195400I-0000001200J0000001059D01*
G02X0000082000Y0000198600I0J0000001600D01*
G02X0000083200Y0000198059I0J-0000001600D01*
G03X0000083800Y0000198059I0000000300J0000000265D01*
G02X0000086200Y0000198059I0000001200J-0000001059D01*
G37*
G36*
G01X0000354941Y0000195200D02*
G03X0000354941Y0000195800I-0000000265J0000000300D01*
G02X0000354400Y0000197000I0000001059J0000001200D01*
G02X0000356000Y0000198600I0000001600J0D01*
G02X0000357200Y0000198059I0J-0000001600D01*
G03X0000357800Y0000198059I0000000300J0000000265D01*
G02X0000359000Y0000198600I0000001200J-0000001059D01*
G02X0000360600Y0000197000I0J-0000001600D01*
G02X0000360059Y0000195800I-0000001600J0D01*
G03X0000360059Y0000195200I0000000265J-0000000300D01*
G02X0000360600Y0000194000I-0000001059J-0000001200D01*
G02X0000360059Y0000192800I-0000001600J0D01*
G03X0000360059Y0000192200I0000000265J-0000000300D01*
G02X0000360600Y0000191000I-0000001059J-0000001200D01*
G02X0000359000Y0000189400I-0000001600J0D01*
G02X0000357800Y0000189941I0J0000001600D01*
G03X0000357200Y0000189941I-0000000300J-0000000265D01*
G02X0000356000Y0000189400I-0000001200J0000001059D01*
G02X0000354400Y0000191000I0J0000001600D01*
G02X0000354941Y0000192200I0000001600J0D01*
G03X0000354941Y0000192800I-0000000265J0000000300D01*
G02X0000354400Y0000194000I0000001059J0000001200D01*
G02X0000354941Y0000195200I0000001600J0D01*
G37*
G36*
G01X0000157441Y0000197200D02*
G03X0000157441Y0000197800I-0000000265J0000000300D01*
G02X0000156900Y0000199000I0000001059J0000001200D01*
G02X0000160100Y0000199000I0000001600J0D01*
G02X0000159559Y0000197800I-0000001600J0D01*
G03X0000159559Y0000197200I0000000265J-0000000300D01*
G02X0000160100Y0000196000I-0000001059J-0000001200D01*
G02X0000159559Y0000194800I-0000001600J0D01*
G03X0000159559Y0000194200I0000000265J-0000000300D01*
G02X0000160100Y0000193000I-0000001059J-0000001200D01*
G02X0000156900Y0000193000I-0000001600J0D01*
G02X0000157441Y0000194200I0000001600J0D01*
G03X0000157441Y0000194800I-0000000265J0000000300D01*
G02X0000156900Y0000196000I0000001059J0000001200D01*
G02X0000157441Y0000197200I0000001600J0D01*
G37*
G36*
G01X0000025941Y0000204700D02*
G03X0000025941Y0000205300I-0000000265J0000000300D01*
G02X0000025400Y0000206500I0000001059J0000001200D01*
G02X0000027000Y0000208100I0000001600J0D01*
G02X0000028200Y0000207559I0J-0000001600D01*
G03X0000028800Y0000207559I0000000300J0000000265D01*
G02X0000030000Y0000208100I0000001200J-0000001059D01*
G02X0000031600Y0000206500I0J-0000001600D01*
G02X0000031059Y0000205300I-0000001600J0D01*
G03X0000031059Y0000204700I0000000265J-0000000300D01*
G02X0000031600Y0000203500I-0000001059J-0000001200D01*
G02X0000031059Y0000202300I-0000001600J0D01*
G03X0000031059Y0000201700I0000000265J-0000000300D01*
G02X0000031600Y0000200500I-0000001059J-0000001200D01*
G02X0000030000Y0000198900I-0000001600J0D01*
G02X0000028800Y0000199441I0J0000001600D01*
G03X0000028200Y0000199441I-0000000300J-0000000265D01*
G02X0000027000Y0000198900I-0000001200J0000001059D01*
G02X0000025400Y0000200500I0J0000001600D01*
G02X0000025941Y0000201700I0000001600J0D01*
G03X0000025941Y0000202300I-0000000265J0000000300D01*
G02X0000025400Y0000203500I0000001059J0000001200D01*
G02X0000025941Y0000204700I0000001600J0D01*
G37*
G36*
G01X0000112141Y0000228790D02*
G03X0000112141Y0000229390I-0000000265J0000000300D01*
G02X0000111600Y0000230590I0000001059J0000001200D01*
G02X0000113200Y0000232190I0000001600J0D01*
G02X0000114400Y0000231649I0J-0000001600D01*
G03X0000115000Y0000231649I0000000300J0000000265D01*
G02X0000116200Y0000232190I0000001200J-0000001059D01*
G02X0000117800Y0000230590I0J-0000001600D01*
G02X0000117259Y0000229390I-0000001600J0D01*
G03X0000117259Y0000228790I0000000265J-0000000300D01*
G02X0000117800Y0000227590I-0000001059J-0000001200D01*
G02X0000116200Y0000225990I-0000001600J0D01*
G02X0000115000Y0000226532I0J0000001600D01*
G03X0000114400Y0000226532I-0000000300J-0000000265D01*
G02X0000113200Y0000225990I-0000001200J0000001059D01*
G02X0000111600Y0000227590I0J0000001600D01*
G02X0000112141Y0000228790I0000001600J0D01*
G37*
G36*
G01X0000077775Y0000229529D02*
G03X0000077675Y0000230129I-0000000306J0000000257D01*
G02X0000076900Y0000231500I0000000825J0000001371D01*
G02X0000080100Y0000231500I0000001600J0D01*
G02X0000079725Y0000230471I-0000001600J0D01*
G03X0000079825Y0000229871I0000000306J-0000000257D01*
G02X0000080200Y0000229559I-0000000825J-0000001371D01*
G03X0000080800Y0000229559I0000000300J0000000265D01*
G02X0000083200Y0000229559I0000001200J-0000001059D01*
G03X0000083800Y0000229559I0000000300J0000000265D01*
G02X0000085000Y0000230100I0000001200J-0000001059D01*
G02X0000085000Y0000226900I0J-0000001600D01*
G02X0000083800Y0000227441I0J0000001600D01*
G03X0000083200Y0000227441I-0000000300J-0000000265D01*
G02X0000080800Y0000227441I-0000001200J0000001059D01*
G03X0000080200Y0000227441I-0000000300J-0000000265D01*
G02X0000079000Y0000226900I-0000001200J0000001059D01*
G02X0000077400Y0000228500I0J0000001600D01*
G02X0000077775Y0000229529I0000001600J0D01*
G37*
G36*
G01X0000119441Y0000241700D02*
G03X0000119441Y0000242300I-0000000265J0000000300D01*
G02X0000118900Y0000243500I0000001059J0000001200D01*
G02X0000122100Y0000243500I0000001600J0D01*
G02X0000121559Y0000242300I-0000001600J0D01*
G03X0000121559Y0000241700I0000000265J-0000000300D01*
G02X0000122100Y0000240500I-0000001059J-0000001200D01*
G02X0000118900Y0000240500I-0000001600J0D01*
G02X0000119441Y0000241700I0000001600J0D01*
G37*
G36*
G01X0000087300Y0000258941D02*
G03X0000086700Y0000258941I-0000000300J-0000000265D01*
G02X0000085500Y0000258400I-0000001200J0000001059D01*
G02X0000085500Y0000261600I0J0000001600D01*
G02X0000086700Y0000261059I0J-0000001600D01*
G03X0000087300Y0000261059I0000000300J0000000265D01*
G02X0000088500Y0000261600I0000001200J-0000001059D01*
G02X0000088500Y0000258400I0J-0000001600D01*
G02X0000087300Y0000258941I0J0000001600D01*
G37*
G36*
G01X0000172941Y0000301700D02*
G03X0000172941Y0000302300I-0000000265J0000000300D01*
G02X0000172400Y0000303500I0000001059J0000001200D01*
G02X0000175600Y0000303500I0000001600J0D01*
G02X0000175059Y0000302300I-0000001600J0D01*
G03X0000175059Y0000301700I0000000265J-0000000300D01*
G02X0000175600Y0000300500I-0000001059J-0000001200D01*
G02X0000172400Y0000300500I-0000001600J0D01*
G02X0000172941Y0000301700I0000001600J0D01*
G37*
G36*
G01X0000177941Y0000301700D02*
G03X0000177941Y0000302300I-0000000265J0000000300D01*
G02X0000177400Y0000303500I0000001059J0000001200D01*
G02X0000180600Y0000303500I0000001600J0D01*
G02X0000180059Y0000302300I-0000001600J0D01*
G03X0000180059Y0000301700I0000000265J-0000000300D01*
G02X0000180600Y0000300500I-0000001059J-0000001200D01*
G02X0000177400Y0000300500I-0000001600J0D01*
G02X0000177941Y0000301700I0000001600J0D01*
G37*
G36*
G01X0000029700Y0000283833D02*
X0000029700Y0000303832D01*
X0000032668Y0000306800D01*
X0000064332Y0000306800D01*
X0000066800Y0000304332D01*
X0000066800Y0000289332D01*
X0000068332Y0000287800D01*
X0000069832Y0000287800D01*
X0000070800Y0000286832D01*
X0000070800Y0000282168D01*
X0000068800Y0000280168D01*
X0000068800Y0000276933D01*
G02X0000068800Y0000275067I-0000001300J-0000000933D01*
G01X0000068800Y0000262668D01*
X0000066332Y0000260200D01*
X0000046168Y0000260200D01*
X0000043200Y0000263168D01*
X0000043200Y0000275668D01*
X0000041168Y0000277700D01*
X0000030079Y0000277700D01*
X0000030037Y0000277555D01*
G02X0000029559Y0000276800I-0000001537J0000000445D01*
G03X0000029559Y0000276200I0000000265J-0000000300D01*
G02X0000030100Y0000275000I-0000001059J-0000001200D01*
G02X0000026900Y0000275000I-0000001600J0D01*
G02X0000027441Y0000276200I0000001600J0D01*
G03X0000027441Y0000276800I-0000000265J0000000300D01*
G02X0000026900Y0000278000I0000001059J0000001200D01*
G02X0000028500Y0000279600I0000001600J0D01*
G03X0000028700Y0000279800I0J0000000200D01*
G01X0000028700Y0000280200D01*
G03X0000028500Y0000280400I-0000000200J0D01*
G02X0000026900Y0000282000I0J0000001600D01*
G02X0000028500Y0000283600I0000001600J0D01*
G02X0000029140Y0000283467I0J-0000001600D01*
G03X0000029700Y0000283833I0000000160J0000000367D01*
G37*
G36*
G01X0000200660Y0000349064D02*
G03X0000200960Y0000349564I-0000000085J0000000391D01*
G02X0000200900Y0000350000I0000001540J0000000436D01*
G02X0000204100Y0000350000I0000001600J0D01*
G02X0000202840Y0000348436I-0000001600J0D01*
G03X0000202540Y0000347936I0000000085J-0000000391D01*
G02X0000202600Y0000347500I-0000001540J-0000000436D01*
G02X0000199400Y0000347500I-0000001600J0D01*
G02X0000200660Y0000349064I0000001600J0D01*
G37*
G36*
G01X0000195613Y0000349553D02*
G03X0000195913Y0000349992I-0000000097J0000000388D01*
G02X0000195900Y0000350197I0000001587J0000000205D01*
G02X0000199100Y0000350197I0000001600J0D01*
G02X0000197887Y0000348644I-0000001600J0D01*
G03X0000197587Y0000348205I0000000097J-0000000388D01*
G02X0000197600Y0000348000I-0000001587J-0000000205D01*
G02X0000194400Y0000348000I-0000001600J0D01*
G02X0000195613Y0000349553I0000001600J0D01*
G37*
G36*
G01X0000126225Y0000058600D02*
G02X0000128600Y0000060000I0000000775J0000001400D01*
G02X0000127775Y0000058600I-0000001600J0D01*
G03X0000127775Y0000057900I0000000194J-0000000350D01*
G02X0000128600Y0000056500I-0000000775J-0000001400D01*
G02X0000125400Y0000056500I-0000001600J0D01*
G02X0000126225Y0000057900I0000001600J0D01*
G03X0000126225Y0000058600I-0000000194J0000000350D01*
G37*
G36*
G01X0000299380Y0000062233D02*
G02X0000297950Y0000064550I-0000001430J0000000717D01*
G02X0000299360Y0000063707I0J-0000001600D01*
G03X0000300070Y0000063717I0000000352J0000000189D01*
G02X0000301500Y0000064600I0000001430J-0000000717D01*
G02X0000301500Y0000061400I0J-0000001600D01*
G02X0000300090Y0000062243I0J0000001600D01*
G03X0000299380Y0000062233I-0000000352J-0000000189D01*
G37*
G36*
G01X0000159725Y0000102100D02*
G02X0000160500Y0000105100I0000000775J0000001400D01*
G02X0000161900Y0000104275I0J-0000001600D01*
G03X0000162600Y0000104275I0000000350J0000000194D01*
G02X0000164000Y0000105100I0000001400J-0000000775D01*
G02X0000165600Y0000103500I0J-0000001600D01*
G02X0000164775Y0000102100I-0000001600J0D01*
G03X0000164775Y0000101400I0000000194J-0000000350D01*
G02X0000165600Y0000100000I-0000000775J-0000001400D01*
G02X0000164000Y0000098400I-0000001600J0D01*
G02X0000162600Y0000099225I0J0000001600D01*
G03X0000161900Y0000099225I-0000000350J-0000000194D01*
G02X0000160500Y0000098400I-0000001400J0000000775D01*
G02X0000158900Y0000100000I0J0000001600D01*
G02X0000159725Y0000101400I0000001600J0D01*
G03X0000159725Y0000102100I-0000000194J0000000350D01*
G37*
G36*
G01X0000114400Y0000122225D02*
G02X0000113000Y0000124600I-0000001400J0000000775D01*
G02X0000114400Y0000123775I0J-0000001600D01*
G03X0000115100Y0000123775I0000000350J0000000194D01*
G02X0000116500Y0000124600I0000001400J-0000000775D01*
G02X0000116500Y0000121400I0J-0000001600D01*
G02X0000115100Y0000122225I0J0000001600D01*
G03X0000114400Y0000122225I-0000000350J-0000000194D01*
G37*
G36*
G01X0000097170Y0000127610D02*
G02X0000100100Y0000128500I0000001330J0000000890D01*
G02X0000099030Y0000126990I-0000001600J0D01*
G03X0000098830Y0000126390I0000000132J-0000000377D01*
G02X0000099100Y0000125500I-0000001330J-0000000890D01*
G02X0000099069Y0000125188I-0000001600J0D01*
G03X0000099610Y0000124738I0000000392J-0000000078D01*
G02X0000100500Y0000124909I0000000890J-0000002229D01*
G02X0000102900Y0000122509I0J-0000002400D01*
G02X0000102276Y0000120894I-0000002400J0D01*
G03X0000102276Y0000120356I0000000296J-0000000269D01*
G02X0000102900Y0000118741I-0000001776J-0000001615D01*
G02X0000100500Y0000116341I-0000002400J0D01*
G02X0000099615Y0000116510I0J0000002400D01*
G03X0000099074Y0000116210I-0000000148J-0000000372D01*
G02X0000097500Y0000114900I-0000001574J0000000290D01*
G02X0000097500Y0000118100I0J0000001600D01*
G02X0000097669Y0000118091I0J-0000001600D01*
G03X0000098110Y0000118525I0000000042J0000000398D01*
G02X0000098100Y0000118741I0000002391J0000000216D01*
G02X0000098724Y0000120356I0000002400J0D01*
G03X0000098724Y0000120894I-0000000296J0000000269D01*
G02X0000098100Y0000122509I0000001776J0000001615D01*
G02X0000098268Y0000123392I0000002400J0D01*
G03X0000097817Y0000123932I-0000000372J0000000147D01*
G02X0000097500Y0000123900I-0000000317J0000001569D01*
G02X0000095900Y0000125500I0J0000001600D01*
G02X0000096970Y0000127010I0000001600J0D01*
G03X0000097170Y0000127610I-0000000132J0000000377D01*
G37*
G36*
G01X0000159096Y0000135232D02*
G02X0000162100Y0000136000I0000001404J0000000768D01*
G02X0000160650Y0000134407I-0000001600J0D01*
G03X0000160377Y0000133758I0000000038J-0000000398D01*
G02X0000160909Y0000132250I-0000001868J-0000001507D01*
G02X0000158509Y0000129850I-0000002400J0D01*
G02X0000156894Y0000130474I0J0000002400D01*
G03X0000156356Y0000130474I-0000000269J-0000000296D01*
G02X0000154741Y0000129850I-0000001615J0000001776D01*
G02X0000152341Y0000132250I0J0000002400D01*
G02X0000152868Y0000133751I0000002400J0D01*
G03X0000152544Y0000134400I-0000000312J0000000250D01*
G02X0000152500Y0000134400I-0000000044J0000001600D01*
G02X0000154100Y0000136000I0J0000001600D01*
G02X0000153888Y0000135203I-0000001600J0D01*
G03X0000154307Y0000134611I0000000347J-0000000199D01*
G02X0000154741Y0000134650I0000000434J-0000002361D01*
G02X0000156356Y0000134026I0J-0000002400D01*
G03X0000156894Y0000134026I0000000269J0000000296D01*
G02X0000158509Y0000134650I0000001615J-0000001776D01*
G02X0000158711Y0000134642I0J-0000002400D01*
G03X0000159096Y0000135232I0000000034J0000000399D01*
G37*
G36*
G01X0000197878Y0000136785D02*
G02X0000196500Y0000139198I-0000001378J0000000813D01*
G02X0000197922Y0000138332I0J-0000001600D01*
G03X0000198622Y0000138313I0000000355J0000000184D01*
G02X0000200000Y0000139100I0000001378J-0000000813D01*
G02X0000200000Y0000135900I0J-0000001600D01*
G02X0000198578Y0000136766I0J0000001600D01*
G03X0000197878Y0000136785I-0000000355J-0000000184D01*
G37*
G36*
G01X0000297225Y0000152100D02*
G02X0000299600Y0000153500I0000000775J0000001400D01*
G02X0000298775Y0000152100I-0000001600J0D01*
G03X0000298775Y0000151400I0000000194J-0000000350D01*
G02X0000299600Y0000150000I-0000000775J-0000001400D01*
G02X0000296400Y0000150000I-0000001600J0D01*
G02X0000297225Y0000151400I0000001600J0D01*
G03X0000297225Y0000152100I-0000000194J0000000350D01*
G37*
G36*
G01X0000058583Y0000160658D02*
G02X0000059358Y0000163658I0000000775J0000001400D01*
G02X0000060758Y0000162833I0J-0000001600D01*
G03X0000061458Y0000162833I0000000350J0000000194D01*
G02X0000062858Y0000163658I0000001400J-0000000775D01*
G02X0000064458Y0000162058I0J-0000001600D01*
G02X0000063633Y0000160658I-0000001600J0D01*
G03X0000063633Y0000159958I0000000194J-0000000350D01*
G02X0000063633Y0000157158I-0000000775J-0000001400D01*
G03X0000063633Y0000156458I0000000194J-0000000350D01*
G02X0000064458Y0000155058I-0000000775J-0000001400D01*
G02X0000062858Y0000153458I-0000001600J0D01*
G02X0000061458Y0000154283I0J0000001600D01*
G03X0000060758Y0000154283I-0000000350J-0000000194D01*
G02X0000059358Y0000153458I-0000001400J0000000775D01*
G02X0000057758Y0000155058I0J0000001600D01*
G02X0000058583Y0000156458I0000001600J0D01*
G03X0000058583Y0000157158I-0000000194J0000000350D01*
G02X0000058583Y0000159958I0000000775J0000001400D01*
G03X0000058583Y0000160658I-0000000194J0000000350D01*
G37*
G36*
G01X0000296900Y0000162725D02*
G02X0000295500Y0000165100I-0000001400J0000000775D01*
G02X0000296900Y0000164275I0J-0000001600D01*
G03X0000297600Y0000164275I0000000350J0000000194D01*
G02X0000299000Y0000165100I0000001400J-0000000775D01*
G02X0000299000Y0000161900I0J-0000001600D01*
G02X0000297600Y0000162725I0J0000001600D01*
G03X0000296900Y0000162725I-0000000350J-0000000194D01*
G37*
G36*
G01X0000060900Y0000165725D02*
G02X0000059500Y0000168100I-0000001400J0000000775D01*
G02X0000060900Y0000167275I0J-0000001600D01*
G03X0000061600Y0000167275I0000000350J0000000194D01*
G02X0000063000Y0000168100I0000001400J-0000000775D01*
G02X0000063000Y0000164900I0J-0000001600D01*
G02X0000061600Y0000165725I0J0000001600D01*
G03X0000060900Y0000165725I-0000000350J-0000000194D01*
G37*
G36*
G01X0000296900Y0000167225D02*
G02X0000295500Y0000169600I-0000001400J0000000775D01*
G02X0000296900Y0000168775I0J-0000001600D01*
G03X0000297600Y0000168775I0000000350J0000000194D01*
G02X0000299000Y0000169600I0000001400J-0000000775D01*
G02X0000299000Y0000166400I0J-0000001600D01*
G02X0000297600Y0000167225I0J0000001600D01*
G03X0000296900Y0000167225I-0000000350J-0000000194D01*
G37*
G36*
G01X0000112861Y0000173931D02*
G02X0000115661Y0000173931I0000001400J-0000000775D01*
G03X0000116361Y0000173931I0000000350J0000000194D01*
G02X0000117761Y0000174756I0000001400J-0000000775D01*
G02X0000119361Y0000173156I0J-0000001600D01*
G02X0000118536Y0000171756I-0000001600J0D01*
G03X0000118536Y0000171056I0000000194J-0000000350D01*
G02X0000118536Y0000168256I-0000000775J-0000001400D01*
G03X0000118536Y0000167556I0000000194J-0000000350D01*
G02X0000119361Y0000166156I-0000000775J-0000001400D01*
G02X0000117761Y0000164556I-0000001600J0D01*
G02X0000116361Y0000165381I0J0000001600D01*
G03X0000115661Y0000165381I-0000000350J-0000000194D01*
G02X0000112861Y0000165381I-0000001400J0000000775D01*
G03X0000112161Y0000165381I-0000000350J-0000000194D01*
G02X0000110761Y0000164556I-0000001400J0000000775D01*
G02X0000109161Y0000166156I0J0000001600D01*
G02X0000109986Y0000167556I0000001600J0D01*
G03X0000109986Y0000168256I-0000000194J0000000350D01*
G02X0000109986Y0000171056I0000000775J0000001400D01*
G03X0000109986Y0000171756I-0000000194J0000000350D01*
G02X0000109161Y0000173156I0000000775J0000001400D01*
G02X0000110761Y0000174756I0000001600J0D01*
G02X0000112161Y0000173931I0J-0000001600D01*
G03X0000112861Y0000173931I0000000350J0000000194D01*
G37*
G36*
G01X0000020700Y0000181059D02*
G03X0000021300Y0000181059I0000000300J0000000265D01*
G02X0000022500Y0000181600I0000001200J-0000001059D01*
G02X0000024100Y0000180000I0J-0000001600D01*
G02X0000023275Y0000178600I-0000001600J0D01*
G03X0000023275Y0000177900I0000000194J-0000000350D01*
G02X0000024100Y0000176500I-0000000775J-0000001400D01*
G02X0000020900Y0000176500I-0000001600J0D01*
G02X0000021725Y0000177900I0000001600J0D01*
G03X0000021725Y0000178600I-0000000194J0000000350D01*
G02X0000021300Y0000178941I0000000775J0000001400D01*
G03X0000020700Y0000178941I-0000000300J-0000000265D01*
G02X0000019500Y0000178400I-0000001200J0000001059D01*
G02X0000019500Y0000181600I0J0000001600D01*
G02X0000020700Y0000181059I0J-0000001600D01*
G37*
G36*
G01X0000045372Y0000180376D02*
G02X0000046240Y0000183320I0000000868J0000001344D01*
G02X0000047548Y0000182642I0J-0000001600D01*
G03X0000048206Y0000182648I0000000327J0000000231D01*
G02X0000049530Y0000183350I0000001324J-0000000898D01*
G02X0000051130Y0000181750I0J-0000001600D01*
G02X0000050502Y0000180479I-0000001600J0D01*
G03X0000050522Y0000179829I0000000243J-0000000318D01*
G02X0000051230Y0000178500I-0000000892J-0000001329D01*
G02X0000050569Y0000177205I-0000001600J0D01*
G03X0000050575Y0000176553I0000000235J-0000000324D01*
G02X0000051260Y0000175240I-0000000916J-0000001313D01*
G02X0000049660Y0000173640I-0000001600J0D01*
G02X0000048334Y0000174344I0J0000001600D01*
G03X0000047662Y0000174330I-0000000331J-0000000224D01*
G02X0000046300Y0000173570I-0000001362J0000000840D01*
G02X0000044700Y0000175170I0J0000001600D01*
G02X0000045356Y0000176462I0000001600J0D01*
G03X0000045356Y0000177108I-0000000236J0000000323D01*
G02X0000044700Y0000178400I0000000944J0000001292D01*
G02X0000045384Y0000179712I0000001600J0D01*
G03X0000045372Y0000180376I-0000000229J0000000328D01*
G37*
G36*
G01X0000157018Y0000187146D02*
G02X0000158500Y0000186150I0000001482J0000000604D01*
G02X0000158382Y0000186154I0J0000001600D01*
G03X0000157982Y0000185604I-0000000030J-0000000399D01*
G02X0000158100Y0000185000I-0000001482J-0000000604D01*
G02X0000156500Y0000186600I-0000001600J0D01*
G02X0000156618Y0000186596I0J-0000001600D01*
G03X0000157018Y0000187146I0000000030J0000000399D01*
G37*
G36*
G01X0000048911Y0000192245D02*
G02X0000047500Y0000194600I-0000001411J0000000755D01*
G02X0000048933Y0000193711I0J-0000001600D01*
G03X0000049644Y0000193700I0000000358J0000000178D01*
G02X0000051055Y0000194545I0000001411J-0000000755D01*
G02X0000051055Y0000191345I0J-0000001600D01*
G02X0000049622Y0000192234I0J0000001600D01*
G03X0000048911Y0000192245I-0000000358J-0000000178D01*
G37*
G36*
G01X0000143400Y0000226725D02*
G02X0000142000Y0000229100I-0000001400J0000000775D01*
G02X0000143400Y0000228275I0J-0000001600D01*
G03X0000144100Y0000228275I0000000350J0000000194D01*
G02X0000145500Y0000229100I0000001400J-0000000775D01*
G02X0000145500Y0000225900I0J-0000001600D01*
G02X0000144100Y0000226725I0J0000001600D01*
G03X0000143400Y0000226725I-0000000350J-0000000194D01*
G37*
G36*
G01X0000168620Y0000230715D02*
G02X0000170000Y0000232300I-0000000220J0000001585D01*
G02X0000169860Y0000231645I-0000001600J0D01*
G03X0000170280Y0000231085I0000000365J-0000000164D01*
G02X0000170500Y0000231100I0000000220J-0000001585D01*
G02X0000170500Y0000227900I0J-0000001600D01*
G02X0000170002Y0000227979I0J0000001600D01*
G03X0000169482Y0000227539I-0000000124J-0000000380D01*
G02X0000169500Y0000227300I-0000001582J-0000000239D01*
G02X0000167900Y0000228900I-0000001600J0D01*
G02X0000168398Y0000228821I0J-0000001600D01*
G03X0000168918Y0000229261I0000000124J0000000380D01*
G02X0000168900Y0000229500I0000001582J0000000239D01*
G02X0000169040Y0000230155I0000001600J0D01*
G03X0000168620Y0000230715I-0000000365J0000000164D01*
G37*
G36*
G01X0000295943Y0000249112D02*
G02X0000294500Y0000251403I-0000001443J0000000691D01*
G02X0000295857Y0000250652I0J-0000001600D01*
G03X0000296557Y0000250691I0000000339J0000000212D01*
G02X0000298000Y0000251600I0000001443J-0000000691D01*
G02X0000298000Y0000248400I0J-0000001600D01*
G02X0000296643Y0000249152I0J0000001600D01*
G03X0000295943Y0000249112I-0000000339J-0000000212D01*
G37*
G36*
G01X0000140822Y0000251542D02*
G02X0000143422Y0000251301I0000001215J-0000001042D01*
G03X0000144115Y0000251301I0000000346J0000000200D01*
G02X0000145500Y0000252100I0000001385J-0000000801D01*
G02X0000145500Y0000248900I0J-0000001600D01*
G02X0000144115Y0000249699I0J0000001600D01*
G03X0000143422Y0000249699I-0000000346J-0000000200D01*
G02X0000142037Y0000248900I-0000001385J0000000801D01*
G02X0000140822Y0000249459I0J0000001600D01*
G03X0000140215Y0000249459I-0000000304J-0000000260D01*
G02X0000139000Y0000248900I-0000001215J0000001041D01*
G02X0000137600Y0000249725I0J0000001600D01*
G03X0000136900Y0000249725I-0000000350J-0000000194D01*
G02X0000135500Y0000248900I-0000001400J0000000775D01*
G02X0000135500Y0000252100I0J0000001600D01*
G02X0000136900Y0000251275I0J-0000001600D01*
G03X0000137600Y0000251275I0000000350J0000000194D01*
G02X0000139000Y0000252100I0000001400J-0000000775D01*
G02X0000140215Y0000251542I0J-0000001600D01*
G03X0000140822Y0000251542I0000000304J0000000260D01*
G37*
G36*
G01X0000160900Y0000250725D02*
G02X0000159500Y0000253100I-0000001400J0000000775D01*
G02X0000160900Y0000252275I0J-0000001600D01*
G03X0000161600Y0000252275I0000000350J0000000194D01*
G02X0000163000Y0000253100I0000001400J-0000000775D01*
G02X0000163000Y0000249900I0J-0000001600D01*
G02X0000161600Y0000250725I0J0000001600D01*
G03X0000160900Y0000250725I-0000000350J-0000000194D01*
G37*
G36*
G01X0000200225Y0000255600D02*
G02X0000202600Y0000257000I0000000775J0000001400D01*
G02X0000201775Y0000255600I-0000001600J0D01*
G03X0000201775Y0000254900I0000000194J-0000000350D01*
G02X0000202600Y0000253500I-0000000775J-0000001400D01*
G02X0000199400Y0000253500I-0000001600J0D01*
G02X0000200225Y0000254900I0000001600J0D01*
G03X0000200225Y0000255600I-0000000194J0000000350D01*
G37*
G36*
G01X0000079400Y0000259225D02*
G02X0000078000Y0000261600I-0000001400J0000000775D01*
G02X0000079400Y0000260775I0J-0000001600D01*
G03X0000080100Y0000260775I0000000350J0000000194D01*
G02X0000081500Y0000261600I0000001400J-0000000775D01*
G02X0000081500Y0000258400I0J-0000001600D01*
G02X0000080100Y0000259225I0J0000001600D01*
G03X0000079400Y0000259225I-0000000350J-0000000194D01*
G37*
G36*
G01X0000025700Y0000265059D02*
G03X0000026300Y0000265059I0000000300J0000000265D01*
G02X0000027500Y0000265600I0000001200J-0000001059D01*
G02X0000029100Y0000264000I0J-0000001600D01*
G02X0000028652Y0000262889I-0000001600J0D01*
G03X0000028652Y0000262611I0000000144J-0000000139D01*
G02X0000029100Y0000261500I-0000001151J-0000001111D01*
G02X0000027500Y0000259900I-0000001600J0D01*
G02X0000026100Y0000260725I0J0000001600D01*
G03X0000025400Y0000260725I-0000000350J-0000000194D01*
G02X0000024000Y0000259900I-0000001400J0000000775D01*
G02X0000022400Y0000261500I0J0000001600D01*
G02X0000023114Y0000262833I0000001600J0D01*
G03X0000023170Y0000263110I-0000000111J0000000167D01*
G02X0000022900Y0000264000I0000001330J0000000889D01*
G02X0000024500Y0000265600I0000001600J0D01*
G02X0000025700Y0000265059I0J-0000001600D01*
G37*
G36*
G01X0000180284Y0000262569D02*
G02X0000181000Y0000265600I0000000716J0000001431D01*
G02X0000182551Y0000264393I0J-0000001600D01*
G03X0000183151Y0000264152I0000000388J0000000098D01*
G02X0000184000Y0000264395I0000000849J-0000001357D01*
G02X0000184000Y0000261195I0J-0000001600D01*
G02X0000182449Y0000262402I0J0000001600D01*
G03X0000181849Y0000262643I-0000000388J-0000000098D01*
G02X0000181732Y0000262577I-0000000849J0000001357D01*
G03X0000181736Y0000261864I0000000183J-0000000356D01*
G02X0000182620Y0000260433I-0000000716J-0000001431D01*
G02X0000181833Y0000259055I-0000001600J0D01*
G03X0000181829Y0000258368I0000000203J-0000000344D01*
G02X0000182565Y0000257332I-0000000829J-0000001369D01*
G03X0000183165Y0000257074I0000000391J0000000083D01*
G02X0000184000Y0000257309I0000000835J-0000001365D01*
G02X0000184000Y0000254109I0J-0000001600D01*
G02X0000182435Y0000255377I0J0000001600D01*
G03X0000181835Y0000255635I-0000000391J-0000000083D01*
G02X0000181000Y0000255400I-0000000835J0000001365D01*
G02X0000179400Y0000257000I0J0000001600D01*
G02X0000180187Y0000258378I0000001600J0D01*
G03X0000180191Y0000259065I-0000000203J0000000344D01*
G02X0000179420Y0000260433I0000000829J0000001368D01*
G02X0000180288Y0000261856I0000001600J0D01*
G03X0000180284Y0000262569I-0000000183J0000000356D01*
G37*
G36*
G01X0000215119Y0000265003D02*
G02X0000217600Y0000266339I0000000881J0000001336D01*
G02X0000216881Y0000265003I-0000001600J0D01*
G03X0000216881Y0000264336I0000000220J-0000000334D01*
G02X0000217600Y0000263000I-0000000881J-0000001336D01*
G02X0000216775Y0000261600I-0000001600J0D01*
G03X0000216775Y0000260900I0000000194J-0000000350D01*
G02X0000217600Y0000259500I-0000000775J-0000001400D01*
G02X0000214400Y0000259500I-0000001600J0D01*
G02X0000215225Y0000260900I0000001600J0D01*
G03X0000215225Y0000261600I-0000000194J0000000350D01*
G02X0000214400Y0000263000I0000000775J0000001400D01*
G02X0000215119Y0000264336I0000001600J0D01*
G03X0000215119Y0000265003I-0000000220J0000000334D01*
G37*
G36*
G01X0000205725Y0000270100D02*
G02X0000206500Y0000273100I0000000775J0000001400D01*
G02X0000207900Y0000272275I0J-0000001600D01*
G03X0000208600Y0000272275I0000000350J0000000194D01*
G02X0000210000Y0000273100I0000001400J-0000000775D01*
G02X0000210000Y0000269900I0J-0000001600D01*
G02X0000208600Y0000270725I0J0000001600D01*
G03X0000207900Y0000270725I-0000000350J-0000000194D01*
G02X0000207275Y0000270100I-0000001400J0000000775D01*
G03X0000207275Y0000269400I0000000194J-0000000350D01*
G02X0000208100Y0000268000I-0000000775J-0000001400D01*
G02X0000207559Y0000266800I-0000001600J0D01*
G03X0000207559Y0000266200I0000000265J-0000000300D01*
G02X0000208100Y0000265000I-0000001059J-0000001200D01*
G02X0000204900Y0000265000I-0000001600J0D01*
G02X0000205441Y0000266200I0000001600J0D01*
G03X0000205441Y0000266800I-0000000265J0000000300D01*
G02X0000204900Y0000268000I0000001059J0000001200D01*
G02X0000205725Y0000269400I0000001600J0D01*
G03X0000205725Y0000270100I-0000000194J0000000350D01*
G37*
G36*
G01X0000072410Y0000274680D02*
G02X0000074000Y0000272900I0000001590J-0000000180D01*
G02X0000073190Y0000273120I0J0000001600D01*
G03X0000072590Y0000272820I-0000000202J-0000000345D01*
G02X0000071000Y0000271400I-0000001590J0000000180D01*
G02X0000071000Y0000274600I0J0000001600D01*
G02X0000071810Y0000274380I0J-0000001600D01*
G03X0000072410Y0000274680I0000000202J0000000345D01*
G37*
G36*
G01X0000181915Y0000276153D02*
G02X0000180500Y0000278500I-0000001415J0000000747D01*
G02X0000181885Y0000277702I0J-0000001600D01*
G03X0000182585Y0000277716I0000000346J0000000200D01*
G02X0000184000Y0000278569I0000001415J-0000000747D01*
G02X0000184000Y0000275369I0J-0000001600D01*
G02X0000182615Y0000276167I0J0000001600D01*
G03X0000181915Y0000276153I-0000000346J-0000000200D01*
G37*
G36*
G01X0000201225Y0000284600D02*
G02X0000203600Y0000286000I0000000775J0000001400D01*
G02X0000202775Y0000284600I-0000001600J0D01*
G03X0000202775Y0000283900I0000000194J-0000000350D01*
G02X0000203600Y0000282500I-0000000775J-0000001400D01*
G02X0000200400Y0000282500I-0000001600J0D01*
G02X0000201225Y0000283900I0000001600J0D01*
G03X0000201225Y0000284600I-0000000194J0000000350D01*
G37*
G36*
G01X0000208725Y0000284600D02*
G02X0000211100Y0000286000I0000000775J0000001400D01*
G02X0000210275Y0000284600I-0000001600J0D01*
G03X0000210275Y0000283900I0000000194J-0000000350D01*
G02X0000211100Y0000282500I-0000000775J-0000001400D01*
G02X0000207900Y0000282500I-0000001600J0D01*
G02X0000208725Y0000283900I0000001600J0D01*
G03X0000208725Y0000284600I-0000000194J0000000350D01*
G37*
G36*
G01X0000085783Y0000320005D02*
G02X0000088143Y0000321413I0000000760J0000001408D01*
G02X0000087269Y0000319987I-0000001600J0D01*
G03X0000087260Y0000319278I0000000181J-0000000357D01*
G02X0000088100Y0000317870I-0000000760J-0000001408D01*
G02X0000084900Y0000317870I-0000001600J0D01*
G02X0000085774Y0000319296I0000001600J0D01*
G03X0000085783Y0000320005I-0000000181J0000000357D01*
G37*
G36*
G01X0000207315Y0000349221D02*
G02X0000210500Y0000349000I0000001585J-0000000221D01*
G02X0000209936Y0000347780I-0000001600J0D01*
G03X0000210056Y0000347101I0000000259J-0000000305D01*
G02X0000211100Y0000345600I-0000000556J-0000001501D01*
G02X0000207900Y0000345600I-0000001600J0D01*
G02X0000208464Y0000346820I0000001600J0D01*
G03X0000208344Y0000347500I-0000000259J0000000305D01*
G02X0000208165Y0000347579I0000000556J0000001500D01*
G03X0000207585Y0000347279I-0000000184J-0000000355D01*
G02X0000206000Y0000345900I-0000001585J0000000221D01*
G02X0000206000Y0000349100I0J0000001600D01*
G02X0000206735Y0000348921I0J-0000001600D01*
G03X0000207315Y0000349221I0000000184J0000000355D01*
G37*
G36*
G01X0000231225Y0000393100D02*
G02X0000232000Y0000396100I0000000775J0000001400D01*
G02X0000233400Y0000395275I0J-0000001600D01*
G03X0000234100Y0000395275I0000000350J0000000194D01*
G02X0000235500Y0000396100I0000001400J-0000000775D01*
G02X0000237100Y0000394500I0J-0000001600D01*
G02X0000236275Y0000393100I-0000001600J0D01*
G03X0000236275Y0000392400I0000000194J-0000000350D01*
G02X0000237100Y0000391000I-0000000775J-0000001400D01*
G02X0000235500Y0000389400I-0000001600J0D01*
G02X0000234100Y0000390225I0J0000001600D01*
G03X0000233400Y0000390225I-0000000350J-0000000194D01*
G02X0000232000Y0000389400I-0000001400J0000000775D01*
G02X0000230400Y0000391000I0J0000001600D01*
G02X0000231225Y0000392400I0000001600J0D01*
G03X0000231225Y0000393100I-0000000194J0000000350D01*
G37*
G36*
G01X0000073441Y0000139800D02*
G02X0000072900Y0000141000I0000001059J0000001200D01*
G02X0000073441Y0000142200I0000001600J0D01*
G03X0000073441Y0000142800I-0000000265J0000000300D01*
G02X0000072900Y0000144000I0000001059J0000001200D01*
G02X0000074500Y0000145600I0000001600J0D01*
G02X0000075700Y0000145059I0J-0000001600D01*
G03X0000076300Y0000145059I0000000300J0000000265D01*
G02X0000077500Y0000145600I0000001200J-0000001059D01*
G02X0000079100Y0000144000I0J-0000001600D01*
G02X0000078559Y0000142800I-0000001600J0D01*
G03X0000078559Y0000142200I0000000265J-0000000300D01*
G02X0000079100Y0000141000I-0000001059J-0000001200D01*
G02X0000078559Y0000139800I-0000001600J0D01*
G03X0000078559Y0000139200I0000000265J-0000000300D01*
G02X0000079100Y0000138000I-0000001059J-0000001200D01*
G02X0000077500Y0000136400I-0000001600J0D01*
G02X0000076300Y0000136941I0J0000001600D01*
G03X0000075700Y0000136941I-0000000300J-0000000265D01*
G02X0000074500Y0000136400I-0000001200J0000001059D01*
G02X0000072900Y0000138000I0J0000001600D01*
G02X0000073441Y0000139200I0000001600J0D01*
G03X0000073441Y0000139800I-0000000265J0000000300D01*
G37*
G36*
G01X0000296903Y0000055598D02*
G03X0000296443Y0000056018I-0000000399J0000000025D01*
G02X0000296200Y0000056000I-0000000243J0000001582D01*
G02X0000297800Y0000057600I0J0000001600D01*
G02X0000297797Y0000057502I-0000001600J0D01*
G03X0000298257Y0000057082I0000000399J-0000000025D01*
G02X0000298500Y0000057100I0000000243J-0000001582D01*
G02X0000296900Y0000055500I0J-0000001600D01*
G02X0000296903Y0000055598I0000001600J0D01*
G37*
G54D26*
X0000053689Y0000021181D03*
G54D28*
X0000312598Y0000351575D03*
G54D32*
X0000024926Y0000342670D03*
X0000024926Y0000370230D03*
G54D27*
X0000312598Y0000109055D03*
G54D31*
X0000032331Y0000083424D03*
X0000032331Y0000135156D03*
G54D24*
X0000320000Y0000033000D03*
X0000285500Y0000063500D03*
X0000277114Y0000066386D03*
X0000021300Y0000152000D03*
X0000077000Y0000150700D03*
X0000008500Y0000050000D03*
X0000008500Y0000073000D03*
X0000008000Y0000120000D03*
X0000013500Y0000138500D03*
X0000006500Y0000150500D03*
X0000006500Y0000168000D03*
X0000007000Y0000183000D03*
X0000015500Y0000241000D03*
X0000012000Y0000279500D03*
X0000013500Y0000296500D03*
X0000010000Y0000335500D03*
X0000016000Y0000328500D03*
X0000007500Y0000354500D03*
X0000013500Y0000377000D03*
X0000018500Y0000035000D03*
X0000034000Y0000041000D03*
X0000023000Y0000053000D03*
X0000031500Y0000068000D03*
X0000019000Y0000088500D03*
X0000025000Y0000108500D03*
X0000034000Y0000099500D03*
X0000023000Y0000125500D03*
X0000026500Y0000148000D03*
X0000022435Y0000172565D03*
X0000029000Y0000216500D03*
X0000019000Y0000230000D03*
X0000029000Y0000226000D03*
X0000020500Y0000278000D03*
X0000022000Y0000270500D03*
X0000028500Y0000270900D03*
X0000024500Y0000274000D03*
X0000020500Y0000274000D03*
X0000022925Y0000282000D03*
X0000030000Y0000352500D03*
X0000028500Y0000361500D03*
X0000029500Y0000387000D03*
X0000037500Y0000020500D03*
X0000049500Y0000057500D03*
X0000047500Y0000072000D03*
X0000049500Y0000086500D03*
X0000049500Y0000114500D03*
X0000049500Y0000105000D03*
X0000049500Y0000098500D03*
X0000047000Y0000133500D03*
X0000051500Y0000126000D03*
X0000036260Y0000151000D03*
X0000042000Y0000143000D03*
X0000045500Y0000155000D03*
X0000049000Y0000309500D03*
X0000050500Y0000322500D03*
X0000045000Y0000329000D03*
X0000037500Y0000321000D03*
X0000037500Y0000346500D03*
X0000039500Y0000361500D03*
X0000045500Y0000373000D03*
X0000036500Y0000401000D03*
X0000042500Y0000392000D03*
X0000072000Y0000024000D03*
X0000068500Y0000056500D03*
X0000063000Y0000056500D03*
X0000063500Y0000068500D03*
X0000063000Y0000083000D03*
X0000063500Y0000093500D03*
X0000060500Y0000129000D03*
X0000054500Y0000151500D03*
X0000061000Y0000151500D03*
X0000071063Y0000278063D03*
X0000066500Y0000316114D03*
X0000060500Y0000317000D03*
X0000072000Y0000304000D03*
X0000059500Y0000334500D03*
X0000072500Y0000334500D03*
X0000064000Y0000321500D03*
X0000068500Y0000321500D03*
X0000059500Y0000321500D03*
X0000055500Y0000321500D03*
X0000059500Y0000329500D03*
X0000061500Y0000354500D03*
X0000066400Y0000336600D03*
X0000066500Y0000370000D03*
X0000057500Y0000364500D03*
X0000071000Y0000361500D03*
X0000060000Y0000380000D03*
X0000065000Y0000391000D03*
X0000071500Y0000383000D03*
X0000090000Y0000020500D03*
X0000076500Y0000058000D03*
X0000075000Y0000046000D03*
X0000091000Y0000055500D03*
X0000084000Y0000064500D03*
X0000081500Y0000079500D03*
X0000088500Y0000106500D03*
X0000077500Y0000166000D03*
X0000077114Y0000174680D03*
X0000091000Y0000174000D03*
X0000080307Y0000180693D03*
X0000078000Y0000265000D03*
X0000086000Y0000300500D03*
X0000086543Y0000328500D03*
X0000088800Y0000332043D03*
X0000088800Y0000324957D03*
X0000086543Y0000335587D03*
X0000076500Y0000352500D03*
X0000088386Y0000362886D03*
X0000081500Y0000364500D03*
X0000088000Y0000382500D03*
X0000079000Y0000375500D03*
X0000078500Y0000393000D03*
X0000084500Y0000401500D03*
X0000100500Y0000015000D03*
X0000108500Y0000019500D03*
X0000106500Y0000026000D03*
X0000107500Y0000046000D03*
X0000106000Y0000056500D03*
X0000100500Y0000065000D03*
X0000101000Y0000079500D03*
X0000103000Y0000133000D03*
X0000108284Y0000148000D03*
X0000100000Y0000167500D03*
X0000102000Y0000159000D03*
X0000096500Y0000179000D03*
X0000092500Y0000187000D03*
X0000100000Y0000181500D03*
X0000092000Y0000180000D03*
X0000096000Y0000197000D03*
X0000105500Y0000197000D03*
X0000105500Y0000240000D03*
X0000103000Y0000257500D03*
X0000107500Y0000261000D03*
X0000109500Y0000271000D03*
X0000094847Y0000289500D03*
X0000100500Y0000288000D03*
X0000105000Y0000292886D03*
X0000098000Y0000292886D03*
X0000095270Y0000300730D03*
X0000102357Y0000300500D03*
X0000103000Y0000335500D03*
X0000098814Y0000335500D03*
X0000094000Y0000335500D03*
X0000092500Y0000371500D03*
X0000100000Y0000366500D03*
X0000104000Y0000359500D03*
X0000096500Y0000360000D03*
X0000103500Y0000388000D03*
X0000100000Y0000379500D03*
X0000101000Y0000400000D03*
X0000092500Y0000391500D03*
X0000127736Y0000024236D03*
X0000115500Y0000061500D03*
X0000119114Y0000063500D03*
X0000121500Y0000060000D03*
X0000111500Y0000079500D03*
X0000125000Y0000079500D03*
X0000121500Y0000103000D03*
X0000125500Y0000122500D03*
X0000118700Y0000148000D03*
X0000113700Y0000148000D03*
X0000111500Y0000134500D03*
X0000116500Y0000134500D03*
X0000123700Y0000148098D03*
X0000121000Y0000139000D03*
X0000121500Y0000134500D03*
X0000125000Y0000143500D03*
X0000126500Y0000162000D03*
X0000126500Y0000157000D03*
X0000125500Y0000174577D03*
X0000113500Y0000181000D03*
X0000120500Y0000182500D03*
X0000121000Y0000230000D03*
X0000121000Y0000234000D03*
X0000116500Y0000261000D03*
X0000127469Y0000285969D03*
X0000112987Y0000310500D03*
X0000120074Y0000310500D03*
X0000120500Y0000317870D03*
X0000133642Y0000024236D03*
X0000139547Y0000024236D03*
X0000145453Y0000024236D03*
X0000130500Y0000046000D03*
X0000138000Y0000176500D03*
X0000132000Y0000172000D03*
X0000138000Y0000198000D03*
X0000132500Y0000240008D03*
X0000136000Y0000236500D03*
X0000143000Y0000236500D03*
X0000146000Y0000240008D03*
X0000132400Y0000277614D03*
X0000131114Y0000263886D03*
X0000142400Y0000273000D03*
X0000146100Y0000272900D03*
X0000136800Y0000273000D03*
X0000143400Y0000268600D03*
X0000136500Y0000297000D03*
X0000141000Y0000297000D03*
X0000144741Y0000297759D03*
X0000140000Y0000313000D03*
X0000141000Y0000303500D03*
X0000146000Y0000324000D03*
X0000145000Y0000318000D03*
X0000146000Y0000329500D03*
X0000131500Y0000355500D03*
X0000133000Y0000367000D03*
X0000132000Y0000379500D03*
X0000132500Y0000391000D03*
X0000134500Y0000405500D03*
X0000149500Y0000006500D03*
X0000157500Y0000012500D03*
X0000151358Y0000024236D03*
X0000157264Y0000024236D03*
X0000163169Y0000024236D03*
X0000160000Y0000048000D03*
X0000159500Y0000119500D03*
X0000161000Y0000123000D03*
X0000154500Y0000165500D03*
X0000153500Y0000187500D03*
X0000149000Y0000187500D03*
X0000163000Y0000190500D03*
X0000149500Y0000192000D03*
X0000155500Y0000240000D03*
X0000152500Y0000243386D03*
X0000156800Y0000232400D03*
X0000149800Y0000273000D03*
X0000147886Y0000293386D03*
X0000160114Y0000293500D03*
X0000158528Y0000309472D03*
X0000155000Y0000317500D03*
X0000151000Y0000313000D03*
X0000159500Y0000332000D03*
X0000154832Y0000331832D03*
X0000151500Y0000329500D03*
X0000147000Y0000353000D03*
X0000147000Y0000367500D03*
X0000162000Y0000371000D03*
X0000158500Y0000355000D03*
X0000163000Y0000384500D03*
X0000147000Y0000382000D03*
X0000149500Y0000405000D03*
X0000146500Y0000395000D03*
X0000160000Y0000397000D03*
X0000171000Y0000020500D03*
X0000168500Y0000034000D03*
X0000174500Y0000029500D03*
X0000174500Y0000034000D03*
X0000176000Y0000025000D03*
X0000168500Y0000038500D03*
X0000168500Y0000047500D03*
X0000168500Y0000043000D03*
X0000181500Y0000079000D03*
X0000175500Y0000169500D03*
X0000168500Y0000185000D03*
X0000179000Y0000206000D03*
X0000175969Y0000222031D03*
X0000179000Y0000234500D03*
X0000179000Y0000227500D03*
X0000181000Y0000243898D03*
X0000181087Y0000239086D03*
X0000170886Y0000277614D03*
X0000177000Y0000264000D03*
X0000174000Y0000332000D03*
X0000173500Y0000342500D03*
X0000178000Y0000349500D03*
X0000173000Y0000365000D03*
X0000174000Y0000390000D03*
X0000180500Y0000377500D03*
X0000181000Y0000388500D03*
X0000170000Y0000377500D03*
X0000184500Y0000012000D03*
X0000199500Y0000012000D03*
X0000188500Y0000041000D03*
X0000194000Y0000041000D03*
X0000192500Y0000077500D03*
X0000192500Y0000085000D03*
X0000197000Y0000110500D03*
X0000201050Y0000123960D03*
X0000184000Y0000119500D03*
X0000196400Y0000129300D03*
X0000200000Y0000141500D03*
X0000184000Y0000149409D03*
X0000184000Y0000142323D03*
X0000184000Y0000156496D03*
X0000184000Y0000163583D03*
X0000184000Y0000170669D03*
X0000184000Y0000184843D03*
X0000184000Y0000177756D03*
X0000197000Y0000202000D03*
X0000184000Y0000191929D03*
X0000184000Y0000199016D03*
X0000184000Y0000206102D03*
X0000198000Y0000192500D03*
X0000199500Y0000205500D03*
X0000184000Y0000213189D03*
X0000184000Y0000220276D03*
X0000184000Y0000227362D03*
X0000184000Y0000234449D03*
X0000184000Y0000241535D03*
X0000197000Y0000243500D03*
X0000184000Y0000248622D03*
X0000196000Y0000256000D03*
X0000184000Y0000269882D03*
X0000184000Y0000284055D03*
X0000184000Y0000291142D03*
X0000201000Y0000315945D03*
X0000197500Y0000313583D03*
X0000184000Y0000312402D03*
X0000198000Y0000303500D03*
X0000200500Y0000311500D03*
X0000196563Y0000328937D03*
X0000184000Y0000319488D03*
X0000184000Y0000326575D03*
X0000184000Y0000333661D03*
X0000196500Y0000333500D03*
X0000200500Y0000327500D03*
X0000196714Y0000338386D03*
X0000184000Y0000340748D03*
X0000184000Y0000347835D03*
X0000200900Y0000338300D03*
X0000184000Y0000354921D03*
X0000197500Y0000355500D03*
X0000195000Y0000361500D03*
X0000200000Y0000366500D03*
X0000190500Y0000385500D03*
X0000185500Y0000390500D03*
X0000194500Y0000393500D03*
X0000200500Y0000395500D03*
X0000220000Y0000020000D03*
X0000220000Y0000033500D03*
X0000205000Y0000061500D03*
X0000213000Y0000061500D03*
X0000215500Y0000071000D03*
X0000216000Y0000078500D03*
X0000218000Y0000088500D03*
X0000212000Y0000100500D03*
X0000216500Y0000128500D03*
X0000205000Y0000132500D03*
X0000213500Y0000139500D03*
X0000204000Y0000149500D03*
X0000204500Y0000167000D03*
X0000212500Y0000157500D03*
X0000204500Y0000184000D03*
X0000215500Y0000177500D03*
X0000202000Y0000202500D03*
X0000205000Y0000196500D03*
X0000215500Y0000190000D03*
X0000216000Y0000199000D03*
X0000215000Y0000217500D03*
X0000205500Y0000218500D03*
X0000215500Y0000209000D03*
X0000214000Y0000243500D03*
X0000215000Y0000229500D03*
X0000205000Y0000226500D03*
X0000210500Y0000233500D03*
X0000202000Y0000235500D03*
X0000211000Y0000240500D03*
X0000205000Y0000243500D03*
X0000215500Y0000235500D03*
X0000215500Y0000248500D03*
X0000204000Y0000262000D03*
X0000204000Y0000251500D03*
X0000209000Y0000255500D03*
X0000217000Y0000275500D03*
X0000212000Y0000262500D03*
X0000203000Y0000299000D03*
X0000213000Y0000285000D03*
X0000217000Y0000283000D03*
X0000212780Y0000288780D03*
X0000214500Y0000303000D03*
X0000215500Y0000311500D03*
X0000208500Y0000319500D03*
X0000208500Y0000324100D03*
X0000204000Y0000324213D03*
X0000215500Y0000322000D03*
X0000212000Y0000333000D03*
X0000204500Y0000333500D03*
X0000211500Y0000322000D03*
X0000206636Y0000338136D03*
X0000212000Y0000365500D03*
X0000217500Y0000358500D03*
X0000217000Y0000386000D03*
X0000207000Y0000377500D03*
X0000212000Y0000400500D03*
X0000229500Y0000020000D03*
X0000235000Y0000016000D03*
X0000227500Y0000055031D03*
X0000222000Y0000061500D03*
X0000234114Y0000062500D03*
X0000227000Y0000071000D03*
X0000232500Y0000091500D03*
X0000229500Y0000119500D03*
X0000229500Y0000130000D03*
X0000237500Y0000150500D03*
X0000228598Y0000148228D03*
X0000228598Y0000141142D03*
X0000233500Y0000159000D03*
X0000233500Y0000154500D03*
X0000228598Y0000162402D03*
X0000228598Y0000169488D03*
X0000235000Y0000167000D03*
X0000228598Y0000176575D03*
X0000228598Y0000183661D03*
X0000237500Y0000176000D03*
X0000228598Y0000197835D03*
X0000228598Y0000204921D03*
X0000233500Y0000189000D03*
X0000228598Y0000212008D03*
X0000228598Y0000219095D03*
X0000228598Y0000226181D03*
X0000228598Y0000233268D03*
X0000228598Y0000240354D03*
X0000235500Y0000232000D03*
X0000228598Y0000247441D03*
X0000228598Y0000254528D03*
X0000228598Y0000261614D03*
X0000238500Y0000254500D03*
X0000228598Y0000275787D03*
X0000228598Y0000268701D03*
X0000232500Y0000284500D03*
X0000232500Y0000288500D03*
X0000228598Y0000282874D03*
X0000228598Y0000289961D03*
X0000222500Y0000296000D03*
X0000228598Y0000311221D03*
X0000231500Y0000300000D03*
X0000228598Y0000318307D03*
X0000228598Y0000332480D03*
X0000228598Y0000325394D03*
X0000237000Y0000343900D03*
X0000228598Y0000339567D03*
X0000228598Y0000346654D03*
X0000237000Y0000339600D03*
X0000226000Y0000358500D03*
X0000223000Y0000366000D03*
X0000233500Y0000358500D03*
X0000233000Y0000366500D03*
X0000225500Y0000386000D03*
X0000233500Y0000382500D03*
X0000238500Y0000375000D03*
X0000233000Y0000375000D03*
X0000223000Y0000400500D03*
X0000249000Y0000020500D03*
X0000256500Y0000015000D03*
X0000241500Y0000016000D03*
X0000244500Y0000033500D03*
X0000244500Y0000039000D03*
X0000240000Y0000143500D03*
X0000239500Y0000136000D03*
X0000244500Y0000167500D03*
X0000249000Y0000167500D03*
X0000244500Y0000163500D03*
X0000249000Y0000163500D03*
X0000246000Y0000186500D03*
X0000249000Y0000174500D03*
X0000242000Y0000225500D03*
X0000240500Y0000241000D03*
X0000248500Y0000232500D03*
X0000240500Y0000246000D03*
X0000251500Y0000254500D03*
X0000250000Y0000246000D03*
X0000242500Y0000266000D03*
X0000252500Y0000272500D03*
X0000243500Y0000282000D03*
X0000244000Y0000296000D03*
X0000252500Y0000287500D03*
X0000242000Y0000318500D03*
X0000241000Y0000324000D03*
X0000245400Y0000332300D03*
X0000249700Y0000332500D03*
X0000248100Y0000344000D03*
X0000243600Y0000343900D03*
X0000241000Y0000365500D03*
X0000240000Y0000358500D03*
X0000250500Y0000375500D03*
X0000244500Y0000375000D03*
X0000274000Y0000011500D03*
X0000266500Y0000011000D03*
X0000274000Y0000025000D03*
X0000264000Y0000041500D03*
X0000260000Y0000049000D03*
X0000273000Y0000068500D03*
X0000274500Y0000346000D03*
X0000269000Y0000363000D03*
X0000257500Y0000381000D03*
X0000259000Y0000374000D03*
X0000271000Y0000389000D03*
X0000264000Y0000404000D03*
X0000288000Y0000022500D03*
X0000281500Y0000013000D03*
X0000290650Y0000036350D03*
X0000276500Y0000028500D03*
X0000280500Y0000028500D03*
X0000284500Y0000028500D03*
X0000278500Y0000025000D03*
X0000291000Y0000054500D03*
X0000292886Y0000078114D03*
X0000290500Y0000073000D03*
X0000283000Y0000077000D03*
X0000290500Y0000085000D03*
X0000292500Y0000112500D03*
X0000292500Y0000123000D03*
X0000292500Y0000150000D03*
X0000292500Y0000145500D03*
X0000292500Y0000136500D03*
X0000287000Y0000262000D03*
X0000287000Y0000256890D03*
X0000285500Y0000270500D03*
X0000292000Y0000288500D03*
X0000284500Y0000334500D03*
X0000286500Y0000357000D03*
X0000276000Y0000404500D03*
X0000287500Y0000407114D03*
X0000310500Y0000012000D03*
X0000293886Y0000022714D03*
X0000305500Y0000013000D03*
X0000305114Y0000022500D03*
X0000297000Y0000052000D03*
X0000303000Y0000074886D03*
X0000309000Y0000096500D03*
X0000303500Y0000118500D03*
X0000311000Y0000123000D03*
X0000305000Y0000149000D03*
X0000305000Y0000154000D03*
X0000306000Y0000163500D03*
X0000297000Y0000215500D03*
X0000297000Y0000226000D03*
X0000297000Y0000239000D03*
X0000298500Y0000259500D03*
X0000296000Y0000275500D03*
X0000310500Y0000291500D03*
X0000301500Y0000307000D03*
X0000300500Y0000320000D03*
X0000304000Y0000335000D03*
X0000300500Y0000370000D03*
X0000304500Y0000385000D03*
X0000321500Y0000012000D03*
X0000329500Y0000015000D03*
X0000315500Y0000013000D03*
X0000330300Y0000033700D03*
X0000324000Y0000033000D03*
X0000317000Y0000025000D03*
X0000321000Y0000025000D03*
X0000326000Y0000108500D03*
X0000321000Y0000097500D03*
X0000323000Y0000216500D03*
X0000324000Y0000239500D03*
X0000324000Y0000228500D03*
X0000323500Y0000260000D03*
X0000324000Y0000249000D03*
X0000326500Y0000269000D03*
X0000324500Y0000304000D03*
X0000318000Y0000321000D03*
X0000328000Y0000347000D03*
X0000323500Y0000369500D03*
X0000313000Y0000385000D03*
X0000323500Y0000385000D03*
X0000313000Y0000404500D03*
X0000341000Y0000016000D03*
X0000346500Y0000006500D03*
X0000340300Y0000036500D03*
X0000336000Y0000023500D03*
X0000344000Y0000031500D03*
X0000342500Y0000043000D03*
X0000345500Y0000103500D03*
X0000336500Y0000108000D03*
X0000342500Y0000108500D03*
X0000335000Y0000097500D03*
X0000348000Y0000202000D03*
X0000331000Y0000214500D03*
X0000331000Y0000208500D03*
X0000348000Y0000208500D03*
X0000346000Y0000218500D03*
X0000346000Y0000223973D03*
X0000331000Y0000221000D03*
X0000331000Y0000232000D03*
X0000331000Y0000227000D03*
X0000346000Y0000238973D03*
X0000346000Y0000228000D03*
X0000331000Y0000239000D03*
X0000331000Y0000245000D03*
X0000348000Y0000246500D03*
X0000335500Y0000261500D03*
X0000331000Y0000250500D03*
X0000336500Y0000278500D03*
X0000348500Y0000269000D03*
X0000347000Y0000288500D03*
X0000343000Y0000303000D03*
X0000343000Y0000315500D03*
X0000342500Y0000328000D03*
X0000345000Y0000344500D03*
X0000335000Y0000390000D03*
X0000343000Y0000384000D03*
X0000340000Y0000403500D03*
X0000358000Y0000013500D03*
X0000351500Y0000039000D03*
X0000360500Y0000026500D03*
X0000351500Y0000025000D03*
X0000359500Y0000047000D03*
X0000353000Y0000052000D03*
X0000360500Y0000056000D03*
X0000353000Y0000057500D03*
X0000352000Y0000063500D03*
X0000366000Y0000073500D03*
X0000351500Y0000096500D03*
X0000366000Y0000096500D03*
X0000355900Y0000111900D03*
X0000365500Y0000163000D03*
X0000354000Y0000183500D03*
X0000367000Y0000177000D03*
X0000366000Y0000197000D03*
X0000349500Y0000252500D03*
X0000349500Y0000257500D03*
X0000362500Y0000279500D03*
X0000353500Y0000315000D03*
X0000360500Y0000301500D03*
X0000353500Y0000324500D03*
X0000354500Y0000339500D03*
X0000349500Y0000350000D03*
X0000355000Y0000356000D03*
X0000350000Y0000358000D03*
X0000356500Y0000363000D03*
X0000356500Y0000372000D03*
X0000361000Y0000389500D03*
X0000349500Y0000377500D03*
X0000354000Y0000399500D03*
X0000380000Y0000034500D03*
X0000367500Y0000054500D03*
X0000374000Y0000049000D03*
X0000375000Y0000062500D03*
X0000375000Y0000069000D03*
X0000380000Y0000096500D03*
X0000385500Y0000100000D03*
X0000380500Y0000149500D03*
X0000368500Y0000147500D03*
X0000380000Y0000169500D03*
X0000373500Y0000156500D03*
X0000373000Y0000187500D03*
X0000384000Y0000181000D03*
X0000378000Y0000201000D03*
X0000385000Y0000204500D03*
X0000374000Y0000204500D03*
X0000373600Y0000213800D03*
X0000377500Y0000224000D03*
X0000380000Y0000214000D03*
X0000371800Y0000232300D03*
X0000377500Y0000237000D03*
X0000368000Y0000245000D03*
X0000382500Y0000253500D03*
X0000379000Y0000268500D03*
X0000367500Y0000264000D03*
X0000372500Y0000290500D03*
X0000371000Y0000315500D03*
X0000379000Y0000305000D03*
X0000373000Y0000332500D03*
X0000380000Y0000324500D03*
X0000372000Y0000348500D03*
X0000379500Y0000341000D03*
X0000372000Y0000359000D03*
X0000382500Y0000359500D03*
X0000372500Y0000380500D03*
X0000383000Y0000375000D03*
X0000386000Y0000150000D03*
X0000386000Y0000157000D03*
X0000386200Y0000213900D03*
X0000386100Y0000234500D03*
X0000387000Y0000240500D03*
X0000387500Y0000297500D03*
X0000387000Y0000281500D03*
X0000387500Y0000331500D03*
X0000387000Y0000348000D03*
X0000215400Y0000110200D03*
X0000083900Y0000148100D03*
X0000081200Y0000140200D03*
X0000013100Y0000156500D03*
X0000015100Y0000152200D03*
X0000275000Y0000062500D03*
X0000262900Y0000023500D03*
X0000266500Y0000019000D03*
X0000258000Y0000027500D03*
X0000293000Y0000060000D03*
G54D34*
X0000043000Y0000095510D03*
X0000043000Y0000123070D03*
G54D25*
X0000206299Y0000098819D03*
G54D29*
X0000015252Y0000198819D03*
X0000015252Y0000214567D03*
G54D30*
X0000015084Y0000347592D03*
X0000015084Y0000365308D03*
X0000053689Y0000038189D03*
X0000041878Y0000050000D03*
X0000053689Y0000050000D03*
X0000065500Y0000038189D03*
X0000065500Y0000050000D03*
X0000182000Y0000404000D03*
X0000172000Y0000404000D03*
X0000202000Y0000404000D03*
X0000192000Y0000404000D03*
X0000212500Y0000010500D03*
X0000222500Y0000010500D03*
X0000383221Y0000046752D03*
X0000383221Y0000056752D03*
X0000383221Y0000066752D03*
X0000383221Y0000076752D03*
G54D33*
X0000041878Y0000038189D03*
G54D35*
X0000206299Y0000361811D03*
%LPD*%
G75*
G36*
G01X0000033000Y0000306000D02*
X0000064000Y0000306000D01*
X0000066000Y0000304000D01*
X0000066000Y0000289000D01*
X0000068000Y0000287000D01*
X0000069500Y0000287000D01*
X0000070000Y0000286500D01*
X0000070000Y0000282500D01*
X0000067944Y0000280444D01*
X0000067783Y0000280605D01*
X0000067770Y0000280629D01*
G03X0000067588Y0000280908I-0000002095J-0000001172D01*
G03X0000068075Y0000282358I-0000001913J0000001450D01*
G03X0000063275Y0000282358I-0000002400J0D01*
G03X0000063762Y0000280908I0000002400J0D01*
G03X0000063275Y0000279458I0000001913J-0000001450D01*
G03X0000065675Y0000277058I0000002400J0D01*
G03X0000067325Y0000277715I0J0000002400D01*
G02X0000068000Y0000277424I0000000275J-0000000290D01*
G01X0000068000Y0000263000D01*
X0000066000Y0000261000D01*
X0000046500Y0000261000D01*
X0000044000Y0000263500D01*
X0000044000Y0000276000D01*
X0000041500Y0000278500D01*
X0000030500Y0000278500D01*
X0000029500Y0000279500D01*
X0000029500Y0000280751D01*
G03X0000030016Y0000281486I-0000001000J0000001249D01*
G01X0000030030Y0000281530D01*
X0000030500Y0000282000D01*
X0000030500Y0000303500D01*
X0000033000Y0000306000D01*
G37*
G36*
G01X0000122500Y0000344500D02*
X0000112500Y0000344500D01*
X0000107500Y0000349500D01*
X0000107500Y0000405000D01*
X0000109500Y0000407000D01*
X0000125000Y0000407000D01*
X0000127000Y0000405000D01*
X0000127000Y0000349000D01*
X0000122500Y0000344500D01*
G37*
G36*
G01X0000321500Y0000165000D02*
X0000338000Y0000165000D01*
X0000360000Y0000143000D01*
X0000384500Y0000143000D01*
X0000385500Y0000142000D01*
X0000385500Y0000117500D01*
X0000383500Y0000115500D01*
X0000335000Y0000115500D01*
X0000333286Y0000117214D01*
X0000333348Y0000117342D01*
G03X0000333500Y0000118000I-0000001348J0000000658D01*
G03X0000332000Y0000119500I-0000001500J0D01*
G03X0000331342Y0000119348I0J-0000001500D01*
G01X0000331214Y0000119286D01*
X0000326939Y0000123561D01*
X0000326963Y0000123669D01*
G03X0000327000Y0000124000I-0000001463J0000000331D01*
G03X0000325500Y0000125500I-0000001500J0D01*
G03X0000325169Y0000125463I0J-0000001500D01*
G01X0000325061Y0000125439D01*
X0000316500Y0000134000D01*
X0000307500Y0000134000D01*
X0000305500Y0000136000D01*
X0000305500Y0000145500D01*
X0000307000Y0000147000D01*
X0000317000Y0000147000D01*
X0000318500Y0000148500D01*
X0000318500Y0000162000D01*
X0000321500Y0000165000D01*
G37*
%LPC*%
G75*
G36*
G01X0000051813Y0000298825D02*
G02X0000056125Y0000300275I0000001913J0000001450D01*
G02X0000055638Y0000298825I-0000002400J0D01*
G02X0000056125Y0000297375I-0000001913J-0000001450D01*
G02X0000056061Y0000296822I-0000002400J0D01*
G03X0000056654Y0000296385I0000000389J-0000000092D01*
G02X0000057875Y0000296719I0000001221J-0000002066D01*
G02X0000060275Y0000294319I0J-0000002400D01*
G02X0000059788Y0000292869I-0000002400J0D01*
G02X0000060275Y0000291419I-0000001913J-0000001450D01*
G02X0000060255Y0000291107I-0000002400J0D01*
G03X0000060762Y0000290671I0000000397J-0000000052D01*
G02X0000061425Y0000290764I0000000663J-0000002307D01*
G02X0000063825Y0000288364I0J-0000002400D01*
G02X0000063338Y0000286914I-0000002400J0D01*
G02X0000063825Y0000285464I-0000001913J-0000001450D01*
G02X0000059025Y0000285464I-0000002400J0D01*
G02X0000059512Y0000286914I0000002400J0D01*
G02X0000059025Y0000288364I0000001913J0000001450D01*
G02X0000059045Y0000288676I0000002400J0D01*
G03X0000058538Y0000289112I-0000000397J0000000052D01*
G02X0000057875Y0000289019I-0000000663J0000002307D01*
G02X0000055475Y0000291419I0J0000002400D01*
G02X0000055962Y0000292869I0000002400J0D01*
G02X0000055475Y0000294319I0000001913J0000001450D01*
G02X0000055539Y0000294872I0000002400J0D01*
G03X0000054946Y0000295308I-0000000389J0000000092D01*
G02X0000053725Y0000294975I-0000001221J0000002066D01*
G02X0000051325Y0000297375I0J0000002400D01*
G02X0000051813Y0000298825I0000002400J0D01*
G37*
G36*
G01X0000324104Y0000133239D02*
G03X0000324104Y0000133776I-0000000296J0000000269D01*
G02X0000323483Y0000135388I0000001779J0000001612D01*
G02X0000328283Y0000135388I0000002400J0D01*
G02X0000327661Y0000133776I-0000002400J0D01*
G03X0000327661Y0000133239I0000000296J-0000000269D01*
G02X0000328283Y0000131628I-0000001779J-0000001612D01*
G02X0000323483Y0000131628I-0000002400J0D01*
G02X0000324104Y0000133239I0000002400J0D01*
G37*
G36*
G01X0000308252Y0000139856D02*
G03X0000308252Y0000140394I-0000000296J0000000269D01*
G02X0000307630Y0000142005I0000001779J0000001612D01*
G02X0000312430Y0000142005I0000002400J0D01*
G02X0000311809Y0000140394I-0000002400J0D01*
G03X0000311809Y0000139856I0000000296J-0000000269D01*
G02X0000312430Y0000138245I-0000001779J-0000001612D01*
G02X0000307630Y0000138245I-0000002400J0D01*
G02X0000308252Y0000139856I0000002400J0D01*
G37*
G36*
G01X0000324222Y0000146606D02*
G03X0000324222Y0000147144I-0000000296J0000000269D01*
G02X0000323600Y0000148755I0000001779J0000001612D01*
G02X0000328400Y0000148755I0000002400J0D01*
G02X0000327778Y0000147144I-0000002400J0D01*
G03X0000327778Y0000146606I0000000296J-0000000269D01*
G02X0000328400Y0000144995I-0000001779J-0000001612D01*
G02X0000323600Y0000144995I-0000002400J0D01*
G02X0000324222Y0000146606I0000002400J0D01*
G37*
G36*
G01X0000332222Y0000151856D02*
G03X0000332222Y0000152394I-0000000296J0000000269D01*
G02X0000331600Y0000154005I0000001779J0000001612D01*
G02X0000336400Y0000154005I0000002400J0D01*
G02X0000335778Y0000152394I-0000002400J0D01*
G03X0000335778Y0000151856I0000000296J-0000000269D01*
G02X0000336400Y0000150245I-0000001779J-0000001612D01*
G02X0000331600Y0000150245I-0000002400J0D01*
G02X0000332222Y0000151856I0000002400J0D01*
G37*
G36*
G01X0000321696Y0000158856D02*
G03X0000321696Y0000159394I-0000000296J0000000269D01*
G02X0000321075Y0000161005I0000001779J0000001612D01*
G02X0000325875Y0000161005I0000002400J0D01*
G02X0000325254Y0000159394I-0000002400J0D01*
G03X0000325254Y0000158856I0000000296J-0000000269D01*
G02X0000325875Y0000157245I-0000001779J-0000001612D01*
G02X0000321075Y0000157245I-0000002400J0D01*
G02X0000321696Y0000158856I0000002400J0D01*
G37*
G36*
G01X0000376810Y0000135788D02*
G02X0000377951Y0000140300I0000001141J0000002112D01*
G02X0000379415Y0000139802I0J-0000002400D01*
G02X0000381000Y0000140400I0000001585J-0000001802D01*
G02X0000383400Y0000138000I0J-0000002400D01*
G02X0000382402Y0000136052I-0000002400J0D01*
G03X0000382545Y0000135338I0000000234J-0000000325D01*
G02X0000384400Y0000133000I-0000000545J-0000002338D01*
G02X0000383429Y0000131071I-0000002400J0D01*
G03X0000383429Y0000130429I0000000238J-0000000321D01*
G02X0000384400Y0000128500I-0000001429J-0000001929D01*
G02X0000383081Y0000126357I-0000002400J0D01*
G03X0000383081Y0000125643I0000000180J-0000000357D01*
G02X0000383081Y0000121357I-0000001081J-0000002143D01*
G03X0000383081Y0000120643I0000000180J-0000000357D01*
G02X0000384400Y0000118500I-0000001081J-0000002143D01*
G02X0000382000Y0000116100I-0000002400J0D01*
G02X0000380286Y0000116820I0J0000002400D01*
G03X0000379714Y0000116820I-0000000286J-0000000280D01*
G02X0000378000Y0000116100I-0000001714J0000001680D01*
G02X0000375600Y0000118500I0J0000002400D01*
G02X0000376919Y0000120643I0000002400J0D01*
G03X0000376919Y0000121357I-0000000180J0000000357D01*
G02X0000376919Y0000125643I0000001081J0000002143D01*
G03X0000376919Y0000126357I-0000000180J0000000357D01*
G02X0000375600Y0000128500I0000001081J0000002143D01*
G02X0000376571Y0000130429I0000002400J0D01*
G03X0000376571Y0000131071I-0000000238J0000000321D01*
G02X0000375600Y0000133000I0000001429J0000001929D01*
G02X0000376817Y0000135088I0000002400J0D01*
G03X0000376810Y0000135788I-0000000197J0000000348D01*
G37*
%LPD*%
G75*
G54D10*
X0000015748Y0000015748D03*
X0000015748Y0000397638D03*
X0000206299Y0000098819D03*
X0000377989Y0000015748D03*
X0000377989Y0000397638D03*
G54D20*
X0000043000Y0000095510D03*
X0000043000Y0000113227D03*
X0000043000Y0000105353D03*
X0000043000Y0000123070D03*
G54D11*
X0000008500Y0000050000D03*
X0000008500Y0000073000D03*
X0000005500Y0000097500D03*
X0000008000Y0000120000D03*
X0000013500Y0000138500D03*
X0000006500Y0000150500D03*
X0000006500Y0000168000D03*
X0000015100Y0000152200D03*
X0000013100Y0000156500D03*
X0000007000Y0000183000D03*
X0000015500Y0000241000D03*
X0000005000Y0000245500D03*
X0000005000Y0000259000D03*
X0000004000Y0000271500D03*
X0000012000Y0000279500D03*
X0000004000Y0000283000D03*
X0000013500Y0000296500D03*
X0000005500Y0000299500D03*
X0000006000Y0000322500D03*
X0000010000Y0000335500D03*
X0000005000Y0000367500D03*
X0000007500Y0000354500D03*
X0000004500Y0000385000D03*
X0000013500Y0000377000D03*
X0000018500Y0000035000D03*
X0000023000Y0000053000D03*
X0000034000Y0000041000D03*
X0000031500Y0000068000D03*
X0000019000Y0000088500D03*
X0000025000Y0000108500D03*
X0000034000Y0000099500D03*
X0000023000Y0000125500D03*
X0000026500Y0000148000D03*
X0000022500Y0000168500D03*
X0000019500Y0000168500D03*
X0000021300Y0000152000D03*
X0000022435Y0000172565D03*
X0000022500Y0000176500D03*
X0000019500Y0000180000D03*
X0000022500Y0000180000D03*
X0000027000Y0000200500D03*
X0000030000Y0000200500D03*
X0000027000Y0000203500D03*
X0000030000Y0000203500D03*
X0000029000Y0000216500D03*
X0000030000Y0000206500D03*
X0000027000Y0000206500D03*
X0000019000Y0000230000D03*
X0000029000Y0000226000D03*
X0000020500Y0000278000D03*
X0000022000Y0000270500D03*
X0000028500Y0000270900D03*
X0000024500Y0000264000D03*
X0000027500Y0000264000D03*
X0000024000Y0000261500D03*
X0000027500Y0000261500D03*
X0000024500Y0000274000D03*
X0000028500Y0000275000D03*
X0000020500Y0000274000D03*
X0000028500Y0000278000D03*
X0000028600Y0000291300D03*
X0000031800Y0000294300D03*
X0000031900Y0000285200D03*
X0000030500Y0000280000D03*
X0000028500Y0000282000D03*
X0000022925Y0000282000D03*
X0000032000Y0000298838D03*
X0000034000Y0000304500D03*
X0000016000Y0000328500D03*
X0000030000Y0000352500D03*
X0000028500Y0000361500D03*
X0000029500Y0000387000D03*
X0000029000Y0000409000D03*
X0000043000Y0000005500D03*
X0000037500Y0000020500D03*
X0000049500Y0000057500D03*
X0000047500Y0000072000D03*
X0000049500Y0000086500D03*
X0000049500Y0000105000D03*
X0000049500Y0000098500D03*
X0000049500Y0000114500D03*
X0000051500Y0000126000D03*
X0000047000Y0000133500D03*
X0000042000Y0000143000D03*
X0000036260Y0000151000D03*
X0000045500Y0000155000D03*
X0000049660Y0000175240D03*
X0000046300Y0000175170D03*
X0000049630Y0000178500D03*
X0000046300Y0000178400D03*
X0000049530Y0000181750D03*
X0000046240Y0000181720D03*
X0000051055Y0000192945D03*
X0000047500Y0000193000D03*
X0000046200Y0000270500D03*
X0000049000Y0000309500D03*
X0000045000Y0000304500D03*
X0000050500Y0000322500D03*
X0000045000Y0000329000D03*
X0000037500Y0000321000D03*
X0000037500Y0000346500D03*
X0000039500Y0000361500D03*
X0000045500Y0000373000D03*
X0000036500Y0000401000D03*
X0000042500Y0000392000D03*
X0000044000Y0000409000D03*
X0000064000Y0000006000D03*
X0000068500Y0000056500D03*
X0000063000Y0000056500D03*
X0000063500Y0000068500D03*
X0000063000Y0000083000D03*
X0000063500Y0000093500D03*
X0000057500Y0000101000D03*
X0000060500Y0000101000D03*
X0000057500Y0000118500D03*
X0000060500Y0000118500D03*
X0000060500Y0000129000D03*
X0000062858Y0000162058D03*
X0000062858Y0000158558D03*
X0000062858Y0000155058D03*
X0000059358Y0000162058D03*
X0000059358Y0000158558D03*
X0000059358Y0000155058D03*
X0000059500Y0000166500D03*
X0000054500Y0000151500D03*
X0000061000Y0000151500D03*
X0000063000Y0000166500D03*
X0000067500Y0000276000D03*
X0000068500Y0000289000D03*
X0000068500Y0000285500D03*
X0000065000Y0000287000D03*
X0000061400Y0000291400D03*
X0000057800Y0000297400D03*
X0000064500Y0000297000D03*
X0000065675Y0000279458D03*
X0000057875Y0000294319D03*
X0000057875Y0000291419D03*
X0000065675Y0000282358D03*
X0000061425Y0000285464D03*
X0000061425Y0000288364D03*
X0000053725Y0000297375D03*
X0000066614Y0000312886D03*
X0000054000Y0000304500D03*
X0000062000Y0000304500D03*
X0000053725Y0000300275D03*
X0000066500Y0000316114D03*
X0000060500Y0000317000D03*
X0000064000Y0000321500D03*
X0000068500Y0000321500D03*
X0000059500Y0000321500D03*
X0000055500Y0000321500D03*
X0000059500Y0000329500D03*
X0000067114Y0000342886D03*
X0000059500Y0000334500D03*
X0000066400Y0000336600D03*
X0000066500Y0000370000D03*
X0000057500Y0000364500D03*
X0000061500Y0000354500D03*
X0000060000Y0000380000D03*
X0000065000Y0000391000D03*
X0000060000Y0000408000D03*
X0000084000Y0000006000D03*
X0000072000Y0000024000D03*
X0000076500Y0000058000D03*
X0000075000Y0000046000D03*
X0000084000Y0000064500D03*
X0000081500Y0000079500D03*
X0000088500Y0000106500D03*
X0000083900Y0000148100D03*
X0000081200Y0000140200D03*
X0000074500Y0000144000D03*
X0000077500Y0000144000D03*
X0000074500Y0000141000D03*
X0000077500Y0000141000D03*
X0000074500Y0000138000D03*
X0000077500Y0000138000D03*
X0000077500Y0000166000D03*
X0000077000Y0000150700D03*
X0000077114Y0000174680D03*
X0000080307Y0000180693D03*
X0000082000Y0000197000D03*
X0000085000Y0000197000D03*
X0000088000Y0000197000D03*
X0000079000Y0000228500D03*
X0000078500Y0000231500D03*
X0000085000Y0000228500D03*
X0000082000Y0000228500D03*
X0000085500Y0000260000D03*
X0000088500Y0000260000D03*
X0000081500Y0000260000D03*
X0000078000Y0000260000D03*
X0000085500Y0000268500D03*
X0000074000Y0000274500D03*
X0000071063Y0000278063D03*
X0000078000Y0000265000D03*
X0000071000Y0000273000D03*
X0000072008Y0000292500D03*
X0000072000Y0000304000D03*
X0000086000Y0000300500D03*
X0000086500Y0000317870D03*
X0000086543Y0000328500D03*
X0000088800Y0000332043D03*
X0000088800Y0000324957D03*
X0000086543Y0000321413D03*
X0000076500Y0000352500D03*
X0000072500Y0000334500D03*
X0000086543Y0000335587D03*
X0000088386Y0000362886D03*
X0000071000Y0000361500D03*
X0000081500Y0000364500D03*
X0000088000Y0000382500D03*
X0000071500Y0000383000D03*
X0000079000Y0000375500D03*
X0000078500Y0000393000D03*
X0000084500Y0000401500D03*
X0000075500Y0000408000D03*
X0000095500Y0000004000D03*
X0000090000Y0000020500D03*
X0000100500Y0000015000D03*
X0000106500Y0000026000D03*
X0000107500Y0000046000D03*
X0000106000Y0000056500D03*
X0000091000Y0000055500D03*
X0000100500Y0000065000D03*
X0000101000Y0000079500D03*
X0000100500Y0000118741D03*
X0000098500Y0000128500D03*
X0000097500Y0000116500D03*
X0000097500Y0000125500D03*
X0000100500Y0000122509D03*
X0000102300Y0000148200D03*
X0000091000Y0000137000D03*
X0000091000Y0000134000D03*
X0000094000Y0000137000D03*
X0000094000Y0000134000D03*
X0000097000Y0000137000D03*
X0000097000Y0000134000D03*
X0000103000Y0000133000D03*
X0000100000Y0000167500D03*
X0000102000Y0000159000D03*
X0000091000Y0000174000D03*
X0000096500Y0000179000D03*
X0000092500Y0000187000D03*
X0000100000Y0000181500D03*
X0000092000Y0000180000D03*
X0000105500Y0000181500D03*
X0000105500Y0000184500D03*
X0000096000Y0000197000D03*
X0000105500Y0000197000D03*
X0000091000Y0000197000D03*
X0000105500Y0000240000D03*
X0000103000Y0000257500D03*
X0000107500Y0000261000D03*
X0000094847Y0000289500D03*
X0000100500Y0000288000D03*
X0000105000Y0000292886D03*
X0000098000Y0000292886D03*
X0000095270Y0000300730D03*
X0000102357Y0000300500D03*
X0000103000Y0000335500D03*
X0000098814Y0000335500D03*
X0000094000Y0000335500D03*
X0000091614Y0000363000D03*
X0000100000Y0000366500D03*
X0000104000Y0000359500D03*
X0000096500Y0000360000D03*
X0000103500Y0000388000D03*
X0000100000Y0000379500D03*
X0000092500Y0000371500D03*
X0000101000Y0000400000D03*
X0000092500Y0000391500D03*
X0000092500Y0000408000D03*
X0000119938Y0000012000D03*
X0000108500Y0000019500D03*
X0000115886Y0000029500D03*
X0000120500Y0000024000D03*
X0000115500Y0000061500D03*
X0000119114Y0000063500D03*
X0000121500Y0000060000D03*
X0000110508Y0000094992D03*
X0000111500Y0000079500D03*
X0000125000Y0000079500D03*
X0000121500Y0000103000D03*
X0000125500Y0000122500D03*
X0000113000Y0000123000D03*
X0000116500Y0000123000D03*
X0000110508Y0000142492D03*
X0000118700Y0000148000D03*
X0000113700Y0000148000D03*
X0000108284Y0000148000D03*
X0000111500Y0000134500D03*
X0000116500Y0000134500D03*
X0000123700Y0000148098D03*
X0000121000Y0000139000D03*
X0000121500Y0000134500D03*
X0000125000Y0000143500D03*
X0000117761Y0000166156D03*
X0000110761Y0000166156D03*
X0000114261Y0000166156D03*
X0000110761Y0000173156D03*
X0000114261Y0000173156D03*
X0000110761Y0000169656D03*
X0000114261Y0000169656D03*
X0000117761Y0000173156D03*
X0000117761Y0000169656D03*
X0000125500Y0000174577D03*
X0000113500Y0000181000D03*
X0000120500Y0000182500D03*
X0000121000Y0000230000D03*
X0000120500Y0000240500D03*
X0000121000Y0000234000D03*
X0000113200Y0000230590D03*
X0000116200Y0000230590D03*
X0000113200Y0000227590D03*
X0000116200Y0000227590D03*
X0000120500Y0000243500D03*
X0000109500Y0000271000D03*
X0000116500Y0000261000D03*
X0000112987Y0000310500D03*
X0000120074Y0000310500D03*
X0000120500Y0000317870D03*
X0000111500Y0000356500D03*
X0000121500Y0000356500D03*
X0000122500Y0000369000D03*
X0000111500Y0000362500D03*
X0000111500Y0000368500D03*
X0000122000Y0000363000D03*
X0000122500Y0000382500D03*
X0000111500Y0000374000D03*
X0000111500Y0000380500D03*
X0000111500Y0000386500D03*
X0000122000Y0000387500D03*
X0000122500Y0000376000D03*
X0000109500Y0000405500D03*
X0000110723Y0000392777D03*
X0000121000Y0000405500D03*
X0000122337Y0000392663D03*
X0000124500Y0000405500D03*
X0000112500Y0000405500D03*
X0000128599Y0000003599D03*
X0000140000Y0000003500D03*
X0000127114Y0000029500D03*
X0000127736Y0000024236D03*
X0000133642Y0000024236D03*
X0000139547Y0000024236D03*
X0000127000Y0000056500D03*
X0000130500Y0000046000D03*
X0000127000Y0000060000D03*
X0000131886Y0000168386D03*
X0000126500Y0000162000D03*
X0000126500Y0000157000D03*
X0000138000Y0000176500D03*
X0000132000Y0000172000D03*
X0000138000Y0000198000D03*
X0000132500Y0000240008D03*
X0000136000Y0000236500D03*
X0000143000Y0000236500D03*
X0000142000Y0000227500D03*
X0000142037Y0000250500D03*
X0000139000Y0000250500D03*
X0000135500Y0000250500D03*
X0000132400Y0000277614D03*
X0000131114Y0000263886D03*
X0000142400Y0000273000D03*
X0000136800Y0000273000D03*
X0000143400Y0000268600D03*
X0000136500Y0000297000D03*
X0000141000Y0000297000D03*
X0000127469Y0000285969D03*
X0000140000Y0000313000D03*
X0000141000Y0000303500D03*
X0000131500Y0000355500D03*
X0000133000Y0000367000D03*
X0000132000Y0000379500D03*
X0000132500Y0000391000D03*
X0000134500Y0000405500D03*
X0000149500Y0000006500D03*
X0000157500Y0000012500D03*
X0000145453Y0000024236D03*
X0000151358Y0000024236D03*
X0000157264Y0000024236D03*
X0000160000Y0000048000D03*
X0000160500Y0000091500D03*
X0000160500Y0000094500D03*
X0000161000Y0000082500D03*
X0000161000Y0000085500D03*
X0000160500Y0000103500D03*
X0000160500Y0000100000D03*
X0000159000Y0000111500D03*
X0000159000Y0000108500D03*
X0000159500Y0000119500D03*
X0000161000Y0000123000D03*
X0000158509Y0000132250D03*
X0000152500Y0000136000D03*
X0000160500Y0000136000D03*
X0000154741Y0000132250D03*
X0000154500Y0000165500D03*
X0000156500Y0000185000D03*
X0000158500Y0000187750D03*
X0000153500Y0000187500D03*
X0000158500Y0000199000D03*
X0000149000Y0000187500D03*
X0000163000Y0000190500D03*
X0000149500Y0000192000D03*
X0000158500Y0000193000D03*
X0000158500Y0000196000D03*
X0000155500Y0000240000D03*
X0000145500Y0000227500D03*
X0000146000Y0000240008D03*
X0000156800Y0000232400D03*
X0000163000Y0000251500D03*
X0000145500Y0000250500D03*
X0000152500Y0000243386D03*
X0000159500Y0000251500D03*
X0000149800Y0000273000D03*
X0000146100Y0000272900D03*
X0000147886Y0000293386D03*
X0000160114Y0000293500D03*
X0000144741Y0000297759D03*
X0000158528Y0000309472D03*
X0000151000Y0000313000D03*
X0000146000Y0000324000D03*
X0000145000Y0000318000D03*
X0000155000Y0000317500D03*
X0000159500Y0000332000D03*
X0000154832Y0000331832D03*
X0000146000Y0000329500D03*
X0000151500Y0000329500D03*
X0000147000Y0000367500D03*
X0000162000Y0000371000D03*
X0000158500Y0000355000D03*
X0000147000Y0000353000D03*
X0000163000Y0000384500D03*
X0000147000Y0000382000D03*
X0000149500Y0000405000D03*
X0000146500Y0000395000D03*
X0000160000Y0000397000D03*
X0000180000Y0000005500D03*
X0000164500Y0000005500D03*
X0000171000Y0000020500D03*
X0000168500Y0000034000D03*
X0000174500Y0000029500D03*
X0000174500Y0000034000D03*
X0000163169Y0000024236D03*
X0000176000Y0000025000D03*
X0000168500Y0000038500D03*
X0000168500Y0000047500D03*
X0000168500Y0000043000D03*
X0000164000Y0000082500D03*
X0000164000Y0000085500D03*
X0000178500Y0000105000D03*
X0000178500Y0000102000D03*
X0000175500Y0000105000D03*
X0000164000Y0000103500D03*
X0000164000Y0000100000D03*
X0000164500Y0000129500D03*
X0000164500Y0000126600D03*
X0000167700Y0000132500D03*
X0000164600Y0000132400D03*
X0000175500Y0000169500D03*
X0000168500Y0000185000D03*
X0000175969Y0000222031D03*
X0000179000Y0000206000D03*
X0000166000Y0000240000D03*
X0000168400Y0000232300D03*
X0000167900Y0000227300D03*
X0000179000Y0000234500D03*
X0000179000Y0000227500D03*
X0000181087Y0000239086D03*
X0000170500Y0000229500D03*
X0000181000Y0000243898D03*
X0000181000Y0000257000D03*
X0000181020Y0000260433D03*
X0000170886Y0000277614D03*
X0000177000Y0000264000D03*
X0000180500Y0000276900D03*
X0000181000Y0000264000D03*
X0000169000Y0000300500D03*
X0000169000Y0000303500D03*
X0000174000Y0000303500D03*
X0000174000Y0000300500D03*
X0000179000Y0000300500D03*
X0000179000Y0000303500D03*
X0000174000Y0000332000D03*
X0000173500Y0000342500D03*
X0000178000Y0000349500D03*
X0000173000Y0000365000D03*
X0000180500Y0000377500D03*
X0000181000Y0000388500D03*
X0000170000Y0000377500D03*
X0000174000Y0000390000D03*
X0000165000Y0000409000D03*
X0000184500Y0000012000D03*
X0000199500Y0000012000D03*
X0000198000Y0000005000D03*
X0000186500Y0000034000D03*
X0000186500Y0000031000D03*
X0000189500Y0000031000D03*
X0000192500Y0000031000D03*
X0000189500Y0000034000D03*
X0000192500Y0000034000D03*
X0000188500Y0000041000D03*
X0000194000Y0000041000D03*
X0000192500Y0000077500D03*
X0000181500Y0000079000D03*
X0000192500Y0000085000D03*
X0000188000Y0000082000D03*
X0000185000Y0000082000D03*
X0000185000Y0000085000D03*
X0000185000Y0000088000D03*
X0000188000Y0000088000D03*
X0000188000Y0000085000D03*
X0000181500Y0000105000D03*
X0000198000Y0000099500D03*
X0000198000Y0000096800D03*
X0000197000Y0000110500D03*
X0000184000Y0000119500D03*
X0000196400Y0000129300D03*
X0000184000Y0000149409D03*
X0000184000Y0000142323D03*
X0000196500Y0000137598D03*
X0000184000Y0000156496D03*
X0000184000Y0000163583D03*
X0000184000Y0000170669D03*
X0000184000Y0000184843D03*
X0000184000Y0000177756D03*
X0000197000Y0000202000D03*
X0000184000Y0000191929D03*
X0000184000Y0000199016D03*
X0000198000Y0000192500D03*
X0000184000Y0000213189D03*
X0000184000Y0000206102D03*
X0000184000Y0000220276D03*
X0000199500Y0000205500D03*
X0000184000Y0000227362D03*
X0000184000Y0000234449D03*
X0000184000Y0000241535D03*
X0000184000Y0000248622D03*
X0000184000Y0000255709D03*
X0000197000Y0000243500D03*
X0000196000Y0000256000D03*
X0000184000Y0000262795D03*
X0000184000Y0000269882D03*
X0000184000Y0000276969D03*
X0000184000Y0000284055D03*
X0000184000Y0000291142D03*
X0000197500Y0000313583D03*
X0000184000Y0000312402D03*
X0000198000Y0000303500D03*
X0000196563Y0000328937D03*
X0000184000Y0000319488D03*
X0000184000Y0000326575D03*
X0000184000Y0000333661D03*
X0000196500Y0000333500D03*
X0000196714Y0000338386D03*
X0000184000Y0000340748D03*
X0000184000Y0000347835D03*
X0000196000Y0000348000D03*
X0000197500Y0000350197D03*
X0000184000Y0000354921D03*
X0000197500Y0000355500D03*
X0000195000Y0000361500D03*
X0000190500Y0000385500D03*
X0000194500Y0000393500D03*
X0000185500Y0000390500D03*
X0000205500Y0000005000D03*
X0000205000Y0000061500D03*
X0000213000Y0000061500D03*
X0000203000Y0000071000D03*
X0000215500Y0000071000D03*
X0000206000Y0000071000D03*
X0000216000Y0000078500D03*
X0000218000Y0000088500D03*
X0000201000Y0000099500D03*
X0000201000Y0000096800D03*
X0000215400Y0000110200D03*
X0000212000Y0000100500D03*
X0000201050Y0000123960D03*
X0000216500Y0000128500D03*
X0000200000Y0000141500D03*
X0000205000Y0000132500D03*
X0000213500Y0000139500D03*
X0000204000Y0000149500D03*
X0000200000Y0000137500D03*
X0000204500Y0000167000D03*
X0000212500Y0000157500D03*
X0000204500Y0000184000D03*
X0000215500Y0000177500D03*
X0000202000Y0000202500D03*
X0000205000Y0000196500D03*
X0000215500Y0000190000D03*
X0000216000Y0000199000D03*
X0000215000Y0000217500D03*
X0000205500Y0000218500D03*
X0000215500Y0000209000D03*
X0000215000Y0000229500D03*
X0000205000Y0000226500D03*
X0000210500Y0000233500D03*
X0000202000Y0000235500D03*
X0000211000Y0000240500D03*
X0000215500Y0000235500D03*
X0000214000Y0000243500D03*
X0000215500Y0000248500D03*
X0000216000Y0000259500D03*
X0000204000Y0000251500D03*
X0000209000Y0000255500D03*
X0000205000Y0000243500D03*
X0000201000Y0000257000D03*
X0000201000Y0000253500D03*
X0000204000Y0000262000D03*
X0000217000Y0000275500D03*
X0000212000Y0000262500D03*
X0000206500Y0000271500D03*
X0000210000Y0000271500D03*
X0000206500Y0000268000D03*
X0000206500Y0000265000D03*
X0000216000Y0000266339D03*
X0000216000Y0000263000D03*
X0000213000Y0000285000D03*
X0000217000Y0000283000D03*
X0000209500Y0000286000D03*
X0000209500Y0000282500D03*
X0000202000Y0000282500D03*
X0000202000Y0000286000D03*
X0000212780Y0000288780D03*
X0000203000Y0000299000D03*
X0000200500Y0000311500D03*
X0000214500Y0000303000D03*
X0000215500Y0000311500D03*
X0000208500Y0000319500D03*
X0000208500Y0000324100D03*
X0000204000Y0000324213D03*
X0000201000Y0000315945D03*
X0000215500Y0000322000D03*
X0000212000Y0000333000D03*
X0000204500Y0000333500D03*
X0000200500Y0000327500D03*
X0000211500Y0000322000D03*
X0000209500Y0000345600D03*
X0000201000Y0000347500D03*
X0000206000Y0000347500D03*
X0000208900Y0000349000D03*
X0000202500Y0000350000D03*
X0000206636Y0000338136D03*
X0000200900Y0000338300D03*
X0000200000Y0000366500D03*
X0000212000Y0000365500D03*
X0000217500Y0000358500D03*
X0000214000Y0000382000D03*
X0000217000Y0000386000D03*
X0000207000Y0000377500D03*
X0000200500Y0000395500D03*
X0000212000Y0000400500D03*
X0000210000Y0000409500D03*
X0000220000Y0000020000D03*
X0000229500Y0000020000D03*
X0000235000Y0000016000D03*
X0000231000Y0000005500D03*
X0000220000Y0000033500D03*
X0000227500Y0000055031D03*
X0000222000Y0000061500D03*
X0000234114Y0000062500D03*
X0000227000Y0000071000D03*
X0000232500Y0000091500D03*
X0000235500Y0000101000D03*
X0000235500Y0000104000D03*
X0000235500Y0000098000D03*
X0000229500Y0000119500D03*
X0000229500Y0000130000D03*
X0000233500Y0000120500D03*
X0000233500Y0000117500D03*
X0000236500Y0000120500D03*
X0000236500Y0000117500D03*
X0000228598Y0000148228D03*
X0000228598Y0000141142D03*
X0000233500Y0000159000D03*
X0000233500Y0000154500D03*
X0000228598Y0000162402D03*
X0000235000Y0000167000D03*
X0000228598Y0000169488D03*
X0000228598Y0000176575D03*
X0000228598Y0000183661D03*
X0000228598Y0000197835D03*
X0000228598Y0000204921D03*
X0000233500Y0000189000D03*
X0000228598Y0000212008D03*
X0000228598Y0000219095D03*
X0000228598Y0000226181D03*
X0000228598Y0000233268D03*
X0000228598Y0000240354D03*
X0000235500Y0000232000D03*
X0000228598Y0000247441D03*
X0000228598Y0000254528D03*
X0000228598Y0000275787D03*
X0000228598Y0000268701D03*
X0000228598Y0000261614D03*
X0000232500Y0000284500D03*
X0000232500Y0000288500D03*
X0000228598Y0000282874D03*
X0000228598Y0000289961D03*
X0000222500Y0000296000D03*
X0000228598Y0000311221D03*
X0000231500Y0000300000D03*
X0000228598Y0000318307D03*
X0000228598Y0000332480D03*
X0000228598Y0000325394D03*
X0000228598Y0000339567D03*
X0000228598Y0000346654D03*
X0000226000Y0000358500D03*
X0000223000Y0000366000D03*
X0000233500Y0000358500D03*
X0000233000Y0000366500D03*
X0000219500Y0000382000D03*
X0000225500Y0000386000D03*
X0000233500Y0000382500D03*
X0000233000Y0000375000D03*
X0000223000Y0000400500D03*
X0000232000Y0000391000D03*
X0000232000Y0000394500D03*
X0000235500Y0000394500D03*
X0000235500Y0000391000D03*
X0000224500Y0000408500D03*
X0000249000Y0000020500D03*
X0000241500Y0000016000D03*
X0000245000Y0000005000D03*
X0000244500Y0000033500D03*
X0000244500Y0000039000D03*
X0000251000Y0000035500D03*
X0000251000Y0000038500D03*
X0000254000Y0000038500D03*
X0000254000Y0000035500D03*
X0000251000Y0000032500D03*
X0000254000Y0000032500D03*
X0000238500Y0000101000D03*
X0000238500Y0000104000D03*
X0000238500Y0000098000D03*
X0000239500Y0000120500D03*
X0000239500Y0000117500D03*
X0000240000Y0000143500D03*
X0000239500Y0000136000D03*
X0000237500Y0000150500D03*
X0000244500Y0000167500D03*
X0000249000Y0000167500D03*
X0000244500Y0000163500D03*
X0000249000Y0000163500D03*
X0000237500Y0000176000D03*
X0000246000Y0000186500D03*
X0000249000Y0000174500D03*
X0000240500Y0000241000D03*
X0000248500Y0000232500D03*
X0000242000Y0000225500D03*
X0000240500Y0000246000D03*
X0000238500Y0000254500D03*
X0000251500Y0000254500D03*
X0000250000Y0000246000D03*
X0000242500Y0000266000D03*
X0000252500Y0000272500D03*
X0000243500Y0000282000D03*
X0000244000Y0000296000D03*
X0000252500Y0000287500D03*
X0000242000Y0000318500D03*
X0000241000Y0000324000D03*
X0000245400Y0000332300D03*
X0000249700Y0000332500D03*
X0000237000Y0000343900D03*
X0000248100Y0000344000D03*
X0000243600Y0000343900D03*
X0000237000Y0000339600D03*
X0000241000Y0000365500D03*
X0000240000Y0000358500D03*
X0000238500Y0000375000D03*
X0000250500Y0000375500D03*
X0000244500Y0000375000D03*
X0000239500Y0000409000D03*
X0000254000Y0000409000D03*
X0000266500Y0000019000D03*
X0000256500Y0000015000D03*
X0000259500Y0000005000D03*
X0000266500Y0000011000D03*
X0000258000Y0000027500D03*
X0000262900Y0000023500D03*
X0000264000Y0000041500D03*
X0000260000Y0000049000D03*
X0000273000Y0000068500D03*
X0000269000Y0000363000D03*
X0000257500Y0000381000D03*
X0000259000Y0000374000D03*
X0000271000Y0000389000D03*
X0000264000Y0000404000D03*
X0000268500Y0000409000D03*
X0000274000Y0000005000D03*
X0000289500Y0000005000D03*
X0000274000Y0000011500D03*
X0000281500Y0000013000D03*
X0000288000Y0000022500D03*
X0000290650Y0000036350D03*
X0000274000Y0000025000D03*
X0000276500Y0000028500D03*
X0000280500Y0000028500D03*
X0000284500Y0000028500D03*
X0000278500Y0000025000D03*
X0000291000Y0000054500D03*
X0000277114Y0000066386D03*
X0000275000Y0000062500D03*
X0000290500Y0000073000D03*
X0000278900Y0000062800D03*
X0000282000Y0000062400D03*
X0000285500Y0000063500D03*
X0000290500Y0000085000D03*
X0000283000Y0000077000D03*
X0000287000Y0000256890D03*
X0000287000Y0000262000D03*
X0000285500Y0000270500D03*
X0000274500Y0000346000D03*
X0000284500Y0000334500D03*
X0000286500Y0000357000D03*
X0000276000Y0000404500D03*
X0000287500Y0000407114D03*
X0000303000Y0000005000D03*
X0000305500Y0000013000D03*
X0000293886Y0000022714D03*
X0000305114Y0000022500D03*
X0000298500Y0000055500D03*
X0000296200Y0000057600D03*
X0000297000Y0000052000D03*
X0000297950Y0000062950D03*
X0000301500Y0000063000D03*
X0000303000Y0000074886D03*
X0000293000Y0000060000D03*
X0000292886Y0000078114D03*
X0000292500Y0000112500D03*
X0000309000Y0000096500D03*
X0000292500Y0000123000D03*
X0000303500Y0000118500D03*
X0000310030Y0000142005D03*
X0000310030Y0000138245D03*
X0000298000Y0000150000D03*
X0000292500Y0000150000D03*
X0000307000Y0000140000D03*
X0000306500Y0000144500D03*
X0000305000Y0000149000D03*
X0000292500Y0000145500D03*
X0000292500Y0000136500D03*
X0000307000Y0000136000D03*
X0000298000Y0000153500D03*
X0000295500Y0000168000D03*
X0000295500Y0000163500D03*
X0000299000Y0000168000D03*
X0000299000Y0000163500D03*
X0000305000Y0000154000D03*
X0000306000Y0000163500D03*
X0000297000Y0000215500D03*
X0000297000Y0000226000D03*
X0000297000Y0000239000D03*
X0000298000Y0000250000D03*
X0000294500Y0000249803D03*
X0000298500Y0000259500D03*
X0000296000Y0000275500D03*
X0000292000Y0000288500D03*
X0000301500Y0000307000D03*
X0000300500Y0000320000D03*
X0000304000Y0000335000D03*
X0000300500Y0000370000D03*
X0000304500Y0000385000D03*
X0000300500Y0000408000D03*
X0000306500Y0000410000D03*
X0000310500Y0000012000D03*
X0000321500Y0000012000D03*
X0000318500Y0000005000D03*
X0000315500Y0000013000D03*
X0000316000Y0000033000D03*
X0000320000Y0000033000D03*
X0000324000Y0000033000D03*
X0000317000Y0000025000D03*
X0000321000Y0000025000D03*
X0000317900Y0000036000D03*
X0000326000Y0000108500D03*
X0000321000Y0000097500D03*
X0000325883Y0000131628D03*
X0000325500Y0000124000D03*
X0000311000Y0000123000D03*
X0000326000Y0000144995D03*
X0000326000Y0000148755D03*
X0000321000Y0000144500D03*
X0000314000Y0000135500D03*
X0000325883Y0000135388D03*
X0000323475Y0000161005D03*
X0000323475Y0000157245D03*
X0000320500Y0000154000D03*
X0000323000Y0000216500D03*
X0000324000Y0000239500D03*
X0000324000Y0000228500D03*
X0000323500Y0000260000D03*
X0000324000Y0000249000D03*
X0000326500Y0000269000D03*
X0000310500Y0000291500D03*
X0000324500Y0000304000D03*
X0000318000Y0000321000D03*
X0000328000Y0000347000D03*
X0000323500Y0000369500D03*
X0000313000Y0000385000D03*
X0000323500Y0000385000D03*
X0000313000Y0000404500D03*
X0000325600Y0000408200D03*
X0000329500Y0000015000D03*
X0000341000Y0000016000D03*
X0000346500Y0000006500D03*
X0000335500Y0000005500D03*
X0000340300Y0000036500D03*
X0000330300Y0000033700D03*
X0000336000Y0000023500D03*
X0000344000Y0000031500D03*
X0000342500Y0000043000D03*
X0000345500Y0000103500D03*
X0000336500Y0000108000D03*
X0000342500Y0000108500D03*
X0000335000Y0000097500D03*
X0000332000Y0000118000D03*
X0000331500Y0000123500D03*
X0000334000Y0000154005D03*
X0000329500Y0000152000D03*
X0000342000Y0000152000D03*
X0000334000Y0000150245D03*
X0000331000Y0000214500D03*
X0000331000Y0000208500D03*
X0000346000Y0000218500D03*
X0000331000Y0000221000D03*
X0000331000Y0000232000D03*
X0000331000Y0000227000D03*
X0000346000Y0000223973D03*
X0000346000Y0000238973D03*
X0000346000Y0000228000D03*
X0000331000Y0000239000D03*
X0000331000Y0000245000D03*
X0000331000Y0000250500D03*
X0000336500Y0000278500D03*
X0000335500Y0000261500D03*
X0000347000Y0000288500D03*
X0000343000Y0000303000D03*
X0000343000Y0000315500D03*
X0000342500Y0000328000D03*
X0000345000Y0000344500D03*
X0000343000Y0000384000D03*
X0000340000Y0000403500D03*
X0000335000Y0000390000D03*
X0000333800Y0000408300D03*
X0000344500Y0000409000D03*
X0000329800Y0000408300D03*
X0000338200Y0000408300D03*
X0000358000Y0000013500D03*
X0000359500Y0000004500D03*
X0000351500Y0000039000D03*
X0000360500Y0000026500D03*
X0000351500Y0000025000D03*
X0000359500Y0000047000D03*
X0000353000Y0000052000D03*
X0000360500Y0000056000D03*
X0000353000Y0000057500D03*
X0000352000Y0000063500D03*
X0000355900Y0000111900D03*
X0000351500Y0000096500D03*
X0000363500Y0000127300D03*
X0000353500Y0000116500D03*
X0000365000Y0000152500D03*
X0000354000Y0000183500D03*
X0000356000Y0000197000D03*
X0000356000Y0000194000D03*
X0000356000Y0000191000D03*
X0000359000Y0000191000D03*
X0000359000Y0000194000D03*
X0000359000Y0000197000D03*
X0000348000Y0000202000D03*
X0000348000Y0000208500D03*
X0000349500Y0000252500D03*
X0000348000Y0000246500D03*
X0000349500Y0000257500D03*
X0000348500Y0000269000D03*
X0000362500Y0000279500D03*
X0000353500Y0000315000D03*
X0000360500Y0000301500D03*
X0000353500Y0000324500D03*
X0000354500Y0000339500D03*
X0000349500Y0000350000D03*
X0000355000Y0000356000D03*
X0000350000Y0000358000D03*
X0000356500Y0000363000D03*
X0000349500Y0000377500D03*
X0000356500Y0000372000D03*
X0000354000Y0000399500D03*
X0000361000Y0000389500D03*
X0000360000Y0000409000D03*
X0000380000Y0000034500D03*
X0000367500Y0000054500D03*
X0000374000Y0000049000D03*
X0000375000Y0000062500D03*
X0000375000Y0000069000D03*
X0000366000Y0000073500D03*
X0000366000Y0000096500D03*
X0000380000Y0000096500D03*
X0000378500Y0000103000D03*
X0000381500Y0000103000D03*
X0000382000Y0000123500D03*
X0000378000Y0000128500D03*
X0000378000Y0000123500D03*
X0000382000Y0000128500D03*
X0000378000Y0000118500D03*
X0000378000Y0000113500D03*
X0000382000Y0000113500D03*
X0000369200Y0000113500D03*
X0000366000Y0000113500D03*
X0000370500Y0000117000D03*
X0000371000Y0000127300D03*
X0000367000Y0000127300D03*
X0000382000Y0000118500D03*
X0000371500Y0000146000D03*
X0000381000Y0000138000D03*
X0000382000Y0000133000D03*
X0000377951Y0000137900D03*
X0000371150Y0000132850D03*
X0000371000Y0000138300D03*
X0000380500Y0000149500D03*
X0000368500Y0000147500D03*
X0000378000Y0000133000D03*
X0000365500Y0000163000D03*
X0000373500Y0000156500D03*
X0000367000Y0000177000D03*
X0000380000Y0000169500D03*
X0000366000Y0000197000D03*
X0000378000Y0000201000D03*
X0000373000Y0000187500D03*
X0000374000Y0000204500D03*
X0000373600Y0000213800D03*
X0000380000Y0000214000D03*
X0000371800Y0000232300D03*
X0000377500Y0000224000D03*
X0000377500Y0000237000D03*
X0000368000Y0000245000D03*
X0000382500Y0000253500D03*
X0000379000Y0000268500D03*
X0000367500Y0000264000D03*
X0000372500Y0000290500D03*
X0000371000Y0000315500D03*
X0000379000Y0000305000D03*
X0000373000Y0000332500D03*
X0000380000Y0000324500D03*
X0000372000Y0000348500D03*
X0000379500Y0000341000D03*
X0000372000Y0000359000D03*
X0000382500Y0000359500D03*
X0000372500Y0000380500D03*
X0000383000Y0000375000D03*
X0000389500Y0000029500D03*
X0000389500Y0000041000D03*
X0000390500Y0000052000D03*
X0000390500Y0000072500D03*
X0000390500Y0000062000D03*
X0000390500Y0000084500D03*
X0000385500Y0000100000D03*
X0000389800Y0000105530D03*
X0000389500Y0000096500D03*
X0000389974Y0000117734D03*
X0000389974Y0000122459D03*
X0000389974Y0000129545D03*
X0000388874Y0000143718D03*
X0000389000Y0000141000D03*
X0000389974Y0000136632D03*
X0000388900Y0000147200D03*
X0000386000Y0000150000D03*
X0000386000Y0000157000D03*
X0000384000Y0000181000D03*
X0000388000Y0000195500D03*
X0000385000Y0000204500D03*
X0000386200Y0000213900D03*
X0000386100Y0000234500D03*
X0000387000Y0000240500D03*
X0000387000Y0000281500D03*
X0000388000Y0000314000D03*
X0000387500Y0000297500D03*
X0000387500Y0000331500D03*
X0000387000Y0000348000D03*
X0000388000Y0000367500D03*
X0000389000Y0000383500D03*
G54D12*
X0000006886Y0000192618D03*
X0000006886Y0000220768D03*
X0000020469Y0000192618D03*
X0000020469Y0000220768D03*
G54D21*
X0000206299Y0000361811D03*
X0000312598Y0000109055D03*
X0000312598Y0000351575D03*
G54D22*
G01X0000038747Y0000035058D02*
X0000041878Y0000038189D01*
G01X0000041878Y0000038189D02*
X0000045009Y0000041320D01*
G01X0000038747Y0000041320D02*
X0000041878Y0000038189D01*
G01X0000041878Y0000038189D02*
X0000045009Y0000035058D01*
G54D13*
X0000015252Y0000198819D03*
X0000015252Y0000214567D03*
G54D23*
G01X0Y0D02*
X0000393737Y0D01*
X0000393737Y0000413386D01*
X0Y0000413386D01*
X0Y0D01*
G54D14*
X0000012402Y0000254547D03*
X0000012402Y0000311633D03*
G54D15*
X0000015084Y0000347592D03*
X0000015084Y0000365308D03*
X0000041878Y0000038189D03*
X0000053689Y0000038189D03*
X0000041878Y0000050000D03*
X0000053689Y0000050000D03*
X0000065500Y0000038189D03*
X0000065500Y0000050000D03*
X0000182000Y0000404000D03*
X0000172000Y0000404000D03*
X0000192000Y0000404000D03*
X0000212500Y0000010500D03*
X0000202000Y0000404000D03*
X0000222500Y0000010500D03*
X0000383221Y0000046752D03*
X0000383221Y0000056752D03*
X0000383221Y0000066752D03*
X0000383221Y0000076752D03*
G54D16*
X0000032331Y0000083424D03*
X0000032331Y0000135156D03*
G54D17*
X0000035866Y0000254547D03*
X0000035866Y0000311633D03*
G54D18*
X0000024926Y0000342670D03*
X0000024926Y0000370230D03*
G54D19*
X0000053689Y0000021181D03*
M02*
