M48
INCH
T01C.00001
;EXTENTS: -21.577 -20.601 23.793  23.675  
;LEADER: 12 
;HEADER: 
;CODE  : ASCII 
;FILE  : C:/Users/rock/Documents/Work/ZHG/RPI-CMIO/RPI-CMIO_1-4.rou for board C:/Users/rock/Documents/Work/ZHG/RPI-CMIO/#Taaaalm00396.tmp, layers TOP to BOTTOM
%
G90
F1
M16
T01
M16
G00X0000010827Y0000313404
G41
M15
G03X0000010827Y0000309862A0000001771
G01X0000013977Y0000309862
G03X0000013977Y0000313404A0000001771
G01X0000010827Y0000313404
M16
G00X0000010827Y0000256319
G41
M15
G03X0000010827Y0000252776A0000001771
G01X0000013977Y0000252776
G03X0000013977Y0000256319A0000001771
G01X0000010827Y0000256319
M16
G00X0000032322Y0000313404
G41
M15
G03X0000032322Y0000309862A0000001771
G01X0000039409Y0000309862
G03X0000039409Y0000313404A0000001771
G01X0000032322Y0000313404
M16
G00X0000032322Y0000256319
G41
M15
G03X0000032322Y0000252776A0000001771
G01X0000039409Y0000252776
G03X0000039409Y0000256319A0000001771
G01X0000032322Y0000256319
M16
G00X0000018895Y0000193504
G41
M15
G03X0000018895Y0000191732A0000000886
G01X0000022043Y0000191732
G03X0000022043Y0000193504A0000000886
G01X0000018895Y0000193504
M16
G00X0000018895Y0000221654
G41
M15
G03X0000018895Y0000219882A0000000886
G01X0000022043Y0000219882
G03X0000022043Y0000221654A0000000886
G01X0000018895Y0000221654
M16
G00X0000005311Y0000193504
G41
M15
G03X0000005311Y0000191732A0000000886
G01X0000008460Y0000191732
G03X0000008460Y0000193504A0000000886
G01X0000005311Y0000193504
M16
G00X0000005311Y0000221654
G41
M15
G03X0000005311Y0000219882A0000000886
G01X0000008460Y0000219882
G03X0000008460Y0000221654A0000000886
G01X0000005311Y0000221654
M16
G40
M30
