M48
INCH
T01C.01
T02C.03937
T03C.040161
T04C.059059
T05C.090551
T06C.025591
T07C.043311
T08C.062988
T09C.094488
T10C.11811
T11C.133858
;LEADER: 12 
;HEADER: 
;CODE  : ASCII 
;FILE  : RPI-CMIO-1-4.drl for board C:/Users/rock/Documents/Work/ZHG/RPI-CMIO/#Taaaali00396.tmp ... layers TOP and BOTTOM
;T01 Holesize 1. = 10.000000 Tolerance = +0.000000/-0.000000 PLATED MILS Quantity = 1082
;T02 Holesize 2. = 39.370000 Tolerance = +0.000000/-0.000000 PLATED MILS Quantity = 4
;T03 Holesize 3. = 40.161000 Tolerance = +0.000000/-0.000000 PLATED MILS Quantity = 18
;T04 Holesize 4. = 59.059000 Tolerance = +0.000000/-0.000000 PLATED MILS Quantity = 2
;T05 Holesize 5. = 90.551000 Tolerance = +0.000000/-0.000000 PLATED MILS Quantity = 2
;T06 Holesize 6. = 25.591000 Tolerance = +0.000000/-0.000000 NON_PLATED MILS Quantity = 2
;T07 Holesize 7. = 43.311000 Tolerance = +0.000000/-0.000000 NON_PLATED MILS Quantity = 1
;T08 Holesize 8. = 62.988000 Tolerance = +0.000000/-0.000000 NON_PLATED MILS Quantity = 1
;T09 Holesize 9. = 94.488000 Tolerance = +0.000000/-0.000000 NON_PLATED MILS Quantity = 2
;T10 Holesize 10. = 118.110000 Tolerance = +0.000000/-0.000000 NON_PLATED MILS Quantity = 1
;T11 Holesize 11. = 133.858000 Tolerance = +0.000000/-0.000000 NON_PLATED MILS Quantity = 4
%
G90
T01
X0000018500Y0000035000
X0000008500Y0000050000
X0000008500Y0000073000
X0000019000Y0000088500
X0000005500Y0000097500
X0000008000Y0000120000
X0000013500Y0000138500
X0000006500Y0000150500
X0000015100Y0000152200
X0000013100Y0000156500
X0000006500Y0000168000
X0000019500Y0000168500
X0000019500Y0000180000
X0000007000Y0000183000
X0000019000Y0000230000
X0000015500Y0000241000
X0000005000Y0000245500
X0000005000Y0000259000
X0000004000Y0000271500
X0000012000Y0000279500
X0000004000Y0000283000
X0000013500Y0000296500
X0000005500Y0000299500
X0000006000Y0000322500
X0000016000Y0000328500
X0000010000Y0000335500
X0000007500Y0000354500
X0000005000Y0000367500
X0000013500Y0000377000
X0000004500Y0000385000
X0000029000Y0000409000
X0000036500Y0000401000
X0000029500Y0000387000
X0000039500Y0000361500
X0000028500Y0000361500
X0000030000Y0000352500
X0000037500Y0000346500
X0000037500Y0000321000
X0000034000Y0000304500
X0000032000Y0000298838
X0000031800Y0000294300
X0000028600Y0000291300
X0000031900Y0000285200
X0000028500Y0000282000
X0000022925Y0000282000
X0000030500Y0000280000
X0000028500Y0000278000
X0000020500Y0000278000
X0000028500Y0000275000
X0000024500Y0000274000
X0000020500Y0000274000
X0000028500Y0000270900
X0000022000Y0000270500
X0000027500Y0000264000
X0000024500Y0000264000
X0000027500Y0000261500
X0000024000Y0000261500
X0000029000Y0000226000
X0000029000Y0000216500
X0000030000Y0000206500
X0000027000Y0000206500
X0000030000Y0000203500
X0000027000Y0000203500
X0000030000Y0000200500
X0000027000Y0000200500
X0000022500Y0000180000
X0000022500Y0000176500
X0000022435Y0000172565
X0000022500Y0000168500
X0000021300Y0000152000
X0000036260Y0000151000
X0000026500Y0000148000
X0000023000Y0000125500
X0000025000Y0000108500
X0000034000Y0000099500
X0000031500Y0000068000
X0000023000Y0000053000
X0000034000Y0000041000
X0000037500Y0000020500
X0000043000Y0000005500
X0000049500Y0000057500
X0000047500Y0000072000
X0000049500Y0000086500
X0000049500Y0000098500
X0000057500Y0000101000
X0000049500Y0000105000
X0000049500Y0000114500
X0000057500Y0000118500
X0000051500Y0000126000
X0000047000Y0000133500
X0000042000Y0000143000
X0000054500Y0000151500
X0000045500Y0000155000
X0000059358Y0000155058
X0000059358Y0000158558
X0000059358Y0000162058
X0000059500Y0000166500
X0000046300Y0000175170
X0000049660Y0000175240
X0000046300Y0000178400
X0000049630Y0000178500
X0000046240Y0000181720
X0000049530Y0000181750
X0000051055Y0000192945
X0000047500Y0000193000
X0000046200Y0000270500
X0000057875Y0000291419
X0000057875Y0000294319
X0000053725Y0000297375
X0000057800Y0000297400
X0000053725Y0000300275
X0000045000Y0000304500
X0000054000Y0000304500
X0000049000Y0000309500
X0000055500Y0000321500
X0000059500Y0000321500
X0000050500Y0000322500
X0000045000Y0000329000
X0000059500Y0000329500
X0000059500Y0000334500
X0000057500Y0000364500
X0000045500Y0000373000
X0000042500Y0000392000
X0000044000Y0000409000
X0000075500Y0000408000
X0000060000Y0000408000
X0000078500Y0000393000
X0000065000Y0000391000
X0000071500Y0000383000
X0000060000Y0000380000
X0000079000Y0000375500
X0000066500Y0000370000
X0000071000Y0000361500
X0000061500Y0000354500
X0000076500Y0000352500
X0000067114Y0000342886
X0000066400Y0000336600
X0000072500Y0000334500
X0000068500Y0000321500
X0000064000Y0000321500
X0000060500Y0000317000
X0000066500Y0000316114
X0000066614Y0000312886
X0000062000Y0000304500
X0000072000Y0000304000
X0000064500Y0000297000
X0000072008Y0000292500
X0000061400Y0000291400
X0000068500Y0000289000
X0000061425Y0000288364
X0000065000Y0000287000
X0000068500Y0000285500
X0000061425Y0000285464
X0000065675Y0000282358
X0000065675Y0000279458
X0000071063Y0000278063
X0000067500Y0000276000
X0000074000Y0000274500
X0000071000Y0000273000
X0000078000Y0000265000
X0000078000Y0000260000
X0000078500Y0000231500
X0000079000Y0000228500
X0000077114Y0000174680
X0000063000Y0000166500
X0000077500Y0000166000
X0000062858Y0000162058
X0000062858Y0000158558
X0000062858Y0000155058
X0000061000Y0000151500
X0000077000Y0000150700
X0000077500Y0000144000
X0000074500Y0000144000
X0000077500Y0000141000
X0000074500Y0000141000
X0000077500Y0000138000
X0000074500Y0000138000
X0000060500Y0000129000
X0000060500Y0000118500
X0000060500Y0000101000
X0000063500Y0000093500
X0000063000Y0000083000
X0000063500Y0000068500
X0000076500Y0000058000
X0000068500Y0000056500
X0000063000Y0000056500
X0000075000Y0000046000
X0000072000Y0000024000
X0000064000Y0000006000
X0000095500Y0000004000
X0000084000Y0000006000
X0000090000Y0000020500
X0000091000Y0000055500
X0000084000Y0000064500
X0000081500Y0000079500
X0000088500Y0000106500
X0000097500Y0000116500
X0000097500Y0000125500
X0000098500Y0000128500
X0000091000Y0000134000
X0000094000Y0000134000
X0000097000Y0000134000
X0000091000Y0000137000
X0000094000Y0000137000
X0000097000Y0000137000
X0000081200Y0000140200
X0000083900Y0000148100
X0000091000Y0000174000
X0000096500Y0000179000
X0000092000Y0000180000
X0000080307Y0000180693
X0000092500Y0000187000
X0000082000Y0000197000
X0000085000Y0000197000
X0000088000Y0000197000
X0000091000Y0000197000
X0000096000Y0000197000
X0000082000Y0000228500
X0000085000Y0000228500
X0000081500Y0000260000
X0000085500Y0000260000
X0000088500Y0000260000
X0000085500Y0000268500
X0000094847Y0000289500
X0000098000Y0000292886
X0000086000Y0000300500
X0000095270Y0000300730
X0000086500Y0000317870
X0000086543Y0000321413
X0000088800Y0000324957
X0000086543Y0000328500
X0000088800Y0000332043
X0000094000Y0000335500
X0000098814Y0000335500
X0000086543Y0000335587
X0000096500Y0000360000
X0000088386Y0000362886
X0000091614Y0000363000
X0000081500Y0000364500
X0000092500Y0000371500
X0000088000Y0000382500
X0000092500Y0000391500
X0000084500Y0000401500
X0000092500Y0000408000
X0000112500Y0000405500
X0000109500Y0000405500
X0000101000Y0000400000
X0000110723Y0000392777
X0000103500Y0000388000
X0000111500Y0000386500
X0000111500Y0000380500
X0000100000Y0000379500
X0000111500Y0000374000
X0000111500Y0000368500
X0000100000Y0000366500
X0000111500Y0000362500
X0000104000Y0000359500
X0000111500Y0000356500
X0000103000Y0000335500
X0000112987Y0000310500
X0000102357Y0000300500
X0000105000Y0000292886
X0000100500Y0000288000
X0000109500Y0000271000
X0000116500Y0000261000
X0000107500Y0000261000
X0000103000Y0000257500
X0000105500Y0000240000
X0000116200Y0000230590
X0000113200Y0000230590
X0000116200Y0000227590
X0000113200Y0000227590
X0000105500Y0000197000
X0000105500Y0000184500
X0000105500Y0000181500
X0000100000Y0000181500
X0000113500Y0000181000
X0000117761Y0000173156
X0000114261Y0000173156
X0000110761Y0000173156
X0000117761Y0000169656
X0000114261Y0000169656
X0000110761Y0000169656
X0000100000Y0000167500
X0000117761Y0000166156
X0000114261Y0000166156
X0000110761Y0000166156
X0000102000Y0000159000
X0000102300Y0000148200
X0000118700Y0000148000
X0000113700Y0000148000
X0000108284Y0000148000
X0000110508Y0000142492
X0000116500Y0000134500
X0000111500Y0000134500
X0000103000Y0000133000
X0000116500Y0000123000
X0000113000Y0000123000
X0000100500Y0000122509
X0000100500Y0000118741
X0000110508Y0000094992
X0000111500Y0000079500
X0000101000Y0000079500
X0000100500Y0000065000
X0000119114Y0000063500
X0000115500Y0000061500
X0000106000Y0000056500
X0000107500Y0000046000
X0000115886Y0000029500
X0000106500Y0000026000
X0000108500Y0000019500
X0000100500Y0000015000
X0000119938Y0000012000
X0000128599Y0000003599
X0000120500Y0000024000
X0000127736Y0000024236
X0000133642Y0000024236
X0000139547Y0000024236
X0000127114Y0000029500
X0000130500Y0000046000
X0000127000Y0000056500
X0000121500Y0000060000
X0000127000Y0000060000
X0000125000Y0000079500
X0000121500Y0000103000
X0000125500Y0000122500
X0000121500Y0000134500
X0000121000Y0000139000
X0000125000Y0000143500
X0000123700Y0000148098
X0000126500Y0000157000
X0000126500Y0000162000
X0000131886Y0000168386
X0000132000Y0000172000
X0000125500Y0000174577
X0000138000Y0000176500
X0000120500Y0000182500
X0000138000Y0000198000
X0000121000Y0000230000
X0000121000Y0000234000
X0000136000Y0000236500
X0000132500Y0000240008
X0000120500Y0000240500
X0000120500Y0000243500
X0000135500Y0000250500
X0000139000Y0000250500
X0000131114Y0000263886
X0000136800Y0000273000
X0000132400Y0000277614
X0000127469Y0000285969
X0000136500Y0000297000
X0000120074Y0000310500
X0000120500Y0000317870
X0000131500Y0000355500
X0000121500Y0000356500
X0000122000Y0000363000
X0000133000Y0000367000
X0000122500Y0000369000
X0000122500Y0000376000
X0000132000Y0000379500
X0000122500Y0000382500
X0000122000Y0000387500
X0000132500Y0000391000
X0000122337Y0000392663
X0000121000Y0000405500
X0000124500Y0000405500
X0000134500Y0000405500
X0000149500Y0000405000
X0000146500Y0000395000
X0000147000Y0000382000
X0000147000Y0000367500
X0000158500Y0000355000
X0000147000Y0000353000
X0000159500Y0000332000
X0000154832Y0000331832
X0000151500Y0000329500
X0000146000Y0000329500
X0000146000Y0000324000
X0000145000Y0000318000
X0000155000Y0000317500
X0000151000Y0000313000
X0000140000Y0000313000
X0000158528Y0000309472
X0000141000Y0000303500
X0000144741Y0000297759
X0000141000Y0000297000
X0000147886Y0000293386
X0000149800Y0000273000
X0000142400Y0000273000
X0000146100Y0000272900
X0000143400Y0000268600
X0000159500Y0000251500
X0000145500Y0000250500
X0000142037Y0000250500
X0000152500Y0000243386
X0000155500Y0000240000
X0000146000Y0000240008
X0000143000Y0000236500
X0000156800Y0000232400
X0000145500Y0000227500
X0000142000Y0000227500
X0000158500Y0000199000
X0000158500Y0000196000
X0000158500Y0000193000
X0000149500Y0000192000
X0000158500Y0000187750
X0000153500Y0000187500
X0000149000Y0000187500
X0000156500Y0000185000
X0000154500Y0000165500
X0000152500Y0000136000
X0000158509Y0000132250
X0000154741Y0000132250
X0000159500Y0000119500
X0000159000Y0000111500
X0000159000Y0000108500
X0000157264Y0000024236
X0000151358Y0000024236
X0000145453Y0000024236
X0000157500Y0000012500
X0000149500Y0000006500
X0000140000Y0000003500
X0000164500Y0000005500
X0000171000Y0000020500
X0000163169Y0000024236
X0000176000Y0000025000
X0000174500Y0000029500
X0000168500Y0000034000
X0000174500Y0000034000
X0000168500Y0000038500
X0000168500Y0000043000
X0000168500Y0000047500
X0000160000Y0000048000
X0000161000Y0000082500
X0000164000Y0000082500
X0000161000Y0000085500
X0000164000Y0000085500
X0000160500Y0000091500
X0000160500Y0000094500
X0000160500Y0000100000
X0000164000Y0000100000
X0000178500Y0000102000
X0000160500Y0000103500
X0000164000Y0000103500
X0000175500Y0000105000
X0000178500Y0000105000
X0000161000Y0000123000
X0000164500Y0000126600
X0000164500Y0000129500
X0000164600Y0000132400
X0000167700Y0000132500
X0000160500Y0000136000
X0000175500Y0000169500
X0000168500Y0000185000
X0000163000Y0000190500
X0000179000Y0000206000
X0000175969Y0000222031
X0000167900Y0000227300
X0000179000Y0000227500
X0000170500Y0000229500
X0000168400Y0000232300
X0000179000Y0000234500
X0000166000Y0000240000
X0000163000Y0000251500
X0000177000Y0000264000
X0000170886Y0000277614
X0000160114Y0000293500
X0000169000Y0000300500
X0000174000Y0000300500
X0000179000Y0000300500
X0000169000Y0000303500
X0000174000Y0000303500
X0000179000Y0000303500
X0000174000Y0000332000
X0000173500Y0000342500
X0000178000Y0000349500
X0000173000Y0000365000
X0000162000Y0000371000
X0000170000Y0000377500
X0000163000Y0000384500
X0000174000Y0000390000
X0000160000Y0000397000
X0000165000Y0000409000
X0000194500Y0000393500
X0000185500Y0000390500
X0000181000Y0000388500
X0000190500Y0000385500
X0000180500Y0000377500
X0000195000Y0000361500
X0000197500Y0000355500
X0000184000Y0000354921
X0000197500Y0000350197
X0000196000Y0000348000
X0000184000Y0000347835
X0000184000Y0000340748
X0000196714Y0000338386
X0000184000Y0000333661
X0000196500Y0000333500
X0000196563Y0000328937
X0000184000Y0000326575
X0000184000Y0000319488
X0000197500Y0000313583
X0000184000Y0000312402
X0000198000Y0000303500
X0000184000Y0000291142
X0000184000Y0000284055
X0000184000Y0000276969
X0000180500Y0000276900
X0000184000Y0000269882
X0000181000Y0000264000
X0000184000Y0000262795
X0000181020Y0000260433
X0000181000Y0000257000
X0000196000Y0000256000
X0000184000Y0000255709
X0000184000Y0000248622
X0000181000Y0000243898
X0000197000Y0000243500
X0000184000Y0000241535
X0000181087Y0000239086
X0000184000Y0000234449
X0000184000Y0000227362
X0000184000Y0000220276
X0000184000Y0000213189
X0000184000Y0000206102
X0000199500Y0000205500
X0000197000Y0000202000
X0000184000Y0000199016
X0000198000Y0000192500
X0000184000Y0000191929
X0000184000Y0000184843
X0000184000Y0000177756
X0000184000Y0000170669
X0000184000Y0000163583
X0000184000Y0000156496
X0000184000Y0000149409
X0000184000Y0000142323
X0000196500Y0000137598
X0000196400Y0000129300
X0000184000Y0000119500
X0000197000Y0000110500
X0000181500Y0000105000
X0000198000Y0000099500
X0000198000Y0000096800
X0000188000Y0000088000
X0000185000Y0000088000
X0000192500Y0000085000
X0000188000Y0000085000
X0000185000Y0000085000
X0000188000Y0000082000
X0000185000Y0000082000
X0000181500Y0000079000
X0000192500Y0000077500
X0000194000Y0000041000
X0000188500Y0000041000
X0000192500Y0000034000
X0000189500Y0000034000
X0000186500Y0000034000
X0000192500Y0000031000
X0000189500Y0000031000
X0000186500Y0000031000
X0000199500Y0000012000
X0000184500Y0000012000
X0000180000Y0000005500
X0000198000Y0000005000
X0000205500Y0000005000
X0000205000Y0000061500
X0000213000Y0000061500
X0000203000Y0000071000
X0000206000Y0000071000
X0000215500Y0000071000
X0000216000Y0000078500
X0000218000Y0000088500
X0000201000Y0000096800
X0000201000Y0000099500
X0000212000Y0000100500
X0000215400Y0000110200
X0000201050Y0000123960
X0000216500Y0000128500
X0000205000Y0000132500
X0000200000Y0000137500
X0000213500Y0000139500
X0000200000Y0000141500
X0000204000Y0000149500
X0000212500Y0000157500
X0000204500Y0000167000
X0000215500Y0000177500
X0000204500Y0000184000
X0000215500Y0000190000
X0000205000Y0000196500
X0000216000Y0000199000
X0000202000Y0000202500
X0000215500Y0000209000
X0000215000Y0000217500
X0000205500Y0000218500
X0000205000Y0000226500
X0000215000Y0000229500
X0000210500Y0000233500
X0000202000Y0000235500
X0000215500Y0000235500
X0000211000Y0000240500
X0000205000Y0000243500
X0000214000Y0000243500
X0000215500Y0000248500
X0000204000Y0000251500
X0000201000Y0000253500
X0000209000Y0000255500
X0000201000Y0000257000
X0000216000Y0000259500
X0000204000Y0000262000
X0000212000Y0000262500
X0000216000Y0000263000
X0000206500Y0000265000
X0000216000Y0000266339
X0000206500Y0000268000
X0000206500Y0000271500
X0000210000Y0000271500
X0000217000Y0000275500
X0000202000Y0000282500
X0000209500Y0000282500
X0000217000Y0000283000
X0000213000Y0000285000
X0000202000Y0000286000
X0000209500Y0000286000
X0000212780Y0000288780
X0000203000Y0000299000
X0000214500Y0000303000
X0000200500Y0000311500
X0000215500Y0000311500
X0000201000Y0000315945
X0000208500Y0000319500
X0000211500Y0000322000
X0000215500Y0000322000
X0000208500Y0000324100
X0000204000Y0000324213
X0000200500Y0000327500
X0000212000Y0000333000
X0000204500Y0000333500
X0000206636Y0000338136
X0000200900Y0000338300
X0000209500Y0000345600
X0000201000Y0000347500
X0000206000Y0000347500
X0000208900Y0000349000
X0000202500Y0000350000
X0000217500Y0000358500
X0000212000Y0000365500
X0000200000Y0000366500
X0000207000Y0000377500
X0000214000Y0000382000
X0000219500Y0000382000
X0000217000Y0000386000
X0000200500Y0000395500
X0000212000Y0000400500
X0000210000Y0000409500
X0000239500Y0000409000
X0000224500Y0000408500
X0000223000Y0000400500
X0000235500Y0000394500
X0000232000Y0000394500
X0000235500Y0000391000
X0000232000Y0000391000
X0000225500Y0000386000
X0000233500Y0000382500
X0000238500Y0000375000
X0000233000Y0000375000
X0000233000Y0000366500
X0000223000Y0000366000
X0000233500Y0000358500
X0000226000Y0000358500
X0000228598Y0000346654
X0000237000Y0000343900
X0000237000Y0000339600
X0000228598Y0000339567
X0000228598Y0000332480
X0000228598Y0000325394
X0000228598Y0000318307
X0000228598Y0000311221
X0000231500Y0000300000
X0000222500Y0000296000
X0000228598Y0000289961
X0000232500Y0000288500
X0000232500Y0000284500
X0000228598Y0000282874
X0000228598Y0000275787
X0000228598Y0000268701
X0000228598Y0000261614
X0000238500Y0000254500
X0000228598Y0000254528
X0000228598Y0000247441
X0000228598Y0000240354
X0000228598Y0000233268
X0000235500Y0000232000
X0000228598Y0000226181
X0000228598Y0000219095
X0000228598Y0000212008
X0000228598Y0000204921
X0000228598Y0000197835
X0000233500Y0000189000
X0000228598Y0000183661
X0000228598Y0000176575
X0000237500Y0000176000
X0000228598Y0000169488
X0000235000Y0000167000
X0000228598Y0000162402
X0000233500Y0000159000
X0000233500Y0000154500
X0000237500Y0000150500
X0000228598Y0000148228
X0000228598Y0000141142
X0000239500Y0000136000
X0000229500Y0000130000
X0000239500Y0000120500
X0000236500Y0000120500
X0000233500Y0000120500
X0000229500Y0000119500
X0000239500Y0000117500
X0000236500Y0000117500
X0000233500Y0000117500
X0000238500Y0000104000
X0000235500Y0000104000
X0000238500Y0000101000
X0000235500Y0000101000
X0000238500Y0000098000
X0000235500Y0000098000
X0000232500Y0000091500
X0000227000Y0000071000
X0000234114Y0000062500
X0000222000Y0000061500
X0000227500Y0000055031
X0000220000Y0000033500
X0000229500Y0000020000
X0000220000Y0000020000
X0000235000Y0000016000
X0000231000Y0000005500
X0000245000Y0000005000
X0000259500Y0000005000
X0000256500Y0000015000
X0000241500Y0000016000
X0000249000Y0000020500
X0000258000Y0000027500
X0000251000Y0000032500
X0000254000Y0000032500
X0000244500Y0000033500
X0000251000Y0000035500
X0000254000Y0000035500
X0000251000Y0000038500
X0000254000Y0000038500
X0000244500Y0000039000
X0000240000Y0000143500
X0000244500Y0000163500
X0000249000Y0000163500
X0000244500Y0000167500
X0000249000Y0000167500
X0000249000Y0000174500
X0000246000Y0000186500
X0000242000Y0000225500
X0000248500Y0000232500
X0000240500Y0000241000
X0000240500Y0000246000
X0000250000Y0000246000
X0000251500Y0000254500
X0000242500Y0000266000
X0000252500Y0000272500
X0000243500Y0000282000
X0000252500Y0000287500
X0000244000Y0000296000
X0000242000Y0000318500
X0000241000Y0000324000
X0000245400Y0000332300
X0000249700Y0000332500
X0000243600Y0000343900
X0000248100Y0000344000
X0000240000Y0000358500
X0000241000Y0000365500
X0000259000Y0000374000
X0000244500Y0000375000
X0000250500Y0000375500
X0000257500Y0000381000
X0000254000Y0000409000
X0000268500Y0000409000
X0000276000Y0000404500
X0000264000Y0000404000
X0000271000Y0000389000
X0000269000Y0000363000
X0000274500Y0000346000
X0000273000Y0000068500
X0000277114Y0000066386
X0000278900Y0000062800
X0000275000Y0000062500
X0000260000Y0000049000
X0000264000Y0000041500
X0000276500Y0000028500
X0000278500Y0000025000
X0000274000Y0000025000
X0000262900Y0000023500
X0000266500Y0000019000
X0000274000Y0000011500
X0000266500Y0000011000
X0000274000Y0000005000
X0000289500Y0000005000
X0000281500Y0000013000
X0000288000Y0000022500
X0000293886Y0000022714
X0000280500Y0000028500
X0000284500Y0000028500
X0000290650Y0000036350
X0000297000Y0000052000
X0000291000Y0000054500
X0000298500Y0000055500
X0000296200Y0000057600
X0000293000Y0000060000
X0000282000Y0000062400
X0000297950Y0000062950
X0000285500Y0000063500
X0000290500Y0000073000
X0000283000Y0000077000
X0000292886Y0000078114
X0000290500Y0000085000
X0000292500Y0000112500
X0000292500Y0000123000
X0000292500Y0000136500
X0000292500Y0000145500
X0000292500Y0000150000
X0000298000Y0000150000
X0000298000Y0000153500
X0000295500Y0000163500
X0000299000Y0000163500
X0000295500Y0000168000
X0000299000Y0000168000
X0000297000Y0000215500
X0000297000Y0000226000
X0000297000Y0000239000
X0000294500Y0000249803
X0000298000Y0000250000
X0000287000Y0000256890
X0000298500Y0000259500
X0000287000Y0000262000
X0000285500Y0000270500
X0000296000Y0000275500
X0000292000Y0000288500
X0000284500Y0000334500
X0000286500Y0000357000
X0000287500Y0000407114
X0000306500Y0000410000
X0000300500Y0000408000
X0000313000Y0000404500
X0000313000Y0000385000
X0000304500Y0000385000
X0000300500Y0000370000
X0000304000Y0000335000
X0000318000Y0000321000
X0000300500Y0000320000
X0000301500Y0000307000
X0000310500Y0000291500
X0000306000Y0000163500
X0000305000Y0000154000
X0000305000Y0000149000
X0000306500Y0000144500
X0000310030Y0000142005
X0000307000Y0000140000
X0000310030Y0000138245
X0000307000Y0000136000
X0000314000Y0000135500
X0000311000Y0000123000
X0000303500Y0000118500
X0000309000Y0000096500
X0000303000Y0000074886
X0000301500Y0000063000
X0000317900Y0000036000
X0000316000Y0000033000
X0000317000Y0000025000
X0000305114Y0000022500
X0000315500Y0000013000
X0000305500Y0000013000
X0000310500Y0000012000
X0000318500Y0000005000
X0000303000Y0000005000
X0000335500Y0000005500
X0000321500Y0000012000
X0000329500Y0000015000
X0000336000Y0000023500
X0000321000Y0000025000
X0000320000Y0000033000
X0000324000Y0000033000
X0000330300Y0000033700
X0000321000Y0000097500
X0000335000Y0000097500
X0000336500Y0000108000
X0000326000Y0000108500
X0000332000Y0000118000
X0000331500Y0000123500
X0000325500Y0000124000
X0000325883Y0000131628
X0000325883Y0000135388
X0000321000Y0000144500
X0000326000Y0000144995
X0000326000Y0000148755
X0000334000Y0000150245
X0000329500Y0000152000
X0000320500Y0000154000
X0000334000Y0000154005
X0000323475Y0000157245
X0000323475Y0000161005
X0000331000Y0000208500
X0000331000Y0000214500
X0000323000Y0000216500
X0000331000Y0000221000
X0000331000Y0000227000
X0000324000Y0000228500
X0000331000Y0000232000
X0000331000Y0000239000
X0000324000Y0000239500
X0000331000Y0000245000
X0000324000Y0000249000
X0000331000Y0000250500
X0000323500Y0000260000
X0000335500Y0000261500
X0000326500Y0000269000
X0000336500Y0000278500
X0000324500Y0000304000
X0000328000Y0000347000
X0000323500Y0000369500
X0000323500Y0000385000
X0000335000Y0000390000
X0000325600Y0000408200
X0000329800Y0000408300
X0000333800Y0000408300
X0000338200Y0000408300
X0000344500Y0000409000
X0000340000Y0000403500
X0000354000Y0000399500
X0000343000Y0000384000
X0000349500Y0000377500
X0000356500Y0000372000
X0000356500Y0000363000
X0000350000Y0000358000
X0000355000Y0000356000
X0000349500Y0000350000
X0000345000Y0000344500
X0000354500Y0000339500
X0000342500Y0000328000
X0000353500Y0000324500
X0000343000Y0000315500
X0000353500Y0000315000
X0000343000Y0000303000
X0000347000Y0000288500
X0000348500Y0000269000
X0000349500Y0000257500
X0000349500Y0000252500
X0000348000Y0000246500
X0000346000Y0000238973
X0000346000Y0000228000
X0000346000Y0000223973
X0000346000Y0000218500
X0000348000Y0000208500
X0000348000Y0000202000
X0000359000Y0000197000
X0000356000Y0000197000
X0000359000Y0000194000
X0000356000Y0000194000
X0000359000Y0000191000
X0000356000Y0000191000
X0000354000Y0000183500
X0000342000Y0000152000
X0000353500Y0000116500
X0000355900Y0000111900
X0000342500Y0000108500
X0000345500Y0000103500
X0000351500Y0000096500
X0000352000Y0000063500
X0000353000Y0000057500
X0000353000Y0000052000
X0000359500Y0000047000
X0000342500Y0000043000
X0000351500Y0000039000
X0000340300Y0000036500
X0000344000Y0000031500
X0000351500Y0000025000
X0000341000Y0000016000
X0000358000Y0000013500
X0000346500Y0000006500
X0000359500Y0000004500
X0000360500Y0000026500
X0000374000Y0000049000
X0000367500Y0000054500
X0000360500Y0000056000
X0000375000Y0000062500
X0000375000Y0000069000
X0000366000Y0000073500
X0000366000Y0000096500
X0000378500Y0000103000
X0000366000Y0000113500
X0000369200Y0000113500
X0000378000Y0000113500
X0000370500Y0000117000
X0000378000Y0000118500
X0000378000Y0000123500
X0000363500Y0000127300
X0000367000Y0000127300
X0000371000Y0000127300
X0000378000Y0000128500
X0000371150Y0000132850
X0000378000Y0000133000
X0000377951Y0000137900
X0000371000Y0000138300
X0000371500Y0000146000
X0000368500Y0000147500
X0000365000Y0000152500
X0000373500Y0000156500
X0000365500Y0000163000
X0000367000Y0000177000
X0000373000Y0000187500
X0000366000Y0000197000
X0000378000Y0000201000
X0000374000Y0000204500
X0000373600Y0000213800
X0000377500Y0000224000
X0000371800Y0000232300
X0000377500Y0000237000
X0000368000Y0000245000
X0000367500Y0000264000
X0000379000Y0000268500
X0000362500Y0000279500
X0000372500Y0000290500
X0000360500Y0000301500
X0000379000Y0000305000
X0000371000Y0000315500
X0000373000Y0000332500
X0000379500Y0000341000
X0000372000Y0000348500
X0000372000Y0000359000
X0000372500Y0000380500
X0000361000Y0000389500
X0000360000Y0000409000
X0000389000Y0000383500
X0000383000Y0000375000
X0000388000Y0000367500
X0000382500Y0000359500
X0000387000Y0000348000
X0000387500Y0000331500
X0000380000Y0000324500
X0000388000Y0000314000
X0000387500Y0000297500
X0000387000Y0000281500
X0000382500Y0000253500
X0000387000Y0000240500
X0000386100Y0000234500
X0000380000Y0000214000
X0000386200Y0000213900
X0000385000Y0000204500
X0000388000Y0000195500
X0000384000Y0000181000
X0000380000Y0000169500
X0000386000Y0000157000
X0000386000Y0000150000
X0000380500Y0000149500
X0000388900Y0000147200
X0000388874Y0000143718
X0000389000Y0000141000
X0000381000Y0000138000
X0000389974Y0000136632
X0000382000Y0000133000
X0000389974Y0000129545
X0000382000Y0000128500
X0000382000Y0000123500
X0000389974Y0000122459
X0000382000Y0000118500
X0000389974Y0000117734
X0000382000Y0000113500
X0000389800Y0000105530
X0000381500Y0000103000
X0000385500Y0000100000
X0000389500Y0000096500
X0000380000Y0000096500
X0000390500Y0000084500
X0000390500Y0000072500
X0000390500Y0000062000
X0000390500Y0000052000
X0000389500Y0000041000
X0000380000Y0000034500
X0000389500Y0000029500
T02
X0000043000Y0000095510
X0000043000Y0000105353
X0000043000Y0000113227
X0000043000Y0000123070
T03
X0000041878Y0000038189
X0000041878Y0000050000
X0000053689Y0000038189
X0000053689Y0000050000
X0000065500Y0000038189
X0000065500Y0000050000
X0000212500Y0000010500
X0000222500Y0000010500
X0000383221Y0000046752
X0000383221Y0000056752
X0000383221Y0000066752
X0000383221Y0000076752
X0000015084Y0000347592
X0000015084Y0000365308
X0000172000Y0000404000
X0000182000Y0000404000
X0000192000Y0000404000
X0000202000Y0000404000
T04
X0000024926Y0000342670
X0000024926Y0000370230
T05
X0000032331Y0000083424
X0000032331Y0000135156
T06
X0000015252Y0000198819
X0000015252Y0000214567
T07
X0000206299Y0000098819
T08
X0000206299Y0000361811
T09
X0000312598Y0000109055
X0000312598Y0000351575
T10
X0000053689Y0000021181
T11
X0000015748Y0000015748
X0000377989Y0000015748
X0000377989Y0000397638
X0000015748Y0000397638
M30
