G04 ================== begin FILE IDENTIFICATION RECORD ==================*
G04 Layout Name:  C:/Users/rock/Documents/Work/ZHG/RPI-CMIO/RPI-CMIO.brd*
G04 Film Name:    SILK_BOT*
G04 File Format:  Gerber RS274X*
G04 File Origin:  Cadence Allegro 17.2-S045*
G04 Origin Date:  Mon Mar 25 15:18:37 2019*
G04 *
G04 Layer:  BOARD GEOMETRY/SILKSCREEN_BOTTOM*
G04 Layer:  PACKAGE GEOMETRY/SILKSCREEN_BOTTOM*
G04 Layer:  REF DES/SILKSCREEN_BOTTOM*
G04 Layer:  BOARD GEOMETRY/OUTLINE*
G04 *
G04 Offset:    (0.000 0.000)*
G04 Mirror:    No*
G04 Mode:      Positive*
G04 Rotation:  0*
G04 FullContactRelief:  No*
G04 UndefLineWidth:     6.000*
G04 ================== end FILE IDENTIFICATION RECORD ====================*
%FSAX55Y55*MOIN*%
%IR0*IPPOS*OFA0.00000B0.00000*MIA0B0*SFA1.00000B1.00000*%
%ADD10C,.005*%
%ADD11C,.006*%
%ADD12C,.00787*%
%ADD13C,.00598*%
%ADD14C,.005909*%
G75*
%LPD*%
G75*
G36*
G01X0000025390Y0000201575D02*
X0000026965Y0000200000D01*
X0000026965Y0000203150D01*
X0000025390Y0000201575D01*
G37*
G36*
G01X0000048906Y0000095510D02*
X0000052055Y0000092361D01*
X0000052055Y0000098660D01*
X0000048906Y0000095510D01*
G37*
G36*
G01X0000044606Y0000300807D02*
X0000045788Y0000299625D01*
X0000045788Y0000301988D01*
X0000044606Y0000300807D01*
G37*
G54D10*
G01X0000055367Y0000063600D02*
X0000055200Y0000063300D01*
X0000055000Y0000063100D01*
X0000054767Y0000063000D01*
X0000054500Y0000063100D01*
X0000054300Y0000063300D01*
X0000054100Y0000063600D01*
X0000054033Y0000064000D01*
X0000054033Y0000066000D01*
G01X0000053133Y0000065500D02*
X0000052933Y0000065800D01*
X0000052700Y0000065950D01*
X0000052433Y0000066000D01*
X0000052100Y0000065900D01*
X0000051867Y0000065650D01*
X0000051800Y0000065350D01*
X0000051833Y0000065050D01*
X0000051967Y0000064800D01*
X0000052633Y0000064300D01*
X0000052933Y0000063950D01*
X0000053133Y0000063450D01*
X0000053200Y0000063000D01*
X0000051800Y0000063000D01*
G01X0000050300Y0000066000D02*
X0000050567Y0000065900D01*
X0000050767Y0000065650D01*
X0000050900Y0000065350D01*
X0000051000Y0000064950D01*
X0000051033Y0000064500D01*
X0000051000Y0000064050D01*
X0000050900Y0000063650D01*
X0000050767Y0000063350D01*
X0000050567Y0000063100D01*
X0000050300Y0000063000D01*
X0000050033Y0000063100D01*
X0000049833Y0000063350D01*
X0000049700Y0000063650D01*
X0000049600Y0000064050D01*
X0000049567Y0000064500D01*
X0000049600Y0000064950D01*
X0000049700Y0000065350D01*
X0000049833Y0000065650D01*
X0000050033Y0000065900D01*
X0000050300Y0000066000D01*
G01X0000040767Y0000206600D02*
X0000040600Y0000206300D01*
X0000040400Y0000206100D01*
X0000040167Y0000206000D01*
X0000039900Y0000206100D01*
X0000039700Y0000206300D01*
X0000039500Y0000206600D01*
X0000039433Y0000207000D01*
X0000039433Y0000209000D01*
G01X0000038533Y0000208500D02*
X0000038333Y0000208800D01*
X0000038100Y0000208950D01*
X0000037833Y0000209000D01*
X0000037500Y0000208900D01*
X0000037267Y0000208650D01*
X0000037200Y0000208350D01*
X0000037233Y0000208050D01*
X0000037367Y0000207800D01*
X0000038033Y0000207300D01*
X0000038333Y0000206950D01*
X0000038533Y0000206450D01*
X0000038600Y0000206000D01*
X0000037200Y0000206000D01*
G01X0000045400Y0000356400D02*
X0000045133Y0000356150D01*
X0000044833Y0000356000D01*
X0000044567Y0000356000D01*
X0000044300Y0000356150D01*
X0000044100Y0000356400D01*
X0000044000Y0000356750D01*
X0000044067Y0000357100D01*
X0000044233Y0000357400D01*
X0000044533Y0000357600D01*
X0000044933Y0000357700D01*
X0000045167Y0000357900D01*
X0000045267Y0000358250D01*
X0000045200Y0000358600D01*
X0000045033Y0000358850D01*
X0000044800Y0000359000D01*
X0000044567Y0000359000D01*
X0000044333Y0000358900D01*
X0000044133Y0000358650D01*
G01X0000043500Y0000359000D02*
X0000043033Y0000356000D01*
X0000042500Y0000359000D01*
X0000041967Y0000356000D01*
X0000041500Y0000359000D01*
G01X0000040933Y0000358500D02*
X0000040733Y0000358800D01*
X0000040500Y0000358950D01*
X0000040233Y0000359000D01*
X0000039900Y0000358900D01*
X0000039667Y0000358650D01*
X0000039600Y0000358350D01*
X0000039633Y0000358050D01*
X0000039767Y0000357800D01*
X0000040433Y0000357300D01*
X0000040733Y0000356950D01*
X0000040933Y0000356450D01*
X0000041000Y0000356000D01*
X0000039600Y0000356000D01*
G01X0000059867Y0000109100D02*
X0000059700Y0000108800D01*
X0000059500Y0000108600D01*
X0000059267Y0000108500D01*
X0000059000Y0000108600D01*
X0000058800Y0000108800D01*
X0000058600Y0000109100D01*
X0000058533Y0000109500D01*
X0000058533Y0000111500D01*
G01X0000057000Y0000108500D02*
X0000057000Y0000111500D01*
X0000057400Y0000110900D01*
G01X0000057400Y0000108500D02*
X0000056600Y0000108500D01*
G01X0000054400Y0000108500D02*
X0000054400Y0000111500D01*
X0000055633Y0000109350D01*
X0000053967Y0000109350D01*
G01X0000059367Y0000280100D02*
X0000059200Y0000279800D01*
X0000059000Y0000279600D01*
X0000058767Y0000279500D01*
X0000058500Y0000279600D01*
X0000058300Y0000279800D01*
X0000058100Y0000280100D01*
X0000058033Y0000280500D01*
X0000058033Y0000282500D01*
G01X0000056500Y0000279500D02*
X0000056500Y0000282500D01*
X0000056900Y0000281900D01*
G01X0000056900Y0000279500D02*
X0000056100Y0000279500D01*
G01X0000055033Y0000280100D02*
X0000054833Y0000279750D01*
X0000054567Y0000279550D01*
X0000054267Y0000279500D01*
X0000054000Y0000279550D01*
X0000053733Y0000279800D01*
X0000053567Y0000280100D01*
X0000053533Y0000280400D01*
X0000053600Y0000280750D01*
X0000053833Y0000281000D01*
X0000054067Y0000281100D01*
X0000054367Y0000281100D01*
G01X0000054067Y0000281100D02*
X0000053867Y0000281250D01*
X0000053700Y0000281500D01*
X0000053633Y0000281800D01*
X0000053700Y0000282100D01*
X0000053867Y0000282350D01*
X0000054167Y0000282500D01*
X0000054467Y0000282450D01*
X0000054767Y0000282250D01*
G01X0000123367Y0000059600D02*
X0000123200Y0000059300D01*
X0000123000Y0000059100D01*
X0000122767Y0000059000D01*
X0000122500Y0000059100D01*
X0000122300Y0000059300D01*
X0000122100Y0000059600D01*
X0000122033Y0000060000D01*
X0000122033Y0000062000D01*
G01X0000120500Y0000059000D02*
X0000120500Y0000062000D01*
X0000120900Y0000061400D01*
G01X0000120900Y0000059000D02*
X0000120100Y0000059000D01*
G01X0000118933Y0000060250D02*
X0000118700Y0000060600D01*
X0000118500Y0000060800D01*
X0000118233Y0000060900D01*
X0000118000Y0000060800D01*
X0000117833Y0000060600D01*
X0000117700Y0000060300D01*
X0000117667Y0000059950D01*
X0000117700Y0000059650D01*
X0000117833Y0000059350D01*
X0000118033Y0000059100D01*
X0000118267Y0000059000D01*
X0000118533Y0000059100D01*
X0000118767Y0000059400D01*
X0000118900Y0000059850D01*
X0000118933Y0000060350D01*
X0000118867Y0000061000D01*
X0000118767Y0000061350D01*
X0000118600Y0000061700D01*
X0000118367Y0000061950D01*
X0000118133Y0000062000D01*
X0000117900Y0000061900D01*
X0000117733Y0000061650D01*
G54D11*
G01X-0000020349Y0000349560D02*
X-0000020349Y0000363340D01*
G01X0000005044Y0000349560D02*
X-0000020349Y0000349560D01*
G01X-0000020349Y0000363340D02*
X0000005044Y0000363340D01*
G01X0000002358Y0000189370D02*
X0000002358Y0000224016D01*
G01X0000025980Y0000189370D02*
X0000002358Y0000189370D01*
G01X0000002358Y0000224016D02*
X0000025980Y0000224016D01*
G01X0000005044Y0000341686D02*
X0000005044Y0000371214D01*
G01X0000015084Y0000341686D02*
X0000005044Y0000341686D01*
G01X0000005044Y0000363340D02*
X0000005044Y0000349560D01*
G01X0000005044Y0000371214D02*
X0000015084Y0000371214D01*
G01X0000025980Y0000189370D02*
X0000025980Y0000198819D01*
X0000024012Y0000198819D01*
X0000024012Y0000214567D01*
X0000025980Y0000214567D01*
X0000025980Y0000224016D01*
G01X0000019218Y0000341686D02*
X0000015084Y0000341686D01*
G01X0000034769Y0000341686D02*
X0000031029Y0000341686D01*
G01X0000031029Y0000371214D02*
X0000034769Y0000371214D01*
G01X0000015084Y0000371214D02*
X0000019218Y0000371214D01*
G01X0000034769Y0000371214D02*
X0000034769Y0000341686D01*
G01X0000074949Y0000007480D02*
X0000072587Y0000009843D01*
G01X0000073768Y0000007480D02*
X0000074949Y0000007480D01*
G01X0000072587Y0000009843D02*
X0000070224Y0000007480D01*
G01X0000073768Y0000005118D02*
X0000073768Y0000007480D01*
G01X0000071406Y0000005118D02*
X0000073768Y0000005118D01*
G01X0000070224Y0000007480D02*
X0000071406Y0000007480D01*
G01X0000071406Y0000007480D02*
X0000071406Y0000005118D01*
G01X0000141198Y0000005119D02*
X0000141198Y-0000008660D01*
X0000097890Y-0000008660D01*
X0000097890Y0000005119D01*
G01X0000095568Y0000011812D02*
X0000095568Y0000029529D01*
G01X0000104603Y0000006891D02*
X0000101060Y0000006891D01*
G01X0000095568Y0000035040D02*
X0000095568Y0000044095D01*
G01X0000095568Y0000049607D02*
X0000095568Y0000051969D01*
X0000105784Y0000051969D01*
G01X0000114839Y0000051969D02*
X0000129406Y0000051969D01*
G01X0000138461Y0000051969D02*
X0000142772Y0000051969D01*
X0000142772Y0000013780D01*
G01X0Y0D02*
X0000393737Y0D01*
X0000393737Y0000413386D01*
X0Y0000413386D01*
X0Y0D01*
G54D12*
G01X0000079437Y0000038071D02*
X0000083374Y0000036760D01*
G01X0000079437Y0000038071D02*
X0000083374Y0000038595D01*
G01X0000079437Y0000038071D02*
X0000083374Y0000037807D01*
G01X0000079437Y0000038071D02*
X0000083374Y0000037020D01*
G01X0000083374Y0000039382D02*
X0000079437Y0000038071D01*
G01X0000083374Y0000036760D02*
X0000083374Y0000039382D01*
G54D13*
G01X0000028787Y0000001181D02*
X0000028787Y0000040157D01*
G01X0000078591Y0000001181D02*
X0000028787Y0000001181D01*
G01X0000028787Y0000040157D02*
X0000028787Y0000056693D01*
G01X0000028787Y0000056693D02*
X0000078591Y0000056693D01*
G01X0000037154Y0000040157D02*
X0000028787Y0000040157D01*
G01X0000078591Y0000040157D02*
X0000078591Y0000001181D01*
G01X0000078591Y0000056693D02*
X0000078591Y0000040157D01*
G01X0000078591Y0000040157D02*
X0000070224Y0000040157D01*
G54D14*
G01X0000024102Y0000082912D02*
X-0000005425Y0000082912D01*
X-0000005425Y0000079762D01*
X-0000008575Y0000079762D01*
X-0000008575Y0000138818D01*
X-0000005425Y0000138818D01*
X-0000005425Y0000135668D01*
X0000024102Y0000135668D01*
G01X0000006811Y0000253956D02*
X-0000006181Y0000253956D01*
X-0000006181Y0000312224D01*
X0000006811Y0000312224D01*
G01X0000007673Y0000198819D02*
X0000005902Y0000200591D01*
G01X0000005902Y0000200591D02*
X0000005902Y0000199410D01*
G01X0000005902Y0000199410D02*
X0000004130Y0000199410D01*
G01X0000004130Y0000199410D02*
X0000004130Y0000198228D01*
G01X0000004130Y0000198228D02*
X0000005902Y0000198228D01*
G01X0000005902Y0000198228D02*
X0000005902Y0000197047D01*
G01X0000005902Y0000197047D02*
X0000007673Y0000198819D01*
G01X0000028071Y0000253956D02*
X0000018228Y0000253956D01*
G01X0000028071Y0000312224D02*
X0000018228Y0000312224D01*
G01X0000040244Y0000135668D02*
X0000048118Y0000135668D01*
X0000048118Y0000082912D01*
X0000040244Y0000082912D01*
G01X0000043425Y0000263405D02*
X0000043425Y0000257499D01*
G01X0000043425Y0000308681D02*
X0000043425Y0000302775D01*
X0000044213Y0000302775D01*
X0000044213Y0000303562D01*
X0000043425Y0000303562D01*
M02*
