G04 ================== begin FILE IDENTIFICATION RECORD ==================*
G04 Layout Name:  C:/Users/rock/Documents/Work/ZHG/RPI-CMIO/RPI-CMIO.brd*
G04 Film Name:    SOLDER_BOT*
G04 File Format:  Gerber RS274X*
G04 File Origin:  Cadence Allegro 17.2-S045*
G04 Origin Date:  Mon Mar 25 15:18:38 2019*
G04 *
G04 Layer:  BOARD GEOMETRY/SOLDERMASK_BOTTOM*
G04 Layer:  PACKAGE GEOMETRY/SOLDERMASK_BOTTOM*
G04 Layer:  PIN/SOLDERMASK_BOTTOM*
G04 Layer:  VIA CLASS/SOLDERMASK_BOTTOM*
G04 Layer:  BOARD GEOMETRY/OUTLINE*
G04 *
G04 Offset:    (0.000 0.000)*
G04 Mirror:    No*
G04 Mode:      Positive*
G04 Rotation:  0*
G04 FullContactRelief:  No*
G04 UndefLineWidth:     6.000*
G04 ================== end FILE IDENTIFICATION RECORD ====================*
%FSAX55Y55*MOIN*%
%IR0*IPPOS*OFA0.00000B0.00000*MIA0B0*SFA1.00000B1.00000*%
%ADD25R,.066929X.059059*%
%ADD18C,.102358*%
%ADD15C,.141728*%
%ADD19C,.12598*%
%ADD32C,.216539*%
%ADD10C,.275591*%
%ADD17O,.135831X.064961*%
%ADD21R,.106299X.015748*%
%ADD22C,.08*%
%ADD16R,.06102X.02165*%
%ADD12C,.0315*%
%ADD26R,.05315X.04528*%
%ADD24R,.037402X.04724*%
%ADD31C,.08661*%
%ADD29R,.033461X.04724*%
%ADD14C,.072831*%
%ADD20C,.064961*%
%ADD11O,.07874X.04724*%
%ADD30C,.059059*%
%ADD28R,.05X.074799*%
%ADD23R,.072831X.072831*%
%ADD13O,.096461X.064961*%
%ADD27R,.080709X.059059*%
%ADD33C,.006*%
G75*
%LPD*%
G75*
G54D10*
X0000015748Y0000015748D03*
X0000015748Y0000397638D03*
X0000377989Y0000015748D03*
X0000377989Y0000397638D03*
G54D11*
X0000006886Y0000192618D03*
X0000006886Y0000220768D03*
X0000020469Y0000192618D03*
X0000020469Y0000220768D03*
G54D20*
X0000043000Y0000095510D03*
X0000043000Y0000113227D03*
X0000043000Y0000105353D03*
X0000043000Y0000123070D03*
G54D30*
X0000206299Y0000098819D03*
G54D12*
X0000015252Y0000198819D03*
X0000015252Y0000214567D03*
G54D21*
X0000038858Y0000277184D03*
X0000038858Y0000275216D03*
X0000038858Y0000273247D03*
X0000038858Y0000271279D03*
X0000038858Y0000269310D03*
X0000038858Y0000267342D03*
X0000038858Y0000265373D03*
X0000038858Y0000294901D03*
X0000038858Y0000292933D03*
X0000038858Y0000290964D03*
X0000038858Y0000288996D03*
X0000038858Y0000287027D03*
X0000038858Y0000285059D03*
X0000038858Y0000283090D03*
X0000038858Y0000281121D03*
X0000038858Y0000279153D03*
X0000038858Y0000300807D03*
X0000038858Y0000298838D03*
X0000038858Y0000296870D03*
G54D13*
X0000012402Y0000254547D03*
X0000012402Y0000311633D03*
G54D31*
X0000206299Y0000361811D03*
G54D22*
X0000051500Y0000387500D03*
X0000367500Y0000037500D03*
X0000372000Y0000370000D03*
G54D23*
X0000065500Y0000038189D03*
X0000172000Y0000404000D03*
X0000222500Y0000010500D03*
X0000383221Y0000076752D03*
G54D14*
X0000015084Y0000347592D03*
X0000015084Y0000365308D03*
X0000041878Y0000038189D03*
X0000053689Y0000038189D03*
X0000041878Y0000050000D03*
X0000053689Y0000050000D03*
X0000065500Y0000050000D03*
X0000182000Y0000404000D03*
X0000192000Y0000404000D03*
X0000212500Y0000010500D03*
X0000202000Y0000404000D03*
X0000383221Y0000046752D03*
X0000383221Y0000056752D03*
X0000383221Y0000066752D03*
G54D32*
X0000312598Y0000109055D03*
X0000312598Y0000351575D03*
G54D33*
G01X0Y0D02*
X0000393737Y0D01*
X0000393737Y0000413386D01*
X0Y0000413386D01*
X0Y0D01*
G54D24*
X0000106946Y0000008072D03*
X0000111276Y0000008072D03*
X0000115607Y0000008072D03*
X0000119938Y0000008072D03*
X0000124268Y0000008072D03*
X0000128599Y0000008072D03*
X0000132930Y0000008072D03*
G54D15*
X0000032331Y0000083424D03*
X0000032331Y0000135156D03*
G54D16*
X0000018500Y0000204134D03*
X0000018500Y0000201575D03*
X0000018500Y0000211811D03*
X0000018500Y0000209252D03*
X0000018500Y0000206693D03*
G54D25*
X0000097261Y0000008564D03*
G54D26*
X0000096572Y0000032284D03*
X0000096572Y0000046851D03*
G54D17*
X0000035866Y0000254547D03*
X0000035866Y0000311633D03*
G54D27*
X0000110351Y0000050591D03*
X0000133855Y0000050591D03*
G54D18*
X0000024926Y0000342670D03*
X0000024926Y0000370230D03*
G54D28*
X0000141827Y0000009450D03*
G54D19*
X0000053689Y0000021181D03*
G54D29*
X0000137064Y0000008072D03*
M02*
