M48
INCH
T01C.01
T02C.04
T03C.078
T04C.025591
T05C.106299
T06C.133858
;LEADER: 12 
;HEADER: 
;CODE  : ASCII 
;FILE  : CutiePi_V2_3-1-6.drl for board D:/PCB_Project/CutiePi/CutiePi_V2_3/#Taaaadx07452.tmp ... layers TOP and BOTTOM
;T01 Holesize 1. = 10.000000 Tolerance = +0.000000/-0.000000 PLATED MILS Quantity = 1146
;T02 Holesize 2. = 40.000000 Tolerance = +0.000000/-0.000000 PLATED MILS Quantity = 4
;T03 Holesize 3. = 78.000000 Tolerance = +0.000000/-0.000000 PLATED MILS Quantity = 2
;T04 Holesize 4. = 25.591000 Tolerance = +0.000000/-0.000000 NON_PLATED MILS Quantity = 2
;T05 Holesize 5. = 106.299000 Tolerance = +0.000000/-0.000000 NON_PLATED MILS Quantity = 4
;T06 Holesize 6. = 133.858000 Tolerance = +0.000000/-0.000000 NON_PLATED MILS Quantity = 4
%
G90
T01
X0000005630Y0000035000
X0000015630Y0000035000
X0000005000Y0000045000
X0000005630Y0000055000
X0000015630Y0000055000
X0000004500Y0000069800
X0000012500Y0000070000
X0000017500Y0000070000
X0000017500Y0000075000
X0000015500Y0000090500
X0000015500Y0000097500
X0000005630Y0000105000
X0000015500Y0000105000
X0000005630Y0000115000
X0000015630Y0000115000
X0000005630Y0000125000
X0000015500Y0000125000
X0000005630Y0000135000
X0000015630Y0000135000
X0000005630Y0000145000
X0000015630Y0000145000
X0000003500Y0000220000
X0000003500Y0000227500
X0000010000Y0000227500
X0000017500Y0000227500
X0000003500Y0000235000
X0000010000Y0000235000
X0000017500Y0000235000
X0000003500Y0000242500
X0000010000Y0000242500
X0000017500Y0000242500
X0000012000Y0000257500
X0000005630Y0000260000
X0000011000Y0000265500
X0000018898Y0000268140
X0000005630Y0000270000
X0000018898Y0000271140
X0000011000Y0000276000
X0000005630Y0000280000
X0000015630Y0000280000
X0000005630Y0000295000
X0000015630Y0000295000
X0000005630Y0000305000
X0000015630Y0000305000
X0000005630Y0000315000
X0000015630Y0000315000
X0000014500Y0000328500
X0000011130Y0000329853
X0000005630Y0000330000
X0000011130Y0000332853
X0000014000Y0000334000
X0000011130Y0000335784
X0000011130Y0000338784
X0000014000Y0000339600
X0000005630Y0000340000
X0000012000Y0000342000
X0000005000Y0000355000
X0000015000Y0000355000
X0000015000Y0000365000
X0000015000Y0000375000
X0000012500Y0000390000
X0000015000Y0000410000
X0000015000Y0000420000
X0000035000Y0000448000
X0000035000Y0000440000
X0000035000Y0000430000
X0000035000Y0000420000
X0000025000Y0000420000
X0000035000Y0000410000
X0000025000Y0000410000
X0000029000Y0000404500
X0000032000Y0000398000
X0000020000Y0000395000
X0000032000Y0000394500
X0000032500Y0000385000
X0000025000Y0000385000
X0000032500Y0000375000
X0000025000Y0000375000
X0000032500Y0000365000
X0000025000Y0000365000
X0000032500Y0000356000
X0000023000Y0000355000
X0000038886Y0000354614
X0000032500Y0000349500
X0000039500Y0000343000
X0000029500Y0000337500
X0000032300Y0000336205
X0000032300Y0000333205
X0000029500Y0000331000
X0000032307Y0000329578
X0000032307Y0000326577
X0000029500Y0000325500
X0000025630Y0000315000
X0000025630Y0000305000
X0000035630Y0000295000
X0000025630Y0000295000
X0000030000Y0000292500
X0000031000Y0000280270
X0000031000Y0000277120
X0000021500Y0000273516
X0000034500Y0000269516
X0000032429Y0000267703
X0000021500Y0000266516
X0000032429Y0000264703
X0000034500Y0000263016
X0000031000Y0000257016
X0000033000Y0000255016
X0000025000Y0000242500
X0000032500Y0000235000
X0000025000Y0000235000
X0000032500Y0000227500
X0000025000Y0000227500
X0000032500Y0000220000
X0000025000Y0000220000
X0000035630Y0000155000
X0000025630Y0000155000
X0000035630Y0000145000
X0000025630Y0000145000
X0000035630Y0000135000
X0000025630Y0000135000
X0000035630Y0000125000
X0000025500Y0000125000
X0000035630Y0000115000
X0000025630Y0000115000
X0000035630Y0000105000
X0000025500Y0000105000
X0000035630Y0000097500
X0000025500Y0000097500
X0000035630Y0000090500
X0000025500Y0000090500
X0000035000Y0000075000
X0000025000Y0000075000
X0000027992Y0000068992
X0000035000Y0000067500
X0000032339Y0000065161
X0000035000Y0000060000
X0000035630Y0000045000
X0000025630Y0000045000
X0000025630Y0000035000
X0000035630Y0000025000
X0000035630Y0000015000
X0000035630Y0000005000
X0000045630Y0000005000
X0000053130Y0000005000
X0000045630Y0000015000
X0000053130Y0000015000
X0000045630Y0000025000
X0000053130Y0000025000
X0000045630Y0000035000
X0000052500Y0000035000
X0000045000Y0000045000
X0000052500Y0000045000
X0000042500Y0000060000
X0000050000Y0000060000
X0000042500Y0000067500
X0000050000Y0000067500
X0000042500Y0000075000
X0000050000Y0000075000
X0000048492Y0000090500
X0000045500Y0000097000
X0000055630Y0000097000
X0000045500Y0000104500
X0000055630Y0000104500
X0000045630Y0000114500
X0000055630Y0000114500
X0000045500Y0000124500
X0000055630Y0000124500
X0000045630Y0000134500
X0000055630Y0000134500
X0000045630Y0000144500
X0000055630Y0000144500
X0000055000Y0000155000
X0000055000Y0000165000
X0000040000Y0000169500
X0000055000Y0000172500
X0000040630Y0000175000
X0000053500Y0000179500
X0000057000Y0000179500
X0000053500Y0000182500
X0000056500Y0000182500
X0000040630Y0000185000
X0000040630Y0000195000
X0000040630Y0000205000
X0000040000Y0000220000
X0000047500Y0000220000
X0000040000Y0000227500
X0000047500Y0000227500
X0000051500Y0000232500
X0000057500Y0000232500
X0000040000Y0000235000
X0000054500Y0000235000
X0000051500Y0000237500
X0000057500Y0000237500
X0000046344Y0000250671
X0000041323Y0000258839
X0000041323Y0000275516
X0000047500Y0000285000
X0000052500Y0000285000
X0000047500Y0000290000
X0000059000Y0000290000
X0000045000Y0000295000
X0000057500Y0000308500
X0000050000Y0000313500
X0000055000Y0000313500
X0000050000Y0000317500
X0000055000Y0000317500
X0000050000Y0000321500
X0000055000Y0000321500
X0000045000Y0000340000
X0000055500Y0000340500
X0000045000Y0000346000
X0000052000Y0000346500
X0000045000Y0000365000
X0000045000Y0000375000
X0000045000Y0000385000
X0000045000Y0000410000
X0000045000Y0000420000
X0000055000Y0000420000
X0000045000Y0000430000
X0000055000Y0000430000
X0000045000Y0000440000
X0000055000Y0000440000
X0000045000Y0000448000
X0000055000Y0000448000
X0000075000Y0000448000
X0000065000Y0000448000
X0000075000Y0000440000
X0000065000Y0000440000
X0000075000Y0000430000
X0000065000Y0000430000
X0000065500Y0000378000
X0000071000Y0000372500
X0000065500Y0000372500
X0000071500Y0000367000
X0000065500Y0000367000
X0000075000Y0000365226
X0000075000Y0000362226
X0000071500Y0000360500
X0000079500Y0000356000
X0000077000Y0000354500
X0000077000Y0000351500
X0000074000Y0000350000
X0000062000Y0000350000
X0000069000Y0000347000
X0000062500Y0000347000
X0000066860Y0000344500
X0000063860Y0000344500
X0000076500Y0000341000
X0000070500Y0000341000
X0000060000Y0000340500
X0000074860Y0000338000
X0000071860Y0000338000
X0000060000Y0000336500
X0000074500Y0000330500
X0000070500Y0000326500
X0000070000Y0000321500
X0000065000Y0000321500
X0000060500Y0000321500
X0000060500Y0000317500
X0000060500Y0000313500
X0000070000Y0000312500
X0000065000Y0000303500
X0000060000Y0000303500
X0000077000Y0000296500
X0000065000Y0000290000
X0000068000Y0000276500
X0000075000Y0000259000
X0000072500Y0000249016
X0000072000Y0000235516
X0000060500Y0000235000
X0000072000Y0000230500
X0000070000Y0000220000
X0000065000Y0000220000
X0000070000Y0000215000
X0000065000Y0000215000
X0000077500Y0000210000
X0000077500Y0000205000
X0000065000Y0000196000
X0000061750Y0000195880
X0000065130Y0000178000
X0000062130Y0000178000
X0000071886Y0000071500
X0000078500Y0000067500
X0000077500Y0000057500
X0000077500Y0000050000
X0000070000Y0000050000
X0000062500Y0000050000
X0000077500Y0000042500
X0000070000Y0000042500
X0000078500Y0000027500
X0000070500Y0000010000
X0000065500Y0000010000
X0000075500Y0000005000
X0000070630Y0000005000
X0000065630Y0000005000
X0000097000Y0000017500
X0000082000Y0000030500
X0000085000Y0000042500
X0000092500Y0000042500
X0000085000Y0000050000
X0000092500Y0000050000
X0000093500Y0000084000
X0000097500Y0000084000
X0000098500Y0000099500
X0000080000Y0000110000
X0000080000Y0000115500
X0000086386Y0000118500
X0000093000Y0000121500
X0000080000Y0000122500
X0000080000Y0000135000
X0000080000Y0000142500
X0000099500Y0000147500
X0000080000Y0000150000
X0000080000Y0000157500
X0000089000Y0000179000
X0000089000Y0000185000
X0000089000Y0000190000
X0000082500Y0000205000
X0000082500Y0000210000
X0000087500Y0000262500
X0000082500Y0000282500
X0000080614Y0000289886
X0000087500Y0000290000
X0000082000Y0000297500
X0000095000Y0000300000
X0000090000Y0000305000
X0000096000Y0000317484
X0000091000Y0000319000
X0000096000Y0000321000
X0000084500Y0000322209
X0000091000Y0000325000
X0000096000Y0000325000
X0000091500Y0000330500
X0000096000Y0000330500
X0000082500Y0000331000
X0000080000Y0000332520
X0000091500Y0000334000
X0000096000Y0000334500
X0000080000Y0000335520
X0000082500Y0000337000
X0000095000Y0000337244
X0000095000Y0000340244
X0000082500Y0000340500
X0000080000Y0000341968
X0000096000Y0000343000
X0000080000Y0000344968
X0000091500Y0000347000
X0000091500Y0000350555
X0000091500Y0000355280
X0000091500Y0000360004
X0000091272Y0000364728
X0000091500Y0000368500
X0000092500Y0000375000
X0000092500Y0000378000
X0000083000Y0000383000
X0000095626Y0000383626
X0000080000Y0000384500
X0000080000Y0000387500
X0000095500Y0000388350
X0000083000Y0000389000
X0000115000Y0000448000
X0000115000Y0000440000
X0000115000Y0000430000
X0000108000Y0000388000
X0000104500Y0000387500
X0000108000Y0000384500
X0000104500Y0000384500
X0000119000Y0000382911
X0000119000Y0000379911
X0000104402Y0000378902
X0000111500Y0000378500
X0000107500Y0000378000
X0000118000Y0000375000
X0000107500Y0000375000
X0000105000Y0000373500
X0000119500Y0000372500
X0000119500Y0000369500
X0000104500Y0000368000
X0000118000Y0000367000
X0000104272Y0000364728
X0000103996Y0000360004
X0000104000Y0000356000
X0000109000Y0000353000
X0000104000Y0000353000
X0000109000Y0000348000
X0000104000Y0000348000
X0000107500Y0000320000
X0000107500Y0000312500
X0000112500Y0000307500
X0000100000Y0000307500
X0000117500Y0000302500
X0000110000Y0000297500
X0000115000Y0000292500
X0000100000Y0000272500
X0000100000Y0000262500
X0000110000Y0000237500
X0000110000Y0000230000
X0000110000Y0000222500
X0000110000Y0000215000
X0000109500Y0000194000
X0000113500Y0000192000
X0000113500Y0000182000
X0000109500Y0000174000
X0000104000Y0000163500
X0000115500Y0000160500
X0000110500Y0000160500
X0000113300Y0000152300
X0000115543Y0000138543
X0000115543Y0000114957
X0000114000Y0000100000
X0000111000Y0000094000
X0000117630Y0000064000
X0000117630Y0000060000
X0000115000Y0000042500
X0000107500Y0000042500
X0000100000Y0000042500
X0000116000Y0000025992
X0000115000Y0000020008
X0000100500Y0000015000
X0000117500Y0000003000
X0000125000Y0000003000
X0000132500Y0000003000
X0000124500Y0000014000
X0000134000Y0000014000
X0000130614Y0000016500
X0000123492Y0000025992
X0000124500Y0000032500
X0000134000Y0000032500
X0000138000Y0000032500
X0000130614Y0000036000
X0000124500Y0000037000
X0000121630Y0000060000
X0000125630Y0000060000
X0000121630Y0000064000
X0000125630Y0000064000
X0000120000Y0000080000
X0000137197Y0000115803
X0000133000Y0000116000
X0000137500Y0000120000
X0000137500Y0000125000
X0000137500Y0000129991
X0000120500Y0000160500
X0000125500Y0000160500
X0000130500Y0000160500
X0000120500Y0000163500
X0000137500Y0000317500
X0000135500Y0000321500
X0000132500Y0000323071
X0000132500Y0000326071
X0000136000Y0000327500
X0000136000Y0000333500
X0000132500Y0000334860
X0000132500Y0000337860
X0000135500Y0000339500
X0000136000Y0000346000
X0000132500Y0000347360
X0000132500Y0000350360
X0000136000Y0000352000
X0000121500Y0000355500
X0000135500Y0000359000
X0000121500Y0000361500
X0000136000Y0000367500
X0000135500Y0000376000
X0000122000Y0000378647
X0000122000Y0000384147
X0000125000Y0000430000
X0000135000Y0000430000
X0000125000Y0000440000
X0000135000Y0000440000
X0000125000Y0000448000
X0000135000Y0000448000
X0000145000Y0000448000
X0000145000Y0000440000
X0000145000Y0000430000
X0000151000Y0000420500
X0000157500Y0000375000
X0000147500Y0000375000
X0000141500Y0000372500
X0000157500Y0000365000
X0000147500Y0000365000
X0000142000Y0000362500
X0000142500Y0000354000
X0000143500Y0000346000
X0000140000Y0000344360
X0000140000Y0000341360
X0000143500Y0000340000
X0000142500Y0000333500
X0000140000Y0000331860
X0000140000Y0000328860
X0000142500Y0000327000
X0000150000Y0000270000
X0000157500Y0000262500
X0000141500Y0000253500
X0000155000Y0000250000
X0000155000Y0000240000
X0000141500Y0000238500
X0000148000Y0000235000
X0000141500Y0000226000
X0000150000Y0000225500
X0000145000Y0000217500
X0000152500Y0000212000
X0000157500Y0000177000
X0000154000Y0000177000
X0000143500Y0000099500
X0000144508Y0000090008
X0000145000Y0000080000
X0000147992Y0000074492
X0000148000Y0000068500
X0000147500Y0000030000
X0000144500Y0000024000
X0000155000Y0000022500
X0000149000Y0000019000
X0000154500Y0000015000
X0000145130Y0000014500
X0000150000Y0000003000
X0000140000Y0000003000
X0000160000Y0000003000
X0000167500Y0000003000
X0000175000Y0000003000
X0000162500Y0000022500
X0000167130Y0000067000
X0000172630Y0000067000
X0000170000Y0000072500
X0000175000Y0000072500
X0000162500Y0000107500
X0000167500Y0000107500
X0000175000Y0000107500
X0000167500Y0000112500
X0000175000Y0000112500
X0000162500Y0000117500
X0000167500Y0000117500
X0000175000Y0000117500
X0000162000Y0000123000
X0000175000Y0000140000
X0000168500Y0000143500
X0000168500Y0000158500
X0000165000Y0000167500
X0000170000Y0000167500
X0000175000Y0000167500
X0000162500Y0000172500
X0000162500Y0000177500
X0000172500Y0000177500
X0000162500Y0000182500
X0000172500Y0000182500
X0000162500Y0000187500
X0000172500Y0000187500
X0000162500Y0000192500
X0000172500Y0000192500
X0000162500Y0000197000
X0000160000Y0000220500
X0000160000Y0000230000
X0000170000Y0000235000
X0000165000Y0000240000
X0000165000Y0000255000
X0000175000Y0000280500
X0000167500Y0000345000
X0000167500Y0000355000
X0000175000Y0000355000
X0000167500Y0000365000
X0000175000Y0000365000
X0000167500Y0000375000
X0000175000Y0000375000
X0000167500Y0000385000
X0000175000Y0000385000
X0000166500Y0000420500
X0000184000Y0000420000
X0000185000Y0000385000
X0000195000Y0000375000
X0000185000Y0000375000
X0000185000Y0000365000
X0000195000Y0000335000
X0000185000Y0000330000
X0000195000Y0000325000
X0000185000Y0000320000
X0000195000Y0000315000
X0000182500Y0000275000
X0000190000Y0000267500
X0000195000Y0000262500
X0000187500Y0000204000
X0000190000Y0000117500
X0000182500Y0000117500
X0000190000Y0000112500
X0000182500Y0000112500
X0000190000Y0000107500
X0000182500Y0000107500
X0000197500Y0000072500
X0000192500Y0000072500
X0000187500Y0000072500
X0000182500Y0000072500
X0000197500Y0000065000
X0000192500Y0000065000
X0000187500Y0000065000
X0000182500Y0000065000
X0000197500Y0000060000
X0000192500Y0000060000
X0000187500Y0000060000
X0000182500Y0000060000
X0000197500Y0000055000
X0000192500Y0000055000
X0000189130Y0000039500
X0000196630Y0000035500
X0000191630Y0000035500
X0000186630Y0000035500
X0000182630Y0000035500
X0000196630Y0000031000
X0000192500Y0000003000
X0000182500Y0000003000
X0000202500Y0000003000
X0000210000Y0000003000
X0000217500Y0000003000
X0000204630Y0000020000
X0000208630Y0000020000
X0000212630Y0000020000
X0000204630Y0000024000
X0000208630Y0000024000
X0000212630Y0000024000
X0000201630Y0000031000
X0000206630Y0000031000
X0000211630Y0000031000
X0000201630Y0000035500
X0000206630Y0000035500
X0000211630Y0000035500
X0000206630Y0000040500
X0000211630Y0000040500
X0000211630Y0000047000
X0000216630Y0000047000
X0000211630Y0000051000
X0000216630Y0000051000
X0000211630Y0000055500
X0000216630Y0000055500
X0000211630Y0000060000
X0000216630Y0000060000
X0000202500Y0000112500
X0000202500Y0000117500
X0000211500Y0000117500
X0000213000Y0000139500
X0000210000Y0000170000
X0000215000Y0000195000
X0000212500Y0000200000
X0000210000Y0000204000
X0000215000Y0000260000
X0000204500Y0000284000
X0000204500Y0000289000
X0000207500Y0000307500
X0000207500Y0000312500
X0000212500Y0000312500
X0000217500Y0000312500
X0000217516Y0000317484
X0000217500Y0000322500
X0000217500Y0000327500
X0000217500Y0000331500
X0000217500Y0000337500
X0000212500Y0000342500
X0000217500Y0000342500
X0000217594Y0000347405
X0000207500Y0000347500
X0000212500Y0000347500
X0000207500Y0000352500
X0000212500Y0000352500
X0000217500Y0000352500
X0000217500Y0000362500
X0000212500Y0000367500
X0000217500Y0000367500
X0000212500Y0000372500
X0000217500Y0000372602
X0000212500Y0000377500
X0000217500Y0000377500
X0000205500Y0000420000
X0000224500Y0000420000
X0000225000Y0000387500
X0000230000Y0000382500
X0000225000Y0000382500
X0000230000Y0000377500
X0000225000Y0000377500
X0000230000Y0000372500
X0000225000Y0000372500
X0000230000Y0000367500
X0000225000Y0000367500
X0000230000Y0000362500
X0000225000Y0000362500
X0000225000Y0000357500
X0000230000Y0000352500
X0000225000Y0000352500
X0000230000Y0000347500
X0000225000Y0000347500
X0000230000Y0000342500
X0000225000Y0000342500
X0000230000Y0000337500
X0000225000Y0000337500
X0000225000Y0000332500
X0000230000Y0000330000
X0000225000Y0000326500
X0000230000Y0000322500
X0000230016Y0000317484
X0000230000Y0000312500
X0000227000Y0000263500
X0000230000Y0000230000
X0000220000Y0000230000
X0000238000Y0000227000
X0000224000Y0000225500
X0000230000Y0000220000
X0000220000Y0000220000
X0000238000Y0000219500
X0000230000Y0000214500
X0000237565Y0000189483
X0000232565Y0000189483
X0000220500Y0000158097
X0000220179Y0000146869
X0000225935Y0000135483
X0000225700Y0000127041
X0000225700Y0000122000
X0000225700Y0000118000
X0000238000Y0000116500
X0000232000Y0000116500
X0000234630Y0000094130
X0000227630Y0000094000
X0000232687Y0000065557
X0000237630Y0000065500
X0000227630Y0000062000
X0000232687Y0000060557
X0000237630Y0000060500
X0000227630Y0000057500
X0000233130Y0000055500
X0000227630Y0000052000
X0000238500Y0000046000
X0000233630Y0000046000
X0000227630Y0000046000
X0000233130Y0000039500
X0000227630Y0000039500
X0000233130Y0000033000
X0000227630Y0000033000
X0000233130Y0000029000
X0000227630Y0000029000
X0000235630Y0000016650
X0000231630Y0000016650
X0000228130Y0000016650
X0000235630Y0000013500
X0000231630Y0000013500
X0000228130Y0000013500
X0000235000Y0000003000
X0000225000Y0000003000
X0000245000Y0000003000
X0000252500Y0000003000
X0000241630Y0000014000
X0000245630Y0000014000
X0000249630Y0000014000
X0000254130Y0000014000
X0000258130Y0000014000
X0000241630Y0000017150
X0000245630Y0000017150
X0000249630Y0000017150
X0000254130Y0000017150
X0000258130Y0000017150
X0000250000Y0000039000
X0000248630Y0000054200
X0000251630Y0000054200
X0000248630Y0000057000
X0000251630Y0000057000
X0000242000Y0000110500
X0000252000Y0000110500
X0000244021Y0000122000
X0000245935Y0000129483
X0000251935Y0000129483
X0000255935Y0000129483
X0000241049Y0000132483
X0000254516Y0000139500
X0000247500Y0000152000
X0000243000Y0000152500
X0000242565Y0000161983
X0000247565Y0000173983
X0000252565Y0000173983
X0000257565Y0000173983
X0000242565Y0000178483
X0000247565Y0000178483
X0000252565Y0000178483
X0000257565Y0000178483
X0000244000Y0000189500
X0000248565Y0000190983
X0000254065Y0000190983
X0000240000Y0000240000
X0000256000Y0000306500
X0000252500Y0000310000
X0000240000Y0000312500
X0000249500Y0000314500
X0000240000Y0000322500
X0000254000Y0000326500
X0000240000Y0000327500
X0000245000Y0000327500
X0000240000Y0000332500
X0000245000Y0000332500
X0000240000Y0000340000
X0000245000Y0000340000
X0000240000Y0000347500
X0000245000Y0000347500
X0000240000Y0000352500
X0000240000Y0000357500
X0000245000Y0000357500
X0000250000Y0000357500
X0000240000Y0000362500
X0000245000Y0000362500
X0000250000Y0000362500
X0000255000Y0000382500
X0000252500Y0000389500
X0000259000Y0000402000
X0000245000Y0000435000
X0000250000Y0000445000
X0000242500Y0000445500
X0000276000Y0000445500
X0000265500Y0000445500
X0000276642Y0000434000
X0000270736Y0000434000
X0000264831Y0000434000
X0000263000Y0000426000
X0000278094Y0000425850
X0000269283Y0000425850
X0000266283Y0000425850
X0000275189Y0000421500
X0000272189Y0000421500
X0000276500Y0000419000
X0000270500Y0000419000
X0000274500Y0000411500
X0000269500Y0000411500
X0000269500Y0000406500
X0000274500Y0000401500
X0000269500Y0000401500
X0000270000Y0000390500
X0000265000Y0000390000
X0000260000Y0000390000
X0000265000Y0000385000
X0000260000Y0000385000
X0000270000Y0000383500
X0000270000Y0000380000
X0000265000Y0000380000
X0000265000Y0000375000
X0000268500Y0000369500
X0000275000Y0000367500
X0000271000Y0000366500
X0000266000Y0000366500
X0000271000Y0000362500
X0000266000Y0000362500
X0000268500Y0000359500
X0000260500Y0000355500
X0000260500Y0000349500
X0000264500Y0000344500
X0000260500Y0000344500
X0000274500Y0000340886
X0000265500Y0000336000
X0000260500Y0000334000
X0000265500Y0000331000
X0000275000Y0000260000
X0000265000Y0000260000
X0000275000Y0000250000
X0000265000Y0000250000
X0000275000Y0000240000
X0000265000Y0000240000
X0000275000Y0000230000
X0000265000Y0000230000
X0000275000Y0000220000
X0000265000Y0000220000
X0000260565Y0000190483
X0000270565Y0000189483
X0000270565Y0000184483
X0000278500Y0000173500
X0000266000Y0000170500
X0000261065Y0000170500
X0000271065Y0000170435
X0000278565Y0000169983
X0000271000Y0000152500
X0000266000Y0000152500
X0000261065Y0000152500
X0000260935Y0000139500
X0000267565Y0000134483
X0000265427Y0000129991
X0000261935Y0000126483
X0000278500Y0000108000
X0000273500Y0000108000
X0000268500Y0000108000
X0000278500Y0000103000
X0000273500Y0000103000
X0000268500Y0000103000
X0000275130Y0000080614
X0000272430Y0000074100
X0000269730Y0000071700
X0000273730Y0000071100
X0000272610Y0000067980
X0000266500Y0000064000
X0000266500Y0000060500
X0000266500Y0000057000
X0000278630Y0000055500
X0000269130Y0000038500
X0000269130Y0000035000
X0000265130Y0000035000
X0000269130Y0000031000
X0000273130Y0000030500
X0000269130Y0000027000
X0000265130Y0000027000
X0000274630Y0000025500
X0000274630Y0000022000
X0000270630Y0000017150
X0000266630Y0000017150
X0000262130Y0000017150
X0000277000Y0000014000
X0000270630Y0000014000
X0000266630Y0000014000
X0000262130Y0000014000
X0000277500Y0000003000
X0000267500Y0000003000
X0000260000Y0000003000
X0000289500Y0000003100
X0000282244Y0000022000
X0000290630Y0000025000
X0000298000Y0000026000
X0000297000Y0000030500
X0000285130Y0000036000
X0000297000Y0000036000
X0000285200Y0000041100
X0000297000Y0000041500
X0000297000Y0000047000
X0000285630Y0000047500
X0000284130Y0000055500
X0000292744Y0000055500
X0000285130Y0000066500
X0000285130Y0000072000
X0000287130Y0000080614
X0000283500Y0000103000
X0000283500Y0000108000
X0000282565Y0000169983
X0000282565Y0000173483
X0000280500Y0000183983
X0000290500Y0000221500
X0000290500Y0000227000
X0000290000Y0000233000
X0000290000Y0000239500
X0000290000Y0000245500
X0000290000Y0000250500
X0000290000Y0000256000
X0000290000Y0000261000
X0000288000Y0000326500
X0000282430Y0000337000
X0000286430Y0000337000
X0000290630Y0000337000
X0000282430Y0000341000
X0000286430Y0000341000
X0000290630Y0000341000
X0000282430Y0000345000
X0000286430Y0000345000
X0000290630Y0000345000
X0000295000Y0000350000
X0000285500Y0000355000
X0000295000Y0000355000
X0000290500Y0000377500
X0000293500Y0000377500
X0000295000Y0000412500
X0000295000Y0000417500
X0000281094Y0000425850
X0000284500Y0000426000
X0000282500Y0000434000
X0000288500Y0000434000
X0000294359Y0000434000
X0000290500Y0000440000
X0000285000Y0000445000
X0000295000Y0000445000
X0000305000Y0000445000
X0000303000Y0000439500
X0000300264Y0000434000
X0000307500Y0000425000
X0000315000Y0000422500
X0000315000Y0000417500
X0000310000Y0000417500
X0000305000Y0000417500
X0000300000Y0000417500
X0000315000Y0000412500
X0000310000Y0000412500
X0000305000Y0000412500
X0000302000Y0000401500
X0000300000Y0000398000
X0000300000Y0000392500
X0000308000Y0000356000
X0000308000Y0000351000
X0000308000Y0000346000
X0000308000Y0000341000
X0000308000Y0000336000
X0000318000Y0000331500
X0000308000Y0000331000
X0000318000Y0000325500
X0000318000Y0000320000
X0000318000Y0000313500
X0000318000Y0000308500
X0000314989Y0000299989
X0000310000Y0000300000
X0000315000Y0000295000
X0000310000Y0000295000
X0000315000Y0000290000
X0000310000Y0000290000
X0000303000Y0000263500
X0000307500Y0000263185
X0000307500Y0000256185
X0000307500Y0000248185
X0000307500Y0000240000
X0000307500Y0000232185
X0000307500Y0000225000
X0000318000Y0000221000
X0000318000Y0000216500
X0000312500Y0000192500
X0000317500Y0000172000
X0000318500Y0000101000
X0000318500Y0000096500
X0000318500Y0000090000
X0000318500Y0000086000
X0000315000Y0000082500
X0000304872Y0000067872
X0000300872Y0000067872
X0000301000Y0000041500
X0000310630Y0000015000
X0000310630Y0000005000
X0000300630Y0000005000
X0000320630Y0000005000
X0000320630Y0000015000
X0000322000Y0000082500
X0000338500Y0000089500
X0000322000Y0000093000
X0000327000Y0000099000
X0000331000Y0000099000
X0000338500Y0000101000
X0000327000Y0000103500
X0000331000Y0000103500
X0000322130Y0000119000
X0000326130Y0000119000
X0000330130Y0000119000
X0000333630Y0000119000
X0000322130Y0000128000
X0000326130Y0000128000
X0000330130Y0000128000
X0000331630Y0000136500
X0000321630Y0000142500
X0000331630Y0000142500
X0000332500Y0000154000
X0000320000Y0000155000
X0000332500Y0000158500
X0000327130Y0000159000
X0000330000Y0000162206
X0000333000Y0000162206
X0000330630Y0000195000
X0000330630Y0000205000
X0000330630Y0000215000
X0000322500Y0000216500
X0000322500Y0000221000
X0000333000Y0000241157
X0000330630Y0000250000
X0000330630Y0000260000
X0000328500Y0000285500
X0000326000Y0000288000
X0000331000Y0000288000
X0000329000Y0000296000
X0000329000Y0000302166
X0000326130Y0000303378
X0000326130Y0000306878
X0000329130Y0000308000
X0000321130Y0000309283
X0000321130Y0000312783
X0000328630Y0000313793
X0000325630Y0000315189
X0000325630Y0000318689
X0000328638Y0000319697
X0000321130Y0000321094
X0000321130Y0000324594
X0000328630Y0000325604
X0000325630Y0000327000
X0000325630Y0000330500
X0000328638Y0000331508
X0000320000Y0000417500
X0000320000Y0000422500
X0000329000Y0000423500
X0000321500Y0000437000
X0000322500Y0000445000
X0000350000Y0000420000
X0000341000Y0000419500
X0000350000Y0000410000
X0000343500Y0000409500
X0000351000Y0000396500
X0000351000Y0000384000
X0000351000Y0000370000
X0000351000Y0000358000
X0000351000Y0000345500
X0000351000Y0000325000
X0000351000Y0000315500
X0000350630Y0000310000
X0000350630Y0000300000
X0000350630Y0000290000
X0000350630Y0000280000
X0000350630Y0000270000
X0000340500Y0000266000
X0000350630Y0000260000
X0000340630Y0000260000
X0000350630Y0000245000
X0000340630Y0000245000
X0000350630Y0000235000
X0000340630Y0000235000
X0000350630Y0000225000
X0000340000Y0000222500
X0000350630Y0000215000
X0000340630Y0000215000
X0000350630Y0000205000
X0000340630Y0000205000
X0000350630Y0000195000
X0000340630Y0000195000
X0000350500Y0000166159
X0000342500Y0000166142
X0000351000Y0000162000
X0000344200Y0000161024
X0000351000Y0000158662
X0000343630Y0000157500
X0000340000Y0000157500
X0000351000Y0000155500
X0000343500Y0000153000
X0000340000Y0000153000
X0000351000Y0000149500
X0000343480Y0000147483
X0000339980Y0000147483
X0000351000Y0000142144
X0000343480Y0000141983
X0000339980Y0000141983
X0000351000Y0000137419
X0000343480Y0000136483
X0000339980Y0000136483
X0000350500Y0000125000
X0000342500Y0000122500
X0000349500Y0000122000
X0000345630Y0000115000
X0000349500Y0000111500
X0000340000Y0000111500
X0000345630Y0000105000
X0000350000Y0000100000
X0000345630Y0000095000
X0000350000Y0000090000
X0000345630Y0000085000
X0000348500Y0000078500
X0000341000Y0000078000
X0000348500Y0000066000
X0000341000Y0000066000
X0000348500Y0000058500
X0000341000Y0000058500
X0000348500Y0000051000
X0000341000Y0000051000
X0000348500Y0000044000
X0000341000Y0000044000
T02
X0000047637Y0000173031
X0000047637Y0000182874
X0000047637Y0000190748
X0000047637Y0000200591
T03
X0000043307Y0000161024
X0000043307Y0000212599
T04
X0000022083Y0000256293
X0000022083Y0000279049
T05
X0000095548Y0000247007
X0000225469Y0000247007
X0000225469Y0000435984
X0000095548Y0000435984
T06
X0000015748Y0000015748
X0000338619Y0000015748
X0000338619Y0000437008
X0000015748Y0000437008
M30
