G04 ================== begin FILE IDENTIFICATION RECORD ==================*
G04 Layout Name:  D:/PCB_Project/CutiePi/CutiePi_V2_3/CutiePi_V2_3.brd*
G04 Film Name:    GND05*
G04 File Format:  Gerber RS274X*
G04 File Origin:  Cadence Allegro 16.6-2015-S108*
G04 Origin Date:  Wed Apr 14 11:34:06 2021*
G04 *
G04 Layer:  ETCH/GND05*
G04 Layer:  PIN/GND05*
G04 Layer:  VIA CLASS/GND05*
G04 *
G04 Offset:    (0.000 0.000)*
G04 Mirror:    No*
G04 Mode:      Positive*
G04 Rotation:  0*
G04 FullContactRelief:  No*
G04 UndefLineWidth:     6.000*
G04 ================== end FILE IDENTIFICATION RECORD ====================*
%FSAX55Y55*MOIN*%
%IR0*IPPOS*OFA0.00000B0.00000*MIA0B0*SFA1.00000B1.00000*%
%ADD17C,.1*%
%ADD13O,.100394X.059055*%
%ADD20C,.106299*%
%ADD11C,.02*%
%ADD18C,.06*%
%ADD19R,.06X.06*%
%ADD15C,.025591*%
%ADD16O,.047244X.055118*%
%ADD12O,.062992X.03937*%
%ADD10C,.019689*%
%ADD14O,.082677X.03937*%
%ADD21C,.032*%
%ADD22C,.025*%
%ADD26C,.276854*%
%ADD23C,.032004*%
%ADD29R,.080004X.080004*%
%ADD28C,.072004*%
%ADD24O,.067248X.075122*%
%ADD25O,.059248X.067122*%
%ADD27C,.049596*%
G75*
%LPD*%
G75*
G36*
G01X0000002000Y0000342018D02*
G02X0000002492Y0000342407I0000000400J0D01*
G03X0000003301Y0000342314I0000000810J0000003459D01*
G01X0000007435Y0000342314D01*
G03X0000007435Y0000349420I0J0000003553D01*
G01X0000003301Y0000349420D01*
G03X0000002492Y0000349326I0J-0000003553D01*
G02X0000002000Y0000349716I-0000000091J0000000389D01*
G01X0000002000Y0000364346D01*
G03X0000009874Y0000374015I-0000002000J0000009670D01*
G01X0000009874Y0000409449D01*
G03X0000002000Y0000419118I-0000009874J0D01*
G01X0000002000Y0000431159D01*
G02X0000002767Y0000431319I0000000400J0D01*
G03X0000021437Y0000449989I0000012981J0000005689D01*
G02X0000021597Y0000450755I0000000161J0000000366D01*
G01X0000148689Y0000450755D01*
X0000148689Y0000424177D01*
X0000218242Y0000424177D01*
G03X0000232647Y0000424148I0000007226J0000011807D01*
G01X0000232695Y0000424177D01*
X0000233177Y0000424177D01*
X0000234453Y0000425453D01*
X0000234459Y0000425458D01*
G03X0000236000Y0000426999I-0000008991J0000010526D01*
G01X0000239500Y0000430500D01*
X0000239500Y0000450755D01*
X0000332769Y0000450755D01*
G02X0000332929Y0000449989I0J-0000000400D01*
G03X0000351600Y0000431319I0000005690J-0000012981D01*
G02X0000352367Y0000431158I0000000366J-0000000161D01*
G01X0000352367Y0000163751D01*
G02X0000351773Y0000163401I-0000000400J0D01*
G03X0000350118Y0000160665I-0000000773J-0000001401D01*
G02X0000350118Y0000159997I-0000000221J-0000000334D01*
G03X0000351773Y0000157261I0000000882J-0000001335D01*
G02X0000352367Y0000156911I0000000193J-0000000350D01*
G01X0000352367Y0000021597D01*
G02X0000351600Y0000021437I-0000000400J0D01*
G03X0000332929Y0000002767I-0000012982J-0000005689D01*
G02X0000332769Y0000002000I-0000000161J-0000000366D01*
G01X0000021597Y0000002000D01*
G02X0000021437Y0000002767I0J0000000400D01*
G03X0000002767Y0000021437I-0000005689J0000012981D01*
G02X0000002000Y0000021597I-0000000366J0000000161D01*
G01X0000002000Y0000070504D01*
G02X0000002400Y0000070903I0000000400J0D01*
G01X0000003000Y0000070903D01*
X0000003000Y0000070902D01*
X0000007900Y0000070902D01*
G03X0000012300Y0000075302I0J0000004400D01*
G01X0000012300Y0000092023D01*
G03X0000007900Y0000096423I-0000004400J0D01*
G01X0000002400Y0000096423D01*
G02X0000002000Y0000096823I0J0000000400D01*
G01X0000002000Y0000155000D01*
G02X0000005000Y0000158000I0000003000J0D01*
G01X0000031130Y0000158000D01*
G03X0000036974Y0000161146I0J0000007000D01*
G02X0000037708Y0000160932I0000000334J-0000000220D01*
G03X0000038841Y0000164402I0000005599J0000000092D01*
G02X0000038122Y0000164663I-0000000319J0000000241D01*
G03X0000038130Y0000165000I-0000006992J0000000337D01*
G01X0000038130Y0000208500D01*
G03X0000038115Y0000208962I-0000007000J0D01*
G02X0000038834Y0000209229I0000000399J0000000026D01*
G03X0000037707Y0000212577I0000004473J0000003369D01*
G02X0000036973Y0000212356I-0000000400J-0000000002D01*
G03X0000031130Y0000215500I-0000005843J-0000003855D01*
G01X0000005000Y0000215500D01*
G02X0000002000Y0000218500I0J0000003000D01*
G01X0000002000Y0000317608D01*
G02X0000002492Y0000317998I0000000400J0D01*
G03X0000003301Y0000317904I0000000810J0000003459D01*
G01X0000007435Y0000317904D01*
G03X0000007435Y0000325010I0J0000003553D01*
G01X0000003301Y0000325010D01*
G03X0000002492Y0000324917I0J-0000003553D01*
G02X0000002000Y0000325306I-0000000091J0000000389D01*
G01X0000002000Y0000342018D01*
G37*
%LPC*%
G75*
G36*
G01X0000021886Y0000282111D02*
G02X0000021886Y0000287248I0J0000002569D01*
G01X0000026216Y0000287248D01*
G02X0000026216Y0000282111I0J-0000002569D01*
G01X0000021886Y0000282111D01*
G37*
G36*
G01X0000021886Y0000248095D02*
G02X0000021886Y0000253232I0J0000002569D01*
G01X0000026216Y0000253232D01*
G02X0000026216Y0000248095I0J-0000002569D01*
G01X0000021886Y0000248095D01*
G37*
G36*
G01X0000016529Y0000342314D02*
G02X0000016529Y0000349420I0J0000003553D01*
G01X0000020663Y0000349420D01*
G02X0000020663Y0000342314I0J-0000003553D01*
G01X0000016529Y0000342314D01*
G37*
G36*
G01X0000016529Y0000317904D02*
G02X0000016529Y0000325010I0J0000003553D01*
G01X0000020663Y0000325010D01*
G02X0000020663Y0000317904I0J-0000003553D01*
G01X0000016529Y0000317904D01*
G37*
G36*
G01X0000006413Y0000282111D02*
G02X0000006413Y0000287248I0J0000002569D01*
G01X0000008776Y0000287248D01*
G02X0000008776Y0000282111I0J-0000002569D01*
G01X0000006413Y0000282111D01*
G37*
G36*
G01X0000006413Y0000248095D02*
G02X0000006413Y0000253232I0J0000002569D01*
G01X0000008776Y0000253232D01*
G02X0000008776Y0000248095I0J-0000002569D01*
G01X0000006413Y0000248095D01*
G37*
G36*
G01X0000279458Y0000427313D02*
G03X0000279731Y0000427313I0000000136J0000000146D01*
G02X0000279731Y0000424387I0000001364J-0000001463D01*
G03X0000279458Y0000424387I-0000000136J-0000000146D01*
G02X0000279458Y0000427313I-0000001364J0000001463D01*
G37*
G36*
G01X0000267647Y0000427313D02*
G03X0000267920Y0000427313I0000000136J0000000146D01*
G02X0000267920Y0000424387I0000001364J-0000001463D01*
G03X0000267647Y0000424387I-0000000136J-0000000146D01*
G02X0000267647Y0000427313I-0000001364J0000001463D01*
G37*
G36*
G01X0000273552Y0000422963D02*
G03X0000273825Y0000422963I0000000136J0000000146D01*
G02X0000273825Y0000420037I0000001364J-0000001463D01*
G03X0000273552Y0000420037I-0000000136J-0000000146D01*
G02X0000273552Y0000422963I-0000001364J0000001463D01*
G37*
G36*
G01X0000105963Y0000386136D02*
G03X0000105963Y0000385864I0000000146J-0000000136D01*
G02X0000103037Y0000385864I-0000001463J-0000001364D01*
G03X0000103037Y0000386136I-0000000146J0000000136D01*
G02X0000105963Y0000386136I0000001463J0000001364D01*
G37*
G36*
G01X0000081463Y0000386136D02*
G03X0000081463Y0000385864I0000000146J-0000000136D01*
G02X0000078537Y0000385864I-0000001463J-0000001364D01*
G03X0000078537Y0000386136I-0000000146J0000000136D01*
G02X0000081463Y0000386136I0000001463J0000001364D01*
G37*
G36*
G01X0000120463Y0000381548D02*
G03X0000120463Y0000381275I0000000146J-0000000136D01*
G02X0000117537Y0000381275I-0000001463J-0000001364D01*
G03X0000117537Y0000381548I-0000000146J0000000136D01*
G02X0000120463Y0000381548I0000001463J0000001364D01*
G37*
G36*
G01X0000292300Y0000376441D02*
G03X0000291700Y0000376441I-0000000300J-0000000265D01*
G02X0000291700Y0000378559I-0000001200J0000001059D01*
G03X0000292300Y0000378559I0000000300J0000000265D01*
G02X0000292300Y0000376441I0000001200J-0000001059D01*
G37*
G36*
G01X0000108963Y0000376636D02*
G03X0000108963Y0000376364I0000000146J-0000000136D01*
G02X0000106037Y0000376364I-0000001463J-0000001364D01*
G03X0000106037Y0000376636I-0000000146J0000000136D01*
G02X0000108963Y0000376636I0000001463J0000001364D01*
G37*
G36*
G01X0000120963Y0000371136D02*
G03X0000120963Y0000370864I0000000146J-0000000136D01*
G02X0000118037Y0000370864I-0000001463J-0000001364D01*
G03X0000118037Y0000371136I-0000000146J0000000136D01*
G02X0000120963Y0000371136I0000001463J0000001364D01*
G37*
G36*
G01X0000076463Y0000363862D02*
G03X0000076463Y0000363590I0000000146J-0000000136D01*
G02X0000073537Y0000363590I-0000001463J-0000001364D01*
G03X0000073537Y0000363862I-0000000146J0000000136D01*
G02X0000076463Y0000363862I0000001463J0000001364D01*
G37*
G36*
G01X0000078463Y0000353136D02*
G03X0000078463Y0000352864I0000000146J-0000000136D01*
G02X0000075537Y0000352864I-0000001463J-0000001364D01*
G03X0000075537Y0000353136I-0000000146J0000000136D01*
G02X0000078463Y0000353136I0000001463J0000001364D01*
G37*
G36*
G01X0000133963Y0000348996D02*
G03X0000133963Y0000348724I0000000146J-0000000136D01*
G02X0000131037Y0000348724I-0000001463J-0000001364D01*
G03X0000131037Y0000348996I-0000000146J0000000136D01*
G02X0000133963Y0000348996I0000001463J0000001364D01*
G37*
G36*
G01X0000065224Y0000345963D02*
G03X0000065496Y0000345963I0000000136J0000000146D01*
G02X0000065496Y0000343037I0000001364J-0000001463D01*
G03X0000065224Y0000343037I-0000000136J-0000000146D01*
G02X0000065224Y0000345963I-0000001364J0000001463D01*
G37*
G36*
G01X0000081463Y0000343605D02*
G03X0000081463Y0000343332I0000000146J-0000000136D01*
G02X0000078537Y0000343332I-0000001463J-0000001364D01*
G03X0000078537Y0000343605I-0000000146J0000000136D01*
G02X0000081463Y0000343605I0000001463J0000001364D01*
G37*
G36*
G01X0000141463Y0000342996D02*
G03X0000141463Y0000342724I0000000146J-0000000136D01*
G02X0000138537Y0000342724I-0000001463J-0000001364D01*
G03X0000138537Y0000342996I-0000000146J0000000136D01*
G02X0000141463Y0000342996I0000001463J0000001364D01*
G37*
G36*
G01X0000073224Y0000339463D02*
G03X0000073496Y0000339463I0000000136J0000000146D01*
G02X0000073496Y0000336537I0000001364J-0000001463D01*
G03X0000073224Y0000336537I-0000000136J-0000000146D01*
G02X0000073224Y0000339463I-0000001364J0000001463D01*
G37*
G36*
G01X0000096463Y0000338880D02*
G03X0000096463Y0000338608I0000000146J-0000000136D01*
G02X0000093537Y0000338608I-0000001463J-0000001364D01*
G03X0000093537Y0000338880I-0000000146J0000000136D01*
G02X0000096463Y0000338880I0000001463J0000001364D01*
G37*
G36*
G01X0000133963Y0000336496D02*
G03X0000133963Y0000336224I0000000146J-0000000136D01*
G02X0000131037Y0000336224I-0000001463J-0000001364D01*
G03X0000131037Y0000336496I-0000000146J0000000136D01*
G02X0000133963Y0000336496I0000001463J0000001364D01*
G37*
G36*
G01X0000081463Y0000334156D02*
G03X0000081463Y0000333883I0000000146J-0000000136D01*
G02X0000078537Y0000333883I-0000001463J-0000001364D01*
G03X0000078537Y0000334156I-0000000146J0000000136D01*
G02X0000081463Y0000334156I0000001463J0000001364D01*
G37*
G36*
G01X0000012809Y0000340619D02*
G03X0000012698Y0000340026I0000000202J-0000000345D01*
G02X0000012593Y0000337420I-0000001568J-0000001242D01*
G03X0000012593Y0000337147I0000000146J-0000000136D01*
G02X0000012622Y0000334451I-0000001463J-0000001364D01*
G03X0000012622Y0000334185I0000000149J-0000000133D01*
G02X0000012593Y0000331489I-0000001492J-0000001332D01*
G03X0000012593Y0000331216I0000000146J-0000000136D01*
G02X0000009667Y0000331216I-0000001463J-0000001364D01*
G03X0000009667Y0000331489I-0000000146J0000000136D01*
G02X0000009638Y0000334185I0000001463J0000001364D01*
G03X0000009638Y0000334451I-0000000149J0000000133D01*
G02X0000009667Y0000337147I0000001492J0000001332D01*
G03X0000009667Y0000337420I-0000000146J0000000136D01*
G02X0000010402Y0000340647I0000001463J0000001364D01*
G03X0000010605Y0000341216I-0000000146J0000000373D01*
G02X0000012809Y0000340619I0000001395J0000000785D01*
G37*
G36*
G01X0000141463Y0000330496D02*
G03X0000141463Y0000330224I0000000146J-0000000136D01*
G02X0000138537Y0000330224I-0000001463J-0000001364D01*
G03X0000138537Y0000330496I-0000000146J0000000136D01*
G02X0000141463Y0000330496I0000001463J0000001364D01*
G37*
G36*
G01X0000326999Y0000329042D02*
G03X0000326999Y0000328458I0000000274J-0000000292D01*
G02X0000324261Y0000328458I-0000001369J-0000001458D01*
G03X0000324261Y0000329042I-0000000274J0000000292D01*
G02X0000326999Y0000329042I0000001369J0000001458D01*
G37*
G36*
G01X0000030844Y0000327941D02*
G03X0000030844Y0000328214I-0000000146J0000000136D01*
G02X0000030994Y0000331086I0000001463J0000001364D01*
G03X0000030993Y0000331691I-0000000263J0000000302D01*
G02X0000030837Y0000334568I0000001307J0000001514D01*
G03X0000030837Y0000334841I-0000000146J0000000136D01*
G02X0000033763Y0000334841I0000001463J0000001364D01*
G03X0000033763Y0000334568I0000000146J-0000000136D01*
G02X0000033613Y0000331696I-0000001463J-0000001364D01*
G03X0000033614Y0000331092I0000000263J-0000000302D01*
G02X0000033771Y0000328214I-0000001307J-0000001514D01*
G03X0000033771Y0000327941I0000000146J-0000000136D01*
G02X0000030844Y0000327941I-0000001463J-0000001364D01*
G37*
G36*
G01X0000133963Y0000324707D02*
G03X0000133963Y0000324434I0000000146J-0000000136D01*
G02X0000131037Y0000324434I-0000001463J-0000001364D01*
G03X0000131037Y0000324707I-0000000146J0000000136D01*
G02X0000133963Y0000324707I0000001463J0000001364D01*
G37*
G36*
G01X0000322499Y0000323135D02*
G03X0000322499Y0000322552I0000000274J-0000000292D01*
G02X0000319761Y0000322552I-0000001369J-0000001458D01*
G03X0000319761Y0000323135I-0000000274J0000000292D01*
G02X0000322499Y0000323135I0000001369J0000001458D01*
G37*
G36*
G01X0000326999Y0000317231D02*
G03X0000326999Y0000316647I0000000274J-0000000292D01*
G02X0000324261Y0000316647I-0000001369J-0000001458D01*
G03X0000324261Y0000317231I-0000000274J0000000292D01*
G02X0000326999Y0000317231I0000001369J0000001458D01*
G37*
G36*
G01X0000322499Y0000311324D02*
G03X0000322499Y0000310741I0000000274J-0000000292D01*
G02X0000319761Y0000310741I-0000001369J-0000001458D01*
G03X0000319761Y0000311324I-0000000274J0000000292D01*
G02X0000322499Y0000311324I0000001369J0000001458D01*
G37*
G36*
G01X0000327499Y0000305420D02*
G03X0000327499Y0000304836I0000000274J-0000000292D01*
G02X0000324761Y0000304836I-0000001369J-0000001458D01*
G03X0000324761Y0000305420I-0000000274J0000000292D01*
G02X0000327499Y0000305420I0000001369J0000001458D01*
G37*
G36*
G01X0000019956Y0000269940D02*
G03X0000019956Y0000269340I0000000265J-0000000300D01*
G02X0000017839Y0000269340I-0000001059J-0000001200D01*
G03X0000017839Y0000269940I-0000000265J0000000300D01*
G02X0000019956Y0000269940I0000001059J0000001200D01*
G37*
G36*
G01X0000033488Y0000266503D02*
G03X0000033488Y0000265903I0000000265J-0000000300D01*
G02X0000031370Y0000265903I-0000001059J-0000001200D01*
G03X0000031370Y0000266503I-0000000265J0000000300D01*
G02X0000033488Y0000266503I0000001059J0000001200D01*
G37*
G36*
G01X0000031400Y0000255016D02*
G03X0000031000Y0000255416I-0000000400J0D01*
G02X0000032600Y0000257016I0J0000001600D01*
G03X0000033000Y0000256616I0000000400J0D01*
G02X0000031400Y0000255016I0J-0000001600D01*
G37*
G36*
G01X0000063930Y0000176941D02*
G03X0000063330Y0000176941I-0000000300J-0000000265D01*
G02X0000063330Y0000179059I-0000001200J0000001059D01*
G03X0000063930Y0000179059I0000000300J0000000265D01*
G02X0000063930Y0000176941I0000001200J-0000001059D01*
G37*
G36*
G01X0000341512Y0000158809D02*
G03X0000342118Y0000158809I0000000303J0000000262D01*
G02X0000342849Y0000159341I0000001513J-0000001309D01*
G03X0000342994Y0000159972I-0000000156J0000000368D01*
G02X0000345013Y0000159646I0000001206J0000001052D01*
G03X0000344952Y0000159001I0000000203J-0000000345D01*
G02X0000342118Y0000156191I-0000001322J-0000001501D01*
G03X0000341512Y0000156191I-0000000303J-0000000262D01*
G02X0000341512Y0000158809I-0000001513J0000001309D01*
G37*
G36*
G01X0000342042Y0000151631D02*
G03X0000341458Y0000151631I-0000000292J-0000000274D01*
G02X0000341458Y0000154369I-0000001458J0000001369D01*
G03X0000342042Y0000154369I0000000292J0000000274D01*
G02X0000342042Y0000151631I0000001458J-0000001369D01*
G37*
G36*
G01X0000342022Y0000146114D02*
G03X0000341439Y0000146114I-0000000292J-0000000274D01*
G02X0000341439Y0000148852I-0000001458J0000001369D01*
G03X0000342022Y0000148852I0000000292J0000000274D01*
G02X0000342022Y0000146114I0000001458J-0000001369D01*
G37*
G36*
G01X0000342022Y0000140614D02*
G03X0000341439Y0000140614I-0000000292J-0000000274D01*
G02X0000341439Y0000143352I-0000001458J0000001369D01*
G03X0000342022Y0000143352I0000000292J0000000274D01*
G02X0000342022Y0000140614I0000001458J-0000001369D01*
G37*
G36*
G01X0000342022Y0000135114D02*
G03X0000341439Y0000135114I-0000000292J-0000000274D01*
G02X0000341439Y0000137852I-0000001458J0000001369D01*
G03X0000342022Y0000137852I0000000292J0000000274D01*
G02X0000342022Y0000135114I0000001458J-0000001369D01*
G37*
G36*
G01X0000263116Y0000015890D02*
G03X0000263116Y0000015260I0000000247J-0000000315D01*
G02X0000261144Y0000015260I-0000000986J-0000001260D01*
G03X0000261144Y0000015890I-0000000247J0000000315D01*
G02X0000263116Y0000015890I0000000986J0000001260D01*
G37*
G36*
G01X0000259116Y0000015890D02*
G03X0000259116Y0000015260I0000000247J-0000000315D01*
G02X0000257144Y0000015260I-0000000986J-0000001260D01*
G03X0000257144Y0000015890I-0000000247J0000000315D01*
G02X0000259116Y0000015890I0000000986J0000001260D01*
G37*
G36*
G01X0000255116Y0000015890D02*
G03X0000255116Y0000015260I0000000247J-0000000315D01*
G02X0000253144Y0000015260I-0000000986J-0000001260D01*
G03X0000253144Y0000015890I-0000000247J0000000315D01*
G02X0000255116Y0000015890I0000000986J0000001260D01*
G37*
G36*
G01X0000250616Y0000015890D02*
G03X0000250616Y0000015260I0000000247J-0000000315D01*
G02X0000248644Y0000015260I-0000000986J-0000001260D01*
G03X0000248644Y0000015890I-0000000247J0000000315D01*
G02X0000250616Y0000015890I0000000986J0000001260D01*
G37*
G36*
G01X0000246616Y0000015890D02*
G03X0000246616Y0000015260I0000000247J-0000000315D01*
G02X0000244644Y0000015260I-0000000986J-0000001260D01*
G03X0000244644Y0000015890I-0000000247J0000000315D01*
G02X0000246616Y0000015890I0000000986J0000001260D01*
G37*
G36*
G01X0000242616Y0000015890D02*
G03X0000242616Y0000015260I0000000247J-0000000315D01*
G02X0000240644Y0000015260I-0000000986J-0000001260D01*
G03X0000240644Y0000015890I-0000000247J0000000315D01*
G02X0000242616Y0000015890I0000000986J0000001260D01*
G37*
G36*
G01X0000032775Y0000395900D02*
G02X0000031225Y0000395900I-0000000775J-0000001400D01*
G03X0000031225Y0000396600I-0000000194J0000000350D01*
G02X0000032775Y0000396600I0000000775J0000001400D01*
G03X0000032775Y0000395900I0000000194J-0000000350D01*
G37*
G36*
G01X0000330029Y0000285971D02*
G02X0000326971Y0000285971I-0000001529J-0000000471D01*
G03X0000326471Y0000286471I-0000000382J0000000118D01*
G02X0000327529Y0000287529I-0000000471J0000001529D01*
G03X0000328029Y0000287029I0000000382J-0000000118D01*
G02X0000328971Y0000287029I0000000471J-0000001529D01*
G03X0000329471Y0000287529I0000000118J0000000382D01*
G02X0000330529Y0000286471I0000001529J0000000471D01*
G03X0000330029Y0000285971I-0000000118J-0000000382D01*
G37*
G36*
G01X0000051421Y0000181577D02*
G02X0000045851Y0000186453I-0000003784J0000001298D01*
G03X0000045851Y0000187169I-0000000179J0000000358D01*
G02X0000049424Y0000187169I0000001787J0000003579D01*
G03X0000049424Y0000186453I0000000179J-0000000358D01*
G02X0000051555Y0000183680I-0000001787J-0000003579D01*
G03X0000052258Y0000183509I0000000392J0000000081D01*
G02X0000054700Y0000183559I0000001242J-0000001009D01*
G03X0000055300Y0000183559I0000000300J0000000265D01*
G02X0000055300Y0000181441I0000001200J-0000001059D01*
G03X0000054700Y0000181441I-0000000300J-0000000265D01*
G02X0000052140Y0000181657I-0000001200J0000001059D01*
G03X0000051421Y0000181577I-0000000340J-0000000211D01*
G37*
G36*
G01X0000155400Y0000176225D02*
G02X0000155400Y0000177775I-0000001400J0000000775D01*
G03X0000156100Y0000177775I0000000350J0000000194D01*
G02X0000156100Y0000176225I0000001400J-0000000775D01*
G03X0000155400Y0000176225I-0000000350J-0000000194D01*
G37*
G36*
G01X0000283340Y0000171383D02*
G02X0000281790Y0000171383I-0000000775J-0000001400D01*
G03X0000281790Y0000172083I-0000000194J0000000350D01*
G02X0000283340Y0000172083I0000000775J0000001400D01*
G03X0000283340Y0000171383I0000000194J-0000000350D01*
G37*
G36*
G01X0000279301Y0000171404D02*
G02X0000277777Y0000171376I-0000000736J-0000001421D01*
G03X0000277764Y0000172079I-0000000197J0000000348D01*
G02X0000279288Y0000172107I0000000736J0000001421D01*
G03X0000279301Y0000171404I0000000197J-0000000348D01*
G37*
G36*
G01X0000331530Y0000118225D02*
G02X0000331530Y0000119775I-0000001400J0000000775D01*
G03X0000332230Y0000119775I0000000350J0000000194D01*
G02X0000332230Y0000118225I0000001400J-0000000775D01*
G03X0000331530Y0000118225I-0000000350J-0000000194D01*
G37*
G36*
G01X0000331800Y0000161147D02*
G03X0000331200Y0000161147I-0000000300J-0000000265D01*
G02X0000331200Y0000163264I-0000001200J0000001059D01*
G03X0000331800Y0000163264I0000000300J0000000265D01*
G02X0000331800Y0000161147I0000001200J-0000001059D01*
G37*
G54D26*
X0000095548Y0000247007D03*
X0000095548Y0000435984D03*
X0000225469Y0000247007D03*
G54D23*
X0000301000Y0000041500D03*
X0000297000Y0000041500D03*
X0000031000Y0000277120D03*
X0000029000Y0000404500D03*
X0000041323Y0000275516D03*
X0000045000Y0000340000D03*
X0000045000Y0000346000D03*
X0000039500Y0000343000D03*
X0000032500Y0000349500D03*
X0000032500Y0000356000D03*
X0000057500Y0000232500D03*
X0000051500Y0000232500D03*
X0000060500Y0000235000D03*
X0000057500Y0000237500D03*
X0000054500Y0000235000D03*
X0000051500Y0000237500D03*
X0000059000Y0000290000D03*
X0000055000Y0000313500D03*
X0000050000Y0000313500D03*
X0000060500Y0000313500D03*
X0000057500Y0000308500D03*
X0000060500Y0000317500D03*
X0000060500Y0000321500D03*
X0000050000Y0000317500D03*
X0000055000Y0000317500D03*
X0000055000Y0000321500D03*
X0000050000Y0000321500D03*
X0000055500Y0000340500D03*
X0000060000Y0000340500D03*
X0000060000Y0000336500D03*
X0000062000Y0000350000D03*
X0000078500Y0000067500D03*
X0000071886Y0000071500D03*
X0000070000Y0000215000D03*
X0000065000Y0000215000D03*
X0000077500Y0000210000D03*
X0000077500Y0000205000D03*
X0000065000Y0000220000D03*
X0000070000Y0000220000D03*
X0000080614Y0000289886D03*
X0000070000Y0000321500D03*
X0000065000Y0000321500D03*
X0000093500Y0000084000D03*
X0000086386Y0000118500D03*
X0000082500Y0000205000D03*
X0000082500Y0000210000D03*
X0000097500Y0000084000D03*
X0000113300Y0000152300D03*
X0000104000Y0000163500D03*
X0000113500Y0000182000D03*
X0000113500Y0000192000D03*
X0000104000Y0000348000D03*
X0000109000Y0000348000D03*
X0000104000Y0000353000D03*
X0000109000Y0000353000D03*
X0000124500Y0000014000D03*
X0000115000Y0000020008D03*
X0000124500Y0000032500D03*
X0000124500Y0000037000D03*
X0000117630Y0000064000D03*
X0000117630Y0000060000D03*
X0000121630Y0000064000D03*
X0000121630Y0000060000D03*
X0000125630Y0000064000D03*
X0000125630Y0000060000D03*
X0000120500Y0000163500D03*
X0000134000Y0000014000D03*
X0000130614Y0000016500D03*
X0000130614Y0000036000D03*
X0000134000Y0000032500D03*
X0000138000Y0000032500D03*
X0000137500Y0000129991D03*
X0000137500Y0000120000D03*
X0000137500Y0000125000D03*
X0000148000Y0000068500D03*
X0000162000Y0000123000D03*
X0000172630Y0000067000D03*
X0000167130Y0000067000D03*
X0000175000Y0000140000D03*
X0000175000Y0000167500D03*
X0000168500Y0000158500D03*
X0000165000Y0000167500D03*
X0000170000Y0000167500D03*
X0000187500Y0000204000D03*
X0000204630Y0000020000D03*
X0000208630Y0000020000D03*
X0000204630Y0000024000D03*
X0000208630Y0000024000D03*
X0000211630Y0000047000D03*
X0000211630Y0000051000D03*
X0000204500Y0000284000D03*
X0000204500Y0000289000D03*
X0000207500Y0000312500D03*
X0000207500Y0000307500D03*
X0000207500Y0000347500D03*
X0000207500Y0000352500D03*
X0000212630Y0000020000D03*
X0000212630Y0000024000D03*
X0000216630Y0000047000D03*
X0000216630Y0000051000D03*
X0000227630Y0000094000D03*
X0000220500Y0000158097D03*
X0000212500Y0000312500D03*
X0000225000Y0000326500D03*
X0000217500Y0000331500D03*
X0000225000Y0000347500D03*
X0000217500Y0000337500D03*
X0000225000Y0000337500D03*
X0000217500Y0000342500D03*
X0000212500Y0000347500D03*
X0000212500Y0000342500D03*
X0000217594Y0000347406D03*
X0000217500Y0000352500D03*
X0000225000Y0000362500D03*
X0000212500Y0000352500D03*
X0000212500Y0000377500D03*
X0000217500Y0000377500D03*
X0000225000Y0000377500D03*
X0000212500Y0000367500D03*
X0000225000Y0000367500D03*
X0000225000Y0000372500D03*
X0000212500Y0000372500D03*
X0000217500Y0000372602D03*
X0000225000Y0000382500D03*
X0000232687Y0000060557D03*
X0000232687Y0000065557D03*
X0000237630Y0000065500D03*
X0000237630Y0000060500D03*
X0000234630Y0000094130D03*
X0000243000Y0000152500D03*
X0000242565Y0000178483D03*
X0000232565Y0000189483D03*
X0000237565Y0000189483D03*
X0000240000Y0000312500D03*
X0000240000Y0000327500D03*
X0000245000Y0000332500D03*
X0000245000Y0000327500D03*
X0000240000Y0000332500D03*
X0000230000Y0000322500D03*
X0000245000Y0000347500D03*
X0000230000Y0000347500D03*
X0000240000Y0000340000D03*
X0000240000Y0000347500D03*
X0000245000Y0000340000D03*
X0000245000Y0000357500D03*
X0000230000Y0000352500D03*
X0000245000Y0000362500D03*
X0000240000Y0000362500D03*
X0000230000Y0000377500D03*
X0000230000Y0000372500D03*
X0000230000Y0000382500D03*
X0000250000Y0000039000D03*
X0000245935Y0000129483D03*
X0000254516Y0000139500D03*
X0000247500Y0000152000D03*
X0000247565Y0000173983D03*
X0000252565Y0000173983D03*
X0000257565Y0000173983D03*
X0000252565Y0000178483D03*
X0000257565Y0000178483D03*
X0000247565Y0000178483D03*
X0000249500Y0000314500D03*
X0000256000Y0000306500D03*
X0000252500Y0000310000D03*
X0000254000Y0000326500D03*
X0000260500Y0000344500D03*
X0000260500Y0000334000D03*
X0000250000Y0000362500D03*
X0000250000Y0000357500D03*
X0000260500Y0000349500D03*
X0000260500Y0000355500D03*
X0000260000Y0000390000D03*
X0000252500Y0000389500D03*
X0000255000Y0000382500D03*
X0000259000Y0000402000D03*
X0000273130Y0000030500D03*
X0000275130Y0000080614D03*
X0000273500Y0000103000D03*
X0000273500Y0000108000D03*
X0000268500Y0000108000D03*
X0000268500Y0000103000D03*
X0000267565Y0000134483D03*
X0000265427Y0000129991D03*
X0000261935Y0000126483D03*
X0000271000Y0000152500D03*
X0000271065Y0000170435D03*
X0000265500Y0000331000D03*
X0000265500Y0000336000D03*
X0000264500Y0000344500D03*
X0000268500Y0000359500D03*
X0000271000Y0000362500D03*
X0000266000Y0000362500D03*
X0000268500Y0000369500D03*
X0000271000Y0000366500D03*
X0000266000Y0000366500D03*
X0000275000Y0000367500D03*
X0000274500Y0000411500D03*
X0000269500Y0000411500D03*
X0000274500Y0000401500D03*
X0000269500Y0000401500D03*
X0000269500Y0000406500D03*
X0000285130Y0000036000D03*
X0000285630Y0000047500D03*
X0000278630Y0000055500D03*
X0000292744Y0000055500D03*
X0000278500Y0000103000D03*
X0000283500Y0000103000D03*
X0000283500Y0000108000D03*
X0000278500Y0000108000D03*
X0000290500Y0000221500D03*
X0000290500Y0000227000D03*
X0000290000Y0000250500D03*
X0000290000Y0000245500D03*
X0000290000Y0000256000D03*
X0000290000Y0000261000D03*
X0000304872Y0000067872D03*
X0000300872Y0000067872D03*
X0000307500Y0000263185D03*
X0000303000Y0000263500D03*
X0000310000Y0000300000D03*
X0000310000Y0000290000D03*
X0000310000Y0000295000D03*
X0000308000Y0000331000D03*
X0000295000Y0000355000D03*
X0000308000Y0000356000D03*
X0000295000Y0000350000D03*
X0000295000Y0000412500D03*
X0000307500Y0000425000D03*
X0000310000Y0000417500D03*
X0000305000Y0000417500D03*
X0000295000Y0000417500D03*
X0000300000Y0000417500D03*
X0000327000Y0000099000D03*
X0000327000Y0000103500D03*
X0000322130Y0000119000D03*
X0000326130Y0000119000D03*
X0000322130Y0000128000D03*
X0000326130Y0000128000D03*
X0000327130Y0000159000D03*
X0000317500Y0000172000D03*
X0000318000Y0000216500D03*
X0000322500Y0000216500D03*
X0000318000Y0000221000D03*
X0000322500Y0000221000D03*
X0000315000Y0000295000D03*
X0000315000Y0000290000D03*
X0000314989Y0000299989D03*
X0000320000Y0000417500D03*
X0000315000Y0000417500D03*
X0000320000Y0000422500D03*
X0000315000Y0000422500D03*
X0000331000Y0000099000D03*
X0000331000Y0000103500D03*
X0000330130Y0000128000D03*
G54D29*
X0000047637Y0000200591D03*
G54D28*
X0000047637Y0000173031D03*
G54D24*
X0000017520Y0000401575D03*
G54D25*
X0000017520Y0000381890D03*
G54D27*
X0000022083Y0000256293D03*
X0000022083Y0000279049D03*
%LPD*%
G75*
G54D10*
X0000015748Y0000015748D03*
X0000015748Y0000437008D03*
X0000338619Y0000015748D03*
X0000338619Y0000437008D03*
G54D11*
X0000005630Y0000035000D03*
X0000005000Y0000045000D03*
X0000005630Y0000055000D03*
X0000012500Y0000070000D03*
X0000004500Y0000069800D03*
X0000005630Y0000115000D03*
X0000005630Y0000105000D03*
X0000005630Y0000125000D03*
X0000005630Y0000135000D03*
X0000005630Y0000145000D03*
X0000003500Y0000227500D03*
X0000010000Y0000227500D03*
X0000003500Y0000220000D03*
X0000003500Y0000242500D03*
X0000003500Y0000235000D03*
X0000010000Y0000242500D03*
X0000010000Y0000235000D03*
X0000005630Y0000260000D03*
X0000012000Y0000257500D03*
X0000011000Y0000265500D03*
X0000005630Y0000280000D03*
X0000011000Y0000276000D03*
X0000005630Y0000270000D03*
X0000005630Y0000295000D03*
X0000005630Y0000305000D03*
X0000005630Y0000315000D03*
X0000005630Y0000330000D03*
X0000014500Y0000328500D03*
X0000011130Y0000329853D03*
X0000011130Y0000332853D03*
X0000005630Y0000340000D03*
X0000014000Y0000334000D03*
X0000014000Y0000339600D03*
X0000011130Y0000338784D03*
X0000011130Y0000335784D03*
X0000012000Y0000342000D03*
X0000005000Y0000355000D03*
X0000012500Y0000390000D03*
X0000015630Y0000035000D03*
X0000025630Y0000035000D03*
X0000025630Y0000045000D03*
X0000027992Y0000068992D03*
X0000015630Y0000055000D03*
X0000025000Y0000075000D03*
X0000017500Y0000075000D03*
X0000017500Y0000070000D03*
X0000025500Y0000090500D03*
X0000015500Y0000090500D03*
X0000025500Y0000097500D03*
X0000015500Y0000097500D03*
X0000025630Y0000115000D03*
X0000015630Y0000115000D03*
X0000015500Y0000105000D03*
X0000025500Y0000105000D03*
X0000025500Y0000125000D03*
X0000015500Y0000125000D03*
X0000015630Y0000135000D03*
X0000025630Y0000135000D03*
X0000015630Y0000145000D03*
X0000025630Y0000145000D03*
X0000025630Y0000155000D03*
X0000017500Y0000227500D03*
X0000025000Y0000227500D03*
X0000025000Y0000220000D03*
X0000017500Y0000242500D03*
X0000025000Y0000242500D03*
X0000017500Y0000235000D03*
X0000025000Y0000235000D03*
X0000021500Y0000266516D03*
X0000031000Y0000257016D03*
X0000021500Y0000273516D03*
X0000015630Y0000280000D03*
X0000031000Y0000280270D03*
X0000018898Y0000268140D03*
X0000018898Y0000271140D03*
X0000031000Y0000277120D03*
X0000030000Y0000292500D03*
X0000015630Y0000295000D03*
X0000025630Y0000295000D03*
X0000015630Y0000305000D03*
X0000015630Y0000315000D03*
X0000025630Y0000305000D03*
X0000025630Y0000315000D03*
X0000029500Y0000325500D03*
X0000029500Y0000331000D03*
X0000029500Y0000337500D03*
X0000015000Y0000365000D03*
X0000025000Y0000365000D03*
X0000023000Y0000355000D03*
X0000015000Y0000355000D03*
X0000015000Y0000375000D03*
X0000025000Y0000375000D03*
X0000020000Y0000395000D03*
X0000025000Y0000385000D03*
X0000025000Y0000410000D03*
X0000015000Y0000410000D03*
X0000029000Y0000404500D03*
X0000025000Y0000420000D03*
X0000015000Y0000420000D03*
X0000045630Y0000005000D03*
X0000045630Y0000015000D03*
X0000035630Y0000005000D03*
X0000035630Y0000015000D03*
X0000045630Y0000035000D03*
X0000045630Y0000025000D03*
X0000035630Y0000025000D03*
X0000045000Y0000045000D03*
X0000035630Y0000045000D03*
X0000035000Y0000060000D03*
X0000042500Y0000060000D03*
X0000035000Y0000067500D03*
X0000042500Y0000067500D03*
X0000032339Y0000065161D03*
X0000042500Y0000075000D03*
X0000035000Y0000075000D03*
X0000045500Y0000097000D03*
X0000035630Y0000090500D03*
X0000035630Y0000097500D03*
X0000045500Y0000104500D03*
X0000045630Y0000114500D03*
X0000035630Y0000115000D03*
X0000035630Y0000105000D03*
X0000045630Y0000134500D03*
X0000045500Y0000124500D03*
X0000035630Y0000135000D03*
X0000035630Y0000125000D03*
X0000045630Y0000144500D03*
X0000035630Y0000145000D03*
X0000035630Y0000155000D03*
X0000040000Y0000169500D03*
X0000040630Y0000175000D03*
X0000040630Y0000195000D03*
X0000040630Y0000185000D03*
X0000040630Y0000205000D03*
X0000032500Y0000220000D03*
X0000040000Y0000220000D03*
X0000040000Y0000227500D03*
X0000047500Y0000227500D03*
X0000032500Y0000227500D03*
X0000047500Y0000220000D03*
X0000040000Y0000235000D03*
X0000032500Y0000235000D03*
X0000034500Y0000263016D03*
X0000041323Y0000258839D03*
X0000046344Y0000250671D03*
X0000032429Y0000264703D03*
X0000033000Y0000255016D03*
X0000034500Y0000269516D03*
X0000032429Y0000267703D03*
X0000041323Y0000275516D03*
X0000045000Y0000295000D03*
X0000047500Y0000290000D03*
X0000047500Y0000285000D03*
X0000035630Y0000295000D03*
X0000032307Y0000329578D03*
X0000032307Y0000326578D03*
X0000045000Y0000340000D03*
X0000045000Y0000346000D03*
X0000032300Y0000336205D03*
X0000032300Y0000333205D03*
X0000039500Y0000343000D03*
X0000045000Y0000365000D03*
X0000032500Y0000365000D03*
X0000038886Y0000354614D03*
X0000032500Y0000349500D03*
X0000032500Y0000356000D03*
X0000045000Y0000375000D03*
X0000032500Y0000375000D03*
X0000045000Y0000385000D03*
X0000032500Y0000385000D03*
X0000032000Y0000394500D03*
X0000032000Y0000398000D03*
X0000045000Y0000410000D03*
X0000035000Y0000410000D03*
X0000035000Y0000430000D03*
X0000045000Y0000430000D03*
X0000035000Y0000420000D03*
X0000045000Y0000420000D03*
X0000035000Y0000448000D03*
X0000045000Y0000448000D03*
X0000045000Y0000440000D03*
X0000035000Y0000440000D03*
X0000053130Y0000005000D03*
X0000053130Y0000015000D03*
X0000052500Y0000035000D03*
X0000053130Y0000025000D03*
X0000052500Y0000045000D03*
X0000062500Y0000050000D03*
X0000050000Y0000060000D03*
X0000050000Y0000067500D03*
X0000050000Y0000075000D03*
X0000055630Y0000097000D03*
X0000048492Y0000090500D03*
X0000055630Y0000104500D03*
X0000055630Y0000114500D03*
X0000055630Y0000134500D03*
X0000055630Y0000124500D03*
X0000055630Y0000144500D03*
X0000055000Y0000165000D03*
X0000055000Y0000155000D03*
X0000055000Y0000172500D03*
X0000057000Y0000179500D03*
X0000053500Y0000179500D03*
X0000062130Y0000178000D03*
X0000053500Y0000182500D03*
X0000056500Y0000182500D03*
X0000061750Y0000195880D03*
X0000051500Y0000232500D03*
X0000057500Y0000232500D03*
X0000060500Y0000235000D03*
X0000054500Y0000235000D03*
X0000051500Y0000237500D03*
X0000057500Y0000237500D03*
X0000052500Y0000285000D03*
X0000059000Y0000290000D03*
X0000060000Y0000303500D03*
X0000055000Y0000313500D03*
X0000050000Y0000313500D03*
X0000060500Y0000313500D03*
X0000057500Y0000308500D03*
X0000060500Y0000317500D03*
X0000060500Y0000321500D03*
X0000050000Y0000317500D03*
X0000055000Y0000317500D03*
X0000055000Y0000321500D03*
X0000050000Y0000321500D03*
X0000055500Y0000340500D03*
X0000060000Y0000340500D03*
X0000060000Y0000336500D03*
X0000062500Y0000347000D03*
X0000052000Y0000346500D03*
X0000063860Y0000344500D03*
X0000062000Y0000350000D03*
X0000055000Y0000430000D03*
X0000055000Y0000420000D03*
X0000055000Y0000448000D03*
X0000055000Y0000440000D03*
X0000075500Y0000005000D03*
X0000065630Y0000005000D03*
X0000070630Y0000005000D03*
X0000065500Y0000010000D03*
X0000070500Y0000010000D03*
X0000078500Y0000027500D03*
X0000077500Y0000042500D03*
X0000077500Y0000050000D03*
X0000070000Y0000042500D03*
X0000070000Y0000050000D03*
X0000077500Y0000057500D03*
X0000078500Y0000067500D03*
X0000071886Y0000071500D03*
X0000080000Y0000110000D03*
X0000080000Y0000115500D03*
X0000080000Y0000135000D03*
X0000080000Y0000122500D03*
X0000080000Y0000150000D03*
X0000080000Y0000142500D03*
X0000080000Y0000157500D03*
X0000065130Y0000178000D03*
X0000065000Y0000196000D03*
X0000070000Y0000215000D03*
X0000065000Y0000215000D03*
X0000077500Y0000210000D03*
X0000077500Y0000205000D03*
X0000072000Y0000230500D03*
X0000065000Y0000220000D03*
X0000070000Y0000220000D03*
X0000072500Y0000249016D03*
X0000072000Y0000235516D03*
X0000075000Y0000259000D03*
X0000068000Y0000276500D03*
X0000080614Y0000289886D03*
X0000077000Y0000296500D03*
X0000065000Y0000290000D03*
X0000065000Y0000303500D03*
X0000070000Y0000312500D03*
X0000070000Y0000321500D03*
X0000070500Y0000326500D03*
X0000074500Y0000330500D03*
X0000065000Y0000321500D03*
X0000080000Y0000332520D03*
X0000069000Y0000347000D03*
X0000070500Y0000341000D03*
X0000076500Y0000341000D03*
X0000066860Y0000344500D03*
X0000071860Y0000338000D03*
X0000074860Y0000338000D03*
X0000080000Y0000335520D03*
X0000080000Y0000341968D03*
X0000080000Y0000344968D03*
X0000074000Y0000350000D03*
X0000079500Y0000356000D03*
X0000071500Y0000360500D03*
X0000075000Y0000365226D03*
X0000077000Y0000351500D03*
X0000077000Y0000354500D03*
X0000075000Y0000362226D03*
X0000065500Y0000378000D03*
X0000065500Y0000372500D03*
X0000071000Y0000372500D03*
X0000071500Y0000367000D03*
X0000065500Y0000367000D03*
X0000080000Y0000387500D03*
X0000080000Y0000384500D03*
X0000075000Y0000430000D03*
X0000065000Y0000430000D03*
X0000075000Y0000448000D03*
X0000065000Y0000448000D03*
X0000075000Y0000440000D03*
X0000065000Y0000440000D03*
X0000097000Y0000017500D03*
X0000082000Y0000030500D03*
X0000085000Y0000042500D03*
X0000092500Y0000042500D03*
X0000092500Y0000050000D03*
X0000085000Y0000050000D03*
X0000093500Y0000084000D03*
X0000086386Y0000118500D03*
X0000093000Y0000121500D03*
X0000089000Y0000179000D03*
X0000089000Y0000185000D03*
X0000089000Y0000190000D03*
X0000082500Y0000205000D03*
X0000082500Y0000210000D03*
X0000087500Y0000262500D03*
X0000082500Y0000282500D03*
X0000082000Y0000297500D03*
X0000087500Y0000290000D03*
X0000095000Y0000300000D03*
X0000090000Y0000305000D03*
X0000091500Y0000330500D03*
X0000096000Y0000330500D03*
X0000084500Y0000322209D03*
X0000082500Y0000331000D03*
X0000096000Y0000325000D03*
X0000091000Y0000325000D03*
X0000091000Y0000319000D03*
X0000096000Y0000321000D03*
X0000096000Y0000317484D03*
X0000091500Y0000334000D03*
X0000091500Y0000347000D03*
X0000082500Y0000340500D03*
X0000082500Y0000337000D03*
X0000096000Y0000343000D03*
X0000096000Y0000334500D03*
X0000095000Y0000340244D03*
X0000095000Y0000337244D03*
X0000091500Y0000360004D03*
X0000091500Y0000350555D03*
X0000091500Y0000355280D03*
X0000091272Y0000364728D03*
X0000092500Y0000378000D03*
X0000092500Y0000375000D03*
X0000091500Y0000368500D03*
X0000083000Y0000389000D03*
X0000083000Y0000383000D03*
X0000095500Y0000388350D03*
X0000095626Y0000383626D03*
X0000100500Y0000015000D03*
X0000107500Y0000042500D03*
X0000100000Y0000042500D03*
X0000097500Y0000084000D03*
X0000111000Y0000094000D03*
X0000098500Y0000099500D03*
X0000099500Y0000147500D03*
X0000110500Y0000160500D03*
X0000113300Y0000152300D03*
X0000104000Y0000163500D03*
X0000109500Y0000174000D03*
X0000113500Y0000182000D03*
X0000109500Y0000194000D03*
X0000113500Y0000192000D03*
X0000110000Y0000215000D03*
X0000110000Y0000230000D03*
X0000110000Y0000222500D03*
X0000110000Y0000237500D03*
X0000100000Y0000262500D03*
X0000100000Y0000272500D03*
X0000110000Y0000297500D03*
X0000112500Y0000307500D03*
X0000107500Y0000312500D03*
X0000100000Y0000307500D03*
X0000107500Y0000320000D03*
X0000104000Y0000348000D03*
X0000109000Y0000348000D03*
X0000104000Y0000353000D03*
X0000104272Y0000364728D03*
X0000103996Y0000360004D03*
X0000104000Y0000356000D03*
X0000109000Y0000353000D03*
X0000107500Y0000375000D03*
X0000107500Y0000378000D03*
X0000111500Y0000378500D03*
X0000105000Y0000373500D03*
X0000104402Y0000378902D03*
X0000104500Y0000368000D03*
X0000104500Y0000384500D03*
X0000108000Y0000384500D03*
X0000108000Y0000388000D03*
X0000104500Y0000387500D03*
X0000125000Y0000003000D03*
X0000117500Y0000003000D03*
X0000124500Y0000014000D03*
X0000115000Y0000020008D03*
X0000124500Y0000032500D03*
X0000123492Y0000025992D03*
X0000116000Y0000025992D03*
X0000124500Y0000037000D03*
X0000115000Y0000042500D03*
X0000117630Y0000064000D03*
X0000117630Y0000060000D03*
X0000121630Y0000064000D03*
X0000121630Y0000060000D03*
X0000125630Y0000064000D03*
X0000125630Y0000060000D03*
X0000120000Y0000080000D03*
X0000114000Y0000100000D03*
X0000115543Y0000114957D03*
X0000115543Y0000138543D03*
X0000125500Y0000160500D03*
X0000120500Y0000160500D03*
X0000115500Y0000160500D03*
X0000120500Y0000163500D03*
X0000115000Y0000292500D03*
X0000117500Y0000302500D03*
X0000121500Y0000355500D03*
X0000121500Y0000361500D03*
X0000119000Y0000379911D03*
X0000119500Y0000369500D03*
X0000118000Y0000367000D03*
X0000118000Y0000375000D03*
X0000122000Y0000378647D03*
X0000119500Y0000372500D03*
X0000119000Y0000382911D03*
X0000122000Y0000384147D03*
X0000125000Y0000430000D03*
X0000115000Y0000430000D03*
X0000115000Y0000448000D03*
X0000125000Y0000448000D03*
X0000125000Y0000440000D03*
X0000115000Y0000440000D03*
X0000140000Y0000003000D03*
X0000132500Y0000003000D03*
X0000145130Y0000014500D03*
X0000134000Y0000014000D03*
X0000130614Y0000016500D03*
X0000130614Y0000036000D03*
X0000134000Y0000032500D03*
X0000138000Y0000032500D03*
X0000144500Y0000024000D03*
X0000145000Y0000080000D03*
X0000143500Y0000099500D03*
X0000144508Y0000090008D03*
X0000137197Y0000115803D03*
X0000133000Y0000116000D03*
X0000137500Y0000129991D03*
X0000137500Y0000120000D03*
X0000137500Y0000125000D03*
X0000130500Y0000160500D03*
X0000145000Y0000217500D03*
X0000141500Y0000226000D03*
X0000141500Y0000238500D03*
X0000141500Y0000253500D03*
X0000137500Y0000317500D03*
X0000135500Y0000321500D03*
X0000136000Y0000327500D03*
X0000142500Y0000327000D03*
X0000132500Y0000323071D03*
X0000140000Y0000331860D03*
X0000140000Y0000328860D03*
X0000132500Y0000326071D03*
X0000142500Y0000333500D03*
X0000136000Y0000333500D03*
X0000135500Y0000339500D03*
X0000143500Y0000340000D03*
X0000143500Y0000346000D03*
X0000136000Y0000346000D03*
X0000132500Y0000334860D03*
X0000140000Y0000341360D03*
X0000132500Y0000347360D03*
X0000132500Y0000337860D03*
X0000140000Y0000344360D03*
X0000142500Y0000354000D03*
X0000142000Y0000362500D03*
X0000135500Y0000359000D03*
X0000136000Y0000352000D03*
X0000132500Y0000350360D03*
X0000141500Y0000372500D03*
X0000135500Y0000376000D03*
X0000136000Y0000367500D03*
X0000145000Y0000430000D03*
X0000135000Y0000430000D03*
X0000145000Y0000448000D03*
X0000135000Y0000448000D03*
X0000145000Y0000440000D03*
X0000135000Y0000440000D03*
X0000160000Y0000003000D03*
X0000150000Y0000003000D03*
X0000149000Y0000019000D03*
X0000154500Y0000015000D03*
X0000147500Y0000030000D03*
X0000155000Y0000022500D03*
X0000162500Y0000022500D03*
X0000148000Y0000068500D03*
X0000147992Y0000074492D03*
X0000162500Y0000107500D03*
X0000162500Y0000117500D03*
X0000162000Y0000123000D03*
X0000162500Y0000182500D03*
X0000162500Y0000172500D03*
X0000162500Y0000177500D03*
X0000157500Y0000177000D03*
X0000154000Y0000177000D03*
X0000162500Y0000197000D03*
X0000162500Y0000192500D03*
X0000162500Y0000187500D03*
X0000152500Y0000212000D03*
X0000160000Y0000230000D03*
X0000160000Y0000220500D03*
X0000150000Y0000225500D03*
X0000148000Y0000235000D03*
X0000155000Y0000250000D03*
X0000155000Y0000240000D03*
X0000157500Y0000262500D03*
X0000150000Y0000270000D03*
X0000147500Y0000365000D03*
X0000157500Y0000365000D03*
X0000147500Y0000375000D03*
X0000157500Y0000375000D03*
X0000151000Y0000420500D03*
X0000175000Y0000003000D03*
X0000167500Y0000003000D03*
X0000172630Y0000067000D03*
X0000167130Y0000067000D03*
X0000170000Y0000072500D03*
X0000175000Y0000072500D03*
X0000175000Y0000107500D03*
X0000175000Y0000112500D03*
X0000175000Y0000117500D03*
X0000167500Y0000107500D03*
X0000167500Y0000112500D03*
X0000167500Y0000117500D03*
X0000168500Y0000143500D03*
X0000175000Y0000140000D03*
X0000175000Y0000167500D03*
X0000168500Y0000158500D03*
X0000165000Y0000167500D03*
X0000170000Y0000167500D03*
X0000172500Y0000177500D03*
X0000172500Y0000182500D03*
X0000172500Y0000187500D03*
X0000172500Y0000192500D03*
X0000170000Y0000235000D03*
X0000165000Y0000240000D03*
X0000165000Y0000255000D03*
X0000175000Y0000280500D03*
X0000167500Y0000345000D03*
X0000167500Y0000365000D03*
X0000167500Y0000355000D03*
X0000175000Y0000355000D03*
X0000175000Y0000365000D03*
X0000167500Y0000375000D03*
X0000175000Y0000375000D03*
X0000167500Y0000385000D03*
X0000175000Y0000385000D03*
X0000166500Y0000420500D03*
X0000192500Y0000003000D03*
X0000182500Y0000003000D03*
X0000182630Y0000035500D03*
X0000186630Y0000035500D03*
X0000191630Y0000035500D03*
X0000189130Y0000039500D03*
X0000192500Y0000065000D03*
X0000182500Y0000065000D03*
X0000187500Y0000065000D03*
X0000182500Y0000060000D03*
X0000187500Y0000060000D03*
X0000192500Y0000060000D03*
X0000192500Y0000055000D03*
X0000192500Y0000072500D03*
X0000187500Y0000072500D03*
X0000182500Y0000072500D03*
X0000190000Y0000117500D03*
X0000190000Y0000112500D03*
X0000190000Y0000107500D03*
X0000182500Y0000117500D03*
X0000182500Y0000112500D03*
X0000182500Y0000107500D03*
X0000187500Y0000204000D03*
X0000195000Y0000262500D03*
X0000190000Y0000267500D03*
X0000182500Y0000275000D03*
X0000195000Y0000315000D03*
X0000185000Y0000320000D03*
X0000185000Y0000330000D03*
X0000195000Y0000325000D03*
X0000195000Y0000335000D03*
X0000185000Y0000365000D03*
X0000185000Y0000375000D03*
X0000195000Y0000375000D03*
X0000185000Y0000385000D03*
X0000184000Y0000420000D03*
X0000210000Y0000003000D03*
X0000202500Y0000003000D03*
X0000204630Y0000020000D03*
X0000208630Y0000020000D03*
X0000204630Y0000024000D03*
X0000208630Y0000024000D03*
X0000196630Y0000035500D03*
X0000201630Y0000035500D03*
X0000206630Y0000035500D03*
X0000211630Y0000035500D03*
X0000206630Y0000031000D03*
X0000201630Y0000031000D03*
X0000196630Y0000031000D03*
X0000211630Y0000031000D03*
X0000211630Y0000047000D03*
X0000211630Y0000051000D03*
X0000206630Y0000040500D03*
X0000211630Y0000040500D03*
X0000197500Y0000065000D03*
X0000197500Y0000060000D03*
X0000197500Y0000055000D03*
X0000211630Y0000060000D03*
X0000211630Y0000055500D03*
X0000197500Y0000072500D03*
X0000202500Y0000112500D03*
X0000211500Y0000117500D03*
X0000202500Y0000117500D03*
X0000210000Y0000170000D03*
X0000210000Y0000204000D03*
X0000204500Y0000284000D03*
X0000204500Y0000289000D03*
X0000207500Y0000312500D03*
X0000207500Y0000307500D03*
X0000207500Y0000347500D03*
X0000207500Y0000352500D03*
X0000205500Y0000420000D03*
X0000225000Y0000003000D03*
X0000217500Y0000003000D03*
X0000212630Y0000020000D03*
X0000228130Y0000013500D03*
X0000228130Y0000016650D03*
X0000212630Y0000024000D03*
X0000227630Y0000029000D03*
X0000227630Y0000033000D03*
X0000216630Y0000047000D03*
X0000216630Y0000051000D03*
X0000227630Y0000046000D03*
X0000227630Y0000052000D03*
X0000227630Y0000039500D03*
X0000227630Y0000057500D03*
X0000227630Y0000062000D03*
X0000216630Y0000060000D03*
X0000216630Y0000055500D03*
X0000227630Y0000094000D03*
X0000225700Y0000118000D03*
X0000225700Y0000127041D03*
X0000225700Y0000122000D03*
X0000225935Y0000135483D03*
X0000213000Y0000139500D03*
X0000220179Y0000146869D03*
X0000220500Y0000158097D03*
X0000212500Y0000200000D03*
X0000215000Y0000195000D03*
X0000224000Y0000225500D03*
X0000220000Y0000220000D03*
X0000220000Y0000230000D03*
X0000227000Y0000263500D03*
X0000215000Y0000260000D03*
X0000217500Y0000312500D03*
X0000212500Y0000312500D03*
X0000225000Y0000332500D03*
X0000217500Y0000327500D03*
X0000217500Y0000322500D03*
X0000217516Y0000317484D03*
X0000225000Y0000326500D03*
X0000217500Y0000331500D03*
X0000225000Y0000347500D03*
X0000217500Y0000337500D03*
X0000225000Y0000342500D03*
X0000225000Y0000337500D03*
X0000217500Y0000342500D03*
X0000212500Y0000347500D03*
X0000212500Y0000342500D03*
X0000217594Y0000347406D03*
X0000217500Y0000352500D03*
X0000217500Y0000362500D03*
X0000225000Y0000357500D03*
X0000225000Y0000352500D03*
X0000225000Y0000362500D03*
X0000212500Y0000352500D03*
X0000212500Y0000377500D03*
X0000217500Y0000377500D03*
X0000225000Y0000377500D03*
X0000217500Y0000367500D03*
X0000212500Y0000367500D03*
X0000225000Y0000367500D03*
X0000225000Y0000372500D03*
X0000212500Y0000372500D03*
X0000217500Y0000372602D03*
X0000225000Y0000382500D03*
X0000225000Y0000387500D03*
X0000224500Y0000420000D03*
X0000245000Y0000003000D03*
X0000235000Y0000003000D03*
X0000235630Y0000016650D03*
X0000235630Y0000013500D03*
X0000231630Y0000013500D03*
X0000231630Y0000016650D03*
X0000241630Y0000017150D03*
X0000241630Y0000014000D03*
X0000233130Y0000033000D03*
X0000233130Y0000029000D03*
X0000238500Y0000046000D03*
X0000233630Y0000046000D03*
X0000233130Y0000039500D03*
X0000232687Y0000060557D03*
X0000232687Y0000065557D03*
X0000233130Y0000055500D03*
X0000237630Y0000065500D03*
X0000237630Y0000060500D03*
X0000234630Y0000094130D03*
X0000238000Y0000116500D03*
X0000232000Y0000116500D03*
X0000242000Y0000110500D03*
X0000244021Y0000122000D03*
X0000241049Y0000132483D03*
X0000242565Y0000161983D03*
X0000243000Y0000152500D03*
X0000242565Y0000178483D03*
X0000232565Y0000189483D03*
X0000237565Y0000189483D03*
X0000244000Y0000189500D03*
X0000230000Y0000214500D03*
X0000238000Y0000219500D03*
X0000238000Y0000227000D03*
X0000230000Y0000220000D03*
X0000230000Y0000230000D03*
X0000240000Y0000240000D03*
X0000240000Y0000312500D03*
X0000230000Y0000312500D03*
X0000240000Y0000327500D03*
X0000230000Y0000330000D03*
X0000240000Y0000322500D03*
X0000230016Y0000317484D03*
X0000245000Y0000332500D03*
X0000245000Y0000327500D03*
X0000240000Y0000332500D03*
X0000230000Y0000322500D03*
X0000245000Y0000347500D03*
X0000230000Y0000342500D03*
X0000230000Y0000337500D03*
X0000230000Y0000347500D03*
X0000240000Y0000340000D03*
X0000240000Y0000347500D03*
X0000245000Y0000340000D03*
X0000245000Y0000357500D03*
X0000230000Y0000352500D03*
X0000245000Y0000362500D03*
X0000240000Y0000362500D03*
X0000230000Y0000362500D03*
X0000240000Y0000357500D03*
X0000240000Y0000352500D03*
X0000230000Y0000377500D03*
X0000230000Y0000367500D03*
X0000230000Y0000372500D03*
X0000230000Y0000382500D03*
X0000245000Y0000435000D03*
X0000242500Y0000445500D03*
X0000260000Y0000003000D03*
X0000252500Y0000003000D03*
X0000245630Y0000017150D03*
X0000249630Y0000017150D03*
X0000245630Y0000014000D03*
X0000249630Y0000014000D03*
X0000258130Y0000017150D03*
X0000258130Y0000014000D03*
X0000254130Y0000017150D03*
X0000254130Y0000014000D03*
X0000250000Y0000039000D03*
X0000248630Y0000054200D03*
X0000251630Y0000054200D03*
X0000248630Y0000057000D03*
X0000251630Y0000057000D03*
X0000252000Y0000110500D03*
X0000255935Y0000129483D03*
X0000251935Y0000129483D03*
X0000245935Y0000129483D03*
X0000260935Y0000139500D03*
X0000254516Y0000139500D03*
X0000261065Y0000152500D03*
X0000247500Y0000152000D03*
X0000247565Y0000173983D03*
X0000252565Y0000173983D03*
X0000257565Y0000173983D03*
X0000261065Y0000170500D03*
X0000252565Y0000178483D03*
X0000257565Y0000178483D03*
X0000247565Y0000178483D03*
X0000248565Y0000190983D03*
X0000254065Y0000190983D03*
X0000260565Y0000190483D03*
X0000249500Y0000314500D03*
X0000256000Y0000306500D03*
X0000252500Y0000310000D03*
X0000254000Y0000326500D03*
X0000260500Y0000344500D03*
X0000260500Y0000334000D03*
X0000250000Y0000362500D03*
X0000250000Y0000357500D03*
X0000260500Y0000349500D03*
X0000260500Y0000355500D03*
X0000260000Y0000390000D03*
X0000260000Y0000385000D03*
X0000252500Y0000389500D03*
X0000255000Y0000382500D03*
X0000259000Y0000402000D03*
X0000250000Y0000445000D03*
X0000277500Y0000003000D03*
X0000267500Y0000003000D03*
X0000266630Y0000014000D03*
X0000266630Y0000017150D03*
X0000270630Y0000017150D03*
X0000270630Y0000014000D03*
X0000277000Y0000014000D03*
X0000262130Y0000017150D03*
X0000262130Y0000014000D03*
X0000274630Y0000022000D03*
X0000274630Y0000025500D03*
X0000265130Y0000027000D03*
X0000269130Y0000027000D03*
X0000269130Y0000031000D03*
X0000269130Y0000035000D03*
X0000265130Y0000035000D03*
X0000273130Y0000030500D03*
X0000269130Y0000038500D03*
X0000272610Y0000067980D03*
X0000266500Y0000064000D03*
X0000266500Y0000060500D03*
X0000266500Y0000057000D03*
X0000272430Y0000074100D03*
X0000269730Y0000071700D03*
X0000273730Y0000071100D03*
X0000275130Y0000080614D03*
X0000273500Y0000103000D03*
X0000273500Y0000108000D03*
X0000268500Y0000108000D03*
X0000268500Y0000103000D03*
X0000267565Y0000134483D03*
X0000265427Y0000129991D03*
X0000261935Y0000126483D03*
X0000266000Y0000152500D03*
X0000271000Y0000152500D03*
X0000270565Y0000184483D03*
X0000266000Y0000170500D03*
X0000271065Y0000170435D03*
X0000270565Y0000189483D03*
X0000275000Y0000230000D03*
X0000265000Y0000230000D03*
X0000265000Y0000220000D03*
X0000275000Y0000220000D03*
X0000275000Y0000240000D03*
X0000265000Y0000240000D03*
X0000265000Y0000250000D03*
X0000275000Y0000250000D03*
X0000275000Y0000260000D03*
X0000265000Y0000260000D03*
X0000265500Y0000331000D03*
X0000265500Y0000336000D03*
X0000274500Y0000340886D03*
X0000264500Y0000344500D03*
X0000268500Y0000359500D03*
X0000271000Y0000362500D03*
X0000266000Y0000362500D03*
X0000270000Y0000380000D03*
X0000265000Y0000375000D03*
X0000265000Y0000380000D03*
X0000268500Y0000369500D03*
X0000271000Y0000366500D03*
X0000266000Y0000366500D03*
X0000275000Y0000367500D03*
X0000265000Y0000390000D03*
X0000265000Y0000385000D03*
X0000270000Y0000390500D03*
X0000270000Y0000383500D03*
X0000274500Y0000411500D03*
X0000269500Y0000411500D03*
X0000274500Y0000401500D03*
X0000269500Y0000401500D03*
X0000269500Y0000406500D03*
X0000263000Y0000426000D03*
X0000276500Y0000419000D03*
X0000270500Y0000419000D03*
X0000269283Y0000425850D03*
X0000275189Y0000421500D03*
X0000272189Y0000421500D03*
X0000266283Y0000425850D03*
X0000278094Y0000425850D03*
X0000276000Y0000445500D03*
X0000265500Y0000445500D03*
X0000276642Y0000434000D03*
X0000270736Y0000434000D03*
X0000264831Y0000434000D03*
X0000289500Y0000003100D03*
X0000290630Y0000025000D03*
X0000282244Y0000022000D03*
X0000285130Y0000036000D03*
X0000285200Y0000041100D03*
X0000285630Y0000047500D03*
X0000285130Y0000066500D03*
X0000284130Y0000055500D03*
X0000278630Y0000055500D03*
X0000292744Y0000055500D03*
X0000287130Y0000080614D03*
X0000285130Y0000072000D03*
X0000278500Y0000103000D03*
X0000283500Y0000103000D03*
X0000283500Y0000108000D03*
X0000278500Y0000108000D03*
X0000280500Y0000183983D03*
X0000282565Y0000173483D03*
X0000282565Y0000169983D03*
X0000278500Y0000173500D03*
X0000278565Y0000169983D03*
X0000290500Y0000221500D03*
X0000290500Y0000227000D03*
X0000290000Y0000233000D03*
X0000290000Y0000250500D03*
X0000290000Y0000245500D03*
X0000290000Y0000239500D03*
X0000290000Y0000256000D03*
X0000290000Y0000261000D03*
X0000288000Y0000326500D03*
X0000282430Y0000345000D03*
X0000290630Y0000345000D03*
X0000286430Y0000345000D03*
X0000282430Y0000341000D03*
X0000282430Y0000337000D03*
X0000290630Y0000341000D03*
X0000290630Y0000337000D03*
X0000286430Y0000337000D03*
X0000286430Y0000341000D03*
X0000285500Y0000355000D03*
X0000293500Y0000377500D03*
X0000290500Y0000377500D03*
X0000284500Y0000426000D03*
X0000281094Y0000425850D03*
X0000290500Y0000440000D03*
X0000285000Y0000445000D03*
X0000294359Y0000434000D03*
X0000288500Y0000434000D03*
X0000282500Y0000434000D03*
X0000300630Y0000005000D03*
X0000310630Y0000005000D03*
X0000310630Y0000015000D03*
X0000298000Y0000026000D03*
X0000297000Y0000030500D03*
X0000297000Y0000036000D03*
X0000301000Y0000041500D03*
X0000297000Y0000047000D03*
X0000297000Y0000041500D03*
X0000304872Y0000067872D03*
X0000300872Y0000067872D03*
X0000307500Y0000232185D03*
X0000307500Y0000225000D03*
X0000307500Y0000248185D03*
X0000307500Y0000240000D03*
X0000307500Y0000263185D03*
X0000307500Y0000256185D03*
X0000303000Y0000263500D03*
X0000310000Y0000300000D03*
X0000310000Y0000290000D03*
X0000310000Y0000295000D03*
X0000308000Y0000331000D03*
X0000308000Y0000346000D03*
X0000308000Y0000341000D03*
X0000308000Y0000336000D03*
X0000295000Y0000355000D03*
X0000308000Y0000356000D03*
X0000295000Y0000350000D03*
X0000308000Y0000351000D03*
X0000300000Y0000392500D03*
X0000300000Y0000398000D03*
X0000295000Y0000412500D03*
X0000302000Y0000401500D03*
X0000305000Y0000412500D03*
X0000310000Y0000412500D03*
X0000307500Y0000425000D03*
X0000310000Y0000417500D03*
X0000305000Y0000417500D03*
X0000295000Y0000417500D03*
X0000300000Y0000417500D03*
X0000303000Y0000439500D03*
X0000305000Y0000445000D03*
X0000295000Y0000445000D03*
X0000300264Y0000434000D03*
X0000320630Y0000005000D03*
X0000320630Y0000015000D03*
X0000322000Y0000082500D03*
X0000315000Y0000082500D03*
X0000318500Y0000086000D03*
X0000322000Y0000093000D03*
X0000318500Y0000090000D03*
X0000318500Y0000096500D03*
X0000318500Y0000101000D03*
X0000327000Y0000099000D03*
X0000327000Y0000103500D03*
X0000322130Y0000119000D03*
X0000326130Y0000119000D03*
X0000322130Y0000128000D03*
X0000326130Y0000128000D03*
X0000321630Y0000142500D03*
X0000327130Y0000159000D03*
X0000320000Y0000155000D03*
X0000317500Y0000172000D03*
X0000312500Y0000192500D03*
X0000318000Y0000216500D03*
X0000322500Y0000216500D03*
X0000318000Y0000221000D03*
X0000322500Y0000221000D03*
X0000315000Y0000295000D03*
X0000315000Y0000290000D03*
X0000326000Y0000288000D03*
X0000314989Y0000299989D03*
X0000318000Y0000308500D03*
X0000318000Y0000313500D03*
X0000326130Y0000303378D03*
X0000321130Y0000312783D03*
X0000326130Y0000306878D03*
X0000325630Y0000315189D03*
X0000321130Y0000309283D03*
X0000318000Y0000325500D03*
X0000318000Y0000320000D03*
X0000318000Y0000331500D03*
X0000325630Y0000330500D03*
X0000325630Y0000318689D03*
X0000321130Y0000321094D03*
X0000321130Y0000324594D03*
X0000325630Y0000327000D03*
X0000315000Y0000412500D03*
X0000320000Y0000417500D03*
X0000315000Y0000417500D03*
X0000320000Y0000422500D03*
X0000315000Y0000422500D03*
X0000321500Y0000437000D03*
X0000322500Y0000445000D03*
X0000341000Y0000044000D03*
X0000341000Y0000051000D03*
X0000341000Y0000066000D03*
X0000341000Y0000058500D03*
X0000341000Y0000078000D03*
X0000338500Y0000089500D03*
X0000338500Y0000101000D03*
X0000331000Y0000099000D03*
X0000340000Y0000111500D03*
X0000331000Y0000103500D03*
X0000330130Y0000119000D03*
X0000333630Y0000119000D03*
X0000330130Y0000128000D03*
X0000342500Y0000122500D03*
X0000343480Y0000141983D03*
X0000339980Y0000147483D03*
X0000339980Y0000141983D03*
X0000343480Y0000147483D03*
X0000339980Y0000136483D03*
X0000331630Y0000142500D03*
X0000331630Y0000136500D03*
X0000343480Y0000136483D03*
X0000330000Y0000162206D03*
X0000333000Y0000162206D03*
X0000343630Y0000157500D03*
X0000343500Y0000153000D03*
X0000340000Y0000157500D03*
X0000332500Y0000158500D03*
X0000332500Y0000154000D03*
X0000342500Y0000166142D03*
X0000340000Y0000153000D03*
X0000330630Y0000195000D03*
X0000340630Y0000195000D03*
X0000330630Y0000215000D03*
X0000340630Y0000215000D03*
X0000330630Y0000205000D03*
X0000340630Y0000205000D03*
X0000340000Y0000222500D03*
X0000333000Y0000241157D03*
X0000340630Y0000245000D03*
X0000330630Y0000250000D03*
X0000340630Y0000235000D03*
X0000340630Y0000260000D03*
X0000330630Y0000260000D03*
X0000340500Y0000266000D03*
X0000328500Y0000285500D03*
X0000331000Y0000288000D03*
X0000329000Y0000296000D03*
X0000329000Y0000302166D03*
X0000328630Y0000313793D03*
X0000329130Y0000308000D03*
X0000328630Y0000325604D03*
X0000328638Y0000319697D03*
X0000328638Y0000331508D03*
X0000343500Y0000409500D03*
X0000329000Y0000423500D03*
X0000341000Y0000419500D03*
X0000348500Y0000044000D03*
X0000348500Y0000051000D03*
X0000348500Y0000066000D03*
X0000348500Y0000058500D03*
X0000345630Y0000085000D03*
X0000348500Y0000078500D03*
X0000350000Y0000090000D03*
X0000350000Y0000100000D03*
X0000345630Y0000095000D03*
X0000345630Y0000105000D03*
X0000349500Y0000111500D03*
X0000345630Y0000115000D03*
X0000350500Y0000125000D03*
X0000349500Y0000122000D03*
X0000351000Y0000142144D03*
X0000351000Y0000137419D03*
X0000351000Y0000149500D03*
X0000344200Y0000161024D03*
X0000351000Y0000162000D03*
X0000351000Y0000155500D03*
X0000350500Y0000166159D03*
X0000351000Y0000158662D03*
X0000350630Y0000195000D03*
X0000350630Y0000215000D03*
X0000350630Y0000205000D03*
X0000350630Y0000225000D03*
X0000350630Y0000245000D03*
X0000350630Y0000235000D03*
X0000350630Y0000260000D03*
X0000350630Y0000280000D03*
X0000350630Y0000270000D03*
X0000350630Y0000290000D03*
X0000350630Y0000300000D03*
X0000351000Y0000315500D03*
X0000350630Y0000310000D03*
X0000351000Y0000325000D03*
X0000351000Y0000345500D03*
X0000351000Y0000358000D03*
X0000351000Y0000370000D03*
X0000351000Y0000384000D03*
X0000351000Y0000396500D03*
X0000350000Y0000410000D03*
X0000350000Y0000420000D03*
G54D20*
X0000095548Y0000247007D03*
X0000095548Y0000435984D03*
X0000225469Y0000247007D03*
X0000225469Y0000435984D03*
G54D21*
G01X0000007594Y0000247895D02*
X0000007594Y0000250664D01*
G01X0000007594Y0000250664D02*
X0000007594Y0000253432D01*
G01X0000003645Y0000250664D02*
X0000007594Y0000250664D01*
G01X0000007594Y0000250664D02*
X0000011544Y0000250664D01*
G01X0000007594Y0000281911D02*
X0000007594Y0000284679D01*
G01X0000007594Y0000284679D02*
X0000007594Y0000287448D01*
G01X0000003645Y0000284679D02*
X0000007594Y0000284679D01*
G01X0000007594Y0000284679D02*
X0000011544Y0000284679D01*
G01X0000005368Y0000317704D02*
X0000005368Y0000321457D01*
G01X0000005368Y0000321457D02*
X0000005368Y0000325210D01*
G01X0000005368Y0000321457D02*
X0000011188Y0000321457D01*
G01X0000012776Y0000321457D02*
X0000018596Y0000321457D01*
G01X0000005368Y0000342114D02*
X0000005368Y0000345867D01*
G01X0000005368Y0000345867D02*
X0000005368Y0000349620D01*
G01X0000005368Y0000345867D02*
X0000011188Y0000345867D01*
G01X0000012776Y0000345867D02*
X0000018596Y0000345867D01*
G01X0000014357Y0000381890D02*
X0000017520Y0000381890D01*
G01X0000024051Y0000247895D02*
X0000024051Y0000250664D01*
G01X0000019117Y0000250664D02*
X0000024051Y0000250664D01*
G01X0000024051Y0000250664D02*
X0000028985Y0000250664D01*
G01X0000024051Y0000284679D02*
X0000024051Y0000287448D01*
G01X0000019117Y0000284679D02*
X0000024051Y0000284679D01*
G01X0000024051Y0000284679D02*
X0000028985Y0000284679D01*
G01X0000018596Y0000317704D02*
X0000018596Y0000321457D01*
G01X0000018596Y0000321457D02*
X0000018596Y0000325210D01*
G01X0000018596Y0000321457D02*
X0000024416Y0000321457D01*
G01X0000018596Y0000342114D02*
X0000018596Y0000345867D01*
G01X0000018596Y0000345867D02*
X0000018596Y0000349620D01*
G01X0000018596Y0000345867D02*
X0000024416Y0000345867D01*
G01X0000017520Y0000378334D02*
X0000017520Y0000381890D01*
G01X0000017520Y0000381890D02*
X0000017520Y0000385446D01*
G01X0000017520Y0000381890D02*
X0000020682Y0000381890D01*
G01X0000043307Y0000155224D02*
X0000043307Y0000161024D01*
G01X0000043307Y0000161024D02*
X0000043307Y0000166824D01*
G01X0000043307Y0000161024D02*
X0000049107Y0000161024D01*
G01X0000047637Y0000169231D02*
X0000047637Y0000173031D01*
G01X0000047637Y0000173031D02*
X0000047637Y0000176832D01*
G01X0000043837Y0000173031D02*
X0000047637Y0000173031D01*
G01X0000047637Y0000173031D02*
X0000051438Y0000173031D01*
G54D12*
X0000007594Y0000250664D03*
X0000007594Y0000284679D03*
G54D22*
G01X0000043307Y0000206798D02*
X0000043307Y0000212599D01*
G01X0000043307Y0000212599D02*
X0000043307Y0000218399D01*
G01X0000043307Y0000212599D02*
X0000049107Y0000212599D01*
G54D13*
X0000018596Y0000321457D03*
X0000005368Y0000321457D03*
X0000018596Y0000345867D03*
X0000005368Y0000345867D03*
G54D14*
X0000024051Y0000250664D03*
X0000024051Y0000284679D03*
G54D15*
X0000022083Y0000256293D03*
X0000022083Y0000279049D03*
G54D16*
X0000017520Y0000381890D03*
X0000017520Y0000401575D03*
G54D17*
X0000043307Y0000161024D03*
X0000043307Y0000212599D03*
G54D18*
X0000047637Y0000182874D03*
X0000047637Y0000173031D03*
X0000047637Y0000190748D03*
G54D19*
X0000047637Y0000200591D03*
M02*
