G04 ================== begin FILE IDENTIFICATION RECORD ==================*
G04 Layout Name:  D:/PCB_Project/CutiePi/CutiePi_V2_3/CutiePi_V2_3.brd*
G04 Film Name:    L03*
G04 File Format:  Gerber RS274X*
G04 File Origin:  Cadence Allegro 16.6-2015-S108*
G04 Origin Date:  Wed Apr 14 11:34:06 2021*
G04 *
G04 Layer:  ETCH/L03*
G04 Layer:  PIN/L03*
G04 Layer:  VIA CLASS/L03*
G04 *
G04 Offset:    (0.000 0.000)*
G04 Mirror:    No*
G04 Mode:      Positive*
G04 Rotation:  0*
G04 FullContactRelief:  No*
G04 UndefLineWidth:     6.000*
G04 ================== end FILE IDENTIFICATION RECORD ====================*
%FSAX55Y55*MOIN*%
%IR0*IPPOS*OFA0.00000B0.00000*MIA0B0*SFA1.00000B1.00000*%
%ADD17C,.1*%
%ADD13O,.100394X.059055*%
%ADD20C,.106299*%
%ADD11C,.02*%
%ADD18C,.06*%
%ADD19R,.06X.06*%
%ADD15C,.025591*%
%ADD16O,.047244X.055118*%
%ADD12O,.062992X.03937*%
%ADD10C,.019689*%
%ADD14O,.082677X.03937*%
%ADD21C,.0045*%
%ADD22C,.0057*%
%ADD23C,.012*%
%ADD24C,.015*%
%ADD25C,.025*%
%ADD26C,.0307*%
%ADD31C,.276854*%
%ADD32C,.032004*%
%ADD27C,.072004*%
%ADD29O,.067248X.075122*%
%ADD30O,.059248X.067122*%
%ADD28C,.049596*%
G75*
%LPD*%
G75*
G36*
G01X0000021597Y0000002000D02*
G02X0000021436Y0000002766I0J0000000400D01*
G03X0000002766Y0000021436I-0000005688J0000012982D01*
G02X0000002000Y0000021597I-0000000366J0000000160D01*
G01X0000002000Y0000070504D01*
G02X0000002400Y0000070904I0000000400J0D01*
G01X0000003000Y0000070904D01*
X0000003000Y0000070902D01*
X0000007900Y0000070902D01*
G03X0000012300Y0000075302I0J0000004400D01*
G01X0000012300Y0000092023D01*
G03X0000007900Y0000096423I-0000004400J0D01*
G01X0000002400Y0000096423D01*
G02X0000002000Y0000096823I0J0000000400D01*
G01X0000002000Y0000155000D01*
G02X0000005000Y0000158000I0000003000J0D01*
G01X0000031130Y0000158000D01*
G03X0000036974Y0000161146I0J0000007000D01*
G02X0000037708Y0000160932I0000000334J-0000000220D01*
G03X0000038840Y0000164402I0000005599J0000000091D01*
G02X0000038122Y0000164663I-0000000319J0000000241D01*
G03X0000038130Y0000165000I-0000006992J0000000337D01*
G01X0000038130Y0000208500D01*
G03X0000038115Y0000208963I-0000007000J0D01*
G02X0000038833Y0000209230I0000000399J0000000026D01*
G03X0000047780Y0000209230I0000004474J0000003369D01*
G02X0000048500Y0000208989I0000000320J-0000000241D01*
G01X0000048500Y0000208000D01*
X0000045091Y0000204591D01*
X0000043637Y0000204591D01*
X0000043637Y0000196591D01*
X0000044000Y0000196591D01*
X0000044000Y0000192413D01*
G03X0000044000Y0000189083I0000003637J-0000001665D01*
G01X0000044000Y0000184539D01*
G03X0000043983Y0000181248I0000003637J-0000001665D01*
G01X0000044000Y0000181209D01*
X0000044000Y0000180000D01*
X0000045500Y0000178500D01*
X0000050500Y0000178500D01*
X0000057000Y0000172000D01*
X0000057000Y0000025000D01*
X0000078000Y0000004000D01*
X0000265500Y0000004000D01*
X0000265800Y0000004300D01*
X0000295497Y0000004300D01*
X0000336200Y0000045003D01*
X0000336200Y0000105497D01*
X0000335349Y0000106349D01*
X0000337000Y0000108000D01*
X0000337000Y0000123000D01*
X0000345000Y0000131000D01*
X0000345000Y0000135182D01*
G03X0000345000Y0000137784I-0000001520J0000001301D01*
G01X0000345000Y0000140682D01*
G03X0000345000Y0000143284I-0000001520J0000001301D01*
G01X0000345000Y0000146182D01*
G03X0000345000Y0000148784I-0000001520J0000001301D01*
G01X0000345000Y0000151677D01*
G03X0000345000Y0000154323I-0000001500J0000001323D01*
G01X0000345000Y0000156043D01*
G03X0000345000Y0000158957I-0000001370J0000001457D01*
G01X0000345000Y0000159638D01*
G03X0000345000Y0000162410I-0000000800J0000001386D01*
G01X0000345000Y0000164834D01*
G02X0000345683Y0000165117I0000000400J0D01*
G01X0000347015Y0000163785D01*
X0000347015Y0000160547D01*
X0000349528Y0000158034D01*
X0000349543Y0000158001D01*
G03X0000351774Y0000157261I0000001457J0000000661D01*
G02X0000352367Y0000156911I0000000193J-0000000350D01*
G01X0000352367Y0000021597D01*
G02X0000351600Y0000021436I-0000000400J0D01*
G03X0000332930Y0000002766I-0000012982J-0000005688D01*
G02X0000332769Y0000002000I-0000000161J-0000000366D01*
G01X0000021597Y0000002000D01*
G37*
G36*
G01X0000036973Y0000212355D02*
G03X0000031130Y0000215500I-0000005843J-0000003855D01*
G01X0000005000Y0000215500D01*
G02X0000002000Y0000218500I0J0000003000D01*
G01X0000002000Y0000317608D01*
G02X0000002491Y0000317998I0000000400J0D01*
G03X0000003301Y0000317904I0000000810J0000003459D01*
G01X0000007435Y0000317904D01*
G03X0000007435Y0000325010I0J0000003553D01*
G01X0000003301Y0000325010D01*
G03X0000002491Y0000324917I0J-0000003553D01*
G02X0000002000Y0000325306I-0000000091J0000000389D01*
G01X0000002000Y0000342018D01*
G02X0000002491Y0000342407I0000000400J0D01*
G03X0000003301Y0000342314I0000000810J0000003459D01*
G01X0000007435Y0000342314D01*
G03X0000008385Y0000342443I0J0000003553D01*
G02X0000008775Y0000341775I0000000107J-0000000385D01*
G01X0000008500Y0000341500D01*
X0000008500Y0000329000D01*
X0000012000Y0000325500D01*
X0000025500Y0000325500D01*
X0000038000Y0000313000D01*
X0000038000Y0000274000D01*
X0000048500Y0000263500D01*
X0000048500Y0000216208D01*
G02X0000047780Y0000215968I-0000000400J0D01*
G03X0000037707Y0000212577I-0000004474J-0000003369D01*
G02X0000036973Y0000212355I-0000000400J-0000000001D01*
G37*
G36*
G01X0000352367Y0000163751D02*
G02X0000351774Y0000163401I-0000000400J0D01*
G03X0000350508Y0000163523I-0000000774J-0000001401D01*
G02X0000349985Y0000163903I-0000000123J0000000381D01*
G01X0000349985Y0000165015D01*
X0000345000Y0000170000D01*
X0000345000Y0000171000D01*
X0000338500Y0000177500D01*
X0000313500Y0000177500D01*
X0000282000Y0000209000D01*
X0000262000Y0000209000D01*
X0000257000Y0000214000D01*
X0000257000Y0000257500D01*
X0000263000Y0000263500D01*
X0000297000Y0000263500D01*
X0000299000Y0000261500D01*
X0000343000Y0000261500D01*
X0000349500Y0000268000D01*
X0000349500Y0000319500D01*
X0000323500Y0000345500D01*
X0000323500Y0000427000D01*
X0000319500Y0000431000D01*
X0000285000Y0000431000D01*
X0000284500Y0000431500D01*
X0000284500Y0000439000D01*
X0000282000Y0000441500D01*
X0000253500Y0000441500D01*
X0000230110Y0000418110D01*
X0000080039Y0000418110D01*
X0000061442Y0000399513D01*
X0000061442Y0000384942D01*
X0000046000Y0000369500D01*
X0000031000Y0000369500D01*
X0000024000Y0000362500D01*
X0000024000Y0000348513D01*
G02X0000023303Y0000348245I-0000000400J0D01*
G03X0000020663Y0000349420I-0000002640J-0000002378D01*
G01X0000016529Y0000349420D01*
G03X0000013753Y0000343650I0J-0000003553D01*
G02X0000013440Y0000343000I-0000000313J-0000000250D01*
G01X0000013252Y0000343000D01*
X0000013193Y0000343067D01*
G03X0000010807Y0000343067I-0000001193J-0000001067D01*
G01X0000010748Y0000343000D01*
X0000010524Y0000343000D01*
G02X0000010211Y0000343650I0J0000000400D01*
G03X0000007435Y0000349420I-0000002776J0000002217D01*
G01X0000003301Y0000349420D01*
G03X0000002491Y0000349326I0J-0000003553D01*
G02X0000002000Y0000349716I-0000000091J0000000389D01*
G01X0000002000Y0000364346D01*
G03X0000009874Y0000374015I-0000002000J0000009669D01*
G01X0000009874Y0000409449D01*
G03X0000002000Y0000419118I-0000009874J0D01*
G01X0000002000Y0000431159D01*
G02X0000002766Y0000431320I0000000400J0D01*
G03X0000021436Y0000449989I0000012982J0000005688D01*
G02X0000021597Y0000450756I0000000161J0000000366D01*
G01X0000117000Y0000450756D01*
X0000117000Y0000450754D01*
X0000119500Y0000450754D01*
X0000119500Y0000450756D01*
X0000148689Y0000450756D01*
X0000148689Y0000424177D01*
X0000218242Y0000424177D01*
G03X0000232647Y0000424148I0000007226J0000011807D01*
G01X0000232695Y0000424177D01*
X0000233177Y0000424177D01*
X0000234453Y0000425453D01*
X0000234459Y0000425458D01*
G03X0000235999Y0000426999I-0000008991J0000010526D01*
G01X0000239500Y0000430500D01*
X0000239500Y0000450756D01*
X0000332769Y0000450756D01*
G02X0000332930Y0000449989I0J-0000000400D01*
G03X0000351600Y0000431320I0000005689J-0000012982D01*
G02X0000352367Y0000431159I0000000366J-0000000161D01*
G01X0000352367Y0000163751D01*
G37*
G36*
G01X0000079000Y0000005500D02*
X0000058500Y0000026000D01*
X0000058500Y0000178942D01*
X0000058511Y0000178974D01*
G03X0000058511Y0000180026I-0000001511J0000000526D01*
G01X0000058500Y0000180058D01*
X0000058500Y0000185000D01*
X0000052999Y0000190501D01*
X0000052999Y0000204501D01*
X0000050500Y0000207000D01*
X0000050500Y0000273500D01*
X0000049500Y0000274500D01*
X0000040500Y0000274500D01*
X0000040000Y0000275000D01*
X0000040000Y0000281500D01*
X0000040500Y0000282000D01*
X0000054500Y0000282000D01*
X0000056000Y0000283500D01*
X0000056000Y0000290500D01*
X0000057000Y0000291500D01*
X0000061000Y0000291500D01*
X0000061750Y0000290750D01*
X0000061750Y0000213750D01*
X0000075750Y0000199750D01*
X0000075750Y0000040750D01*
X0000088500Y0000028000D01*
X0000100500Y0000028000D01*
X0000111000Y0000017500D01*
X0000128706Y0000017500D01*
G02X0000129088Y0000016980I0J-0000000400D01*
G03X0000132141Y0000016980I0000001527J-0000000480D01*
G02X0000132522Y0000017500I0000000382J0000000120D01*
G01X0000148442Y0000017500D01*
X0000148474Y0000017489D01*
G03X0000149526Y0000017489I0000000526J0000001511D01*
G01X0000149558Y0000017500D01*
X0000222000Y0000017500D01*
X0000228000Y0000023500D01*
X0000263000Y0000023500D01*
X0000265000Y0000021500D01*
X0000265000Y0000013000D01*
X0000266500Y0000011500D01*
X0000287000Y0000011500D01*
X0000325000Y0000049500D01*
X0000325000Y0000105000D01*
X0000326000Y0000106000D01*
X0000334000Y0000106000D01*
X0000335000Y0000105000D01*
X0000335000Y0000045500D01*
X0000295000Y0000005500D01*
X0000079000Y0000005500D01*
G37*
G36*
G01X0000098500Y0000053000D02*
X0000077500Y0000074000D01*
X0000077500Y0000201500D01*
X0000071750Y0000207250D01*
X0000071750Y0000221750D01*
X0000064000Y0000229500D01*
X0000064000Y0000281500D01*
X0000067000Y0000284500D01*
X0000067000Y0000291500D01*
X0000065500Y0000293000D01*
X0000049876Y0000293000D01*
X0000043959Y0000298917D01*
X0000043959Y0000321722D01*
X0000045236Y0000323000D01*
X0000062000Y0000323000D01*
X0000062500Y0000322500D01*
X0000062500Y0000320000D01*
X0000063000Y0000319500D01*
X0000081000Y0000319500D01*
X0000082500Y0000318000D01*
X0000085500Y0000318000D01*
X0000096000Y0000307500D01*
X0000096000Y0000302500D01*
X0000132500Y0000266000D01*
X0000132500Y0000161700D01*
G02X0000131780Y0000161460I-0000000400J0D01*
G03X0000131780Y0000159540I-0000001280J-0000000960D01*
G02X0000132500Y0000159300I0000000320J-0000000240D01*
G01X0000132500Y0000117526D01*
X0000132378Y0000117474D01*
G03X0000132378Y0000114526I0000000622J-0000001474D01*
G01X0000132500Y0000114474D01*
X0000132500Y0000058500D01*
X0000127000Y0000053000D01*
X0000098500Y0000053000D01*
G37*
G36*
G01X0000144000Y0000021500D02*
X0000135500Y0000030000D01*
X0000135500Y0000031942D01*
X0000135511Y0000031974D01*
G03X0000135511Y0000033026I-0000001511J0000000526D01*
G01X0000135500Y0000033058D01*
X0000135500Y0000118800D01*
G02X0000136220Y0000119040I0000000400J0D01*
G03X0000136220Y0000120960I0000001280J0000000960D01*
G02X0000135500Y0000121200I-0000000320J0000000240D01*
G01X0000135500Y0000123800D01*
G02X0000136220Y0000124040I0000000400J0D01*
G03X0000136220Y0000125960I0000001280J0000000960D01*
G02X0000135500Y0000126200I-0000000320J0000000240D01*
G01X0000135500Y0000128790D01*
G02X0000136220Y0000129030I0000000400J0D01*
G03X0000136220Y0000130951I0000001280J0000000960D01*
G02X0000135500Y0000131191I-0000000320J0000000240D01*
G01X0000135500Y0000239000D01*
X0000138500Y0000242000D01*
X0000154000Y0000242000D01*
X0000163500Y0000232500D01*
X0000163500Y0000204000D01*
X0000199000Y0000168500D01*
X0000199000Y0000024500D01*
X0000196000Y0000021500D01*
X0000144000Y0000021500D01*
G37*
G36*
G01X0000134000Y0000386500D02*
X0000136000Y0000388500D01*
X0000201000Y0000388500D01*
X0000203000Y0000386500D01*
X0000203000Y0000315500D01*
X0000201000Y0000313500D01*
X0000190000Y0000313500D01*
X0000184000Y0000319500D01*
X0000184000Y0000347500D01*
X0000179000Y0000352500D01*
X0000166500Y0000352500D01*
X0000162000Y0000357000D01*
X0000135500Y0000357000D01*
X0000134000Y0000358500D01*
X0000134000Y0000386500D01*
G37*
G36*
G01X0000204000Y0000019000D02*
X0000203000Y0000020000D01*
X0000203000Y0000030173D01*
G03X0000203000Y0000031827I-0000001370J0000000827D01*
G01X0000203000Y0000034673D01*
G03X0000203000Y0000036327I-0000001370J0000000827D01*
G01X0000203000Y0000037500D01*
X0000204500Y0000039000D01*
X0000206072Y0000039000D01*
X0000206104Y0000038989D01*
G03X0000207156Y0000038989I0000000526J0000001511D01*
G01X0000207188Y0000039000D01*
X0000211072Y0000039000D01*
X0000211104Y0000038989D01*
G03X0000212156Y0000038989I0000000526J0000001511D01*
G01X0000212188Y0000039000D01*
X0000217000Y0000039000D01*
X0000222000Y0000044000D01*
X0000222000Y0000097500D01*
X0000244500Y0000120000D01*
X0000334500Y0000120000D01*
X0000335130Y0000119370D01*
X0000335130Y0000108000D01*
X0000334630Y0000107500D01*
X0000325000Y0000107500D01*
X0000322200Y0000104700D01*
X0000261700Y0000104700D01*
X0000236000Y0000079000D01*
X0000236000Y0000066265D01*
X0000235983Y0000066227D01*
G03X0000235830Y0000065500I0000001647J-0000000727D01*
G01X0000235830Y0000055124D01*
X0000236000Y0000054954D01*
X0000236000Y0000026500D01*
X0000234500Y0000025000D01*
X0000227000Y0000025000D01*
X0000221000Y0000019000D01*
X0000204000Y0000019000D01*
G37*
G36*
G01X0000242446Y0000121500D02*
X0000242130Y0000121500D01*
X0000238613Y0000117983D01*
X0000238497Y0000118021D01*
G03X0000236479Y0000116004I-0000000497J-0000001521D01*
G01X0000236517Y0000115887D01*
X0000219500Y0000098870D01*
X0000219500Y0000046000D01*
X0000218500Y0000045000D01*
X0000204500Y0000045000D01*
X0000204000Y0000045500D01*
X0000204000Y0000104370D01*
X0000215565Y0000115935D01*
X0000215565Y0000129565D01*
X0000219000Y0000133000D01*
X0000232565Y0000133000D01*
X0000235565Y0000136000D01*
X0000263500Y0000136000D01*
X0000267000Y0000132500D01*
X0000282000Y0000132500D01*
X0000285000Y0000129500D01*
X0000331130Y0000129500D01*
X0000331630Y0000129000D01*
X0000331630Y0000122000D01*
X0000331130Y0000121500D01*
X0000246018Y0000121500D01*
G02X0000245619Y0000121920I0J0000000400D01*
G03X0000242443Y0000121733I-0000001598J0000000080D01*
G01X0000242446Y0000121717D01*
X0000242446Y0000121500D01*
G37*
G36*
G01X0000260500Y0000392000D02*
X0000260099Y0000391599D01*
X0000260015Y0000391600D01*
G03X0000258400Y0000389985I-0000000015J-0000001600D01*
G01X0000258401Y0000389901D01*
X0000248500Y0000380000D01*
X0000224000Y0000380000D01*
X0000223000Y0000381000D01*
X0000223000Y0000384000D01*
X0000224901Y0000385901D01*
X0000224985Y0000385900D01*
G03X0000225526Y0000385989I0000000015J0000001600D01*
G01X0000225558Y0000386000D01*
X0000237000Y0000386000D01*
X0000260500Y0000409500D01*
X0000275000Y0000409500D01*
X0000277000Y0000411500D01*
X0000277000Y0000416000D01*
X0000290500Y0000429500D01*
X0000318500Y0000429500D01*
X0000321500Y0000426500D01*
X0000321500Y0000416500D01*
X0000321000Y0000416000D01*
X0000313500Y0000416000D01*
X0000312500Y0000417000D01*
X0000312500Y0000419000D01*
X0000312000Y0000419500D01*
X0000294500Y0000419500D01*
X0000293000Y0000418000D01*
X0000293000Y0000402000D01*
X0000283000Y0000392000D01*
X0000270558Y0000392000D01*
X0000270526Y0000392011D01*
G03X0000269474Y0000392011I-0000000526J-0000001511D01*
G01X0000269442Y0000392000D01*
X0000260500Y0000392000D01*
G37*
G36*
G01X0000323800Y0000103334D02*
X0000323800Y0000049997D01*
X0000286503Y0000012700D01*
X0000273500Y0000012700D01*
X0000273500Y0000015500D01*
X0000274500Y0000016500D01*
X0000281000Y0000016500D01*
X0000288500Y0000024000D01*
X0000288500Y0000034000D01*
X0000293000Y0000038500D01*
X0000300000Y0000038500D01*
X0000301470Y0000039970D01*
X0000301514Y0000039985D01*
G03X0000302516Y0000040986I-0000000514J0000001515D01*
G01X0000302530Y0000041030D01*
X0000308000Y0000046500D01*
X0000308000Y0000070000D01*
X0000306000Y0000072000D01*
X0000297500Y0000072000D01*
X0000284000Y0000058500D01*
X0000276000Y0000058500D01*
X0000274500Y0000057000D01*
X0000274500Y0000052000D01*
X0000271500Y0000049000D01*
X0000249000Y0000049000D01*
X0000243000Y0000055000D01*
X0000243000Y0000066000D01*
X0000245500Y0000068500D01*
X0000262000Y0000068500D01*
X0000270500Y0000077000D01*
X0000274500Y0000077000D01*
X0000278500Y0000081000D01*
X0000278500Y0000092500D01*
X0000289500Y0000103500D01*
X0000322697Y0000103500D01*
X0000323000Y0000103500D01*
X0000323117Y0000103617D01*
G02X0000323800Y0000103334I0000000283J-0000000283D01*
G37*
%LPC*%
G75*
G36*
G01X0000021886Y0000282111D02*
G02X0000021886Y0000287248I0J0000002569D01*
G01X0000026216Y0000287248D01*
G02X0000026216Y0000282111I0J-0000002569D01*
G01X0000021886Y0000282111D01*
G37*
G36*
G01X0000021886Y0000248095D02*
G02X0000021886Y0000253232I0J0000002569D01*
G01X0000026216Y0000253232D01*
G02X0000026216Y0000248095I0J-0000002569D01*
G01X0000021886Y0000248095D01*
G37*
G36*
G01X0000016529Y0000317904D02*
G02X0000016529Y0000325010I0J0000003553D01*
G01X0000020663Y0000325010D01*
G02X0000020663Y0000317904I0J-0000003553D01*
G01X0000016529Y0000317904D01*
G37*
G36*
G01X0000006413Y0000282111D02*
G02X0000006413Y0000287248I0J0000002569D01*
G01X0000008776Y0000287248D01*
G02X0000008776Y0000282111I0J-0000002569D01*
G01X0000006413Y0000282111D01*
G37*
G36*
G01X0000006413Y0000248095D02*
G02X0000006413Y0000253232I0J0000002569D01*
G01X0000008776Y0000253232D01*
G02X0000008776Y0000248095I0J-0000002569D01*
G01X0000006413Y0000248095D01*
G37*
G36*
G01X0000019956Y0000269940D02*
G03X0000019956Y0000269340I0000000265J-0000000300D01*
G02X0000017839Y0000269340I-0000001059J-0000001200D01*
G03X0000017839Y0000269940I-0000000265J0000000300D01*
G02X0000019956Y0000269940I0000001059J0000001200D01*
G37*
G36*
G01X0000033488Y0000266503D02*
G03X0000033488Y0000265903I0000000265J-0000000300D01*
G02X0000031370Y0000265903I-0000001059J-0000001200D01*
G03X0000031370Y0000266503I-0000000265J0000000300D01*
G02X0000033488Y0000266503I0000001059J0000001200D01*
G37*
G36*
G01X0000031444Y0000253460D02*
X0000025300Y0000259604D01*
X0000025300Y0000274532D01*
X0000029444Y0000278676D01*
G02X0000032556Y0000275564I0000001556J-0000001556D01*
G01X0000029700Y0000272709D01*
X0000029700Y0000261427D01*
X0000034556Y0000256572D01*
G02X0000031444Y0000253460I-0000001556J-0000001556D01*
G37*
G36*
G01X0000032775Y0000395900D02*
G02X0000031225Y0000395900I-0000000775J-0000001400D01*
G03X0000031225Y0000396600I-0000000194J0000000350D01*
G02X0000032775Y0000396600I0000000775J0000001400D01*
G03X0000032775Y0000395900I0000000194J-0000000350D01*
G37*
G36*
G01X0000063930Y0000176941D02*
G03X0000063330Y0000176941I-0000000300J-0000000265D01*
G02X0000063330Y0000179059I-0000001200J0000001059D01*
G03X0000063930Y0000179059I0000000300J0000000265D01*
G02X0000063930Y0000176941I0000001200J-0000001059D01*
G37*
G36*
G01X0000250616Y0000015890D02*
G03X0000250616Y0000015260I0000000247J-0000000315D01*
G02X0000248644Y0000015260I-0000000986J-0000001260D01*
G03X0000248644Y0000015890I-0000000247J0000000315D01*
G02X0000250616Y0000015890I0000000986J0000001260D01*
G37*
G36*
G01X0000246616Y0000015890D02*
G03X0000246616Y0000015260I0000000247J-0000000315D01*
G02X0000244644Y0000015260I-0000000986J-0000001260D01*
G03X0000244644Y0000015890I-0000000247J0000000315D01*
G02X0000246616Y0000015890I0000000986J0000001260D01*
G37*
G36*
G01X0000242616Y0000015890D02*
G03X0000242616Y0000015260I0000000247J-0000000315D01*
G02X0000240644Y0000015260I-0000000986J-0000001260D01*
G03X0000240644Y0000015890I-0000000247J0000000315D01*
G02X0000242616Y0000015890I0000000986J0000001260D01*
G37*
G36*
G01X0000236616Y0000015390D02*
G03X0000236616Y0000014760I0000000247J-0000000315D01*
G02X0000234644Y0000014760I-0000000986J-0000001260D01*
G03X0000234644Y0000015390I-0000000247J0000000315D01*
G02X0000236616Y0000015390I0000000986J0000001260D01*
G37*
G36*
G01X0000063084Y0000194997D02*
G02X0000063016Y0000196859I-0000001334J0000000883D01*
G03X0000063666Y0000196883I0000000316J0000000245D01*
G02X0000063734Y0000195021I0000001334J-0000000883D01*
G03X0000063084Y0000194997I-0000000316J-0000000245D01*
G37*
G36*
G01X0000229530Y0000012725D02*
G02X0000227144Y0000014760I-0000001400J0000000775D01*
G03X0000227144Y0000015390I-0000000247J0000000315D01*
G02X0000229530Y0000017425I0000000986J0000001260D01*
G03X0000230230Y0000017425I0000000350J0000000194D01*
G02X0000232616Y0000015390I0000001400J-0000000775D01*
G03X0000232616Y0000014760I0000000247J-0000000315D01*
G02X0000230230Y0000012725I-0000000986J-0000001260D01*
G03X0000229530Y0000012725I-0000000350J-0000000194D01*
G37*
G36*
G01X0000121559Y0000162300D02*
G03X0000121559Y0000161700I0000000265J-0000000300D01*
G02X0000119441Y0000161700I-0000001059J-0000001200D01*
G03X0000119441Y0000162300I-0000000265J0000000300D01*
G02X0000121559Y0000162300I0000001059J0000001200D01*
G37*
G36*
G01X0000155400Y0000176225D02*
G02X0000155400Y0000177775I-0000001400J0000000775D01*
G03X0000156100Y0000177775I0000000350J0000000194D01*
G02X0000156100Y0000176225I0000001400J-0000000775D01*
G03X0000155400Y0000176225I-0000000350J-0000000194D01*
G37*
G54D31*
X0000095548Y0000435984D03*
X0000095548Y0000247007D03*
G54D32*
X0000029000Y0000404500D03*
X0000290500Y0000221500D03*
X0000290500Y0000227000D03*
X0000290000Y0000250500D03*
X0000290000Y0000245500D03*
X0000290000Y0000256000D03*
X0000290000Y0000261000D03*
X0000318000Y0000216500D03*
X0000322500Y0000216500D03*
X0000318000Y0000221000D03*
X0000322500Y0000221000D03*
X0000062500Y0000050000D03*
X0000078500Y0000027500D03*
X0000070000Y0000042500D03*
X0000070000Y0000050000D03*
X0000071886Y0000071500D03*
X0000097000Y0000017500D03*
X0000082000Y0000030500D03*
X0000100500Y0000015000D03*
X0000124500Y0000014000D03*
X0000145130Y0000014500D03*
X0000134000Y0000014000D03*
X0000154500Y0000015000D03*
X0000060000Y0000303500D03*
X0000057500Y0000308500D03*
X0000080000Y0000110000D03*
X0000080000Y0000115500D03*
X0000080000Y0000135000D03*
X0000080000Y0000122500D03*
X0000080000Y0000150000D03*
X0000080000Y0000142500D03*
X0000080000Y0000157500D03*
X0000072000Y0000230500D03*
X0000072500Y0000249016D03*
X0000072000Y0000235516D03*
X0000075000Y0000259000D03*
X0000068000Y0000276500D03*
X0000080614Y0000289886D03*
X0000077000Y0000296500D03*
X0000065000Y0000303500D03*
X0000070000Y0000312500D03*
X0000093500Y0000084000D03*
X0000086386Y0000118500D03*
X0000093000Y0000121500D03*
X0000089000Y0000179000D03*
X0000089000Y0000185000D03*
X0000089000Y0000190000D03*
X0000087500Y0000262500D03*
X0000082500Y0000282500D03*
X0000082000Y0000297500D03*
X0000087500Y0000290000D03*
X0000095000Y0000300000D03*
X0000090000Y0000305000D03*
X0000097500Y0000084000D03*
X0000111000Y0000094000D03*
X0000098500Y0000099500D03*
X0000099500Y0000147500D03*
X0000110500Y0000160500D03*
X0000113300Y0000152300D03*
X0000104000Y0000163500D03*
X0000109500Y0000174000D03*
X0000113500Y0000182000D03*
X0000109500Y0000194000D03*
X0000113500Y0000192000D03*
X0000110000Y0000215000D03*
X0000110000Y0000230000D03*
X0000110000Y0000222500D03*
X0000110000Y0000237500D03*
X0000100000Y0000262500D03*
X0000100000Y0000272500D03*
X0000120000Y0000080000D03*
X0000114000Y0000100000D03*
X0000115543Y0000114957D03*
X0000115543Y0000138543D03*
X0000125500Y0000160500D03*
X0000115500Y0000160500D03*
X0000138000Y0000032500D03*
X0000148000Y0000068500D03*
X0000162000Y0000123000D03*
X0000172630Y0000067000D03*
X0000167130Y0000067000D03*
X0000175000Y0000140000D03*
X0000175000Y0000167500D03*
X0000168500Y0000158500D03*
X0000165000Y0000167500D03*
X0000170000Y0000167500D03*
X0000206630Y0000035500D03*
X0000211630Y0000035500D03*
X0000206630Y0000031000D03*
X0000211630Y0000031000D03*
X0000227630Y0000029000D03*
X0000227630Y0000033000D03*
X0000227630Y0000046000D03*
X0000227630Y0000052000D03*
X0000227630Y0000039500D03*
X0000227630Y0000057500D03*
X0000227630Y0000062000D03*
X0000227630Y0000094000D03*
X0000233130Y0000033000D03*
X0000233130Y0000029000D03*
X0000233630Y0000046000D03*
X0000233130Y0000039500D03*
X0000232687Y0000060557D03*
X0000232687Y0000065557D03*
X0000233130Y0000055500D03*
X0000234630Y0000094130D03*
X0000242000Y0000110500D03*
X0000252000Y0000110500D03*
X0000273500Y0000108000D03*
X0000268500Y0000108000D03*
X0000283500Y0000108000D03*
X0000278500Y0000108000D03*
X0000211630Y0000060000D03*
X0000211630Y0000055500D03*
X0000216630Y0000060000D03*
X0000216630Y0000055500D03*
X0000225700Y0000118000D03*
X0000225700Y0000127041D03*
X0000225700Y0000122000D03*
X0000232000Y0000116500D03*
X0000241049Y0000132483D03*
X0000255935Y0000129483D03*
X0000251935Y0000129483D03*
X0000245935Y0000129483D03*
X0000265427Y0000129991D03*
X0000261935Y0000126483D03*
X0000252500Y0000389500D03*
X0000259000Y0000402000D03*
X0000274500Y0000401500D03*
X0000269500Y0000401500D03*
X0000269500Y0000406500D03*
X0000307500Y0000425000D03*
G54D27*
X0000047637Y0000173031D03*
G54D29*
X0000017520Y0000401575D03*
G54D30*
X0000017520Y0000381890D03*
G54D28*
X0000022083Y0000256293D03*
X0000022083Y0000279049D03*
%LPD*%
G75*
G54D10*
X0000015748Y0000015748D03*
X0000015748Y0000437008D03*
X0000338619Y0000015748D03*
X0000338619Y0000437008D03*
G54D11*
G01X0000031000Y0000257016D02*
X0000033000Y0000255016D01*
G01X0000031000Y0000277120D02*
X0000027500Y0000273620D01*
X0000027500Y0000260516D01*
X0000031000Y0000257016D01*
G01X0000300872Y0000067872D02*
X0000285630Y0000052630D01*
X0000285630Y0000047500D01*
G01X0000304872Y0000067872D02*
X0000300872Y0000067872D01*
X0000005630Y0000035000D03*
X0000005000Y0000045000D03*
X0000005630Y0000055000D03*
X0000012500Y0000070000D03*
X0000004500Y0000069800D03*
X0000005630Y0000115000D03*
X0000005630Y0000105000D03*
X0000005630Y0000125000D03*
X0000005630Y0000135000D03*
X0000005630Y0000145000D03*
X0000003500Y0000227500D03*
X0000010000Y0000227500D03*
X0000003500Y0000220000D03*
X0000003500Y0000242500D03*
X0000003500Y0000235000D03*
X0000010000Y0000242500D03*
X0000010000Y0000235000D03*
X0000005630Y0000260000D03*
X0000012000Y0000257500D03*
X0000011000Y0000265500D03*
X0000005630Y0000280000D03*
X0000011000Y0000276000D03*
X0000005630Y0000270000D03*
X0000005630Y0000295000D03*
X0000005630Y0000305000D03*
X0000005630Y0000315000D03*
X0000005630Y0000330000D03*
X0000014500Y0000328500D03*
X0000011130Y0000329853D03*
X0000011130Y0000332853D03*
X0000005630Y0000340000D03*
X0000014000Y0000334000D03*
X0000014000Y0000339600D03*
X0000011130Y0000338784D03*
X0000011130Y0000335784D03*
X0000012000Y0000342000D03*
X0000005000Y0000355000D03*
X0000012500Y0000390000D03*
X0000015630Y0000035000D03*
X0000025630Y0000035000D03*
X0000025630Y0000045000D03*
X0000027992Y0000068992D03*
X0000015630Y0000055000D03*
X0000025000Y0000075000D03*
X0000017500Y0000075000D03*
X0000017500Y0000070000D03*
X0000025500Y0000090500D03*
X0000015500Y0000090500D03*
X0000025500Y0000097500D03*
X0000015500Y0000097500D03*
X0000025630Y0000115000D03*
X0000015630Y0000115000D03*
X0000015500Y0000105000D03*
X0000025500Y0000105000D03*
X0000025500Y0000125000D03*
X0000015500Y0000125000D03*
X0000015630Y0000135000D03*
X0000025630Y0000135000D03*
X0000015630Y0000145000D03*
X0000025630Y0000145000D03*
X0000025630Y0000155000D03*
X0000017500Y0000227500D03*
X0000025000Y0000227500D03*
X0000025000Y0000220000D03*
X0000017500Y0000242500D03*
X0000025000Y0000242500D03*
X0000017500Y0000235000D03*
X0000025000Y0000235000D03*
X0000021500Y0000266516D03*
X0000031000Y0000257016D03*
X0000021500Y0000273516D03*
X0000015630Y0000280000D03*
X0000031000Y0000280270D03*
X0000018898Y0000268140D03*
X0000018898Y0000271140D03*
X0000031000Y0000277120D03*
X0000030000Y0000292500D03*
X0000015630Y0000295000D03*
X0000025630Y0000295000D03*
X0000015630Y0000305000D03*
X0000015630Y0000315000D03*
X0000025630Y0000305000D03*
X0000025630Y0000315000D03*
X0000029500Y0000325500D03*
X0000029500Y0000331000D03*
X0000029500Y0000337500D03*
X0000015000Y0000365000D03*
X0000025000Y0000365000D03*
X0000023000Y0000355000D03*
X0000015000Y0000355000D03*
X0000015000Y0000375000D03*
X0000025000Y0000375000D03*
X0000020000Y0000395000D03*
X0000025000Y0000385000D03*
X0000025000Y0000410000D03*
X0000015000Y0000410000D03*
X0000029000Y0000404500D03*
X0000025000Y0000420000D03*
X0000015000Y0000420000D03*
X0000045630Y0000005000D03*
X0000045630Y0000015000D03*
X0000035630Y0000005000D03*
X0000035630Y0000015000D03*
X0000045630Y0000035000D03*
X0000045630Y0000025000D03*
X0000035630Y0000025000D03*
X0000045000Y0000045000D03*
X0000035630Y0000045000D03*
X0000035000Y0000060000D03*
X0000042500Y0000060000D03*
X0000035000Y0000067500D03*
X0000042500Y0000067500D03*
X0000032339Y0000065161D03*
X0000042500Y0000075000D03*
X0000035000Y0000075000D03*
X0000045500Y0000097000D03*
X0000035630Y0000090500D03*
X0000035630Y0000097500D03*
X0000045500Y0000104500D03*
X0000045630Y0000114500D03*
X0000035630Y0000115000D03*
X0000035630Y0000105000D03*
X0000045630Y0000134500D03*
X0000045500Y0000124500D03*
X0000035630Y0000135000D03*
X0000035630Y0000125000D03*
X0000045630Y0000144500D03*
X0000035630Y0000145000D03*
X0000035630Y0000155000D03*
X0000040000Y0000169500D03*
X0000040630Y0000175000D03*
X0000040630Y0000195000D03*
X0000040630Y0000185000D03*
X0000040630Y0000205000D03*
X0000032500Y0000220000D03*
X0000040000Y0000220000D03*
X0000040000Y0000227500D03*
X0000047500Y0000227500D03*
X0000032500Y0000227500D03*
X0000047500Y0000220000D03*
X0000040000Y0000235000D03*
X0000032500Y0000235000D03*
X0000034500Y0000263016D03*
X0000041323Y0000258839D03*
X0000046344Y0000250671D03*
X0000032429Y0000264703D03*
X0000033000Y0000255016D03*
X0000034500Y0000269516D03*
X0000032429Y0000267703D03*
X0000041323Y0000275516D03*
X0000045000Y0000295000D03*
X0000047500Y0000290000D03*
X0000047500Y0000285000D03*
X0000035630Y0000295000D03*
X0000032307Y0000329578D03*
X0000032307Y0000326578D03*
X0000045000Y0000340000D03*
X0000045000Y0000346000D03*
X0000032300Y0000336205D03*
X0000032300Y0000333205D03*
X0000039500Y0000343000D03*
X0000045000Y0000365000D03*
X0000032500Y0000365000D03*
X0000038886Y0000354614D03*
X0000032500Y0000349500D03*
X0000032500Y0000356000D03*
X0000045000Y0000375000D03*
X0000032500Y0000375000D03*
X0000045000Y0000385000D03*
X0000032500Y0000385000D03*
X0000032000Y0000394500D03*
X0000032000Y0000398000D03*
X0000045000Y0000410000D03*
X0000035000Y0000410000D03*
X0000035000Y0000430000D03*
X0000045000Y0000430000D03*
X0000035000Y0000420000D03*
X0000045000Y0000420000D03*
X0000035000Y0000448000D03*
X0000045000Y0000448000D03*
X0000045000Y0000440000D03*
X0000035000Y0000440000D03*
X0000053130Y0000005000D03*
X0000053130Y0000015000D03*
X0000052500Y0000035000D03*
X0000053130Y0000025000D03*
X0000052500Y0000045000D03*
X0000062500Y0000050000D03*
X0000050000Y0000060000D03*
X0000050000Y0000067500D03*
X0000050000Y0000075000D03*
X0000055630Y0000097000D03*
X0000048492Y0000090500D03*
X0000055630Y0000104500D03*
X0000055630Y0000114500D03*
X0000055630Y0000134500D03*
X0000055630Y0000124500D03*
X0000055630Y0000144500D03*
X0000055000Y0000165000D03*
X0000055000Y0000155000D03*
X0000055000Y0000172500D03*
X0000057000Y0000179500D03*
X0000053500Y0000179500D03*
X0000062130Y0000178000D03*
X0000053500Y0000182500D03*
X0000056500Y0000182500D03*
X0000061750Y0000195880D03*
X0000051500Y0000232500D03*
X0000057500Y0000232500D03*
X0000060500Y0000235000D03*
X0000054500Y0000235000D03*
X0000051500Y0000237500D03*
X0000057500Y0000237500D03*
X0000052500Y0000285000D03*
X0000059000Y0000290000D03*
X0000060000Y0000303500D03*
X0000055000Y0000313500D03*
X0000050000Y0000313500D03*
X0000060500Y0000313500D03*
X0000057500Y0000308500D03*
X0000060500Y0000317500D03*
X0000060500Y0000321500D03*
X0000050000Y0000317500D03*
X0000055000Y0000317500D03*
X0000055000Y0000321500D03*
X0000050000Y0000321500D03*
X0000055500Y0000340500D03*
X0000060000Y0000340500D03*
X0000060000Y0000336500D03*
X0000062500Y0000347000D03*
X0000052000Y0000346500D03*
X0000063860Y0000344500D03*
X0000062000Y0000350000D03*
X0000055000Y0000430000D03*
X0000055000Y0000420000D03*
X0000055000Y0000448000D03*
X0000055000Y0000440000D03*
X0000075500Y0000005000D03*
X0000065630Y0000005000D03*
X0000070630Y0000005000D03*
X0000065500Y0000010000D03*
X0000070500Y0000010000D03*
X0000078500Y0000027500D03*
X0000077500Y0000042500D03*
X0000077500Y0000050000D03*
X0000070000Y0000042500D03*
X0000070000Y0000050000D03*
X0000077500Y0000057500D03*
X0000078500Y0000067500D03*
X0000071886Y0000071500D03*
X0000080000Y0000110000D03*
X0000080000Y0000115500D03*
X0000080000Y0000135000D03*
X0000080000Y0000122500D03*
X0000080000Y0000150000D03*
X0000080000Y0000142500D03*
X0000080000Y0000157500D03*
X0000065130Y0000178000D03*
X0000065000Y0000196000D03*
X0000070000Y0000215000D03*
X0000065000Y0000215000D03*
X0000077500Y0000210000D03*
X0000077500Y0000205000D03*
X0000072000Y0000230500D03*
X0000065000Y0000220000D03*
X0000070000Y0000220000D03*
X0000072500Y0000249016D03*
X0000072000Y0000235516D03*
X0000075000Y0000259000D03*
X0000068000Y0000276500D03*
X0000080614Y0000289886D03*
X0000077000Y0000296500D03*
X0000065000Y0000290000D03*
X0000065000Y0000303500D03*
X0000070000Y0000312500D03*
X0000070000Y0000321500D03*
X0000070500Y0000326500D03*
X0000074500Y0000330500D03*
X0000065000Y0000321500D03*
X0000080000Y0000332520D03*
X0000069000Y0000347000D03*
X0000070500Y0000341000D03*
X0000076500Y0000341000D03*
X0000066860Y0000344500D03*
X0000071860Y0000338000D03*
X0000074860Y0000338000D03*
X0000080000Y0000335520D03*
X0000080000Y0000341968D03*
X0000080000Y0000344968D03*
X0000074000Y0000350000D03*
X0000079500Y0000356000D03*
X0000071500Y0000360500D03*
X0000075000Y0000365226D03*
X0000077000Y0000351500D03*
X0000077000Y0000354500D03*
X0000075000Y0000362226D03*
X0000065500Y0000378000D03*
X0000065500Y0000372500D03*
X0000071000Y0000372500D03*
X0000071500Y0000367000D03*
X0000065500Y0000367000D03*
X0000080000Y0000387500D03*
X0000080000Y0000384500D03*
X0000075000Y0000430000D03*
X0000065000Y0000430000D03*
X0000075000Y0000448000D03*
X0000065000Y0000448000D03*
X0000075000Y0000440000D03*
X0000065000Y0000440000D03*
X0000097000Y0000017500D03*
X0000082000Y0000030500D03*
X0000085000Y0000042500D03*
X0000092500Y0000042500D03*
X0000092500Y0000050000D03*
X0000085000Y0000050000D03*
X0000093500Y0000084000D03*
X0000086386Y0000118500D03*
X0000093000Y0000121500D03*
X0000089000Y0000179000D03*
X0000089000Y0000185000D03*
X0000089000Y0000190000D03*
X0000082500Y0000205000D03*
X0000082500Y0000210000D03*
X0000087500Y0000262500D03*
X0000082500Y0000282500D03*
X0000082000Y0000297500D03*
X0000087500Y0000290000D03*
X0000095000Y0000300000D03*
X0000090000Y0000305000D03*
X0000091500Y0000330500D03*
X0000096000Y0000330500D03*
X0000084500Y0000322209D03*
X0000082500Y0000331000D03*
X0000096000Y0000325000D03*
X0000091000Y0000325000D03*
X0000091000Y0000319000D03*
X0000096000Y0000321000D03*
X0000096000Y0000317484D03*
X0000091500Y0000334000D03*
X0000091500Y0000347000D03*
X0000082500Y0000340500D03*
X0000082500Y0000337000D03*
X0000096000Y0000343000D03*
X0000096000Y0000334500D03*
X0000095000Y0000340244D03*
X0000095000Y0000337244D03*
X0000091500Y0000360004D03*
X0000091500Y0000350555D03*
X0000091500Y0000355280D03*
X0000091272Y0000364728D03*
X0000092500Y0000378000D03*
X0000092500Y0000375000D03*
X0000091500Y0000368500D03*
X0000083000Y0000389000D03*
X0000083000Y0000383000D03*
X0000095500Y0000388350D03*
X0000095626Y0000383626D03*
X0000100500Y0000015000D03*
X0000107500Y0000042500D03*
X0000100000Y0000042500D03*
X0000097500Y0000084000D03*
X0000111000Y0000094000D03*
X0000098500Y0000099500D03*
X0000099500Y0000147500D03*
X0000110500Y0000160500D03*
X0000113300Y0000152300D03*
X0000104000Y0000163500D03*
X0000109500Y0000174000D03*
X0000113500Y0000182000D03*
X0000109500Y0000194000D03*
X0000113500Y0000192000D03*
X0000110000Y0000215000D03*
X0000110000Y0000230000D03*
X0000110000Y0000222500D03*
X0000110000Y0000237500D03*
X0000100000Y0000262500D03*
X0000100000Y0000272500D03*
X0000110000Y0000297500D03*
X0000112500Y0000307500D03*
X0000107500Y0000312500D03*
X0000100000Y0000307500D03*
X0000107500Y0000320000D03*
X0000104000Y0000348000D03*
X0000109000Y0000348000D03*
X0000104000Y0000353000D03*
X0000104272Y0000364728D03*
X0000103996Y0000360004D03*
X0000104000Y0000356000D03*
X0000109000Y0000353000D03*
X0000107500Y0000375000D03*
X0000107500Y0000378000D03*
X0000111500Y0000378500D03*
X0000105000Y0000373500D03*
X0000104402Y0000378902D03*
X0000104500Y0000368000D03*
X0000104500Y0000384500D03*
X0000108000Y0000384500D03*
X0000108000Y0000388000D03*
X0000104500Y0000387500D03*
X0000125000Y0000003000D03*
X0000117500Y0000003000D03*
X0000124500Y0000014000D03*
X0000115000Y0000020008D03*
X0000124500Y0000032500D03*
X0000123492Y0000025992D03*
X0000116000Y0000025992D03*
X0000124500Y0000037000D03*
X0000115000Y0000042500D03*
X0000117630Y0000064000D03*
X0000117630Y0000060000D03*
X0000121630Y0000064000D03*
X0000121630Y0000060000D03*
X0000125630Y0000064000D03*
X0000125630Y0000060000D03*
X0000120000Y0000080000D03*
X0000114000Y0000100000D03*
X0000115543Y0000114957D03*
X0000115543Y0000138543D03*
X0000125500Y0000160500D03*
X0000120500Y0000160500D03*
X0000115500Y0000160500D03*
X0000120500Y0000163500D03*
X0000115000Y0000292500D03*
X0000117500Y0000302500D03*
X0000121500Y0000355500D03*
X0000121500Y0000361500D03*
X0000119000Y0000379911D03*
X0000119500Y0000369500D03*
X0000118000Y0000367000D03*
X0000118000Y0000375000D03*
X0000122000Y0000378647D03*
X0000119500Y0000372500D03*
X0000119000Y0000382911D03*
X0000122000Y0000384147D03*
X0000125000Y0000430000D03*
X0000115000Y0000430000D03*
X0000115000Y0000448000D03*
X0000125000Y0000448000D03*
X0000125000Y0000440000D03*
X0000115000Y0000440000D03*
X0000140000Y0000003000D03*
X0000132500Y0000003000D03*
X0000145130Y0000014500D03*
X0000134000Y0000014000D03*
X0000130614Y0000016500D03*
X0000130614Y0000036000D03*
X0000134000Y0000032500D03*
X0000138000Y0000032500D03*
X0000144500Y0000024000D03*
X0000145000Y0000080000D03*
X0000143500Y0000099500D03*
X0000144508Y0000090008D03*
X0000137197Y0000115803D03*
X0000133000Y0000116000D03*
X0000137500Y0000129991D03*
X0000137500Y0000120000D03*
X0000137500Y0000125000D03*
X0000130500Y0000160500D03*
X0000145000Y0000217500D03*
X0000141500Y0000226000D03*
X0000141500Y0000238500D03*
X0000141500Y0000253500D03*
X0000137500Y0000317500D03*
X0000135500Y0000321500D03*
X0000136000Y0000327500D03*
X0000142500Y0000327000D03*
X0000132500Y0000323071D03*
X0000140000Y0000331860D03*
X0000140000Y0000328860D03*
X0000132500Y0000326071D03*
X0000142500Y0000333500D03*
X0000136000Y0000333500D03*
X0000135500Y0000339500D03*
X0000143500Y0000340000D03*
X0000143500Y0000346000D03*
X0000136000Y0000346000D03*
X0000132500Y0000334860D03*
X0000140000Y0000341360D03*
X0000132500Y0000347360D03*
X0000132500Y0000337860D03*
X0000140000Y0000344360D03*
X0000142500Y0000354000D03*
X0000142000Y0000362500D03*
X0000135500Y0000359000D03*
X0000136000Y0000352000D03*
X0000132500Y0000350360D03*
X0000141500Y0000372500D03*
X0000135500Y0000376000D03*
X0000136000Y0000367500D03*
X0000145000Y0000430000D03*
X0000135000Y0000430000D03*
X0000145000Y0000448000D03*
X0000135000Y0000448000D03*
X0000145000Y0000440000D03*
X0000135000Y0000440000D03*
X0000160000Y0000003000D03*
X0000150000Y0000003000D03*
X0000149000Y0000019000D03*
X0000154500Y0000015000D03*
X0000147500Y0000030000D03*
X0000155000Y0000022500D03*
X0000162500Y0000022500D03*
X0000148000Y0000068500D03*
X0000147992Y0000074492D03*
X0000162500Y0000107500D03*
X0000162500Y0000117500D03*
X0000162000Y0000123000D03*
X0000162500Y0000182500D03*
X0000162500Y0000172500D03*
X0000162500Y0000177500D03*
X0000157500Y0000177000D03*
X0000154000Y0000177000D03*
X0000162500Y0000197000D03*
X0000162500Y0000192500D03*
X0000162500Y0000187500D03*
X0000152500Y0000212000D03*
X0000160000Y0000230000D03*
X0000160000Y0000220500D03*
X0000150000Y0000225500D03*
X0000148000Y0000235000D03*
X0000155000Y0000250000D03*
X0000155000Y0000240000D03*
X0000157500Y0000262500D03*
X0000150000Y0000270000D03*
X0000147500Y0000365000D03*
X0000157500Y0000365000D03*
X0000147500Y0000375000D03*
X0000157500Y0000375000D03*
X0000151000Y0000420500D03*
X0000175000Y0000003000D03*
X0000167500Y0000003000D03*
X0000172630Y0000067000D03*
X0000167130Y0000067000D03*
X0000170000Y0000072500D03*
X0000175000Y0000072500D03*
X0000175000Y0000107500D03*
X0000175000Y0000112500D03*
X0000175000Y0000117500D03*
X0000167500Y0000107500D03*
X0000167500Y0000112500D03*
X0000167500Y0000117500D03*
X0000168500Y0000143500D03*
X0000175000Y0000140000D03*
X0000175000Y0000167500D03*
X0000168500Y0000158500D03*
X0000165000Y0000167500D03*
X0000170000Y0000167500D03*
X0000172500Y0000177500D03*
X0000172500Y0000182500D03*
X0000172500Y0000187500D03*
X0000172500Y0000192500D03*
X0000170000Y0000235000D03*
X0000165000Y0000240000D03*
X0000165000Y0000255000D03*
X0000175000Y0000280500D03*
X0000167500Y0000345000D03*
X0000167500Y0000365000D03*
X0000167500Y0000355000D03*
X0000175000Y0000355000D03*
X0000175000Y0000365000D03*
X0000167500Y0000375000D03*
X0000175000Y0000375000D03*
X0000167500Y0000385000D03*
X0000175000Y0000385000D03*
X0000166500Y0000420500D03*
X0000192500Y0000003000D03*
X0000182500Y0000003000D03*
X0000182630Y0000035500D03*
X0000186630Y0000035500D03*
X0000191630Y0000035500D03*
X0000189130Y0000039500D03*
X0000192500Y0000065000D03*
X0000182500Y0000065000D03*
X0000187500Y0000065000D03*
X0000182500Y0000060000D03*
X0000187500Y0000060000D03*
X0000192500Y0000060000D03*
X0000192500Y0000055000D03*
X0000192500Y0000072500D03*
X0000187500Y0000072500D03*
X0000182500Y0000072500D03*
X0000190000Y0000117500D03*
X0000190000Y0000112500D03*
X0000190000Y0000107500D03*
X0000182500Y0000117500D03*
X0000182500Y0000112500D03*
X0000182500Y0000107500D03*
X0000187500Y0000204000D03*
X0000195000Y0000262500D03*
X0000190000Y0000267500D03*
X0000182500Y0000275000D03*
X0000195000Y0000315000D03*
X0000185000Y0000320000D03*
X0000185000Y0000330000D03*
X0000195000Y0000325000D03*
X0000195000Y0000335000D03*
X0000185000Y0000365000D03*
X0000185000Y0000375000D03*
X0000195000Y0000375000D03*
X0000185000Y0000385000D03*
X0000184000Y0000420000D03*
X0000210000Y0000003000D03*
X0000202500Y0000003000D03*
X0000204630Y0000020000D03*
X0000208630Y0000020000D03*
X0000204630Y0000024000D03*
X0000208630Y0000024000D03*
X0000196630Y0000035500D03*
X0000201630Y0000035500D03*
X0000206630Y0000035500D03*
X0000211630Y0000035500D03*
X0000206630Y0000031000D03*
X0000201630Y0000031000D03*
X0000196630Y0000031000D03*
X0000211630Y0000031000D03*
X0000211630Y0000047000D03*
X0000211630Y0000051000D03*
X0000206630Y0000040500D03*
X0000211630Y0000040500D03*
X0000197500Y0000065000D03*
X0000197500Y0000060000D03*
X0000197500Y0000055000D03*
X0000211630Y0000060000D03*
X0000211630Y0000055500D03*
X0000197500Y0000072500D03*
X0000202500Y0000112500D03*
X0000211500Y0000117500D03*
X0000202500Y0000117500D03*
X0000210000Y0000170000D03*
X0000210000Y0000204000D03*
X0000204500Y0000284000D03*
X0000204500Y0000289000D03*
X0000207500Y0000312500D03*
X0000207500Y0000307500D03*
X0000207500Y0000347500D03*
X0000207500Y0000352500D03*
X0000205500Y0000420000D03*
X0000225000Y0000003000D03*
X0000217500Y0000003000D03*
X0000212630Y0000020000D03*
X0000228130Y0000013500D03*
X0000228130Y0000016650D03*
X0000212630Y0000024000D03*
X0000227630Y0000029000D03*
X0000227630Y0000033000D03*
X0000216630Y0000047000D03*
X0000216630Y0000051000D03*
X0000227630Y0000046000D03*
X0000227630Y0000052000D03*
X0000227630Y0000039500D03*
X0000227630Y0000057500D03*
X0000227630Y0000062000D03*
X0000216630Y0000060000D03*
X0000216630Y0000055500D03*
X0000227630Y0000094000D03*
X0000225700Y0000118000D03*
X0000225700Y0000127041D03*
X0000225700Y0000122000D03*
X0000225935Y0000135483D03*
X0000213000Y0000139500D03*
X0000220179Y0000146869D03*
X0000220500Y0000158097D03*
X0000212500Y0000200000D03*
X0000215000Y0000195000D03*
X0000224000Y0000225500D03*
X0000220000Y0000220000D03*
X0000220000Y0000230000D03*
X0000227000Y0000263500D03*
X0000215000Y0000260000D03*
X0000217500Y0000312500D03*
X0000212500Y0000312500D03*
X0000225000Y0000332500D03*
X0000217500Y0000327500D03*
X0000217500Y0000322500D03*
X0000217516Y0000317484D03*
X0000225000Y0000326500D03*
X0000217500Y0000331500D03*
X0000225000Y0000347500D03*
X0000217500Y0000337500D03*
X0000225000Y0000342500D03*
X0000225000Y0000337500D03*
X0000217500Y0000342500D03*
X0000212500Y0000347500D03*
X0000212500Y0000342500D03*
X0000217594Y0000347406D03*
X0000217500Y0000352500D03*
X0000217500Y0000362500D03*
X0000225000Y0000357500D03*
X0000225000Y0000352500D03*
X0000225000Y0000362500D03*
X0000212500Y0000352500D03*
X0000212500Y0000377500D03*
X0000217500Y0000377500D03*
X0000225000Y0000377500D03*
X0000217500Y0000367500D03*
X0000212500Y0000367500D03*
X0000225000Y0000367500D03*
X0000225000Y0000372500D03*
X0000212500Y0000372500D03*
X0000217500Y0000372602D03*
X0000225000Y0000382500D03*
X0000225000Y0000387500D03*
X0000224500Y0000420000D03*
X0000245000Y0000003000D03*
X0000235000Y0000003000D03*
X0000235630Y0000016650D03*
X0000235630Y0000013500D03*
X0000231630Y0000013500D03*
X0000231630Y0000016650D03*
X0000241630Y0000017150D03*
X0000241630Y0000014000D03*
X0000233130Y0000033000D03*
X0000233130Y0000029000D03*
X0000238500Y0000046000D03*
X0000233630Y0000046000D03*
X0000233130Y0000039500D03*
X0000232687Y0000060557D03*
X0000232687Y0000065557D03*
X0000233130Y0000055500D03*
X0000237630Y0000065500D03*
X0000237630Y0000060500D03*
X0000234630Y0000094130D03*
X0000238000Y0000116500D03*
X0000232000Y0000116500D03*
X0000242000Y0000110500D03*
X0000244021Y0000122000D03*
X0000241049Y0000132483D03*
X0000242565Y0000161983D03*
X0000243000Y0000152500D03*
X0000242565Y0000178483D03*
X0000232565Y0000189483D03*
X0000237565Y0000189483D03*
X0000244000Y0000189500D03*
X0000230000Y0000214500D03*
X0000238000Y0000219500D03*
X0000238000Y0000227000D03*
X0000230000Y0000220000D03*
X0000230000Y0000230000D03*
X0000240000Y0000240000D03*
X0000240000Y0000312500D03*
X0000230000Y0000312500D03*
X0000240000Y0000327500D03*
X0000230000Y0000330000D03*
X0000240000Y0000322500D03*
X0000230016Y0000317484D03*
X0000245000Y0000332500D03*
X0000245000Y0000327500D03*
X0000240000Y0000332500D03*
X0000230000Y0000322500D03*
X0000245000Y0000347500D03*
X0000230000Y0000342500D03*
X0000230000Y0000337500D03*
X0000230000Y0000347500D03*
X0000240000Y0000340000D03*
X0000240000Y0000347500D03*
X0000245000Y0000340000D03*
X0000245000Y0000357500D03*
X0000230000Y0000352500D03*
X0000245000Y0000362500D03*
X0000240000Y0000362500D03*
X0000230000Y0000362500D03*
X0000240000Y0000357500D03*
X0000240000Y0000352500D03*
X0000230000Y0000377500D03*
X0000230000Y0000367500D03*
X0000230000Y0000372500D03*
X0000230000Y0000382500D03*
X0000245000Y0000435000D03*
X0000242500Y0000445500D03*
X0000260000Y0000003000D03*
X0000252500Y0000003000D03*
X0000245630Y0000017150D03*
X0000249630Y0000017150D03*
X0000245630Y0000014000D03*
X0000249630Y0000014000D03*
X0000258130Y0000017150D03*
X0000258130Y0000014000D03*
X0000254130Y0000017150D03*
X0000254130Y0000014000D03*
X0000250000Y0000039000D03*
X0000248630Y0000054200D03*
X0000251630Y0000054200D03*
X0000248630Y0000057000D03*
X0000251630Y0000057000D03*
X0000252000Y0000110500D03*
X0000255935Y0000129483D03*
X0000251935Y0000129483D03*
X0000245935Y0000129483D03*
X0000260935Y0000139500D03*
X0000254516Y0000139500D03*
X0000261065Y0000152500D03*
X0000247500Y0000152000D03*
X0000247565Y0000173983D03*
X0000252565Y0000173983D03*
X0000257565Y0000173983D03*
X0000261065Y0000170500D03*
X0000252565Y0000178483D03*
X0000257565Y0000178483D03*
X0000247565Y0000178483D03*
X0000248565Y0000190983D03*
X0000254065Y0000190983D03*
X0000260565Y0000190483D03*
X0000249500Y0000314500D03*
X0000256000Y0000306500D03*
X0000252500Y0000310000D03*
X0000254000Y0000326500D03*
X0000260500Y0000344500D03*
X0000260500Y0000334000D03*
X0000250000Y0000362500D03*
X0000250000Y0000357500D03*
X0000260500Y0000349500D03*
X0000260500Y0000355500D03*
X0000260000Y0000390000D03*
X0000260000Y0000385000D03*
X0000252500Y0000389500D03*
X0000255000Y0000382500D03*
X0000259000Y0000402000D03*
X0000250000Y0000445000D03*
X0000277500Y0000003000D03*
X0000267500Y0000003000D03*
X0000266630Y0000014000D03*
X0000266630Y0000017150D03*
X0000270630Y0000017150D03*
X0000270630Y0000014000D03*
X0000277000Y0000014000D03*
X0000262130Y0000017150D03*
X0000262130Y0000014000D03*
X0000274630Y0000022000D03*
X0000274630Y0000025500D03*
X0000265130Y0000027000D03*
X0000269130Y0000027000D03*
X0000269130Y0000031000D03*
X0000269130Y0000035000D03*
X0000265130Y0000035000D03*
X0000273130Y0000030500D03*
X0000269130Y0000038500D03*
X0000272610Y0000067980D03*
X0000266500Y0000064000D03*
X0000266500Y0000060500D03*
X0000266500Y0000057000D03*
X0000272430Y0000074100D03*
X0000269730Y0000071700D03*
X0000273730Y0000071100D03*
X0000275130Y0000080614D03*
X0000273500Y0000103000D03*
X0000273500Y0000108000D03*
X0000268500Y0000108000D03*
X0000268500Y0000103000D03*
X0000267565Y0000134483D03*
X0000265427Y0000129991D03*
X0000261935Y0000126483D03*
X0000266000Y0000152500D03*
X0000271000Y0000152500D03*
X0000270565Y0000184483D03*
X0000266000Y0000170500D03*
X0000271065Y0000170435D03*
X0000270565Y0000189483D03*
X0000275000Y0000230000D03*
X0000265000Y0000230000D03*
X0000265000Y0000220000D03*
X0000275000Y0000220000D03*
X0000275000Y0000240000D03*
X0000265000Y0000240000D03*
X0000265000Y0000250000D03*
X0000275000Y0000250000D03*
X0000275000Y0000260000D03*
X0000265000Y0000260000D03*
X0000265500Y0000331000D03*
X0000265500Y0000336000D03*
X0000274500Y0000340886D03*
X0000264500Y0000344500D03*
X0000268500Y0000359500D03*
X0000271000Y0000362500D03*
X0000266000Y0000362500D03*
X0000270000Y0000380000D03*
X0000265000Y0000375000D03*
X0000265000Y0000380000D03*
X0000268500Y0000369500D03*
X0000271000Y0000366500D03*
X0000266000Y0000366500D03*
X0000275000Y0000367500D03*
X0000265000Y0000390000D03*
X0000265000Y0000385000D03*
X0000270000Y0000390500D03*
X0000270000Y0000383500D03*
X0000274500Y0000411500D03*
X0000269500Y0000411500D03*
X0000274500Y0000401500D03*
X0000269500Y0000401500D03*
X0000269500Y0000406500D03*
X0000263000Y0000426000D03*
X0000276500Y0000419000D03*
X0000270500Y0000419000D03*
X0000269283Y0000425850D03*
X0000275189Y0000421500D03*
X0000272189Y0000421500D03*
X0000266283Y0000425850D03*
X0000278094Y0000425850D03*
X0000276000Y0000445500D03*
X0000265500Y0000445500D03*
X0000276642Y0000434000D03*
X0000270736Y0000434000D03*
X0000264831Y0000434000D03*
X0000289500Y0000003100D03*
X0000290630Y0000025000D03*
X0000282244Y0000022000D03*
X0000285130Y0000036000D03*
X0000285200Y0000041100D03*
X0000285630Y0000047500D03*
X0000285130Y0000066500D03*
X0000284130Y0000055500D03*
X0000278630Y0000055500D03*
X0000292744Y0000055500D03*
X0000287130Y0000080614D03*
X0000285130Y0000072000D03*
X0000278500Y0000103000D03*
X0000283500Y0000103000D03*
X0000283500Y0000108000D03*
X0000278500Y0000108000D03*
X0000280500Y0000183983D03*
X0000282565Y0000173483D03*
X0000282565Y0000169983D03*
X0000278500Y0000173500D03*
X0000278565Y0000169983D03*
X0000290500Y0000221500D03*
X0000290500Y0000227000D03*
X0000290000Y0000233000D03*
X0000290000Y0000250500D03*
X0000290000Y0000245500D03*
X0000290000Y0000239500D03*
X0000290000Y0000256000D03*
X0000290000Y0000261000D03*
X0000288000Y0000326500D03*
X0000282430Y0000345000D03*
X0000290630Y0000345000D03*
X0000286430Y0000345000D03*
X0000282430Y0000341000D03*
X0000282430Y0000337000D03*
X0000290630Y0000341000D03*
X0000290630Y0000337000D03*
X0000286430Y0000337000D03*
X0000286430Y0000341000D03*
X0000285500Y0000355000D03*
X0000293500Y0000377500D03*
X0000290500Y0000377500D03*
X0000284500Y0000426000D03*
X0000281094Y0000425850D03*
X0000290500Y0000440000D03*
X0000285000Y0000445000D03*
X0000294359Y0000434000D03*
X0000288500Y0000434000D03*
X0000282500Y0000434000D03*
X0000300630Y0000005000D03*
X0000310630Y0000005000D03*
X0000310630Y0000015000D03*
X0000298000Y0000026000D03*
X0000297000Y0000030500D03*
X0000297000Y0000036000D03*
X0000301000Y0000041500D03*
X0000297000Y0000047000D03*
X0000297000Y0000041500D03*
X0000304872Y0000067872D03*
X0000300872Y0000067872D03*
X0000307500Y0000232185D03*
X0000307500Y0000225000D03*
X0000307500Y0000248185D03*
X0000307500Y0000240000D03*
X0000307500Y0000263185D03*
X0000307500Y0000256185D03*
X0000303000Y0000263500D03*
X0000310000Y0000300000D03*
X0000310000Y0000290000D03*
X0000310000Y0000295000D03*
X0000308000Y0000331000D03*
X0000308000Y0000346000D03*
X0000308000Y0000341000D03*
X0000308000Y0000336000D03*
X0000295000Y0000355000D03*
X0000308000Y0000356000D03*
X0000295000Y0000350000D03*
X0000308000Y0000351000D03*
X0000300000Y0000392500D03*
X0000300000Y0000398000D03*
X0000295000Y0000412500D03*
X0000302000Y0000401500D03*
X0000305000Y0000412500D03*
X0000310000Y0000412500D03*
X0000307500Y0000425000D03*
X0000310000Y0000417500D03*
X0000305000Y0000417500D03*
X0000295000Y0000417500D03*
X0000300000Y0000417500D03*
X0000303000Y0000439500D03*
X0000305000Y0000445000D03*
X0000295000Y0000445000D03*
X0000300264Y0000434000D03*
X0000320630Y0000005000D03*
X0000320630Y0000015000D03*
X0000322000Y0000082500D03*
X0000315000Y0000082500D03*
X0000318500Y0000086000D03*
X0000322000Y0000093000D03*
X0000318500Y0000090000D03*
X0000318500Y0000096500D03*
X0000318500Y0000101000D03*
X0000327000Y0000099000D03*
X0000327000Y0000103500D03*
X0000322130Y0000119000D03*
X0000326130Y0000119000D03*
X0000322130Y0000128000D03*
X0000326130Y0000128000D03*
X0000321630Y0000142500D03*
X0000327130Y0000159000D03*
X0000320000Y0000155000D03*
X0000317500Y0000172000D03*
X0000312500Y0000192500D03*
X0000318000Y0000216500D03*
X0000322500Y0000216500D03*
X0000318000Y0000221000D03*
X0000322500Y0000221000D03*
X0000315000Y0000295000D03*
X0000315000Y0000290000D03*
X0000326000Y0000288000D03*
X0000314989Y0000299989D03*
X0000318000Y0000308500D03*
X0000318000Y0000313500D03*
X0000326130Y0000303378D03*
X0000321130Y0000312783D03*
X0000326130Y0000306878D03*
X0000325630Y0000315189D03*
X0000321130Y0000309283D03*
X0000318000Y0000325500D03*
X0000318000Y0000320000D03*
X0000318000Y0000331500D03*
X0000325630Y0000330500D03*
X0000325630Y0000318689D03*
X0000321130Y0000321094D03*
X0000321130Y0000324594D03*
X0000325630Y0000327000D03*
X0000315000Y0000412500D03*
X0000320000Y0000417500D03*
X0000315000Y0000417500D03*
X0000320000Y0000422500D03*
X0000315000Y0000422500D03*
X0000321500Y0000437000D03*
X0000322500Y0000445000D03*
X0000341000Y0000044000D03*
X0000341000Y0000051000D03*
X0000341000Y0000066000D03*
X0000341000Y0000058500D03*
X0000341000Y0000078000D03*
X0000338500Y0000089500D03*
X0000338500Y0000101000D03*
X0000331000Y0000099000D03*
X0000340000Y0000111500D03*
X0000331000Y0000103500D03*
X0000330130Y0000119000D03*
X0000333630Y0000119000D03*
X0000330130Y0000128000D03*
X0000342500Y0000122500D03*
X0000343480Y0000141983D03*
X0000339980Y0000147483D03*
X0000339980Y0000141983D03*
X0000343480Y0000147483D03*
X0000339980Y0000136483D03*
X0000331630Y0000142500D03*
X0000331630Y0000136500D03*
X0000343480Y0000136483D03*
X0000330000Y0000162206D03*
X0000333000Y0000162206D03*
X0000343630Y0000157500D03*
X0000343500Y0000153000D03*
X0000340000Y0000157500D03*
X0000332500Y0000158500D03*
X0000332500Y0000154000D03*
X0000342500Y0000166142D03*
X0000340000Y0000153000D03*
X0000330630Y0000195000D03*
X0000340630Y0000195000D03*
X0000330630Y0000215000D03*
X0000340630Y0000215000D03*
X0000330630Y0000205000D03*
X0000340630Y0000205000D03*
X0000340000Y0000222500D03*
X0000333000Y0000241157D03*
X0000340630Y0000245000D03*
X0000330630Y0000250000D03*
X0000340630Y0000235000D03*
X0000340630Y0000260000D03*
X0000330630Y0000260000D03*
X0000340500Y0000266000D03*
X0000328500Y0000285500D03*
X0000331000Y0000288000D03*
X0000329000Y0000296000D03*
X0000329000Y0000302166D03*
X0000328630Y0000313793D03*
X0000329130Y0000308000D03*
X0000328630Y0000325604D03*
X0000328638Y0000319697D03*
X0000328638Y0000331508D03*
X0000343500Y0000409500D03*
X0000329000Y0000423500D03*
X0000341000Y0000419500D03*
X0000348500Y0000044000D03*
X0000348500Y0000051000D03*
X0000348500Y0000066000D03*
X0000348500Y0000058500D03*
X0000345630Y0000085000D03*
X0000348500Y0000078500D03*
X0000350000Y0000090000D03*
X0000350000Y0000100000D03*
X0000345630Y0000095000D03*
X0000345630Y0000105000D03*
X0000349500Y0000111500D03*
X0000345630Y0000115000D03*
X0000350500Y0000125000D03*
X0000349500Y0000122000D03*
X0000351000Y0000142144D03*
X0000351000Y0000137419D03*
X0000351000Y0000149500D03*
X0000344200Y0000161024D03*
X0000351000Y0000162000D03*
X0000351000Y0000155500D03*
X0000350500Y0000166159D03*
X0000351000Y0000158662D03*
X0000350630Y0000195000D03*
X0000350630Y0000215000D03*
X0000350630Y0000205000D03*
X0000350630Y0000225000D03*
X0000350630Y0000245000D03*
X0000350630Y0000235000D03*
X0000350630Y0000260000D03*
X0000350630Y0000280000D03*
X0000350630Y0000270000D03*
X0000350630Y0000290000D03*
X0000350630Y0000300000D03*
X0000351000Y0000315500D03*
X0000350630Y0000310000D03*
X0000351000Y0000325000D03*
X0000351000Y0000345500D03*
X0000351000Y0000358000D03*
X0000351000Y0000370000D03*
X0000351000Y0000384000D03*
X0000351000Y0000396500D03*
X0000350000Y0000410000D03*
X0000350000Y0000420000D03*
G54D20*
X0000095548Y0000247007D03*
X0000095548Y0000435984D03*
X0000225469Y0000247007D03*
X0000225469Y0000435984D03*
G54D21*
G01X0000011130Y0000329853D02*
X0000011830Y0000330553D01*
X0000019552Y0000330553D01*
X0000029200Y0000340200D01*
X0000031200Y0000340200D01*
X0000043500Y0000352500D01*
X0000076000Y0000352500D01*
X0000077000Y0000351500D01*
G01X0000011130Y0000338784D02*
X0000012414Y0000337500D01*
X0000018661Y0000337500D01*
X0000026700Y0000345539D01*
X0000026700Y0000356038D01*
X0000031962Y0000361300D01*
X0000050462Y0000361300D01*
X0000053462Y0000364300D01*
X0000074074Y0000364300D01*
X0000075000Y0000365226D01*
G01X0000011130Y0000332853D02*
X0000012130Y0000331853D01*
X0000019014Y0000331853D01*
X0000028661Y0000341500D01*
X0000030662Y0000341500D01*
X0000042962Y0000353800D01*
X0000076300Y0000353800D01*
X0000077000Y0000354500D01*
G01X0000011130Y0000335784D02*
X0000011546Y0000336200D01*
X0000019200Y0000336200D01*
X0000028000Y0000345000D01*
X0000028000Y0000355500D01*
X0000032500Y0000360000D01*
X0000051000Y0000360000D01*
X0000054000Y0000363000D01*
X0000074226Y0000363000D01*
X0000075000Y0000362226D01*
G01X0000032300Y0000333205D02*
X0000033195Y0000334100D01*
X0000036738Y0000334100D01*
X0000037188Y0000333650D01*
X0000037188Y0000332712D01*
X0000038400Y0000331500D01*
X0000040827Y0000331500D01*
X0000042038Y0000332712D01*
X0000042038Y0000335150D01*
X0000042488Y0000335600D01*
X0000043838Y0000335600D01*
X0000044288Y0000335150D01*
X0000044288Y0000332712D01*
X0000045500Y0000331500D01*
X0000047927Y0000331500D01*
X0000049138Y0000332712D01*
X0000049138Y0000334650D01*
X0000049588Y0000335100D01*
X0000050938Y0000335100D01*
X0000051388Y0000334650D01*
X0000051388Y0000332712D01*
X0000052600Y0000331500D01*
X0000062338Y0000331500D01*
X0000066010Y0000335172D01*
X0000066010Y0000343650D01*
X0000066860Y0000344500D01*
G01X0000032307Y0000329578D02*
X0000033157Y0000328728D01*
X0000034996Y0000328728D01*
X0000036207Y0000327516D01*
X0000036207Y0000324250D01*
X0000036657Y0000323800D01*
X0000038007Y0000323800D01*
X0000038457Y0000324250D01*
X0000038457Y0000327516D01*
X0000039669Y0000328728D01*
X0000042096Y0000328728D01*
X0000043307Y0000327516D01*
X0000043307Y0000326750D01*
X0000043757Y0000326300D01*
X0000045107Y0000326300D01*
X0000045557Y0000326750D01*
X0000045557Y0000327516D01*
X0000046769Y0000328728D01*
X0000049196Y0000328728D01*
X0000050407Y0000327516D01*
X0000050407Y0000326750D01*
X0000050857Y0000326300D01*
X0000052207Y0000326300D01*
X0000052657Y0000326750D01*
X0000052657Y0000327516D01*
X0000053869Y0000328728D01*
X0000056296Y0000328728D01*
X0000057507Y0000327516D01*
X0000057507Y0000326750D01*
X0000057957Y0000326300D01*
X0000059307Y0000326300D01*
X0000059757Y0000326750D01*
X0000059757Y0000327516D01*
X0000060969Y0000328728D01*
X0000066728Y0000328728D01*
X0000072710Y0000334710D01*
X0000072710Y0000337150D01*
X0000071860Y0000338000D01*
G01X0000032307Y0000326578D02*
X0000033157Y0000327428D01*
X0000034457Y0000327428D01*
X0000034907Y0000326978D01*
X0000034907Y0000323712D01*
X0000036119Y0000322500D01*
X0000038546Y0000322500D01*
X0000039757Y0000323712D01*
X0000039757Y0000326978D01*
X0000040207Y0000327428D01*
X0000041557Y0000327428D01*
X0000042007Y0000326978D01*
X0000042007Y0000326211D01*
X0000043219Y0000325000D01*
X0000045646Y0000325000D01*
X0000046857Y0000326211D01*
X0000046857Y0000326978D01*
X0000047307Y0000327428D01*
X0000048657Y0000327428D01*
X0000049107Y0000326978D01*
X0000049107Y0000326211D01*
X0000050319Y0000325000D01*
X0000052746Y0000325000D01*
X0000053957Y0000326211D01*
X0000053957Y0000326978D01*
X0000054407Y0000327428D01*
X0000055757Y0000327428D01*
X0000056207Y0000326978D01*
X0000056207Y0000326211D01*
X0000057419Y0000325000D01*
X0000059846Y0000325000D01*
X0000061057Y0000326211D01*
X0000061057Y0000326978D01*
X0000061507Y0000327428D01*
X0000067266Y0000327428D01*
X0000074010Y0000334172D01*
X0000074010Y0000337150D01*
X0000074860Y0000338000D01*
G01X0000032300Y0000336205D02*
X0000033105Y0000335400D01*
X0000037277Y0000335400D01*
X0000038488Y0000334189D01*
X0000038488Y0000333250D01*
X0000038938Y0000332800D01*
X0000040288Y0000332800D01*
X0000040738Y0000333250D01*
X0000040738Y0000335688D01*
X0000041950Y0000336900D01*
X0000044377Y0000336900D01*
X0000045588Y0000335688D01*
X0000045588Y0000333250D01*
X0000046038Y0000332800D01*
X0000047388Y0000332800D01*
X0000047838Y0000333250D01*
X0000047838Y0000335188D01*
X0000049050Y0000336400D01*
X0000051477Y0000336400D01*
X0000052688Y0000335188D01*
X0000052688Y0000333250D01*
X0000053138Y0000332800D01*
X0000061800Y0000332800D01*
X0000064710Y0000335710D01*
X0000064710Y0000343650D01*
X0000063860Y0000344500D01*
G01X0000269283Y0000425850D02*
X0000268433Y0000426700D01*
X0000268433Y0000429067D01*
X0000267200Y0000430300D01*
X0000257962Y0000430300D01*
X0000252495Y0000424833D01*
X0000252495Y0000423120D01*
X0000253820Y0000421795D01*
X0000253820Y0000421158D01*
X0000252865Y0000420204D01*
X0000252229Y0000420204D01*
X0000250904Y0000421529D01*
X0000249190Y0000421529D01*
X0000247474Y0000419812D01*
X0000247474Y0000418099D01*
X0000248799Y0000416774D01*
X0000248799Y0000416138D01*
X0000247844Y0000415183D01*
X0000247208Y0000415183D01*
X0000245883Y0000416508D01*
X0000244170Y0000416508D01*
X0000242453Y0000414792D01*
X0000242453Y0000413078D01*
X0000243778Y0000411753D01*
X0000243778Y0000411117D01*
X0000242824Y0000410162D01*
X0000242187Y0000410162D01*
X0000240862Y0000411487D01*
X0000239149Y0000411487D01*
X0000236162Y0000408500D01*
X0000085162Y0000408500D01*
X0000071700Y0000395038D01*
X0000071700Y0000381461D01*
X0000087000Y0000366161D01*
X0000087000Y0000336838D01*
X0000085137Y0000334975D01*
X0000081545Y0000334975D01*
X0000081000Y0000335520D01*
X0000080000Y0000335520D01*
G01X0000095000Y0000337244D02*
X0000094150Y0000338094D01*
X0000092412Y0000338094D01*
X0000091200Y0000339306D01*
X0000091200Y0000343538D01*
X0000094700Y0000347038D01*
X0000094700Y0000368962D01*
X0000092662Y0000371000D01*
X0000088162Y0000371000D01*
X0000076500Y0000382662D01*
X0000076500Y0000393339D01*
X0000085462Y0000402300D01*
X0000203068Y0000402300D01*
X0000204279Y0000401088D01*
X0000204279Y0000398750D01*
X0000204729Y0000398300D01*
X0000206079Y0000398300D01*
X0000206529Y0000398750D01*
X0000206529Y0000401088D01*
X0000207741Y0000402300D01*
X0000210168Y0000402300D01*
X0000211379Y0000401088D01*
X0000211379Y0000398750D01*
X0000211829Y0000398300D01*
X0000213179Y0000398300D01*
X0000213629Y0000398750D01*
X0000213629Y0000401088D01*
X0000214841Y0000402300D01*
X0000217268Y0000402300D01*
X0000218479Y0000401088D01*
X0000218479Y0000398750D01*
X0000218929Y0000398300D01*
X0000220279Y0000398300D01*
X0000220729Y0000398750D01*
X0000220729Y0000401088D01*
X0000221941Y0000402300D01*
X0000224368Y0000402300D01*
X0000225579Y0000401088D01*
X0000225579Y0000398750D01*
X0000226029Y0000398300D01*
X0000227379Y0000398300D01*
X0000227829Y0000398750D01*
X0000227829Y0000401088D01*
X0000229041Y0000402300D01*
X0000244300Y0000402300D01*
X0000258800Y0000416800D01*
X0000271800Y0000416800D01*
X0000273039Y0000418039D01*
X0000273039Y0000420650D01*
X0000272189Y0000421500D01*
G01X0000266283Y0000425850D02*
X0000267133Y0000426700D01*
X0000267133Y0000428528D01*
X0000266662Y0000429000D01*
X0000262800Y0000429000D01*
X0000261950Y0000428150D01*
X0000260650Y0000428150D01*
X0000259800Y0000429000D01*
X0000258500Y0000429000D01*
X0000256099Y0000426599D01*
X0000256099Y0000425467D01*
X0000255533Y0000424901D01*
X0000254401Y0000424901D01*
X0000253795Y0000424295D01*
X0000253795Y0000423658D01*
X0000255120Y0000422333D01*
X0000255120Y0000420620D01*
X0000253403Y0000418904D01*
X0000251690Y0000418904D01*
X0000250365Y0000420229D01*
X0000249729Y0000420229D01*
X0000248774Y0000419274D01*
X0000248774Y0000418638D01*
X0000250099Y0000417312D01*
X0000250099Y0000415599D01*
X0000248383Y0000413883D01*
X0000246669Y0000413883D01*
X0000245344Y0000415208D01*
X0000244708Y0000415208D01*
X0000243753Y0000414253D01*
X0000243753Y0000413617D01*
X0000245078Y0000412292D01*
X0000245078Y0000410578D01*
X0000243362Y0000408862D01*
X0000241649Y0000408862D01*
X0000240324Y0000410187D01*
X0000239687Y0000410187D01*
X0000236700Y0000407200D01*
X0000235400Y0000407200D01*
X0000234550Y0000406350D01*
X0000233250Y0000406350D01*
X0000232400Y0000407200D01*
X0000085700Y0000407200D01*
X0000073000Y0000394500D01*
X0000073000Y0000382000D01*
X0000088300Y0000366700D01*
X0000088300Y0000336300D01*
X0000085675Y0000333675D01*
X0000082155Y0000333675D01*
X0000081000Y0000332520D01*
X0000080000Y0000332520D01*
G01X0000080000Y0000341968D02*
X0000080732Y0000342700D01*
X0000082538Y0000342700D01*
X0000083800Y0000343962D01*
X0000083800Y0000365200D01*
X0000068500Y0000380500D01*
X0000068500Y0000396462D01*
X0000085238Y0000413200D01*
X0000230539Y0000413200D01*
X0000250798Y0000433459D01*
X0000252000Y0000433459D01*
X0000252919Y0000434379D01*
X0000252919Y0000435581D01*
X0000253839Y0000436500D01*
X0000256500Y0000436500D01*
X0000257350Y0000435650D01*
X0000258650Y0000435650D01*
X0000259500Y0000436500D01*
X0000261000Y0000436500D01*
X0000261850Y0000435650D01*
X0000263150Y0000435650D01*
X0000264000Y0000436500D01*
X0000277500Y0000436500D01*
X0000278944Y0000435056D01*
X0000278944Y0000426700D01*
X0000278094Y0000425850D01*
G01X0000281094Y0000425850D02*
X0000280244Y0000426700D01*
X0000280244Y0000435594D01*
X0000278039Y0000437800D01*
X0000253300Y0000437800D01*
X0000230000Y0000414500D01*
X0000084700Y0000414500D01*
X0000067200Y0000397000D01*
X0000067200Y0000379962D01*
X0000082500Y0000364662D01*
X0000082500Y0000344500D01*
X0000082000Y0000344000D01*
X0000080968Y0000344000D01*
X0000080000Y0000344968D01*
G01X0000275189Y0000421500D02*
X0000274339Y0000420650D01*
X0000274339Y0000417500D01*
X0000272339Y0000415500D01*
X0000268500Y0000415500D01*
X0000267650Y0000414650D01*
X0000266350Y0000414650D01*
X0000265500Y0000415500D01*
X0000263638Y0000415500D01*
X0000262788Y0000414650D01*
X0000261488Y0000414650D01*
X0000260638Y0000415500D01*
X0000259338Y0000415500D01*
X0000258419Y0000414581D01*
X0000258419Y0000413379D01*
X0000257500Y0000412459D01*
X0000256298Y0000412459D01*
X0000244838Y0000401000D01*
X0000229579Y0000401000D01*
X0000229129Y0000400550D01*
X0000229129Y0000398212D01*
X0000227918Y0000397000D01*
X0000225491Y0000397000D01*
X0000224279Y0000398212D01*
X0000224279Y0000400550D01*
X0000223829Y0000401000D01*
X0000222479Y0000401000D01*
X0000222029Y0000400550D01*
X0000222029Y0000398212D01*
X0000220818Y0000397000D01*
X0000218391Y0000397000D01*
X0000217179Y0000398212D01*
X0000217179Y0000400550D01*
X0000216729Y0000401000D01*
X0000215379Y0000401000D01*
X0000214929Y0000400550D01*
X0000214929Y0000398212D01*
X0000213718Y0000397000D01*
X0000211291Y0000397000D01*
X0000210079Y0000398212D01*
X0000210079Y0000400550D01*
X0000209629Y0000401000D01*
X0000208279Y0000401000D01*
X0000207829Y0000400550D01*
X0000207829Y0000398212D01*
X0000206618Y0000397000D01*
X0000204191Y0000397000D01*
X0000202979Y0000398212D01*
X0000202979Y0000400550D01*
X0000202529Y0000401000D01*
X0000086000Y0000401000D01*
X0000077800Y0000392800D01*
X0000077800Y0000383200D01*
X0000088700Y0000372300D01*
X0000093200Y0000372300D01*
X0000096000Y0000369500D01*
X0000096000Y0000346500D01*
X0000092500Y0000343000D01*
X0000092500Y0000339844D01*
X0000092950Y0000339394D01*
X0000094150Y0000339394D01*
X0000095000Y0000340244D01*
G01X0000343630Y0000157500D02*
X0000342530Y0000158600D01*
X0000342530Y0000159808D01*
X0000335538Y0000166800D01*
X0000311700Y0000166800D01*
X0000275500Y0000203000D01*
X0000233000Y0000203000D01*
X0000205300Y0000230700D01*
X0000205300Y0000244038D01*
X0000129000Y0000320338D01*
X0000129000Y0000385000D01*
X0000119200Y0000394800D01*
X0000095962Y0000394800D01*
X0000087812Y0000386650D01*
X0000080850Y0000386650D01*
X0000080000Y0000387500D01*
G01X0000340000Y0000157500D02*
X0000341230Y0000158730D01*
X0000341230Y0000159270D01*
X0000335000Y0000165500D01*
X0000311162Y0000165500D01*
X0000274962Y0000201700D01*
X0000232461Y0000201700D01*
X0000204000Y0000230162D01*
X0000204000Y0000243500D01*
X0000127700Y0000319800D01*
X0000127700Y0000384462D01*
X0000118662Y0000393500D01*
X0000096500Y0000393500D01*
X0000090613Y0000387613D01*
X0000090613Y0000386481D01*
X0000090047Y0000385916D01*
X0000088916Y0000385916D01*
X0000088350Y0000385350D01*
X0000087200Y0000385350D01*
X0000086400Y0000384550D01*
X0000085600Y0000384550D01*
X0000084800Y0000385350D01*
X0000080850Y0000385350D01*
X0000080000Y0000384500D01*
G01X0000343480Y0000141983D02*
X0000342626Y0000141128D01*
X0000342626Y0000140128D01*
X0000341181Y0000138683D01*
X0000297817Y0000138683D01*
X0000278000Y0000158500D01*
X0000240161Y0000158500D01*
X0000182000Y0000216661D01*
X0000182000Y0000243162D01*
X0000112000Y0000313162D01*
X0000112000Y0000322815D01*
X0000111550Y0000323265D01*
X0000108712Y0000323265D01*
X0000107500Y0000324476D01*
X0000107500Y0000326903D01*
X0000108712Y0000328115D01*
X0000111550Y0000328115D01*
X0000112000Y0000328565D01*
X0000112000Y0000329915D01*
X0000111550Y0000330365D01*
X0000108712Y0000330365D01*
X0000107500Y0000331576D01*
X0000107500Y0000334003D01*
X0000108712Y0000335215D01*
X0000111550Y0000335215D01*
X0000112000Y0000335665D01*
X0000112000Y0000337015D01*
X0000111550Y0000337465D01*
X0000108712Y0000337465D01*
X0000107500Y0000338676D01*
X0000107500Y0000341103D01*
X0000108712Y0000342315D01*
X0000111550Y0000342315D01*
X0000112000Y0000342765D01*
X0000112000Y0000357162D01*
X0000109700Y0000359462D01*
X0000109700Y0000375400D01*
X0000109250Y0000375850D01*
X0000108350Y0000375850D01*
X0000107500Y0000375000D01*
G01X0000339980Y0000136483D02*
X0000340900Y0000136483D01*
X0000341350Y0000136033D01*
X0000341350Y0000135350D01*
X0000339500Y0000133500D01*
X0000337930Y0000133500D01*
X0000337080Y0000134350D01*
X0000336180Y0000134350D01*
X0000335330Y0000133500D01*
X0000333430Y0000133500D01*
X0000332580Y0000134350D01*
X0000331680Y0000134350D01*
X0000330830Y0000133500D01*
X0000329930Y0000133500D01*
X0000329080Y0000134350D01*
X0000328180Y0000134350D01*
X0000327330Y0000133500D01*
X0000326430Y0000133500D01*
X0000325580Y0000134350D01*
X0000324680Y0000134350D01*
X0000323830Y0000133500D01*
X0000322930Y0000133500D01*
X0000322080Y0000134350D01*
X0000321180Y0000134350D01*
X0000320330Y0000133500D01*
X0000319430Y0000133500D01*
X0000318580Y0000134350D01*
X0000317680Y0000134350D01*
X0000316830Y0000133500D01*
X0000315930Y0000133500D01*
X0000315080Y0000134350D01*
X0000314180Y0000134350D01*
X0000313330Y0000133500D01*
X0000294838Y0000133500D01*
X0000281838Y0000146500D01*
X0000240000Y0000146500D01*
X0000178500Y0000208000D01*
X0000178500Y0000237500D01*
X0000100300Y0000315700D01*
X0000100300Y0000384300D01*
X0000101350Y0000385350D01*
X0000103650Y0000385350D01*
X0000104500Y0000384500D01*
G01X0000343480Y0000136483D02*
X0000342650Y0000135652D01*
X0000342650Y0000134811D01*
X0000340039Y0000132200D01*
X0000294300Y0000132200D01*
X0000281300Y0000145200D01*
X0000239462Y0000145200D01*
X0000177200Y0000207461D01*
X0000177200Y0000236962D01*
X0000099000Y0000315162D01*
X0000099000Y0000384839D01*
X0000100812Y0000386650D01*
X0000103650Y0000386650D01*
X0000104500Y0000387500D01*
G01X0000339980Y0000141983D02*
X0000340876Y0000141983D01*
X0000341326Y0000141533D01*
X0000341326Y0000140667D01*
X0000340642Y0000139983D01*
X0000298355Y0000139983D01*
X0000278538Y0000159800D01*
X0000240700Y0000159800D01*
X0000183300Y0000217200D01*
X0000183300Y0000243700D01*
X0000113300Y0000313700D01*
X0000113300Y0000323353D01*
X0000112088Y0000324565D01*
X0000109250Y0000324565D01*
X0000108800Y0000325015D01*
X0000108800Y0000326365D01*
X0000109250Y0000326815D01*
X0000112088Y0000326815D01*
X0000113300Y0000328026D01*
X0000113300Y0000330453D01*
X0000112088Y0000331665D01*
X0000109250Y0000331665D01*
X0000108800Y0000332115D01*
X0000108800Y0000333465D01*
X0000109250Y0000333915D01*
X0000112088Y0000333915D01*
X0000113300Y0000335126D01*
X0000113300Y0000337553D01*
X0000112088Y0000338765D01*
X0000109250Y0000338765D01*
X0000108800Y0000339215D01*
X0000108800Y0000340565D01*
X0000109250Y0000341015D01*
X0000112088Y0000341015D01*
X0000113300Y0000342226D01*
X0000113300Y0000357700D01*
X0000111000Y0000360000D01*
X0000111000Y0000375939D01*
X0000109788Y0000377150D01*
X0000108350Y0000377150D01*
X0000107500Y0000378000D01*
G01X0000339980Y0000147483D02*
X0000341030Y0000147483D01*
X0000341480Y0000147033D01*
X0000341480Y0000145933D01*
X0000341030Y0000145483D01*
X0000337147Y0000145483D01*
X0000336630Y0000146000D01*
X0000335730Y0000146000D01*
X0000334880Y0000146850D01*
X0000333980Y0000146850D01*
X0000333130Y0000146000D01*
X0000332230Y0000146000D01*
X0000331380Y0000146850D01*
X0000330480Y0000146850D01*
X0000329630Y0000146000D01*
X0000328730Y0000146000D01*
X0000327880Y0000146850D01*
X0000326980Y0000146850D01*
X0000326130Y0000146000D01*
X0000325230Y0000146000D01*
X0000324380Y0000146850D01*
X0000323480Y0000146850D01*
X0000322630Y0000146000D01*
X0000321730Y0000146000D01*
X0000320880Y0000146850D01*
X0000319980Y0000146850D01*
X0000319130Y0000146000D01*
X0000318230Y0000146000D01*
X0000317380Y0000146850D01*
X0000316480Y0000146850D01*
X0000315630Y0000146000D01*
X0000314830Y0000146000D01*
X0000314030Y0000146800D01*
X0000313230Y0000146800D01*
X0000312430Y0000146000D01*
X0000311630Y0000146000D01*
X0000310830Y0000146800D01*
X0000310030Y0000146800D01*
X0000309230Y0000146000D01*
X0000303000Y0000146000D01*
X0000299171Y0000149829D01*
X0000299171Y0000150465D01*
X0000300747Y0000152040D01*
X0000300746Y0000153754D01*
X0000299030Y0000155470D01*
X0000297317Y0000155470D01*
X0000295742Y0000153894D01*
X0000295106Y0000153894D01*
X0000294151Y0000154849D01*
X0000294151Y0000155486D01*
X0000295726Y0000157061D01*
X0000295726Y0000158774D01*
X0000294009Y0000160490D01*
X0000292296Y0000160490D01*
X0000290721Y0000158915D01*
X0000290085Y0000158915D01*
X0000289130Y0000159870D01*
X0000289130Y0000160506D01*
X0000290705Y0000162082D01*
X0000290705Y0000163795D01*
X0000288989Y0000165511D01*
X0000287276Y0000165511D01*
X0000285700Y0000163936D01*
X0000285064Y0000163936D01*
X0000282500Y0000166500D01*
X0000243500Y0000166500D01*
X0000220800Y0000189200D01*
X0000220800Y0000199200D01*
X0000190800Y0000229200D01*
X0000190800Y0000243200D01*
X0000118300Y0000315700D01*
X0000118300Y0000361200D01*
X0000115500Y0000364000D01*
X0000115500Y0000380162D01*
X0000116100Y0000380761D01*
X0000118150Y0000380761D01*
X0000119000Y0000379911D01*
G01X0000343480Y0000147483D02*
X0000342780Y0000146783D01*
X0000342780Y0000145395D01*
X0000341569Y0000144183D01*
X0000336608Y0000144183D01*
X0000336092Y0000144700D01*
X0000302462Y0000144700D01*
X0000297871Y0000149290D01*
X0000297871Y0000151004D01*
X0000299447Y0000152579D01*
X0000299446Y0000153215D01*
X0000298492Y0000154170D01*
X0000297856Y0000154170D01*
X0000296280Y0000152594D01*
X0000294567Y0000152594D01*
X0000292851Y0000154311D01*
X0000292851Y0000156024D01*
X0000294426Y0000157599D01*
X0000294426Y0000158236D01*
X0000293471Y0000159190D01*
X0000292835Y0000159190D01*
X0000291260Y0000157615D01*
X0000289546Y0000157615D01*
X0000287830Y0000159332D01*
X0000287830Y0000161045D01*
X0000289405Y0000162620D01*
X0000289405Y0000163256D01*
X0000288450Y0000164211D01*
X0000287814Y0000164211D01*
X0000286239Y0000162636D01*
X0000284526Y0000162636D01*
X0000281962Y0000165200D01*
X0000242961Y0000165200D01*
X0000219500Y0000188662D01*
X0000219500Y0000198662D01*
X0000189500Y0000228661D01*
X0000189500Y0000242662D01*
X0000117000Y0000315162D01*
X0000117000Y0000360662D01*
X0000114200Y0000363462D01*
X0000114200Y0000380700D01*
X0000115561Y0000382061D01*
X0000118150Y0000382061D01*
X0000119000Y0000382911D01*
G01X0000119500Y0000369500D02*
X0000120350Y0000370350D01*
X0000122250Y0000370350D01*
X0000124000Y0000368600D01*
X0000124000Y0000316662D01*
X0000194500Y0000246161D01*
X0000194500Y0000231661D01*
X0000231462Y0000194700D01*
X0000275300Y0000194700D01*
X0000296291Y0000173709D01*
X0000296291Y0000173072D01*
X0000293466Y0000170247D01*
X0000293466Y0000168534D01*
X0000295182Y0000166818D01*
X0000296896Y0000166818D01*
X0000299721Y0000169643D01*
X0000300357Y0000169643D01*
X0000301312Y0000168688D01*
X0000301312Y0000168052D01*
X0000298487Y0000165227D01*
X0000298487Y0000163513D01*
X0000300203Y0000161797D01*
X0000301916Y0000161797D01*
X0000304741Y0000164622D01*
X0000305378Y0000164622D01*
X0000308309Y0000161691D01*
X0000308309Y0000150912D01*
X0000309520Y0000149700D01*
X0000311947Y0000149700D01*
X0000313159Y0000150912D01*
X0000313159Y0000158750D01*
X0000313609Y0000159200D01*
X0000314959Y0000159200D01*
X0000315409Y0000158750D01*
X0000315409Y0000150912D01*
X0000316620Y0000149700D01*
X0000340899Y0000149700D01*
X0000342110Y0000150912D01*
X0000342110Y0000152110D01*
X0000343000Y0000153000D01*
X0000343500Y0000153000D01*
G01X0000119500Y0000372500D02*
X0000120350Y0000371650D01*
X0000122789Y0000371650D01*
X0000125300Y0000369139D01*
X0000125300Y0000317200D01*
X0000195800Y0000246700D01*
X0000195800Y0000232200D01*
X0000232000Y0000196000D01*
X0000275838Y0000196000D01*
X0000297591Y0000174247D01*
X0000297591Y0000172534D01*
X0000294766Y0000169709D01*
X0000294766Y0000169072D01*
X0000295721Y0000168118D01*
X0000296357Y0000168118D01*
X0000299182Y0000170943D01*
X0000300896Y0000170943D01*
X0000302612Y0000169226D01*
X0000302612Y0000167513D01*
X0000299787Y0000164688D01*
X0000299787Y0000164052D01*
X0000300742Y0000163097D01*
X0000301378Y0000163097D01*
X0000304203Y0000165922D01*
X0000305916Y0000165922D01*
X0000309609Y0000162230D01*
X0000309609Y0000151450D01*
X0000310059Y0000151000D01*
X0000311409Y0000151000D01*
X0000311859Y0000151450D01*
X0000311859Y0000159288D01*
X0000313070Y0000160500D01*
X0000315497Y0000160500D01*
X0000316709Y0000159288D01*
X0000316709Y0000151450D01*
X0000317159Y0000151000D01*
X0000327830Y0000151000D01*
X0000328680Y0000151850D01*
X0000329580Y0000151850D01*
X0000330430Y0000151000D01*
X0000333330Y0000151000D01*
X0000334180Y0000151850D01*
X0000335080Y0000151850D01*
X0000335930Y0000151000D01*
X0000340360Y0000151000D01*
X0000340810Y0000151450D01*
X0000340810Y0000152190D01*
X0000340000Y0000153000D01*
G01X0000325630Y0000330500D02*
X0000326745Y0000329385D01*
X0000331245Y0000329385D01*
X0000347930Y0000312700D01*
X0000347930Y0000277930D01*
X0000337200Y0000267200D01*
X0000195300Y0000267200D01*
X0000138579Y0000323921D01*
X0000133350Y0000323921D01*
X0000132500Y0000323071D01*
G01X0000321130Y0000321094D02*
X0000322215Y0000322179D01*
X0000330113Y0000322179D01*
X0000342630Y0000309662D01*
X0000342630Y0000280968D01*
X0000334662Y0000273000D01*
X0000201500Y0000273000D01*
X0000143490Y0000331010D01*
X0000140850Y0000331010D01*
X0000140000Y0000331860D01*
G01X0000140000Y0000328860D02*
X0000140850Y0000329710D01*
X0000142952Y0000329710D01*
X0000200962Y0000271700D01*
X0000335200Y0000271700D01*
X0000343930Y0000280430D01*
X0000343930Y0000310200D01*
X0000330651Y0000323479D01*
X0000322245Y0000323479D01*
X0000321130Y0000324594D01*
G01X0000325630Y0000327000D02*
X0000326715Y0000328085D01*
X0000330706Y0000328085D01*
X0000346630Y0000312162D01*
X0000346630Y0000278468D01*
X0000336662Y0000268500D01*
X0000195838Y0000268500D01*
X0000139118Y0000325221D01*
X0000133350Y0000325221D01*
X0000132500Y0000326071D01*
G01X0000325630Y0000318689D02*
X0000326715Y0000317604D01*
X0000330364Y0000317604D01*
X0000339930Y0000308038D01*
X0000339930Y0000283092D01*
X0000332839Y0000276000D01*
X0000203662Y0000276000D01*
X0000198758Y0000280903D01*
X0000198759Y0000282616D01*
X0000199834Y0000283691D01*
X0000199834Y0000284328D01*
X0000198879Y0000285282D01*
X0000198242Y0000285282D01*
X0000197167Y0000284207D01*
X0000195454Y0000284208D01*
X0000193738Y0000285924D01*
X0000193738Y0000287637D01*
X0000194813Y0000288712D01*
X0000194813Y0000289348D01*
X0000193858Y0000290303D01*
X0000193222Y0000290303D01*
X0000192147Y0000289228D01*
X0000190433Y0000289228D01*
X0000188717Y0000290945D01*
X0000188717Y0000292658D01*
X0000189792Y0000293733D01*
X0000189792Y0000294369D01*
X0000188837Y0000295324D01*
X0000188201Y0000295324D01*
X0000187126Y0000294249D01*
X0000185412Y0000294249D01*
X0000183696Y0000295965D01*
X0000183696Y0000297678D01*
X0000184772Y0000298754D01*
X0000184772Y0000299390D01*
X0000183817Y0000300345D01*
X0000183180Y0000300345D01*
X0000182105Y0000299270D01*
X0000180392Y0000299270D01*
X0000143952Y0000335710D01*
X0000133350Y0000335710D01*
X0000132500Y0000334860D01*
G01X0000321130Y0000312783D02*
X0000322215Y0000311698D01*
X0000330932Y0000311698D01*
X0000336000Y0000306630D01*
X0000336000Y0000285662D01*
X0000330838Y0000280500D01*
X0000219662Y0000280500D01*
X0000207162Y0000293000D01*
X0000197662Y0000293000D01*
X0000184445Y0000306217D01*
X0000183808Y0000306217D01*
X0000182902Y0000305311D01*
X0000181189Y0000305311D01*
X0000179473Y0000307028D01*
X0000179473Y0000308741D01*
X0000180379Y0000309647D01*
X0000180379Y0000310283D01*
X0000179424Y0000311238D01*
X0000178788Y0000311238D01*
X0000177882Y0000310332D01*
X0000176168Y0000310332D01*
X0000174452Y0000312048D01*
X0000174452Y0000313761D01*
X0000175358Y0000314667D01*
X0000175358Y0000315304D01*
X0000174403Y0000316258D01*
X0000173767Y0000316258D01*
X0000172861Y0000315352D01*
X0000171147Y0000315353D01*
X0000169431Y0000317069D01*
X0000169431Y0000318782D01*
X0000170337Y0000319688D01*
X0000170337Y0000320324D01*
X0000169382Y0000321279D01*
X0000168746Y0000321279D01*
X0000167840Y0000320373D01*
X0000166127Y0000320373D01*
X0000164411Y0000322090D01*
X0000164411Y0000323803D01*
X0000165317Y0000324709D01*
X0000165317Y0000325345D01*
X0000164362Y0000326300D01*
X0000163725Y0000326300D01*
X0000162819Y0000325394D01*
X0000161106Y0000325394D01*
X0000159390Y0000327110D01*
X0000159390Y0000328824D01*
X0000160296Y0000329729D01*
X0000160296Y0000330366D01*
X0000159341Y0000331320D01*
X0000158705Y0000331320D01*
X0000157799Y0000330414D01*
X0000156085Y0000330415D01*
X0000154369Y0000332131D01*
X0000154369Y0000333844D01*
X0000155275Y0000334750D01*
X0000155275Y0000335386D01*
X0000154320Y0000336341D01*
X0000153684Y0000336341D01*
X0000152778Y0000335435D01*
X0000151065Y0000335435D01*
X0000149348Y0000337152D01*
X0000149349Y0000338865D01*
X0000150255Y0000339771D01*
X0000150255Y0000340407D01*
X0000148452Y0000342210D01*
X0000142418Y0000342210D01*
X0000141568Y0000341360D01*
X0000140000Y0000341360D01*
G01X0000132500Y0000347360D02*
X0000134068Y0000347360D01*
X0000134918Y0000348210D01*
X0000149952Y0000348210D01*
X0000151771Y0000346391D01*
X0000153484Y0000346391D01*
X0000156809Y0000349716D01*
X0000157446Y0000349716D01*
X0000158400Y0000348761D01*
X0000158400Y0000348125D01*
X0000155075Y0000344800D01*
X0000155075Y0000343086D01*
X0000156792Y0000341370D01*
X0000158505Y0000341370D01*
X0000161830Y0000344695D01*
X0000162466Y0000344695D01*
X0000163421Y0000343741D01*
X0000163421Y0000343104D01*
X0000160096Y0000339779D01*
X0000160096Y0000338066D01*
X0000161812Y0000336349D01*
X0000163526Y0000336349D01*
X0000166851Y0000339674D01*
X0000167487Y0000339674D01*
X0000168442Y0000338720D01*
X0000168442Y0000338083D01*
X0000165117Y0000334758D01*
X0000165117Y0000333045D01*
X0000166833Y0000331329D01*
X0000168546Y0000331329D01*
X0000171871Y0000334654D01*
X0000172508Y0000334654D01*
X0000173462Y0000333699D01*
X0000173462Y0000333063D01*
X0000170137Y0000329738D01*
X0000170137Y0000328024D01*
X0000171854Y0000326308D01*
X0000173567Y0000326308D01*
X0000176892Y0000329633D01*
X0000177528Y0000329633D01*
X0000178483Y0000328678D01*
X0000178483Y0000328042D01*
X0000175158Y0000324717D01*
X0000175158Y0000323004D01*
X0000199662Y0000298500D01*
X0000210661Y0000298500D01*
X0000223461Y0000285700D01*
X0000319200Y0000285700D01*
X0000325230Y0000291730D01*
X0000330156Y0000291730D01*
X0000332500Y0000294074D01*
X0000332500Y0000303468D01*
X0000330168Y0000305800D01*
X0000327208Y0000305800D01*
X0000326130Y0000306878D01*
G01X0000325630Y0000315189D02*
X0000326745Y0000316304D01*
X0000329826Y0000316304D01*
X0000338630Y0000307500D01*
X0000338630Y0000283630D01*
X0000332300Y0000277300D01*
X0000204200Y0000277300D01*
X0000200058Y0000281442D01*
X0000200059Y0000282078D01*
X0000201134Y0000283153D01*
X0000201134Y0000284866D01*
X0000199417Y0000286582D01*
X0000197704Y0000286582D01*
X0000196629Y0000285508D01*
X0000195992Y0000285508D01*
X0000195038Y0000286462D01*
X0000195038Y0000287098D01*
X0000196113Y0000288174D01*
X0000196113Y0000289887D01*
X0000194397Y0000291603D01*
X0000192683Y0000291603D01*
X0000191608Y0000290528D01*
X0000190972Y0000290528D01*
X0000190017Y0000291483D01*
X0000190017Y0000292119D01*
X0000191092Y0000293194D01*
X0000191092Y0000294907D01*
X0000189376Y0000296624D01*
X0000187662Y0000296624D01*
X0000186588Y0000295549D01*
X0000185951Y0000295549D01*
X0000184996Y0000296504D01*
X0000184996Y0000297140D01*
X0000186072Y0000298215D01*
X0000186072Y0000299928D01*
X0000184355Y0000301645D01*
X0000182642Y0000301645D01*
X0000181567Y0000300570D01*
X0000180930Y0000300570D01*
X0000144490Y0000337010D01*
X0000133350Y0000337010D01*
X0000132500Y0000337860D01*
G01X0000321130Y0000309283D02*
X0000322245Y0000310398D01*
X0000330394Y0000310398D01*
X0000334700Y0000306092D01*
X0000334700Y0000286200D01*
X0000330300Y0000281800D01*
X0000220200Y0000281800D01*
X0000207700Y0000294300D01*
X0000198200Y0000294300D01*
X0000184983Y0000307517D01*
X0000183270Y0000307517D01*
X0000182364Y0000306611D01*
X0000181727Y0000306611D01*
X0000180773Y0000307566D01*
X0000180773Y0000308202D01*
X0000181679Y0000309108D01*
X0000181679Y0000310821D01*
X0000179962Y0000312538D01*
X0000178249Y0000312538D01*
X0000177343Y0000311632D01*
X0000176707Y0000311632D01*
X0000175752Y0000312587D01*
X0000175752Y0000313223D01*
X0000176658Y0000314129D01*
X0000176658Y0000315842D01*
X0000174942Y0000317558D01*
X0000173228Y0000317558D01*
X0000172322Y0000316652D01*
X0000171686Y0000316653D01*
X0000170731Y0000317607D01*
X0000170731Y0000318244D01*
X0000171637Y0000319150D01*
X0000171637Y0000320863D01*
X0000169921Y0000322579D01*
X0000168208Y0000322579D01*
X0000167302Y0000321673D01*
X0000166665Y0000321673D01*
X0000165711Y0000322628D01*
X0000165711Y0000323264D01*
X0000166617Y0000324170D01*
X0000166617Y0000325883D01*
X0000164900Y0000327600D01*
X0000163187Y0000327600D01*
X0000162281Y0000326694D01*
X0000161645Y0000326694D01*
X0000160690Y0000327649D01*
X0000160690Y0000328285D01*
X0000161596Y0000329191D01*
X0000161596Y0000330904D01*
X0000159880Y0000332620D01*
X0000158166Y0000332620D01*
X0000157260Y0000331715D01*
X0000156624Y0000331715D01*
X0000155669Y0000332669D01*
X0000155669Y0000333306D01*
X0000156575Y0000334212D01*
X0000156575Y0000335925D01*
X0000154859Y0000337641D01*
X0000153146Y0000337641D01*
X0000152240Y0000336735D01*
X0000151603Y0000336735D01*
X0000150648Y0000337690D01*
X0000150649Y0000338326D01*
X0000151555Y0000339232D01*
X0000151555Y0000340946D01*
X0000148990Y0000343510D01*
X0000142418Y0000343510D01*
X0000141568Y0000344360D01*
X0000140000Y0000344360D01*
G01X0000132500Y0000350360D02*
X0000134068Y0000350360D01*
X0000134918Y0000349510D01*
X0000150490Y0000349510D01*
X0000152309Y0000347691D01*
X0000152946Y0000347691D01*
X0000156271Y0000351016D01*
X0000157984Y0000351016D01*
X0000159700Y0000349300D01*
X0000159700Y0000347586D01*
X0000156375Y0000344261D01*
X0000156375Y0000343625D01*
X0000157330Y0000342670D01*
X0000157966Y0000342670D01*
X0000161291Y0000345995D01*
X0000163005Y0000345995D01*
X0000164721Y0000344279D01*
X0000164721Y0000342566D01*
X0000161396Y0000339241D01*
X0000161396Y0000338604D01*
X0000162351Y0000337649D01*
X0000162987Y0000337649D01*
X0000166312Y0000340974D01*
X0000168026Y0000340974D01*
X0000169742Y0000339258D01*
X0000169742Y0000337545D01*
X0000166417Y0000334220D01*
X0000166417Y0000333584D01*
X0000167371Y0000332629D01*
X0000168008Y0000332629D01*
X0000171333Y0000335954D01*
X0000173046Y0000335954D01*
X0000174762Y0000334238D01*
X0000174762Y0000332524D01*
X0000171437Y0000329199D01*
X0000171437Y0000328563D01*
X0000172392Y0000327608D01*
X0000173028Y0000327608D01*
X0000176354Y0000330933D01*
X0000178067Y0000330933D01*
X0000179783Y0000329217D01*
X0000179783Y0000327504D01*
X0000176458Y0000324178D01*
X0000176458Y0000323542D01*
X0000200200Y0000299800D01*
X0000211200Y0000299800D01*
X0000224000Y0000287000D01*
X0000318662Y0000287000D01*
X0000324692Y0000293030D01*
X0000329618Y0000293030D01*
X0000331200Y0000294612D01*
X0000331200Y0000302930D01*
X0000329630Y0000304500D01*
X0000327252Y0000304500D01*
X0000326130Y0000303378D01*
G54D12*
X0000007594Y0000250664D03*
X0000007594Y0000284679D03*
G54D22*
G01X0000254516Y0000139500D02*
X0000254499Y0000139483D01*
X0000233517Y0000139483D01*
X0000171500Y0000201500D01*
X0000171500Y0000230000D01*
X0000097500Y0000304000D01*
X0000097500Y0000308500D01*
X0000086000Y0000320000D01*
X0000083500Y0000320000D01*
X0000080000Y0000323500D01*
X0000067000Y0000323500D01*
X0000065000Y0000321500D01*
G01X0000256000Y0000306500D02*
X0000219500Y0000306500D01*
X0000215000Y0000311000D01*
X0000215000Y0000313000D01*
X0000208500Y0000319500D01*
X0000208500Y0000343500D01*
X0000212500Y0000347500D01*
G01X0000212500Y0000342500D02*
X0000211000Y0000341000D01*
X0000211000Y0000320000D01*
X0000216000Y0000315000D01*
X0000222000Y0000315000D01*
X0000227000Y0000310000D01*
X0000252500Y0000310000D01*
G01X0000245000Y0000332500D02*
X0000241000Y0000336500D01*
X0000238500Y0000336500D01*
X0000235000Y0000340000D01*
X0000223000Y0000340000D01*
X0000221000Y0000342000D01*
X0000221000Y0000353500D01*
X0000219500Y0000355000D01*
X0000210000Y0000355000D01*
X0000207500Y0000352500D01*
G01X0000310000Y0000300000D02*
X0000293500Y0000316500D01*
X0000240000Y0000316500D01*
X0000238500Y0000315000D01*
X0000228000Y0000315000D01*
X0000223000Y0000320000D01*
X0000216500Y0000320000D01*
X0000213500Y0000323000D01*
X0000213500Y0000339000D01*
X0000215000Y0000340500D01*
X0000215000Y0000350000D01*
X0000217500Y0000352500D01*
G01X0000217500Y0000337500D02*
X0000215500Y0000335500D01*
X0000215500Y0000326500D01*
X0000217000Y0000325000D01*
X0000222000Y0000325000D01*
X0000227000Y0000320000D01*
X0000235000Y0000320000D01*
X0000236500Y0000318500D01*
X0000296479Y0000318500D01*
X0000314989Y0000299989D01*
G01X0000254000Y0000326500D02*
X0000248000Y0000320500D01*
X0000237500Y0000320500D01*
X0000233000Y0000325000D01*
X0000226500Y0000325000D01*
X0000225000Y0000326500D01*
G01X0000217500Y0000331500D02*
X0000219000Y0000330000D01*
X0000226500Y0000330000D01*
X0000229000Y0000327500D01*
X0000234500Y0000327500D01*
X0000237000Y0000325000D01*
X0000248500Y0000325000D01*
X0000254000Y0000330500D01*
X0000261000Y0000330500D01*
X0000264000Y0000333500D01*
X0000290500Y0000333500D01*
X0000306000Y0000349000D01*
X0000306000Y0000407000D01*
X0000302250Y0000410750D01*
X0000302250Y0000415250D01*
X0000300000Y0000417500D01*
G01X0000295000Y0000350000D02*
X0000265500Y0000350000D01*
X0000262500Y0000347000D01*
X0000258500Y0000347000D01*
X0000256500Y0000345000D01*
X0000227500Y0000345000D01*
X0000225000Y0000347500D01*
G01X0000225000Y0000337500D02*
X0000226000Y0000337500D01*
X0000233500Y0000330000D01*
X0000241500Y0000330000D01*
X0000244000Y0000327500D01*
X0000245000Y0000327500D01*
G01X0000290500Y0000377500D02*
X0000237000Y0000377500D01*
X0000234500Y0000375000D01*
X0000227500Y0000375000D01*
X0000225000Y0000372500D01*
G01X0000217500Y0000372602D02*
X0000220500Y0000369602D01*
X0000220500Y0000367500D01*
X0000223000Y0000365000D01*
X0000251000Y0000365000D01*
X0000260500Y0000355500D01*
G01X0000240000Y0000332500D02*
X0000241500Y0000332500D01*
X0000243500Y0000330500D01*
X0000248500Y0000330500D01*
X0000258500Y0000340500D01*
X0000265000Y0000340500D01*
X0000271500Y0000347000D01*
X0000296000Y0000347000D01*
X0000304000Y0000355000D01*
X0000304000Y0000404000D01*
X0000299500Y0000408500D01*
X0000299500Y0000413000D01*
X0000295000Y0000417500D01*
G01X0000230000Y0000372500D02*
X0000288500Y0000372500D01*
X0000293500Y0000377500D01*
G01X0000295000Y0000412500D02*
X0000296500Y0000411000D01*
X0000296500Y0000373000D01*
X0000276000Y0000352500D01*
X0000250000Y0000352500D01*
X0000245000Y0000347500D01*
G01X0000317500Y0000172000D02*
X0000340900Y0000172000D01*
X0000348500Y0000164400D01*
X0000348500Y0000161162D01*
X0000351000Y0000158662D01*
G54D13*
X0000018596Y0000321457D03*
X0000005368Y0000321457D03*
X0000018596Y0000345867D03*
X0000005368Y0000345867D03*
G54D23*
G01X0000273130Y0000030500D02*
X0000273130Y0000041370D01*
X0000270000Y0000044500D01*
X0000249000Y0000044500D01*
X0000237630Y0000055870D01*
X0000237630Y0000060500D01*
G01X0000237630Y0000060500D02*
X0000237630Y0000065500D01*
G01X0000237630Y0000065500D02*
X0000243130Y0000071000D01*
X0000258500Y0000071000D01*
X0000268114Y0000080614D01*
X0000275130Y0000080614D01*
G01X0000262130Y0000017150D02*
X0000264480Y0000019500D01*
G01X0000264480Y0000019500D02*
X0000275500Y0000019500D01*
X0000285130Y0000029130D01*
X0000285130Y0000036000D01*
G01X0000297000Y0000041500D02*
X0000290630Y0000041500D01*
X0000285130Y0000036000D01*
G54D14*
X0000024051Y0000250664D03*
X0000024051Y0000284679D03*
G54D24*
G01X0000115000Y0000020008D02*
X0000101008Y0000034000D01*
X0000087000Y0000034000D01*
X0000081500Y0000039500D01*
X0000081500Y0000064500D01*
X0000078500Y0000067500D01*
G54D15*
X0000022083Y0000256293D03*
X0000022083Y0000279049D03*
G54D25*
G01X0000043307Y0000206798D02*
X0000043307Y0000212599D01*
G01X0000043307Y0000212599D02*
X0000043307Y0000218399D01*
G54D16*
X0000017520Y0000381890D03*
X0000017520Y0000401575D03*
G54D26*
G01X0000007594Y0000247895D02*
X0000007594Y0000250664D01*
G01X0000007594Y0000250664D02*
X0000007594Y0000253432D01*
G01X0000003645Y0000250664D02*
X0000007594Y0000250664D01*
G01X0000007594Y0000250664D02*
X0000011544Y0000250664D01*
G01X0000007594Y0000281911D02*
X0000007594Y0000284679D01*
G01X0000007594Y0000284679D02*
X0000007594Y0000287448D01*
G01X0000003645Y0000284679D02*
X0000007594Y0000284679D01*
G01X0000007594Y0000284679D02*
X0000011544Y0000284679D01*
G01X0000005368Y0000317704D02*
X0000005368Y0000321457D01*
G01X0000005368Y0000321457D02*
X0000005368Y0000325210D01*
G01X0000005368Y0000321457D02*
X0000011188Y0000321457D01*
G01X0000012776Y0000321457D02*
X0000018596Y0000321457D01*
G01X0000005368Y0000342114D02*
X0000005368Y0000345867D01*
G01X0000005368Y0000345867D02*
X0000005368Y0000349620D01*
G01X0000005368Y0000345867D02*
X0000011188Y0000345867D01*
G01X0000012776Y0000345867D02*
X0000018596Y0000345867D01*
G01X0000014357Y0000381890D02*
X0000017520Y0000381890D01*
G01X0000024051Y0000247895D02*
X0000024051Y0000250664D01*
G01X0000019117Y0000250664D02*
X0000024051Y0000250664D01*
G01X0000024051Y0000250664D02*
X0000028985Y0000250664D01*
G01X0000024051Y0000284679D02*
X0000024051Y0000287448D01*
G01X0000019117Y0000284679D02*
X0000024051Y0000284679D01*
G01X0000024051Y0000284679D02*
X0000028985Y0000284679D01*
G01X0000018596Y0000317704D02*
X0000018596Y0000321457D01*
G01X0000018596Y0000321457D02*
X0000018596Y0000325210D01*
G01X0000018596Y0000321457D02*
X0000024416Y0000321457D01*
G01X0000018596Y0000345867D02*
X0000018596Y0000349620D01*
G01X0000017520Y0000378334D02*
X0000017520Y0000381890D01*
G01X0000017520Y0000381890D02*
X0000017520Y0000385446D01*
G01X0000017520Y0000381890D02*
X0000020682Y0000381890D01*
G01X0000043307Y0000155224D02*
X0000043307Y0000161024D01*
G01X0000043307Y0000161024D02*
X0000043307Y0000166824D01*
G01X0000043307Y0000161024D02*
X0000049107Y0000161024D01*
G01X0000047637Y0000169231D02*
X0000047637Y0000173031D01*
G01X0000047637Y0000173031D02*
X0000047637Y0000176832D01*
G01X0000043837Y0000173031D02*
X0000047637Y0000173031D01*
G01X0000047637Y0000173031D02*
X0000051438Y0000173031D01*
G54D17*
X0000043307Y0000161024D03*
X0000043307Y0000212599D03*
G54D18*
X0000047637Y0000182874D03*
X0000047637Y0000173031D03*
X0000047637Y0000190748D03*
G54D19*
X0000047637Y0000200591D03*
M02*
