G04 ================== begin FILE IDENTIFICATION RECORD ==================*
G04 Layout Name:  D:/PCB_Project/CutiePi/CutiePi_V2_3/CutiePi_V2_3.brd*
G04 Film Name:    SOLDER_BOT*
G04 File Format:  Gerber RS274X*
G04 File Origin:  Cadence Allegro 16.6-2015-S108*
G04 Origin Date:  Wed Apr 14 11:34:07 2021*
G04 *
G04 Layer:  BOARD GEOMETRY/SOLDERMASK_BOTTOM*
G04 Layer:  PACKAGE GEOMETRY/SOLDERMASK_BOTTOM*
G04 Layer:  PIN/SOLDERMASK_BOTTOM*
G04 Layer:  VIA CLASS/SOLDERMASK_BOTTOM*
G04 Layer:  BOARD GEOMETRY/OUTLINE*
G04 *
G04 Offset:    (0.000 0.000)*
G04 Mirror:    No*
G04 Mode:      Positive*
G04 Rotation:  0*
G04 FullContactRelief:  No*
G04 UndefLineWidth:     6.000*
G04 ================== end FILE IDENTIFICATION RECORD ====================*
%FSAX55Y55*MOIN*%
%IR0*IPPOS*OFA0.00000B0.00000*MIA0B0*SFA1.00000B1.00000*%
%ADD11O,.068898X.045276*%
%ADD16C,.11*%
%ADD19C,.240157*%
%ADD10C,.275591*%
%ADD12O,.106299X.064961*%
%ADD17C,.07*%
%ADD15O,.05315X.061024*%
%ADD18R,.07X.07*%
%ADD14C,.031496*%
%ADD13O,.088583X.045276*%
%ADD20C,.006*%
G75*
%LPD*%
G75*
G54D10*
X0000015748Y0000015748D03*
X0000015748Y0000437008D03*
X0000338619Y0000015748D03*
X0000338619Y0000437008D03*
G54D20*
G01X0000005000Y0000072902D02*
X0000007900Y0000072902D01*
G03X0000010300Y0000075302I0J0000002400D01*
G01X0000010300Y0000092023D01*
G03X0000007900Y0000094423I-0000002400J0D01*
G01X0000002400Y0000094423D01*
G02X0Y0000096823I0J0000002400D01*
G01X0Y0000155000D01*
G02X0000005000Y0000160000I0000005000J0D01*
G01X0000031130Y0000160000D01*
G03X0000036130Y0000165000I0J0000005000D01*
G01X0000036130Y0000208500D01*
G03X0000031130Y0000213500I-0000005000J0D01*
G01X0000005000Y0000213500D01*
G02X0Y0000218500I0J0000005000D01*
G01X0Y0000366141D01*
G03X0000007874Y0000374015I0J0000007874D01*
G01X0000007874Y0000409449D01*
G03X0Y0000417323I-0000007874J0D01*
G01X0Y0000447756D01*
G02X0000005000Y0000452756I0000005000J0D01*
G01X0000349367Y0000452756D01*
G02X0000354367Y0000447756I0J-0000005000D01*
G01X0000354367Y0000005000D01*
G02X0000349367Y0I-0000005000J0D01*
G01X0000005000Y0D01*
G02X0Y0000005000I0J0000005000D01*
G01X0Y0000070504D01*
G02X0000002400Y0000072904I0000002400J0D01*
G01X0000005000Y0000072904D01*
X0000005000Y0000072902D01*
G54D11*
X0000007594Y0000250664D03*
X0000007594Y0000284679D03*
G54D12*
X0000018596Y0000321457D03*
X0000005368Y0000321457D03*
X0000018596Y0000345867D03*
X0000005368Y0000345867D03*
G54D13*
X0000024051Y0000250664D03*
X0000024051Y0000284679D03*
G54D14*
X0000022083Y0000256293D03*
X0000022083Y0000279049D03*
G54D15*
X0000017520Y0000381890D03*
X0000017520Y0000401575D03*
G54D16*
X0000043307Y0000161024D03*
X0000043307Y0000212599D03*
G54D17*
X0000047637Y0000182874D03*
X0000047637Y0000173031D03*
X0000047637Y0000190748D03*
G54D18*
X0000047637Y0000200591D03*
G54D19*
X0000095548Y0000247007D03*
X0000095548Y0000435984D03*
X0000225469Y0000247007D03*
X0000225469Y0000435984D03*
M02*
