G04 ================== begin FILE IDENTIFICATION RECORD ==================*
G04 Layout Name:  C:/Users/rock/Documents/Work/ZHG/CutiePi_V1_1/CutiePi_V1_1.brd*
G04 Film Name:    BOTTOM*
G04 File Format:  Gerber RS274X*
G04 File Origin:  Cadence Allegro 17.2-S058*
G04 Origin Date:  Thu Oct 24 15:12:38 2019*
G04 *
G04 Layer:  ETCH/BOTTOM*
G04 Layer:  PIN/BOTTOM*
G04 Layer:  VIA CLASS/BOTTOM*
G04 *
G04 Offset:    (0.000 0.000)*
G04 Mirror:    No*
G04 Mode:      Positive*
G04 Rotation:  0*
G04 FullContactRelief:  No*
G04 UndefLineWidth:     6.000*
G04 ================== end FILE IDENTIFICATION RECORD ====================*
%FSAX55Y55*MOIN*%
%IR0*IPPOS*OFA0.00000B0.00000*MIA0B0*SFA1.00000B1.00000*%
%ADD13R,.066929X.07874*%
%ADD24C,.1*%
%ADD15O,.100394X.059055*%
%ADD12R,.141732X.03937*%
%ADD22R,.033465X.009055*%
%ADD21R,.03937X.009055*%
%ADD17R,.169291X.047244*%
%ADD11C,.02*%
%ADD23C,.04*%
%ADD26C,.06*%
%ADD25R,.06X.06*%
%ADD31C,.03937*%
%ADD29R,.051181X.055118*%
%ADD16O,.047244X.055118*%
%ADD30R,.03937X.037402*%
%ADD27R,.055118X.074803*%
%ADD19R,.047244X.029921*%
%ADD18R,.047244X.031496*%
%ADD14O,.066929X.043307*%
%ADD10C,.019689*%
%ADD28R,.031496X.059055*%
%ADD20R,.047244X.027559*%
%ADD32C,.006*%
%ADD33C,.0043*%
%ADD34C,.008*%
%ADD35C,.01*%
%ADD36C,.012*%
%ADD37C,.025*%
%ADD43R,.135X.02*%
%ADD47C,.120004*%
%ADD48C,.220624*%
%ADD49C,.220482*%
%ADD40R,.02X.05*%
%ADD42R,.015X.02*%
%ADD38R,.015X.05*%
%ADD39R,.025X.05*%
%ADD41R,.015X.025*%
%ADD44C,.032004*%
%ADD45C,.070004*%
%ADD52C,.059316*%
%ADD50O,.057248X.065122*%
%ADD51O,.067248X.075122*%
%ADD46C,.078992*%
G75*
%LPD*%
G75*
G36*
G01X0000002000Y0000318142D02*
G02X0000003639Y0000318912I0000001000J0D01*
G03X0000005845Y0000318115I0000002206J0000002656D01*
G01X0000009979Y0000318115D01*
G03X0000009979Y0000325021I0J0000003453D01*
G01X0000005845Y0000325021D01*
G03X0000003639Y0000324224I0J-0000003453D01*
G02X0000002000Y0000324994I-0000000639J0000000769D01*
G01X0000002000Y0000342552D01*
G02X0000003639Y0000343321I0000001000J0D01*
G03X0000005845Y0000342524I0000002206J0000002656D01*
G01X0000009979Y0000342524D01*
G03X0000009979Y0000349430I0J0000003453D01*
G01X0000005845Y0000349430D01*
G03X0000003639Y0000348634I0J-0000003453D01*
G02X0000002000Y0000349403I-0000000639J0000000769D01*
G01X0000002000Y0000428000D01*
X0000004803Y0000428000D01*
X0000004953Y0000427824D01*
G03X0000026690Y0000428000I0000010795J0000009184D01*
G01X0000169130Y0000428000D01*
X0000169130Y0000450755D01*
X0000330389Y0000450755D01*
G02X0000330931Y0000448915I0J-0000001000D01*
G03X0000350526Y0000429321I0000007687J-0000011907D01*
G02X0000352367Y0000428779I0000000840J-0000000542D01*
G01X0000352367Y0000023977D01*
G02X0000350526Y0000023435I-0000001000J0D01*
G03X0000330931Y0000003840I-0000011908J-0000007687D01*
G02X0000330389Y0000002000I-0000000542J-0000000840D01*
G01X0000264530Y0000002000D01*
G02X0000263607Y0000003385I0J0000001000D01*
G03X0000263730Y0000004000I-0000001477J0000000615D01*
G03X0000263403Y0000004969I-0000001600J0D01*
G02X0000263403Y0000006181I0000000796J0000000606D01*
G03X0000263730Y0000007150I-0000001273J0000000969D01*
G03X0000262130Y0000008750I-0000001600J0D01*
G03X0000260899Y0000008173I0J-0000001600D01*
G02X0000259361Y0000008173I-0000000769J0000000639D01*
G03X0000256899Y0000008173I-0000001231J-0000001023D01*
G02X0000255361Y0000008173I-0000000769J0000000639D01*
G03X0000254130Y0000008750I-0000001231J-0000001023D01*
G03X0000253392Y0000008570I0J-0000001600D01*
G02X0000251930Y0000009457I-0000000461J0000000887D01*
G01X0000251930Y0000023832D01*
X0000248961Y0000026800D01*
X0000185462Y0000026800D01*
X0000132930Y0000079332D01*
X0000132930Y0000113832D01*
X0000125462Y0000121300D01*
X0000067298Y0000121300D01*
X0000064830Y0000118832D01*
X0000064830Y0000107168D01*
X0000066798Y0000105200D01*
X0000079798Y0000105200D01*
X0000081830Y0000103168D01*
X0000081830Y0000066168D01*
X0000102298Y0000045700D01*
X0000126298Y0000045700D01*
X0000163798Y0000008200D01*
X0000237299Y0000008200D01*
X0000237330Y0000008169D01*
X0000237330Y0000003666D01*
G02X0000236584Y0000002000I-0000000746J-0000000666D01*
G01X0000023977Y0000002000D01*
G02X0000023435Y0000003840I0J0000001000D01*
G03X0000003840Y0000023435I-0000007687J0000011907D01*
G02X0000002000Y0000023977I-0000000840J0000000542D01*
G01X0000002000Y0000044300D01*
G02X0000003067Y0000045297I0000001000J0D01*
G03X0000003133Y0000045295I0000000066J0000000998D01*
G01X0000017307Y0000045295D01*
G03X0000018307Y0000046295I0J0000001000D01*
G01X0000018307Y0000050232D01*
G03X0000017307Y0000051232I-0000001000J0D01*
G01X0000003133Y0000051232D01*
G03X0000003067Y0000051230I0000000001J-0000001000D01*
G02X0000002000Y0000052228I-0000000067J0000000998D01*
G01X0000002000Y0000114772D01*
G02X0000003067Y0000115770I0000001000J0D01*
G03X0000003133Y0000115768I0000000066J0000000998D01*
G01X0000017307Y0000115768D01*
G03X0000018307Y0000116768I0J0000001000D01*
G01X0000018307Y0000120705D01*
G03X0000017307Y0000121705I-0000001000J0D01*
G01X0000003133Y0000121705D01*
G03X0000003067Y0000121703I0000000001J-0000001000D01*
G02X0000002000Y0000122700I-0000000067J0000000998D01*
G01X0000002000Y0000143936D01*
X0000002000Y0000155000D01*
G02X0000005000Y0000158000I0000003000J0D01*
G01X0000031130Y0000158000D01*
G03X0000036480Y0000160485I0J0000007000D01*
G02X0000038232Y0000159992I0000000764J-0000000645D01*
G03X0000043670Y0000155322I0000005437J0000000830D01*
G03X0000043670Y0000166322I0J0000005500D01*
G03X0000039049Y0000163806I0J-0000005500D01*
G01X0000038982Y0000163701D01*
X0000038376Y0000163363D01*
X0000038052Y0000163943D01*
X0000038073Y0000164107D01*
G03X0000038130Y0000164999I-0000006943J0000000893D01*
G01X0000038130Y0000208500D01*
G03X0000038100Y0000209144I-0000007000J0D01*
G02X0000039021Y0000209457I0000000498J0000000046D01*
G03X0000043670Y0000206897I0000004649J0000002939D01*
G03X0000043670Y0000217897I0J0000005500D01*
G03X0000038266Y0000213425I0J-0000005500D01*
G02X0000036515Y0000212973I-0000000982J0000000187D01*
G03X0000031130Y0000215500I-0000005385J-0000004473D01*
G01X0000005000Y0000215500D01*
G02X0000002000Y0000218500I0J0000003000D01*
G01X0000002000Y0000225682D01*
X0000002000Y0000247620D01*
G02X0000003558Y0000248450I0000001000J0D01*
G03X0000005043Y0000247998I0000001485J0000002213D01*
G01X0000007406Y0000247998D01*
G03X0000007406Y0000253329I0J0000002666D01*
G01X0000005043Y0000253329D01*
G03X0000003558Y0000252877I0J-0000002666D01*
G02X0000002000Y0000253707I-0000000557J0000000830D01*
G01X0000002000Y0000281636D01*
G02X0000003558Y0000282466I0000001000J0D01*
G03X0000005043Y0000282014I0000001485J0000002213D01*
G01X0000007406Y0000282014D01*
G03X0000007406Y0000287345I0J0000002666D01*
G01X0000005043Y0000287345D01*
G03X0000003558Y0000286893I0J-0000002666D01*
G02X0000002000Y0000287723I-0000000557J0000000830D01*
G01X0000002000Y0000318142D01*
G37*
G36*
G01X0000065630Y0000118500D02*
X0000067630Y0000120500D01*
X0000125130Y0000120500D01*
X0000132130Y0000113500D01*
X0000132130Y0000079000D01*
X0000185130Y0000026000D01*
X0000248630Y0000026000D01*
X0000251130Y0000023500D01*
X0000251130Y0000004000D01*
X0000250130Y0000003000D01*
X0000239130Y0000003000D01*
X0000238130Y0000004000D01*
X0000238130Y0000008500D01*
X0000237630Y0000009000D01*
X0000164130Y0000009000D01*
X0000126630Y0000046500D01*
X0000102630Y0000046500D01*
X0000082630Y0000066500D01*
X0000082630Y0000103500D01*
X0000080130Y0000106000D01*
X0000067130Y0000106000D01*
X0000065630Y0000107500D01*
X0000065630Y0000118500D01*
G37*
%LPC*%
G75*
G36*
G01X0000019074Y0000342524D02*
G02X0000019074Y0000349430I0J0000003453D01*
G01X0000023208Y0000349430D01*
G02X0000024682Y0000342855I0J-0000003453D01*
G03X0000024494Y0000342700I0000000214J-0000000452D01*
G03X0000024250Y0000342686I-0000000093J-0000000491D01*
G02X0000023208Y0000342524I-0000001042J0000003292D01*
G01X0000019074Y0000342524D01*
G37*
G36*
G01X0000297361Y0000030477D02*
G02X0000296130Y0000029900I-0000001231J0000001023D01*
G02X0000296130Y0000033100I0J0000001600D01*
G02X0000297361Y0000032523I0J-0000001600D01*
G03X0000298899Y0000032523I0000000769J0000000639D01*
G02X0000300130Y0000033100I0000001231J-0000001023D01*
G02X0000300130Y0000029900I0J-0000001600D01*
G02X0000298899Y0000030477I0J0000001600D01*
G03X0000297361Y0000030477I-0000000769J-0000000639D01*
G37*
G36*
G01X0000209446Y0000046423D02*
G02X0000209030Y0000047500I0000001183J0000001077D01*
G02X0000212230Y0000047500I0000001600J0D01*
G02X0000211814Y0000046423I-0000001600J0D01*
G03X0000211814Y0000045077I0000000740J-0000000673D01*
G02X0000212230Y0000044000I-0000001183J-0000001077D01*
G02X0000209030Y0000044000I-0000001600J0D01*
G02X0000209446Y0000045077I0000001600J0D01*
G03X0000209446Y0000046423I-0000000740J0000000673D01*
G37*
G36*
G01X0000214447Y0000046423D02*
G02X0000214030Y0000047500I0000001183J0000001077D01*
G02X0000217230Y0000047500I0000001600J0D01*
G02X0000216814Y0000046423I-0000001600J0D01*
G03X0000216814Y0000045077I0000000740J-0000000673D01*
G02X0000217230Y0000044000I-0000001183J-0000001077D01*
G02X0000214030Y0000044000I-0000001600J0D01*
G02X0000214447Y0000045077I0000001600J0D01*
G03X0000214447Y0000046423I-0000000740J0000000673D01*
G37*
G36*
G01X0000294861Y0000069477D02*
G02X0000293630Y0000068900I-0000001231J0000001023D01*
G02X0000293630Y0000072100I0J0000001600D01*
G02X0000294861Y0000071523I0J-0000001600D01*
G03X0000296399Y0000071523I0000000769J0000000639D01*
G02X0000297630Y0000072100I0000001231J-0000001023D01*
G02X0000297630Y0000068900I0J-0000001600D01*
G02X0000296399Y0000069477I0J0000001600D01*
G03X0000294861Y0000069477I-0000000769J-0000000639D01*
G37*
G36*
G01X0000065607Y0000075269D02*
G02X0000065030Y0000076500I0000001023J0000001231D01*
G02X0000068230Y0000076500I0000001600J0D01*
G02X0000067653Y0000075269I-0000001600J0D01*
G03X0000067653Y0000073731I0000000639J-0000000769D01*
G02X0000068230Y0000072500I-0000001023J-0000001231D01*
G02X0000065030Y0000072500I-0000001600J0D01*
G02X0000065607Y0000073731I0000001600J0D01*
G03X0000065607Y0000075269I-0000000639J0000000769D01*
G37*
G36*
G01X0000070107Y0000075269D02*
G02X0000069530Y0000076500I0000001023J0000001231D01*
G02X0000072730Y0000076500I0000001600J0D01*
G02X0000072153Y0000075269I-0000001600J0D01*
G03X0000072153Y0000073731I0000000639J-0000000769D01*
G02X0000072730Y0000072500I-0000001023J-0000001231D01*
G02X0000069530Y0000072500I-0000001600J0D01*
G02X0000070107Y0000073731I0000001600J0D01*
G03X0000070107Y0000075269I-0000000639J0000000769D01*
G37*
G36*
G01X0000074607Y0000075269D02*
G02X0000074030Y0000076500I0000001023J0000001231D01*
G02X0000077230Y0000076500I0000001600J0D01*
G02X0000076653Y0000075269I-0000001600J0D01*
G03X0000076653Y0000073731I0000000639J-0000000769D01*
G02X0000077230Y0000072500I-0000001023J-0000001231D01*
G02X0000074030Y0000072500I-0000001600J0D01*
G02X0000074607Y0000073731I0000001600J0D01*
G03X0000074607Y0000075269I-0000000639J0000000769D01*
G37*
G36*
G01X0000136946Y0000103923D02*
G02X0000136530Y0000105000I0000001183J0000001077D01*
G02X0000138130Y0000106600I0000001600J0D01*
G02X0000139207Y0000106184I0J-0000001600D01*
G03X0000140553Y0000106184I0000000673J0000000740D01*
G02X0000141630Y0000106600I0000001077J-0000001183D01*
G02X0000143230Y0000105000I0J-0000001600D01*
G02X0000142814Y0000103923I-0000001600J0D01*
G03X0000142814Y0000102577I0000000740J-0000000673D01*
G02X0000143230Y0000101500I-0000001183J-0000001077D01*
G02X0000141630Y0000099900I-0000001600J0D01*
G02X0000140553Y0000100317I0J0000001600D01*
G03X0000139207Y0000100317I-0000000673J-0000000740D01*
G02X0000138130Y0000099900I-0000001077J0000001183D01*
G02X0000136530Y0000101500I0J0000001600D01*
G02X0000136946Y0000102577I0000001600J0D01*
G03X0000136946Y0000103923I-0000000740J0000000673D01*
G37*
G36*
G01X0000328899Y0000120023D02*
G02X0000330130Y0000120600I0000001231J-0000001023D01*
G02X0000331207Y0000120184I0J-0000001600D01*
G03X0000332553Y0000120184I0000000673J0000000740D01*
G02X0000333630Y0000120600I0000001077J-0000001183D01*
G02X0000333630Y0000117400I0J-0000001600D01*
G02X0000332553Y0000117816I0J0000001600D01*
G03X0000331207Y0000117816I-0000000673J-0000000740D01*
G02X0000330130Y0000117400I-0000001077J0000001183D01*
G02X0000328899Y0000117977I0J0000001600D01*
G03X0000327361Y0000117977I-0000000769J-0000000639D01*
G02X0000324899Y0000117977I-0000001231J0000001023D01*
G03X0000323361Y0000117977I-0000000769J-0000000639D01*
G02X0000322130Y0000117400I-0000001231J0000001023D01*
G02X0000322130Y0000120600I0J0000001600D01*
G02X0000323361Y0000120023I0J-0000001600D01*
G03X0000324899Y0000120023I0000000769J0000000639D01*
G02X0000327361Y0000120023I0000001231J-0000001023D01*
G03X0000328899Y0000120023I0000000769J0000000639D01*
G37*
G36*
G01X0000324899Y0000129023D02*
G02X0000327361Y0000129023I0000001231J-0000001023D01*
G03X0000328899Y0000129023I0000000769J0000000639D01*
G02X0000330130Y0000129600I0000001231J-0000001023D01*
G02X0000330130Y0000126400I0J-0000001600D01*
G02X0000328899Y0000126977I0J0000001600D01*
G03X0000327361Y0000126977I-0000000769J-0000000639D01*
G02X0000324899Y0000126977I-0000001231J0000001023D01*
G03X0000323361Y0000126977I-0000000769J-0000000639D01*
G02X0000322130Y0000126400I-0000001231J0000001023D01*
G02X0000322130Y0000129600I0J0000001600D01*
G02X0000323361Y0000129023I0J-0000001600D01*
G03X0000324899Y0000129023I0000000769J0000000639D01*
G37*
G36*
G01X0000158336Y0000136546D02*
G02X0000157130Y0000135998I-0000001206J0000001052D01*
G02X0000157130Y0000139198I0J0000001600D01*
G02X0000158386Y0000138590I0J-0000001600D01*
G03X0000159924Y0000138552I0000000785J0000000620D01*
G02X0000161130Y0000139100I0000001206J-0000001052D01*
G02X0000161130Y0000135900I0J-0000001600D01*
G02X0000159874Y0000136508I0J0000001600D01*
G03X0000158336Y0000136546I-0000000785J-0000000620D01*
G37*
G36*
G01X0000092031Y0000158060D02*
G02X0000093630Y0000159600I0000001599J-0000000061D01*
G02X0000095230Y0000158000I0J-0000001600D01*
G02X0000093690Y0000156401I-0000001600J0D01*
G03X0000092729Y0000155440I0000000038J-0000000999D01*
G02X0000091130Y0000153900I-0000001599J0000000061D01*
G02X0000089530Y0000155500I0J0000001600D01*
G02X0000091070Y0000157099I0000001600J0D01*
G03X0000092031Y0000158060I-0000000038J0000000999D01*
G37*
G36*
G01X0000115607Y0000229769D02*
G02X0000115030Y0000231000I0000001023J0000001231D01*
G02X0000118230Y0000231000I0000001600J0D01*
G02X0000117653Y0000229769I-0000001600J0D01*
G03X0000117653Y0000228231I0000000639J-0000000769D01*
G02X0000118230Y0000227000I-0000001023J-0000001231D01*
G02X0000115030Y0000227000I-0000001600J0D01*
G02X0000115607Y0000228231I0000001600J0D01*
G03X0000115607Y0000229769I-0000000639J0000000769D01*
G37*
G36*
G01X0000120107Y0000229769D02*
G02X0000119530Y0000231000I0000001023J0000001231D01*
G02X0000122730Y0000231000I0000001600J0D01*
G02X0000122153Y0000229769I-0000001600J0D01*
G03X0000122153Y0000228231I0000000639J-0000000769D01*
G02X0000122730Y0000227000I-0000001023J-0000001231D01*
G02X0000119530Y0000227000I-0000001600J0D01*
G02X0000120107Y0000228231I0000001600J0D01*
G03X0000120107Y0000229769I-0000000639J0000000769D01*
G37*
G36*
G01X0000073446Y0000241923D02*
G02X0000073030Y0000243000I0000001183J0000001077D01*
G02X0000076230Y0000243000I0000001600J0D01*
G02X0000075814Y0000241923I-0000001600J0D01*
G03X0000075814Y0000240577I0000000740J-0000000673D01*
G02X0000076230Y0000239500I-0000001183J-0000001077D01*
G02X0000073030Y0000239500I-0000001600J0D01*
G02X0000073446Y0000240577I0000001600J0D01*
G03X0000073446Y0000241923I-0000000740J0000000673D01*
G37*
G36*
G01X0000156445Y0000246424D02*
G02X0000156030Y0000247500I0000001185J0000001076D01*
G02X0000159230Y0000247500I0000001600J0D01*
G02X0000158752Y0000246359I-0000001600J0D01*
G03X0000158713Y0000244974I0000000701J-0000000713D01*
G02X0000159128Y0000243898I-0000001185J-0000001076D01*
G02X0000155928Y0000243898I-0000001600J0D01*
G02X0000156406Y0000245039I0000001600J0D01*
G03X0000156445Y0000246424I-0000000701J0000000713D01*
G37*
G36*
G01X0000046607Y0000254269D02*
G02X0000046030Y0000255500I0000001023J0000001231D01*
G02X0000047630Y0000257100I0000001600J0D01*
G02X0000048707Y0000256684I0J-0000001600D01*
G03X0000050053Y0000256684I0000000673J0000000740D01*
G02X0000051130Y0000257100I0000001077J-0000001183D01*
G02X0000052730Y0000255500I0J-0000001600D01*
G02X0000052153Y0000254269I-0000001600J0D01*
G03X0000052153Y0000252731I0000000639J-0000000769D01*
G02X0000052730Y0000251500I-0000001023J-0000001231D01*
G02X0000051130Y0000249900I-0000001600J0D01*
G02X0000050053Y0000250316I0J0000001600D01*
G03X0000048707Y0000250316I-0000000673J-0000000740D01*
G02X0000047630Y0000249900I-0000001077J0000001183D01*
G02X0000046030Y0000251500I0J0000001600D01*
G02X0000046607Y0000252731I0000001600J0D01*
G03X0000046607Y0000254269I-0000000639J0000000769D01*
G37*
G36*
G01X0000048861Y0000309477D02*
G02X0000047630Y0000308900I-0000001231J0000001023D01*
G02X0000047630Y0000312100I0J0000001600D01*
G02X0000048861Y0000311523I0J-0000001600D01*
G03X0000050399Y0000311523I0000000769J0000000639D01*
G02X0000051630Y0000312100I0000001231J-0000001023D01*
G02X0000051630Y0000308900I0J-0000001600D01*
G02X0000050399Y0000309477I0J0000001600D01*
G03X0000048861Y0000309477I-0000000769J-0000000639D01*
G37*
G36*
G01X0000048861Y0000313977D02*
G02X0000047630Y0000313400I-0000001231J0000001023D01*
G02X0000047630Y0000316600I0J0000001600D01*
G02X0000048861Y0000316023I0J-0000001600D01*
G03X0000050399Y0000316023I0000000769J0000000639D01*
G02X0000051630Y0000316600I0000001231J-0000001023D01*
G02X0000051630Y0000313400I0J-0000001600D01*
G02X0000050399Y0000313977I0J0000001600D01*
G03X0000048861Y0000313977I-0000000769J-0000000639D01*
G37*
G36*
G01X0000175281Y0000330112D02*
G02X0000174971Y0000331059I0000001290J0000000947D01*
G02X0000178171Y0000331059I0000001600J0D01*
G02X0000177747Y0000329974I-0000001600J0D01*
G03X0000177676Y0000328703I0000000735J-0000000678D01*
G02X0000177986Y0000327756I-0000001290J-0000000947D01*
G02X0000174786Y0000327756I-0000001600J0D01*
G02X0000175210Y0000328841I0000001600J0D01*
G03X0000175281Y0000330112I-0000000735J0000000678D01*
G37*
G36*
G01X0000084607Y0000363769D02*
G02X0000084030Y0000365000I0000001023J0000001231D01*
G02X0000087230Y0000365000I0000001600J0D01*
G02X0000086653Y0000363769I-0000001600J0D01*
G03X0000086653Y0000362231I0000000639J-0000000769D01*
G02X0000087230Y0000361000I-0000001023J-0000001231D01*
G02X0000086814Y0000359923I-0000001600J0D01*
G03X0000086814Y0000358577I0000000740J-0000000673D01*
G02X0000087230Y0000357500I-0000001183J-0000001077D01*
G02X0000084030Y0000357500I-0000001600J0D01*
G02X0000084446Y0000358577I0000001600J0D01*
G03X0000084446Y0000359923I-0000000740J0000000673D01*
G02X0000084030Y0000361000I0000001183J0000001077D01*
G02X0000084607Y0000362231I0000001600J0D01*
G03X0000084607Y0000363769I-0000000639J0000000769D01*
G37*
G36*
G01X0000175323Y0000385577D02*
G02X0000175030Y0000386500I0000001307J0000000923D01*
G02X0000176630Y0000388100I0000001600J0D01*
G02X0000177861Y0000387523I0J-0000001600D01*
G03X0000179399Y0000387523I0000000769J0000000639D01*
G02X0000180630Y0000388100I0000001231J-0000001023D01*
G02X0000182230Y0000386500I0J-0000001600D01*
G02X0000181937Y0000385577I-0000001600J0D01*
G03X0000181937Y0000384423I0000000817J-0000000577D01*
G02X0000182230Y0000383500I-0000001307J-0000000923D01*
G02X0000180630Y0000381900I-0000001600J0D01*
G02X0000179399Y0000382477I0J0000001600D01*
G03X0000177861Y0000382477I-0000000769J-0000000639D01*
G02X0000176630Y0000381900I-0000001231J0000001023D01*
G02X0000175030Y0000383500I0J0000001600D01*
G02X0000175323Y0000384423I0000001600J0D01*
G03X0000175323Y0000385577I-0000000817J0000000577D01*
G37*
G36*
G01X0000019830Y0000389832D02*
X0000020799Y0000390800D01*
X0000053962Y0000390800D01*
X0000064510Y0000380252D01*
G03X0000066145Y0000380587I0000000707J0000000707D01*
G02X0000066610Y0000381225I0000001485J-0000000596D01*
G03X0000066610Y0000382767I-0000000637J0000000771D01*
G02X0000066030Y0000384000I0000001020J0000001233D01*
G02X0000069230Y0000384000I0000001600J0D01*
G02X0000068650Y0000382767I-0000001600J0D01*
G03X0000068650Y0000381225I0000000637J-0000000771D01*
G02X0000069230Y0000379992I-0000001020J-0000001233D01*
G02X0000068226Y0000378506I-0000001600J0D01*
G03X0000067891Y0000376871I0000000372J-0000000928D01*
G01X0000081430Y0000363332D01*
X0000081430Y0000325332D01*
X0000086462Y0000320300D01*
X0000278962Y0000320300D01*
X0000279930Y0000319332D01*
X0000279930Y0000307168D01*
X0000278962Y0000306200D01*
X0000133962Y0000306200D01*
X0000129930Y0000302168D01*
X0000129930Y0000236168D01*
X0000127462Y0000233700D01*
X0000114462Y0000233700D01*
X0000109962Y0000229200D01*
X0000081799Y0000229200D01*
X0000077830Y0000233168D01*
X0000077830Y0000245668D01*
X0000075330Y0000248168D01*
X0000075330Y0000361168D01*
X0000052799Y0000383700D01*
X0000028437Y0000383700D01*
G03X0000027550Y0000382238I0J-0000001000D01*
G02X0000027730Y0000381500I-0000001420J-0000000738D01*
G02X0000024530Y0000381500I-0000001600J0D01*
G02X0000024710Y0000382238I0000001600J0D01*
G03X0000023823Y0000383700I-0000000887J0000000461D01*
G01X0000020799Y0000383700D01*
X0000019830Y0000384668D01*
X0000019830Y0000389832D01*
G37*
G36*
G01X0000208861Y0000421477D02*
G02X0000207630Y0000420900I-0000001231J0000001023D01*
G02X0000207630Y0000424100I0J0000001600D01*
G02X0000208861Y0000423523I0J-0000001600D01*
G03X0000210399Y0000423523I0000000769J0000000639D01*
G02X0000211630Y0000424100I0000001231J-0000001023D01*
G02X0000211630Y0000420900I0J-0000001600D01*
G02X0000210399Y0000421477I0J0000001600D01*
G03X0000208861Y0000421477I-0000000769J-0000000639D01*
G37*
G36*
G01X0000324202Y0000328400D02*
G03X0000324202Y0000329100I-0000000357J0000000350D01*
G02X0000323630Y0000330500I0000001428J0000001400D01*
G02X0000327630Y0000330500I0000002000J0D01*
G02X0000327058Y0000329100I-0000002000J0D01*
G03X0000327058Y0000328400I0000000357J-0000000350D01*
G02X0000327630Y0000327000I-0000001428J-0000001400D01*
G02X0000323630Y0000327000I-0000002000J0D01*
G02X0000324202Y0000328400I0000002000J0D01*
G37*
G36*
G01X0000319702Y0000322494D02*
G03X0000319702Y0000323194I-0000000357J0000000350D01*
G02X0000319130Y0000324594I0000001428J0000001400D01*
G02X0000323130Y0000324594I0000002000J0D01*
G02X0000322558Y0000323194I-0000002000J0D01*
G03X0000322558Y0000322494I0000000357J-0000000350D01*
G02X0000323130Y0000321094I-0000001428J-0000001400D01*
G02X0000319130Y0000321094I-0000002000J0D01*
G02X0000319702Y0000322494I0000002000J0D01*
G37*
G36*
G01X0000324202Y0000316589D02*
G03X0000324202Y0000317289I-0000000357J0000000350D01*
G02X0000323630Y0000318689I0000001428J0000001400D01*
G02X0000327630Y0000318689I0000002000J0D01*
G02X0000327058Y0000317289I-0000002000J0D01*
G03X0000327058Y0000316589I0000000357J-0000000350D01*
G02X0000327630Y0000315189I-0000001428J-0000001400D01*
G02X0000323630Y0000315189I-0000002000J0D01*
G02X0000324202Y0000316589I0000002000J0D01*
G37*
G36*
G01X0000319702Y0000310683D02*
G03X0000319702Y0000311383I-0000000357J0000000350D01*
G02X0000319130Y0000312783I0000001428J0000001400D01*
G02X0000323130Y0000312783I0000002000J0D01*
G02X0000322558Y0000311383I-0000002000J0D01*
G03X0000322558Y0000310683I0000000357J-0000000350D01*
G02X0000323130Y0000309283I-0000001428J-0000001400D01*
G02X0000319130Y0000309283I-0000002000J0D01*
G02X0000319702Y0000310683I0000002000J0D01*
G37*
G36*
G01X0000324702Y0000304778D02*
G03X0000324702Y0000305478I-0000000357J0000000350D01*
G02X0000324130Y0000306878I0000001428J0000001400D01*
G02X0000328130Y0000306878I0000002000J0D01*
G02X0000327558Y0000305478I-0000002000J0D01*
G03X0000327558Y0000304778I0000000357J-0000000350D01*
G02X0000328130Y0000303378I-0000001428J-0000001400D01*
G02X0000324130Y0000303378I-0000002000J0D01*
G02X0000324702Y0000304778I0000002000J0D01*
G37*
G36*
G01X0000326071Y0000286860D02*
G03X0000325714Y0000287455I-0000000487J0000000112D01*
G02X0000324530Y0000289000I0000000416J0000001545D01*
G02X0000326130Y0000290600I0000001600J0D01*
G02X0000327053Y0000290307I0J-0000001600D01*
G03X0000328207Y0000290307I0000000577J0000000817D01*
G02X0000329130Y0000290600I0000000923J-0000001307D01*
G02X0000330730Y0000289000I0J-0000001600D01*
G02X0000329546Y0000287455I-0000001600J0D01*
G03X0000329189Y0000286860I0000000130J-0000000483D01*
G02X0000329230Y0000286500I-0000001559J-0000000360D01*
G02X0000326030Y0000286500I-0000001600J0D01*
G02X0000326071Y0000286860I0000001600J0D01*
G37*
G36*
G01X0000019799Y0000276300D02*
X0000025298Y0000276300D01*
X0000026799Y0000277800D01*
X0000037962Y0000277800D01*
X0000038930Y0000276832D01*
X0000038930Y0000272168D01*
X0000037962Y0000271200D01*
X0000035962Y0000271200D01*
X0000035430Y0000270668D01*
X0000035430Y0000260168D01*
X0000034462Y0000259200D01*
X0000024274Y0000259200D01*
X0000024247Y0000259197D01*
G02X0000024138Y0000259191I-0000000109J0000000994D01*
G01X0000019413Y0000259191D01*
G02X0000018413Y0000260191I0J0000001000D01*
G01X0000018413Y0000263183D01*
G02X0000018592Y0000263754I0000001000J0D01*
G02X0000018413Y0000264325I0000000821J0000000571D01*
G01X0000018413Y0000271018D01*
G02X0000018592Y0000271589I0000001000J0D01*
G02X0000018413Y0000272160I0000000821J0000000571D01*
G01X0000018413Y0000275152D01*
G02X0000019413Y0000276152I0000001000J0D01*
G01X0000019650Y0000276152D01*
X0000019799Y0000276300D01*
G37*
G36*
G01X0000221125Y0000217365D02*
G03X0000221125Y0000218682I-0000000752J0000000659D01*
G02X0000220630Y0000220000I0000001505J0000001318D01*
G02X0000224630Y0000220000I0000002000J0D01*
G02X0000224135Y0000218682I-0000002000J0D01*
G03X0000224135Y0000217365I0000000752J-0000000659D01*
G02X0000224630Y0000216048I-0000001505J-0000001318D01*
G02X0000220630Y0000216048I-0000002000J0D01*
G02X0000221125Y0000217365I0000002000J0D01*
G37*
G36*
G01X0000200214Y0000216833D02*
G03X0000200214Y0000218167I-0000000745J0000000667D01*
G02X0000199704Y0000219500I0000001491J0000001333D01*
G02X0000203705Y0000219500I0000002000J0D01*
G02X0000203195Y0000218167I-0000002000J0D01*
G03X0000203195Y0000216833I0000000745J-0000000667D01*
G02X0000203705Y0000215500I-0000001491J-0000001333D01*
G02X0000199704Y0000215500I-0000002000J0D01*
G02X0000200214Y0000216833I0000002000J0D01*
G37*
G36*
G01X0000121030Y0000217700D02*
G03X0000121030Y0000218300I-0000000400J0000000300D01*
G02X0000120630Y0000219500I0000001600J0000001200D01*
G02X0000124630Y0000219500I0000002000J0D01*
G02X0000124230Y0000218300I-0000002000J0D01*
G03X0000124230Y0000217700I0000000400J-0000000300D01*
G02X0000124630Y0000216500I-0000001600J-0000001200D01*
G02X0000120630Y0000216500I-0000002000J0D01*
G02X0000121030Y0000217700I0000002000J0D01*
G37*
G36*
G01X0000209199Y0000216717D02*
G03X0000209199Y0000218034I-0000000752J0000000659D01*
G02X0000208704Y0000219352I0000001505J0000001318D01*
G02X0000212705Y0000219352I0000002000J0D01*
G02X0000212209Y0000218034I-0000002000J0D01*
G03X0000212209Y0000216717I0000000752J-0000000659D01*
G02X0000212705Y0000215400I-0000001505J-0000001318D01*
G02X0000208704Y0000215400I-0000002000J0D01*
G02X0000209199Y0000216717I0000002000J0D01*
G37*
G36*
G01X0000124626Y0000210746D02*
G03X0000124626Y0000211346I-0000000400J0000000300D01*
G02X0000124226Y0000212546I0000001600J0000001200D01*
G02X0000128226Y0000212546I0000002000J0D01*
G02X0000127826Y0000211346I-0000002000J0D01*
G03X0000127826Y0000210746I0000000400J-0000000300D01*
G02X0000128226Y0000209546I-0000001600J-0000001200D01*
G02X0000124226Y0000209546I-0000002000J0D01*
G02X0000124626Y0000210746I0000002000J0D01*
G37*
G36*
G01X0000125030Y0000202200D02*
G03X0000125030Y0000202800I-0000000400J0000000300D01*
G02X0000124630Y0000204000I0000001600J0000001200D01*
G02X0000128630Y0000204000I0000002000J0D01*
G02X0000128230Y0000202800I-0000002000J0D01*
G03X0000128230Y0000202200I0000000400J-0000000300D01*
G02X0000128630Y0000201000I-0000001600J-0000001200D01*
G02X0000124630Y0000201000I-0000002000J0D01*
G02X0000125030Y0000202200I0000002000J0D01*
G37*
G36*
G01X0000210125Y0000200717D02*
G03X0000210125Y0000202035I-0000000752J0000000659D01*
G02X0000209630Y0000203352I0000001505J0000001318D01*
G02X0000213630Y0000203352I0000002000J0D01*
G02X0000213135Y0000202035I-0000002000J0D01*
G03X0000213135Y0000200717I0000000752J-0000000659D01*
G02X0000213630Y0000199400I-0000001505J-0000001318D01*
G02X0000209630Y0000199400I-0000002000J0D01*
G02X0000210125Y0000200717I0000002000J0D01*
G37*
G36*
G01X0000200530Y0000201200D02*
G03X0000200530Y0000201800I-0000000400J0000000300D01*
G02X0000200130Y0000203000I0000001600J0000001200D01*
G02X0000204130Y0000203000I0000002000J0D01*
G02X0000203730Y0000201800I-0000002000J0D01*
G03X0000203730Y0000201200I0000000400J-0000000300D01*
G02X0000204130Y0000200000I-0000001600J-0000001200D01*
G02X0000200130Y0000200000I-0000002000J0D01*
G02X0000200530Y0000201200I0000002000J0D01*
G37*
G36*
G01X0000125030Y0000193700D02*
G03X0000125030Y0000194300I-0000000400J0000000300D01*
G02X0000124630Y0000195500I0000001600J0000001200D01*
G02X0000128630Y0000195500I0000002000J0D01*
G02X0000128230Y0000194300I-0000002000J0D01*
G03X0000128230Y0000193700I0000000400J-0000000300D01*
G02X0000128630Y0000192500I-0000001600J-0000001200D01*
G02X0000124630Y0000192500I-0000002000J0D01*
G02X0000125030Y0000193700I0000002000J0D01*
G37*
G36*
G01X0000045534Y0000185822D02*
G03X0000045534Y0000187397I-0000000616J0000000787D01*
G02X0000044000Y0000190546I0000002466J0000003150D01*
G02X0000052000Y0000190546I0000004000J0D01*
G02X0000050466Y0000187397I-0000004000J0D01*
G03X0000050466Y0000185822I0000000616J-0000000787D01*
G02X0000052000Y0000182672I-0000002466J-0000003150D01*
G02X0000044000Y0000182672I-0000004000J0D01*
G02X0000045534Y0000185822I0000004000J0D01*
G37*
G36*
G01X0000161530Y0000181046D02*
G03X0000161530Y0000181646I-0000000400J0000000300D01*
G02X0000161130Y0000182846I0000001600J0000001200D01*
G02X0000165130Y0000182846I0000002000J0D01*
G02X0000164730Y0000181646I-0000002000J0D01*
G03X0000164730Y0000181046I0000000400J-0000000300D01*
G02X0000165130Y0000179846I-0000001600J-0000001200D01*
G02X0000161130Y0000179846I-0000002000J0D01*
G02X0000161530Y0000181046I0000002000J0D01*
G37*
G36*
G01X0000159030Y0000173700D02*
G03X0000159030Y0000174300I-0000000400J0000000300D01*
G02X0000158630Y0000175500I0000001600J0000001200D01*
G02X0000162630Y0000175500I0000002000J0D01*
G02X0000162230Y0000174300I-0000002000J0D01*
G03X0000162230Y0000173700I0000000400J-0000000300D01*
G02X0000162630Y0000172500I-0000001600J-0000001200D01*
G02X0000158630Y0000172500I-0000002000J0D01*
G02X0000159030Y0000173700I0000002000J0D01*
G37*
G36*
G01X0000164030Y0000166873D02*
G03X0000164030Y0000167473I-0000000400J0000000300D01*
G02X0000163630Y0000168673I0000001600J0000001200D01*
G02X0000167630Y0000168673I0000002000J0D01*
G02X0000167230Y0000167473I-0000002000J0D01*
G03X0000167230Y0000166873I0000000400J-0000000300D01*
G02X0000167630Y0000165673I-0000001600J-0000001200D01*
G02X0000163630Y0000165673I-0000002000J0D01*
G02X0000164030Y0000166873I0000002000J0D01*
G37*
G36*
G01X0000348323Y0000161423D02*
G03X0000348323Y0000162577I-0000000817J0000000577D01*
G02X0000348030Y0000163500I0000001307J0000000923D01*
G02X0000351230Y0000163500I0000001600J0D01*
G02X0000350937Y0000162577I-0000001600J0D01*
G03X0000350937Y0000161423I0000000817J-0000000577D01*
G02X0000351230Y0000160500I-0000001307J-0000000923D01*
G02X0000350816Y0000159426I-0000001600J0D01*
G03X0000350792Y0000158783I0000000371J-0000000336D01*
G02X0000351130Y0000157800I-0000001263J-0000000983D01*
G02X0000347930Y0000157800I-0000001600J0D01*
G02X0000348344Y0000158874I0000001600J0D01*
G03X0000348368Y0000159517I-0000000371J0000000336D01*
G02X0000348030Y0000160500I0000001263J0000000983D01*
G02X0000348323Y0000161423I0000001600J0D01*
G37*
G36*
G01X0000159030Y0000159700D02*
G03X0000159030Y0000160300I-0000000400J0000000300D01*
G02X0000158630Y0000161500I0000001600J0000001200D01*
G02X0000162630Y0000161500I0000002000J0D01*
G02X0000162230Y0000160300I-0000002000J0D01*
G03X0000162230Y0000159700I0000000400J-0000000300D01*
G02X0000162630Y0000158500I-0000001600J-0000001200D01*
G02X0000158630Y0000158500I-0000002000J0D01*
G02X0000159030Y0000159700I0000002000J0D01*
G37*
G36*
G01X0000340730Y0000157572D02*
G03X0000340030Y0000157572I-0000000350J-0000000357D01*
G02X0000338630Y0000157000I-0000001400J0000001428D01*
G02X0000338630Y0000161000I0J0000002000D01*
G02X0000340030Y0000160429I0J-0000002000D01*
G03X0000340730Y0000160429I0000000350J0000000357D01*
G02X0000342130Y0000161000I0000001400J-0000001428D01*
G02X0000342130Y0000157000I0J-0000002000D01*
G02X0000340730Y0000157572I0J0000002000D01*
G37*
G36*
G01X0000164030Y0000152700D02*
G03X0000164030Y0000153300I-0000000400J0000000300D01*
G02X0000163630Y0000154500I0000001600J0000001200D01*
G02X0000167630Y0000154500I0000002000J0D01*
G02X0000167230Y0000153300I-0000002000J0D01*
G03X0000167230Y0000152700I0000000400J-0000000300D01*
G02X0000167630Y0000151500I-0000001600J-0000001200D01*
G02X0000163630Y0000151500I-0000002000J0D01*
G02X0000164030Y0000152700I0000002000J0D01*
G37*
G36*
G01X0000340730Y0000151572D02*
G03X0000340030Y0000151572I-0000000350J-0000000357D01*
G02X0000338630Y0000151000I-0000001400J0000001428D01*
G02X0000338630Y0000155000I0J0000002000D01*
G02X0000340030Y0000154428I0J-0000002000D01*
G03X0000340730Y0000154428I0000000350J0000000357D01*
G02X0000342130Y0000155000I0000001400J-0000001428D01*
G02X0000342130Y0000151000I0J-0000002000D01*
G02X0000340730Y0000151572I0J0000002000D01*
G37*
G36*
G01X0000340730Y0000146072D02*
G03X0000340030Y0000146072I-0000000350J-0000000357D01*
G02X0000338630Y0000145500I-0000001400J0000001428D01*
G02X0000338630Y0000149500I0J0000002000D01*
G02X0000340030Y0000148929I0J-0000002000D01*
G03X0000340730Y0000148929I0000000350J0000000357D01*
G02X0000342130Y0000149500I0000001400J-0000001428D01*
G02X0000342130Y0000145500I0J-0000002000D01*
G02X0000340730Y0000146072I0J0000002000D01*
G37*
G36*
G01X0000340730Y0000140572D02*
G03X0000340030Y0000140572I-0000000350J-0000000357D01*
G02X0000338630Y0000140000I-0000001400J0000001428D01*
G02X0000338630Y0000144000I0J0000002000D01*
G02X0000340030Y0000143428I0J-0000002000D01*
G03X0000340730Y0000143428I0000000350J0000000357D01*
G02X0000342130Y0000144000I0000001400J-0000001428D01*
G02X0000342130Y0000140000I0J-0000002000D01*
G02X0000340730Y0000140572I0J0000002000D01*
G37*
G36*
G01X0000340730Y0000135072D02*
G03X0000340030Y0000135072I-0000000350J-0000000357D01*
G02X0000338630Y0000134500I-0000001400J0000001428D01*
G02X0000338630Y0000138500I0J0000002000D01*
G02X0000340030Y0000137928I0J-0000002000D01*
G03X0000340730Y0000137928I0000000350J0000000357D01*
G02X0000342130Y0000138500I0000001400J-0000001428D01*
G02X0000342130Y0000134500I0J-0000002000D01*
G02X0000340730Y0000135072I0J0000002000D01*
G37*
G36*
G01X0000024330Y0000096168D02*
X0000024330Y0000101332D01*
X0000025298Y0000102300D01*
X0000049962Y0000102300D01*
X0000050930Y0000101332D01*
X0000050930Y0000096168D01*
X0000049962Y0000095200D01*
X0000046976Y0000095200D01*
X0000046843Y0000095100D01*
G02X0000046244Y0000094901I-0000000599J0000000801D01*
G01X0000029315Y0000094901D01*
G02X0000028716Y0000095100I0J0000001000D01*
G01X0000028583Y0000095200D01*
X0000025298Y0000095200D01*
X0000024330Y0000096168D01*
G37*
G36*
G01X0000028315Y0000086059D02*
X0000028315Y0000090784D01*
G02X0000029315Y0000091784I0000001000J0D01*
G01X0000046244Y0000091784D01*
G02X0000047244Y0000090784I0J-0000001000D01*
G01X0000047244Y0000089922D01*
X0000047888Y0000089922D01*
X0000047984Y0000089964D01*
G02X0000048630Y0000090100I0000000646J-0000001464D01*
G02X0000048630Y0000086900I0J-0000001600D01*
G02X0000048403Y0000086916I0J0000001600D01*
G01X0000048367Y0000086921D01*
X0000047244Y0000086921D01*
X0000047244Y0000086059D01*
G02X0000046244Y0000085059I-0000001000J0D01*
G01X0000029315Y0000085059D01*
G02X0000028315Y0000086059I0J0000001000D01*
G37*
G36*
G01X0000028315Y0000076216D02*
X0000028315Y0000080941D01*
G02X0000029315Y0000081941I0000001000J0D01*
G01X0000046244Y0000081941D01*
G02X0000047244Y0000080941I0J-0000001000D01*
G01X0000047244Y0000080079D01*
X0000048068Y0000080079D01*
X0000048142Y0000080103D01*
G02X0000048630Y0000080179I0000000488J-0000001524D01*
G02X0000048630Y0000076978I0J-0000001600D01*
G02X0000048142Y0000077055I0J0000001600D01*
G01X0000048068Y0000077078D01*
X0000047244Y0000077078D01*
X0000047244Y0000076216D01*
G02X0000046244Y0000075216I-0000001000J0D01*
G01X0000029315Y0000075216D01*
G02X0000028315Y0000076216I0J0000001000D01*
G37*
G36*
G01X0000028315Y0000066374D02*
X0000028315Y0000071098D01*
G02X0000029315Y0000072099I0000001000J0D01*
G01X0000046244Y0000072099D01*
G02X0000047244Y0000071098I0J-0000001000D01*
G01X0000047244Y0000070236D01*
X0000048068Y0000070236D01*
X0000048142Y0000070260D01*
G02X0000048630Y0000070336I0000000488J-0000001524D01*
G02X0000048630Y0000067136I0J-0000001600D01*
G02X0000048142Y0000067212I0J0000001600D01*
G01X0000048068Y0000067236D01*
X0000047244Y0000067236D01*
X0000047244Y0000066374D01*
G02X0000046244Y0000065374I-0000001000J0D01*
G01X0000029315Y0000065374D01*
G02X0000028315Y0000066374I0J0000001000D01*
G37*
G36*
G01X0000028315Y0000056532D02*
X0000028315Y0000061256D01*
G02X0000029315Y0000062256I0000001000J0D01*
G01X0000046244Y0000062256D01*
G02X0000047244Y0000061256I0J-0000001000D01*
G01X0000047244Y0000060394D01*
X0000048068Y0000060394D01*
X0000048142Y0000060418D01*
G02X0000048630Y0000060494I0000000488J-0000001524D01*
G02X0000048630Y0000057294I0J-0000001600D01*
G02X0000048142Y0000057370I0J0000001600D01*
G01X0000048068Y0000057394D01*
X0000047244Y0000057394D01*
X0000047244Y0000056532D01*
G02X0000046244Y0000055531I-0000001000J0D01*
G01X0000029315Y0000055531D01*
G02X0000028315Y0000056532I0J0000001000D01*
G37*
G36*
G01X0000298323Y0000038923D02*
G03X0000298323Y0000040077I-0000000817J0000000577D01*
G02X0000298030Y0000041000I0000001307J0000000923D01*
G02X0000301230Y0000041000I0000001600J0D01*
G02X0000300937Y0000040077I-0000001600J0D01*
G03X0000300937Y0000038923I0000000817J-0000000577D01*
G02X0000301230Y0000038000I-0000001307J-0000000923D01*
G02X0000298030Y0000038000I-0000001600J0D01*
G02X0000298323Y0000038923I0000001600J0D01*
G37*
G36*
G01X0000107879Y0000033381D02*
X0000108298Y0000033800D01*
X0000111462Y0000033800D01*
X0000111878Y0000033384D01*
G03X0000113179Y0000033287I0000000707J0000000707D01*
G02X0000114130Y0000033600I0000000951J-0000001287D01*
G02X0000115682Y0000032389I0J-0000001600D01*
G02X0000115784Y0000031846I-0000001399J-0000000542D01*
G01X0000115784Y0000028836D01*
X0000116142Y0000028730D01*
G02X0000116858Y0000027771I-0000000284J-0000000959D01*
G01X0000116858Y0000021866D01*
G02X0000115858Y0000020865I-0000001000J0D01*
G01X0000112930Y0000020865D01*
X0000112930Y0000015169D01*
X0000111962Y0000014200D01*
X0000108298Y0000014200D01*
X0000107330Y0000015169D01*
X0000107330Y0000020865D01*
X0000104047Y0000020865D01*
G02X0000103047Y0000021866I0J0000001000D01*
G01X0000103047Y0000022440D01*
X0000099536Y0000022440D01*
X0000099536Y0000021866D01*
G02X0000098535Y0000020865I-0000001000J0D01*
G01X0000095386Y0000020865D01*
G02X0000094386Y0000021866I0J0000001000D01*
G01X0000094386Y0000027771D01*
G02X0000095102Y0000028730I0000001000J0D01*
G01X0000095460Y0000028836D01*
X0000095460Y0000031438D01*
X0000095437Y0000031512D01*
G02X0000095360Y0000032000I0000001524J0000000488D01*
G02X0000098561Y0000032000I0000001600J0D01*
G02X0000098485Y0000031512I-0000001600J0D01*
G01X0000098461Y0000031438D01*
X0000098461Y0000030142D01*
X0000099096Y0000030142D01*
X0000099213Y0000030210D01*
G02X0000099433Y0000030305I0000000504J-0000000864D01*
G01X0000099791Y0000030411D01*
X0000099791Y0000031438D01*
X0000099767Y0000031512D01*
G02X0000099691Y0000032000I0000001524J0000000488D01*
G02X0000102892Y0000032000I0000001600J0D01*
G02X0000102815Y0000031512I-0000001600J0D01*
G01X0000102791Y0000031438D01*
X0000102791Y0000030411D01*
X0000103150Y0000030305D01*
G02X0000103370Y0000030210I-0000000284J-0000000959D01*
G01X0000103487Y0000030142D01*
X0000104122Y0000030142D01*
X0000104122Y0000031438D01*
X0000104098Y0000031512D01*
G02X0000104022Y0000032000I0000001524J0000000488D01*
G02X0000105622Y0000033600I0000001600J0D01*
G02X0000106576Y0000033285I0J-0000001600D01*
G03X0000107879Y0000033381I0000000596J0000000803D01*
G37*
G36*
G01X0000125775Y0000028836D02*
X0000125775Y0000029438D01*
X0000125752Y0000029512D01*
G02X0000125675Y0000030000I0000001524J0000000488D01*
G02X0000128876Y0000030000I0000001600J0D01*
G02X0000128800Y0000029512I-0000001600J0D01*
G01X0000128776Y0000029438D01*
X0000128776Y0000028836D01*
X0000129134Y0000028730D01*
G02X0000129851Y0000027771I-0000000284J-0000000959D01*
G01X0000129851Y0000021866D01*
G02X0000128850Y0000020865I-0000001000J0D01*
G01X0000125701Y0000020865D01*
G02X0000125110Y0000021058I0J0000001000D01*
G02X0000124520Y0000020865I-0000000591J0000000807D01*
G01X0000121370Y0000020865D01*
G02X0000120370Y0000021866I0J0000001000D01*
G01X0000120370Y0000027771D01*
G02X0000121087Y0000028730I0000001000J0D01*
G01X0000121445Y0000028836D01*
X0000121445Y0000029438D01*
X0000121421Y0000029512D01*
G02X0000121345Y0000030000I0000001524J0000000488D01*
G02X0000124545Y0000030000I0000001600J0D01*
G02X0000124469Y0000029512I-0000001600J0D01*
G01X0000124445Y0000029438D01*
X0000124445Y0000028836D01*
X0000124803Y0000028730D01*
G02X0000125110Y0000028578I-0000000284J-0000000959D01*
G02X0000125417Y0000028730I0000000591J-0000000807D01*
G01X0000125775Y0000028836D01*
G37*
G36*
G01X0000192798Y0000118300D02*
X0000285830Y0000211332D01*
X0000285830Y0000263332D01*
X0000287299Y0000264800D01*
X0000323961Y0000264800D01*
X0000325430Y0000263332D01*
X0000325430Y0000182668D01*
X0000209461Y0000066700D01*
X0000152298Y0000066700D01*
X0000150330Y0000068668D01*
X0000150330Y0000115332D01*
X0000153298Y0000118300D01*
X0000192798Y0000118300D01*
G37*
G36*
G01X0000082299Y0000199200D02*
X0000055830Y0000225668D01*
X0000055830Y0000341668D01*
X0000054330Y0000343168D01*
X0000054330Y0000346832D01*
X0000055299Y0000347800D01*
X0000063462Y0000347800D01*
X0000065430Y0000345832D01*
X0000065430Y0000233332D01*
X0000088962Y0000209800D01*
X0000116462Y0000209800D01*
X0000120930Y0000205332D01*
X0000120930Y0000145832D01*
X0000131962Y0000134800D01*
X0000142462Y0000134800D01*
X0000144430Y0000132832D01*
X0000144430Y0000126168D01*
X0000142962Y0000124700D01*
X0000124298Y0000124700D01*
X0000109830Y0000139168D01*
X0000109830Y0000197668D01*
X0000108298Y0000199200D01*
X0000082299Y0000199200D01*
G37*
G36*
G01X0000076930Y0000178832D02*
X0000076930Y0000164668D01*
X0000075462Y0000163200D01*
X0000061298Y0000163200D01*
X0000059830Y0000164668D01*
X0000059830Y0000178832D01*
X0000061298Y0000180300D01*
X0000075462Y0000180300D01*
X0000076930Y0000178832D01*
G37*
G36*
G01X0000044000Y0000169829D02*
X0000044000Y0000175829D01*
G02X0000045000Y0000176830I0000001000J0D01*
G01X0000051000Y0000176830D01*
G02X0000052000Y0000175829I0J-0000001000D01*
G01X0000052000Y0000169829D01*
G02X0000051000Y0000168829I-0000001000J0D01*
G01X0000045000Y0000168829D01*
G02X0000044000Y0000169829I0J0000001000D01*
G37*
G36*
G01X0000020004Y0000253329D02*
X0000022366Y0000253329D01*
G02X0000022366Y0000247998I0J-0000002665D01*
G01X0000020004Y0000247998D01*
G02X0000020004Y0000253329I0J0000002666D01*
G37*
G36*
G01X0000020004Y0000287345D02*
X0000022366Y0000287345D01*
G02X0000022366Y0000282014I0J-0000002665D01*
G01X0000020004Y0000282014D01*
G02X0000020004Y0000287345I0J0000002666D01*
G37*
G36*
G01X0000031610Y0000342735D02*
X0000031718Y0000343088D01*
G02X0000033630Y0000344500I0000001912J-0000000588D01*
G02X0000035630Y0000342500I0J-0000002000D01*
G02X0000035230Y0000341300I-0000002000J0D01*
G03X0000035230Y0000340700I0000000400J-0000000300D01*
G02X0000035630Y0000339500I-0000001600J-0000001200D01*
G02X0000033630Y0000337500I-0000002000J0D01*
G02X0000032261Y0000338042I0J0000002000D01*
G03X0000030869Y0000338020I-0000000685J-0000000729D01*
G01X0000029699Y0000336850D01*
X0000029698Y0000336849D01*
X0000030051Y0000335995D01*
X0000033160Y0000335995D01*
G02X0000034020Y0000335639I0J-0000001215D01*
G01X0000034534Y0000335124D01*
G03X0000035871Y0000335054I0000000707J0000000707D01*
G02X0000037130Y0000335500I0000001259J-0000001554D01*
G02X0000039130Y0000333500I0J-0000002000D01*
G02X0000038730Y0000332300I-0000002000J0D01*
G03X0000038730Y0000331700I0000000400J-0000000300D01*
G02X0000039130Y0000330500I-0000001600J-0000001200D01*
G02X0000037130Y0000328500I-0000002000J0D01*
G02X0000036442Y0000328622I0J0000002000D01*
G03X0000035149Y0000327997I-0000000344J-0000000939D01*
G02X0000033705Y0000326902I-0000001519J0000000503D01*
G03X0000033229Y0000326425I0000000023J-0000000499D01*
G02X0000033193Y0000326158I-0000001598J0000000075D01*
G03X0000033788Y0000325563I0000000489J-0000000107D01*
G02X0000034130Y0000325600I0000000342J-0000001563D01*
G02X0000034130Y0000322400I0J-0000001600D01*
G02X0000033642Y0000322476I0J0000001600D01*
G01X0000033568Y0000322500D01*
X0000031130Y0000322500D01*
G02X0000030069Y0000322939I0J0000001500D01*
G01X0000027823Y0000325186D01*
X0000026711Y0000325186D01*
G02X0000025766Y0000325521I0J0000001500D01*
G01X0000025628Y0000325633D01*
X0000025038Y0000325633D01*
G02X0000024960Y0000325638I-0000000001J0000000600D01*
G03X0000024803Y0000325634I-0000000065J-0000000496D01*
G03X0000024690Y0000325744I-0000000402J-0000000297D01*
G02X0000024462Y0000326066I0000000348J0000000489D01*
G03X0000023925Y0000326424I-0000000480J-0000000139D01*
G02X0000023857Y0000326421I-0000000067J0000000596D01*
G01X0000019772Y0000326421D01*
X0000019668Y0000326058D01*
G02X0000019546Y0000325754I-0000001538J0000000441D01*
G01X0000019488Y0000325645D01*
X0000019488Y0000325021D01*
X0000023208Y0000325021D01*
G02X0000024250Y0000324860I0J-0000003453D01*
G03X0000024494Y0000324845I0000000151J0000000477D01*
G03X0000024682Y0000324690I0000000402J0000000297D01*
G02X0000023208Y0000318115I-0000001474J-0000003122D01*
G01X0000019074Y0000318115D01*
G02X0000016765Y0000324136I0J0000003453D01*
G03X0000016879Y0000325503I-0000000669J0000000744D01*
G02X0000016530Y0000326500I0000001251J0000000997D01*
G02X0000018130Y0000328100I0000001600J0D01*
G02X0000018429Y0000328072I0J-0000001600D01*
G01X0000018467Y0000328110D01*
G02X0000019104Y0000328374I0000000637J-0000000636D01*
G01X0000019497Y0000328374D01*
X0000019615Y0000328443D01*
G02X0000019649Y0000328462I0000000305J-0000000517D01*
G01X0000019923Y0000328601D01*
X0000019923Y0000329408D01*
X0000014566Y0000329408D01*
X0000014429Y0000329126D01*
G02X0000012630Y0000328000I-0000001799J0000000874D01*
G02X0000010630Y0000330000I0J0000002000D01*
G02X0000011030Y0000331200I0000002000J0D01*
G03X0000011030Y0000331800I-0000000400J0000000300D01*
G02X0000010630Y0000333000I0000001600J0000001200D01*
G02X0000011078Y0000334261I0000002000J0D01*
G03X0000011078Y0000335522I-0000000776J0000000631D01*
G02X0000010630Y0000336784I0000001552J0000001261D01*
G02X0000011030Y0000337984I0000002000J0D01*
G03X0000011030Y0000338584I-0000000400J0000000300D01*
G02X0000010630Y0000339784I0000001600J0000001200D01*
G02X0000012630Y0000341784I0000002000J0D01*
G02X0000014548Y0000340353I0J-0000002000D01*
G01X0000014654Y0000339995D01*
X0000015360Y0000339995D01*
G02X0000016220Y0000339639I0J-0000001215D01*
G01X0000016864Y0000338995D01*
X0000017360Y0000338995D01*
G02X0000018220Y0000338639I0J-0000001215D01*
G01X0000018721Y0000338138D01*
X0000019923Y0000338138D01*
X0000019923Y0000338945D01*
X0000019649Y0000339084D01*
G02X0000019320Y0000339619I0000000271J0000000536D01*
G01X0000019320Y0000340525D01*
G02X0000019920Y0000341125I0000000600J0D01*
G01X0000023857Y0000341125D01*
G02X0000023925Y0000341121I0J-0000000600D01*
G03X0000024462Y0000341479I0000000056J0000000497D01*
G02X0000025038Y0000341912I0000000577J-0000000167D01*
G01X0000025937Y0000341912D01*
X0000026054Y0000341981D01*
G02X0000026393Y0000342120I0000000658J-0000001122D01*
G03X0000027146Y0000343012I-0000000245J0000000970D01*
G02X0000028741Y0000344489I0000001595J-0000000123D01*
G02X0000030319Y0000343153I0J-0000001600D01*
G03X0000030820Y0000342735I0000000493J0000000082D01*
G02X0000030840Y0000342735I0000000022J-0000001215D01*
G01X0000031610Y0000342735D01*
G37*
G36*
G01X0000209855Y0000021100D02*
G02X0000209030Y0000022500I0000000775J0000001400D01*
G02X0000212230Y0000022500I0000001600J0D01*
G02X0000211405Y0000021100I-0000001600J0D01*
G03X0000211405Y0000020400I0000000194J-0000000350D01*
G02X0000212230Y0000019000I-0000000775J-0000001400D01*
G02X0000211782Y0000017889I-0000001600J0D01*
G03X0000211782Y0000017611I0000000144J-0000000139D01*
G02X0000212230Y0000016500I-0000001151J-0000001111D01*
G02X0000209030Y0000016500I-0000001600J0D01*
G02X0000209478Y0000017611I0000001600J0D01*
G03X0000209478Y0000017889I-0000000144J0000000139D01*
G02X0000209030Y0000019000I0000001151J0000001111D01*
G02X0000209855Y0000020400I0000001600J0D01*
G03X0000209855Y0000021100I-0000000194J0000000350D01*
G37*
G36*
G01X0000205089Y0000020994D02*
G02X0000204030Y0000022500I0000000541J0000001506D01*
G02X0000207230Y0000022500I0000001600J0D01*
G02X0000206571Y0000021206I-0000001600J0D01*
G03X0000206671Y0000020506I0000000235J-0000000323D01*
G02X0000207730Y0000019000I-0000000541J-0000001506D01*
G02X0000207282Y0000017889I-0000001600J0D01*
G03X0000207282Y0000017611I0000000144J-0000000139D01*
G02X0000207730Y0000016500I-0000001151J-0000001111D01*
G02X0000206130Y0000014900I-0000001600J0D01*
G02X0000204730Y0000015725I0J0000001600D01*
G03X0000204030Y0000015725I-0000000350J-0000000194D01*
G02X0000202630Y0000014900I-0000001400J0000000775D01*
G02X0000201030Y0000016500I0J0000001600D01*
G02X0000201479Y0000017611I0000001600J0D01*
G03X0000201479Y0000017889I-0000000144J0000000139D01*
G02X0000201030Y0000019000I0000001151J0000001111D01*
G02X0000202630Y0000020600I0000001600J0D01*
G02X0000204030Y0000019775I0J-0000001600D01*
G03X0000204730Y0000019775I0000000350J0000000194D01*
G02X0000205189Y0000020294I0000001400J-0000000775D01*
G03X0000205089Y0000020994I-0000000235J0000000323D01*
G37*
G36*
G01X0000118950Y0000109910D02*
G02X0000117530Y0000111500I0000000180J0000001590D01*
G02X0000120730Y0000111500I0000001600J0D01*
G02X0000120510Y0000110690I-0000001600J0D01*
G03X0000120810Y0000110090I0000000345J-0000000202D01*
G02X0000122230Y0000108500I-0000000180J-0000001590D01*
G02X0000119030Y0000108500I-0000001600J0D01*
G02X0000119250Y0000109310I0000001600J0D01*
G03X0000118950Y0000109910I-0000000345J0000000202D01*
G37*
G36*
G01X0000103355Y0000104100D02*
G02X0000102530Y0000105500I0000000775J0000001400D01*
G02X0000105730Y0000105500I0000001600J0D01*
G02X0000104905Y0000104100I-0000001600J0D01*
G03X0000104905Y0000103400I0000000194J-0000000350D01*
G02X0000105730Y0000102000I-0000000775J-0000001400D01*
G02X0000102530Y0000102000I-0000001600J0D01*
G02X0000103355Y0000103400I0000001600J0D01*
G03X0000103355Y0000104100I-0000000194J0000000350D01*
G37*
G36*
G01X0000123855Y0000101600D02*
G02X0000123030Y0000103000I0000000775J0000001400D01*
G02X0000126230Y0000103000I0000001600J0D01*
G02X0000125405Y0000101600I-0000001600J0D01*
G03X0000125405Y0000100900I0000000194J-0000000350D01*
G02X0000126230Y0000099500I-0000000775J-0000001400D01*
G02X0000123030Y0000099500I-0000001600J0D01*
G02X0000123855Y0000100900I0000001600J0D01*
G03X0000123855Y0000101600I-0000000194J0000000350D01*
G37*
G36*
G01X0000119855Y0000101600D02*
G02X0000119030Y0000103000I0000000775J0000001400D01*
G02X0000122230Y0000103000I0000001600J0D01*
G02X0000121405Y0000101600I-0000001600J0D01*
G03X0000121405Y0000100900I0000000194J-0000000350D01*
G02X0000122230Y0000099500I-0000000775J-0000001400D01*
G02X0000119030Y0000099500I-0000001600J0D01*
G02X0000119855Y0000100900I0000001600J0D01*
G03X0000119855Y0000101600I-0000000194J0000000350D01*
G37*
G36*
G01X0000116648Y0000071330D02*
G03X0000117044Y0000071784I0J0000000400D01*
G02X0000117030Y0000072000I0000001586J0000000216D01*
G02X0000118630Y0000073600I0000001600J0D01*
G02X0000119839Y0000073048I0J-0000001600D01*
G03X0000120462Y0000073071I0000000302J0000000262D01*
G02X0000121744Y0000073714I0000001283J-0000000957D01*
G02X0000123344Y0000072114I0J-0000001600D01*
G02X0000123315Y0000071807I-0000001600J0D01*
G03X0000123707Y0000071330I0000000393J-0000000077D01*
G01X0000126646Y0000071330D01*
G02X0000127646Y0000070330I0J-0000001000D01*
G01X0000127646Y0000069174D01*
X0000129056Y0000069174D01*
G02X0000129056Y0000065974I0J-0000001600D01*
G01X0000127646Y0000065974D01*
X0000127646Y0000064818D01*
G02X0000126646Y0000063818I-0000001000J0D01*
G01X0000125687Y0000063818D01*
X0000125687Y0000063043D01*
G02X0000122486Y0000063043I-0000001600J0D01*
G01X0000122486Y0000063818D01*
X0000121528Y0000063818D01*
G02X0000120527Y0000064818I0J0000001000D01*
G01X0000120527Y0000065590D01*
X0000116646Y0000065590D01*
G02X0000115646Y0000066590I0J0000001000D01*
G01X0000115646Y0000070330D01*
G02X0000116646Y0000071330I0000001000J0D01*
G01X0000116648Y0000071330D01*
G37*
G36*
G01X0000098086Y0000069174D02*
X0000098086Y0000070330D01*
G02X0000099087Y0000071330I0000001000J0D01*
G01X0000104205Y0000071330D01*
G02X0000105205Y0000070330I0J-0000001000D01*
G01X0000105205Y0000064818D01*
G02X0000104205Y0000063818I-0000001000J0D01*
G01X0000103246Y0000063818D01*
X0000103246Y0000063016D01*
G02X0000100046Y0000063016I-0000001600J0D01*
G01X0000100046Y0000063818D01*
X0000099087Y0000063818D01*
G02X0000098086Y0000064818I0J0000001000D01*
G01X0000098086Y0000065974D01*
X0000097204Y0000065974D01*
G02X0000097204Y0000069174I0J0000001600D01*
G01X0000098086Y0000069174D01*
G37*
G54D43*
X0000037880Y0000110500D03*
G54D47*
X0000030630Y0000410000D03*
X0000320630Y0000030000D03*
X0000055300Y0000040000D03*
G54D48*
X0000273228Y0000351575D03*
G54D49*
X0000273228Y0000109055D03*
G54D40*
X0000081130Y0000011500D03*
G54D42*
X0000019380Y0000278500D03*
G54D38*
X0000132880Y0000015500D03*
G54D39*
X0000127880Y0000015500D03*
X0000075880Y0000011500D03*
G54D41*
X0000019380Y0000255750D03*
G54D44*
X0000069630Y0000153500D03*
X0000074630Y0000153500D03*
X0000053130Y0000334500D03*
X0000056630Y0000350500D03*
X0000069630Y0000158000D03*
X0000156630Y0000063000D03*
X0000166630Y0000291000D03*
X0000074630Y0000158000D03*
X0000199130Y0000254500D03*
X0000166630Y0000279500D03*
X0000194130Y0000254500D03*
X0000157130Y0000338386D03*
X0000194130Y0000266000D03*
X0000189567Y0000271063D03*
X0000157331Y0000331299D03*
X0000194630Y0000280500D03*
X0000205130Y0000254500D03*
X0000157130Y0000352559D03*
X0000144630Y0000324213D03*
X0000189630Y0000337205D03*
X0000189559Y0000341929D03*
X0000161630Y0000338500D03*
X0000157630Y0000238000D03*
X0000175130Y0000265000D03*
X0000157130Y0000345472D03*
X0000157630Y0000279331D03*
X0000157683Y0000274553D03*
X0000189630Y0000266339D03*
X0000144630Y0000358000D03*
X0000194130Y0000261500D03*
X0000162130Y0000263000D03*
X0000162130Y0000274500D03*
X0000325130Y0000159500D03*
X0000194130Y0000275500D03*
X0000208630Y0000396500D03*
X0000140130Y0000324000D03*
X0000162130Y0000284500D03*
X0000095630Y0000337000D03*
X0000162130Y0000269500D03*
X0000067744Y0000348886D03*
X0000091630Y0000401500D03*
X0000194130Y0000342000D03*
X0000102044Y0000337086D03*
X0000166630Y0000284500D03*
X0000101130Y0000361500D03*
X0000140130Y0000358000D03*
X0000085630Y0000372693D03*
X0000073630Y0000378500D03*
X0000053130Y0000325000D03*
X0000090630Y0000365000D03*
X0000144630Y0000362500D03*
X0000140130Y0000362500D03*
X0000193630Y0000332500D03*
X0000090630Y0000372500D03*
X0000189618Y0000280512D03*
X0000038630Y0000315000D03*
X0000105630Y0000361500D03*
X0000093130Y0000328000D03*
X0000161630Y0000331500D03*
X0000070130Y0000132000D03*
X0000208630Y0000390500D03*
X0000161630Y0000345500D03*
X0000098630Y0000328000D03*
X0000157630Y0000258071D03*
X0000063130Y0000088500D03*
X0000238630Y0000081114D03*
X0000090790Y0000188340D03*
X0000090630Y0000193000D03*
X0000063130Y0000079000D03*
X0000279016Y0000012114D03*
X0000144630Y0000328937D03*
X0000327130Y0000171000D03*
X0000309630Y0000289000D03*
X0000309630Y0000294500D03*
X0000314130Y0000294500D03*
X0000232687Y0000055557D03*
X0000232687Y0000050557D03*
X0000237630Y0000055500D03*
X0000237630Y0000050500D03*
X0000285130Y0000026000D03*
X0000285630Y0000037500D03*
X0000276380Y0000323250D03*
X0000194630Y0000410500D03*
X0000278630Y0000045500D03*
X0000123630Y0000184000D03*
X0000310630Y0000268685D03*
X0000309630Y0000300000D03*
X0000314130Y0000300000D03*
X0000292744Y0000045500D03*
X0000314130Y0000289000D03*
X0000276630Y0000327500D03*
X0000275130Y0000070614D03*
X0000162130Y0000258000D03*
X0000106744Y0000212886D03*
X0000108130Y0000136500D03*
X0000161130Y0000142000D03*
X0000104130Y0000097500D03*
X0000083130Y0000108000D03*
X0000094130Y0000108000D03*
X0000090130Y0000112000D03*
X0000090130Y0000108000D03*
X0000109630Y0000076000D03*
X0000113130Y0000117500D03*
X0000086630Y0000110000D03*
X0000094130Y0000102500D03*
X0000113130Y0000113000D03*
X0000083130Y0000112000D03*
X0000098630Y0000076000D03*
X0000099130Y0000097500D03*
X0000098630Y0000086500D03*
X0000120630Y0000095000D03*
X0000120630Y0000090500D03*
X0000120630Y0000118000D03*
X0000227630Y0000019000D03*
X0000233130Y0000019000D03*
X0000227630Y0000023000D03*
X0000233130Y0000023000D03*
G54D45*
X0000048000Y0000200389D03*
G54D50*
X0000009500Y0000401843D03*
G54D51*
X0000009500Y0000382158D03*
G54D46*
X0000166929Y0000361811D03*
%LPD*%
G75*
G36*
G01X0000025130Y0000096500D02*
X0000025130Y0000101000D01*
X0000025630Y0000101500D01*
X0000049630Y0000101500D01*
X0000050130Y0000101000D01*
X0000050130Y0000096500D01*
X0000049630Y0000096000D01*
X0000025630Y0000096000D01*
X0000025130Y0000096500D01*
G37*
G36*
G01X0000027130Y0000277000D02*
X0000037630Y0000277000D01*
X0000038130Y0000276500D01*
X0000038130Y0000272500D01*
X0000037630Y0000272000D01*
X0000035630Y0000272000D01*
X0000034630Y0000271000D01*
X0000034630Y0000260500D01*
X0000034130Y0000260000D01*
X0000020130Y0000260000D01*
X0000019630Y0000260500D01*
X0000019630Y0000263000D01*
X0000019955Y0000263325D01*
X0000024138Y0000263325D01*
G03X0000024658Y0000263471I0J0000001000D01*
G01X0000024706Y0000263500D01*
X0000028630Y0000263500D01*
X0000029130Y0000264000D01*
X0000029130Y0000271500D01*
X0000028630Y0000272000D01*
X0000024328Y0000272000D01*
X0000024311Y0000272003D01*
G03X0000024138Y0000272018I-0000000173J-0000000985D01*
G01X0000020112Y0000272018D01*
X0000019630Y0000272500D01*
X0000019630Y0000275000D01*
X0000020130Y0000275500D01*
X0000025630Y0000275500D01*
X0000027130Y0000277000D01*
G37*
G36*
G01X0000021130Y0000390000D02*
X0000053630Y0000390000D01*
X0000080630Y0000363000D01*
X0000080630Y0000325000D01*
X0000086130Y0000319500D01*
X0000278630Y0000319500D01*
X0000279130Y0000319000D01*
X0000279130Y0000307500D01*
X0000278630Y0000307000D01*
X0000133630Y0000307000D01*
X0000129130Y0000302500D01*
X0000129130Y0000236500D01*
X0000127130Y0000234500D01*
X0000114130Y0000234500D01*
X0000109630Y0000230000D01*
X0000082130Y0000230000D01*
X0000078630Y0000233500D01*
X0000078630Y0000246000D01*
X0000076130Y0000248500D01*
X0000076130Y0000361500D01*
X0000053130Y0000384500D01*
X0000021130Y0000384500D01*
X0000020630Y0000385000D01*
X0000020630Y0000389500D01*
X0000021130Y0000390000D01*
G37*
G36*
G01X0000075130Y0000164000D02*
X0000061630Y0000164000D01*
X0000060630Y0000165000D01*
X0000060630Y0000178500D01*
X0000061630Y0000179500D01*
X0000075130Y0000179500D01*
X0000076130Y0000178500D01*
X0000076130Y0000165000D01*
X0000075130Y0000164000D01*
G37*
G36*
G01X0000056630Y0000342000D02*
X0000055130Y0000343500D01*
X0000055130Y0000346500D01*
X0000055630Y0000347000D01*
X0000063130Y0000347000D01*
X0000064630Y0000345500D01*
X0000064630Y0000233000D01*
X0000088630Y0000209000D01*
X0000116130Y0000209000D01*
X0000120130Y0000205000D01*
X0000120130Y0000145500D01*
X0000131630Y0000134000D01*
X0000142130Y0000134000D01*
X0000143630Y0000132500D01*
X0000143630Y0000126500D01*
X0000142630Y0000125500D01*
X0000124630Y0000125500D01*
X0000110630Y0000139500D01*
X0000110630Y0000198000D01*
X0000108630Y0000200000D01*
X0000082630Y0000200000D01*
X0000056630Y0000226000D01*
X0000056630Y0000342000D01*
G37*
G36*
G01X0000108630Y0000033000D02*
X0000111130Y0000033000D01*
X0000112130Y0000032000D01*
X0000112130Y0000028587D01*
G03X0000111709Y0000027771I0000000579J-0000000816D01*
G01X0000111709Y0000021866D01*
G03X0000112130Y0000021050I0000001000J0D01*
G01X0000112130Y0000015500D01*
X0000111630Y0000015000D01*
X0000108630Y0000015000D01*
X0000108130Y0000015500D01*
X0000108130Y0000021504D01*
X0000108141Y0000021536D01*
G03X0000108197Y0000021866I-0000000944J0000000329D01*
G01X0000108197Y0000027771D01*
G03X0000108141Y0000028101I-0000001000J0D01*
G01X0000108130Y0000028133D01*
X0000108130Y0000032500D01*
X0000108630Y0000033000D01*
G37*
G36*
G01X0000151130Y0000115000D02*
X0000153630Y0000117500D01*
X0000193130Y0000117500D01*
X0000286630Y0000211000D01*
X0000286630Y0000263000D01*
X0000287630Y0000264000D01*
X0000323630Y0000264000D01*
X0000324630Y0000263000D01*
X0000324630Y0000183000D01*
X0000209130Y0000067500D01*
X0000152630Y0000067500D01*
X0000151130Y0000069000D01*
X0000151130Y0000115000D01*
G37*
%LPC*%
G75*
G36*
G01X0000094071Y0000299200D02*
G03X0000094071Y0000299800I-0000000265J0000000300D01*
G02X0000093530Y0000301000I0000001059J0000001200D01*
G02X0000096730Y0000301000I0000001600J0D01*
G02X0000096189Y0000299800I-0000001600J0D01*
G03X0000096189Y0000299200I0000000265J-0000000300D01*
G02X0000096730Y0000298000I-0000001059J-0000001200D01*
G02X0000093530Y0000298000I-0000001600J0D01*
G02X0000094071Y0000299200I0000001600J0D01*
G37*
G36*
G01X0000175855Y0000077100D02*
G02X0000175030Y0000078500I0000000775J0000001400D01*
G02X0000178230Y0000078500I0000001600J0D01*
G02X0000177405Y0000077100I-0000001600J0D01*
G03X0000177405Y0000076400I0000000194J-0000000350D01*
G02X0000178230Y0000075000I-0000000775J-0000001400D01*
G02X0000175030Y0000075000I-0000001600J0D01*
G02X0000175855Y0000076400I0000001600J0D01*
G03X0000175855Y0000077100I-0000000194J0000000350D01*
G37*
G36*
G01X0000164530Y0000070225D02*
G02X0000163130Y0000069400I-0000001400J0000000775D01*
G02X0000163130Y0000072600I0J0000001600D01*
G02X0000164530Y0000071775I0J-0000001600D01*
G03X0000165230Y0000071775I0000000350J0000000194D01*
G02X0000166630Y0000072600I0000001400J-0000000775D01*
G02X0000166630Y0000069400I0J-0000001600D01*
G02X0000165230Y0000070225I0J0000001600D01*
G03X0000164530Y0000070225I-0000000350J-0000000194D01*
G37*
G54D44*
X0000084130Y0000240000D03*
X0000084130Y0000258000D03*
X0000100785Y0000238500D03*
X0000089130Y0000281500D03*
X0000084130Y0000269500D03*
X0000093108Y0000236000D03*
X0000119389Y0000290241D03*
X0000101496Y0000286866D03*
X0000124516Y0000264114D03*
X0000119130Y0000275500D03*
X0000194130Y0000316000D03*
X0000093130Y0000281500D03*
X0000104016Y0000278500D03*
X0000090549Y0000238581D03*
X0000114630Y0000294500D03*
X0000095667Y0000238537D03*
X0000157032Y0000312402D03*
X0000089630Y0000301500D03*
X0000194630Y0000311000D03*
X0000189630Y0000315945D03*
X0000189909Y0000311221D03*
X0000140130Y0000317126D03*
X0000126130Y0000297114D03*
X0000126130Y0000306386D03*
X0000090549Y0000271419D03*
X0000164130Y0000312500D03*
X0000093130Y0000285500D03*
X0000220630Y0000315000D03*
X0000250630Y0000315000D03*
X0000240630Y0000315000D03*
X0000230630Y0000315000D03*
X0000260630Y0000315000D03*
X0000075130Y0000217500D03*
X0000060630Y0000225500D03*
X0000243630Y0000109500D03*
X0000235630Y0000109000D03*
X0000169630Y0000110000D03*
X0000163630Y0000110000D03*
X0000289945Y0000250185D03*
X0000290130Y0000219500D03*
X0000182630Y0000071000D03*
X0000174130Y0000087000D03*
X0000290130Y0000239185D03*
X0000307130Y0000232185D03*
X0000307130Y0000248000D03*
X0000307130Y0000240185D03*
X0000307315Y0000256185D03*
X0000290130Y0000261185D03*
X0000290130Y0000232500D03*
X0000187630Y0000071000D03*
X0000176630Y0000071000D03*
X0000178630Y0000087000D03*
X0000158130Y0000110000D03*
X0000176030Y0000110200D03*
X0000307130Y0000225000D03*
X0000235630Y0000100000D03*
X0000243630Y0000118000D03*
X0000252630Y0000118500D03*
G54D52*
X0000166929Y0000098819D03*
%LPD*%
G75*
G54D10*
X0000015748Y0000015748D03*
X0000015748Y0000437008D03*
X0000166929Y0000098819D03*
X0000338619Y0000015748D03*
X0000338619Y0000437008D03*
G54D20*
X0000021776Y0000269640D03*
X0000021776Y0000265703D03*
G54D11*
X0000005630Y0000035000D03*
X0000005630Y0000055000D03*
X0000005630Y0000075000D03*
X0000005630Y0000065000D03*
X0000005630Y0000095000D03*
X0000005630Y0000085000D03*
X0000005630Y0000113500D03*
X0000005630Y0000105000D03*
X0000005630Y0000125000D03*
X0000005630Y0000145000D03*
X0000005630Y0000135000D03*
X0000005630Y0000155000D03*
X0000009630Y0000218000D03*
X0000004130Y0000218000D03*
X0000005630Y0000235000D03*
X0000005630Y0000225000D03*
X0000005630Y0000245000D03*
X0000005630Y0000270000D03*
X0000005630Y0000260000D03*
X0000005630Y0000280000D03*
X0000005630Y0000305000D03*
X0000005630Y0000295000D03*
X0000005630Y0000315000D03*
X0000005630Y0000340000D03*
X0000005630Y0000330000D03*
X0000012630Y0000330000D03*
X0000012630Y0000339784D03*
X0000012630Y0000336784D03*
X0000012630Y0000333000D03*
X0000005630Y0000355000D03*
X0000005630Y0000375000D03*
X0000005630Y0000365000D03*
X0000005630Y0000395000D03*
X0000005630Y0000385000D03*
X0000005630Y0000415000D03*
X0000005630Y0000425000D03*
X0000025630Y0000045000D03*
X0000025630Y0000035000D03*
X0000015630Y0000035000D03*
X0000015630Y0000055000D03*
X0000025630Y0000055000D03*
X0000025630Y0000075000D03*
X0000015630Y0000075000D03*
X0000025630Y0000065000D03*
X0000015630Y0000065000D03*
X0000026630Y0000097000D03*
X0000015630Y0000095000D03*
X0000015630Y0000085000D03*
X0000025630Y0000085000D03*
X0000026630Y0000100000D03*
X0000025630Y0000113500D03*
X0000015630Y0000113500D03*
X0000015630Y0000105000D03*
X0000025630Y0000105000D03*
X0000025630Y0000125000D03*
X0000015630Y0000125000D03*
X0000025630Y0000145000D03*
X0000015630Y0000145000D03*
X0000015630Y0000135000D03*
X0000025630Y0000135000D03*
X0000025630Y0000155000D03*
X0000026130Y0000217500D03*
X0000025630Y0000235000D03*
X0000015630Y0000235000D03*
X0000025630Y0000225000D03*
X0000015630Y0000225000D03*
X0000015630Y0000245000D03*
X0000025630Y0000245000D03*
X0000025630Y0000255000D03*
X0000015630Y0000270000D03*
X0000015630Y0000260000D03*
X0000028630Y0000274000D03*
X0000032130Y0000274000D03*
X0000026427Y0000265703D03*
X0000026490Y0000269640D03*
X0000015630Y0000280000D03*
X0000025630Y0000305000D03*
X0000015630Y0000305000D03*
X0000015630Y0000295000D03*
X0000025630Y0000295000D03*
X0000016130Y0000328500D03*
X0000015630Y0000315000D03*
X0000025630Y0000315000D03*
X0000018130Y0000326500D03*
X0000031630Y0000326500D03*
X0000032130Y0000331000D03*
X0000031130Y0000344000D03*
X0000015630Y0000334500D03*
X0000031130Y0000337000D03*
X0000017630Y0000340500D03*
X0000028741Y0000342889D03*
X0000015630Y0000355000D03*
X0000025630Y0000355000D03*
X0000015630Y0000375000D03*
X0000025630Y0000375000D03*
X0000025630Y0000365000D03*
X0000015630Y0000365000D03*
X0000026130Y0000381500D03*
X0000015630Y0000395000D03*
X0000015630Y0000385000D03*
X0000026130Y0000385614D03*
X0000022130Y0000389000D03*
X0000025630Y0000405000D03*
X0000025630Y0000415000D03*
X0000015630Y0000405000D03*
X0000015630Y0000415000D03*
X0000025630Y0000425000D03*
X0000035630Y0000005000D03*
X0000045630Y0000005000D03*
X0000035630Y0000025000D03*
X0000045630Y0000025000D03*
X0000035630Y0000015000D03*
X0000045630Y0000015000D03*
X0000035630Y0000045000D03*
X0000035630Y0000035000D03*
X0000045630Y0000035000D03*
X0000048630Y0000058894D03*
X0000048630Y0000078579D03*
X0000048630Y0000068736D03*
X0000048630Y0000097000D03*
X0000048630Y0000088500D03*
X0000048630Y0000100000D03*
X0000048630Y0000105000D03*
X0000048630Y0000110000D03*
X0000048630Y0000116000D03*
X0000048630Y0000123000D03*
X0000035630Y0000145000D03*
X0000035630Y0000155000D03*
X0000040630Y0000185000D03*
X0000040630Y0000175000D03*
X0000040630Y0000205000D03*
X0000040630Y0000195000D03*
X0000040630Y0000220000D03*
X0000035630Y0000235000D03*
X0000035630Y0000225000D03*
X0000040630Y0000230000D03*
X0000035630Y0000240000D03*
X0000040630Y0000235000D03*
X0000035630Y0000230000D03*
X0000035630Y0000245000D03*
X0000035630Y0000255000D03*
X0000047630Y0000251500D03*
X0000047630Y0000255500D03*
X0000037130Y0000265000D03*
X0000037130Y0000270000D03*
X0000037130Y0000274000D03*
X0000035630Y0000285000D03*
X0000035630Y0000295000D03*
X0000047630Y0000310500D03*
X0000040130Y0000328500D03*
X0000038630Y0000315000D03*
X0000047630Y0000315000D03*
X0000033630Y0000328500D03*
X0000034130Y0000324000D03*
X0000041630Y0000346500D03*
X0000048099Y0000346000D03*
X0000040130Y0000334500D03*
X0000037130Y0000330500D03*
X0000037130Y0000333500D03*
X0000033630Y0000339500D03*
X0000033630Y0000342500D03*
X0000035630Y0000355000D03*
X0000041630Y0000355000D03*
X0000035630Y0000365000D03*
X0000035630Y0000375000D03*
X0000033130Y0000381000D03*
X0000040630Y0000381000D03*
X0000041130Y0000372000D03*
X0000041630Y0000365000D03*
X0000045630Y0000405000D03*
X0000045630Y0000415000D03*
X0000035630Y0000405000D03*
X0000035630Y0000415000D03*
X0000045130Y0000425000D03*
X0000035130Y0000425000D03*
X0000055630Y0000005000D03*
X0000065630Y0000005000D03*
X0000055630Y0000025000D03*
X0000055630Y0000015000D03*
X0000065630Y0000015000D03*
X0000065630Y0000045000D03*
X0000065630Y0000055000D03*
X0000055630Y0000055000D03*
X0000060630Y0000060000D03*
X0000063130Y0000079000D03*
X0000066630Y0000072500D03*
X0000066630Y0000076500D03*
X0000060630Y0000070000D03*
X0000063130Y0000088500D03*
X0000066630Y0000095000D03*
X0000066630Y0000090000D03*
X0000066630Y0000104000D03*
X0000066630Y0000099000D03*
X0000067630Y0000112000D03*
X0000067630Y0000117500D03*
X0000062130Y0000178000D03*
X0000065130Y0000178000D03*
X0000061750Y0000195880D03*
X0000064750Y0000195880D03*
X0000050630Y0000220000D03*
X0000060630Y0000225500D03*
X0000051130Y0000251500D03*
X0000051130Y0000255500D03*
X0000051630Y0000310500D03*
X0000053130Y0000325000D03*
X0000067630Y0000327000D03*
X0000051630Y0000315000D03*
X0000053130Y0000334500D03*
X0000056630Y0000346000D03*
X0000067744Y0000348886D03*
X0000067744Y0000352114D03*
X0000057630Y0000359000D03*
X0000061130Y0000364000D03*
X0000064130Y0000359000D03*
X0000056630Y0000350500D03*
X0000067630Y0000379992D03*
X0000057630Y0000376500D03*
X0000057630Y0000368000D03*
X0000061130Y0000372000D03*
X0000064130Y0000368000D03*
X0000067630Y0000384000D03*
X0000065630Y0000405000D03*
X0000065630Y0000415000D03*
X0000055630Y0000405000D03*
X0000055630Y0000415000D03*
X0000065130Y0000425000D03*
X0000055130Y0000425000D03*
X0000075630Y0000005000D03*
X0000070630Y0000010000D03*
X0000070630Y0000005000D03*
X0000085630Y0000025000D03*
X0000085630Y0000035000D03*
X0000075630Y0000035000D03*
X0000075630Y0000045000D03*
X0000085630Y0000045000D03*
X0000075630Y0000055000D03*
X0000085630Y0000055000D03*
X0000071130Y0000076500D03*
X0000071130Y0000072500D03*
X0000075630Y0000072500D03*
X0000075630Y0000076500D03*
X0000073130Y0000095000D03*
X0000073130Y0000099000D03*
X0000083130Y0000112000D03*
X0000083130Y0000108000D03*
X0000075130Y0000112000D03*
X0000070130Y0000132000D03*
X0000070130Y0000126500D03*
X0000074630Y0000117500D03*
X0000069630Y0000165500D03*
X0000074630Y0000165500D03*
X0000069630Y0000158000D03*
X0000074630Y0000158000D03*
X0000069630Y0000153500D03*
X0000074630Y0000153500D03*
X0000070630Y0000183000D03*
X0000069630Y0000170000D03*
X0000074630Y0000170000D03*
X0000083744Y0000192886D03*
X0000075130Y0000217500D03*
X0000084130Y0000240000D03*
X0000084130Y0000236000D03*
X0000084130Y0000232000D03*
X0000074630Y0000239500D03*
X0000084130Y0000258000D03*
X0000074630Y0000243000D03*
X0000084130Y0000269500D03*
X0000077744Y0000274386D03*
X0000069130Y0000292000D03*
X0000083130Y0000284500D03*
X0000079638Y0000280992D03*
X0000073630Y0000302500D03*
X0000069130Y0000298500D03*
X0000073630Y0000311500D03*
X0000073630Y0000319500D03*
X0000073630Y0000327000D03*
X0000068130Y0000319500D03*
X0000083630Y0000337000D03*
X0000069130Y0000359000D03*
X0000069130Y0000364000D03*
X0000085630Y0000361000D03*
X0000085630Y0000357500D03*
X0000073630Y0000378500D03*
X0000085630Y0000365000D03*
X0000085630Y0000372693D03*
X0000085630Y0000405000D03*
X0000085630Y0000415000D03*
X0000075630Y0000405000D03*
X0000075630Y0000415000D03*
X0000085130Y0000425000D03*
X0000075130Y0000425000D03*
X0000102130Y0000018500D03*
X0000102130Y0000014500D03*
X0000096630Y0000016000D03*
X0000090630Y0000020000D03*
X0000095630Y0000045000D03*
X0000091630Y0000029500D03*
X0000095130Y0000038000D03*
X0000096961Y0000032000D03*
X0000101291Y0000032000D03*
X0000101646Y0000063016D03*
X0000097204Y0000067574D03*
X0000098630Y0000076000D03*
X0000098630Y0000086500D03*
X0000099130Y0000097500D03*
X0000086630Y0000110000D03*
X0000090130Y0000112000D03*
X0000090130Y0000108000D03*
X0000094130Y0000108000D03*
X0000094130Y0000102500D03*
X0000099630Y0000122500D03*
X0000099630Y0000117500D03*
X0000091130Y0000155500D03*
X0000093630Y0000158000D03*
X0000101630Y0000193000D03*
X0000101630Y0000197500D03*
X0000101630Y0000189000D03*
X0000097930Y0000189000D03*
X0000097930Y0000193000D03*
X0000097930Y0000197500D03*
X0000090790Y0000188340D03*
X0000090630Y0000193000D03*
X0000093130Y0000222500D03*
X0000097630Y0000222500D03*
X0000102630Y0000222500D03*
X0000095667Y0000238537D03*
X0000093108Y0000236000D03*
X0000090549Y0000238581D03*
X0000102630Y0000226500D03*
X0000100785Y0000238500D03*
X0000087630Y0000236000D03*
X0000090549Y0000271419D03*
X0000093130Y0000285500D03*
X0000101496Y0000286866D03*
X0000093130Y0000281500D03*
X0000089130Y0000281500D03*
X0000099130Y0000281500D03*
X0000095130Y0000298000D03*
X0000095130Y0000301000D03*
X0000089630Y0000301500D03*
X0000098567Y0000323437D03*
X0000098630Y0000328000D03*
X0000093130Y0000328000D03*
X0000095630Y0000337000D03*
X0000102044Y0000337086D03*
X0000101130Y0000361500D03*
X0000090630Y0000365000D03*
X0000090630Y0000372500D03*
X0000091630Y0000401500D03*
X0000087630Y0000401500D03*
X0000095630Y0000405000D03*
X0000095630Y0000415000D03*
X0000095130Y0000425000D03*
X0000110130Y0000019500D03*
X0000110130Y0000016500D03*
X0000117630Y0000018500D03*
X0000117630Y0000014500D03*
X0000110130Y0000032000D03*
X0000110130Y0000028500D03*
X0000114130Y0000032000D03*
X0000117130Y0000029500D03*
X0000120130Y0000029500D03*
X0000105622Y0000032000D03*
X0000117130Y0000056500D03*
X0000117130Y0000052500D03*
X0000109630Y0000076000D03*
X0000118630Y0000072000D03*
X0000120630Y0000090500D03*
X0000120630Y0000095000D03*
X0000104130Y0000097500D03*
X0000104130Y0000086500D03*
X0000120630Y0000103000D03*
X0000120630Y0000099500D03*
X0000119130Y0000111500D03*
X0000120630Y0000108500D03*
X0000104130Y0000102000D03*
X0000104130Y0000105500D03*
X0000113130Y0000113000D03*
X0000104130Y0000113000D03*
X0000108630Y0000113000D03*
X0000120630Y0000118000D03*
X0000120630Y0000123000D03*
X0000104130Y0000122500D03*
X0000108630Y0000122500D03*
X0000108630Y0000126500D03*
X0000108630Y0000131000D03*
X0000113130Y0000126500D03*
X0000113130Y0000122500D03*
X0000113130Y0000117500D03*
X0000104130Y0000117500D03*
X0000108630Y0000117500D03*
X0000108130Y0000136500D03*
X0000103630Y0000178500D03*
X0000105630Y0000180000D03*
X0000105630Y0000175000D03*
X0000106130Y0000189000D03*
X0000106130Y0000193000D03*
X0000106130Y0000197500D03*
X0000106744Y0000212886D03*
X0000103516Y0000212886D03*
X0000119130Y0000215500D03*
X0000119130Y0000219000D03*
X0000113630Y0000221500D03*
X0000116630Y0000227000D03*
X0000116630Y0000231000D03*
X0000119130Y0000275500D03*
X0000119389Y0000290241D03*
X0000104016Y0000278500D03*
X0000114630Y0000294500D03*
X0000112673Y0000337000D03*
X0000119760Y0000337000D03*
X0000120630Y0000330000D03*
X0000105630Y0000361500D03*
X0000119630Y0000354000D03*
X0000118630Y0000361500D03*
X0000113130Y0000350000D03*
X0000113130Y0000354000D03*
X0000113130Y0000361500D03*
X0000117630Y0000350500D03*
X0000111630Y0000382000D03*
X0000115630Y0000382000D03*
X0000120130Y0000382000D03*
X0000120630Y0000410000D03*
X0000120630Y0000405000D03*
X0000105630Y0000405000D03*
X0000105630Y0000415000D03*
X0000120630Y0000400500D03*
X0000111630Y0000400500D03*
X0000109630Y0000405000D03*
X0000111630Y0000409000D03*
X0000111630Y0000414500D03*
X0000120630Y0000415000D03*
X0000120630Y0000420000D03*
X0000111630Y0000422500D03*
X0000105130Y0000425000D03*
X0000135130Y0000018500D03*
X0000135130Y0000014500D03*
X0000131630Y0000028000D03*
X0000124130Y0000018500D03*
X0000124130Y0000014500D03*
X0000135130Y0000023500D03*
X0000127276Y0000030000D03*
X0000122945Y0000030000D03*
X0000124087Y0000063043D03*
X0000121130Y0000056500D03*
X0000121130Y0000052500D03*
X0000125130Y0000056500D03*
X0000125130Y0000052500D03*
X0000121744Y0000072114D03*
X0000129056Y0000067574D03*
X0000121630Y0000082500D03*
X0000124630Y0000082500D03*
X0000121630Y0000085500D03*
X0000124630Y0000085500D03*
X0000138130Y0000105000D03*
X0000138130Y0000101500D03*
X0000124630Y0000103000D03*
X0000124630Y0000099500D03*
X0000138130Y0000131000D03*
X0000138130Y0000127500D03*
X0000130630Y0000165000D03*
X0000125630Y0000165000D03*
X0000123630Y0000184000D03*
X0000130630Y0000170000D03*
X0000123630Y0000192700D03*
X0000123630Y0000202700D03*
X0000123630Y0000197700D03*
X0000123630Y0000188500D03*
X0000126630Y0000201000D03*
X0000126630Y0000204000D03*
X0000126630Y0000195500D03*
X0000126630Y0000192500D03*
X0000122726Y0000211046D03*
X0000122630Y0000219500D03*
X0000122630Y0000216500D03*
X0000126226Y0000212546D03*
X0000126226Y0000209546D03*
X0000121130Y0000227000D03*
X0000121130Y0000231000D03*
X0000124516Y0000252886D03*
X0000124516Y0000264114D03*
X0000126130Y0000297114D03*
X0000126130Y0000306386D03*
X0000125630Y0000325000D03*
X0000130630Y0000345000D03*
X0000130630Y0000340000D03*
X0000135630Y0000335000D03*
X0000130630Y0000335000D03*
X0000125630Y0000330000D03*
X0000138130Y0000343500D03*
X0000130130Y0000354976D03*
X0000130630Y0000350000D03*
X0000130130Y0000362000D03*
X0000136130Y0000351000D03*
X0000130630Y0000415000D03*
X0000130630Y0000405000D03*
X0000130630Y0000425000D03*
X0000140130Y0000014500D03*
X0000145130Y0000014500D03*
X0000140130Y0000018500D03*
X0000152630Y0000074500D03*
X0000152630Y0000078500D03*
X0000152630Y0000070500D03*
X0000141630Y0000105000D03*
X0000141630Y0000101500D03*
X0000142130Y0000127500D03*
X0000142130Y0000131000D03*
X0000140630Y0000160000D03*
X0000140630Y0000170000D03*
X0000139630Y0000303000D03*
X0000139630Y0000300500D03*
X0000140130Y0000317126D03*
X0000140130Y0000324000D03*
X0000144630Y0000324213D03*
X0000144630Y0000328937D03*
X0000144969Y0000333661D03*
X0000144882Y0000340748D03*
X0000140630Y0000330000D03*
X0000140630Y0000338500D03*
X0000144795Y0000347835D03*
X0000144709Y0000354921D03*
X0000144630Y0000358000D03*
X0000144630Y0000362500D03*
X0000140130Y0000358000D03*
X0000140130Y0000362500D03*
X0000150630Y0000385000D03*
X0000140630Y0000415000D03*
X0000150630Y0000415000D03*
X0000140630Y0000405000D03*
X0000150630Y0000405000D03*
X0000140630Y0000425000D03*
X0000150630Y0000425000D03*
X0000156630Y0000063000D03*
X0000156630Y0000078500D03*
X0000156630Y0000074500D03*
X0000156630Y0000070500D03*
X0000166630Y0000071000D03*
X0000163130Y0000071000D03*
X0000174130Y0000087000D03*
X0000158130Y0000110000D03*
X0000169630Y0000110000D03*
X0000163630Y0000110000D03*
X0000157130Y0000121063D03*
X0000157030Y0000129300D03*
X0000161130Y0000142000D03*
X0000158130Y0000149409D03*
X0000157130Y0000142323D03*
X0000162130Y0000149500D03*
X0000165630Y0000145000D03*
X0000165630Y0000140000D03*
X0000170630Y0000140000D03*
X0000170630Y0000145000D03*
X0000170630Y0000149500D03*
X0000165630Y0000151500D03*
X0000157130Y0000137598D03*
X0000161130Y0000137500D03*
X0000158130Y0000163583D03*
X0000158130Y0000156496D03*
X0000168630Y0000163500D03*
X0000168630Y0000156500D03*
X0000165630Y0000165673D03*
X0000160630Y0000161500D03*
X0000165630Y0000168673D03*
X0000160630Y0000158500D03*
X0000165630Y0000154500D03*
X0000158130Y0000170669D03*
X0000158130Y0000177756D03*
X0000168630Y0000178000D03*
X0000168630Y0000170500D03*
X0000165302Y0000185172D03*
X0000172630Y0000185500D03*
X0000163130Y0000182846D03*
X0000160630Y0000172500D03*
X0000163130Y0000179846D03*
X0000160630Y0000175500D03*
X0000157130Y0000191929D03*
X0000157130Y0000199016D03*
X0000172630Y0000192500D03*
X0000157130Y0000206102D03*
X0000157354Y0000220276D03*
X0000157441Y0000213189D03*
X0000157630Y0000227362D03*
X0000157579Y0000234449D03*
X0000157630Y0000238000D03*
X0000157630Y0000247500D03*
X0000157630Y0000241000D03*
X0000157630Y0000255000D03*
X0000157630Y0000251000D03*
X0000157528Y0000243898D03*
X0000157630Y0000258071D03*
X0000162130Y0000258000D03*
X0000157630Y0000262795D03*
X0000157630Y0000269882D03*
X0000162130Y0000269500D03*
X0000162130Y0000263000D03*
X0000157683Y0000274553D03*
X0000162130Y0000274500D03*
X0000166630Y0000279500D03*
X0000166630Y0000284500D03*
X0000157630Y0000284500D03*
X0000157488Y0000291142D03*
X0000162130Y0000279500D03*
X0000157630Y0000279331D03*
X0000162130Y0000284500D03*
X0000166630Y0000291000D03*
X0000157032Y0000312402D03*
X0000157130Y0000321500D03*
X0000157130Y0000326000D03*
X0000164130Y0000312500D03*
X0000157130Y0000338386D03*
X0000161630Y0000331500D03*
X0000170630Y0000330000D03*
X0000170630Y0000340000D03*
X0000157331Y0000331299D03*
X0000161630Y0000345500D03*
X0000157130Y0000345472D03*
X0000161630Y0000338500D03*
X0000157130Y0000352559D03*
X0000164130Y0000385000D03*
X0000170630Y0000390000D03*
X0000160630Y0000415000D03*
X0000170630Y0000425000D03*
X0000160630Y0000425000D03*
X0000170630Y0000435000D03*
X0000181630Y0000032500D03*
X0000185630Y0000032500D03*
X0000190630Y0000032500D03*
X0000188130Y0000036500D03*
X0000183130Y0000062500D03*
X0000183130Y0000057500D03*
X0000188130Y0000057500D03*
X0000188130Y0000062500D03*
X0000188130Y0000052500D03*
X0000191630Y0000052500D03*
X0000176630Y0000071000D03*
X0000176630Y0000078500D03*
X0000187630Y0000071000D03*
X0000182630Y0000071000D03*
X0000176630Y0000075000D03*
X0000176630Y0000065500D03*
X0000178630Y0000087000D03*
X0000176030Y0000110200D03*
X0000177130Y0000128500D03*
X0000190130Y0000119500D03*
X0000189630Y0000127000D03*
X0000189228Y0000141142D03*
X0000189228Y0000148228D03*
X0000175630Y0000145000D03*
X0000175630Y0000140000D03*
X0000189630Y0000138000D03*
X0000175630Y0000149500D03*
X0000189032Y0000162402D03*
X0000189118Y0000169488D03*
X0000175630Y0000156500D03*
X0000175630Y0000163500D03*
X0000189130Y0000183661D03*
X0000189055Y0000176575D03*
X0000175630Y0000170500D03*
X0000175630Y0000178000D03*
X0000189228Y0000197835D03*
X0000189228Y0000204921D03*
X0000189228Y0000212008D03*
X0000189228Y0000219095D03*
X0000189228Y0000226181D03*
X0000189228Y0000233268D03*
X0000189630Y0000241000D03*
X0000189130Y0000254528D03*
X0000189071Y0000247441D03*
X0000189516Y0000261614D03*
X0000189567Y0000271063D03*
X0000189630Y0000266339D03*
X0000175130Y0000265000D03*
X0000189417Y0000275787D03*
X0000189591Y0000289961D03*
X0000189630Y0000284500D03*
X0000189618Y0000280512D03*
X0000189630Y0000315945D03*
X0000189909Y0000311221D03*
X0000189524Y0000325394D03*
X0000176386Y0000327756D03*
X0000189630Y0000337205D03*
X0000189610Y0000332480D03*
X0000177197Y0000339567D03*
X0000189559Y0000341929D03*
X0000176571Y0000331059D03*
X0000176976Y0000346654D03*
X0000190630Y0000380000D03*
X0000176630Y0000383500D03*
X0000180630Y0000383500D03*
X0000180630Y0000386500D03*
X0000176630Y0000386500D03*
X0000190630Y0000385000D03*
X0000185630Y0000390000D03*
X0000190630Y0000395000D03*
X0000180630Y0000400000D03*
X0000190630Y0000410000D03*
X0000190630Y0000435000D03*
X0000180630Y0000435000D03*
X0000202630Y0000019000D03*
X0000202630Y0000016500D03*
X0000206130Y0000019000D03*
X0000206130Y0000016500D03*
X0000205630Y0000028000D03*
X0000200630Y0000028000D03*
X0000195630Y0000028000D03*
X0000205630Y0000022500D03*
X0000195630Y0000032500D03*
X0000200630Y0000032500D03*
X0000205630Y0000032500D03*
X0000205630Y0000037500D03*
X0000195630Y0000056000D03*
X0000195630Y0000051000D03*
X0000194630Y0000127000D03*
X0000200630Y0000145000D03*
X0000205630Y0000140000D03*
X0000199630Y0000139000D03*
X0000198630Y0000149000D03*
X0000200630Y0000165000D03*
X0000200630Y0000155000D03*
X0000192630Y0000155000D03*
X0000200630Y0000185000D03*
X0000200630Y0000175000D03*
X0000202130Y0000200000D03*
X0000202130Y0000203000D03*
X0000208630Y0000203500D03*
X0000208630Y0000199500D03*
X0000200630Y0000195000D03*
X0000201704Y0000219500D03*
X0000201704Y0000215500D03*
X0000207704Y0000215500D03*
X0000207704Y0000219500D03*
X0000199130Y0000221000D03*
X0000199630Y0000213500D03*
X0000199130Y0000254500D03*
X0000205130Y0000254500D03*
X0000194130Y0000254500D03*
X0000202630Y0000241500D03*
X0000202630Y0000247500D03*
X0000194130Y0000261500D03*
X0000194130Y0000271000D03*
X0000194130Y0000275500D03*
X0000194130Y0000266000D03*
X0000194630Y0000280500D03*
X0000194630Y0000311000D03*
X0000195630Y0000295000D03*
X0000194130Y0000316000D03*
X0000194130Y0000342000D03*
X0000193630Y0000332500D03*
X0000200630Y0000365000D03*
X0000200630Y0000375000D03*
X0000208630Y0000396500D03*
X0000208630Y0000390500D03*
X0000200630Y0000385000D03*
X0000200630Y0000395000D03*
X0000194630Y0000410500D03*
X0000208630Y0000404500D03*
X0000198630Y0000410500D03*
X0000200630Y0000405000D03*
X0000207630Y0000422500D03*
X0000200630Y0000435000D03*
X0000210630Y0000019000D03*
X0000210630Y0000016500D03*
X0000210630Y0000028000D03*
X0000210630Y0000022500D03*
X0000210630Y0000044000D03*
X0000215630Y0000044000D03*
X0000210630Y0000037500D03*
X0000210630Y0000032500D03*
X0000210630Y0000047500D03*
X0000215630Y0000047500D03*
X0000210630Y0000057500D03*
X0000215630Y0000057500D03*
X0000220630Y0000057500D03*
X0000220630Y0000052500D03*
X0000215630Y0000052500D03*
X0000210630Y0000052500D03*
X0000210630Y0000145000D03*
X0000210630Y0000165000D03*
X0000220630Y0000165000D03*
X0000210630Y0000155000D03*
X0000220630Y0000155000D03*
X0000210630Y0000185000D03*
X0000220630Y0000185000D03*
X0000210630Y0000175000D03*
X0000220630Y0000175000D03*
X0000211630Y0000203352D03*
X0000210630Y0000195000D03*
X0000220630Y0000195000D03*
X0000211630Y0000199400D03*
X0000210704Y0000219352D03*
X0000210704Y0000215400D03*
X0000222630Y0000216048D03*
X0000225630Y0000215000D03*
X0000225630Y0000221000D03*
X0000222630Y0000220000D03*
X0000220630Y0000275000D03*
X0000220630Y0000265000D03*
X0000210630Y0000265000D03*
X0000220630Y0000285000D03*
X0000220630Y0000305000D03*
X0000220630Y0000295000D03*
X0000220630Y0000315000D03*
X0000220630Y0000330000D03*
X0000211630Y0000375000D03*
X0000220630Y0000375000D03*
X0000211630Y0000385000D03*
X0000220630Y0000385000D03*
X0000211630Y0000422500D03*
X0000220630Y0000435000D03*
X0000210630Y0000435000D03*
X0000235630Y0000007150D03*
X0000235630Y0000004000D03*
X0000231630Y0000004000D03*
X0000231630Y0000007150D03*
X0000227630Y0000004000D03*
X0000227630Y0000007150D03*
X0000241630Y0000007150D03*
X0000241630Y0000004000D03*
X0000227630Y0000019000D03*
X0000227630Y0000023000D03*
X0000233130Y0000023000D03*
X0000233130Y0000019000D03*
X0000227630Y0000029500D03*
X0000233130Y0000029500D03*
X0000233130Y0000045500D03*
X0000237630Y0000036000D03*
X0000233630Y0000036000D03*
X0000227630Y0000036000D03*
X0000227630Y0000042000D03*
X0000232687Y0000050557D03*
X0000232687Y0000055557D03*
X0000227630Y0000047500D03*
X0000227630Y0000052000D03*
X0000237630Y0000055500D03*
X0000237630Y0000050500D03*
X0000238630Y0000081114D03*
X0000235630Y0000100000D03*
X0000235630Y0000109000D03*
X0000243630Y0000109500D03*
X0000243630Y0000118000D03*
X0000230630Y0000165000D03*
X0000230630Y0000185000D03*
X0000230630Y0000175000D03*
X0000240630Y0000185000D03*
X0000240630Y0000175000D03*
X0000230630Y0000195000D03*
X0000230630Y0000265000D03*
X0000230630Y0000275000D03*
X0000240630Y0000275000D03*
X0000230630Y0000285000D03*
X0000240630Y0000285000D03*
X0000240630Y0000295000D03*
X0000230630Y0000295000D03*
X0000230630Y0000305000D03*
X0000240630Y0000305000D03*
X0000240630Y0000315000D03*
X0000230630Y0000315000D03*
X0000230630Y0000330000D03*
X0000240630Y0000330000D03*
X0000240630Y0000350000D03*
X0000230630Y0000375000D03*
X0000230630Y0000365000D03*
X0000240630Y0000375000D03*
X0000230630Y0000385000D03*
X0000240630Y0000385000D03*
X0000230630Y0000435000D03*
X0000240630Y0000435000D03*
X0000254130Y0000007150D03*
X0000258130Y0000007150D03*
X0000254130Y0000004000D03*
X0000258130Y0000004000D03*
X0000262130Y0000007150D03*
X0000262130Y0000004000D03*
X0000245630Y0000007150D03*
X0000249630Y0000007150D03*
X0000245630Y0000004000D03*
X0000249630Y0000004000D03*
X0000248630Y0000044200D03*
X0000251630Y0000044200D03*
X0000251630Y0000047000D03*
X0000248630Y0000047000D03*
X0000260630Y0000100000D03*
X0000250630Y0000100000D03*
X0000256130Y0000110500D03*
X0000252630Y0000118500D03*
X0000250630Y0000180000D03*
X0000260630Y0000225000D03*
X0000250630Y0000285000D03*
X0000250630Y0000295000D03*
X0000250630Y0000305000D03*
X0000260630Y0000305000D03*
X0000260630Y0000295000D03*
X0000250630Y0000315000D03*
X0000260630Y0000315000D03*
X0000250630Y0000330000D03*
X0000260630Y0000330000D03*
X0000250630Y0000360000D03*
X0000250630Y0000350000D03*
X0000260630Y0000350000D03*
X0000260630Y0000360000D03*
X0000250630Y0000375000D03*
X0000260630Y0000375000D03*
X0000250630Y0000385000D03*
X0000260630Y0000385000D03*
X0000260630Y0000395000D03*
X0000256630Y0000406500D03*
X0000256630Y0000410500D03*
X0000260630Y0000410000D03*
X0000260630Y0000405000D03*
X0000253130Y0000425000D03*
X0000253130Y0000420000D03*
X0000260630Y0000425000D03*
X0000260630Y0000420000D03*
X0000260630Y0000435000D03*
X0000250630Y0000435000D03*
X0000266630Y0000004000D03*
X0000266630Y0000007150D03*
X0000270630Y0000007150D03*
X0000270630Y0000004000D03*
X0000274630Y0000007150D03*
X0000274630Y0000004000D03*
X0000274630Y0000012000D03*
X0000274630Y0000015500D03*
X0000265130Y0000017000D03*
X0000269130Y0000017000D03*
X0000269130Y0000021000D03*
X0000269130Y0000025000D03*
X0000265130Y0000025000D03*
X0000279016Y0000012114D03*
X0000269130Y0000028500D03*
X0000278630Y0000045500D03*
X0000272610Y0000057980D03*
X0000269730Y0000061700D03*
X0000273730Y0000061100D03*
X0000272430Y0000064100D03*
X0000275130Y0000070614D03*
X0000270630Y0000215000D03*
X0000270630Y0000220000D03*
X0000265630Y0000225000D03*
X0000270630Y0000295000D03*
X0000270630Y0000305000D03*
X0000276380Y0000323250D03*
X0000276630Y0000327500D03*
X0000277630Y0000313000D03*
X0000277630Y0000317500D03*
X0000273630Y0000317500D03*
X0000273630Y0000313000D03*
X0000270630Y0000330000D03*
X0000270630Y0000375000D03*
X0000270630Y0000395000D03*
X0000270630Y0000385000D03*
X0000265630Y0000410000D03*
X0000265630Y0000405000D03*
X0000275630Y0000400000D03*
X0000270630Y0000425000D03*
X0000270630Y0000420000D03*
X0000270630Y0000435000D03*
X0000280630Y0000005000D03*
X0000290630Y0000005000D03*
X0000282244Y0000012000D03*
X0000296130Y0000020500D03*
X0000290630Y0000015000D03*
X0000285130Y0000026000D03*
X0000285130Y0000031500D03*
X0000284130Y0000045500D03*
X0000296122Y0000041000D03*
X0000296130Y0000031500D03*
X0000292744Y0000045500D03*
X0000285630Y0000037500D03*
X0000285130Y0000056500D03*
X0000285130Y0000062000D03*
X0000287130Y0000070614D03*
X0000297630Y0000070500D03*
X0000293630Y0000070500D03*
X0000290630Y0000115000D03*
X0000290630Y0000105000D03*
X0000284630Y0000099500D03*
X0000290130Y0000219500D03*
X0000280630Y0000210000D03*
X0000290130Y0000226000D03*
X0000290130Y0000239185D03*
X0000290130Y0000232500D03*
X0000289945Y0000250185D03*
X0000290130Y0000245185D03*
X0000290130Y0000255685D03*
X0000290130Y0000261185D03*
X0000290630Y0000291000D03*
X0000281630Y0000291000D03*
X0000290630Y0000300000D03*
X0000290630Y0000310000D03*
X0000281630Y0000300000D03*
X0000281630Y0000310000D03*
X0000288630Y0000336000D03*
X0000285630Y0000340000D03*
X0000295630Y0000340000D03*
X0000292630Y0000336000D03*
X0000290630Y0000345000D03*
X0000295630Y0000345000D03*
X0000285630Y0000350000D03*
X0000295630Y0000360000D03*
X0000280630Y0000375000D03*
X0000290630Y0000375000D03*
X0000290630Y0000395000D03*
X0000280630Y0000385000D03*
X0000285630Y0000390000D03*
X0000290630Y0000405000D03*
X0000280630Y0000405000D03*
X0000280630Y0000415000D03*
X0000290630Y0000415000D03*
X0000280630Y0000425000D03*
X0000290630Y0000425000D03*
X0000280630Y0000435000D03*
X0000290630Y0000435000D03*
X0000300630Y0000005000D03*
X0000310630Y0000005000D03*
X0000300130Y0000026000D03*
X0000310630Y0000015000D03*
X0000300630Y0000015000D03*
X0000310630Y0000025000D03*
X0000300130Y0000031500D03*
X0000308630Y0000044000D03*
X0000314130Y0000044000D03*
X0000310630Y0000035000D03*
X0000299630Y0000041000D03*
X0000299630Y0000038000D03*
X0000308630Y0000054000D03*
X0000308630Y0000049000D03*
X0000314130Y0000049000D03*
X0000312630Y0000087000D03*
X0000312630Y0000092000D03*
X0000307630Y0000092000D03*
X0000300630Y0000115000D03*
X0000307130Y0000232185D03*
X0000307130Y0000240185D03*
X0000307130Y0000225000D03*
X0000307130Y0000248000D03*
X0000307315Y0000256185D03*
X0000310630Y0000262500D03*
X0000310630Y0000268685D03*
X0000314130Y0000289000D03*
X0000300630Y0000291000D03*
X0000309630Y0000289000D03*
X0000314130Y0000294500D03*
X0000309630Y0000300000D03*
X0000314130Y0000300000D03*
X0000300630Y0000300000D03*
X0000309630Y0000294500D03*
X0000312630Y0000335000D03*
X0000312630Y0000329000D03*
X0000310630Y0000360000D03*
X0000305630Y0000350000D03*
X0000310630Y0000370000D03*
X0000300630Y0000370000D03*
X0000310630Y0000395000D03*
X0000300630Y0000395000D03*
X0000310630Y0000405000D03*
X0000300630Y0000405000D03*
X0000300630Y0000415000D03*
X0000310630Y0000415000D03*
X0000300630Y0000425000D03*
X0000310630Y0000425000D03*
X0000300630Y0000435000D03*
X0000310630Y0000435000D03*
X0000320630Y0000005000D03*
X0000320630Y0000015000D03*
X0000319630Y0000044000D03*
X0000325630Y0000044000D03*
X0000319630Y0000049000D03*
X0000325630Y0000049000D03*
X0000325630Y0000095000D03*
X0000315630Y0000095000D03*
X0000325630Y0000105000D03*
X0000322130Y0000119000D03*
X0000330130Y0000119000D03*
X0000326130Y0000119000D03*
X0000322130Y0000128000D03*
X0000326130Y0000128000D03*
X0000330130Y0000128000D03*
X0000321630Y0000142500D03*
X0000331630Y0000142500D03*
X0000331630Y0000136500D03*
X0000325130Y0000159500D03*
X0000331130Y0000159000D03*
X0000331130Y0000154500D03*
X0000330630Y0000175000D03*
X0000330630Y0000185000D03*
X0000327130Y0000171000D03*
X0000330630Y0000195000D03*
X0000330630Y0000205000D03*
X0000318630Y0000221500D03*
X0000322630Y0000221500D03*
X0000318630Y0000218000D03*
X0000322630Y0000218000D03*
X0000330630Y0000215000D03*
X0000330630Y0000250000D03*
X0000330630Y0000260000D03*
X0000329130Y0000289000D03*
X0000326130Y0000289000D03*
X0000327630Y0000286500D03*
X0000328530Y0000295800D03*
X0000318130Y0000309500D03*
X0000328630Y0000301982D03*
X0000329130Y0000308000D03*
X0000326130Y0000303378D03*
X0000326130Y0000306878D03*
X0000321130Y0000309283D03*
X0000318337Y0000313793D03*
X0000328630Y0000313793D03*
X0000318130Y0000325500D03*
X0000318327Y0000319697D03*
X0000328630Y0000325604D03*
X0000328638Y0000319697D03*
X0000325630Y0000318689D03*
X0000321130Y0000312783D03*
X0000321130Y0000321094D03*
X0000325630Y0000315189D03*
X0000321130Y0000324594D03*
X0000325630Y0000327000D03*
X0000318130Y0000331500D03*
X0000328638Y0000331508D03*
X0000330630Y0000340000D03*
X0000325630Y0000330500D03*
X0000330630Y0000360000D03*
X0000330630Y0000350000D03*
X0000320630Y0000360000D03*
X0000320630Y0000350000D03*
X0000320630Y0000370000D03*
X0000330630Y0000385000D03*
X0000330630Y0000395000D03*
X0000320630Y0000395000D03*
X0000330630Y0000405000D03*
X0000320630Y0000405000D03*
X0000320630Y0000415000D03*
X0000330630Y0000415000D03*
X0000320630Y0000425000D03*
X0000320630Y0000435000D03*
X0000335630Y0000035000D03*
X0000345630Y0000035000D03*
X0000335630Y0000050000D03*
X0000345630Y0000050000D03*
X0000345630Y0000060000D03*
X0000335630Y0000060000D03*
X0000335630Y0000070000D03*
X0000345630Y0000070000D03*
X0000335630Y0000085000D03*
X0000345630Y0000085000D03*
X0000345630Y0000095000D03*
X0000335630Y0000095000D03*
X0000345630Y0000105000D03*
X0000335630Y0000105000D03*
X0000345630Y0000115000D03*
X0000333630Y0000119000D03*
X0000349130Y0000125215D03*
X0000342130Y0000142000D03*
X0000338630Y0000147500D03*
X0000338630Y0000142000D03*
X0000342130Y0000147500D03*
X0000338630Y0000136500D03*
X0000349486Y0000142144D03*
X0000349549Y0000137419D03*
X0000349400Y0000149230D03*
X0000342130Y0000136500D03*
X0000349630Y0000160500D03*
X0000349630Y0000163500D03*
X0000342130Y0000159000D03*
X0000342130Y0000153000D03*
X0000338630Y0000159000D03*
X0000348789Y0000166159D03*
X0000341630Y0000166159D03*
X0000349630Y0000155000D03*
X0000349530Y0000157800D03*
X0000338630Y0000153000D03*
X0000350630Y0000175000D03*
X0000340630Y0000175000D03*
X0000340630Y0000185000D03*
X0000350630Y0000185000D03*
X0000340630Y0000195000D03*
X0000350630Y0000195000D03*
X0000340630Y0000205000D03*
X0000350630Y0000205000D03*
X0000340630Y0000215000D03*
X0000350630Y0000215000D03*
X0000350630Y0000225000D03*
X0000350630Y0000235000D03*
X0000340630Y0000235000D03*
X0000340630Y0000245000D03*
X0000350630Y0000245000D03*
X0000350630Y0000260000D03*
X0000340630Y0000260000D03*
X0000350630Y0000270000D03*
X0000340630Y0000270000D03*
X0000350630Y0000280000D03*
X0000350630Y0000290000D03*
X0000350630Y0000300000D03*
X0000350630Y0000310000D03*
X0000350630Y0000320000D03*
X0000350630Y0000330000D03*
X0000340630Y0000330000D03*
X0000350630Y0000340000D03*
X0000350630Y0000350000D03*
X0000340630Y0000350000D03*
X0000350630Y0000360000D03*
X0000340630Y0000360000D03*
X0000350630Y0000375000D03*
X0000340630Y0000375000D03*
X0000340630Y0000385000D03*
X0000350630Y0000385000D03*
X0000340630Y0000405000D03*
X0000350630Y0000405000D03*
X0000340630Y0000415000D03*
X0000350630Y0000415000D03*
X0000350630Y0000425000D03*
G54D30*
X0000118614Y0000068460D03*
G54D21*
X0000021889Y0000327474D03*
X0000021889Y0000340072D03*
X0000021889Y0000338497D03*
X0000021889Y0000336922D03*
X0000021889Y0000335348D03*
X0000021889Y0000333773D03*
X0000021889Y0000332198D03*
X0000021889Y0000330623D03*
X0000021889Y0000329048D03*
G54D12*
X0000010220Y0000048264D03*
X0000010220Y0000118736D03*
G54D31*
X0000166929Y0000361811D03*
X0000273228Y0000109055D03*
X0000273228Y0000351575D03*
G54D22*
X0000026711Y0000326686D03*
X0000026711Y0000340859D03*
X0000026711Y0000339284D03*
X0000026711Y0000337710D03*
X0000026711Y0000336135D03*
X0000026711Y0000334560D03*
X0000026711Y0000332985D03*
X0000026711Y0000331410D03*
X0000026711Y0000329836D03*
X0000026711Y0000328261D03*
G54D13*
X0000016622Y0000155113D03*
X0000016622Y0000218105D03*
G54D32*
G01X0000018130Y0000326500D02*
X0000019104Y0000327474D01*
X0000021889Y0000327474D01*
G01X0000031630Y0000326500D02*
X0000031130Y0000326500D01*
X0000029369Y0000328261D01*
X0000026711Y0000328261D01*
G01X0000015630Y0000334500D02*
X0000016357Y0000333773D01*
X0000021889Y0000333773D01*
G01X0000028741Y0000342889D02*
X0000028741Y0000341459D01*
X0000028141Y0000340859D01*
X0000026711Y0000340859D01*
G01X0000033630Y0000328500D02*
X0000031630Y0000328500D01*
X0000030294Y0000329836D01*
X0000026711Y0000329836D01*
G01X0000118630Y0000072000D02*
X0000118630Y0000068476D01*
X0000118614Y0000068460D01*
G54D14*
X0000006224Y0000250664D03*
X0000006224Y0000284679D03*
X0000021185Y0000250664D03*
X0000021185Y0000284679D03*
G54D23*
X0000030630Y0000410000D03*
X0000055300Y0000040000D03*
X0000320630Y0000030000D03*
G54D33*
G01X0000012630Y0000330000D02*
X0000013253Y0000330623D01*
X0000021889Y0000330623D01*
G01X0000021889Y0000336922D02*
X0000018218Y0000336922D01*
X0000017360Y0000337780D01*
X0000016360Y0000337780D01*
X0000015360Y0000338780D01*
X0000013634Y0000338780D01*
X0000012630Y0000339784D01*
G01X0000021889Y0000335348D02*
X0000017983Y0000335348D01*
X0000016830Y0000336500D01*
X0000015830Y0000336500D01*
X0000014830Y0000337500D01*
X0000013346Y0000337500D01*
X0000012630Y0000336784D01*
G01X0000012630Y0000333000D02*
X0000013727Y0000331903D01*
X0000019033Y0000331903D01*
X0000019328Y0000332198D01*
X0000021889Y0000332198D01*
G01X0000037130Y0000330500D02*
X0000036130Y0000331500D01*
X0000034630Y0000331500D01*
X0000032630Y0000333500D01*
X0000030130Y0000333500D01*
X0000029615Y0000332985D01*
X0000026711Y0000332985D01*
G01X0000037130Y0000333500D02*
X0000036410Y0000332780D01*
X0000035160Y0000332780D01*
X0000033160Y0000334780D01*
X0000029600Y0000334780D01*
X0000029380Y0000334560D01*
X0000026711Y0000334560D01*
G01X0000026711Y0000337710D02*
X0000028840Y0000337710D01*
X0000031370Y0000340240D01*
X0000032890Y0000340240D01*
X0000033630Y0000339500D01*
G01X0000033630Y0000342500D02*
X0000032650Y0000341520D01*
X0000030840Y0000341520D01*
X0000028604Y0000339284D01*
X0000026711Y0000339284D01*
G54D15*
X0000007912Y0000321568D03*
X0000007912Y0000345977D03*
X0000021141Y0000321568D03*
X0000021141Y0000345977D03*
G54D24*
X0000043670Y0000160822D03*
X0000043670Y0000212397D03*
G54D34*
G01X0000032130Y0000331000D02*
X0000031720Y0000331410D01*
X0000026711Y0000331410D01*
G01X0000016130Y0000328500D02*
X0000016678Y0000329048D01*
G01X0000021889Y0000338497D02*
X0000019133Y0000338497D01*
G01X0000026711Y0000336135D02*
X0000030265Y0000336135D01*
G01X0000016678Y0000329048D02*
X0000021889Y0000329048D01*
G01X0000019133Y0000338497D02*
X0000017630Y0000340000D01*
X0000017630Y0000340500D01*
G01X0000030265Y0000336135D02*
X0000031130Y0000337000D01*
G54D16*
X0000009500Y0000382158D03*
X0000009500Y0000401843D03*
G54D25*
X0000048000Y0000172829D03*
G54D35*
G01X0000021776Y0000265703D02*
X0000026427Y0000265703D01*
G01X0000021776Y0000269640D02*
X0000026490Y0000269640D01*
G01X0000034130Y0000324000D02*
X0000031130Y0000324000D01*
X0000028444Y0000326686D01*
X0000026711Y0000326686D01*
G01X0000037780Y0000058894D02*
X0000048630Y0000058894D01*
G01X0000037780Y0000078579D02*
X0000048630Y0000078579D01*
G01X0000037780Y0000068736D02*
X0000048630Y0000068736D01*
G01X0000037780Y0000088421D02*
X0000048551Y0000088421D01*
X0000048630Y0000088500D01*
G01X0000096961Y0000024818D02*
X0000096961Y0000032000D01*
G01X0000101291Y0000026393D02*
X0000101291Y0000032000D01*
G01X0000114284Y0000024818D02*
X0000114284Y0000031846D01*
X0000114130Y0000032000D01*
G01X0000105622Y0000024818D02*
X0000105622Y0000032000D01*
G01X0000127276Y0000024818D02*
X0000127276Y0000030000D01*
G01X0000122945Y0000024818D02*
X0000122945Y0000030000D01*
G54D26*
X0000048000Y0000182672D03*
X0000048000Y0000190546D03*
X0000048000Y0000200389D03*
G54D17*
X0000037780Y0000058894D03*
X0000037780Y0000078579D03*
X0000037780Y0000068736D03*
X0000037780Y0000098264D03*
X0000037780Y0000088421D03*
X0000037780Y0000108106D03*
G54D36*
G01X0000101646Y0000067574D02*
X0000101646Y0000063016D01*
G01X0000101646Y0000067574D02*
X0000097204Y0000067574D01*
G01X0000124087Y0000067574D02*
X0000129056Y0000067574D01*
G01X0000124087Y0000067574D02*
X0000124087Y0000063043D01*
G54D18*
X0000021776Y0000256845D03*
X0000021776Y0000278498D03*
G54D27*
X0000078614Y0000011866D03*
X0000130386Y0000015803D03*
G54D37*
G01X0000006224Y0000247498D02*
X0000006224Y0000250664D01*
G01X0000006224Y0000250664D02*
X0000006224Y0000253829D01*
G01X0000006224Y0000250664D02*
X0000010571Y0000250664D01*
G01X0000006224Y0000281514D02*
X0000006224Y0000284679D01*
G01X0000006224Y0000284679D02*
X0000006224Y0000287845D01*
G01X0000006224Y0000284679D02*
X0000010571Y0000284679D01*
G01X0000007912Y0000317615D02*
X0000007912Y0000321568D01*
G01X0000007912Y0000321568D02*
X0000007912Y0000325521D01*
G01X0000007912Y0000321568D02*
X0000013932Y0000321568D01*
G01X0000007912Y0000342024D02*
X0000007912Y0000345977D01*
G01X0000007912Y0000345977D02*
X0000007912Y0000349930D01*
G01X0000007912Y0000345977D02*
X0000013932Y0000345977D01*
G01X0000009500Y0000398086D02*
X0000009500Y0000401843D01*
G01X0000009500Y0000401843D02*
X0000009500Y0000405599D01*
G01X0000006138Y0000401843D02*
X0000009500Y0000401843D01*
G01X0000009500Y0000401843D02*
X0000012862Y0000401843D01*
G01X0000021185Y0000247498D02*
X0000021185Y0000250664D01*
G01X0000021185Y0000250664D02*
X0000021185Y0000253829D01*
G01X0000016838Y0000250664D02*
X0000021185Y0000250664D01*
G01X0000021185Y0000250664D02*
X0000025532Y0000250664D01*
G01X0000021185Y0000281514D02*
X0000021185Y0000284679D01*
G01X0000021185Y0000284679D02*
X0000021185Y0000287845D01*
G01X0000016838Y0000284679D02*
X0000021185Y0000284679D01*
G01X0000021185Y0000284679D02*
X0000025532Y0000284679D01*
G01X0000021141Y0000317615D02*
X0000021141Y0000321568D01*
G01X0000015121Y0000321568D02*
X0000021141Y0000321568D01*
G01X0000021141Y0000321568D02*
X0000027161Y0000321568D01*
G01X0000021141Y0000345977D02*
X0000021141Y0000349930D01*
G01X0000015121Y0000345977D02*
X0000021141Y0000345977D01*
G01X0000021141Y0000345977D02*
X0000027161Y0000345977D01*
G01X0000043670Y0000154822D02*
X0000043670Y0000160822D01*
G01X0000043670Y0000160822D02*
X0000043670Y0000166822D01*
G01X0000043670Y0000160822D02*
X0000049670Y0000160822D01*
G01X0000048000Y0000196389D02*
X0000048000Y0000200389D01*
G01X0000048000Y0000200389D02*
X0000048000Y0000204389D01*
G01X0000044000Y0000200389D02*
X0000048000Y0000200389D01*
G01X0000048000Y0000200389D02*
X0000052000Y0000200389D01*
G01X0000043670Y0000206396D02*
X0000043670Y0000212397D01*
G01X0000043670Y0000212397D02*
X0000043670Y0000218397D01*
G01X0000043670Y0000212397D02*
X0000049670Y0000212397D01*
G54D28*
X0000096961Y0000024818D03*
X0000101291Y0000026393D03*
X0000105622Y0000024818D03*
X0000109953Y0000024031D03*
X0000114284Y0000024818D03*
X0000118614Y0000024031D03*
X0000122945Y0000024818D03*
X0000127276Y0000024818D03*
G54D19*
X0000021776Y0000273656D03*
X0000021776Y0000261687D03*
G54D29*
X0000101646Y0000067574D03*
X0000124087Y0000067574D03*
M02*
