M48
INCH
T01C.00001
;EXTENTS: -21.971 -20.601 23.399  23.675  
;LEADER: 12 
;HEADER: 
;CODE  : ASCII 
;FILE  : C:/Users/rock/Documents/Work/ZHG/CutiePi_V1_1/CutiePi_V1_1_1-6.rou for board C:/Users/rock/Documents/Work/ZHG/CutiePi_V1_1/#Taaaaxt02540.tmp, layers TOP to BOTTOM
%
G90
F1
M16
T01
M16
G00X0000008319Y0000381764
G41
M15
G03X0000010681Y0000381764A0000001181
G01X0000010681Y0000382551
G03X0000008319Y0000382551A0000001181
G01X0000008319Y0000381764
M16
G00X0000008319Y0000401449
G41
M15
G03X0000010681Y0000401449A0000001181
G01X0000010681Y0000402236
G03X0000008319Y0000402236A0000001181
G01X0000008319Y0000401449
M16
G00X0000019074Y0000322848
G41
M15
G03X0000019074Y0000320289A0000001280
G01X0000023207Y0000320289
G03X0000023207Y0000322848A0000001280
G01X0000019074Y0000322848
M16
G00X0000019074Y0000347257
G41
M15
G03X0000019074Y0000344698A0000001280
G01X0000023207Y0000344698
G03X0000023207Y0000347257A0000001280
G01X0000019074Y0000347257
M16
G00X0000005845Y0000322848
G41
M15
G03X0000005845Y0000320289A0000001280
G01X0000009979Y0000320289
G03X0000009979Y0000322848A0000001280
G01X0000005845Y0000322848
M16
G00X0000005845Y0000347257
G41
M15
G03X0000005845Y0000344698A0000001280
G01X0000009979Y0000344698
G03X0000009979Y0000347257A0000001280
G01X0000005845Y0000347257
M16
G00X0000020004Y0000251845
G41
M15
G03X0000020004Y0000249482A0000001181
G01X0000022366Y0000249482
G03X0000022366Y0000251845A0000001181
G01X0000020004Y0000251845
M16
G00X0000020004Y0000285860
G41
M15
G03X0000020004Y0000283498A0000001181
G01X0000022366Y0000283498
G03X0000022366Y0000285860A0000001181
G01X0000020004Y0000285860
M16
G00X0000005043Y0000251845
G41
M15
G03X0000005043Y0000249482A0000001181
G01X0000007406Y0000249482
G03X0000007406Y0000251845A0000001181
G01X0000005043Y0000251845
M16
G00X0000005043Y0000285860
G41
M15
G03X0000005043Y0000283498A0000001181
G01X0000007406Y0000283498
G03X0000007406Y0000285860A0000001181
G01X0000005043Y0000285860
M16
G40
M30
