G04 ================== begin FILE IDENTIFICATION RECORD ==================*
G04 Layout Name:  C:/Users/rock/Documents/Work/ZHG/CutiePi_V1_1/CutiePi_V1_1.brd*
G04 Film Name:    GND02*
G04 File Format:  Gerber RS274X*
G04 File Origin:  Cadence Allegro 17.2-S058*
G04 Origin Date:  Thu Oct 24 15:12:38 2019*
G04 *
G04 Layer:  ETCH/GND02*
G04 Layer:  PIN/GND02*
G04 Layer:  VIA CLASS/GND02*
G04 *
G04 Offset:    (0.000 0.000)*
G04 Mirror:    No*
G04 Mode:      Positive*
G04 Rotation:  0*
G04 FullContactRelief:  No*
G04 UndefLineWidth:     6.000*
G04 ================== end FILE IDENTIFICATION RECORD ====================*
%FSAX55Y55*MOIN*%
%IR0*IPPOS*OFA0.00000B0.00000*MIA0B0*SFA1.00000B1.00000*%
%ADD15C,.1*%
%ADD13O,.100394X.059055*%
%ADD11C,.02*%
%ADD17C,.06*%
%ADD16R,.06X.06*%
%ADD18C,.03937*%
%ADD14O,.047244X.055118*%
%ADD12O,.066929X.043307*%
%ADD10C,.019689*%
%ADD19C,.025*%
%ADD22C,.110004*%
%ADD25C,.220624*%
%ADD26C,.220482*%
%ADD20C,.032004*%
%ADD21C,.070004*%
%ADD24C,.059316*%
%ADD27O,.057248X.065122*%
%ADD28O,.067248X.075122*%
%ADD23C,.078992*%
G75*
%LPD*%
G75*
G36*
G01X0000169130Y0000450755D02*
X0000332769Y0000450755D01*
G02X0000332929Y0000449989I0J-0000000400D01*
G03X0000351600Y0000431319I0000005690J-0000012981D01*
G02X0000352367Y0000431158I0000000366J-0000000161D01*
G01X0000352367Y0000021597D01*
G02X0000351600Y0000021437I-0000000400J0D01*
G03X0000332929Y0000002767I-0000012982J-0000005689D01*
G02X0000332769Y0000002000I-0000000161J-0000000366D01*
G01X0000263331Y0000002000D01*
G02X0000263091Y0000002720I0J0000000400D01*
G03X0000263730Y0000004000I-0000000961J0000001280D01*
G03X0000263116Y0000005260I-0000001600J0D01*
G02X0000263116Y0000005890I0000000247J0000000315D01*
G03X0000263730Y0000007150I-0000000986J0000001260D01*
G03X0000260530Y0000007150I-0000001600J0D01*
G03X0000261144Y0000005890I0000001600J0D01*
G02X0000261144Y0000005260I-0000000247J-0000000315D01*
G03X0000260530Y0000004000I0000000986J-0000001260D01*
G03X0000261169Y0000002720I0000001600J0D01*
G02X0000260929Y0000002000I-0000000240J-0000000320D01*
G01X0000259331Y0000002000D01*
G02X0000259091Y0000002720I0J0000000400D01*
G03X0000259730Y0000004000I-0000000961J0000001280D01*
G03X0000259116Y0000005260I-0000001600J0D01*
G02X0000259116Y0000005890I0000000247J0000000315D01*
G03X0000259730Y0000007150I-0000000986J0000001260D01*
G03X0000256530Y0000007150I-0000001600J0D01*
G03X0000257144Y0000005890I0000001600J0D01*
G02X0000257144Y0000005260I-0000000247J-0000000315D01*
G03X0000256530Y0000004000I0000000986J-0000001260D01*
G03X0000257169Y0000002720I0000001600J0D01*
G02X0000256929Y0000002000I-0000000240J-0000000320D01*
G01X0000255331Y0000002000D01*
G02X0000255091Y0000002720I0J0000000400D01*
G03X0000255730Y0000004000I-0000000961J0000001280D01*
G03X0000255116Y0000005260I-0000001600J0D01*
G02X0000255116Y0000005890I0000000247J0000000315D01*
G03X0000255730Y0000007150I-0000000986J0000001260D01*
G03X0000252530Y0000007150I-0000001600J0D01*
G03X0000253144Y0000005890I0000001600J0D01*
G02X0000253144Y0000005260I-0000000247J-0000000315D01*
G03X0000252530Y0000004000I0000000986J-0000001260D01*
G03X0000253169Y0000002720I0000001600J0D01*
G02X0000252929Y0000002000I-0000000240J-0000000320D01*
G01X0000250831Y0000002000D01*
G02X0000250591Y0000002720I0J0000000400D01*
G03X0000251230Y0000004000I-0000000961J0000001280D01*
G03X0000250616Y0000005260I-0000001600J0D01*
G02X0000250616Y0000005890I0000000247J0000000315D01*
G03X0000251230Y0000007150I-0000000986J0000001260D01*
G03X0000248030Y0000007150I-0000001600J0D01*
G03X0000248644Y0000005890I0000001600J0D01*
G02X0000248644Y0000005260I-0000000247J-0000000315D01*
G03X0000248030Y0000004000I0000000986J-0000001260D01*
G03X0000248669Y0000002720I0000001600J0D01*
G02X0000248429Y0000002000I-0000000240J-0000000320D01*
G01X0000246831Y0000002000D01*
G02X0000246591Y0000002720I0J0000000400D01*
G03X0000247230Y0000004000I-0000000961J0000001280D01*
G03X0000246616Y0000005260I-0000001600J0D01*
G02X0000246616Y0000005890I0000000247J0000000315D01*
G03X0000247230Y0000007150I-0000000986J0000001260D01*
G03X0000244030Y0000007150I-0000001600J0D01*
G03X0000244644Y0000005890I0000001600J0D01*
G02X0000244644Y0000005260I-0000000247J-0000000315D01*
G03X0000244030Y0000004000I0000000986J-0000001260D01*
G03X0000244669Y0000002720I0000001600J0D01*
G02X0000244429Y0000002000I-0000000240J-0000000320D01*
G01X0000242831Y0000002000D01*
G02X0000242591Y0000002720I0J0000000400D01*
G03X0000243230Y0000004000I-0000000961J0000001280D01*
G03X0000242616Y0000005260I-0000001600J0D01*
G02X0000242616Y0000005890I0000000247J0000000315D01*
G03X0000243230Y0000007150I-0000000986J0000001260D01*
G03X0000240030Y0000007150I-0000001600J0D01*
G03X0000240644Y0000005890I0000001600J0D01*
G02X0000240644Y0000005260I-0000000247J-0000000315D01*
G03X0000240030Y0000004000I0000000986J-0000001260D01*
G03X0000240669Y0000002720I0000001600J0D01*
G02X0000240429Y0000002000I-0000000240J-0000000320D01*
G01X0000021597Y0000002000D01*
G02X0000021437Y0000002767I0J0000000400D01*
G03X0000002767Y0000021437I-0000005689J0000012981D01*
G02X0000002000Y0000021597I-0000000366J0000000161D01*
G01X0000002000Y0000146504D01*
X0000002000Y0000155000D01*
G02X0000005000Y0000158000I0000003000J0D01*
G01X0000031130Y0000158000D01*
G03X0000038130Y0000165000I0J0000007000D01*
G01X0000038130Y0000208500D01*
G03X0000031130Y0000215500I-0000007000J0D01*
G01X0000005000Y0000215500D01*
G02X0000002000Y0000218500I0J0000003000D01*
G01X0000002000Y0000224473D01*
X0000002000Y0000249110D01*
G02X0000002745Y0000249313I0000000400J0D01*
G03X0000005043Y0000247998I0000002298J0000001351D01*
G01X0000007406Y0000247998D01*
G03X0000007406Y0000253329I0J0000002666D01*
G01X0000005043Y0000253329D01*
G03X0000002745Y0000252014I0J-0000002666D01*
G02X0000002000Y0000252217I-0000000345J0000000203D01*
G01X0000002000Y0000283126D01*
G02X0000002745Y0000283329I0000000400J0D01*
G03X0000005043Y0000282014I0000002298J0000001351D01*
G01X0000007406Y0000282014D01*
G03X0000007406Y0000287345I0J0000002666D01*
G01X0000005043Y0000287345D01*
G03X0000002745Y0000286030I0J-0000002666D01*
G02X0000002000Y0000286233I-0000000345J0000000203D01*
G01X0000002000Y0000319842D01*
G02X0000002758Y0000320021I0000000400J0D01*
G03X0000005845Y0000318115I0000003087J0000001547D01*
G01X0000009979Y0000318115D01*
G03X0000009979Y0000325021I0J0000003453D01*
G01X0000005845Y0000325021D01*
G03X0000002758Y0000323115I0J-0000003453D01*
G02X0000002000Y0000323294I-0000000358J0000000179D01*
G01X0000002000Y0000344252D01*
G02X0000002758Y0000344431I0000000400J0D01*
G03X0000005845Y0000342524I0000003087J0000001547D01*
G01X0000009979Y0000342524D01*
G03X0000009979Y0000349430I0J0000003453D01*
G01X0000005845Y0000349430D01*
G03X0000002758Y0000347524I0J-0000003453D01*
G02X0000002000Y0000347703I-0000000358J0000000179D01*
G01X0000002000Y0000428000D01*
X0000004805Y0000428000D01*
X0000004865Y0000427928D01*
G03X0000026690Y0000428000I0000010883J0000009080D01*
G01X0000107630Y0000428000D01*
X0000113130Y0000422500D01*
X0000113160Y0000422500D01*
X0000113160Y0000395189D01*
X0000113130Y0000395189D01*
X0000113130Y0000394000D01*
X0000113630Y0000393500D01*
X0000113630Y0000385677D01*
X0000118630Y0000385677D01*
X0000118630Y0000393388D01*
X0000119243Y0000394000D01*
X0000119243Y0000395189D01*
X0000119160Y0000395189D01*
X0000119160Y0000421500D01*
X0000120130Y0000422470D01*
X0000120130Y0000422500D01*
X0000121630Y0000424000D01*
X0000121630Y0000428000D01*
X0000169130Y0000428000D01*
X0000169130Y0000450755D01*
G37*
%LPC*%
G75*
G36*
G01X0000084855Y0000359600D02*
G02X0000084030Y0000361000I0000000775J0000001400D01*
G02X0000087230Y0000361000I0000001600J0D01*
G02X0000086405Y0000359600I-0000001600J0D01*
G03X0000086405Y0000358900I0000000194J-0000000350D01*
G02X0000087230Y0000357500I-0000000775J-0000001400D01*
G02X0000084030Y0000357500I-0000001600J0D01*
G02X0000084855Y0000358900I0000001600J0D01*
G03X0000084855Y0000359600I-0000000194J0000000350D01*
G37*
G36*
G01X0000175599Y0000329788D02*
G02X0000174971Y0000331059I0000000972J0000001271D01*
G02X0000178171Y0000331059I0000001600J0D01*
G02X0000177395Y0000329688I-0000001600J0D01*
G03X0000177358Y0000329027I0000000206J-0000000343D01*
G02X0000177986Y0000327756I-0000000972J-0000001271D01*
G02X0000174786Y0000327756I-0000001600J0D01*
G02X0000175562Y0000329128I0000001600J0D01*
G03X0000175599Y0000329788I-0000000206J0000000343D01*
G37*
G36*
G01X0000032030Y0000328500D02*
G02X0000033630Y0000330100I0000001600J0D01*
G02X0000035230Y0000328500I0J-0000001600D01*
G02X0000033630Y0000326900I-0000001600J0D01*
G03X0000033230Y0000326500I0J-0000000400D01*
G02X0000033159Y0000326029I-0000001600J0D01*
G03X0000033659Y0000325529I0000000382J-0000000118D01*
G02X0000034130Y0000325600I0000000471J-0000001529D01*
G02X0000032530Y0000324000I0J-0000001600D01*
G02X0000032601Y0000324471I0000001600J0D01*
G03X0000032101Y0000324971I-0000000382J0000000118D01*
G02X0000031630Y0000324900I-0000000471J0000001529D01*
G02X0000030030Y0000326500I0J0000001600D01*
G02X0000031630Y0000328100I0000001600J0D01*
G03X0000032030Y0000328500I0J0000000400D01*
G37*
G36*
G01X0000030030Y0000273225D02*
G02X0000028630Y0000272400I-0000001400J0000000775D01*
G02X0000028630Y0000275600I0J0000001600D01*
G02X0000030030Y0000274775I0J-0000001600D01*
G03X0000030730Y0000274775I0000000350J0000000194D01*
G02X0000032130Y0000275600I0000001400J-0000000775D01*
G02X0000032130Y0000272400I0J-0000001600D01*
G02X0000030730Y0000273225I0J0000001600D01*
G03X0000030030Y0000273225I-0000000350J-0000000194D01*
G37*
G36*
G01X0000049030Y0000254725D02*
G02X0000047630Y0000253900I-0000001400J0000000775D01*
G02X0000047630Y0000257100I0J0000001600D01*
G02X0000049030Y0000256275I0J-0000001600D01*
G03X0000049730Y0000256275I0000000350J0000000194D01*
G02X0000051130Y0000257100I0000001400J-0000000775D01*
G02X0000051130Y0000253900I0J-0000001600D01*
G02X0000049730Y0000254725I0J0000001600D01*
G03X0000049030Y0000254725I-0000000350J-0000000194D01*
G37*
G36*
G01X0000049030Y0000250725D02*
G02X0000047630Y0000249900I-0000001400J0000000775D01*
G02X0000047630Y0000253100I0J0000001600D01*
G02X0000049030Y0000252275I0J-0000001600D01*
G03X0000049730Y0000252275I0000000350J0000000194D01*
G02X0000051130Y0000253100I0000001400J-0000000775D01*
G02X0000051130Y0000249900I0J-0000001600D01*
G02X0000049730Y0000250725I0J0000001600D01*
G03X0000049030Y0000250725I-0000000350J-0000000194D01*
G37*
G36*
G01X0000073855Y0000241600D02*
G02X0000073030Y0000243000I0000000775J0000001400D01*
G02X0000076230Y0000243000I0000001600J0D01*
G02X0000075405Y0000241600I-0000001600J0D01*
G03X0000075405Y0000240900I0000000194J-0000000350D01*
G02X0000076230Y0000239500I-0000000775J-0000001400D01*
G02X0000073030Y0000239500I-0000001600J0D01*
G02X0000073855Y0000240900I0000001600J0D01*
G03X0000073855Y0000241600I-0000000194J0000000350D01*
G37*
G36*
G01X0000085530Y0000235225D02*
G02X0000084130Y0000234400I-0000001400J0000000775D01*
G02X0000084130Y0000237600I0J0000001600D01*
G02X0000085530Y0000236775I0J-0000001600D01*
G03X0000086230Y0000236775I0000000350J0000000194D01*
G02X0000087630Y0000237600I0000001400J-0000000775D01*
G02X0000087630Y0000234400I0J-0000001600D01*
G02X0000086230Y0000235225I0J0000001600D01*
G03X0000085530Y0000235225I-0000000350J-0000000194D01*
G37*
G36*
G01X0000321855Y0000220100D02*
G02X0000321030Y0000221500I0000000775J0000001400D01*
G02X0000324230Y0000221500I0000001600J0D01*
G02X0000323405Y0000220100I-0000001600J0D01*
G03X0000323405Y0000219400I0000000194J-0000000350D01*
G02X0000324230Y0000218000I-0000000775J-0000001400D01*
G02X0000321030Y0000218000I-0000001600J0D01*
G02X0000321855Y0000219400I0000001600J0D01*
G03X0000321855Y0000220100I-0000000194J0000000350D01*
G37*
G36*
G01X0000317855Y0000220100D02*
G02X0000317030Y0000221500I0000000775J0000001400D01*
G02X0000320230Y0000221500I0000001600J0D01*
G02X0000319405Y0000220100I-0000001600J0D01*
G03X0000319405Y0000219400I0000000194J-0000000350D01*
G02X0000320230Y0000218000I-0000000775J-0000001400D01*
G02X0000317030Y0000218000I-0000001600J0D01*
G02X0000317855Y0000219400I0000001600J0D01*
G03X0000317855Y0000220100I-0000000194J0000000350D01*
G37*
G36*
G01X0000092101Y0000157529D02*
G02X0000092030Y0000158000I0000001529J0000000471D01*
G02X0000093630Y0000156400I0000001600J0D01*
G02X0000093159Y0000156471I0J0000001600D01*
G03X0000092659Y0000155971I-0000000118J-0000000382D01*
G02X0000092730Y0000155500I-0000001529J-0000000471D01*
G02X0000091130Y0000157100I-0000001600J0D01*
G02X0000091601Y0000157029I0J-0000001600D01*
G03X0000092101Y0000157529I0000000118J0000000382D01*
G37*
G36*
G01X0000141355Y0000129600D02*
G02X0000140530Y0000131000I0000000775J0000001400D01*
G02X0000143730Y0000131000I0000001600J0D01*
G02X0000142905Y0000129600I-0000001600J0D01*
G03X0000142905Y0000128900I0000000194J-0000000350D01*
G02X0000143730Y0000127500I-0000000775J-0000001400D01*
G02X0000140530Y0000127500I-0000001600J0D01*
G02X0000141355Y0000128900I0000001600J0D01*
G03X0000141355Y0000129600I-0000000194J0000000350D01*
G37*
G36*
G01X0000137355Y0000129600D02*
G02X0000136530Y0000131000I0000000775J0000001400D01*
G02X0000139730Y0000131000I0000001600J0D01*
G02X0000138905Y0000129600I-0000001600J0D01*
G03X0000138905Y0000128900I0000000194J-0000000350D01*
G02X0000139730Y0000127500I-0000000775J-0000001400D01*
G02X0000136530Y0000127500I-0000001600J0D01*
G02X0000137355Y0000128900I0000001600J0D01*
G03X0000137355Y0000129600I-0000000194J0000000350D01*
G37*
G36*
G01X0000331530Y0000118225D02*
G02X0000330130Y0000117400I-0000001400J0000000775D01*
G02X0000330130Y0000120600I0J0000001600D01*
G02X0000331530Y0000119775I0J-0000001600D01*
G03X0000332230Y0000119775I0000000350J0000000194D01*
G02X0000333630Y0000120600I0000001400J-0000000775D01*
G02X0000333630Y0000117400I0J-0000001600D01*
G02X0000332230Y0000118225I0J0000001600D01*
G03X0000331530Y0000118225I-0000000350J-0000000194D01*
G37*
G36*
G01X0000137355Y0000103600D02*
G02X0000136530Y0000105000I0000000775J0000001400D01*
G02X0000138130Y0000106600I0000001600J0D01*
G02X0000139530Y0000105775I0J-0000001600D01*
G03X0000140230Y0000105775I0000000350J0000000194D01*
G02X0000141630Y0000106600I0000001400J-0000000775D01*
G02X0000143230Y0000105000I0J-0000001600D01*
G02X0000142405Y0000103600I-0000001600J0D01*
G03X0000142405Y0000102900I0000000194J-0000000350D01*
G02X0000143230Y0000101500I-0000000775J-0000001400D01*
G02X0000141630Y0000099900I-0000001600J0D01*
G02X0000140230Y0000100725I0J0000001600D01*
G03X0000139530Y0000100725I-0000000350J-0000000194D01*
G02X0000138130Y0000099900I-0000001400J0000000775D01*
G02X0000136530Y0000101500I0J0000001600D01*
G02X0000137355Y0000102900I0000001600J0D01*
G03X0000137355Y0000103600I-0000000194J0000000350D01*
G37*
G36*
G01X0000123855Y0000101600D02*
G02X0000123030Y0000103000I0000000775J0000001400D01*
G02X0000126230Y0000103000I0000001600J0D01*
G02X0000125405Y0000101600I-0000001600J0D01*
G03X0000125405Y0000100900I0000000194J-0000000350D01*
G02X0000126230Y0000099500I-0000000775J-0000001400D01*
G02X0000123030Y0000099500I-0000001600J0D01*
G02X0000123855Y0000100900I0000001600J0D01*
G03X0000123855Y0000101600I-0000000194J0000000350D01*
G37*
G36*
G01X0000119855Y0000101600D02*
G02X0000119030Y0000103000I0000000775J0000001400D01*
G02X0000122230Y0000103000I0000001600J0D01*
G02X0000121405Y0000101600I-0000001600J0D01*
G03X0000121405Y0000100900I0000000194J-0000000350D01*
G02X0000122230Y0000099500I-0000000775J-0000001400D01*
G02X0000119030Y0000099500I-0000001600J0D01*
G02X0000119855Y0000100900I0000001600J0D01*
G03X0000119855Y0000101600I-0000000194J0000000350D01*
G37*
G36*
G01X0000214855Y0000046100D02*
G02X0000214030Y0000047500I0000000775J0000001400D01*
G02X0000217230Y0000047500I0000001600J0D01*
G02X0000216405Y0000046100I-0000001600J0D01*
G03X0000216405Y0000045400I0000000194J-0000000350D01*
G02X0000217230Y0000044000I-0000000775J-0000001400D01*
G02X0000214030Y0000044000I-0000001600J0D01*
G02X0000214855Y0000045400I0000001600J0D01*
G03X0000214855Y0000046100I-0000000194J0000000350D01*
G37*
G36*
G01X0000209855Y0000046100D02*
G02X0000209030Y0000047500I0000000775J0000001400D01*
G02X0000212230Y0000047500I0000001600J0D01*
G02X0000211405Y0000046100I-0000001600J0D01*
G03X0000211405Y0000045400I0000000194J-0000000350D01*
G02X0000212230Y0000044000I-0000000775J-0000001400D01*
G02X0000209030Y0000044000I-0000001600J0D01*
G02X0000209855Y0000045400I0000001600J0D01*
G03X0000209855Y0000046100I-0000000194J0000000350D01*
G37*
G36*
G01X0000109355Y0000030600D02*
G02X0000108530Y0000032000I0000000775J0000001400D01*
G02X0000111730Y0000032000I0000001600J0D01*
G02X0000110905Y0000030600I-0000001600J0D01*
G03X0000110905Y0000029900I0000000194J-0000000350D01*
G02X0000111730Y0000028500I-0000000775J-0000001400D01*
G02X0000108530Y0000028500I-0000001600J0D01*
G02X0000109355Y0000029900I0000001600J0D01*
G03X0000109355Y0000030600I-0000000194J0000000350D01*
G37*
G36*
G01X0000201479Y0000017889D02*
G02X0000201030Y0000019000I0000001151J0000001111D01*
G02X0000202630Y0000020600I0000001600J0D01*
G02X0000204030Y0000019775I0J-0000001600D01*
G03X0000204730Y0000019775I0000000350J0000000194D01*
G02X0000206130Y0000020600I0000001400J-0000000775D01*
G02X0000207730Y0000019000I0J-0000001600D01*
G02X0000207282Y0000017889I-0000001600J0D01*
G03X0000207282Y0000017611I0000000144J-0000000139D01*
G02X0000207730Y0000016500I-0000001151J-0000001111D01*
G02X0000206130Y0000014900I-0000001600J0D01*
G02X0000204730Y0000015725I0J0000001600D01*
G03X0000204030Y0000015725I-0000000350J-0000000194D01*
G02X0000202630Y0000014900I-0000001400J0000000775D01*
G02X0000201030Y0000016500I0J0000001600D01*
G02X0000201479Y0000017611I0000001600J0D01*
G03X0000201479Y0000017889I-0000000144J0000000139D01*
G37*
G36*
G01X0000179571Y0000384700D02*
G03X0000179571Y0000385300I-0000000265J0000000300D01*
G02X0000179030Y0000386500I0000001059J0000001200D01*
G02X0000182230Y0000386500I0000001600J0D01*
G02X0000181689Y0000385300I-0000001600J0D01*
G03X0000181689Y0000384700I0000000265J-0000000300D01*
G02X0000182230Y0000383500I-0000001059J-0000001200D01*
G02X0000179030Y0000383500I-0000001600J0D01*
G02X0000179571Y0000384700I0000001600J0D01*
G37*
G36*
G01X0000175571Y0000384700D02*
G03X0000175571Y0000385300I-0000000265J0000000300D01*
G02X0000175030Y0000386500I0000001059J0000001200D01*
G02X0000178230Y0000386500I0000001600J0D01*
G02X0000177689Y0000385300I-0000001600J0D01*
G03X0000177689Y0000384700I0000000265J-0000000300D01*
G02X0000178230Y0000383500I-0000001059J-0000001200D01*
G02X0000175030Y0000383500I-0000001600J0D01*
G02X0000175571Y0000384700I0000001600J0D01*
G37*
G36*
G01X0000032167Y0000340864D02*
G03X0000032167Y0000341136I-0000000146J0000000136D01*
G02X0000031630Y0000342500I0000001463J0000001364D01*
G02X0000035630Y0000342500I0000002000J0D01*
G02X0000035093Y0000341136I-0000002000J0D01*
G03X0000035093Y0000340864I0000000146J-0000000136D01*
G02X0000035630Y0000339500I-0000001463J-0000001364D01*
G02X0000031630Y0000339500I-0000002000J0D01*
G02X0000032167Y0000340864I0000002000J0D01*
G37*
G36*
G01X0000011167Y0000338147D02*
G03X0000011167Y0000338420I-0000000146J0000000136D01*
G02X0000010630Y0000339784I0000001463J0000001364D01*
G02X0000014630Y0000339784I0000002000J0D01*
G02X0000014093Y0000338420I-0000002000J0D01*
G03X0000014093Y0000338147I0000000146J-0000000136D01*
G02X0000014630Y0000336784I-0000001463J-0000001364D01*
G02X0000013861Y0000335207I-0000002000J0D01*
G03X0000013861Y0000334577I0000000246J-0000000315D01*
G02X0000014630Y0000333000I-0000001231J-0000001577D01*
G02X0000014093Y0000331636I-0000002000J0D01*
G03X0000014093Y0000331364I0000000146J-0000000136D01*
G02X0000014630Y0000330000I-0000001463J-0000001364D01*
G02X0000010630Y0000330000I-0000002000J0D01*
G02X0000011167Y0000331364I0000002000J0D01*
G03X0000011167Y0000331636I-0000000146J0000000136D01*
G02X0000010630Y0000333000I0000001463J0000001364D01*
G02X0000011399Y0000334577I0000002000J0D01*
G03X0000011399Y0000335207I-0000000246J0000000315D01*
G02X0000010630Y0000336784I0000001231J0000001577D01*
G02X0000011167Y0000338147I0000002000J0D01*
G37*
G36*
G01X0000035667Y0000331864D02*
G03X0000035667Y0000332136I-0000000146J0000000136D01*
G02X0000035130Y0000333500I0000001463J0000001364D01*
G02X0000039130Y0000333500I0000002000J0D01*
G02X0000038593Y0000332136I-0000002000J0D01*
G03X0000038593Y0000331864I0000000146J-0000000136D01*
G02X0000039130Y0000330500I-0000001463J-0000001364D01*
G02X0000035130Y0000330500I-0000002000J0D01*
G02X0000035667Y0000331864I0000002000J0D01*
G37*
G36*
G01X0000324261Y0000328458D02*
G03X0000324261Y0000329042I-0000000274J0000000292D01*
G02X0000323630Y0000330500I0000001369J0000001458D01*
G02X0000327630Y0000330500I0000002000J0D01*
G02X0000326999Y0000329042I-0000002000J0D01*
G03X0000326999Y0000328458I0000000274J-0000000292D01*
G02X0000327630Y0000327000I-0000001369J-0000001458D01*
G02X0000323630Y0000327000I-0000002000J0D01*
G02X0000324261Y0000328458I0000002000J0D01*
G37*
G36*
G01X0000017239Y0000324493D02*
G03X0000017247Y0000325166I-0000000213J0000000339D01*
G02X0000016530Y0000326500I0000000883J0000001334D01*
G02X0000019730Y0000326500I0000001600J0D01*
G02X0000019477Y0000325637I-0000001600J0D01*
G03X0000019814Y0000325021I0000000337J-0000000216D01*
G01X0000023208Y0000325021D01*
G02X0000023208Y0000318115I0J-0000003453D01*
G01X0000019074Y0000318115D01*
G02X0000017239Y0000324493I0J0000003453D01*
G37*
G36*
G01X0000319761Y0000322552D02*
G03X0000319761Y0000323135I-0000000274J0000000292D01*
G02X0000319130Y0000324594I0000001369J0000001458D01*
G02X0000323130Y0000324594I0000002000J0D01*
G02X0000322499Y0000323135I-0000002000J0D01*
G03X0000322499Y0000322552I0000000274J-0000000292D01*
G02X0000323130Y0000321094I-0000001369J-0000001458D01*
G02X0000319130Y0000321094I-0000002000J0D01*
G02X0000319761Y0000322552I0000002000J0D01*
G37*
G36*
G01X0000324261Y0000316647D02*
G03X0000324261Y0000317231I-0000000274J0000000292D01*
G02X0000323630Y0000318689I0000001369J0000001458D01*
G02X0000327630Y0000318689I0000002000J0D01*
G02X0000326999Y0000317231I-0000002000J0D01*
G03X0000326999Y0000316647I0000000274J-0000000292D01*
G02X0000327630Y0000315189I-0000001369J-0000001458D01*
G02X0000323630Y0000315189I-0000002000J0D01*
G02X0000324261Y0000316647I0000002000J0D01*
G37*
G36*
G01X0000319761Y0000310741D02*
G03X0000319761Y0000311324I-0000000274J0000000292D01*
G02X0000319130Y0000312783I0000001369J0000001458D01*
G02X0000323130Y0000312783I0000002000J0D01*
G02X0000322499Y0000311324I-0000002000J0D01*
G03X0000322499Y0000310741I0000000274J-0000000292D01*
G02X0000323130Y0000309283I-0000001369J-0000001458D01*
G02X0000319130Y0000309283I-0000002000J0D01*
G02X0000319761Y0000310741I0000002000J0D01*
G37*
G36*
G01X0000324761Y0000304836D02*
G03X0000324761Y0000305420I-0000000274J0000000292D01*
G02X0000324130Y0000306878I0000001369J0000001458D01*
G02X0000328130Y0000306878I0000002000J0D01*
G02X0000327499Y0000305420I-0000002000J0D01*
G03X0000327499Y0000304836I0000000274J-0000000292D01*
G02X0000328130Y0000303378I-0000001369J-0000001458D01*
G02X0000324130Y0000303378I-0000002000J0D01*
G02X0000324761Y0000304836I0000002000J0D01*
G37*
G36*
G01X0000094071Y0000299200D02*
G03X0000094071Y0000299800I-0000000265J0000000300D01*
G02X0000093530Y0000301000I0000001059J0000001200D01*
G02X0000096730Y0000301000I0000001600J0D01*
G02X0000096189Y0000299800I-0000001600J0D01*
G03X0000096189Y0000299200I0000000265J-0000000300D01*
G02X0000096730Y0000298000I-0000001059J-0000001200D01*
G02X0000093530Y0000298000I-0000001600J0D01*
G02X0000094071Y0000299200I0000001600J0D01*
G37*
G36*
G01X0000326090Y0000286936D02*
G03X0000325790Y0000287436I-0000000385J0000000109D01*
G02X0000324530Y0000289000I0000000340J0000001564D01*
G02X0000326130Y0000290600I0000001600J0D01*
G02X0000327330Y0000290059I0J-0000001600D01*
G03X0000327930Y0000290059I0000000300J0000000265D01*
G02X0000329130Y0000290600I0000001200J-0000001059D01*
G02X0000330730Y0000289000I0J-0000001600D01*
G02X0000329470Y0000287436I-0000001600J0D01*
G03X0000329170Y0000286936I0000000085J-0000000391D01*
G02X0000329230Y0000286500I-0000001540J-0000000436D01*
G02X0000326030Y0000286500I-0000001600J0D01*
G02X0000326090Y0000286936I0000001600J0D01*
G37*
G36*
G01X0000221495Y0000217694D02*
G03X0000221495Y0000218353I-0000000227J0000000329D01*
G02X0000220630Y0000220000I0000001135J0000001647D01*
G02X0000224630Y0000220000I0000002000J0D01*
G02X0000223765Y0000218353I-0000002000J0D01*
G03X0000223765Y0000217694I0000000227J-0000000329D01*
G02X0000224630Y0000216048I-0000001135J-0000001647D01*
G02X0000220630Y0000216048I-0000002000J0D01*
G02X0000221495Y0000217694I0000002000J0D01*
G37*
G36*
G01X0000200598Y0000217167D02*
G03X0000200598Y0000217833I-0000000221J0000000333D01*
G02X0000199704Y0000219500I0000001106J0000001667D01*
G02X0000203705Y0000219500I0000002000J0D01*
G02X0000202810Y0000217833I-0000002000J0D01*
G03X0000202810Y0000217167I0000000221J-0000000333D01*
G02X0000203705Y0000215500I-0000001106J-0000001667D01*
G02X0000199704Y0000215500I-0000002000J0D01*
G02X0000200598Y0000217167I0000002000J0D01*
G37*
G36*
G01X0000121167Y0000217864D02*
G03X0000121167Y0000218136I-0000000146J0000000136D01*
G02X0000120630Y0000219500I0000001463J0000001364D01*
G02X0000124630Y0000219500I0000002000J0D01*
G02X0000124093Y0000218136I-0000002000J0D01*
G03X0000124093Y0000217864I0000000146J-0000000136D01*
G02X0000124630Y0000216500I-0000001463J-0000001364D01*
G02X0000120630Y0000216500I-0000002000J0D01*
G02X0000121167Y0000217864I0000002000J0D01*
G37*
G36*
G01X0000209569Y0000217046D02*
G03X0000209569Y0000217705I-0000000227J0000000329D01*
G02X0000208704Y0000219352I0000001135J0000001647D01*
G02X0000212705Y0000219352I0000002000J0D01*
G02X0000211840Y0000217705I-0000002000J0D01*
G03X0000211840Y0000217046I0000000227J-0000000329D01*
G02X0000212705Y0000215400I-0000001135J-0000001647D01*
G02X0000208704Y0000215400I-0000002000J0D01*
G02X0000209569Y0000217046I0000002000J0D01*
G37*
G36*
G01X0000124762Y0000210910D02*
G03X0000124762Y0000211183I-0000000146J0000000136D01*
G02X0000124226Y0000212546I0000001463J0000001364D01*
G02X0000128226Y0000212546I0000002000J0D01*
G02X0000127689Y0000211183I-0000002000J0D01*
G03X0000127689Y0000210910I0000000146J-0000000136D01*
G02X0000128226Y0000209546I-0000001463J-0000001364D01*
G02X0000124226Y0000209546I-0000002000J0D01*
G02X0000124762Y0000210910I0000002000J0D01*
G37*
G36*
G01X0000125167Y0000202364D02*
G03X0000125167Y0000202636I-0000000146J0000000136D01*
G02X0000124630Y0000204000I0000001463J0000001364D01*
G02X0000128630Y0000204000I0000002000J0D01*
G02X0000128093Y0000202636I-0000002000J0D01*
G03X0000128093Y0000202364I0000000146J-0000000136D01*
G02X0000128630Y0000201000I-0000001463J-0000001364D01*
G02X0000124630Y0000201000I-0000002000J0D01*
G02X0000125167Y0000202364I0000002000J0D01*
G37*
G36*
G01X0000210495Y0000201046D02*
G03X0000210495Y0000201705I-0000000227J0000000329D01*
G02X0000209630Y0000203352I0000001135J0000001647D01*
G02X0000213630Y0000203352I0000002000J0D01*
G02X0000212765Y0000201705I-0000002000J0D01*
G03X0000212765Y0000201046I0000000227J-0000000329D01*
G02X0000213630Y0000199400I-0000001135J-0000001647D01*
G02X0000209630Y0000199400I-0000002000J0D01*
G02X0000210495Y0000201046I0000002000J0D01*
G37*
G36*
G01X0000200667Y0000201364D02*
G03X0000200667Y0000201636I-0000000146J0000000136D01*
G02X0000200130Y0000203000I0000001463J0000001364D01*
G02X0000204130Y0000203000I0000002000J0D01*
G02X0000203593Y0000201636I-0000002000J0D01*
G03X0000203593Y0000201364I0000000146J-0000000136D01*
G02X0000204130Y0000200000I-0000001463J-0000001364D01*
G02X0000200130Y0000200000I-0000002000J0D01*
G02X0000200667Y0000201364I0000002000J0D01*
G37*
G36*
G01X0000125167Y0000193864D02*
G03X0000125167Y0000194136I-0000000146J0000000136D01*
G02X0000124630Y0000195500I0000001463J0000001364D01*
G02X0000128630Y0000195500I0000002000J0D01*
G02X0000128093Y0000194136I-0000002000J0D01*
G03X0000128093Y0000193864I0000000146J-0000000136D01*
G02X0000128630Y0000192500I-0000001463J-0000001364D01*
G02X0000124630Y0000192500I-0000002000J0D01*
G02X0000125167Y0000193864I0000002000J0D01*
G37*
G36*
G01X0000046214Y0000186251D02*
G03X0000046214Y0000186967I-0000000179J0000000358D01*
G02X0000044000Y0000190546I0000001786J0000003579D01*
G02X0000052000Y0000190546I0000004000J0D01*
G02X0000049786Y0000186967I-0000004000J0D01*
G03X0000049786Y0000186251I0000000179J-0000000358D01*
G02X0000052000Y0000182672I-0000001786J-0000003579D01*
G02X0000044000Y0000182672I-0000004000J0D01*
G02X0000046214Y0000186251I0000004000J0D01*
G37*
G36*
G01X0000161667Y0000181210D02*
G03X0000161667Y0000181482I-0000000146J0000000136D01*
G02X0000161130Y0000182846I0000001463J0000001364D01*
G02X0000165130Y0000182846I0000002000J0D01*
G02X0000164593Y0000181482I-0000002000J0D01*
G03X0000164593Y0000181210I0000000146J-0000000136D01*
G02X0000165130Y0000179846I-0000001463J-0000001364D01*
G02X0000161130Y0000179846I-0000002000J0D01*
G02X0000161667Y0000181210I0000002000J0D01*
G37*
G36*
G01X0000063930Y0000176941D02*
G03X0000063330Y0000176941I-0000000300J-0000000265D01*
G02X0000062130Y0000176400I-0000001200J0000001059D01*
G02X0000062130Y0000179600I0J0000001600D01*
G02X0000063330Y0000179059I0J-0000001600D01*
G03X0000063930Y0000179059I0000000300J0000000265D01*
G02X0000065130Y0000179600I0000001200J-0000001059D01*
G02X0000065130Y0000176400I0J-0000001600D01*
G02X0000063930Y0000176941I0J0000001600D01*
G37*
G36*
G01X0000159167Y0000173864D02*
G03X0000159167Y0000174136I-0000000146J0000000136D01*
G02X0000158630Y0000175500I0000001463J0000001364D01*
G02X0000162630Y0000175500I0000002000J0D01*
G02X0000162093Y0000174136I-0000002000J0D01*
G03X0000162093Y0000173864I0000000146J-0000000136D01*
G02X0000162630Y0000172500I-0000001463J-0000001364D01*
G02X0000158630Y0000172500I-0000002000J0D01*
G02X0000159167Y0000173864I0000002000J0D01*
G37*
G36*
G01X0000164167Y0000167037D02*
G03X0000164167Y0000167310I-0000000146J0000000136D01*
G02X0000163630Y0000168673I0000001463J0000001364D01*
G02X0000167630Y0000168673I0000002000J0D01*
G02X0000167093Y0000167310I-0000002000J0D01*
G03X0000167093Y0000167037I0000000146J-0000000136D01*
G02X0000167630Y0000165673I-0000001463J-0000001364D01*
G02X0000163630Y0000165673I-0000002000J0D01*
G02X0000164167Y0000167037I0000002000J0D01*
G37*
G36*
G01X0000348571Y0000161700D02*
G03X0000348571Y0000162300I-0000000265J0000000300D01*
G02X0000348030Y0000163500I0000001059J0000001200D01*
G02X0000351230Y0000163500I0000001600J0D01*
G02X0000350689Y0000162300I-0000001600J0D01*
G03X0000350689Y0000161700I0000000265J-0000000300D01*
G02X0000351230Y0000160500I-0000001059J-0000001200D01*
G02X0000350769Y0000159376I-0000001600J0D01*
G03X0000350749Y0000158836I0000000285J-0000000281D01*
G02X0000351130Y0000157800I-0000001219J-0000001036D01*
G02X0000347930Y0000157800I-0000001600J0D01*
G02X0000348391Y0000158924I0000001600J0D01*
G03X0000348411Y0000159464I-0000000285J0000000281D01*
G02X0000348030Y0000160500I0000001219J0000001036D01*
G02X0000348571Y0000161700I0000001600J0D01*
G37*
G36*
G01X0000159167Y0000159864D02*
G03X0000159167Y0000160136I-0000000146J0000000136D01*
G02X0000158630Y0000161500I0000001463J0000001364D01*
G02X0000162630Y0000161500I0000002000J0D01*
G02X0000162093Y0000160136I-0000002000J0D01*
G03X0000162093Y0000159864I0000000146J-0000000136D01*
G02X0000162630Y0000158500I-0000001463J-0000001364D01*
G02X0000158630Y0000158500I-0000002000J0D01*
G02X0000159167Y0000159864I0000002000J0D01*
G37*
G36*
G01X0000340672Y0000157631D02*
G03X0000340088Y0000157631I-0000000292J-0000000274D01*
G02X0000338630Y0000157000I-0000001458J0000001369D01*
G02X0000338630Y0000161000I0J0000002000D01*
G02X0000340088Y0000160369I0J-0000002000D01*
G03X0000340672Y0000160369I0000000292J0000000274D01*
G02X0000342130Y0000161000I0000001458J-0000001369D01*
G02X0000342130Y0000157000I0J-0000002000D01*
G02X0000340672Y0000157631I0J0000002000D01*
G37*
G36*
G01X0000164167Y0000152864D02*
G03X0000164167Y0000153136I-0000000146J0000000136D01*
G02X0000163630Y0000154500I0000001463J0000001364D01*
G02X0000167630Y0000154500I0000002000J0D01*
G02X0000167093Y0000153136I-0000002000J0D01*
G03X0000167093Y0000152864I0000000146J-0000000136D01*
G02X0000167630Y0000151500I-0000001463J-0000001364D01*
G02X0000163630Y0000151500I-0000002000J0D01*
G02X0000164167Y0000152864I0000002000J0D01*
G37*
G36*
G01X0000340672Y0000151631D02*
G03X0000340088Y0000151631I-0000000292J-0000000274D01*
G02X0000338630Y0000151000I-0000001458J0000001369D01*
G02X0000338630Y0000155000I0J0000002000D01*
G02X0000340088Y0000154369I0J-0000002000D01*
G03X0000340672Y0000154369I0000000292J0000000274D01*
G02X0000342130Y0000155000I0000001458J-0000001369D01*
G02X0000342130Y0000151000I0J-0000002000D01*
G02X0000340672Y0000151631I0J0000002000D01*
G37*
G36*
G01X0000340672Y0000146131D02*
G03X0000340088Y0000146131I-0000000292J-0000000274D01*
G02X0000338630Y0000145500I-0000001458J0000001369D01*
G02X0000338630Y0000149500I0J0000002000D01*
G02X0000340088Y0000148869I0J-0000002000D01*
G03X0000340672Y0000148869I0000000292J0000000274D01*
G02X0000342130Y0000149500I0000001458J-0000001369D01*
G02X0000342130Y0000145500I0J-0000002000D01*
G02X0000340672Y0000146131I0J0000002000D01*
G37*
G36*
G01X0000340672Y0000140631D02*
G03X0000340088Y0000140631I-0000000292J-0000000274D01*
G02X0000338630Y0000140000I-0000001458J0000001369D01*
G02X0000338630Y0000144000I0J0000002000D01*
G02X0000340088Y0000143369I0J-0000002000D01*
G03X0000340672Y0000143369I0000000292J0000000274D01*
G02X0000342130Y0000144000I0000001458J-0000001369D01*
G02X0000342130Y0000140000I0J-0000002000D01*
G02X0000340672Y0000140631I0J0000002000D01*
G37*
G36*
G01X0000340672Y0000135131D02*
G03X0000340088Y0000135131I-0000000292J-0000000274D01*
G02X0000338630Y0000134500I-0000001458J0000001369D01*
G02X0000338630Y0000138500I0J0000002000D01*
G02X0000340088Y0000137869I0J-0000002000D01*
G03X0000340672Y0000137869I0000000292J0000000274D01*
G02X0000342130Y0000138500I0000001458J-0000001369D01*
G02X0000342130Y0000134500I0J-0000002000D01*
G02X0000340672Y0000135131I0J0000002000D01*
G37*
G36*
G01X0000047571Y0000098200D02*
G03X0000047571Y0000098800I-0000000265J0000000300D01*
G02X0000047030Y0000100000I0000001059J0000001200D01*
G02X0000050230Y0000100000I0000001600J0D01*
G02X0000049689Y0000098800I-0000001600J0D01*
G03X0000049689Y0000098200I0000000265J-0000000300D01*
G02X0000050230Y0000097000I-0000001059J-0000001200D01*
G02X0000047030Y0000097000I-0000001600J0D01*
G02X0000047571Y0000098200I0000001600J0D01*
G37*
G36*
G01X0000025571Y0000098200D02*
G03X0000025571Y0000098800I-0000000265J0000000300D01*
G02X0000025030Y0000100000I0000001059J0000001200D01*
G02X0000028230Y0000100000I0000001600J0D01*
G02X0000027689Y0000098800I-0000001600J0D01*
G03X0000027689Y0000098200I0000000265J-0000000300D01*
G02X0000028230Y0000097000I-0000001059J-0000001200D01*
G02X0000025030Y0000097000I-0000001600J0D01*
G02X0000025571Y0000098200I0000001600J0D01*
G37*
G36*
G01X0000120571Y0000083700D02*
G03X0000120571Y0000084300I-0000000265J0000000300D01*
G02X0000120030Y0000085500I0000001059J0000001200D01*
G02X0000121630Y0000087100I0000001600J0D01*
G02X0000122830Y0000086559I0J-0000001600D01*
G03X0000123430Y0000086559I0000000300J0000000265D01*
G02X0000124630Y0000087100I0000001200J-0000001059D01*
G02X0000126230Y0000085500I0J-0000001600D01*
G02X0000125689Y0000084300I-0000001600J0D01*
G03X0000125689Y0000083700I0000000265J-0000000300D01*
G02X0000126230Y0000082500I-0000001059J-0000001200D01*
G02X0000124630Y0000080900I-0000001600J0D01*
G02X0000123430Y0000081441I0J0000001600D01*
G03X0000122830Y0000081441I-0000000300J-0000000265D01*
G02X0000121630Y0000080900I-0000001200J0000001059D01*
G02X0000120030Y0000082500I0J0000001600D01*
G02X0000120571Y0000083700I0000001600J0D01*
G37*
G36*
G01X0000120535Y0000071066D02*
G03X0000119912Y0000071043I-0000000302J-0000000262D01*
G02X0000118630Y0000070400I-0000001283J0000000957D01*
G02X0000118630Y0000073600I0J0000001600D01*
G02X0000119839Y0000073048I0J-0000001600D01*
G03X0000120462Y0000073071I0000000302J0000000262D01*
G02X0000121744Y0000073714I0000001283J-0000000957D01*
G02X0000121744Y0000070514I0J-0000001600D01*
G02X0000120535Y0000071066I0J0000001600D01*
G37*
G36*
G01X0000298571Y0000039200D02*
G03X0000298571Y0000039800I-0000000265J0000000300D01*
G02X0000298030Y0000041000I0000001059J0000001200D01*
G02X0000301230Y0000041000I0000001600J0D01*
G02X0000300689Y0000039800I-0000001600J0D01*
G03X0000300689Y0000039200I0000000265J-0000000300D01*
G02X0000301230Y0000038000I-0000001059J-0000001200D01*
G02X0000298030Y0000038000I-0000001600J0D01*
G02X0000298571Y0000039200I0000001600J0D01*
G37*
G36*
G01X0000109071Y0000017700D02*
G03X0000109071Y0000018300I-0000000265J0000000300D01*
G02X0000108530Y0000019500I0000001059J0000001200D01*
G02X0000111730Y0000019500I0000001600J0D01*
G02X0000111189Y0000018300I-0000001600J0D01*
G03X0000111189Y0000017700I0000000265J-0000000300D01*
G02X0000111730Y0000016500I-0000001059J-0000001200D01*
G02X0000108530Y0000016500I-0000001600J0D01*
G02X0000109071Y0000017700I0000001600J0D01*
G37*
G36*
G01X0000209478Y0000017611D02*
G03X0000209478Y0000017889I-0000000144J0000000139D01*
G02X0000209030Y0000019000I0000001151J0000001111D01*
G02X0000212230Y0000019000I0000001600J0D01*
G02X0000211782Y0000017889I-0000001600J0D01*
G03X0000211782Y0000017611I0000000144J-0000000139D01*
G02X0000212230Y0000016500I-0000001151J-0000001111D01*
G02X0000209030Y0000016500I-0000001600J0D01*
G02X0000209478Y0000017611I0000001600J0D01*
G37*
G36*
G01X0000044000Y0000169829D02*
X0000044000Y0000175829D01*
G02X0000045000Y0000176830I0000001000J0D01*
G01X0000051000Y0000176830D01*
G02X0000052000Y0000175829I0J-0000001000D01*
G01X0000052000Y0000169829D01*
G02X0000051000Y0000168829I-0000001000J0D01*
G01X0000045000Y0000168829D01*
G02X0000044000Y0000169829I0J0000001000D01*
G37*
G36*
G01X0000020004Y0000253329D02*
X0000022366Y0000253329D01*
G02X0000022366Y0000247998I0J-0000002665D01*
G01X0000020004Y0000247998D01*
G02X0000020004Y0000253329I0J0000002666D01*
G37*
G36*
G01X0000020004Y0000287345D02*
X0000022366Y0000287345D01*
G02X0000022366Y0000282014I0J-0000002665D01*
G01X0000020004Y0000282014D01*
G02X0000020004Y0000287345I0J0000002666D01*
G37*
G36*
G01X0000019074Y0000349430D02*
X0000023208Y0000349430D01*
G02X0000023208Y0000342524I0J-0000003453D01*
G01X0000019074Y0000342524D01*
G02X0000019074Y0000349430I0J0000003453D01*
G37*
G54D22*
X0000043670Y0000160822D03*
X0000043670Y0000212397D03*
G54D25*
X0000273228Y0000351575D03*
G54D26*
X0000273228Y0000109055D03*
G54D20*
X0000069630Y0000153500D03*
X0000074630Y0000153500D03*
X0000053130Y0000334500D03*
X0000047630Y0000310500D03*
X0000156630Y0000070500D03*
X0000273630Y0000313000D03*
X0000093130Y0000285500D03*
X0000051630Y0000310500D03*
X0000277630Y0000317500D03*
X0000293630Y0000070500D03*
X0000056630Y0000346000D03*
X0000047630Y0000315000D03*
X0000164130Y0000312500D03*
X0000056630Y0000350500D03*
X0000026130Y0000385614D03*
X0000273630Y0000317500D03*
X0000051630Y0000315000D03*
X0000152630Y0000070500D03*
X0000297630Y0000070500D03*
X0000090549Y0000271419D03*
X0000069630Y0000158000D03*
X0000156630Y0000063000D03*
X0000166630Y0000291000D03*
X0000289945Y0000250185D03*
X0000074630Y0000158000D03*
X0000022130Y0000389000D03*
X0000126130Y0000306386D03*
X0000199130Y0000254500D03*
X0000166630Y0000279500D03*
X0000194130Y0000254500D03*
X0000126130Y0000297114D03*
X0000140130Y0000317126D03*
X0000157130Y0000338386D03*
X0000194130Y0000266000D03*
X0000189567Y0000271063D03*
X0000157331Y0000331299D03*
X0000194630Y0000280500D03*
X0000205130Y0000254500D03*
X0000157130Y0000352559D03*
X0000144630Y0000324213D03*
X0000189630Y0000337205D03*
X0000157528Y0000243898D03*
X0000189559Y0000341929D03*
X0000161630Y0000338500D03*
X0000157630Y0000238000D03*
X0000175130Y0000265000D03*
X0000157130Y0000345472D03*
X0000157630Y0000279331D03*
X0000157630Y0000247500D03*
X0000157683Y0000274553D03*
X0000189630Y0000266339D03*
X0000144630Y0000358000D03*
X0000194130Y0000261500D03*
X0000162130Y0000263000D03*
X0000162130Y0000274500D03*
X0000325130Y0000159500D03*
X0000189630Y0000315945D03*
X0000290130Y0000219500D03*
X0000207630Y0000422500D03*
X0000194130Y0000275500D03*
X0000208630Y0000396500D03*
X0000140130Y0000324000D03*
X0000194630Y0000311000D03*
X0000162130Y0000284500D03*
X0000067630Y0000384000D03*
X0000095630Y0000337000D03*
X0000162130Y0000269500D03*
X0000067744Y0000348886D03*
X0000091630Y0000401500D03*
X0000194130Y0000342000D03*
X0000102044Y0000337086D03*
X0000166630Y0000284500D03*
X0000101130Y0000361500D03*
X0000140130Y0000358000D03*
X0000085630Y0000372693D03*
X0000073630Y0000378500D03*
X0000085630Y0000365000D03*
X0000053130Y0000325000D03*
X0000090630Y0000365000D03*
X0000144630Y0000362500D03*
X0000140130Y0000362500D03*
X0000067630Y0000379992D03*
X0000193630Y0000332500D03*
X0000090630Y0000372500D03*
X0000189618Y0000280512D03*
X0000084130Y0000232000D03*
X0000095667Y0000238537D03*
X0000038630Y0000315000D03*
X0000116630Y0000231000D03*
X0000077744Y0000274386D03*
X0000090549Y0000238581D03*
X0000121130Y0000227000D03*
X0000152630Y0000074500D03*
X0000152630Y0000078500D03*
X0000026130Y0000381500D03*
X0000079638Y0000280992D03*
X0000105630Y0000361500D03*
X0000093130Y0000328000D03*
X0000161630Y0000331500D03*
X0000156630Y0000078500D03*
X0000156630Y0000074500D03*
X0000121130Y0000231000D03*
X0000028741Y0000342889D03*
X0000211630Y0000422500D03*
X0000104130Y0000113000D03*
X0000070130Y0000132000D03*
X0000105622Y0000032000D03*
X0000067630Y0000117500D03*
X0000101291Y0000032000D03*
X0000109630Y0000076000D03*
X0000096961Y0000032000D03*
X0000074630Y0000170000D03*
X0000125130Y0000052500D03*
X0000125130Y0000056500D03*
X0000121130Y0000052500D03*
X0000208630Y0000390500D03*
X0000026490Y0000269640D03*
X0000121130Y0000056500D03*
X0000069630Y0000165500D03*
X0000161630Y0000345500D03*
X0000093108Y0000236000D03*
X0000117130Y0000052500D03*
X0000117130Y0000056500D03*
X0000116630Y0000227000D03*
X0000069630Y0000170000D03*
X0000098630Y0000328000D03*
X0000026427Y0000265703D03*
X0000066630Y0000072500D03*
X0000157630Y0000258071D03*
X0000066630Y0000076500D03*
X0000099630Y0000117500D03*
X0000071130Y0000072500D03*
X0000122945Y0000030000D03*
X0000074630Y0000165500D03*
X0000108630Y0000117500D03*
X0000048630Y0000058894D03*
X0000037130Y0000274000D03*
X0000071130Y0000076500D03*
X0000063130Y0000088500D03*
X0000048630Y0000068736D03*
X0000104130Y0000117500D03*
X0000238630Y0000081114D03*
X0000048630Y0000088500D03*
X0000075630Y0000072500D03*
X0000074630Y0000117500D03*
X0000067630Y0000112000D03*
X0000127276Y0000030000D03*
X0000090790Y0000188340D03*
X0000090630Y0000193000D03*
X0000108630Y0000113000D03*
X0000075630Y0000076500D03*
X0000063130Y0000079000D03*
X0000124516Y0000252886D03*
X0000279016Y0000012114D03*
X0000104130Y0000086500D03*
X0000144630Y0000328937D03*
X0000083130Y0000284500D03*
X0000075130Y0000112000D03*
X0000048630Y0000078579D03*
X0000327130Y0000171000D03*
X0000290130Y0000245185D03*
X0000309630Y0000289000D03*
X0000309630Y0000294500D03*
X0000314130Y0000294500D03*
X0000114130Y0000032000D03*
X0000300130Y0000031500D03*
X0000232687Y0000055557D03*
X0000232687Y0000050557D03*
X0000237630Y0000055500D03*
X0000237630Y0000050500D03*
X0000296130Y0000031500D03*
X0000326130Y0000119000D03*
X0000322130Y0000119000D03*
X0000285130Y0000026000D03*
X0000285630Y0000037500D03*
X0000330130Y0000128000D03*
X0000326130Y0000128000D03*
X0000322130Y0000128000D03*
X0000290130Y0000226000D03*
X0000310630Y0000262500D03*
X0000276380Y0000323250D03*
X0000194630Y0000410500D03*
X0000290130Y0000255685D03*
X0000278630Y0000045500D03*
X0000123630Y0000184000D03*
X0000099130Y0000281500D03*
X0000290130Y0000261185D03*
X0000310630Y0000268685D03*
X0000309630Y0000300000D03*
X0000314130Y0000300000D03*
X0000292744Y0000045500D03*
X0000314130Y0000289000D03*
X0000276630Y0000327500D03*
X0000275130Y0000070614D03*
X0000277630Y0000313000D03*
X0000162130Y0000258000D03*
X0000106744Y0000212886D03*
X0000108130Y0000136500D03*
X0000161130Y0000142000D03*
X0000157130Y0000137598D03*
X0000161130Y0000137500D03*
G54D21*
X0000048000Y0000200389D03*
G54D24*
X0000166929Y0000098819D03*
G54D27*
X0000009500Y0000401843D03*
G54D28*
X0000009500Y0000382158D03*
G54D23*
X0000166929Y0000361811D03*
%LPD*%
G75*
G54D10*
X0000015748Y0000015748D03*
X0000015748Y0000437008D03*
X0000166929Y0000098819D03*
X0000338619Y0000015748D03*
X0000338619Y0000437008D03*
G54D11*
X0000005630Y0000035000D03*
X0000005630Y0000055000D03*
X0000005630Y0000075000D03*
X0000005630Y0000065000D03*
X0000005630Y0000095000D03*
X0000005630Y0000085000D03*
X0000005630Y0000113500D03*
X0000005630Y0000105000D03*
X0000005630Y0000125000D03*
X0000005630Y0000145000D03*
X0000005630Y0000135000D03*
X0000005630Y0000155000D03*
X0000009630Y0000218000D03*
X0000004130Y0000218000D03*
X0000005630Y0000235000D03*
X0000005630Y0000225000D03*
X0000005630Y0000245000D03*
X0000005630Y0000270000D03*
X0000005630Y0000260000D03*
X0000005630Y0000280000D03*
X0000005630Y0000305000D03*
X0000005630Y0000295000D03*
X0000005630Y0000315000D03*
X0000005630Y0000340000D03*
X0000005630Y0000330000D03*
X0000012630Y0000330000D03*
X0000012630Y0000339784D03*
X0000012630Y0000336784D03*
X0000012630Y0000333000D03*
X0000005630Y0000355000D03*
X0000005630Y0000375000D03*
X0000005630Y0000365000D03*
X0000005630Y0000395000D03*
X0000005630Y0000385000D03*
X0000005630Y0000415000D03*
X0000005630Y0000425000D03*
X0000025630Y0000045000D03*
X0000025630Y0000035000D03*
X0000015630Y0000035000D03*
X0000015630Y0000055000D03*
X0000025630Y0000055000D03*
X0000025630Y0000075000D03*
X0000015630Y0000075000D03*
X0000025630Y0000065000D03*
X0000015630Y0000065000D03*
X0000026630Y0000097000D03*
X0000015630Y0000095000D03*
X0000015630Y0000085000D03*
X0000025630Y0000085000D03*
X0000026630Y0000100000D03*
X0000025630Y0000113500D03*
X0000015630Y0000113500D03*
X0000015630Y0000105000D03*
X0000025630Y0000105000D03*
X0000025630Y0000125000D03*
X0000015630Y0000125000D03*
X0000025630Y0000145000D03*
X0000015630Y0000145000D03*
X0000015630Y0000135000D03*
X0000025630Y0000135000D03*
X0000025630Y0000155000D03*
X0000026130Y0000217500D03*
X0000025630Y0000235000D03*
X0000015630Y0000235000D03*
X0000025630Y0000225000D03*
X0000015630Y0000225000D03*
X0000015630Y0000245000D03*
X0000025630Y0000245000D03*
X0000025630Y0000255000D03*
X0000015630Y0000270000D03*
X0000015630Y0000260000D03*
X0000028630Y0000274000D03*
X0000032130Y0000274000D03*
X0000026427Y0000265703D03*
X0000026490Y0000269640D03*
X0000015630Y0000280000D03*
X0000025630Y0000305000D03*
X0000015630Y0000305000D03*
X0000015630Y0000295000D03*
X0000025630Y0000295000D03*
X0000016130Y0000328500D03*
X0000015630Y0000315000D03*
X0000025630Y0000315000D03*
X0000018130Y0000326500D03*
X0000031630Y0000326500D03*
X0000032130Y0000331000D03*
X0000031130Y0000344000D03*
X0000015630Y0000334500D03*
X0000031130Y0000337000D03*
X0000017630Y0000340500D03*
X0000028741Y0000342889D03*
X0000015630Y0000355000D03*
X0000025630Y0000355000D03*
X0000015630Y0000375000D03*
X0000025630Y0000375000D03*
X0000025630Y0000365000D03*
X0000015630Y0000365000D03*
X0000026130Y0000381500D03*
X0000015630Y0000395000D03*
X0000015630Y0000385000D03*
X0000026130Y0000385614D03*
X0000022130Y0000389000D03*
X0000025630Y0000405000D03*
X0000025630Y0000415000D03*
X0000015630Y0000405000D03*
X0000015630Y0000415000D03*
X0000025630Y0000425000D03*
X0000035630Y0000005000D03*
X0000045630Y0000005000D03*
X0000035630Y0000025000D03*
X0000045630Y0000025000D03*
X0000035630Y0000015000D03*
X0000045630Y0000015000D03*
X0000035630Y0000045000D03*
X0000035630Y0000035000D03*
X0000045630Y0000035000D03*
X0000048630Y0000058894D03*
X0000048630Y0000078579D03*
X0000048630Y0000068736D03*
X0000048630Y0000097000D03*
X0000048630Y0000088500D03*
X0000048630Y0000100000D03*
X0000048630Y0000105000D03*
X0000048630Y0000110000D03*
X0000048630Y0000116000D03*
X0000048630Y0000123000D03*
X0000035630Y0000145000D03*
X0000035630Y0000155000D03*
X0000040630Y0000185000D03*
X0000040630Y0000175000D03*
X0000040630Y0000205000D03*
X0000040630Y0000195000D03*
X0000040630Y0000220000D03*
X0000035630Y0000235000D03*
X0000035630Y0000225000D03*
X0000040630Y0000230000D03*
X0000035630Y0000240000D03*
X0000040630Y0000235000D03*
X0000035630Y0000230000D03*
X0000035630Y0000245000D03*
X0000035630Y0000255000D03*
X0000047630Y0000251500D03*
X0000047630Y0000255500D03*
X0000037130Y0000265000D03*
X0000037130Y0000270000D03*
X0000037130Y0000274000D03*
X0000035630Y0000285000D03*
X0000035630Y0000295000D03*
X0000047630Y0000310500D03*
X0000040130Y0000328500D03*
X0000038630Y0000315000D03*
X0000047630Y0000315000D03*
X0000033630Y0000328500D03*
X0000034130Y0000324000D03*
X0000041630Y0000346500D03*
X0000048099Y0000346000D03*
X0000040130Y0000334500D03*
X0000037130Y0000330500D03*
X0000037130Y0000333500D03*
X0000033630Y0000339500D03*
X0000033630Y0000342500D03*
X0000035630Y0000355000D03*
X0000041630Y0000355000D03*
X0000035630Y0000365000D03*
X0000035630Y0000375000D03*
X0000033130Y0000381000D03*
X0000040630Y0000381000D03*
X0000041130Y0000372000D03*
X0000041630Y0000365000D03*
X0000045630Y0000405000D03*
X0000045630Y0000415000D03*
X0000035630Y0000405000D03*
X0000035630Y0000415000D03*
X0000045130Y0000425000D03*
X0000035130Y0000425000D03*
X0000055630Y0000005000D03*
X0000065630Y0000005000D03*
X0000055630Y0000025000D03*
X0000055630Y0000015000D03*
X0000065630Y0000015000D03*
X0000065630Y0000045000D03*
X0000065630Y0000055000D03*
X0000055630Y0000055000D03*
X0000060630Y0000060000D03*
X0000063130Y0000079000D03*
X0000066630Y0000072500D03*
X0000066630Y0000076500D03*
X0000060630Y0000070000D03*
X0000063130Y0000088500D03*
X0000066630Y0000095000D03*
X0000066630Y0000090000D03*
X0000066630Y0000104000D03*
X0000066630Y0000099000D03*
X0000067630Y0000112000D03*
X0000067630Y0000117500D03*
X0000062130Y0000178000D03*
X0000065130Y0000178000D03*
X0000061750Y0000195880D03*
X0000064750Y0000195880D03*
X0000050630Y0000220000D03*
X0000060630Y0000225500D03*
X0000051130Y0000251500D03*
X0000051130Y0000255500D03*
X0000051630Y0000310500D03*
X0000053130Y0000325000D03*
X0000067630Y0000327000D03*
X0000051630Y0000315000D03*
X0000053130Y0000334500D03*
X0000056630Y0000346000D03*
X0000067744Y0000348886D03*
X0000067744Y0000352114D03*
X0000057630Y0000359000D03*
X0000061130Y0000364000D03*
X0000064130Y0000359000D03*
X0000056630Y0000350500D03*
X0000067630Y0000379992D03*
X0000057630Y0000376500D03*
X0000057630Y0000368000D03*
X0000061130Y0000372000D03*
X0000064130Y0000368000D03*
X0000067630Y0000384000D03*
X0000065630Y0000405000D03*
X0000065630Y0000415000D03*
X0000055630Y0000405000D03*
X0000055630Y0000415000D03*
X0000065130Y0000425000D03*
X0000055130Y0000425000D03*
X0000075630Y0000005000D03*
X0000070630Y0000010000D03*
X0000070630Y0000005000D03*
X0000085630Y0000025000D03*
X0000085630Y0000035000D03*
X0000075630Y0000035000D03*
X0000075630Y0000045000D03*
X0000085630Y0000045000D03*
X0000075630Y0000055000D03*
X0000085630Y0000055000D03*
X0000071130Y0000076500D03*
X0000071130Y0000072500D03*
X0000075630Y0000072500D03*
X0000075630Y0000076500D03*
X0000073130Y0000095000D03*
X0000073130Y0000099000D03*
X0000083130Y0000112000D03*
X0000083130Y0000108000D03*
X0000075130Y0000112000D03*
X0000070130Y0000132000D03*
X0000070130Y0000126500D03*
X0000074630Y0000117500D03*
X0000069630Y0000165500D03*
X0000074630Y0000165500D03*
X0000069630Y0000158000D03*
X0000074630Y0000158000D03*
X0000069630Y0000153500D03*
X0000074630Y0000153500D03*
X0000070630Y0000183000D03*
X0000069630Y0000170000D03*
X0000074630Y0000170000D03*
X0000083744Y0000192886D03*
X0000075130Y0000217500D03*
X0000084130Y0000240000D03*
X0000084130Y0000236000D03*
X0000084130Y0000232000D03*
X0000074630Y0000239500D03*
X0000084130Y0000258000D03*
X0000074630Y0000243000D03*
X0000084130Y0000269500D03*
X0000077744Y0000274386D03*
X0000069130Y0000292000D03*
X0000083130Y0000284500D03*
X0000079638Y0000280992D03*
X0000073630Y0000302500D03*
X0000069130Y0000298500D03*
X0000073630Y0000311500D03*
X0000073630Y0000319500D03*
X0000073630Y0000327000D03*
X0000068130Y0000319500D03*
X0000083630Y0000337000D03*
X0000069130Y0000359000D03*
X0000069130Y0000364000D03*
X0000085630Y0000361000D03*
X0000085630Y0000357500D03*
X0000073630Y0000378500D03*
X0000085630Y0000365000D03*
X0000085630Y0000372693D03*
X0000085630Y0000405000D03*
X0000085630Y0000415000D03*
X0000075630Y0000405000D03*
X0000075630Y0000415000D03*
X0000085130Y0000425000D03*
X0000075130Y0000425000D03*
X0000102130Y0000018500D03*
X0000102130Y0000014500D03*
X0000096630Y0000016000D03*
X0000090630Y0000020000D03*
X0000095630Y0000045000D03*
X0000091630Y0000029500D03*
X0000095130Y0000038000D03*
X0000096961Y0000032000D03*
X0000101291Y0000032000D03*
X0000101646Y0000063016D03*
X0000097204Y0000067574D03*
X0000098630Y0000076000D03*
X0000098630Y0000086500D03*
X0000099130Y0000097500D03*
X0000086630Y0000110000D03*
X0000090130Y0000112000D03*
X0000090130Y0000108000D03*
X0000094130Y0000108000D03*
X0000094130Y0000102500D03*
X0000099630Y0000122500D03*
X0000099630Y0000117500D03*
X0000091130Y0000155500D03*
X0000093630Y0000158000D03*
X0000101630Y0000193000D03*
X0000101630Y0000197500D03*
X0000101630Y0000189000D03*
X0000097930Y0000189000D03*
X0000097930Y0000193000D03*
X0000097930Y0000197500D03*
X0000090790Y0000188340D03*
X0000090630Y0000193000D03*
X0000093130Y0000222500D03*
X0000097630Y0000222500D03*
X0000102630Y0000222500D03*
X0000095667Y0000238537D03*
X0000093108Y0000236000D03*
X0000090549Y0000238581D03*
X0000102630Y0000226500D03*
X0000100785Y0000238500D03*
X0000087630Y0000236000D03*
X0000090549Y0000271419D03*
X0000093130Y0000285500D03*
X0000101496Y0000286866D03*
X0000093130Y0000281500D03*
X0000089130Y0000281500D03*
X0000099130Y0000281500D03*
X0000095130Y0000298000D03*
X0000095130Y0000301000D03*
X0000089630Y0000301500D03*
X0000098567Y0000323437D03*
X0000098630Y0000328000D03*
X0000093130Y0000328000D03*
X0000095630Y0000337000D03*
X0000102044Y0000337086D03*
X0000101130Y0000361500D03*
X0000090630Y0000365000D03*
X0000090630Y0000372500D03*
X0000091630Y0000401500D03*
X0000087630Y0000401500D03*
X0000095630Y0000405000D03*
X0000095630Y0000415000D03*
X0000095130Y0000425000D03*
X0000110130Y0000019500D03*
X0000110130Y0000016500D03*
X0000117630Y0000018500D03*
X0000117630Y0000014500D03*
X0000110130Y0000032000D03*
X0000110130Y0000028500D03*
X0000114130Y0000032000D03*
X0000117130Y0000029500D03*
X0000120130Y0000029500D03*
X0000105622Y0000032000D03*
X0000117130Y0000056500D03*
X0000117130Y0000052500D03*
X0000109630Y0000076000D03*
X0000118630Y0000072000D03*
X0000120630Y0000090500D03*
X0000120630Y0000095000D03*
X0000104130Y0000097500D03*
X0000104130Y0000086500D03*
X0000120630Y0000103000D03*
X0000120630Y0000099500D03*
X0000119130Y0000111500D03*
X0000120630Y0000108500D03*
X0000104130Y0000102000D03*
X0000104130Y0000105500D03*
X0000113130Y0000113000D03*
X0000104130Y0000113000D03*
X0000108630Y0000113000D03*
X0000120630Y0000118000D03*
X0000120630Y0000123000D03*
X0000104130Y0000122500D03*
X0000108630Y0000122500D03*
X0000108630Y0000126500D03*
X0000108630Y0000131000D03*
X0000113130Y0000126500D03*
X0000113130Y0000122500D03*
X0000113130Y0000117500D03*
X0000104130Y0000117500D03*
X0000108630Y0000117500D03*
X0000108130Y0000136500D03*
X0000103630Y0000178500D03*
X0000105630Y0000180000D03*
X0000105630Y0000175000D03*
X0000106130Y0000189000D03*
X0000106130Y0000193000D03*
X0000106130Y0000197500D03*
X0000106744Y0000212886D03*
X0000103516Y0000212886D03*
X0000119130Y0000215500D03*
X0000119130Y0000219000D03*
X0000113630Y0000221500D03*
X0000116630Y0000227000D03*
X0000116630Y0000231000D03*
X0000119130Y0000275500D03*
X0000119389Y0000290241D03*
X0000104016Y0000278500D03*
X0000114630Y0000294500D03*
X0000112673Y0000337000D03*
X0000119760Y0000337000D03*
X0000120630Y0000330000D03*
X0000105630Y0000361500D03*
X0000119630Y0000354000D03*
X0000118630Y0000361500D03*
X0000113130Y0000350000D03*
X0000113130Y0000354000D03*
X0000113130Y0000361500D03*
X0000117630Y0000350500D03*
X0000111630Y0000382000D03*
X0000115630Y0000382000D03*
X0000120130Y0000382000D03*
X0000120630Y0000410000D03*
X0000120630Y0000405000D03*
X0000105630Y0000405000D03*
X0000105630Y0000415000D03*
X0000120630Y0000400500D03*
X0000111630Y0000400500D03*
X0000109630Y0000405000D03*
X0000111630Y0000409000D03*
X0000111630Y0000414500D03*
X0000120630Y0000415000D03*
X0000120630Y0000420000D03*
X0000111630Y0000422500D03*
X0000105130Y0000425000D03*
X0000135130Y0000018500D03*
X0000135130Y0000014500D03*
X0000131630Y0000028000D03*
X0000124130Y0000018500D03*
X0000124130Y0000014500D03*
X0000135130Y0000023500D03*
X0000127276Y0000030000D03*
X0000122945Y0000030000D03*
X0000124087Y0000063043D03*
X0000121130Y0000056500D03*
X0000121130Y0000052500D03*
X0000125130Y0000056500D03*
X0000125130Y0000052500D03*
X0000121744Y0000072114D03*
X0000129056Y0000067574D03*
X0000121630Y0000082500D03*
X0000124630Y0000082500D03*
X0000121630Y0000085500D03*
X0000124630Y0000085500D03*
X0000138130Y0000105000D03*
X0000138130Y0000101500D03*
X0000124630Y0000103000D03*
X0000124630Y0000099500D03*
X0000138130Y0000131000D03*
X0000138130Y0000127500D03*
X0000130630Y0000165000D03*
X0000125630Y0000165000D03*
X0000123630Y0000184000D03*
X0000130630Y0000170000D03*
X0000123630Y0000192700D03*
X0000123630Y0000202700D03*
X0000123630Y0000197700D03*
X0000123630Y0000188500D03*
X0000126630Y0000201000D03*
X0000126630Y0000204000D03*
X0000126630Y0000195500D03*
X0000126630Y0000192500D03*
X0000122726Y0000211046D03*
X0000122630Y0000219500D03*
X0000122630Y0000216500D03*
X0000126226Y0000212546D03*
X0000126226Y0000209546D03*
X0000121130Y0000227000D03*
X0000121130Y0000231000D03*
X0000124516Y0000252886D03*
X0000124516Y0000264114D03*
X0000126130Y0000297114D03*
X0000126130Y0000306386D03*
X0000125630Y0000325000D03*
X0000130630Y0000345000D03*
X0000130630Y0000340000D03*
X0000135630Y0000335000D03*
X0000130630Y0000335000D03*
X0000125630Y0000330000D03*
X0000138130Y0000343500D03*
X0000130130Y0000354976D03*
X0000130630Y0000350000D03*
X0000130130Y0000362000D03*
X0000136130Y0000351000D03*
X0000130630Y0000415000D03*
X0000130630Y0000405000D03*
X0000130630Y0000425000D03*
X0000140130Y0000014500D03*
X0000145130Y0000014500D03*
X0000140130Y0000018500D03*
X0000152630Y0000074500D03*
X0000152630Y0000078500D03*
X0000152630Y0000070500D03*
X0000141630Y0000105000D03*
X0000141630Y0000101500D03*
X0000142130Y0000127500D03*
X0000142130Y0000131000D03*
X0000140630Y0000160000D03*
X0000140630Y0000170000D03*
X0000139630Y0000303000D03*
X0000139630Y0000300500D03*
X0000140130Y0000317126D03*
X0000140130Y0000324000D03*
X0000144630Y0000324213D03*
X0000144630Y0000328937D03*
X0000144969Y0000333661D03*
X0000144882Y0000340748D03*
X0000140630Y0000330000D03*
X0000140630Y0000338500D03*
X0000144795Y0000347835D03*
X0000144709Y0000354921D03*
X0000144630Y0000358000D03*
X0000144630Y0000362500D03*
X0000140130Y0000358000D03*
X0000140130Y0000362500D03*
X0000150630Y0000385000D03*
X0000140630Y0000415000D03*
X0000150630Y0000415000D03*
X0000140630Y0000405000D03*
X0000150630Y0000405000D03*
X0000140630Y0000425000D03*
X0000150630Y0000425000D03*
X0000156630Y0000063000D03*
X0000156630Y0000078500D03*
X0000156630Y0000074500D03*
X0000156630Y0000070500D03*
X0000166630Y0000071000D03*
X0000163130Y0000071000D03*
X0000174130Y0000087000D03*
X0000158130Y0000110000D03*
X0000169630Y0000110000D03*
X0000163630Y0000110000D03*
X0000157130Y0000121063D03*
X0000157030Y0000129300D03*
X0000161130Y0000142000D03*
X0000158130Y0000149409D03*
X0000157130Y0000142323D03*
X0000162130Y0000149500D03*
X0000165630Y0000145000D03*
X0000165630Y0000140000D03*
X0000170630Y0000140000D03*
X0000170630Y0000145000D03*
X0000170630Y0000149500D03*
X0000165630Y0000151500D03*
X0000157130Y0000137598D03*
X0000161130Y0000137500D03*
X0000158130Y0000163583D03*
X0000158130Y0000156496D03*
X0000168630Y0000163500D03*
X0000168630Y0000156500D03*
X0000165630Y0000165673D03*
X0000160630Y0000161500D03*
X0000165630Y0000168673D03*
X0000160630Y0000158500D03*
X0000165630Y0000154500D03*
X0000158130Y0000170669D03*
X0000158130Y0000177756D03*
X0000168630Y0000178000D03*
X0000168630Y0000170500D03*
X0000165302Y0000185172D03*
X0000172630Y0000185500D03*
X0000163130Y0000182846D03*
X0000160630Y0000172500D03*
X0000163130Y0000179846D03*
X0000160630Y0000175500D03*
X0000157130Y0000191929D03*
X0000157130Y0000199016D03*
X0000172630Y0000192500D03*
X0000157130Y0000206102D03*
X0000157354Y0000220276D03*
X0000157441Y0000213189D03*
X0000157630Y0000227362D03*
X0000157579Y0000234449D03*
X0000157630Y0000238000D03*
X0000157630Y0000247500D03*
X0000157630Y0000241000D03*
X0000157630Y0000255000D03*
X0000157630Y0000251000D03*
X0000157528Y0000243898D03*
X0000157630Y0000258071D03*
X0000162130Y0000258000D03*
X0000157630Y0000262795D03*
X0000157630Y0000269882D03*
X0000162130Y0000269500D03*
X0000162130Y0000263000D03*
X0000157683Y0000274553D03*
X0000162130Y0000274500D03*
X0000166630Y0000279500D03*
X0000166630Y0000284500D03*
X0000157630Y0000284500D03*
X0000157488Y0000291142D03*
X0000162130Y0000279500D03*
X0000157630Y0000279331D03*
X0000162130Y0000284500D03*
X0000166630Y0000291000D03*
X0000157032Y0000312402D03*
X0000157130Y0000321500D03*
X0000157130Y0000326000D03*
X0000164130Y0000312500D03*
X0000157130Y0000338386D03*
X0000161630Y0000331500D03*
X0000170630Y0000330000D03*
X0000170630Y0000340000D03*
X0000157331Y0000331299D03*
X0000161630Y0000345500D03*
X0000157130Y0000345472D03*
X0000161630Y0000338500D03*
X0000157130Y0000352559D03*
X0000164130Y0000385000D03*
X0000170630Y0000390000D03*
X0000160630Y0000415000D03*
X0000170630Y0000425000D03*
X0000160630Y0000425000D03*
X0000170630Y0000435000D03*
X0000181630Y0000032500D03*
X0000185630Y0000032500D03*
X0000190630Y0000032500D03*
X0000188130Y0000036500D03*
X0000183130Y0000062500D03*
X0000183130Y0000057500D03*
X0000188130Y0000057500D03*
X0000188130Y0000062500D03*
X0000188130Y0000052500D03*
X0000191630Y0000052500D03*
X0000176630Y0000071000D03*
X0000176630Y0000078500D03*
X0000187630Y0000071000D03*
X0000182630Y0000071000D03*
X0000176630Y0000075000D03*
X0000176630Y0000065500D03*
X0000178630Y0000087000D03*
X0000176030Y0000110200D03*
X0000177130Y0000128500D03*
X0000190130Y0000119500D03*
X0000189630Y0000127000D03*
X0000189228Y0000141142D03*
X0000189228Y0000148228D03*
X0000175630Y0000145000D03*
X0000175630Y0000140000D03*
X0000189630Y0000138000D03*
X0000175630Y0000149500D03*
X0000189032Y0000162402D03*
X0000189118Y0000169488D03*
X0000175630Y0000156500D03*
X0000175630Y0000163500D03*
X0000189130Y0000183661D03*
X0000189055Y0000176575D03*
X0000175630Y0000170500D03*
X0000175630Y0000178000D03*
X0000189228Y0000197835D03*
X0000189228Y0000204921D03*
X0000189228Y0000212008D03*
X0000189228Y0000219095D03*
X0000189228Y0000226181D03*
X0000189228Y0000233268D03*
X0000189630Y0000241000D03*
X0000189130Y0000254528D03*
X0000189071Y0000247441D03*
X0000189516Y0000261614D03*
X0000189567Y0000271063D03*
X0000189630Y0000266339D03*
X0000175130Y0000265000D03*
X0000189417Y0000275787D03*
X0000189591Y0000289961D03*
X0000189630Y0000284500D03*
X0000189618Y0000280512D03*
X0000189630Y0000315945D03*
X0000189909Y0000311221D03*
X0000189524Y0000325394D03*
X0000176386Y0000327756D03*
X0000189630Y0000337205D03*
X0000189610Y0000332480D03*
X0000177197Y0000339567D03*
X0000189559Y0000341929D03*
X0000176571Y0000331059D03*
X0000176976Y0000346654D03*
X0000190630Y0000380000D03*
X0000176630Y0000383500D03*
X0000180630Y0000383500D03*
X0000180630Y0000386500D03*
X0000176630Y0000386500D03*
X0000190630Y0000385000D03*
X0000185630Y0000390000D03*
X0000190630Y0000395000D03*
X0000180630Y0000400000D03*
X0000190630Y0000410000D03*
X0000190630Y0000435000D03*
X0000180630Y0000435000D03*
X0000202630Y0000019000D03*
X0000202630Y0000016500D03*
X0000206130Y0000019000D03*
X0000206130Y0000016500D03*
X0000205630Y0000028000D03*
X0000200630Y0000028000D03*
X0000195630Y0000028000D03*
X0000205630Y0000022500D03*
X0000195630Y0000032500D03*
X0000200630Y0000032500D03*
X0000205630Y0000032500D03*
X0000205630Y0000037500D03*
X0000195630Y0000056000D03*
X0000195630Y0000051000D03*
X0000194630Y0000127000D03*
X0000200630Y0000145000D03*
X0000205630Y0000140000D03*
X0000199630Y0000139000D03*
X0000198630Y0000149000D03*
X0000200630Y0000165000D03*
X0000200630Y0000155000D03*
X0000192630Y0000155000D03*
X0000200630Y0000185000D03*
X0000200630Y0000175000D03*
X0000202130Y0000200000D03*
X0000202130Y0000203000D03*
X0000208630Y0000203500D03*
X0000208630Y0000199500D03*
X0000200630Y0000195000D03*
X0000201704Y0000219500D03*
X0000201704Y0000215500D03*
X0000207704Y0000215500D03*
X0000207704Y0000219500D03*
X0000199130Y0000221000D03*
X0000199630Y0000213500D03*
X0000199130Y0000254500D03*
X0000205130Y0000254500D03*
X0000194130Y0000254500D03*
X0000202630Y0000241500D03*
X0000202630Y0000247500D03*
X0000194130Y0000261500D03*
X0000194130Y0000271000D03*
X0000194130Y0000275500D03*
X0000194130Y0000266000D03*
X0000194630Y0000280500D03*
X0000194630Y0000311000D03*
X0000195630Y0000295000D03*
X0000194130Y0000316000D03*
X0000194130Y0000342000D03*
X0000193630Y0000332500D03*
X0000200630Y0000365000D03*
X0000200630Y0000375000D03*
X0000208630Y0000396500D03*
X0000208630Y0000390500D03*
X0000200630Y0000385000D03*
X0000200630Y0000395000D03*
X0000194630Y0000410500D03*
X0000208630Y0000404500D03*
X0000198630Y0000410500D03*
X0000200630Y0000405000D03*
X0000207630Y0000422500D03*
X0000200630Y0000435000D03*
X0000210630Y0000019000D03*
X0000210630Y0000016500D03*
X0000210630Y0000028000D03*
X0000210630Y0000022500D03*
X0000210630Y0000044000D03*
X0000215630Y0000044000D03*
X0000210630Y0000037500D03*
X0000210630Y0000032500D03*
X0000210630Y0000047500D03*
X0000215630Y0000047500D03*
X0000210630Y0000057500D03*
X0000215630Y0000057500D03*
X0000220630Y0000057500D03*
X0000220630Y0000052500D03*
X0000215630Y0000052500D03*
X0000210630Y0000052500D03*
X0000210630Y0000145000D03*
X0000210630Y0000165000D03*
X0000220630Y0000165000D03*
X0000210630Y0000155000D03*
X0000220630Y0000155000D03*
X0000210630Y0000185000D03*
X0000220630Y0000185000D03*
X0000210630Y0000175000D03*
X0000220630Y0000175000D03*
X0000211630Y0000203352D03*
X0000210630Y0000195000D03*
X0000220630Y0000195000D03*
X0000211630Y0000199400D03*
X0000210704Y0000219352D03*
X0000210704Y0000215400D03*
X0000222630Y0000216048D03*
X0000225630Y0000215000D03*
X0000225630Y0000221000D03*
X0000222630Y0000220000D03*
X0000220630Y0000275000D03*
X0000220630Y0000265000D03*
X0000210630Y0000265000D03*
X0000220630Y0000285000D03*
X0000220630Y0000305000D03*
X0000220630Y0000295000D03*
X0000220630Y0000315000D03*
X0000220630Y0000330000D03*
X0000211630Y0000375000D03*
X0000220630Y0000375000D03*
X0000211630Y0000385000D03*
X0000220630Y0000385000D03*
X0000211630Y0000422500D03*
X0000220630Y0000435000D03*
X0000210630Y0000435000D03*
X0000235630Y0000007150D03*
X0000235630Y0000004000D03*
X0000231630Y0000004000D03*
X0000231630Y0000007150D03*
X0000227630Y0000004000D03*
X0000227630Y0000007150D03*
X0000241630Y0000007150D03*
X0000241630Y0000004000D03*
X0000227630Y0000019000D03*
X0000227630Y0000023000D03*
X0000233130Y0000023000D03*
X0000233130Y0000019000D03*
X0000227630Y0000029500D03*
X0000233130Y0000029500D03*
X0000233130Y0000045500D03*
X0000237630Y0000036000D03*
X0000233630Y0000036000D03*
X0000227630Y0000036000D03*
X0000227630Y0000042000D03*
X0000232687Y0000050557D03*
X0000232687Y0000055557D03*
X0000227630Y0000047500D03*
X0000227630Y0000052000D03*
X0000237630Y0000055500D03*
X0000237630Y0000050500D03*
X0000238630Y0000081114D03*
X0000235630Y0000100000D03*
X0000235630Y0000109000D03*
X0000243630Y0000109500D03*
X0000243630Y0000118000D03*
X0000230630Y0000165000D03*
X0000230630Y0000185000D03*
X0000230630Y0000175000D03*
X0000240630Y0000185000D03*
X0000240630Y0000175000D03*
X0000230630Y0000195000D03*
X0000230630Y0000265000D03*
X0000230630Y0000275000D03*
X0000240630Y0000275000D03*
X0000230630Y0000285000D03*
X0000240630Y0000285000D03*
X0000240630Y0000295000D03*
X0000230630Y0000295000D03*
X0000230630Y0000305000D03*
X0000240630Y0000305000D03*
X0000240630Y0000315000D03*
X0000230630Y0000315000D03*
X0000230630Y0000330000D03*
X0000240630Y0000330000D03*
X0000240630Y0000350000D03*
X0000230630Y0000375000D03*
X0000230630Y0000365000D03*
X0000240630Y0000375000D03*
X0000230630Y0000385000D03*
X0000240630Y0000385000D03*
X0000230630Y0000435000D03*
X0000240630Y0000435000D03*
X0000254130Y0000007150D03*
X0000258130Y0000007150D03*
X0000254130Y0000004000D03*
X0000258130Y0000004000D03*
X0000262130Y0000007150D03*
X0000262130Y0000004000D03*
X0000245630Y0000007150D03*
X0000249630Y0000007150D03*
X0000245630Y0000004000D03*
X0000249630Y0000004000D03*
X0000248630Y0000044200D03*
X0000251630Y0000044200D03*
X0000251630Y0000047000D03*
X0000248630Y0000047000D03*
X0000260630Y0000100000D03*
X0000250630Y0000100000D03*
X0000256130Y0000110500D03*
X0000252630Y0000118500D03*
X0000250630Y0000180000D03*
X0000260630Y0000225000D03*
X0000250630Y0000285000D03*
X0000250630Y0000295000D03*
X0000250630Y0000305000D03*
X0000260630Y0000305000D03*
X0000260630Y0000295000D03*
X0000250630Y0000315000D03*
X0000260630Y0000315000D03*
X0000250630Y0000330000D03*
X0000260630Y0000330000D03*
X0000250630Y0000360000D03*
X0000250630Y0000350000D03*
X0000260630Y0000350000D03*
X0000260630Y0000360000D03*
X0000250630Y0000375000D03*
X0000260630Y0000375000D03*
X0000250630Y0000385000D03*
X0000260630Y0000385000D03*
X0000260630Y0000395000D03*
X0000256630Y0000406500D03*
X0000256630Y0000410500D03*
X0000260630Y0000410000D03*
X0000260630Y0000405000D03*
X0000253130Y0000425000D03*
X0000253130Y0000420000D03*
X0000260630Y0000425000D03*
X0000260630Y0000420000D03*
X0000260630Y0000435000D03*
X0000250630Y0000435000D03*
X0000266630Y0000004000D03*
X0000266630Y0000007150D03*
X0000270630Y0000007150D03*
X0000270630Y0000004000D03*
X0000274630Y0000007150D03*
X0000274630Y0000004000D03*
X0000274630Y0000012000D03*
X0000274630Y0000015500D03*
X0000265130Y0000017000D03*
X0000269130Y0000017000D03*
X0000269130Y0000021000D03*
X0000269130Y0000025000D03*
X0000265130Y0000025000D03*
X0000279016Y0000012114D03*
X0000269130Y0000028500D03*
X0000278630Y0000045500D03*
X0000272610Y0000057980D03*
X0000269730Y0000061700D03*
X0000273730Y0000061100D03*
X0000272430Y0000064100D03*
X0000275130Y0000070614D03*
X0000270630Y0000215000D03*
X0000270630Y0000220000D03*
X0000265630Y0000225000D03*
X0000270630Y0000295000D03*
X0000270630Y0000305000D03*
X0000276380Y0000323250D03*
X0000276630Y0000327500D03*
X0000277630Y0000313000D03*
X0000277630Y0000317500D03*
X0000273630Y0000317500D03*
X0000273630Y0000313000D03*
X0000270630Y0000330000D03*
X0000270630Y0000375000D03*
X0000270630Y0000395000D03*
X0000270630Y0000385000D03*
X0000265630Y0000410000D03*
X0000265630Y0000405000D03*
X0000275630Y0000400000D03*
X0000270630Y0000425000D03*
X0000270630Y0000420000D03*
X0000270630Y0000435000D03*
X0000280630Y0000005000D03*
X0000290630Y0000005000D03*
X0000282244Y0000012000D03*
X0000296130Y0000020500D03*
X0000290630Y0000015000D03*
X0000285130Y0000026000D03*
X0000285130Y0000031500D03*
X0000284130Y0000045500D03*
X0000296122Y0000041000D03*
X0000296130Y0000031500D03*
X0000292744Y0000045500D03*
X0000285630Y0000037500D03*
X0000285130Y0000056500D03*
X0000285130Y0000062000D03*
X0000287130Y0000070614D03*
X0000297630Y0000070500D03*
X0000293630Y0000070500D03*
X0000290630Y0000115000D03*
X0000290630Y0000105000D03*
X0000284630Y0000099500D03*
X0000290130Y0000219500D03*
X0000280630Y0000210000D03*
X0000290130Y0000226000D03*
X0000290130Y0000239185D03*
X0000290130Y0000232500D03*
X0000289945Y0000250185D03*
X0000290130Y0000245185D03*
X0000290130Y0000255685D03*
X0000290130Y0000261185D03*
X0000290630Y0000291000D03*
X0000281630Y0000291000D03*
X0000290630Y0000300000D03*
X0000290630Y0000310000D03*
X0000281630Y0000300000D03*
X0000281630Y0000310000D03*
X0000288630Y0000336000D03*
X0000285630Y0000340000D03*
X0000295630Y0000340000D03*
X0000292630Y0000336000D03*
X0000290630Y0000345000D03*
X0000295630Y0000345000D03*
X0000285630Y0000350000D03*
X0000295630Y0000360000D03*
X0000280630Y0000375000D03*
X0000290630Y0000375000D03*
X0000290630Y0000395000D03*
X0000280630Y0000385000D03*
X0000285630Y0000390000D03*
X0000290630Y0000405000D03*
X0000280630Y0000405000D03*
X0000280630Y0000415000D03*
X0000290630Y0000415000D03*
X0000280630Y0000425000D03*
X0000290630Y0000425000D03*
X0000280630Y0000435000D03*
X0000290630Y0000435000D03*
X0000300630Y0000005000D03*
X0000310630Y0000005000D03*
X0000300130Y0000026000D03*
X0000310630Y0000015000D03*
X0000300630Y0000015000D03*
X0000310630Y0000025000D03*
X0000300130Y0000031500D03*
X0000308630Y0000044000D03*
X0000314130Y0000044000D03*
X0000310630Y0000035000D03*
X0000299630Y0000041000D03*
X0000299630Y0000038000D03*
X0000308630Y0000054000D03*
X0000308630Y0000049000D03*
X0000314130Y0000049000D03*
X0000312630Y0000087000D03*
X0000312630Y0000092000D03*
X0000307630Y0000092000D03*
X0000300630Y0000115000D03*
X0000307130Y0000232185D03*
X0000307130Y0000240185D03*
X0000307130Y0000225000D03*
X0000307130Y0000248000D03*
X0000307315Y0000256185D03*
X0000310630Y0000262500D03*
X0000310630Y0000268685D03*
X0000314130Y0000289000D03*
X0000300630Y0000291000D03*
X0000309630Y0000289000D03*
X0000314130Y0000294500D03*
X0000309630Y0000300000D03*
X0000314130Y0000300000D03*
X0000300630Y0000300000D03*
X0000309630Y0000294500D03*
X0000312630Y0000335000D03*
X0000312630Y0000329000D03*
X0000310630Y0000360000D03*
X0000305630Y0000350000D03*
X0000310630Y0000370000D03*
X0000300630Y0000370000D03*
X0000310630Y0000395000D03*
X0000300630Y0000395000D03*
X0000310630Y0000405000D03*
X0000300630Y0000405000D03*
X0000300630Y0000415000D03*
X0000310630Y0000415000D03*
X0000300630Y0000425000D03*
X0000310630Y0000425000D03*
X0000300630Y0000435000D03*
X0000310630Y0000435000D03*
X0000320630Y0000005000D03*
X0000320630Y0000015000D03*
X0000319630Y0000044000D03*
X0000325630Y0000044000D03*
X0000319630Y0000049000D03*
X0000325630Y0000049000D03*
X0000325630Y0000095000D03*
X0000315630Y0000095000D03*
X0000325630Y0000105000D03*
X0000322130Y0000119000D03*
X0000330130Y0000119000D03*
X0000326130Y0000119000D03*
X0000322130Y0000128000D03*
X0000326130Y0000128000D03*
X0000330130Y0000128000D03*
X0000321630Y0000142500D03*
X0000331630Y0000142500D03*
X0000331630Y0000136500D03*
X0000325130Y0000159500D03*
X0000331130Y0000159000D03*
X0000331130Y0000154500D03*
X0000330630Y0000175000D03*
X0000330630Y0000185000D03*
X0000327130Y0000171000D03*
X0000330630Y0000195000D03*
X0000330630Y0000205000D03*
X0000318630Y0000221500D03*
X0000322630Y0000221500D03*
X0000318630Y0000218000D03*
X0000322630Y0000218000D03*
X0000330630Y0000215000D03*
X0000330630Y0000250000D03*
X0000330630Y0000260000D03*
X0000329130Y0000289000D03*
X0000326130Y0000289000D03*
X0000327630Y0000286500D03*
X0000328530Y0000295800D03*
X0000318130Y0000309500D03*
X0000328630Y0000301982D03*
X0000329130Y0000308000D03*
X0000326130Y0000303378D03*
X0000326130Y0000306878D03*
X0000321130Y0000309283D03*
X0000318337Y0000313793D03*
X0000328630Y0000313793D03*
X0000318130Y0000325500D03*
X0000318327Y0000319697D03*
X0000328630Y0000325604D03*
X0000328638Y0000319697D03*
X0000325630Y0000318689D03*
X0000321130Y0000312783D03*
X0000321130Y0000321094D03*
X0000325630Y0000315189D03*
X0000321130Y0000324594D03*
X0000325630Y0000327000D03*
X0000318130Y0000331500D03*
X0000328638Y0000331508D03*
X0000330630Y0000340000D03*
X0000325630Y0000330500D03*
X0000330630Y0000360000D03*
X0000330630Y0000350000D03*
X0000320630Y0000360000D03*
X0000320630Y0000350000D03*
X0000320630Y0000370000D03*
X0000330630Y0000385000D03*
X0000330630Y0000395000D03*
X0000320630Y0000395000D03*
X0000330630Y0000405000D03*
X0000320630Y0000405000D03*
X0000320630Y0000415000D03*
X0000330630Y0000415000D03*
X0000320630Y0000425000D03*
X0000320630Y0000435000D03*
X0000335630Y0000035000D03*
X0000345630Y0000035000D03*
X0000335630Y0000050000D03*
X0000345630Y0000050000D03*
X0000345630Y0000060000D03*
X0000335630Y0000060000D03*
X0000335630Y0000070000D03*
X0000345630Y0000070000D03*
X0000335630Y0000085000D03*
X0000345630Y0000085000D03*
X0000345630Y0000095000D03*
X0000335630Y0000095000D03*
X0000345630Y0000105000D03*
X0000335630Y0000105000D03*
X0000345630Y0000115000D03*
X0000333630Y0000119000D03*
X0000349130Y0000125215D03*
X0000342130Y0000142000D03*
X0000338630Y0000147500D03*
X0000338630Y0000142000D03*
X0000342130Y0000147500D03*
X0000338630Y0000136500D03*
X0000349486Y0000142144D03*
X0000349549Y0000137419D03*
X0000349400Y0000149230D03*
X0000342130Y0000136500D03*
X0000349630Y0000160500D03*
X0000349630Y0000163500D03*
X0000342130Y0000159000D03*
X0000342130Y0000153000D03*
X0000338630Y0000159000D03*
X0000348789Y0000166159D03*
X0000341630Y0000166159D03*
X0000349630Y0000155000D03*
X0000349530Y0000157800D03*
X0000338630Y0000153000D03*
X0000350630Y0000175000D03*
X0000340630Y0000175000D03*
X0000340630Y0000185000D03*
X0000350630Y0000185000D03*
X0000340630Y0000195000D03*
X0000350630Y0000195000D03*
X0000340630Y0000205000D03*
X0000350630Y0000205000D03*
X0000340630Y0000215000D03*
X0000350630Y0000215000D03*
X0000350630Y0000225000D03*
X0000350630Y0000235000D03*
X0000340630Y0000235000D03*
X0000340630Y0000245000D03*
X0000350630Y0000245000D03*
X0000350630Y0000260000D03*
X0000340630Y0000260000D03*
X0000350630Y0000270000D03*
X0000340630Y0000270000D03*
X0000350630Y0000280000D03*
X0000350630Y0000290000D03*
X0000350630Y0000300000D03*
X0000350630Y0000310000D03*
X0000350630Y0000320000D03*
X0000350630Y0000330000D03*
X0000340630Y0000330000D03*
X0000350630Y0000340000D03*
X0000350630Y0000350000D03*
X0000340630Y0000350000D03*
X0000350630Y0000360000D03*
X0000340630Y0000360000D03*
X0000350630Y0000375000D03*
X0000340630Y0000375000D03*
X0000340630Y0000385000D03*
X0000350630Y0000385000D03*
X0000340630Y0000405000D03*
X0000350630Y0000405000D03*
X0000340630Y0000415000D03*
X0000350630Y0000415000D03*
X0000350630Y0000425000D03*
G54D12*
X0000006224Y0000250664D03*
X0000006224Y0000284679D03*
X0000021185Y0000250664D03*
X0000021185Y0000284679D03*
G54D13*
X0000007912Y0000321568D03*
X0000007912Y0000345977D03*
X0000021141Y0000321568D03*
X0000021141Y0000345977D03*
G54D14*
X0000009500Y0000382158D03*
X0000009500Y0000401843D03*
G54D15*
X0000043670Y0000160822D03*
X0000043670Y0000212397D03*
G54D16*
X0000048000Y0000172829D03*
G54D17*
X0000048000Y0000182672D03*
X0000048000Y0000190546D03*
X0000048000Y0000200389D03*
G54D18*
X0000166929Y0000361811D03*
X0000273228Y0000109055D03*
X0000273228Y0000351575D03*
G54D19*
G01X0000006224Y0000247798D02*
X0000006224Y0000250664D01*
G01X0000006224Y0000250664D02*
X0000006224Y0000253529D01*
G01X0000006224Y0000250664D02*
X0000010271Y0000250664D01*
G01X0000006224Y0000281814D02*
X0000006224Y0000284679D01*
G01X0000006224Y0000284679D02*
X0000006224Y0000287545D01*
G01X0000006224Y0000284679D02*
X0000010271Y0000284679D01*
G01X0000007912Y0000317915D02*
X0000007912Y0000321568D01*
G01X0000007912Y0000321568D02*
X0000007912Y0000325221D01*
G01X0000007912Y0000321568D02*
X0000013632Y0000321568D01*
G01X0000007912Y0000342324D02*
X0000007912Y0000345977D01*
G01X0000007912Y0000345977D02*
X0000007912Y0000349630D01*
G01X0000007912Y0000345977D02*
X0000013632Y0000345977D01*
G01X0000009500Y0000398386D02*
X0000009500Y0000401843D01*
G01X0000009500Y0000401843D02*
X0000009500Y0000405299D01*
G01X0000006438Y0000401843D02*
X0000009500Y0000401843D01*
G01X0000009500Y0000401843D02*
X0000012562Y0000401843D01*
G01X0000021185Y0000247798D02*
X0000021185Y0000250664D01*
G01X0000021185Y0000250664D02*
X0000021185Y0000253529D01*
G01X0000017138Y0000250664D02*
X0000021185Y0000250664D01*
G01X0000021185Y0000250664D02*
X0000025232Y0000250664D01*
G01X0000021185Y0000281814D02*
X0000021185Y0000284679D01*
G01X0000021185Y0000284679D02*
X0000021185Y0000287545D01*
G01X0000017138Y0000284679D02*
X0000021185Y0000284679D01*
G01X0000021185Y0000284679D02*
X0000025232Y0000284679D01*
G01X0000021141Y0000317915D02*
X0000021141Y0000321568D01*
G01X0000021141Y0000321568D02*
X0000021141Y0000325221D01*
G01X0000015421Y0000321568D02*
X0000021141Y0000321568D01*
G01X0000021141Y0000321568D02*
X0000026861Y0000321568D01*
G01X0000021141Y0000342324D02*
X0000021141Y0000345977D01*
G01X0000021141Y0000345977D02*
X0000021141Y0000349630D01*
G01X0000015421Y0000345977D02*
X0000021141Y0000345977D01*
G01X0000021141Y0000345977D02*
X0000026861Y0000345977D01*
G01X0000043670Y0000155122D02*
X0000043670Y0000160822D01*
G01X0000043670Y0000160822D02*
X0000043670Y0000166522D01*
G01X0000043670Y0000160822D02*
X0000049370Y0000160822D01*
G01X0000048000Y0000196689D02*
X0000048000Y0000200389D01*
G01X0000048000Y0000200389D02*
X0000048000Y0000204089D01*
G01X0000044300Y0000200389D02*
X0000048000Y0000200389D01*
G01X0000048000Y0000200389D02*
X0000051700Y0000200389D01*
G01X0000043670Y0000206697D02*
X0000043670Y0000212397D01*
G01X0000043670Y0000212397D02*
X0000043670Y0000218097D01*
G01X0000043670Y0000212397D02*
X0000049370Y0000212397D01*
M02*
