G04 ================== begin FILE IDENTIFICATION RECORD ==================*
G04 Layout Name:  C:/Users/rock/Documents/Work/ZHG/CutiePi_V1_1/CutiePi_V1_1.brd*
G04 Film Name:    SILK_BOT*
G04 File Format:  Gerber RS274X*
G04 File Origin:  Cadence Allegro 17.2-S058*
G04 Origin Date:  Thu Oct 24 15:12:38 2019*
G04 *
G04 Layer:  BOARD GEOMETRY/SILKSCREEN_BOTTOM*
G04 Layer:  PACKAGE GEOMETRY/SILKSCREEN_BOTTOM*
G04 Layer:  REF DES/SILKSCREEN_BOTTOM*
G04 Layer:  BOARD GEOMETRY/OUTLINE*
G04 *
G04 Offset:    (0.000 0.000)*
G04 Mirror:    No*
G04 Mode:      Positive*
G04 Rotation:  0*
G04 FullContactRelief:  No*
G04 UndefLineWidth:     6.000*
G04 ================== end FILE IDENTIFICATION RECORD ====================*
%FSAX55Y55*MOIN*%
%IR0*IPPOS*OFA0.00000B0.00000*MIA0B0*SFA1.00000B1.00000*%
%ADD10C,.005*%
%ADD11C,.006*%
%ADD12C,.005906*%
%ADD13C,.005909*%
G75*
%LPD*%
G75*
G36*
G01X0000053906Y0000172829D02*
X0000057055Y0000169680D01*
X0000057055Y0000175979D01*
X0000053906Y0000172829D01*
G37*
G54D10*
G01X0000027411Y0000255159D02*
X0000027561Y0000255292D01*
X0000027811Y0000255392D01*
X0000028161Y0000255459D01*
X0000028461Y0000255392D01*
X0000028661Y0000255259D01*
X0000028811Y0000255025D01*
X0000028811Y0000254125D01*
X0000025811Y0000254125D01*
X0000025811Y0000255225D01*
X0000026011Y0000255459D01*
X0000026311Y0000255592D01*
X0000026661Y0000255659D01*
X0000027011Y0000255592D01*
X0000027311Y0000255392D01*
X0000027411Y0000255159D01*
X0000027411Y0000254125D01*
G01X0000025811Y0000257092D02*
X0000028811Y0000257092D01*
X0000028211Y0000256692D01*
G01X0000025811Y0000256692D02*
X0000025811Y0000257492D01*
G01X0000028311Y0000258658D02*
X0000028611Y0000258859D01*
X0000028761Y0000259092D01*
X0000028811Y0000259359D01*
X0000028711Y0000259692D01*
X0000028461Y0000259925D01*
X0000028161Y0000259992D01*
X0000027861Y0000259959D01*
X0000027611Y0000259825D01*
X0000027111Y0000259159D01*
X0000026761Y0000258859D01*
X0000026261Y0000258658D01*
X0000025811Y0000258592D01*
X0000025811Y0000259992D01*
G54D11*
G01X0000019847Y0000386750D02*
X0000019555Y0000387150D01*
X0000019380Y0000387600D01*
X0000019380Y0000388000D01*
X0000019555Y0000388400D01*
X0000019847Y0000388700D01*
X0000020255Y0000388850D01*
X0000020663Y0000388750D01*
X0000021013Y0000388500D01*
X0000021247Y0000388050D01*
X0000021363Y0000387450D01*
X0000021597Y0000387100D01*
X0000022005Y0000386950D01*
X0000022413Y0000387050D01*
X0000022705Y0000387300D01*
X0000022880Y0000387650D01*
X0000022880Y0000388000D01*
X0000022763Y0000388350D01*
X0000022472Y0000388650D01*
G01X0000022880Y0000389500D02*
X0000019380Y0000390200D01*
X0000022880Y0000391000D01*
X0000019380Y0000391800D01*
X0000022880Y0000392500D01*
G01X0000022297Y0000393250D02*
X0000022647Y0000393550D01*
X0000022822Y0000393900D01*
X0000022880Y0000394300D01*
X0000022763Y0000394800D01*
X0000022472Y0000395150D01*
X0000022122Y0000395250D01*
X0000021772Y0000395200D01*
X0000021480Y0000395000D01*
X0000020897Y0000394000D01*
X0000020488Y0000393550D01*
X0000019905Y0000393250D01*
X0000019380Y0000393150D01*
X0000019380Y0000395250D01*
G01X0000033830Y0000265900D02*
X0000033480Y0000266150D01*
X0000033247Y0000266450D01*
X0000033130Y0000266800D01*
X0000033247Y0000267200D01*
X0000033480Y0000267500D01*
X0000033830Y0000267800D01*
X0000034297Y0000267900D01*
X0000036630Y0000267900D01*
G01X0000036047Y0000269150D02*
X0000036397Y0000269450D01*
X0000036572Y0000269800D01*
X0000036630Y0000270200D01*
X0000036513Y0000270700D01*
X0000036222Y0000271050D01*
X0000035872Y0000271150D01*
X0000035522Y0000271100D01*
X0000035230Y0000270900D01*
X0000034647Y0000269900D01*
X0000034238Y0000269450D01*
X0000033655Y0000269150D01*
X0000033130Y0000269050D01*
X0000033130Y0000271150D01*
G01X0000034580Y0000328800D02*
X0000034230Y0000329050D01*
X0000033997Y0000329350D01*
X0000033880Y0000329700D01*
X0000033997Y0000330100D01*
X0000034230Y0000330400D01*
X0000034580Y0000330700D01*
X0000035047Y0000330800D01*
X0000037380Y0000330800D01*
G01X0000033880Y0000333000D02*
X0000037380Y0000333000D01*
X0000036680Y0000332400D01*
G01X0000033880Y0000332400D02*
X0000033880Y0000333600D01*
G01X0000034580Y0000335100D02*
X0000034172Y0000335400D01*
X0000033938Y0000335800D01*
X0000033880Y0000336250D01*
X0000033938Y0000336650D01*
X0000034230Y0000337050D01*
X0000034580Y0000337300D01*
X0000034930Y0000337350D01*
X0000035338Y0000337250D01*
X0000035630Y0000336900D01*
X0000035747Y0000336550D01*
X0000035747Y0000336100D01*
G01X0000035747Y0000336550D02*
X0000035922Y0000336850D01*
X0000036213Y0000337100D01*
X0000036563Y0000337200D01*
X0000036913Y0000337100D01*
X0000037205Y0000336850D01*
X0000037380Y0000336400D01*
X0000037322Y0000335950D01*
X0000037088Y0000335500D01*
G01X0000052330Y0000081800D02*
X0000051980Y0000082050D01*
X0000051747Y0000082350D01*
X0000051630Y0000082700D01*
X0000051747Y0000083100D01*
X0000051980Y0000083400D01*
X0000052330Y0000083700D01*
X0000052797Y0000083800D01*
X0000055130Y0000083800D01*
G01X0000054547Y0000085050D02*
X0000054897Y0000085350D01*
X0000055072Y0000085700D01*
X0000055130Y0000086100D01*
X0000055013Y0000086600D01*
X0000054722Y0000086950D01*
X0000054372Y0000087050D01*
X0000054022Y0000087000D01*
X0000053730Y0000086800D01*
X0000053147Y0000085800D01*
X0000052738Y0000085350D01*
X0000052155Y0000085050D01*
X0000051630Y0000084950D01*
X0000051630Y0000087050D01*
G01X0000055130Y0000089200D02*
X0000055013Y0000088800D01*
X0000054722Y0000088500D01*
X0000054372Y0000088300D01*
X0000053905Y0000088150D01*
X0000053380Y0000088100D01*
X0000052855Y0000088150D01*
X0000052388Y0000088300D01*
X0000052038Y0000088500D01*
X0000051747Y0000088800D01*
X0000051630Y0000089200D01*
X0000051747Y0000089600D01*
X0000052038Y0000089900D01*
X0000052388Y0000090100D01*
X0000052855Y0000090250D01*
X0000053380Y0000090300D01*
X0000053905Y0000090250D01*
X0000054372Y0000090100D01*
X0000054722Y0000089900D01*
X0000055013Y0000089600D01*
X0000055130Y0000089200D01*
G01X0000059330Y0000184300D02*
X0000058980Y0000184550D01*
X0000058747Y0000184850D01*
X0000058630Y0000185200D01*
X0000058747Y0000185600D01*
X0000058980Y0000185900D01*
X0000059330Y0000186200D01*
X0000059797Y0000186300D01*
X0000062130Y0000186300D01*
G01X0000058630Y0000188500D02*
X0000062130Y0000188500D01*
X0000061430Y0000187900D01*
G01X0000058630Y0000187900D02*
X0000058630Y0000189100D01*
G01X0000058630Y0000192300D02*
X0000062130Y0000192300D01*
X0000059622Y0000190450D01*
X0000059622Y0000192950D01*
G01X0000111330Y0000075700D02*
X0000111080Y0000075350D01*
X0000110780Y0000075117D01*
X0000110430Y0000075000D01*
X0000110030Y0000075117D01*
X0000109730Y0000075350D01*
X0000109430Y0000075700D01*
X0000109330Y0000076167D01*
X0000109330Y0000078500D01*
G01X0000107130Y0000075000D02*
X0000107130Y0000078500D01*
X0000107730Y0000077800D01*
G01X0000107730Y0000075000D02*
X0000106530Y0000075000D01*
G01X0000104880Y0000076458D02*
X0000104530Y0000076867D01*
X0000104230Y0000077100D01*
X0000103830Y0000077217D01*
X0000103480Y0000077100D01*
X0000103230Y0000076867D01*
X0000103030Y0000076517D01*
X0000102980Y0000076108D01*
X0000103030Y0000075758D01*
X0000103230Y0000075408D01*
X0000103530Y0000075117D01*
X0000103880Y0000075000D01*
X0000104280Y0000075117D01*
X0000104630Y0000075467D01*
X0000104830Y0000075992D01*
X0000104880Y0000076575D01*
X0000104780Y0000077333D01*
X0000104630Y0000077742D01*
X0000104380Y0000078150D01*
X0000104030Y0000078442D01*
X0000103680Y0000078500D01*
X0000103330Y0000078383D01*
X0000103080Y0000078092D01*
G01X0Y0000155000D02*
X0Y0000005000D01*
G03X0000005000Y0I0000005000J0D01*
G01X0000349367Y0D01*
G03X0000354367Y0000005000I0J0000005000D01*
G01X0000354367Y0000447756D01*
G03X0000349367Y0000452756I-0000005000J0D01*
G01X0000005000Y0000452756D01*
G03X0Y0000447756I0J-0000005000D01*
G01X0Y0000218500D01*
G03X0000005000Y0000213500I0000005000J0D01*
G01X0000031130Y0000213500D01*
G02X0000036130Y0000208500I0J-0000005000D01*
G01X0000036130Y0000165000D01*
G02X0000031130Y0000160000I-0000005000J0D01*
G01X0000005000Y0000160000D01*
G03X0Y0000155000I0J-0000005000D01*
G01X0000005000Y0000160000D02*
X0000031130Y0000160000D01*
G03X0000036130Y0000165000I0J0000005000D01*
G01X0000036130Y0000208500D01*
G03X0000031130Y0000213500I-0000005000J0D01*
G01X0000005000Y0000213500D01*
G02X0Y0000218500I0J0000005000D01*
G01X0Y0000447756D01*
G02X0000005000Y0000452756I0000005000J0D01*
G01X0000349367Y0000452756D01*
G02X0000354367Y0000447756I0J-0000005000D01*
G01X0000354367Y0000005000D01*
G02X0000349367Y0I-0000005000J0D01*
G01X0000005000Y0D01*
G02X0Y0000005000I0J0000005000D01*
G01X0Y0000155000D01*
G02X0000005000Y0000160000I0000005000J0D01*
G54D12*
G01X0000002189Y0000250073D02*
X-0000004012Y0000250073D01*
G01X-0000004012Y0000250073D02*
X-0000004012Y0000285270D01*
X0000002189Y0000285270D01*
G01X0000000248Y0000385898D02*
X0000000248Y0000398102D01*
X-0000005658Y0000398102D01*
X-0000005658Y0000385898D01*
X0000000248Y0000385898D01*
G01X0000002346Y0000122870D02*
X0000002346Y0000044130D01*
G01X0000017961Y0000044130D02*
X0000002346Y0000044130D01*
G01X0000018094Y0000122870D02*
X0000002346Y0000122870D01*
G01X0000017937Y0000250073D02*
X0000010063Y0000250073D01*
G01X0000010063Y0000285270D02*
X0000017937Y0000285270D01*
G01X0000013473Y0000320977D02*
X0000015442Y0000320977D01*
G01X0000002646Y0000346568D02*
X-0000001527Y0000346568D01*
X-0000001527Y0000320977D01*
X0000002646Y0000320977D01*
G01X0000015442Y0000346568D02*
X0000013473Y0000346568D01*
G01X0000012453Y0000403811D02*
X0000014028Y0000403811D01*
X0000014028Y0000380189D01*
X0000012453Y0000380189D01*
G01X0000006547Y0000380189D02*
X0000000248Y0000380189D01*
G01X0000000248Y0000380189D02*
X0000000248Y0000403811D01*
X0000006547Y0000403811D01*
G01X0000017961Y0000044130D02*
X0000017961Y0000049051D01*
X0000033449Y0000049051D01*
G01X0000018094Y0000117949D02*
X0000018094Y0000122870D01*
G01X0000033449Y0000117949D02*
X0000018094Y0000117949D01*
G01X0000026268Y0000320977D02*
X0000028001Y0000320977D01*
G01X0000028001Y0000320977D02*
X0000028001Y0000325899D01*
G01X0000032174Y0000340662D02*
G03X0000032174Y0000340662I-0000000984J0D01*
G01X0000028001Y0000341647D02*
X0000028001Y0000346568D01*
X0000026268Y0000346568D01*
G01X0000018358Y0000402827D02*
G03X0000018358Y0000402827I-0000000984J0D01*
G01X0000050772Y0000059091D02*
G03X0000050772Y0000059091I-0000001575J0D01*
G01X0000033449Y0000049051D02*
X0000033449Y0000055547D01*
G01X0000033449Y0000111453D02*
X0000033449Y0000117949D01*
G01X0000036189Y0000212987D02*
X0000036189Y0000160231D01*
G01X0000081744Y0000009306D02*
X0000086882Y0000009306D01*
X0000086882Y0000013244D01*
X0000126941Y0000013244D01*
G01X0000098594Y0000069149D02*
X0000077039Y0000069149D01*
X0000077039Y0000016147D01*
G01X0000097770Y0000011541D02*
G03X0000097770Y0000011541I-0000001262J0D01*
G01X0000115917Y0000069149D02*
X0000104894Y0000069149D01*
G01X0000132158Y0000020084D02*
X0000132158Y0000069149D01*
G01X0000132158Y0000069149D02*
X0000127335Y0000069149D01*
G54D13*
G01X-0000003575Y0000159838D02*
X-0000003575Y0000213381D01*
G01X0000038157Y0000159838D02*
X-0000003575Y0000159838D01*
G01X-0000003575Y0000213381D02*
X0000038157Y0000213381D01*
G01X0000053118Y0000213381D02*
X0000053118Y0000159838D01*
G01X0000053118Y0000159838D02*
X0000049181Y0000159838D01*
G01X0000049181Y0000213381D02*
X0000053118Y0000213381D01*
M02*
