G04 ================== begin FILE IDENTIFICATION RECORD ==================*
G04 Layout Name:  C:/Users/rock/Documents/Work/ZHG/CutiePi_V1_1/CutiePi_V1_1.brd*
G04 Film Name:    VCC05*
G04 File Format:  Gerber RS274X*
G04 File Origin:  Cadence Allegro 17.2-S058*
G04 Origin Date:  Thu Oct 24 15:12:38 2019*
G04 *
G04 Layer:  ETCH/VCC05*
G04 Layer:  PIN/VCC05*
G04 Layer:  VIA CLASS/VCC05*
G04 *
G04 Offset:    (0.000 0.000)*
G04 Mirror:    No*
G04 Mode:      Positive*
G04 Rotation:  0*
G04 FullContactRelief:  No*
G04 UndefLineWidth:     6.000*
G04 ================== end FILE IDENTIFICATION RECORD ====================*
%FSAX55Y55*MOIN*%
%IR0*IPPOS*OFA0.00000B0.00000*MIA0B0*SFA1.00000B1.00000*%
%ADD15C,.1*%
%ADD13O,.100394X.059055*%
%ADD11C,.02*%
%ADD17C,.06*%
%ADD16R,.06X.06*%
%ADD18C,.03937*%
%ADD14O,.047244X.055118*%
%ADD12O,.066929X.043307*%
%ADD10C,.019689*%
%ADD23C,.220484*%
%ADD19C,.032004*%
%ADD22C,.080004*%
%ADD20C,.059316*%
%ADD21C,.078992*%
G75*
%LPD*%
G75*
G36*
G01X0000322101Y0000446756D02*
X0000327438Y0000446756D01*
G02X0000327745Y0000446099I0J-0000000400D01*
G03X0000347710Y0000426135I0000010873J-0000009091D01*
G02X0000348367Y0000425828I0000000257J-0000000307D01*
G01X0000348367Y0000167709D01*
X0000348236Y0000167661D01*
G03X0000347189Y0000166159I0000000553J-0000001502D01*
G03X0000348032Y0000164750I0000001600J0D01*
G02X0000348200Y0000164218I-0000000189J-0000000352D01*
G03X0000348030Y0000163500I0000001430J-0000000718D01*
G03X0000348367Y0000162517I0000001600J0D01*
G01X0000348367Y0000161483D01*
G03X0000348030Y0000160500I0000001263J-0000000983D01*
G03X0000348330Y0000159568I0000001600J0D01*
G01X0000348367Y0000159515D01*
X0000348367Y0000158899D01*
G03X0000348367Y0000156701I0000001163J-0000001099D01*
G01X0000348367Y0000155983D01*
G03X0000348367Y0000154017I0000001263J-0000000983D01*
G01X0000348367Y0000150453D01*
G03X0000348367Y0000148008I0000001033J-0000001222D01*
G01X0000348367Y0000143287D01*
G03X0000348367Y0000141000I0000001119J-0000001144D01*
G01X0000348367Y0000138498D01*
G03X0000348367Y0000136341I0000001182J-0000001078D01*
G01X0000348367Y0000126621D01*
G03X0000348367Y0000123808I0000000763J-0000001407D01*
G01X0000348367Y0000026928D01*
G02X0000347710Y0000026621I-0000000400J0D01*
G03X0000327745Y0000006657I-0000009092J-0000010873D01*
G02X0000327438Y0000006000I-0000000307J-0000000257D01*
G01X0000321879Y0000006000D01*
G03X0000319381Y0000006000I-0000001249J-0000001000D01*
G01X0000311879Y0000006000D01*
G03X0000309381Y0000006000I-0000001249J-0000001000D01*
G01X0000301879Y0000006000D01*
G03X0000299381Y0000006000I-0000001249J-0000001000D01*
G01X0000291879Y0000006000D01*
G03X0000289381Y0000006000I-0000001249J-0000001000D01*
G01X0000281879Y0000006000D01*
G03X0000279381Y0000006000I-0000001249J-0000001000D01*
G01X0000276484Y0000006000D01*
G02X0000276113Y0000006550I0J0000000400D01*
G03X0000276230Y0000007150I-0000001483J0000000600D01*
G03X0000273030Y0000007150I-0000001600J0D01*
G03X0000273147Y0000006550I0000001600J0D01*
G02X0000272776Y0000006000I-0000000371J-0000000150D01*
G01X0000272484Y0000006000D01*
G02X0000272113Y0000006550I0J0000000400D01*
G03X0000272230Y0000007150I-0000001483J0000000600D01*
G03X0000269030Y0000007150I-0000001600J0D01*
G03X0000269147Y0000006550I0000001600J0D01*
G02X0000268776Y0000006000I-0000000371J-0000000150D01*
G01X0000268484Y0000006000D01*
G02X0000268113Y0000006550I0J0000000400D01*
G03X0000268230Y0000007150I-0000001483J0000000600D01*
G03X0000265030Y0000007150I-0000001600J0D01*
G03X0000265147Y0000006550I0000001600J0D01*
G02X0000264776Y0000006000I-0000000371J-0000000150D01*
G01X0000263984Y0000006000D01*
G02X0000263613Y0000006550I0J0000000400D01*
G03X0000263730Y0000007150I-0000001483J0000000600D01*
G03X0000260530Y0000007150I-0000001600J0D01*
G03X0000260647Y0000006550I0000001600J0D01*
G02X0000260276Y0000006000I-0000000371J-0000000150D01*
G01X0000259984Y0000006000D01*
G02X0000259613Y0000006550I0J0000000400D01*
G03X0000259730Y0000007150I-0000001483J0000000600D01*
G03X0000256530Y0000007150I-0000001600J0D01*
G03X0000256647Y0000006550I0000001600J0D01*
G02X0000256276Y0000006000I-0000000371J-0000000150D01*
G01X0000255984Y0000006000D01*
G02X0000255613Y0000006550I0J0000000400D01*
G03X0000255730Y0000007150I-0000001483J0000000600D01*
G03X0000252530Y0000007150I-0000001600J0D01*
G03X0000252647Y0000006550I0000001600J0D01*
G02X0000252276Y0000006000I-0000000371J-0000000150D01*
G01X0000251484Y0000006000D01*
G02X0000251113Y0000006550I0J0000000400D01*
G03X0000251230Y0000007150I-0000001483J0000000600D01*
G03X0000248030Y0000007150I-0000001600J0D01*
G03X0000248147Y0000006550I0000001600J0D01*
G02X0000247776Y0000006000I-0000000371J-0000000150D01*
G01X0000247484Y0000006000D01*
G02X0000247113Y0000006550I0J0000000400D01*
G03X0000247230Y0000007150I-0000001483J0000000600D01*
G03X0000244030Y0000007150I-0000001600J0D01*
G03X0000244147Y0000006550I0000001600J0D01*
G02X0000243776Y0000006000I-0000000371J-0000000150D01*
G01X0000243484Y0000006000D01*
G02X0000243113Y0000006550I0J0000000400D01*
G03X0000243230Y0000007150I-0000001483J0000000600D01*
G03X0000240030Y0000007150I-0000001600J0D01*
G03X0000240147Y0000006550I0000001600J0D01*
G02X0000239776Y0000006000I-0000000371J-0000000150D01*
G01X0000237484Y0000006000D01*
G02X0000237113Y0000006550I0J0000000400D01*
G03X0000237230Y0000007150I-0000001483J0000000600D01*
G03X0000234030Y0000007150I-0000001600J0D01*
G03X0000234147Y0000006550I0000001600J0D01*
G02X0000233776Y0000006000I-0000000371J-0000000150D01*
G01X0000233484Y0000006000D01*
G02X0000233113Y0000006550I0J0000000400D01*
G03X0000233230Y0000007150I-0000001483J0000000600D01*
G03X0000230030Y0000007150I-0000001600J0D01*
G03X0000230147Y0000006550I0000001600J0D01*
G02X0000229776Y0000006000I-0000000371J-0000000150D01*
G01X0000229484Y0000006000D01*
G02X0000229113Y0000006550I0J0000000400D01*
G03X0000229230Y0000007150I-0000001483J0000000600D01*
G03X0000226030Y0000007150I-0000001600J0D01*
G03X0000226147Y0000006550I0000001600J0D01*
G02X0000225776Y0000006000I-0000000371J-0000000150D01*
G01X0000076879Y0000006000D01*
G03X0000074381Y0000006000I-0000001249J-0000001000D01*
G01X0000071879Y0000006000D01*
G03X0000069381Y0000006000I-0000001249J-0000001000D01*
G01X0000066879Y0000006000D01*
G03X0000064381Y0000006000I-0000001249J-0000001000D01*
G01X0000056879Y0000006000D01*
G03X0000054381Y0000006000I-0000001249J-0000001000D01*
G01X0000046879Y0000006000D01*
G03X0000044381Y0000006000I-0000001249J-0000001000D01*
G01X0000036879Y0000006000D01*
G03X0000034381Y0000006000I-0000001249J-0000001000D01*
G01X0000026928Y0000006000D01*
G02X0000026621Y0000006657I0J0000000400D01*
G03X0000006657Y0000026621I-0000010873J0000009091D01*
G02X0000006000Y0000026928I-0000000257J0000000307D01*
G01X0000006000Y0000033436D01*
X0000006137Y0000033482D01*
G03X0000006137Y0000036518I-0000000507J0000001518D01*
G01X0000006000Y0000036564D01*
X0000006000Y0000053436D01*
X0000006137Y0000053482D01*
G03X0000006137Y0000056518I-0000000507J0000001518D01*
G01X0000006000Y0000056564D01*
X0000006000Y0000063437D01*
X0000006137Y0000063482D01*
G03X0000006137Y0000066518I-0000000507J0000001518D01*
G01X0000006000Y0000066564D01*
X0000006000Y0000073436D01*
X0000006137Y0000073482D01*
G03X0000006137Y0000076518I-0000000507J0000001518D01*
G01X0000006000Y0000076564D01*
X0000006000Y0000083436D01*
X0000006137Y0000083482D01*
G03X0000006137Y0000086518I-0000000507J0000001518D01*
G01X0000006000Y0000086564D01*
X0000006000Y0000093436D01*
X0000006137Y0000093482D01*
G03X0000006137Y0000096518I-0000000507J0000001518D01*
G01X0000006000Y0000096564D01*
X0000006000Y0000103436D01*
X0000006137Y0000103482D01*
G03X0000006137Y0000106518I-0000000507J0000001518D01*
G01X0000006000Y0000106564D01*
X0000006000Y0000111936D01*
X0000006137Y0000111982D01*
G03X0000006137Y0000115018I-0000000507J0000001518D01*
G01X0000006000Y0000115064D01*
X0000006000Y0000123436D01*
X0000006137Y0000123482D01*
G03X0000006137Y0000126518I-0000000507J0000001518D01*
G01X0000006000Y0000126564D01*
X0000006000Y0000133436D01*
X0000006137Y0000133482D01*
G03X0000006137Y0000136518I-0000000507J0000001518D01*
G01X0000006000Y0000136564D01*
X0000006000Y0000143436D01*
X0000006137Y0000143482D01*
G03X0000006137Y0000146518I-0000000507J0000001518D01*
G01X0000006000Y0000146564D01*
X0000006000Y0000153436D01*
X0000006137Y0000153482D01*
G03X0000006879Y0000154000I-0000000507J0000001518D01*
G01X0000024381Y0000154000D01*
G03X0000026879Y0000154000I0000001249J0000001000D01*
G01X0000034381Y0000154000D01*
G03X0000036879Y0000154000I0000001249J0000001000D01*
G01X0000042130Y0000154000D01*
X0000042130Y0000154524D01*
G02X0000042601Y0000154918I0000000400J0D01*
G03X0000043670Y0000154822I0000001068J0000005904D01*
G03X0000043670Y0000166822I0J0000006000D01*
G03X0000042601Y0000166726I0J-0000006000D01*
G02X0000042130Y0000167120I-0000000071J0000000394D01*
G01X0000042130Y0000174408D01*
X0000042141Y0000174472D01*
X0000042151Y0000174503D01*
G03X0000042230Y0000175000I-0000001521J0000000497D01*
G03X0000042151Y0000175497I-0000001600J0D01*
G01X0000042146Y0000175512D01*
X0000042130Y0000175558D01*
X0000042130Y0000184408D01*
X0000042141Y0000184472D01*
X0000042151Y0000184503D01*
G03X0000042230Y0000185000I-0000001521J0000000497D01*
G03X0000042151Y0000185497I-0000001600J0D01*
G01X0000042146Y0000185512D01*
X0000042130Y0000185558D01*
X0000042130Y0000194408D01*
X0000042141Y0000194472D01*
X0000042151Y0000194503D01*
G03X0000042230Y0000195000I-0000001521J0000000497D01*
G03X0000042151Y0000195497I-0000001600J0D01*
G01X0000042146Y0000195512D01*
X0000042130Y0000195558D01*
X0000042130Y0000204408D01*
X0000042141Y0000204472D01*
X0000042151Y0000204503D01*
G03X0000042230Y0000205000I-0000001521J0000000497D01*
G03X0000042151Y0000205497I-0000001600J0D01*
G01X0000042146Y0000205512D01*
X0000042130Y0000205558D01*
X0000042130Y0000206099D01*
G02X0000042601Y0000206492I0000000400J0D01*
G03X0000043670Y0000206396I0000001068J0000005904D01*
G03X0000043670Y0000218397I0J0000006000D01*
G03X0000042601Y0000218301I0J-0000006000D01*
G02X0000042130Y0000218695I-0000000071J0000000394D01*
G01X0000042130Y0000219408D01*
X0000042141Y0000219472D01*
X0000042151Y0000219503D01*
G03X0000042230Y0000220000I-0000001521J0000000497D01*
G03X0000039030Y0000220000I-0000001600J0D01*
G03X0000039032Y0000219920I0000001600J0D01*
G02X0000038632Y0000219500I-0000000399J-0000000020D01*
G01X0000010222Y0000219500D01*
X0000010157Y0000219511D01*
X0000010142Y0000219516D01*
G03X0000009630Y0000219600I-0000000512J-0000001516D01*
G03X0000009104Y0000219511I0J-0000001600D01*
G01X0000009072Y0000219500D01*
X0000006000Y0000219500D01*
X0000006000Y0000223436D01*
X0000006137Y0000223482D01*
G03X0000006137Y0000226518I-0000000507J0000001518D01*
G01X0000006000Y0000226564D01*
X0000006000Y0000233436D01*
X0000006137Y0000233482D01*
G03X0000006137Y0000236518I-0000000507J0000001518D01*
G01X0000006000Y0000236564D01*
X0000006000Y0000243436D01*
X0000006137Y0000243482D01*
G03X0000006137Y0000246518I-0000000507J0000001518D01*
G01X0000006000Y0000246564D01*
X0000006000Y0000247498D01*
X0000007406Y0000247498D01*
G03X0000007406Y0000253829I0J0000003166D01*
G01X0000006000Y0000253829D01*
X0000006000Y0000258436D01*
X0000006137Y0000258482D01*
G03X0000006137Y0000261518I-0000000507J0000001518D01*
G01X0000006000Y0000261564D01*
X0000006000Y0000268436D01*
X0000006137Y0000268482D01*
G03X0000006137Y0000271518I-0000000507J0000001518D01*
G01X0000006000Y0000271564D01*
X0000006000Y0000278436D01*
X0000006137Y0000278482D01*
G03X0000007230Y0000280000I-0000000507J0000001518D01*
G03X0000006959Y0000280891I-0000001600J0D01*
G02X0000007291Y0000281514I0000000332J0000000223D01*
G01X0000007406Y0000281514D01*
G03X0000007406Y0000287845I0J0000003166D01*
G01X0000006000Y0000287845D01*
X0000006000Y0000293436D01*
X0000006137Y0000293482D01*
G03X0000006137Y0000296518I-0000000507J0000001518D01*
G01X0000006000Y0000296564D01*
X0000006000Y0000303436D01*
X0000006137Y0000303482D01*
G03X0000006137Y0000306518I-0000000507J0000001518D01*
G01X0000006000Y0000306564D01*
X0000006000Y0000313436D01*
X0000006137Y0000313482D01*
G03X0000006137Y0000316518I-0000000507J0000001518D01*
G01X0000006000Y0000316564D01*
X0000006000Y0000317615D01*
X0000009979Y0000317615D01*
G03X0000009979Y0000325521I0J0000003953D01*
G01X0000006000Y0000325521D01*
X0000006000Y0000328436D01*
X0000006137Y0000328482D01*
G03X0000006137Y0000331518I-0000000507J0000001518D01*
G01X0000006000Y0000331564D01*
X0000006000Y0000338436D01*
X0000006137Y0000338482D01*
G03X0000006137Y0000341518I-0000000507J0000001518D01*
G01X0000006000Y0000341564D01*
X0000006000Y0000342024D01*
X0000009979Y0000342024D01*
G03X0000009979Y0000349930I0J0000003953D01*
G01X0000006000Y0000349930D01*
X0000006000Y0000353436D01*
X0000006137Y0000353482D01*
G03X0000006137Y0000356518I-0000000507J0000001518D01*
G01X0000006000Y0000356564D01*
X0000006000Y0000363436D01*
X0000006137Y0000363482D01*
G03X0000006137Y0000366518I-0000000507J0000001518D01*
G01X0000006000Y0000366564D01*
X0000006000Y0000373436D01*
X0000006137Y0000373482D01*
G03X0000006137Y0000376518I-0000000507J0000001518D01*
G01X0000006000Y0000376564D01*
X0000006000Y0000379632D01*
G02X0000006730Y0000379858I0000000400J0D01*
G03X0000009500Y0000378401I0000002770J0000001905D01*
G03X0000012862Y0000381764I0J0000003362D01*
G01X0000012862Y0000382551D01*
G03X0000009500Y0000385914I-0000003362J0D01*
G03X0000007705Y0000385394I0J-0000003362D01*
G02X0000007119Y0000385586I-0000000214J0000000338D01*
G03X0000006137Y0000386518I-0000001489J-0000000586D01*
G01X0000006000Y0000386564D01*
X0000006000Y0000393436D01*
X0000006137Y0000393482D01*
G03X0000006137Y0000396518I-0000000507J0000001518D01*
G01X0000006000Y0000396564D01*
X0000006000Y0000399317D01*
G02X0000006730Y0000399543I0000000400J0D01*
G03X0000009500Y0000398086I0000002770J0000001905D01*
G03X0000012862Y0000401449I0J0000003362D01*
G01X0000012862Y0000402236D01*
G03X0000009500Y0000405599I-0000003362J0D01*
G03X0000006730Y0000404142I0J-0000003362D01*
G02X0000006000Y0000404368I-0000000330J0000000227D01*
G01X0000006000Y0000413436D01*
X0000006137Y0000413482D01*
G03X0000006137Y0000416518I-0000000507J0000001518D01*
G01X0000006000Y0000416564D01*
X0000006000Y0000423436D01*
X0000006137Y0000423482D01*
G03X0000007228Y0000424925I-0000000507J0000001518D01*
G02X0000007851Y0000425239I0000000400J-0000000019D01*
G03X0000023428Y0000425096I0000007897J0000011769D01*
G02X0000024041Y0000424808I0000000217J-0000000336D01*
G03X0000025630Y0000423400I0000001589J0000000193D01*
G03X0000027230Y0000425000I0J0000001600D01*
G03X0000026124Y0000426522I-0000001600J0D01*
G02X0000025960Y0000427180I0000000124J0000000380D01*
G03X0000026690Y0000428000I-0000010212J0000009828D01*
G01X0000169130Y0000428000D01*
X0000169130Y0000433329D01*
G02X0000169750Y0000433663I0000000400J0D01*
G03X0000170630Y0000433400I0000000880J0000001337D01*
G03X0000170630Y0000436600I0J0000001600D01*
G03X0000169750Y0000436337I0J-0000001600D01*
G02X0000169130Y0000436671I-0000000220J0000000334D01*
G01X0000169130Y0000443329D01*
G02X0000169750Y0000443663I0000000400J0D01*
G03X0000170630Y0000443400I0000000880J0000001337D01*
G03X0000172230Y0000445000I0J0000001600D01*
G03X0000171807Y0000446085I-0000001600J0D01*
G02X0000172101Y0000446756I0000000294J0000000271D01*
G01X0000179159Y0000446756D01*
G02X0000179454Y0000446085I0J-0000000400D01*
G03X0000179030Y0000445000I0000001177J-0000001085D01*
G03X0000182230Y0000445000I0000001600J0D01*
G03X0000181806Y0000446085I-0000001600J0D01*
G02X0000182101Y0000446756I0000000294J0000000271D01*
G01X0000189159Y0000446756D01*
G02X0000189454Y0000446085I0J-0000000400D01*
G03X0000189030Y0000445000I0000001177J-0000001085D01*
G03X0000192230Y0000445000I0000001600J0D01*
G03X0000191806Y0000446085I-0000001600J0D01*
G02X0000192101Y0000446756I0000000294J0000000271D01*
G01X0000199159Y0000446756D01*
G02X0000199454Y0000446085I0J-0000000400D01*
G03X0000199030Y0000445000I0000001177J-0000001085D01*
G03X0000202230Y0000445000I0000001600J0D01*
G03X0000201806Y0000446085I-0000001600J0D01*
G02X0000202101Y0000446756I0000000294J0000000271D01*
G01X0000209159Y0000446756D01*
G02X0000209454Y0000446085I0J-0000000400D01*
G03X0000209030Y0000445000I0000001177J-0000001085D01*
G03X0000212230Y0000445000I0000001600J0D01*
G03X0000211806Y0000446085I-0000001600J0D01*
G02X0000212101Y0000446756I0000000294J0000000271D01*
G01X0000219159Y0000446756D01*
G02X0000219453Y0000446085I0J-0000000400D01*
G03X0000219030Y0000445000I0000001177J-0000001085D01*
G03X0000222230Y0000445000I0000001600J0D01*
G03X0000221807Y0000446085I-0000001600J0D01*
G02X0000222101Y0000446756I0000000294J0000000271D01*
G01X0000229159Y0000446756D01*
G02X0000229453Y0000446085I0J-0000000400D01*
G03X0000229030Y0000445000I0000001177J-0000001085D01*
G03X0000232230Y0000445000I0000001600J0D01*
G03X0000231807Y0000446085I-0000001600J0D01*
G02X0000232101Y0000446756I0000000294J0000000271D01*
G01X0000239159Y0000446756D01*
G02X0000239454Y0000446085I0J-0000000400D01*
G03X0000239030Y0000445000I0000001177J-0000001085D01*
G03X0000242230Y0000445000I0000001600J0D01*
G03X0000241806Y0000446085I-0000001600J0D01*
G02X0000242101Y0000446756I0000000294J0000000271D01*
G01X0000249159Y0000446756D01*
G02X0000249454Y0000446085I0J-0000000400D01*
G03X0000249030Y0000445000I0000001177J-0000001085D01*
G03X0000252230Y0000445000I0000001600J0D01*
G03X0000251806Y0000446085I-0000001600J0D01*
G02X0000252101Y0000446756I0000000294J0000000271D01*
G01X0000259159Y0000446756D01*
G02X0000259454Y0000446085I0J-0000000400D01*
G03X0000259030Y0000445000I0000001177J-0000001085D01*
G03X0000262230Y0000445000I0000001600J0D01*
G03X0000261806Y0000446085I-0000001600J0D01*
G02X0000262101Y0000446756I0000000294J0000000271D01*
G01X0000269159Y0000446756D01*
G02X0000269454Y0000446085I0J-0000000400D01*
G03X0000269030Y0000445000I0000001177J-0000001085D01*
G03X0000272230Y0000445000I0000001600J0D01*
G03X0000271806Y0000446085I-0000001600J0D01*
G02X0000272101Y0000446756I0000000294J0000000271D01*
G01X0000279159Y0000446756D01*
G02X0000279454Y0000446085I0J-0000000400D01*
G03X0000279030Y0000445000I0000001177J-0000001085D01*
G03X0000282230Y0000445000I0000001600J0D01*
G03X0000281806Y0000446085I-0000001600J0D01*
G02X0000282101Y0000446756I0000000294J0000000271D01*
G01X0000289159Y0000446756D01*
G02X0000289454Y0000446085I0J-0000000400D01*
G03X0000289030Y0000445000I0000001177J-0000001085D01*
G03X0000292230Y0000445000I0000001600J0D01*
G03X0000291806Y0000446085I-0000001600J0D01*
G02X0000292101Y0000446756I0000000294J0000000271D01*
G01X0000299159Y0000446756D01*
G02X0000299454Y0000446085I0J-0000000400D01*
G03X0000299030Y0000445000I0000001177J-0000001085D01*
G03X0000302230Y0000445000I0000001600J0D01*
G03X0000301806Y0000446085I-0000001600J0D01*
G02X0000302101Y0000446756I0000000294J0000000271D01*
G01X0000309159Y0000446756D01*
G02X0000309454Y0000446085I0J-0000000400D01*
G03X0000309030Y0000445000I0000001177J-0000001085D01*
G03X0000312230Y0000445000I0000001600J0D01*
G03X0000311806Y0000446085I-0000001600J0D01*
G02X0000312101Y0000446756I0000000294J0000000271D01*
G01X0000319159Y0000446756D01*
G02X0000319454Y0000446085I0J-0000000400D01*
G03X0000319030Y0000445000I0000001177J-0000001085D01*
G03X0000322230Y0000445000I0000001600J0D01*
G03X0000321806Y0000446085I-0000001600J0D01*
G02X0000322101Y0000446756I0000000294J0000000271D01*
G37*
%LPC*%
G75*
G36*
G01X0000209855Y0000021100D02*
G02X0000209030Y0000022500I0000000775J0000001400D01*
G02X0000212230Y0000022500I0000001600J0D01*
G02X0000211405Y0000021100I-0000001600J0D01*
G03X0000211405Y0000020400I0000000194J-0000000350D01*
G02X0000212230Y0000019000I-0000000775J-0000001400D01*
G02X0000211782Y0000017889I-0000001600J0D01*
G03X0000211782Y0000017611I0000000144J-0000000139D01*
G02X0000212230Y0000016500I-0000001151J-0000001111D01*
G02X0000209030Y0000016500I-0000001600J0D01*
G02X0000209478Y0000017611I0000001600J0D01*
G03X0000209478Y0000017889I-0000000144J0000000139D01*
G02X0000209030Y0000019000I0000001151J0000001111D01*
G02X0000209855Y0000020400I0000001600J0D01*
G03X0000209855Y0000021100I-0000000194J0000000350D01*
G37*
G36*
G01X0000205089Y0000020994D02*
G02X0000204030Y0000022500I0000000541J0000001506D01*
G02X0000207230Y0000022500I0000001600J0D01*
G02X0000206571Y0000021206I-0000001600J0D01*
G03X0000206671Y0000020506I0000000235J-0000000323D01*
G02X0000207730Y0000019000I-0000000541J-0000001506D01*
G02X0000207282Y0000017889I-0000001600J0D01*
G03X0000207282Y0000017611I0000000144J-0000000139D01*
G02X0000207730Y0000016500I-0000001151J-0000001111D01*
G02X0000206130Y0000014900I-0000001600J0D01*
G02X0000204730Y0000015725I0J0000001600D01*
G03X0000204030Y0000015725I-0000000350J-0000000194D01*
G02X0000202630Y0000014900I-0000001400J0000000775D01*
G02X0000201030Y0000016500I0J0000001600D01*
G02X0000201479Y0000017611I0000001600J0D01*
G03X0000201479Y0000017889I-0000000144J0000000139D01*
G02X0000201030Y0000019000I0000001151J0000001111D01*
G02X0000202630Y0000020600I0000001600J0D01*
G02X0000204030Y0000019775I0J-0000001600D01*
G03X0000204730Y0000019775I0000000350J0000000194D01*
G02X0000205189Y0000020294I0000001400J-0000000775D01*
G03X0000205089Y0000020994I-0000000235J0000000323D01*
G37*
G36*
G01X0000092101Y0000157529D02*
G02X0000092030Y0000158000I0000001529J0000000471D01*
G02X0000093630Y0000156400I0000001600J0D01*
G02X0000093159Y0000156471I0J0000001600D01*
G03X0000092659Y0000155971I-0000000118J-0000000382D01*
G02X0000092730Y0000155500I-0000001529J-0000000471D01*
G02X0000091130Y0000157100I-0000001600J0D01*
G02X0000091601Y0000157029I0J-0000001600D01*
G03X0000092101Y0000157529I0000000118J0000000382D01*
G37*
G36*
G01X0000209145Y0000218099D02*
G03X0000208607Y0000218179I-0000000312J-0000000251D01*
G02X0000207704Y0000217900I-0000000903J0000001321D01*
G02X0000207704Y0000221100I0J0000001600D01*
G02X0000208733Y0000220726I0J-0000001600D01*
G03X0000209276Y0000220752I0000000257J0000000306D01*
G02X0000210704Y0000221352I0000001428J-0000001400D01*
G02X0000212705Y0000219352I0J-0000002000D01*
G02X0000211840Y0000217705I-0000002000J0D01*
G03X0000211840Y0000217046I0000000227J-0000000329D01*
G02X0000212705Y0000215400I-0000001135J-0000001647D01*
G02X0000210704Y0000213399I-0000002000J0D01*
G02X0000209166Y0000214122I0J0000002000D01*
G03X0000208627Y0000214193I-0000000308J-0000000256D01*
G02X0000207704Y0000213900I-0000000923J0000001307D01*
G02X0000207704Y0000217100I0J0000001600D01*
G02X0000208713Y0000216743I0J-0000001600D01*
G03X0000209255Y0000216778I0000000252J0000000311D01*
G02X0000209569Y0000217046I0000001450J-0000001378D01*
G03X0000209569Y0000217705I-0000000227J0000000329D01*
G02X0000209145Y0000218099I0000001135J0000001647D01*
G37*
G36*
G01X0000020004Y0000287845D02*
X0000022366Y0000287845D01*
G02X0000022366Y0000281514I0J-0000003165D01*
G01X0000020004Y0000281514D01*
G02X0000020004Y0000287845I0J0000003166D01*
G37*
G36*
G01X0000020004Y0000253829D02*
X0000022366Y0000253829D01*
G02X0000022366Y0000247498I0J-0000003165D01*
G01X0000020004Y0000247498D01*
G02X0000020004Y0000253829I0J0000003166D01*
G37*
G36*
G01X0000044000Y0000169829D02*
X0000044000Y0000175829D01*
G02X0000045000Y0000176830I0000001000J0D01*
G01X0000051000Y0000176830D01*
G02X0000052000Y0000175829I0J-0000001000D01*
G01X0000052000Y0000169829D01*
G02X0000051000Y0000168829I-0000001000J0D01*
G01X0000045000Y0000168829D01*
G02X0000044000Y0000169829I0J0000001000D01*
G37*
G36*
G01X0000118330Y0000030559D02*
G03X0000118930Y0000030559I0000000300J0000000265D01*
G02X0000120130Y0000031100I0000001200J-0000001059D01*
G02X0000121060Y0000030802I0J-0000001600D01*
G03X0000121623Y0000030902I0000000233J0000000325D01*
G02X0000122945Y0000031600I0000001322J-0000000902D01*
G02X0000122945Y0000028400I0J-0000001600D01*
G02X0000122015Y0000028698I0J0000001600D01*
G03X0000121452Y0000028598I-0000000233J-0000000325D01*
G02X0000120130Y0000027900I-0000001322J0000000902D01*
G02X0000118930Y0000028441I0J0000001600D01*
G03X0000118330Y0000028441I-0000000300J-0000000265D01*
G02X0000117130Y0000027900I-0000001200J0000001059D01*
G02X0000117130Y0000031100I0J0000001600D01*
G02X0000118330Y0000030559I0J-0000001600D01*
G37*
G36*
G01X0000120571Y0000083700D02*
G03X0000120571Y0000084300I-0000000265J0000000300D01*
G02X0000120030Y0000085500I0000001059J0000001200D01*
G02X0000121630Y0000087100I0000001600J0D01*
G02X0000122830Y0000086559I0J-0000001600D01*
G03X0000123430Y0000086559I0000000300J0000000265D01*
G02X0000124630Y0000087100I0000001200J-0000001059D01*
G02X0000126230Y0000085500I0J-0000001600D01*
G02X0000125689Y0000084300I-0000001600J0D01*
G03X0000125689Y0000083700I0000000265J-0000000300D01*
G02X0000126230Y0000082500I-0000001059J-0000001200D01*
G02X0000124630Y0000080900I-0000001600J0D01*
G02X0000123430Y0000081441I0J0000001600D01*
G03X0000122830Y0000081441I-0000000300J-0000000265D01*
G02X0000121630Y0000080900I-0000001200J0000001059D01*
G02X0000120030Y0000082500I0J0000001600D01*
G02X0000120571Y0000083700I0000001600J0D01*
G37*
G36*
G01X0000340672Y0000135131D02*
G03X0000340088Y0000135131I-0000000292J-0000000274D01*
G02X0000338630Y0000134500I-0000001458J0000001369D01*
G02X0000338630Y0000138500I0J0000002000D01*
G02X0000340088Y0000137869I0J-0000002000D01*
G03X0000340672Y0000137869I0000000292J0000000274D01*
G02X0000342130Y0000138500I0000001458J-0000001369D01*
G02X0000342130Y0000134500I0J-0000002000D01*
G02X0000340672Y0000135131I0J0000002000D01*
G37*
G36*
G01X0000188500Y0000139133D02*
G03X0000188419Y0000139761I-0000000282J0000000283D01*
G02X0000187628Y0000141142I0000000809J0000001381D01*
G02X0000190828Y0000141142I0000001600J0D01*
G02X0000190358Y0000140009I-0000001600J0D01*
G03X0000190439Y0000139381I0000000282J-0000000283D01*
G02X0000191230Y0000138000I-0000000809J-0000001381D01*
G02X0000188030Y0000138000I-0000001600J0D01*
G02X0000188500Y0000139133I0000001600J0D01*
G37*
G36*
G01X0000340672Y0000140631D02*
G03X0000340088Y0000140631I-0000000292J-0000000274D01*
G02X0000338630Y0000140000I-0000001458J0000001369D01*
G02X0000338630Y0000144000I0J0000002000D01*
G02X0000340088Y0000143369I0J-0000002000D01*
G03X0000340672Y0000143369I0000000292J0000000274D01*
G02X0000342130Y0000144000I0000001458J-0000001369D01*
G02X0000342130Y0000140000I0J-0000002000D01*
G02X0000340672Y0000140631I0J0000002000D01*
G37*
G36*
G01X0000340672Y0000146131D02*
G03X0000340088Y0000146131I-0000000292J-0000000274D01*
G02X0000338630Y0000145500I-0000001458J0000001369D01*
G02X0000338630Y0000149500I0J0000002000D01*
G02X0000340088Y0000148869I0J-0000002000D01*
G03X0000340672Y0000148869I0000000292J0000000274D01*
G02X0000342130Y0000149500I0000001458J-0000001369D01*
G02X0000342130Y0000145500I0J-0000002000D01*
G02X0000340672Y0000146131I0J0000002000D01*
G37*
G36*
G01X0000340672Y0000151631D02*
G03X0000340088Y0000151631I-0000000292J-0000000274D01*
G02X0000338630Y0000151000I-0000001458J0000001369D01*
G02X0000338630Y0000155000I0J0000002000D01*
G02X0000340088Y0000154369I0J-0000002000D01*
G03X0000340672Y0000154369I0000000292J0000000274D01*
G02X0000342130Y0000155000I0000001458J-0000001369D01*
G02X0000342130Y0000151000I0J-0000002000D01*
G02X0000340672Y0000151631I0J0000002000D01*
G37*
G36*
G01X0000340672Y0000157631D02*
G03X0000340088Y0000157631I-0000000292J-0000000274D01*
G02X0000338630Y0000157000I-0000001458J0000001369D01*
G02X0000338630Y0000161000I0J0000002000D01*
G02X0000340088Y0000160369I0J-0000002000D01*
G03X0000340672Y0000160369I0000000292J0000000274D01*
G02X0000342130Y0000161000I0000001458J-0000001369D01*
G02X0000342130Y0000157000I0J-0000002000D01*
G02X0000340672Y0000157631I0J0000002000D01*
G37*
G36*
G01X0000158631Y0000161571D02*
G03X0000158211Y0000161985I-0000000400J0000000014D01*
G02X0000158130Y0000161983I-0000000082J0000001598D01*
G02X0000158130Y0000165183I0J0000001600D01*
G02X0000159716Y0000163792I0J-0000001600D01*
G03X0000160199Y0000163453I0000000397J0000000052D01*
G02X0000160630Y0000163500I0000000431J-0000001953D01*
G02X0000162630Y0000161500I0J-0000002000D01*
G02X0000162093Y0000160136I-0000002000J0D01*
G03X0000162093Y0000159864I0000000146J-0000000136D01*
G02X0000162630Y0000158500I-0000001463J-0000001364D01*
G02X0000160630Y0000156500I-0000002000J0D01*
G02X0000160190Y0000156549I0J0000002000D01*
G03X0000159707Y0000156226I-0000000088J-0000000390D01*
G02X0000158130Y0000154896I-0000001577J0000000270D01*
G02X0000158130Y0000158096I0J0000001600D01*
G02X0000158210Y0000158094I0J-0000001600D01*
G03X0000158630Y0000158495I0000000020J0000000400D01*
G01X0000158630Y0000158500D01*
G02X0000159167Y0000159864I0000002000J0D01*
G03X0000159167Y0000160136I-0000000146J0000000136D01*
G02X0000158630Y0000161500I0000001463J0000001364D01*
G02X0000158631Y0000161571I0000002000J-0000000001D01*
G37*
G36*
G01X0000158642Y0000175716D02*
G03X0000158221Y0000176158I-0000000398J0000000043D01*
G02X0000158130Y0000176156I-0000000091J0000001598D01*
G02X0000158130Y0000179356I0J0000001600D01*
G02X0000159728Y0000177829I0J-0000001600D01*
G03X0000160212Y0000177456I0000000400J0000000018D01*
G02X0000160630Y0000177500I0000000418J-0000001956D01*
G02X0000162630Y0000175500I0J-0000002000D01*
G02X0000162093Y0000174136I-0000002000J0D01*
G03X0000162093Y0000173864I0000000146J-0000000136D01*
G02X0000162630Y0000172500I-0000001463J-0000001364D01*
G02X0000160630Y0000170500I-0000002000J0D01*
G02X0000160160Y0000170556I0J0000002000D01*
G03X0000159679Y0000170267I-0000000094J-0000000389D01*
G02X0000158130Y0000169069I-0000001549J0000000402D01*
G02X0000158130Y0000172269I0J0000001600D01*
G02X0000158214Y0000172267I0000000001J-0000001600D01*
G03X0000158635Y0000172639I0000000021J0000000399D01*
G02X0000159167Y0000173864I0000001995J-0000000139D01*
G03X0000159167Y0000174136I-0000000146J0000000136D01*
G02X0000158630Y0000175500I0000001463J0000001364D01*
G02X0000158642Y0000175716I0000002000J0D01*
G37*
G36*
G01X0000063930Y0000176941D02*
G03X0000063330Y0000176941I-0000000300J-0000000265D01*
G02X0000062130Y0000176400I-0000001200J0000001059D01*
G02X0000062130Y0000179600I0J0000001600D01*
G02X0000063330Y0000179059I0J-0000001600D01*
G03X0000063930Y0000179059I0000000300J0000000265D01*
G02X0000065130Y0000179600I0000001200J-0000001059D01*
G02X0000065130Y0000176400I0J-0000001600D01*
G02X0000063930Y0000176941I0J0000001600D01*
G37*
G36*
G01X0000105432Y0000178412D02*
G03X0000105210Y0000178245I-0000000025J-0000000198D01*
G02X0000103630Y0000176900I-0000001580J0000000255D01*
G02X0000103630Y0000180100I0J0000001600D01*
G02X0000103828Y0000180088I0J-0000001600D01*
G03X0000104050Y0000180255I0000000025J0000000198D01*
G02X0000105630Y0000181600I0000001580J-0000000255D01*
G02X0000105630Y0000178400I0J-0000001600D01*
G02X0000105432Y0000178412I0J0000001600D01*
G37*
G36*
G01X0000163274Y0000184841D02*
G03X0000163702Y0000185226I0000000029J0000000399D01*
G02X0000165302Y0000186772I0000001599J-0000000055D01*
G02X0000166902Y0000185172I0J-0000001600D01*
G02X0000165466Y0000183580I-0000001600J0D01*
G03X0000165110Y0000183126I0000000041J-0000000398D01*
G02X0000165130Y0000182846I-0000001980J-0000000280D01*
G02X0000164593Y0000181482I-0000002000J0D01*
G03X0000164593Y0000181210I0000000146J-0000000136D01*
G02X0000165130Y0000179846I-0000001463J-0000001364D01*
G02X0000161130Y0000179846I-0000002000J0D01*
G02X0000161667Y0000181210I0000002000J0D01*
G03X0000161667Y0000181482I-0000000146J0000000136D01*
G02X0000161130Y0000182846I0000001463J0000001364D01*
G02X0000163130Y0000184846I0000002000J0D01*
G02X0000163274Y0000184841I0J-0000002000D01*
G37*
G36*
G01X0000046214Y0000186251D02*
G03X0000046214Y0000186967I-0000000179J0000000358D01*
G02X0000044000Y0000190546I0000001786J0000003579D01*
G02X0000052000Y0000190546I0000004000J0D01*
G02X0000049786Y0000186967I-0000004000J0D01*
G03X0000049786Y0000186251I0000000179J-0000000358D01*
G02X0000052000Y0000182672I-0000001786J-0000003579D01*
G02X0000044000Y0000182672I-0000004000J0D01*
G02X0000046214Y0000186251I0000004000J0D01*
G37*
G36*
G01X0000063550Y0000194821D02*
G03X0000062950Y0000194821I-0000000300J-0000000265D01*
G02X0000061750Y0000194280I-0000001200J0000001059D01*
G02X0000061750Y0000197480I0J0000001600D01*
G02X0000062950Y0000196939I0J-0000001600D01*
G03X0000063550Y0000196939I0000000300J0000000265D01*
G02X0000064750Y0000197480I0000001200J-0000001059D01*
G02X0000064750Y0000194280I0J-0000001600D01*
G02X0000063550Y0000194821I0J0000001600D01*
G37*
G36*
G01X0000200667Y0000201364D02*
G03X0000200667Y0000201636I-0000000146J0000000136D01*
G02X0000200130Y0000203000I0000001463J0000001364D01*
G02X0000204130Y0000203000I0000002000J0D01*
G02X0000203593Y0000201636I-0000002000J0D01*
G03X0000203593Y0000201364I0000000146J-0000000136D01*
G02X0000204130Y0000200000I-0000001463J-0000001364D01*
G02X0000200130Y0000200000I-0000002000J0D01*
G02X0000200667Y0000201364I0000002000J0D01*
G37*
G36*
G01X0000210071Y0000202099D02*
G03X0000209533Y0000202179I-0000000312J-0000000251D01*
G02X0000208630Y0000201900I-0000000903J0000001321D01*
G02X0000208630Y0000205100I0J0000001600D01*
G02X0000209659Y0000204726I0J-0000001600D01*
G03X0000210201Y0000204752I0000000257J0000000306D01*
G02X0000211630Y0000205352I0000001429J-0000001400D01*
G02X0000213630Y0000203352I0J-0000002000D01*
G02X0000212765Y0000201705I-0000002000J0D01*
G03X0000212765Y0000201046I0000000227J-0000000329D01*
G02X0000213630Y0000199400I-0000001135J-0000001647D01*
G02X0000211630Y0000197399I-0000002000J0D01*
G02X0000210091Y0000198122I0J0000002000D01*
G03X0000209553Y0000198193I-0000000308J-0000000256D01*
G02X0000208630Y0000197900I-0000000923J0000001307D01*
G02X0000208630Y0000201100I0J0000001600D01*
G02X0000209638Y0000200743I0J-0000001600D01*
G03X0000210180Y0000200778I0000000252J0000000311D01*
G02X0000210495Y0000201046I0000001450J-0000001378D01*
G03X0000210495Y0000201705I-0000000227J0000000329D01*
G02X0000210071Y0000202099I0000001135J0000001647D01*
G37*
G36*
G01X0000124168Y0000204207D02*
G03X0000124690Y0000204487I0000000134J0000000377D01*
G02X0000126630Y0000206000I0000001940J-0000000487D01*
G02X0000128630Y0000204000I0J-0000002000D01*
G02X0000128093Y0000202636I-0000002000J0D01*
G03X0000128093Y0000202364I0000000146J-0000000136D01*
G02X0000128630Y0000201000I-0000001463J-0000001364D01*
G02X0000126630Y0000199000I-0000002000J0D01*
G02X0000124637Y0000200829I0J0000002000D01*
G03X0000124117Y0000201176I-0000000399J-0000000034D01*
G02X0000123630Y0000201100I-0000000487J0000001524D01*
G02X0000123630Y0000204300I0J0000001600D01*
G02X0000124168Y0000204207I0J-0000001600D01*
G37*
G36*
G01X0000221495Y0000217694D02*
G03X0000221495Y0000218353I-0000000227J0000000329D01*
G02X0000220630Y0000220000I0000001135J0000001647D01*
G02X0000222630Y0000222000I0000002000J0D01*
G02X0000223700Y0000221690I0J-0000002000D01*
G03X0000224257Y0000221822I0000000214J0000000338D01*
G02X0000225630Y0000222600I0000001373J-0000000822D01*
G02X0000225630Y0000219400I0J-0000001600D01*
G02X0000225025Y0000219518I0J0000001600D01*
G03X0000224500Y0000219290I-0000000151J-0000000370D01*
G02X0000223765Y0000218353I-0000001870J0000000710D01*
G03X0000223765Y0000217694I0000000227J-0000000329D01*
G02X0000224513Y0000216723I-0000001135J-0000001647D01*
G03X0000225037Y0000216486I0000000377J0000000135D01*
G02X0000225630Y0000216600I0000000593J-0000001486D01*
G02X0000225630Y0000213400I0J-0000001600D01*
G02X0000224241Y0000214206I0J0000001600D01*
G03X0000223683Y0000214347I-0000000347J-0000000199D01*
G02X0000222630Y0000214047I-0000001053J0000001700D01*
G02X0000220630Y0000216048I0J0000002000D01*
G02X0000221495Y0000217694I0000002000J0D01*
G37*
G36*
G01X0000156604Y0000256228D02*
G03X0000156604Y0000256843I-0000000256J0000000307D01*
G02X0000156030Y0000258071I0000001025J0000001228D01*
G02X0000159230Y0000258071I0000001600J0D01*
G02X0000158656Y0000256843I-0000001600J0D01*
G03X0000158656Y0000256228I0000000256J-0000000307D01*
G02X0000159230Y0000255000I-0000001025J-0000001228D01*
G02X0000156030Y0000255000I-0000001600J0D01*
G02X0000156604Y0000256228I0000001600J0D01*
G37*
G36*
G01X0000138479Y0000301611D02*
G03X0000138479Y0000301889I-0000000144J0000000139D01*
G02X0000138030Y0000303000I0000001151J0000001111D01*
G02X0000141230Y0000303000I0000001600J0D01*
G02X0000140782Y0000301889I-0000001600J0D01*
G03X0000140782Y0000301611I0000000144J-0000000139D01*
G02X0000141230Y0000300500I-0000001151J-0000001111D01*
G02X0000138030Y0000300500I-0000001600J0D01*
G02X0000138479Y0000301611I0000001600J0D01*
G37*
G36*
G01X0000324761Y0000304836D02*
G03X0000324761Y0000305420I-0000000274J0000000292D01*
G02X0000324130Y0000306878I0000001369J0000001458D01*
G02X0000326130Y0000308878I0000002000J0D01*
G02X0000327158Y0000308594I0J-0000002000D01*
G03X0000327716Y0000308750I0000000206J0000000343D01*
G02X0000329130Y0000309600I0000001414J-0000000750D01*
G02X0000329130Y0000306400I0J-0000001600D01*
G02X0000328555Y0000306506I0J0000001600D01*
G03X0000328032Y0000306257I-0000000144J-0000000373D01*
G02X0000327499Y0000305420I-0000001901J0000000621D01*
G03X0000327499Y0000304836I0000000274J-0000000292D01*
G02X0000328101Y0000303717I-0000001369J-0000001458D01*
G03X0000328335Y0000303554I0000000197J0000000034D01*
G02X0000328630Y0000303582I0000000295J-0000001573D01*
G02X0000328630Y0000300381I0J-0000001600D01*
G02X0000327136Y0000301408I0J0000001600D01*
G03X0000326875Y0000301522I-0000000187J-0000000072D01*
G02X0000326130Y0000301378I-0000000745J0000001856D01*
G02X0000324130Y0000303378I0J0000002000D01*
G02X0000324761Y0000304836I0000002000J0D01*
G37*
G36*
G01X0000319278Y0000312027D02*
G03X0000318794Y0000312259I-0000000370J-0000000151D01*
G02X0000318337Y0000312192I-0000000457J0000001534D01*
G02X0000318337Y0000315393I0J0000001600D01*
G02X0000319669Y0000314680I0J-0000001600D01*
G03X0000320190Y0000314548I0000000333J0000000222D01*
G02X0000321130Y0000314783I0000000940J-0000001766D01*
G02X0000323130Y0000312783I0J-0000002000D01*
G02X0000322499Y0000311324I-0000002000J0D01*
G03X0000322499Y0000310741I0000000274J-0000000292D01*
G02X0000323130Y0000309283I-0000001369J-0000001458D01*
G02X0000321130Y0000307282I-0000002000J0D01*
G02X0000319541Y0000308068I0J0000002000D01*
G03X0000319005Y0000308160I-0000000318J-0000000243D01*
G02X0000318130Y0000307900I-0000000875J0000001340D01*
G02X0000318130Y0000311100I0J0000001600D01*
G02X0000319189Y0000310700I0J-0000001600D01*
G03X0000319733Y0000310714I0000000265J0000000300D01*
G02X0000319761Y0000310741I0000001398J-0000001431D01*
G03X0000319761Y0000311324I-0000000274J0000000292D01*
G02X0000319278Y0000312027I0000001369J0000001458D01*
G37*
G36*
G01X0000324261Y0000316647D02*
G03X0000324261Y0000317231I-0000000274J0000000292D01*
G02X0000323630Y0000318689I0000001369J0000001458D01*
G02X0000325630Y0000320689I0000002000J0D01*
G02X0000326702Y0000320378I0J-0000002000D01*
G03X0000327261Y0000320512I0000000214J0000000338D01*
G02X0000328638Y0000321298I0000001377J-0000000814D01*
G02X0000328638Y0000318097I0J-0000001600D01*
G02X0000328030Y0000318217I0J0000001600D01*
G03X0000327503Y0000317988I-0000000152J-0000000370D01*
G02X0000326999Y0000317231I-0000001873J0000000701D01*
G03X0000326999Y0000316647I0000000274J-0000000292D01*
G02X0000327587Y0000315601I-0000001369J-0000001458D01*
G03X0000328109Y0000315306I0000000391J0000000082D01*
G02X0000328630Y0000315393I0000000521J-0000001513D01*
G02X0000328630Y0000312192I0J-0000001600D01*
G02X0000327137Y0000313217I0J0000001600D01*
G03X0000326575Y0000313426I-0000000373J-0000000144D01*
G02X0000325630Y0000313189I-0000000945J0000001763D01*
G02X0000323630Y0000315189I0J0000002000D01*
G02X0000324261Y0000316647I0000002000J0D01*
G37*
G36*
G01X0000319287Y0000323817D02*
G03X0000318761Y0000324029I-0000000369J-0000000155D01*
G02X0000318130Y0000323900I-0000000631J0000001471D01*
G02X0000318130Y0000327100I0J0000001600D01*
G02X0000319469Y0000326376I0J-0000001600D01*
G03X0000320025Y0000326261I0000000335J0000000219D01*
G02X0000321130Y0000326594I0000001105J-0000001667D01*
G02X0000323130Y0000324594I0J-0000002000D01*
G02X0000322499Y0000323135I-0000002000J0D01*
G03X0000322499Y0000322552I0000000274J-0000000292D01*
G02X0000323130Y0000321094I-0000001369J-0000001458D01*
G02X0000321130Y0000319094I-0000002000J0D01*
G02X0000320322Y0000319264I0J0000002000D01*
G03X0000319794Y0000319058I-0000000162J-0000000366D01*
G02X0000318327Y0000318097I-0000001467J0000000639D01*
G02X0000318327Y0000321298I0J0000001600D01*
G02X0000318700Y0000321254I0J-0000001600D01*
G03X0000319183Y0000321551I0000000093J0000000389D01*
G02X0000319761Y0000322552I0000001947J-0000000457D01*
G03X0000319761Y0000323135I-0000000274J0000000292D01*
G02X0000319287Y0000323817I0000001369J0000001458D01*
G37*
G36*
G01X0000324261Y0000328458D02*
G03X0000324261Y0000329042I-0000000274J0000000292D01*
G02X0000323630Y0000330500I0000001369J0000001458D01*
G02X0000325630Y0000332500I0000002000J0D01*
G02X0000326702Y0000332189I0J-0000002000D01*
G03X0000327261Y0000332323I0000000214J0000000338D01*
G02X0000328638Y0000333109I0000001377J-0000000814D01*
G02X0000328638Y0000329908I0J-0000001600D01*
G02X0000328030Y0000330028I0J0000001600D01*
G03X0000327503Y0000329799I-0000000152J-0000000370D01*
G02X0000326999Y0000329042I-0000001873J0000000701D01*
G03X0000326999Y0000328458I0000000274J-0000000292D01*
G02X0000327587Y0000327412I-0000001369J-0000001458D01*
G03X0000328109Y0000327117I0000000391J0000000082D01*
G02X0000328630Y0000327204I0000000521J-0000001513D01*
G02X0000328630Y0000324003I0J-0000001600D01*
G02X0000327137Y0000325028I0J0000001600D01*
G03X0000326575Y0000325237I-0000000373J-0000000144D01*
G02X0000325630Y0000325000I-0000000945J0000001763D01*
G02X0000323630Y0000327000I0J0000002000D01*
G02X0000324261Y0000328458I0000002000J0D01*
G37*
G36*
G01X0000030682Y0000342464D02*
G03X0000030204Y0000342242I-0000000112J-0000000384D01*
G02X0000028741Y0000341289I-0000001463J0000000647D01*
G02X0000028741Y0000344489I0J0000001600D01*
G02X0000029189Y0000344425I0J-0000001600D01*
G03X0000029667Y0000344647I0000000112J0000000384D01*
G02X0000031130Y0000345600I0000001463J-0000000647D01*
G02X0000032595Y0000344644I0J-0000001600D01*
G03X0000033073Y0000344421I0000000366J0000000161D01*
G02X0000033630Y0000344500I0000000558J-0000001921D01*
G02X0000035630Y0000342500I0J-0000002000D01*
G02X0000035093Y0000341136I-0000002000J0D01*
G03X0000035093Y0000340864I0000000146J-0000000136D01*
G02X0000035630Y0000339500I-0000001463J-0000001364D01*
G02X0000033630Y0000337500I-0000002000J0D01*
G02X0000033209Y0000337545I0J0000002000D01*
G03X0000032726Y0000337123I-0000000084J-0000000391D01*
G02X0000032730Y0000337000I-0000001596J-0000000123D01*
G02X0000031130Y0000338600I-0000001600J0D01*
G02X0000031253Y0000338596I0J-0000001600D01*
G03X0000031675Y0000339079I0000000031J0000000399D01*
G02X0000031630Y0000339500I0000001955J0000000421D01*
G02X0000032167Y0000340864I0000002000J0D01*
G03X0000032167Y0000341136I-0000000146J0000000136D01*
G02X0000031673Y0000342088I0000001463J0000001364D01*
G03X0000031251Y0000342404I-0000000391J-0000000082D01*
G02X0000031130Y0000342400I-0000000121J0000001596D01*
G02X0000030682Y0000342464I0J0000001600D01*
G37*
G36*
G01X0000143657Y0000356126D02*
G03X0000143641Y0000356742I-0000000263J0000000301D01*
G02X0000143030Y0000358000I0000000989J0000001258D01*
G02X0000146230Y0000358000I0000001600J0D01*
G02X0000145682Y0000356795I-0000001600J0D01*
G03X0000145698Y0000356179I0000000263J-0000000301D01*
G02X0000146309Y0000354921I-0000000989J-0000001258D01*
G02X0000143109Y0000354921I-0000001600J0D01*
G02X0000143657Y0000356126I0000001600J0D01*
G37*
G36*
G01X0000280274Y0000011125D02*
G02X0000279016Y0000010514I-0000001258J0000000989D01*
G02X0000279016Y0000013714I0J0000001600D01*
G02X0000280341Y0000013012I0J-0000001600D01*
G03X0000280986Y0000012989I0000000331J0000000224D01*
G02X0000282244Y0000013600I0000001258J-0000000989D01*
G02X0000282244Y0000010400I0J-0000001600D01*
G02X0000280919Y0000011102I0J0000001600D01*
G03X0000280274Y0000011125I-0000000331J-0000000224D01*
G37*
G36*
G01X0000273855Y0000014100D02*
G02X0000273030Y0000015500I0000000775J0000001400D01*
G02X0000276230Y0000015500I0000001600J0D01*
G02X0000275405Y0000014100I-0000001600J0D01*
G03X0000275405Y0000013400I0000000194J-0000000350D01*
G02X0000276230Y0000012000I-0000000775J-0000001400D01*
G02X0000273030Y0000012000I-0000001600J0D01*
G02X0000273855Y0000013400I0000001600J0D01*
G03X0000273855Y0000014100I-0000000194J0000000350D01*
G37*
G36*
G01X0000268355Y0000027100D02*
G02X0000267530Y0000028500I0000000775J0000001400D01*
G02X0000270730Y0000028500I0000001600J0D01*
G02X0000269905Y0000027100I-0000001600J0D01*
G03X0000269905Y0000026400I0000000194J-0000000350D01*
G02X0000270730Y0000025000I-0000000775J-0000001400D01*
G02X0000267530Y0000025000I-0000001600J0D01*
G02X0000268355Y0000026400I0000001600J0D01*
G03X0000268355Y0000027100I-0000000194J0000000350D01*
G37*
G36*
G01X0000297525Y0000040231D02*
G02X0000296122Y0000039400I-0000001403J0000000769D01*
G02X0000296122Y0000042600I0J0000001600D01*
G02X0000297525Y0000041769I0J-0000001600D01*
G03X0000298227Y0000041769I0000000351J0000000192D01*
G02X0000299630Y0000042600I0000001403J-0000000769D01*
G02X0000301230Y0000041000I0J-0000001600D01*
G02X0000300689Y0000039800I-0000001600J0D01*
G03X0000300689Y0000039200I0000000265J-0000000300D01*
G02X0000301230Y0000038000I-0000001059J-0000001200D01*
G02X0000298030Y0000038000I-0000001600J0D01*
G02X0000298571Y0000039200I0000001600J0D01*
G03X0000298571Y0000039800I-0000000265J0000000300D01*
G02X0000298227Y0000040231I0000001059J0000001200D01*
G03X0000297525Y0000040231I-0000000351J-0000000192D01*
G37*
G36*
G01X0000209855Y0000046100D02*
G02X0000209030Y0000047500I0000000775J0000001400D01*
G02X0000212230Y0000047500I0000001600J0D01*
G02X0000211405Y0000046100I-0000001600J0D01*
G03X0000211405Y0000045400I0000000194J-0000000350D01*
G02X0000212230Y0000044000I-0000000775J-0000001400D01*
G02X0000209030Y0000044000I-0000001600J0D01*
G02X0000209855Y0000045400I0000001600J0D01*
G03X0000209855Y0000046100I-0000000194J0000000350D01*
G37*
G36*
G01X0000214855Y0000046100D02*
G02X0000214030Y0000047500I0000000775J0000001400D01*
G02X0000217230Y0000047500I0000001600J0D01*
G02X0000216405Y0000046100I-0000001600J0D01*
G03X0000216405Y0000045400I0000000194J-0000000350D01*
G02X0000217230Y0000044000I-0000000775J-0000001400D01*
G02X0000214030Y0000044000I-0000001600J0D01*
G02X0000214855Y0000045400I0000001600J0D01*
G03X0000214855Y0000046100I-0000000194J0000000350D01*
G37*
G36*
G01X0000164530Y0000070225D02*
G02X0000163130Y0000069400I-0000001400J0000000775D01*
G02X0000163130Y0000072600I0J0000001600D01*
G02X0000164530Y0000071775I0J-0000001600D01*
G03X0000165230Y0000071775I0000000350J0000000194D01*
G02X0000166630Y0000072600I0000001400J-0000000775D01*
G02X0000166630Y0000069400I0J-0000001600D01*
G02X0000165230Y0000070225I0J0000001600D01*
G03X0000164530Y0000070225I-0000000350J-0000000194D01*
G37*
G36*
G01X0000175855Y0000077100D02*
G02X0000175030Y0000078500I0000000775J0000001400D01*
G02X0000178230Y0000078500I0000001600J0D01*
G02X0000177405Y0000077100I-0000001600J0D01*
G03X0000177405Y0000076400I0000000194J-0000000350D01*
G02X0000178230Y0000075000I-0000000775J-0000001400D01*
G02X0000175030Y0000075000I-0000001600J0D01*
G02X0000175855Y0000076400I0000001600J0D01*
G03X0000175855Y0000077100I-0000000194J0000000350D01*
G37*
G36*
G01X0000119855Y0000101600D02*
G02X0000119030Y0000103000I0000000775J0000001400D01*
G02X0000122230Y0000103000I0000001600J0D01*
G02X0000121405Y0000101600I-0000001600J0D01*
G03X0000121405Y0000100900I0000000194J-0000000350D01*
G02X0000122230Y0000099500I-0000000775J-0000001400D01*
G02X0000119030Y0000099500I-0000001600J0D01*
G02X0000119855Y0000100900I0000001600J0D01*
G03X0000119855Y0000101600I-0000000194J0000000350D01*
G37*
G36*
G01X0000123855Y0000101600D02*
G02X0000123030Y0000103000I0000000775J0000001400D01*
G02X0000126230Y0000103000I0000001600J0D01*
G02X0000125405Y0000101600I-0000001600J0D01*
G03X0000125405Y0000100900I0000000194J-0000000350D01*
G02X0000126230Y0000099500I-0000000775J-0000001400D01*
G02X0000123030Y0000099500I-0000001600J0D01*
G02X0000123855Y0000100900I0000001600J0D01*
G03X0000123855Y0000101600I-0000000194J0000000350D01*
G37*
G36*
G01X0000103355Y0000104100D02*
G02X0000102530Y0000105500I0000000775J0000001400D01*
G02X0000105730Y0000105500I0000001600J0D01*
G02X0000104905Y0000104100I-0000001600J0D01*
G03X0000104905Y0000103400I0000000194J-0000000350D01*
G02X0000105730Y0000102000I-0000000775J-0000001400D01*
G02X0000102530Y0000102000I-0000001600J0D01*
G02X0000103355Y0000103400I0000001600J0D01*
G03X0000103355Y0000104100I-0000000194J0000000350D01*
G37*
G36*
G01X0000118950Y0000109910D02*
G02X0000117530Y0000111500I0000000180J0000001590D01*
G02X0000120730Y0000111500I0000001600J0D01*
G02X0000120510Y0000110690I-0000001600J0D01*
G03X0000120810Y0000110090I0000000345J-0000000202D01*
G02X0000122230Y0000108500I-0000000180J-0000001590D01*
G02X0000119030Y0000108500I-0000001600J0D01*
G02X0000119250Y0000109310I0000001600J0D01*
G03X0000118950Y0000109910I-0000000345J0000000202D01*
G37*
G36*
G01X0000331530Y0000118225D02*
G02X0000330130Y0000117400I-0000001400J0000000775D01*
G02X0000330130Y0000120600I0J0000001600D01*
G02X0000331530Y0000119775I0J-0000001600D01*
G03X0000332230Y0000119775I0000000350J0000000194D01*
G02X0000333630Y0000120600I0000001400J-0000000775D01*
G02X0000333630Y0000117400I0J-0000001600D01*
G02X0000332230Y0000118225I0J0000001600D01*
G03X0000331530Y0000118225I-0000000350J-0000000194D01*
G37*
G36*
G01X0000137355Y0000129600D02*
G02X0000136530Y0000131000I0000000775J0000001400D01*
G02X0000139730Y0000131000I0000001600J0D01*
G02X0000138905Y0000129600I-0000001600J0D01*
G03X0000138905Y0000128900I0000000194J-0000000350D01*
G02X0000139730Y0000127500I-0000000775J-0000001400D01*
G02X0000136530Y0000127500I-0000001600J0D01*
G02X0000137355Y0000128900I0000001600J0D01*
G03X0000137355Y0000129600I-0000000194J0000000350D01*
G37*
G36*
G01X0000141355Y0000129600D02*
G02X0000140530Y0000131000I0000000775J0000001400D01*
G02X0000143730Y0000131000I0000001600J0D01*
G02X0000142905Y0000129600I-0000001600J0D01*
G03X0000142905Y0000128900I0000000194J-0000000350D01*
G02X0000143730Y0000127500I-0000000775J-0000001400D01*
G02X0000140530Y0000127500I-0000001600J0D01*
G02X0000141355Y0000128900I0000001600J0D01*
G03X0000141355Y0000129600I-0000000194J0000000350D01*
G37*
G36*
G01X0000167036Y0000156643D02*
G02X0000168630Y0000158100I0000001594J-0000000143D01*
G02X0000168630Y0000154900I0J-0000001600D01*
G02X0000168149Y0000154974I0J0000001600D01*
G03X0000167629Y0000154577I-0000000120J-0000000381D01*
G02X0000167630Y0000154500I-0000001999J-0000000077D01*
G02X0000167093Y0000153136I-0000002000J0D01*
G03X0000167093Y0000152864I0000000146J-0000000136D01*
G02X0000167630Y0000151500I-0000001463J-0000001364D01*
G02X0000163630Y0000151500I-0000002000J0D01*
G02X0000164167Y0000152864I0000002000J0D01*
G03X0000164167Y0000153136I-0000000146J0000000136D01*
G02X0000163630Y0000154500I0000001463J0000001364D01*
G02X0000165630Y0000156500I0000002000J0D01*
G02X0000166470Y0000156315I0J-0000002000D01*
G03X0000167036Y0000156643I0000000168J0000000363D01*
G37*
G36*
G01X0000166488Y0000170480D02*
G03X0000167053Y0000170773I0000000171J0000000361D01*
G02X0000168630Y0000172100I0000001577J-0000000273D01*
G02X0000168630Y0000168900I0J-0000001600D01*
G02X0000168149Y0000168974I0J0000001600D01*
G03X0000167629Y0000168606I-0000000120J-0000000381D01*
G02X0000167093Y0000167310I-0000001999J0000000067D01*
G03X0000167093Y0000167037I0000000146J-0000000136D01*
G02X0000167630Y0000165673I-0000001463J-0000001364D01*
G02X0000167618Y0000165448I-0000002000J0D01*
G03X0000168138Y0000165023I0000000397J-0000000045D01*
G02X0000168630Y0000165100I0000000492J-0000001523D01*
G02X0000168630Y0000161900I0J-0000001600D01*
G02X0000167030Y0000163493I0J0000001600D01*
G03X0000166463Y0000163855I-0000000400J-0000000002D01*
G02X0000165630Y0000163673I-0000000833J0000001818D01*
G02X0000163630Y0000165673I0J0000002000D01*
G02X0000164167Y0000167037I0000002000J0D01*
G03X0000164167Y0000167310I-0000000146J0000000136D01*
G02X0000163630Y0000168673I0000001463J0000001364D01*
G02X0000165630Y0000170673I0000002000J0D01*
G02X0000166488Y0000170480I0J-0000002000D01*
G37*
G36*
G01X0000124125Y0000196178D02*
G02X0000123630Y0000196100I-0000000495J0000001522D01*
G02X0000125230Y0000197700I0J0000001600D01*
G02X0000125230Y0000197686I-0000001600J0000000004D01*
G03X0000125797Y0000197318I0000000400J-0000000004D01*
G02X0000126630Y0000197500I0000000833J-0000001818D01*
G02X0000128630Y0000195500I0J-0000002000D01*
G02X0000128093Y0000194136I-0000002000J0D01*
G03X0000128093Y0000193864I0000000146J-0000000136D01*
G02X0000128630Y0000192500I-0000001463J-0000001364D01*
G02X0000126630Y0000190500I-0000002000J0D01*
G02X0000125048Y0000191276I0J0000002000D01*
G03X0000124512Y0000191365I-0000000316J-0000000245D01*
G02X0000123630Y0000191100I-0000000882J0000001335D01*
G02X0000123630Y0000194300I0J0000001600D01*
G02X0000124805Y0000193787I0J-0000001600D01*
G03X0000125104Y0000193793I0000000147J0000000136D01*
G02X0000125167Y0000193864I0000001525J-0000001295D01*
G03X0000125167Y0000194136I-0000000146J0000000136D01*
G02X0000124630Y0000195500I0000001463J0000001364D01*
G02X0000124645Y0000195748I0000002000J0D01*
G03X0000124125Y0000196178I-0000000397J0000000050D01*
G37*
G36*
G01X0000124230Y0000212685D02*
G02X0000126226Y0000214546I0000001995J-0000000139D01*
G02X0000128226Y0000212546I0J-0000002000D01*
G02X0000127689Y0000211183I-0000002000J0D01*
G03X0000127689Y0000210910I0000000146J-0000000136D01*
G02X0000128226Y0000209546I-0000001463J-0000001364D01*
G02X0000126226Y0000207546I-0000002000J0D01*
G02X0000124230Y0000209407I0J0000002000D01*
G03X0000123610Y0000209713I-0000000399J-0000000028D01*
G02X0000122726Y0000209446I-0000000885J0000001333D01*
G02X0000122726Y0000212646I0J0000001600D01*
G02X0000123610Y0000212380I0J-0000001600D01*
G03X0000124230Y0000212685I0000000221J0000000333D01*
G37*
G36*
G01X0000120186Y0000220203D02*
G03X0000120813Y0000220336I0000000264J0000000301D01*
G02X0000122630Y0000221500I0000001817J-0000000836D01*
G02X0000124630Y0000219500I0J-0000002000D01*
G02X0000124093Y0000218136I-0000002000J0D01*
G03X0000124093Y0000217864I0000000146J-0000000136D01*
G02X0000124630Y0000216500I-0000001463J-0000001364D01*
G02X0000122630Y0000214500I-0000002000J0D01*
G02X0000121259Y0000215043I0J0000002000D01*
G03X0000120614Y0000214902I-0000000274J-0000000291D01*
G02X0000119130Y0000213900I-0000001484J0000000598D01*
G02X0000117530Y0000215500I0J0000001600D01*
G02X0000118355Y0000216900I0000001600J0D01*
G03X0000118355Y0000217600I-0000000194J0000000350D01*
G02X0000117530Y0000219000I0000000775J0000001400D01*
G02X0000119130Y0000220600I0000001600J0D01*
G02X0000120186Y0000220203I0J-0000001600D01*
G37*
G36*
G01X0000317855Y0000220100D02*
G02X0000317030Y0000221500I0000000775J0000001400D01*
G02X0000320230Y0000221500I0000001600J0D01*
G02X0000319405Y0000220100I-0000001600J0D01*
G03X0000319405Y0000219400I0000000194J-0000000350D01*
G02X0000320230Y0000218000I-0000000775J-0000001400D01*
G02X0000317030Y0000218000I-0000001600J0D01*
G02X0000317855Y0000219400I0000001600J0D01*
G03X0000317855Y0000220100I-0000000194J0000000350D01*
G37*
G36*
G01X0000321855Y0000220100D02*
G02X0000321030Y0000221500I0000000775J0000001400D01*
G02X0000324230Y0000221500I0000001600J0D01*
G02X0000323405Y0000220100I-0000001600J0D01*
G03X0000323405Y0000219400I0000000194J-0000000350D01*
G02X0000324230Y0000218000I-0000000775J-0000001400D01*
G02X0000321030Y0000218000I-0000001600J0D01*
G02X0000321855Y0000219400I0000001600J0D01*
G03X0000321855Y0000220100I-0000000194J0000000350D01*
G37*
G36*
G01X0000085530Y0000235225D02*
G02X0000084130Y0000234400I-0000001400J0000000775D01*
G02X0000084130Y0000237600I0J0000001600D01*
G02X0000085530Y0000236775I0J-0000001600D01*
G03X0000086230Y0000236775I0000000350J0000000194D01*
G02X0000087630Y0000237600I0000001400J-0000000775D01*
G02X0000087630Y0000234400I0J-0000001600D01*
G02X0000086230Y0000235225I0J0000001600D01*
G03X0000085530Y0000235225I-0000000350J-0000000194D01*
G37*
G36*
G01X0000073855Y0000241600D02*
G02X0000073030Y0000243000I0000000775J0000001400D01*
G02X0000076230Y0000243000I0000001600J0D01*
G02X0000075405Y0000241600I-0000001600J0D01*
G03X0000075405Y0000240900I0000000194J-0000000350D01*
G02X0000076230Y0000239500I-0000000775J-0000001400D01*
G02X0000073030Y0000239500I-0000001600J0D01*
G02X0000073855Y0000240900I0000001600J0D01*
G03X0000073855Y0000241600I-0000000194J0000000350D01*
G37*
G36*
G01X0000156467Y0000242700D02*
G02X0000155928Y0000243898I0000001061J0000001198D01*
G02X0000159128Y0000243898I0000001600J0D01*
G02X0000158670Y0000242778I-0000001600J0D01*
G03X0000158691Y0000242198I0000000286J-0000000280D01*
G02X0000159230Y0000241000I-0000001061J-0000001198D01*
G02X0000158689Y0000239800I-0000001600J0D01*
G03X0000158689Y0000239200I0000000265J-0000000300D01*
G02X0000159230Y0000238000I-0000001059J-0000001200D01*
G02X0000158346Y0000236569I-0000001600J0D01*
G03X0000158336Y0000235859I0000000179J-0000000358D01*
G02X0000159179Y0000234449I-0000000757J-0000001410D01*
G02X0000155979Y0000234449I-0000001600J0D01*
G02X0000156863Y0000235880I0000001600J0D01*
G03X0000156873Y0000236590I-0000000179J0000000358D01*
G02X0000156030Y0000238000I0000000757J0000001410D01*
G02X0000156571Y0000239200I0000001600J0D01*
G03X0000156571Y0000239800I-0000000265J0000000300D01*
G02X0000156030Y0000241000I0000001059J0000001200D01*
G02X0000156488Y0000242120I0000001600J0D01*
G03X0000156467Y0000242700I-0000000286J0000000280D01*
G37*
G36*
G01X0000156855Y0000249600D02*
G02X0000156030Y0000251000I0000000775J0000001400D01*
G02X0000159230Y0000251000I0000001600J0D01*
G02X0000158405Y0000249600I-0000001600J0D01*
G03X0000158405Y0000248900I0000000194J-0000000350D01*
G02X0000159230Y0000247500I-0000000775J-0000001400D01*
G02X0000156030Y0000247500I-0000001600J0D01*
G02X0000156855Y0000248900I0000001600J0D01*
G03X0000156855Y0000249600I-0000000194J0000000350D01*
G37*
G36*
G01X0000049030Y0000250725D02*
G02X0000047630Y0000249900I-0000001400J0000000775D01*
G02X0000047630Y0000253100I0J0000001600D01*
G02X0000049030Y0000252275I0J-0000001600D01*
G03X0000049730Y0000252275I0000000350J0000000194D01*
G02X0000051130Y0000253100I0000001400J-0000000775D01*
G02X0000051130Y0000249900I0J-0000001600D01*
G02X0000049730Y0000250725I0J0000001600D01*
G03X0000049030Y0000250725I-0000000350J-0000000194D01*
G37*
G36*
G01X0000049030Y0000254725D02*
G02X0000047630Y0000253900I-0000001400J0000000775D01*
G02X0000047630Y0000257100I0J0000001600D01*
G02X0000049030Y0000256275I0J-0000001600D01*
G03X0000049730Y0000256275I0000000350J0000000194D01*
G02X0000051130Y0000257100I0000001400J-0000000775D01*
G02X0000051130Y0000253900I0J-0000001600D01*
G02X0000049730Y0000254725I0J0000001600D01*
G03X0000049030Y0000254725I-0000000350J-0000000194D01*
G37*
G36*
G01X0000030030Y0000273225D02*
G02X0000028630Y0000272400I-0000001400J0000000775D01*
G02X0000028630Y0000275600I0J0000001600D01*
G02X0000030030Y0000274775I0J-0000001600D01*
G03X0000030730Y0000274775I0000000350J0000000194D01*
G02X0000032130Y0000275600I0000001400J-0000000775D01*
G02X0000032130Y0000272400I0J-0000001600D01*
G02X0000030730Y0000273225I0J0000001600D01*
G03X0000030030Y0000273225I-0000000350J-0000000194D01*
G37*
G36*
G01X0000031790Y0000329436D02*
G02X0000030530Y0000331000I0000000340J0000001564D01*
G02X0000033730Y0000331000I0000001600J0D01*
G02X0000033670Y0000330564I-0000001600J0D01*
G03X0000033970Y0000330064I0000000385J-0000000109D01*
G02X0000035230Y0000328500I-0000000340J-0000001564D01*
G02X0000033630Y0000326900I-0000001600J0D01*
G03X0000033230Y0000326500I0J-0000000400D01*
G02X0000033159Y0000326029I-0000001600J0D01*
G03X0000033659Y0000325529I0000000382J-0000000118D01*
G02X0000034130Y0000325600I0000000471J-0000001529D01*
G02X0000032530Y0000324000I0J-0000001600D01*
G02X0000032601Y0000324471I0000001600J0D01*
G03X0000032101Y0000324971I-0000000382J0000000118D01*
G02X0000031630Y0000324900I-0000000471J0000001529D01*
G02X0000030030Y0000326500I0J0000001600D01*
G02X0000031630Y0000328100I0000001600J0D01*
G03X0000032030Y0000328500I0J0000000400D01*
G02X0000032090Y0000328936I0000001600J0D01*
G03X0000031790Y0000329436I-0000000385J0000000109D01*
G37*
G36*
G01X0000175599Y0000329788D02*
G02X0000174971Y0000331059I0000000972J0000001271D01*
G02X0000178171Y0000331059I0000001600J0D01*
G02X0000177395Y0000329688I-0000001600J0D01*
G03X0000177358Y0000329027I0000000206J-0000000343D01*
G02X0000177986Y0000327756I-0000000972J-0000001271D01*
G02X0000174786Y0000327756I-0000001600J0D01*
G02X0000175562Y0000329128I0000001600J0D01*
G03X0000175599Y0000329788I-0000000206J0000000343D01*
G37*
G36*
G01X0000038200Y0000335190D02*
G03X0000038757Y0000335322I0000000214J0000000338D01*
G02X0000040130Y0000336100I0000001373J-0000000822D01*
G02X0000040130Y0000332900I0J-0000001600D01*
G02X0000039525Y0000333018I0J0000001600D01*
G03X0000039000Y0000332790I-0000000151J-0000000370D01*
G02X0000038593Y0000332136I-0000001870J0000000710D01*
G03X0000038593Y0000331864I0000000146J-0000000136D01*
G02X0000039130Y0000330500I-0000001463J-0000001364D01*
G02X0000039129Y0000330423I-0000002000J0D01*
G03X0000039649Y0000330026I0000000400J-0000000015D01*
G02X0000040130Y0000330100I0000000481J-0000001526D01*
G02X0000040130Y0000326900I0J-0000001600D01*
G02X0000038536Y0000328357I0J0000001600D01*
G03X0000037970Y0000328685I-0000000398J-0000000036D01*
G02X0000037130Y0000328500I-0000000840J0000001815D01*
G02X0000035130Y0000330500I0J0000002000D01*
G02X0000035667Y0000331864I0000002000J0D01*
G03X0000035667Y0000332136I-0000000146J0000000136D01*
G02X0000035130Y0000333500I0000001463J0000001364D01*
G02X0000037130Y0000335500I0000002000J0D01*
G02X0000038200Y0000335190I0J-0000002000D01*
G37*
G36*
G01X0000011167Y0000338420D02*
G02X0000010630Y0000339784I0000001463J0000001364D01*
G02X0000014630Y0000339784I0000002000J0D01*
G02X0000014093Y0000338420I-0000002000J0D01*
G03X0000014093Y0000338147I0000000146J-0000000136D01*
G02X0000014630Y0000336784I-0000001463J-0000001364D01*
G02X0000014604Y0000336462I-0000002000J0D01*
G03X0000015125Y0000336018I0000000395J-0000000064D01*
G02X0000015630Y0000336100I0000000505J-0000001519D01*
G02X0000015630Y0000332900I0J-0000001600D01*
G02X0000015124Y0000332982I0J0000001600D01*
G03X0000014603Y0000332669I-0000000127J-0000000379D01*
G02X0000014093Y0000331636I-0000001973J0000000331D01*
G03X0000014093Y0000331364I0000000146J-0000000136D01*
G02X0000014625Y0000330139I-0000001463J-0000001364D01*
G03X0000015246Y0000329834I0000000399J0000000028D01*
G02X0000016130Y0000330100I0000000885J-0000001333D01*
G02X0000017730Y0000328500I0J-0000001600D01*
G03X0000018130Y0000328100I0000000400J0D01*
G02X0000019730Y0000326500I0J-0000001600D01*
G02X0000019662Y0000326037I-0000001600J0D01*
G03X0000020044Y0000325521I0000000383J-0000000116D01*
G01X0000023208Y0000325521D01*
G02X0000023208Y0000317615I0J-0000003953D01*
G01X0000019074Y0000317615D01*
G02X0000016858Y0000324842I0J0000003953D01*
G03X0000016933Y0000325438I-0000000224J0000000331D01*
G02X0000016530Y0000326500I0000001197J0000001062D01*
G03X0000016130Y0000326900I-0000000400J0D01*
G02X0000014554Y0000328221I0J0000001600D01*
G03X0000013905Y0000328459I-0000000394J-0000000070D01*
G02X0000012630Y0000328000I-0000001275J0000001541D01*
G02X0000010630Y0000330000I0J0000002000D01*
G02X0000011167Y0000331364I0000002000J0D01*
G03X0000011167Y0000331636I-0000000146J0000000136D01*
G02X0000010630Y0000333000I0000001463J0000001364D01*
G02X0000011399Y0000334577I0000002000J0D01*
G03X0000011399Y0000335207I-0000000246J0000000315D01*
G02X0000010630Y0000336784I0000001231J0000001577D01*
G02X0000011167Y0000338147I0000002000J0D01*
G03X0000011167Y0000338420I-0000000146J0000000136D01*
G37*
G36*
G01X0000016964Y0000342635D02*
G02X0000019074Y0000349930I0000002110J0000003343D01*
G01X0000023208Y0000349930D01*
G02X0000023208Y0000342024I0J-0000003953D01*
G01X0000019074Y0000342024D01*
G02X0000018853Y0000342031I0000000001J0000003953D01*
G03X0000018708Y0000341683I-0000000011J-0000000200D01*
G02X0000019230Y0000340500I-0000001077J-0000001183D01*
G02X0000016030Y0000340500I-0000001600J0D01*
G02X0000016926Y0000341937I0000001600J0D01*
G03X0000016964Y0000342635I-0000000176J0000000359D01*
G37*
G36*
G01X0000084855Y0000359600D02*
G02X0000084030Y0000361000I0000000775J0000001400D01*
G02X0000087230Y0000361000I0000001600J0D01*
G02X0000086405Y0000359600I-0000001600J0D01*
G03X0000086405Y0000358900I0000000194J-0000000350D01*
G02X0000087230Y0000357500I-0000000775J-0000001400D01*
G02X0000084030Y0000357500I-0000001600J0D01*
G02X0000084855Y0000358900I0000001600J0D01*
G03X0000084855Y0000359600I-0000000194J0000000350D01*
G37*
G36*
G01X0000262197Y0000351623D02*
G02X0000284258Y0000351742I0000011031J-0000000048D01*
G03X0000284852Y0000351399I0000000400J0000000006D01*
G02X0000285630Y0000351600I0000000778J-0000001398D01*
G02X0000285630Y0000348400I0J-0000001600D01*
G02X0000284528Y0000348840I0J0000001600D01*
G03X0000283866Y0000348656I-0000000276J-0000000290D01*
G02X0000262548Y0000348813I-0000010638J0000002919D01*
G03X0000261855Y0000348970I-0000000387J-0000000100D01*
G02X0000260630Y0000348400I-0000001225J0000001030D01*
G02X0000260630Y0000351600I0J0000001600D01*
G02X0000261564Y0000351300I0J-0000001600D01*
G03X0000262197Y0000351623I0000000233J0000000325D01*
G37*
G36*
G01X0000199746Y0000219094D02*
G03X0000199309Y0000219410I-0000000392J-0000000081D01*
G02X0000199130Y0000219400I-0000000180J0000001590D01*
G02X0000199130Y0000222600I0J0000001600D01*
G02X0000200602Y0000221628I0J-0000001600D01*
G03X0000201092Y0000221404I0000000368J0000000157D01*
G02X0000201704Y0000221500I0000000612J-0000001904D01*
G02X0000203705Y0000219500I0J-0000002000D01*
G02X0000202810Y0000217833I-0000002000J0D01*
G03X0000202810Y0000217167I0000000221J-0000000333D01*
G02X0000203705Y0000215500I-0000001106J-0000001667D01*
G02X0000201704Y0000213500I-0000002000J0D01*
G02X0000201609Y0000213502I0000000001J0000002000D01*
G03X0000201198Y0000213182I-0000000019J-0000000400D01*
G02X0000199630Y0000211900I-0000001568J0000000318D01*
G02X0000198030Y0000213500I0J0000001600D01*
G02X0000199370Y0000215079I0000001600J0D01*
G03X0000199704Y0000215478I-0000000065J0000000395D01*
G02X0000199704Y0000215500I0000002000J0000000020D01*
G02X0000200598Y0000217167I0000002000J0D01*
G03X0000200598Y0000217833I-0000000221J0000000333D01*
G02X0000199746Y0000219094I0000001106J0000001667D01*
G37*
G36*
G01X0000190230Y0000051725D02*
G03X0000189530Y0000051725I-0000000350J-0000000194D01*
G02X0000188130Y0000050900I-0000001400J0000000775D01*
G02X0000188130Y0000054100I0J0000001600D01*
G02X0000189530Y0000053275I0J-0000001600D01*
G03X0000190230Y0000053275I0000000350J0000000194D01*
G02X0000191630Y0000054100I0000001400J-0000000775D01*
G02X0000191630Y0000050900I0J-0000001600D01*
G02X0000190230Y0000051725I0J0000001600D01*
G37*
G36*
G01X0000247487Y0000045320D02*
G03X0000247487Y0000045880I-0000000286J0000000280D01*
G02X0000247030Y0000047000I0000001143J0000001120D01*
G02X0000248630Y0000048600I0000001600J0D01*
G02X0000249830Y0000048059I0J-0000001600D01*
G03X0000250430Y0000048059I0000000300J0000000265D01*
G02X0000251630Y0000048600I0000001200J-0000001059D01*
G02X0000253230Y0000047000I0J-0000001600D01*
G02X0000252773Y0000045880I-0000001600J0D01*
G03X0000252773Y0000045320I0000000286J-0000000280D01*
G02X0000253230Y0000044200I-0000001143J-0000001120D01*
G02X0000251630Y0000042600I-0000001600J0D01*
G02X0000250430Y0000043141I0J0000001600D01*
G03X0000249830Y0000043141I-0000000300J-0000000265D01*
G02X0000248630Y0000042600I-0000001200J0000001059D01*
G02X0000247030Y0000044200I0J0000001600D01*
G02X0000247487Y0000045320I0000001600J0D01*
G37*
G36*
G01X0000272104Y0000062533D02*
G02X0000270830Y0000064100I0000000326J0000001567D01*
G02X0000274030Y0000064100I0000001600J0D01*
G02X0000273796Y0000063267I-0000001600J0D01*
G03X0000274056Y0000062667I0000000341J-0000000208D01*
G02X0000275330Y0000061100I-0000000326J-0000001567D01*
G02X0000274125Y0000059549I-0000001600J0D01*
G03X0000273901Y0000058925I0000000099J-0000000388D01*
G02X0000274210Y0000057980I-0000001291J-0000000945D01*
G02X0000271010Y0000057980I-0000001600J0D01*
G02X0000272215Y0000059531I0000001600J0D01*
G03X0000272439Y0000060155I-0000000099J0000000388D01*
G02X0000272130Y0000061100I0000001291J0000000945D01*
G02X0000272364Y0000061933I0000001600J0D01*
G03X0000272104Y0000062533I-0000000341J0000000208D01*
G37*
G54D23*
X0000273228Y0000109055D03*
G54D19*
X0000252630Y0000118500D03*
X0000243630Y0000118000D03*
X0000235630Y0000100000D03*
X0000256130Y0000110500D03*
X0000188130Y0000057500D03*
X0000124130Y0000018500D03*
X0000117630Y0000018500D03*
X0000102130Y0000018500D03*
X0000124130Y0000014500D03*
X0000117630Y0000014500D03*
X0000102130Y0000014500D03*
X0000061130Y0000372000D03*
X0000057630Y0000376500D03*
X0000064130Y0000359000D03*
X0000057630Y0000359000D03*
X0000061130Y0000364000D03*
X0000069130Y0000359000D03*
X0000067630Y0000384000D03*
X0000189630Y0000241000D03*
X0000331130Y0000154500D03*
X0000331130Y0000159000D03*
X0000227630Y0000042000D03*
X0000138130Y0000343500D03*
X0000033130Y0000381000D03*
X0000040630Y0000381000D03*
X0000041130Y0000372000D03*
X0000041630Y0000355000D03*
X0000041630Y0000365000D03*
X0000067630Y0000327000D03*
X0000068130Y0000319500D03*
X0000069130Y0000298500D03*
X0000069130Y0000292000D03*
X0000073630Y0000319500D03*
X0000073630Y0000327000D03*
X0000113130Y0000361500D03*
X0000117630Y0000350500D03*
X0000136130Y0000351000D03*
X0000140630Y0000338500D03*
X0000307130Y0000225000D03*
X0000189228Y0000233268D03*
X0000189228Y0000226181D03*
X0000189228Y0000219095D03*
X0000189228Y0000212008D03*
X0000189228Y0000204921D03*
X0000189228Y0000197835D03*
X0000189228Y0000148228D03*
X0000177130Y0000128500D03*
X0000190130Y0000119500D03*
X0000176030Y0000110200D03*
X0000157030Y0000129300D03*
X0000158130Y0000110000D03*
X0000157130Y0000121063D03*
X0000161130Y0000137500D03*
X0000157130Y0000142323D03*
X0000158130Y0000149409D03*
X0000157130Y0000137598D03*
X0000161130Y0000142000D03*
X0000120630Y0000118000D03*
X0000120630Y0000090500D03*
X0000120630Y0000095000D03*
X0000120630Y0000123000D03*
X0000108130Y0000136500D03*
X0000178630Y0000087000D03*
X0000162130Y0000258000D03*
X0000202630Y0000241500D03*
X0000200630Y0000145000D03*
X0000176630Y0000071000D03*
X0000277630Y0000313000D03*
X0000275130Y0000070614D03*
X0000276630Y0000327500D03*
X0000187630Y0000071000D03*
X0000098630Y0000086500D03*
X0000210630Y0000057500D03*
X0000288630Y0000336000D03*
X0000292744Y0000045500D03*
X0000157488Y0000291142D03*
X0000099130Y0000097500D03*
X0000205630Y0000037500D03*
X0000162130Y0000279500D03*
X0000189524Y0000325394D03*
X0000202630Y0000247500D03*
X0000118630Y0000072000D03*
X0000189032Y0000162402D03*
X0000318130Y0000331500D03*
X0000045630Y0000415000D03*
X0000314130Y0000300000D03*
X0000309630Y0000300000D03*
X0000189071Y0000247441D03*
X0000084130Y0000240000D03*
X0000310630Y0000268685D03*
X0000290130Y0000232500D03*
X0000290130Y0000261185D03*
X0000307315Y0000256185D03*
X0000084130Y0000258000D03*
X0000099130Y0000281500D03*
X0000328530Y0000295800D03*
X0000103516Y0000212886D03*
X0000119760Y0000337000D03*
X0000189055Y0000176575D03*
X0000278630Y0000045500D03*
X0000331630Y0000142500D03*
X0000290130Y0000255685D03*
X0000341630Y0000166159D03*
X0000194630Y0000410500D03*
X0000098630Y0000076000D03*
X0000276380Y0000323250D03*
X0000310630Y0000262500D03*
X0000307130Y0000240185D03*
X0000290130Y0000226000D03*
X0000233130Y0000045500D03*
X0000322130Y0000128000D03*
X0000326130Y0000128000D03*
X0000330130Y0000128000D03*
X0000314130Y0000044000D03*
X0000285630Y0000037500D03*
X0000285130Y0000026000D03*
X0000322130Y0000119000D03*
X0000326130Y0000119000D03*
X0000296130Y0000031500D03*
X0000220630Y0000057500D03*
X0000237630Y0000050500D03*
X0000123630Y0000188500D03*
X0000237630Y0000055500D03*
X0000232687Y0000050557D03*
X0000314130Y0000049000D03*
X0000285130Y0000056500D03*
X0000176630Y0000065500D03*
X0000210630Y0000028000D03*
X0000100785Y0000238500D03*
X0000232687Y0000055557D03*
X0000300130Y0000031500D03*
X0000157130Y0000326000D03*
X0000114130Y0000032000D03*
X0000067744Y0000352114D03*
X0000285130Y0000062000D03*
X0000285130Y0000031500D03*
X0000284130Y0000045500D03*
X0000129056Y0000067574D03*
X0000307130Y0000248000D03*
X0000309630Y0000294500D03*
X0000309630Y0000289000D03*
X0000307130Y0000232185D03*
X0000290130Y0000239185D03*
X0000290630Y0000425000D03*
X0000290130Y0000245185D03*
X0000287130Y0000070614D03*
X0000327130Y0000171000D03*
X0000048630Y0000078579D03*
X0000319630Y0000049000D03*
X0000331630Y0000136500D03*
X0000089130Y0000281500D03*
X0000325630Y0000044000D03*
X0000075130Y0000112000D03*
X0000124087Y0000063043D03*
X0000083130Y0000284500D03*
X0000113130Y0000122500D03*
X0000144630Y0000328937D03*
X0000253130Y0000425000D03*
X0000101646Y0000063016D03*
X0000083130Y0000112000D03*
X0000066630Y0000090000D03*
X0000292630Y0000336000D03*
X0000113130Y0000113000D03*
X0000104130Y0000086500D03*
X0000099630Y0000122500D03*
X0000300130Y0000026000D03*
X0000094130Y0000102500D03*
X0000124516Y0000252886D03*
X0000063130Y0000079000D03*
X0000335630Y0000060000D03*
X0000075630Y0000076500D03*
X0000104130Y0000122500D03*
X0000108630Y0000113000D03*
X0000090630Y0000193000D03*
X0000090790Y0000188340D03*
X0000308630Y0000049000D03*
X0000319630Y0000044000D03*
X0000127276Y0000030000D03*
X0000067630Y0000112000D03*
X0000210630Y0000052500D03*
X0000325630Y0000049000D03*
X0000074630Y0000117500D03*
X0000308630Y0000044000D03*
X0000075630Y0000072500D03*
X0000048630Y0000088500D03*
X0000308630Y0000054000D03*
X0000296130Y0000020500D03*
X0000238630Y0000081114D03*
X0000220630Y0000052500D03*
X0000104130Y0000117500D03*
X0000073630Y0000311500D03*
X0000048630Y0000068736D03*
X0000063130Y0000088500D03*
X0000188130Y0000062500D03*
X0000071130Y0000076500D03*
X0000037130Y0000274000D03*
X0000048630Y0000058894D03*
X0000215630Y0000052500D03*
X0000108630Y0000126500D03*
X0000108630Y0000117500D03*
X0000037130Y0000270000D03*
X0000074630Y0000165500D03*
X0000183130Y0000057500D03*
X0000075130Y0000217500D03*
X0000233130Y0000029500D03*
X0000265130Y0000017000D03*
X0000269130Y0000017000D03*
X0000106130Y0000193000D03*
X0000269130Y0000021000D03*
X0000060630Y0000225500D03*
X0000265130Y0000025000D03*
X0000070130Y0000126500D03*
X0000183130Y0000062500D03*
X0000086630Y0000110000D03*
X0000071130Y0000072500D03*
X0000227630Y0000029500D03*
X0000099630Y0000117500D03*
X0000215630Y0000057500D03*
X0000111630Y0000414500D03*
X0000066630Y0000076500D03*
X0000084130Y0000269500D03*
X0000106130Y0000197500D03*
X0000073130Y0000095000D03*
X0000066630Y0000095000D03*
X0000037130Y0000265000D03*
X0000310630Y0000435000D03*
X0000157130Y0000199016D03*
X0000075630Y0000405000D03*
X0000174130Y0000087000D03*
X0000182630Y0000071000D03*
X0000106130Y0000189000D03*
X0000189130Y0000254528D03*
X0000066630Y0000072500D03*
X0000026427Y0000265703D03*
X0000098630Y0000328000D03*
X0000069630Y0000170000D03*
X0000116630Y0000227000D03*
X0000117130Y0000056500D03*
X0000117130Y0000052500D03*
X0000093108Y0000236000D03*
X0000161630Y0000345500D03*
X0000069630Y0000165500D03*
X0000113130Y0000126500D03*
X0000121130Y0000056500D03*
X0000026490Y0000269640D03*
X0000208630Y0000390500D03*
X0000121130Y0000052500D03*
X0000113130Y0000117500D03*
X0000125130Y0000056500D03*
X0000125130Y0000052500D03*
X0000074630Y0000170000D03*
X0000119389Y0000290241D03*
X0000066630Y0000104000D03*
X0000066630Y0000099000D03*
X0000096961Y0000032000D03*
X0000181630Y0000032500D03*
X0000185630Y0000032500D03*
X0000190630Y0000032500D03*
X0000109630Y0000076000D03*
X0000101291Y0000032000D03*
X0000195630Y0000032500D03*
X0000200630Y0000032500D03*
X0000067630Y0000117500D03*
X0000090130Y0000108000D03*
X0000090130Y0000112000D03*
X0000205630Y0000032500D03*
X0000105622Y0000032000D03*
X0000205630Y0000028000D03*
X0000200630Y0000028000D03*
X0000195630Y0000028000D03*
X0000188130Y0000036500D03*
X0000083744Y0000192886D03*
X0000210630Y0000037500D03*
X0000101496Y0000286866D03*
X0000073130Y0000099000D03*
X0000210630Y0000032500D03*
X0000108630Y0000131000D03*
X0000097204Y0000067574D03*
X0000094130Y0000108000D03*
X0000083130Y0000108000D03*
X0000070130Y0000132000D03*
X0000104130Y0000113000D03*
X0000104130Y0000097500D03*
X0000108630Y0000122500D03*
X0000124516Y0000264114D03*
X0000211630Y0000422500D03*
X0000015630Y0000065000D03*
X0000035630Y0000045000D03*
X0000189630Y0000284500D03*
X0000121130Y0000231000D03*
X0000156630Y0000074500D03*
X0000156630Y0000078500D03*
X0000119130Y0000275500D03*
X0000161630Y0000331500D03*
X0000093130Y0000328000D03*
X0000105630Y0000361500D03*
X0000194130Y0000316000D03*
X0000144882Y0000340748D03*
X0000093130Y0000281500D03*
X0000079638Y0000280992D03*
X0000026130Y0000381500D03*
X0000152630Y0000078500D03*
X0000152630Y0000074500D03*
X0000104016Y0000278500D03*
X0000121130Y0000227000D03*
X0000090549Y0000238581D03*
X0000102630Y0000226500D03*
X0000114630Y0000294500D03*
X0000194130Y0000271000D03*
X0000102630Y0000222500D03*
X0000077744Y0000274386D03*
X0000116630Y0000231000D03*
X0000038630Y0000315000D03*
X0000095667Y0000238537D03*
X0000253130Y0000420000D03*
X0000093130Y0000222500D03*
X0000084130Y0000232000D03*
X0000097630Y0000222500D03*
X0000189618Y0000280512D03*
X0000193630Y0000332500D03*
X0000140130Y0000362500D03*
X0000144630Y0000362500D03*
X0000157032Y0000312402D03*
X0000190630Y0000385000D03*
X0000090630Y0000365000D03*
X0000053130Y0000325000D03*
X0000208630Y0000404500D03*
X0000085630Y0000365000D03*
X0000073630Y0000378500D03*
X0000157630Y0000269882D03*
X0000140130Y0000358000D03*
X0000101130Y0000361500D03*
X0000166630Y0000284500D03*
X0000102044Y0000337086D03*
X0000194130Y0000342000D03*
X0000112673Y0000337000D03*
X0000157630Y0000284500D03*
X0000089630Y0000301500D03*
X0000162130Y0000269500D03*
X0000095630Y0000337000D03*
X0000162130Y0000284500D03*
X0000087630Y0000401500D03*
X0000157130Y0000321500D03*
X0000040630Y0000230000D03*
X0000198630Y0000410500D03*
X0000194630Y0000311000D03*
X0000140130Y0000324000D03*
X0000208630Y0000396500D03*
X0000194130Y0000275500D03*
X0000207630Y0000422500D03*
X0000157630Y0000227362D03*
X0000290130Y0000219500D03*
X0000144795Y0000347835D03*
X0000189118Y0000169488D03*
X0000189130Y0000183661D03*
X0000157441Y0000213189D03*
X0000189630Y0000315945D03*
X0000075630Y0000415000D03*
X0000189516Y0000261614D03*
X0000162130Y0000274500D03*
X0000157354Y0000220276D03*
X0000157130Y0000206102D03*
X0000162130Y0000263000D03*
X0000194130Y0000261500D03*
X0000189591Y0000289961D03*
X0000189630Y0000266339D03*
X0000189909Y0000311221D03*
X0000157683Y0000274553D03*
X0000189610Y0000332480D03*
X0000157630Y0000279331D03*
X0000185630Y0000390000D03*
X0000157130Y0000345472D03*
X0000175130Y0000265000D03*
X0000161630Y0000338500D03*
X0000189417Y0000275787D03*
X0000189559Y0000341929D03*
X0000157630Y0000262795D03*
X0000189630Y0000337205D03*
X0000130130Y0000354976D03*
X0000144630Y0000324213D03*
X0000157130Y0000352559D03*
X0000176976Y0000346654D03*
X0000205130Y0000254500D03*
X0000194630Y0000280500D03*
X0000177197Y0000339567D03*
X0000157331Y0000331299D03*
X0000189567Y0000271063D03*
X0000194130Y0000266000D03*
X0000157130Y0000338386D03*
X0000140130Y0000317126D03*
X0000194130Y0000254500D03*
X0000166630Y0000279500D03*
X0000199130Y0000254500D03*
X0000144969Y0000333661D03*
X0000022130Y0000389000D03*
X0000289945Y0000250185D03*
X0000166630Y0000291000D03*
X0000156630Y0000063000D03*
X0000280630Y0000435000D03*
X0000256630Y0000406500D03*
X0000330630Y0000260000D03*
X0000090549Y0000271419D03*
X0000297630Y0000070500D03*
X0000152630Y0000070500D03*
X0000051630Y0000315000D03*
X0000273630Y0000317500D03*
X0000026130Y0000385614D03*
X0000085630Y0000055000D03*
X0000056630Y0000350500D03*
X0000120630Y0000405000D03*
X0000065630Y0000015000D03*
X0000321630Y0000142500D03*
X0000199630Y0000139000D03*
X0000164130Y0000312500D03*
X0000047630Y0000315000D03*
X0000035630Y0000225000D03*
X0000065630Y0000415000D03*
X0000056630Y0000346000D03*
X0000200630Y0000155000D03*
X0000293630Y0000070500D03*
X0000290630Y0000435000D03*
X0000120630Y0000410000D03*
X0000277630Y0000317500D03*
X0000105630Y0000405000D03*
X0000157130Y0000191929D03*
X0000310630Y0000395000D03*
X0000025630Y0000235000D03*
X0000345630Y0000105000D03*
X0000035630Y0000235000D03*
X0000025630Y0000295000D03*
X0000035630Y0000405000D03*
X0000065630Y0000405000D03*
X0000051630Y0000310500D03*
X0000093130Y0000285500D03*
X0000055630Y0000405000D03*
X0000025630Y0000225000D03*
X0000015630Y0000235000D03*
X0000119630Y0000354000D03*
X0000045630Y0000405000D03*
X0000048099Y0000346000D03*
X0000273630Y0000313000D03*
X0000162130Y0000149500D03*
X0000281630Y0000300000D03*
X0000300630Y0000425000D03*
X0000085630Y0000405000D03*
X0000015630Y0000145000D03*
X0000345630Y0000070000D03*
X0000156630Y0000070500D03*
X0000194630Y0000127000D03*
X0000041630Y0000346500D03*
X0000210630Y0000145000D03*
X0000256630Y0000410500D03*
X0000073630Y0000302500D03*
X0000198630Y0000149000D03*
X0000083630Y0000337000D03*
X0000047630Y0000310500D03*
X0000270630Y0000420000D03*
X0000192630Y0000155000D03*
X0000098567Y0000323437D03*
X0000340630Y0000195000D03*
X0000320630Y0000435000D03*
X0000168630Y0000178000D03*
X0000040630Y0000235000D03*
X0000085630Y0000415000D03*
X0000300630Y0000435000D03*
X0000189630Y0000127000D03*
X0000095630Y0000405000D03*
X0000120630Y0000420000D03*
X0000340630Y0000385000D03*
X0000050630Y0000220000D03*
X0000340630Y0000375000D03*
X0000140630Y0000425000D03*
X0000290630Y0000395000D03*
X0000230630Y0000265000D03*
X0000163630Y0000110000D03*
X0000310630Y0000025000D03*
X0000015630Y0000355000D03*
X0000250630Y0000330000D03*
X0000240630Y0000175000D03*
X0000055130Y0000425000D03*
X0000265630Y0000225000D03*
X0000150630Y0000385000D03*
X0000270630Y0000215000D03*
X0000210630Y0000155000D03*
X0000170630Y0000140000D03*
X0000220630Y0000165000D03*
X0000175630Y0000140000D03*
X0000240630Y0000185000D03*
X0000015630Y0000095000D03*
X0000340630Y0000415000D03*
X0000330630Y0000385000D03*
X0000025630Y0000105000D03*
X0000340630Y0000215000D03*
X0000015630Y0000135000D03*
X0000330630Y0000175000D03*
X0000330630Y0000185000D03*
X0000025630Y0000125000D03*
X0000035630Y0000015000D03*
X0000190630Y0000435000D03*
X0000340630Y0000260000D03*
X0000320630Y0000370000D03*
X0000260630Y0000425000D03*
X0000200630Y0000435000D03*
X0000025630Y0000085000D03*
X0000250630Y0000180000D03*
X0000125630Y0000165000D03*
X0000025630Y0000255000D03*
X0000300630Y0000300000D03*
X0000330630Y0000250000D03*
X0000015630Y0000125000D03*
X0000140630Y0000170000D03*
X0000335630Y0000105000D03*
X0000220630Y0000435000D03*
X0000270630Y0000220000D03*
X0000164130Y0000385000D03*
X0000340630Y0000185000D03*
X0000055630Y0000415000D03*
X0000230630Y0000385000D03*
X0000220630Y0000295000D03*
X0000340630Y0000270000D03*
X0000111630Y0000422500D03*
X0000310630Y0000015000D03*
X0000345630Y0000035000D03*
X0000070630Y0000183000D03*
X0000330630Y0000415000D03*
X0000240630Y0000330000D03*
X0000095630Y0000045000D03*
X0000165630Y0000140000D03*
X0000180630Y0000435000D03*
X0000025630Y0000145000D03*
X0000220630Y0000175000D03*
X0000280630Y0000405000D03*
X0000290630Y0000405000D03*
X0000025630Y0000135000D03*
X0000111630Y0000409000D03*
X0000120630Y0000415000D03*
X0000280630Y0000210000D03*
X0000200630Y0000195000D03*
X0000220630Y0000330000D03*
X0000335630Y0000085000D03*
X0000230630Y0000185000D03*
X0000220630Y0000155000D03*
X0000230630Y0000195000D03*
X0000320630Y0000395000D03*
X0000211630Y0000385000D03*
X0000340630Y0000175000D03*
X0000320630Y0000350000D03*
X0000065630Y0000055000D03*
X0000260630Y0000410000D03*
X0000035630Y0000285000D03*
X0000340630Y0000235000D03*
X0000260630Y0000405000D03*
X0000300630Y0000405000D03*
X0000280630Y0000415000D03*
X0000312630Y0000335000D03*
X0000015630Y0000105000D03*
X0000075130Y0000425000D03*
X0000220630Y0000265000D03*
X0000120630Y0000400500D03*
X0000200630Y0000165000D03*
X0000210630Y0000175000D03*
X0000200630Y0000175000D03*
X0000015630Y0000055000D03*
X0000170630Y0000145000D03*
X0000175630Y0000145000D03*
X0000015630Y0000260000D03*
X0000260630Y0000395000D03*
X0000260630Y0000385000D03*
X0000260630Y0000375000D03*
X0000250630Y0000375000D03*
X0000270630Y0000375000D03*
X0000270630Y0000395000D03*
X0000220630Y0000185000D03*
X0000260630Y0000330000D03*
X0000095630Y0000415000D03*
X0000320630Y0000415000D03*
X0000200630Y0000185000D03*
X0000240630Y0000275000D03*
X0000060630Y0000060000D03*
X0000060630Y0000070000D03*
X0000280630Y0000375000D03*
X0000290630Y0000015000D03*
X0000295630Y0000340000D03*
X0000320630Y0000425000D03*
X0000310630Y0000425000D03*
X0000345630Y0000085000D03*
X0000035630Y0000240000D03*
X0000290630Y0000415000D03*
X0000113630Y0000221500D03*
X0000345630Y0000060000D03*
X0000290630Y0000300000D03*
X0000230630Y0000165000D03*
X0000230630Y0000375000D03*
X0000035630Y0000415000D03*
X0000025630Y0000405000D03*
X0000025630Y0000305000D03*
X0000015630Y0000305000D03*
X0000025630Y0000315000D03*
X0000015630Y0000315000D03*
X0000325630Y0000095000D03*
X0000065630Y0000045000D03*
X0000230630Y0000330000D03*
X0000240630Y0000385000D03*
X0000240630Y0000375000D03*
X0000270630Y0000330000D03*
X0000280630Y0000425000D03*
X0000290630Y0000310000D03*
X0000015630Y0000225000D03*
X0000265630Y0000405000D03*
X0000330630Y0000215000D03*
X0000340630Y0000205000D03*
X0000130630Y0000405000D03*
X0000055630Y0000015000D03*
X0000325630Y0000105000D03*
X0000220630Y0000375000D03*
X0000025630Y0000415000D03*
X0000015630Y0000295000D03*
X0000230630Y0000365000D03*
X0000045630Y0000035000D03*
X0000220630Y0000385000D03*
X0000335630Y0000095000D03*
X0000113130Y0000350000D03*
X0000130630Y0000345000D03*
X0000340630Y0000350000D03*
X0000330630Y0000205000D03*
X0000230630Y0000435000D03*
X0000075630Y0000035000D03*
X0000130630Y0000415000D03*
X0000015630Y0000405000D03*
X0000015630Y0000415000D03*
X0000035630Y0000365000D03*
X0000340630Y0000405000D03*
X0000330630Y0000405000D03*
X0000310630Y0000370000D03*
X0000230630Y0000275000D03*
X0000220630Y0000305000D03*
X0000305630Y0000350000D03*
X0000290630Y0000105000D03*
X0000260630Y0000100000D03*
X0000035630Y0000145000D03*
X0000109630Y0000405000D03*
X0000345630Y0000095000D03*
X0000230630Y0000175000D03*
X0000015630Y0000270000D03*
X0000035630Y0000295000D03*
X0000340630Y0000245000D03*
X0000260630Y0000435000D03*
X0000230630Y0000285000D03*
X0000330630Y0000360000D03*
X0000035630Y0000035000D03*
X0000025630Y0000035000D03*
X0000340630Y0000360000D03*
X0000015630Y0000035000D03*
X0000300630Y0000015000D03*
X0000035630Y0000230000D03*
X0000105130Y0000425000D03*
X0000300630Y0000370000D03*
X0000260630Y0000420000D03*
X0000210630Y0000195000D03*
X0000015630Y0000085000D03*
X0000025630Y0000075000D03*
X0000035630Y0000355000D03*
X0000035630Y0000375000D03*
X0000130630Y0000340000D03*
X0000120630Y0000330000D03*
X0000025630Y0000355000D03*
X0000015630Y0000365000D03*
X0000330630Y0000395000D03*
X0000131630Y0000028000D03*
X0000250630Y0000435000D03*
X0000075630Y0000055000D03*
X0000035630Y0000025000D03*
X0000320630Y0000405000D03*
X0000310630Y0000405000D03*
X0000025630Y0000045000D03*
X0000015630Y0000075000D03*
X0000015630Y0000113500D03*
X0000105630Y0000175000D03*
X0000165630Y0000145000D03*
X0000300630Y0000291000D03*
X0000240630Y0000285000D03*
X0000200630Y0000405000D03*
X0000070630Y0000010000D03*
X0000312630Y0000329000D03*
X0000340630Y0000330000D03*
X0000055630Y0000055000D03*
X0000130630Y0000170000D03*
X0000140630Y0000415000D03*
X0000150630Y0000415000D03*
X0000240630Y0000350000D03*
X0000200630Y0000385000D03*
X0000320630Y0000015000D03*
X0000210630Y0000185000D03*
X0000025630Y0000065000D03*
X0000025630Y0000055000D03*
X0000250630Y0000385000D03*
X0000045630Y0000025000D03*
X0000190630Y0000395000D03*
X0000140630Y0000160000D03*
X0000055630Y0000025000D03*
X0000200630Y0000395000D03*
X0000200630Y0000375000D03*
X0000180630Y0000400000D03*
X0000200630Y0000365000D03*
X0000170630Y0000390000D03*
X0000260630Y0000225000D03*
X0000160630Y0000415000D03*
X0000211630Y0000375000D03*
X0000190630Y0000410000D03*
X0000330630Y0000195000D03*
X0000025630Y0000365000D03*
X0000169630Y0000110000D03*
X0000345630Y0000115000D03*
X0000315630Y0000095000D03*
X0000220630Y0000195000D03*
X0000281630Y0000310000D03*
X0000310630Y0000360000D03*
X0000160630Y0000425000D03*
X0000290630Y0000375000D03*
X0000015630Y0000385000D03*
X0000015630Y0000395000D03*
X0000150630Y0000405000D03*
X0000140630Y0000405000D03*
X0000025630Y0000375000D03*
X0000015630Y0000375000D03*
X0000105630Y0000415000D03*
X0000095130Y0000425000D03*
X0000118630Y0000361500D03*
X0000015630Y0000280000D03*
X0000130630Y0000350000D03*
X0000025630Y0000245000D03*
X0000035630Y0000245000D03*
X0000035630Y0000255000D03*
X0000250630Y0000285000D03*
X0000085630Y0000035000D03*
X0000085630Y0000025000D03*
X0000300630Y0000395000D03*
X0000150630Y0000425000D03*
X0000205630Y0000140000D03*
X0000210630Y0000165000D03*
X0000210630Y0000435000D03*
X0000295630Y0000360000D03*
X0000335630Y0000035000D03*
X0000260630Y0000360000D03*
X0000170630Y0000425000D03*
X0000025630Y0000113500D03*
X0000285630Y0000340000D03*
X0000300630Y0000415000D03*
X0000190630Y0000380000D03*
X0000075630Y0000045000D03*
X0000085630Y0000045000D03*
X0000290630Y0000291000D03*
X0000270630Y0000435000D03*
X0000270630Y0000425000D03*
X0000345630Y0000050000D03*
X0000250630Y0000350000D03*
X0000320630Y0000360000D03*
X0000330630Y0000340000D03*
X0000330630Y0000350000D03*
X0000240630Y0000435000D03*
X0000045630Y0000015000D03*
X0000335630Y0000070000D03*
X0000280630Y0000385000D03*
X0000265630Y0000410000D03*
X0000250630Y0000360000D03*
X0000335630Y0000050000D03*
X0000310630Y0000035000D03*
X0000270630Y0000385000D03*
X0000111630Y0000400500D03*
X0000281630Y0000291000D03*
X0000130630Y0000165000D03*
X0000312630Y0000087000D03*
X0000312630Y0000092000D03*
X0000307630Y0000092000D03*
X0000015630Y0000245000D03*
X0000310630Y0000415000D03*
X0000085130Y0000425000D03*
X0000130630Y0000425000D03*
X0000250630Y0000100000D03*
X0000220630Y0000285000D03*
X0000220630Y0000275000D03*
X0000065130Y0000425000D03*
X0000035130Y0000425000D03*
X0000045130Y0000425000D03*
X0000290630Y0000345000D03*
X0000295630Y0000345000D03*
X0000300630Y0000115000D03*
X0000048630Y0000105000D03*
X0000048630Y0000110000D03*
X0000048630Y0000116000D03*
X0000048630Y0000123000D03*
X0000096630Y0000016000D03*
X0000090630Y0000020000D03*
X0000290630Y0000115000D03*
X0000130130Y0000362000D03*
X0000113130Y0000354000D03*
X0000130630Y0000335000D03*
X0000125630Y0000330000D03*
X0000125630Y0000325000D03*
X0000275630Y0000400000D03*
X0000285630Y0000390000D03*
X0000170630Y0000330000D03*
X0000170630Y0000340000D03*
X0000135630Y0000335000D03*
X0000140630Y0000330000D03*
X0000195630Y0000295000D03*
X0000220630Y0000315000D03*
X0000250630Y0000295000D03*
X0000240630Y0000295000D03*
X0000230630Y0000295000D03*
X0000230630Y0000305000D03*
X0000240630Y0000305000D03*
X0000250630Y0000305000D03*
X0000250630Y0000315000D03*
X0000240630Y0000315000D03*
X0000230630Y0000315000D03*
X0000260630Y0000315000D03*
X0000260630Y0000305000D03*
X0000260630Y0000295000D03*
X0000270630Y0000295000D03*
X0000270630Y0000305000D03*
X0000210630Y0000265000D03*
X0000120130Y0000382000D03*
X0000115630Y0000382000D03*
X0000111630Y0000382000D03*
X0000227630Y0000052000D03*
X0000135130Y0000023500D03*
X0000091630Y0000029500D03*
X0000095130Y0000038000D03*
X0000175630Y0000156500D03*
X0000175630Y0000163500D03*
X0000175630Y0000170500D03*
X0000175630Y0000178000D03*
X0000172630Y0000185500D03*
X0000172630Y0000192500D03*
X0000170630Y0000149500D03*
X0000175630Y0000149500D03*
X0000233630Y0000036000D03*
X0000227630Y0000047500D03*
X0000227630Y0000036000D03*
X0000237630Y0000036000D03*
X0000085630Y0000372693D03*
X0000090630Y0000372500D03*
X0000069130Y0000364000D03*
X0000064130Y0000368000D03*
X0000057630Y0000368000D03*
X0000074630Y0000158000D03*
X0000069630Y0000158000D03*
X0000069630Y0000153500D03*
X0000074630Y0000153500D03*
X0000140130Y0000014500D03*
X0000135130Y0000014500D03*
X0000145130Y0000014500D03*
X0000140130Y0000018500D03*
X0000135130Y0000018500D03*
X0000227630Y0000019000D03*
X0000233130Y0000019000D03*
X0000227630Y0000023000D03*
X0000233130Y0000023000D03*
X0000195630Y0000056000D03*
X0000195630Y0000051000D03*
X0000284630Y0000099500D03*
X0000235630Y0000109000D03*
X0000243630Y0000109500D03*
X0000097930Y0000189000D03*
X0000097930Y0000193000D03*
X0000097930Y0000197500D03*
X0000101630Y0000189000D03*
X0000101630Y0000193000D03*
X0000101630Y0000197500D03*
X0000269730Y0000061700D03*
G54D22*
X0000048000Y0000200389D03*
G54D20*
X0000166929Y0000098819D03*
G54D21*
X0000166929Y0000361811D03*
%LPD*%
G75*
G54D10*
X0000015748Y0000015748D03*
X0000015748Y0000437008D03*
X0000166929Y0000098819D03*
X0000338619Y0000015748D03*
X0000338619Y0000437008D03*
G54D11*
X0000005630Y0000035000D03*
X0000005630Y0000055000D03*
X0000005630Y0000075000D03*
X0000005630Y0000065000D03*
X0000005630Y0000095000D03*
X0000005630Y0000085000D03*
X0000005630Y0000113500D03*
X0000005630Y0000105000D03*
X0000005630Y0000125000D03*
X0000005630Y0000145000D03*
X0000005630Y0000135000D03*
X0000005630Y0000155000D03*
X0000009630Y0000218000D03*
X0000004130Y0000218000D03*
X0000005630Y0000235000D03*
X0000005630Y0000225000D03*
X0000005630Y0000245000D03*
X0000005630Y0000270000D03*
X0000005630Y0000260000D03*
X0000005630Y0000280000D03*
X0000005630Y0000305000D03*
X0000005630Y0000295000D03*
X0000005630Y0000315000D03*
X0000005630Y0000340000D03*
X0000005630Y0000330000D03*
X0000012630Y0000330000D03*
X0000012630Y0000339784D03*
X0000012630Y0000336784D03*
X0000012630Y0000333000D03*
X0000005630Y0000355000D03*
X0000005630Y0000375000D03*
X0000005630Y0000365000D03*
X0000005630Y0000395000D03*
X0000005630Y0000385000D03*
X0000005630Y0000415000D03*
X0000005630Y0000425000D03*
X0000025630Y0000045000D03*
X0000025630Y0000035000D03*
X0000015630Y0000035000D03*
X0000015630Y0000055000D03*
X0000025630Y0000055000D03*
X0000025630Y0000075000D03*
X0000015630Y0000075000D03*
X0000025630Y0000065000D03*
X0000015630Y0000065000D03*
X0000026630Y0000097000D03*
X0000015630Y0000095000D03*
X0000015630Y0000085000D03*
X0000025630Y0000085000D03*
X0000026630Y0000100000D03*
X0000025630Y0000113500D03*
X0000015630Y0000113500D03*
X0000015630Y0000105000D03*
X0000025630Y0000105000D03*
X0000025630Y0000125000D03*
X0000015630Y0000125000D03*
X0000025630Y0000145000D03*
X0000015630Y0000145000D03*
X0000015630Y0000135000D03*
X0000025630Y0000135000D03*
X0000025630Y0000155000D03*
X0000026130Y0000217500D03*
X0000025630Y0000235000D03*
X0000015630Y0000235000D03*
X0000025630Y0000225000D03*
X0000015630Y0000225000D03*
X0000015630Y0000245000D03*
X0000025630Y0000245000D03*
X0000025630Y0000255000D03*
X0000015630Y0000270000D03*
X0000015630Y0000260000D03*
X0000028630Y0000274000D03*
X0000032130Y0000274000D03*
X0000026427Y0000265703D03*
X0000026490Y0000269640D03*
X0000015630Y0000280000D03*
X0000025630Y0000305000D03*
X0000015630Y0000305000D03*
X0000015630Y0000295000D03*
X0000025630Y0000295000D03*
X0000016130Y0000328500D03*
X0000015630Y0000315000D03*
X0000025630Y0000315000D03*
X0000018130Y0000326500D03*
X0000031630Y0000326500D03*
X0000032130Y0000331000D03*
X0000031130Y0000344000D03*
X0000015630Y0000334500D03*
X0000031130Y0000337000D03*
X0000017630Y0000340500D03*
X0000028741Y0000342889D03*
X0000015630Y0000355000D03*
X0000025630Y0000355000D03*
X0000015630Y0000375000D03*
X0000025630Y0000375000D03*
X0000025630Y0000365000D03*
X0000015630Y0000365000D03*
X0000026130Y0000381500D03*
X0000015630Y0000395000D03*
X0000015630Y0000385000D03*
X0000026130Y0000385614D03*
X0000022130Y0000389000D03*
X0000025630Y0000405000D03*
X0000025630Y0000415000D03*
X0000015630Y0000405000D03*
X0000015630Y0000415000D03*
X0000025630Y0000425000D03*
X0000035630Y0000005000D03*
X0000045630Y0000005000D03*
X0000035630Y0000025000D03*
X0000045630Y0000025000D03*
X0000035630Y0000015000D03*
X0000045630Y0000015000D03*
X0000035630Y0000045000D03*
X0000035630Y0000035000D03*
X0000045630Y0000035000D03*
X0000048630Y0000058894D03*
X0000048630Y0000078579D03*
X0000048630Y0000068736D03*
X0000048630Y0000097000D03*
X0000048630Y0000088500D03*
X0000048630Y0000100000D03*
X0000048630Y0000105000D03*
X0000048630Y0000110000D03*
X0000048630Y0000116000D03*
X0000048630Y0000123000D03*
X0000035630Y0000145000D03*
X0000035630Y0000155000D03*
X0000040630Y0000185000D03*
X0000040630Y0000175000D03*
X0000040630Y0000205000D03*
X0000040630Y0000195000D03*
X0000040630Y0000220000D03*
X0000035630Y0000235000D03*
X0000035630Y0000225000D03*
X0000040630Y0000230000D03*
X0000035630Y0000240000D03*
X0000040630Y0000235000D03*
X0000035630Y0000230000D03*
X0000035630Y0000245000D03*
X0000035630Y0000255000D03*
X0000047630Y0000251500D03*
X0000047630Y0000255500D03*
X0000037130Y0000265000D03*
X0000037130Y0000270000D03*
X0000037130Y0000274000D03*
X0000035630Y0000285000D03*
X0000035630Y0000295000D03*
X0000047630Y0000310500D03*
X0000040130Y0000328500D03*
X0000038630Y0000315000D03*
X0000047630Y0000315000D03*
X0000033630Y0000328500D03*
X0000034130Y0000324000D03*
X0000041630Y0000346500D03*
X0000048099Y0000346000D03*
X0000040130Y0000334500D03*
X0000037130Y0000330500D03*
X0000037130Y0000333500D03*
X0000033630Y0000339500D03*
X0000033630Y0000342500D03*
X0000035630Y0000355000D03*
X0000041630Y0000355000D03*
X0000035630Y0000365000D03*
X0000035630Y0000375000D03*
X0000033130Y0000381000D03*
X0000040630Y0000381000D03*
X0000041130Y0000372000D03*
X0000041630Y0000365000D03*
X0000045630Y0000405000D03*
X0000045630Y0000415000D03*
X0000035630Y0000405000D03*
X0000035630Y0000415000D03*
X0000045130Y0000425000D03*
X0000035130Y0000425000D03*
X0000055630Y0000005000D03*
X0000065630Y0000005000D03*
X0000055630Y0000025000D03*
X0000055630Y0000015000D03*
X0000065630Y0000015000D03*
X0000065630Y0000045000D03*
X0000065630Y0000055000D03*
X0000055630Y0000055000D03*
X0000060630Y0000060000D03*
X0000063130Y0000079000D03*
X0000066630Y0000072500D03*
X0000066630Y0000076500D03*
X0000060630Y0000070000D03*
X0000063130Y0000088500D03*
X0000066630Y0000095000D03*
X0000066630Y0000090000D03*
X0000066630Y0000104000D03*
X0000066630Y0000099000D03*
X0000067630Y0000112000D03*
X0000067630Y0000117500D03*
X0000062130Y0000178000D03*
X0000065130Y0000178000D03*
X0000061750Y0000195880D03*
X0000064750Y0000195880D03*
X0000050630Y0000220000D03*
X0000060630Y0000225500D03*
X0000051130Y0000251500D03*
X0000051130Y0000255500D03*
X0000051630Y0000310500D03*
X0000053130Y0000325000D03*
X0000067630Y0000327000D03*
X0000051630Y0000315000D03*
X0000053130Y0000334500D03*
X0000056630Y0000346000D03*
X0000067744Y0000348886D03*
X0000067744Y0000352114D03*
X0000057630Y0000359000D03*
X0000061130Y0000364000D03*
X0000064130Y0000359000D03*
X0000056630Y0000350500D03*
X0000067630Y0000379992D03*
X0000057630Y0000376500D03*
X0000057630Y0000368000D03*
X0000061130Y0000372000D03*
X0000064130Y0000368000D03*
X0000067630Y0000384000D03*
X0000065630Y0000405000D03*
X0000065630Y0000415000D03*
X0000055630Y0000405000D03*
X0000055630Y0000415000D03*
X0000065130Y0000425000D03*
X0000055130Y0000425000D03*
X0000075630Y0000005000D03*
X0000070630Y0000010000D03*
X0000070630Y0000005000D03*
X0000085630Y0000025000D03*
X0000085630Y0000035000D03*
X0000075630Y0000035000D03*
X0000075630Y0000045000D03*
X0000085630Y0000045000D03*
X0000075630Y0000055000D03*
X0000085630Y0000055000D03*
X0000071130Y0000076500D03*
X0000071130Y0000072500D03*
X0000075630Y0000072500D03*
X0000075630Y0000076500D03*
X0000073130Y0000095000D03*
X0000073130Y0000099000D03*
X0000083130Y0000112000D03*
X0000083130Y0000108000D03*
X0000075130Y0000112000D03*
X0000070130Y0000132000D03*
X0000070130Y0000126500D03*
X0000074630Y0000117500D03*
X0000069630Y0000165500D03*
X0000074630Y0000165500D03*
X0000069630Y0000158000D03*
X0000074630Y0000158000D03*
X0000069630Y0000153500D03*
X0000074630Y0000153500D03*
X0000070630Y0000183000D03*
X0000069630Y0000170000D03*
X0000074630Y0000170000D03*
X0000083744Y0000192886D03*
X0000075130Y0000217500D03*
X0000084130Y0000240000D03*
X0000084130Y0000236000D03*
X0000084130Y0000232000D03*
X0000074630Y0000239500D03*
X0000084130Y0000258000D03*
X0000074630Y0000243000D03*
X0000084130Y0000269500D03*
X0000077744Y0000274386D03*
X0000069130Y0000292000D03*
X0000083130Y0000284500D03*
X0000079638Y0000280992D03*
X0000073630Y0000302500D03*
X0000069130Y0000298500D03*
X0000073630Y0000311500D03*
X0000073630Y0000319500D03*
X0000073630Y0000327000D03*
X0000068130Y0000319500D03*
X0000083630Y0000337000D03*
X0000069130Y0000359000D03*
X0000069130Y0000364000D03*
X0000085630Y0000361000D03*
X0000085630Y0000357500D03*
X0000073630Y0000378500D03*
X0000085630Y0000365000D03*
X0000085630Y0000372693D03*
X0000085630Y0000405000D03*
X0000085630Y0000415000D03*
X0000075630Y0000405000D03*
X0000075630Y0000415000D03*
X0000085130Y0000425000D03*
X0000075130Y0000425000D03*
X0000102130Y0000018500D03*
X0000102130Y0000014500D03*
X0000096630Y0000016000D03*
X0000090630Y0000020000D03*
X0000095630Y0000045000D03*
X0000091630Y0000029500D03*
X0000095130Y0000038000D03*
X0000096961Y0000032000D03*
X0000101291Y0000032000D03*
X0000101646Y0000063016D03*
X0000097204Y0000067574D03*
X0000098630Y0000076000D03*
X0000098630Y0000086500D03*
X0000099130Y0000097500D03*
X0000086630Y0000110000D03*
X0000090130Y0000112000D03*
X0000090130Y0000108000D03*
X0000094130Y0000108000D03*
X0000094130Y0000102500D03*
X0000099630Y0000122500D03*
X0000099630Y0000117500D03*
X0000091130Y0000155500D03*
X0000093630Y0000158000D03*
X0000101630Y0000193000D03*
X0000101630Y0000197500D03*
X0000101630Y0000189000D03*
X0000097930Y0000189000D03*
X0000097930Y0000193000D03*
X0000097930Y0000197500D03*
X0000090790Y0000188340D03*
X0000090630Y0000193000D03*
X0000093130Y0000222500D03*
X0000097630Y0000222500D03*
X0000102630Y0000222500D03*
X0000095667Y0000238537D03*
X0000093108Y0000236000D03*
X0000090549Y0000238581D03*
X0000102630Y0000226500D03*
X0000100785Y0000238500D03*
X0000087630Y0000236000D03*
X0000090549Y0000271419D03*
X0000093130Y0000285500D03*
X0000101496Y0000286866D03*
X0000093130Y0000281500D03*
X0000089130Y0000281500D03*
X0000099130Y0000281500D03*
X0000095130Y0000298000D03*
X0000095130Y0000301000D03*
X0000089630Y0000301500D03*
X0000098567Y0000323437D03*
X0000098630Y0000328000D03*
X0000093130Y0000328000D03*
X0000095630Y0000337000D03*
X0000102044Y0000337086D03*
X0000101130Y0000361500D03*
X0000090630Y0000365000D03*
X0000090630Y0000372500D03*
X0000091630Y0000401500D03*
X0000087630Y0000401500D03*
X0000095630Y0000405000D03*
X0000095630Y0000415000D03*
X0000095130Y0000425000D03*
X0000110130Y0000019500D03*
X0000110130Y0000016500D03*
X0000117630Y0000018500D03*
X0000117630Y0000014500D03*
X0000110130Y0000032000D03*
X0000110130Y0000028500D03*
X0000114130Y0000032000D03*
X0000117130Y0000029500D03*
X0000120130Y0000029500D03*
X0000105622Y0000032000D03*
X0000117130Y0000056500D03*
X0000117130Y0000052500D03*
X0000109630Y0000076000D03*
X0000118630Y0000072000D03*
X0000120630Y0000090500D03*
X0000120630Y0000095000D03*
X0000104130Y0000097500D03*
X0000104130Y0000086500D03*
X0000120630Y0000103000D03*
X0000120630Y0000099500D03*
X0000119130Y0000111500D03*
X0000120630Y0000108500D03*
X0000104130Y0000102000D03*
X0000104130Y0000105500D03*
X0000113130Y0000113000D03*
X0000104130Y0000113000D03*
X0000108630Y0000113000D03*
X0000120630Y0000118000D03*
X0000120630Y0000123000D03*
X0000104130Y0000122500D03*
X0000108630Y0000122500D03*
X0000108630Y0000126500D03*
X0000108630Y0000131000D03*
X0000113130Y0000126500D03*
X0000113130Y0000122500D03*
X0000113130Y0000117500D03*
X0000104130Y0000117500D03*
X0000108630Y0000117500D03*
X0000108130Y0000136500D03*
X0000103630Y0000178500D03*
X0000105630Y0000180000D03*
X0000105630Y0000175000D03*
X0000106130Y0000189000D03*
X0000106130Y0000193000D03*
X0000106130Y0000197500D03*
X0000106744Y0000212886D03*
X0000103516Y0000212886D03*
X0000119130Y0000215500D03*
X0000119130Y0000219000D03*
X0000113630Y0000221500D03*
X0000116630Y0000227000D03*
X0000116630Y0000231000D03*
X0000119130Y0000275500D03*
X0000119389Y0000290241D03*
X0000104016Y0000278500D03*
X0000114630Y0000294500D03*
X0000112673Y0000337000D03*
X0000119760Y0000337000D03*
X0000120630Y0000330000D03*
X0000105630Y0000361500D03*
X0000119630Y0000354000D03*
X0000118630Y0000361500D03*
X0000113130Y0000350000D03*
X0000113130Y0000354000D03*
X0000113130Y0000361500D03*
X0000117630Y0000350500D03*
X0000111630Y0000382000D03*
X0000115630Y0000382000D03*
X0000120130Y0000382000D03*
X0000120630Y0000410000D03*
X0000120630Y0000405000D03*
X0000105630Y0000405000D03*
X0000105630Y0000415000D03*
X0000120630Y0000400500D03*
X0000111630Y0000400500D03*
X0000109630Y0000405000D03*
X0000111630Y0000409000D03*
X0000111630Y0000414500D03*
X0000120630Y0000415000D03*
X0000120630Y0000420000D03*
X0000111630Y0000422500D03*
X0000105130Y0000425000D03*
X0000135130Y0000018500D03*
X0000135130Y0000014500D03*
X0000131630Y0000028000D03*
X0000124130Y0000018500D03*
X0000124130Y0000014500D03*
X0000135130Y0000023500D03*
X0000127276Y0000030000D03*
X0000122945Y0000030000D03*
X0000124087Y0000063043D03*
X0000121130Y0000056500D03*
X0000121130Y0000052500D03*
X0000125130Y0000056500D03*
X0000125130Y0000052500D03*
X0000121744Y0000072114D03*
X0000129056Y0000067574D03*
X0000121630Y0000082500D03*
X0000124630Y0000082500D03*
X0000121630Y0000085500D03*
X0000124630Y0000085500D03*
X0000138130Y0000105000D03*
X0000138130Y0000101500D03*
X0000124630Y0000103000D03*
X0000124630Y0000099500D03*
X0000138130Y0000131000D03*
X0000138130Y0000127500D03*
X0000130630Y0000165000D03*
X0000125630Y0000165000D03*
X0000123630Y0000184000D03*
X0000130630Y0000170000D03*
X0000123630Y0000192700D03*
X0000123630Y0000202700D03*
X0000123630Y0000197700D03*
X0000123630Y0000188500D03*
X0000126630Y0000201000D03*
X0000126630Y0000204000D03*
X0000126630Y0000195500D03*
X0000126630Y0000192500D03*
X0000122726Y0000211046D03*
X0000122630Y0000219500D03*
X0000122630Y0000216500D03*
X0000126226Y0000212546D03*
X0000126226Y0000209546D03*
X0000121130Y0000227000D03*
X0000121130Y0000231000D03*
X0000124516Y0000252886D03*
X0000124516Y0000264114D03*
X0000126130Y0000297114D03*
X0000126130Y0000306386D03*
X0000125630Y0000325000D03*
X0000130630Y0000345000D03*
X0000130630Y0000340000D03*
X0000135630Y0000335000D03*
X0000130630Y0000335000D03*
X0000125630Y0000330000D03*
X0000138130Y0000343500D03*
X0000130130Y0000354976D03*
X0000130630Y0000350000D03*
X0000130130Y0000362000D03*
X0000136130Y0000351000D03*
X0000130630Y0000415000D03*
X0000130630Y0000405000D03*
X0000130630Y0000425000D03*
X0000140130Y0000014500D03*
X0000145130Y0000014500D03*
X0000140130Y0000018500D03*
X0000152630Y0000074500D03*
X0000152630Y0000078500D03*
X0000152630Y0000070500D03*
X0000141630Y0000105000D03*
X0000141630Y0000101500D03*
X0000142130Y0000127500D03*
X0000142130Y0000131000D03*
X0000140630Y0000160000D03*
X0000140630Y0000170000D03*
X0000139630Y0000303000D03*
X0000139630Y0000300500D03*
X0000140130Y0000317126D03*
X0000140130Y0000324000D03*
X0000144630Y0000324213D03*
X0000144630Y0000328937D03*
X0000144969Y0000333661D03*
X0000144882Y0000340748D03*
X0000140630Y0000330000D03*
X0000140630Y0000338500D03*
X0000144795Y0000347835D03*
X0000144709Y0000354921D03*
X0000144630Y0000358000D03*
X0000144630Y0000362500D03*
X0000140130Y0000358000D03*
X0000140130Y0000362500D03*
X0000150630Y0000385000D03*
X0000140630Y0000415000D03*
X0000150630Y0000415000D03*
X0000140630Y0000405000D03*
X0000150630Y0000405000D03*
X0000140630Y0000425000D03*
X0000150630Y0000425000D03*
X0000156630Y0000063000D03*
X0000156630Y0000078500D03*
X0000156630Y0000074500D03*
X0000156630Y0000070500D03*
X0000166630Y0000071000D03*
X0000163130Y0000071000D03*
X0000174130Y0000087000D03*
X0000158130Y0000110000D03*
X0000169630Y0000110000D03*
X0000163630Y0000110000D03*
X0000157130Y0000121063D03*
X0000157030Y0000129300D03*
X0000161130Y0000142000D03*
X0000158130Y0000149409D03*
X0000157130Y0000142323D03*
X0000162130Y0000149500D03*
X0000165630Y0000145000D03*
X0000165630Y0000140000D03*
X0000170630Y0000140000D03*
X0000170630Y0000145000D03*
X0000170630Y0000149500D03*
X0000165630Y0000151500D03*
X0000157130Y0000137598D03*
X0000161130Y0000137500D03*
X0000158130Y0000163583D03*
X0000158130Y0000156496D03*
X0000168630Y0000163500D03*
X0000168630Y0000156500D03*
X0000165630Y0000165673D03*
X0000160630Y0000161500D03*
X0000165630Y0000168673D03*
X0000160630Y0000158500D03*
X0000165630Y0000154500D03*
X0000158130Y0000170669D03*
X0000158130Y0000177756D03*
X0000168630Y0000178000D03*
X0000168630Y0000170500D03*
X0000165302Y0000185172D03*
X0000172630Y0000185500D03*
X0000163130Y0000182846D03*
X0000160630Y0000172500D03*
X0000163130Y0000179846D03*
X0000160630Y0000175500D03*
X0000157130Y0000191929D03*
X0000157130Y0000199016D03*
X0000172630Y0000192500D03*
X0000157130Y0000206102D03*
X0000157354Y0000220276D03*
X0000157441Y0000213189D03*
X0000157630Y0000227362D03*
X0000157579Y0000234449D03*
X0000157630Y0000238000D03*
X0000157630Y0000247500D03*
X0000157630Y0000241000D03*
X0000157630Y0000255000D03*
X0000157630Y0000251000D03*
X0000157528Y0000243898D03*
X0000157630Y0000258071D03*
X0000162130Y0000258000D03*
X0000157630Y0000262795D03*
X0000157630Y0000269882D03*
X0000162130Y0000269500D03*
X0000162130Y0000263000D03*
X0000157683Y0000274553D03*
X0000162130Y0000274500D03*
X0000166630Y0000279500D03*
X0000166630Y0000284500D03*
X0000157630Y0000284500D03*
X0000157488Y0000291142D03*
X0000162130Y0000279500D03*
X0000157630Y0000279331D03*
X0000162130Y0000284500D03*
X0000166630Y0000291000D03*
X0000157032Y0000312402D03*
X0000157130Y0000321500D03*
X0000157130Y0000326000D03*
X0000164130Y0000312500D03*
X0000157130Y0000338386D03*
X0000161630Y0000331500D03*
X0000170630Y0000330000D03*
X0000170630Y0000340000D03*
X0000157331Y0000331299D03*
X0000161630Y0000345500D03*
X0000157130Y0000345472D03*
X0000161630Y0000338500D03*
X0000157130Y0000352559D03*
X0000164130Y0000385000D03*
X0000170630Y0000390000D03*
X0000160630Y0000415000D03*
X0000170630Y0000425000D03*
X0000160630Y0000425000D03*
X0000170630Y0000435000D03*
X0000181630Y0000032500D03*
X0000185630Y0000032500D03*
X0000190630Y0000032500D03*
X0000188130Y0000036500D03*
X0000183130Y0000062500D03*
X0000183130Y0000057500D03*
X0000188130Y0000057500D03*
X0000188130Y0000062500D03*
X0000188130Y0000052500D03*
X0000191630Y0000052500D03*
X0000176630Y0000071000D03*
X0000176630Y0000078500D03*
X0000187630Y0000071000D03*
X0000182630Y0000071000D03*
X0000176630Y0000075000D03*
X0000176630Y0000065500D03*
X0000178630Y0000087000D03*
X0000176030Y0000110200D03*
X0000177130Y0000128500D03*
X0000190130Y0000119500D03*
X0000189630Y0000127000D03*
X0000189228Y0000141142D03*
X0000189228Y0000148228D03*
X0000175630Y0000145000D03*
X0000175630Y0000140000D03*
X0000189630Y0000138000D03*
X0000175630Y0000149500D03*
X0000189032Y0000162402D03*
X0000189118Y0000169488D03*
X0000175630Y0000156500D03*
X0000175630Y0000163500D03*
X0000189130Y0000183661D03*
X0000189055Y0000176575D03*
X0000175630Y0000170500D03*
X0000175630Y0000178000D03*
X0000189228Y0000197835D03*
X0000189228Y0000204921D03*
X0000189228Y0000212008D03*
X0000189228Y0000219095D03*
X0000189228Y0000226181D03*
X0000189228Y0000233268D03*
X0000189630Y0000241000D03*
X0000189130Y0000254528D03*
X0000189071Y0000247441D03*
X0000189516Y0000261614D03*
X0000189567Y0000271063D03*
X0000189630Y0000266339D03*
X0000175130Y0000265000D03*
X0000189417Y0000275787D03*
X0000189591Y0000289961D03*
X0000189630Y0000284500D03*
X0000189618Y0000280512D03*
X0000189630Y0000315945D03*
X0000189909Y0000311221D03*
X0000189524Y0000325394D03*
X0000176386Y0000327756D03*
X0000189630Y0000337205D03*
X0000189610Y0000332480D03*
X0000177197Y0000339567D03*
X0000189559Y0000341929D03*
X0000176571Y0000331059D03*
X0000176976Y0000346654D03*
X0000190630Y0000380000D03*
X0000176630Y0000383500D03*
X0000180630Y0000383500D03*
X0000180630Y0000386500D03*
X0000176630Y0000386500D03*
X0000190630Y0000385000D03*
X0000185630Y0000390000D03*
X0000190630Y0000395000D03*
X0000180630Y0000400000D03*
X0000190630Y0000410000D03*
X0000190630Y0000435000D03*
X0000180630Y0000435000D03*
X0000202630Y0000019000D03*
X0000202630Y0000016500D03*
X0000206130Y0000019000D03*
X0000206130Y0000016500D03*
X0000205630Y0000028000D03*
X0000200630Y0000028000D03*
X0000195630Y0000028000D03*
X0000205630Y0000022500D03*
X0000195630Y0000032500D03*
X0000200630Y0000032500D03*
X0000205630Y0000032500D03*
X0000205630Y0000037500D03*
X0000195630Y0000056000D03*
X0000195630Y0000051000D03*
X0000194630Y0000127000D03*
X0000200630Y0000145000D03*
X0000205630Y0000140000D03*
X0000199630Y0000139000D03*
X0000198630Y0000149000D03*
X0000200630Y0000165000D03*
X0000200630Y0000155000D03*
X0000192630Y0000155000D03*
X0000200630Y0000185000D03*
X0000200630Y0000175000D03*
X0000202130Y0000200000D03*
X0000202130Y0000203000D03*
X0000208630Y0000203500D03*
X0000208630Y0000199500D03*
X0000200630Y0000195000D03*
X0000201704Y0000219500D03*
X0000201704Y0000215500D03*
X0000207704Y0000215500D03*
X0000207704Y0000219500D03*
X0000199130Y0000221000D03*
X0000199630Y0000213500D03*
X0000199130Y0000254500D03*
X0000205130Y0000254500D03*
X0000194130Y0000254500D03*
X0000202630Y0000241500D03*
X0000202630Y0000247500D03*
X0000194130Y0000261500D03*
X0000194130Y0000271000D03*
X0000194130Y0000275500D03*
X0000194130Y0000266000D03*
X0000194630Y0000280500D03*
X0000194630Y0000311000D03*
X0000195630Y0000295000D03*
X0000194130Y0000316000D03*
X0000194130Y0000342000D03*
X0000193630Y0000332500D03*
X0000200630Y0000365000D03*
X0000200630Y0000375000D03*
X0000208630Y0000396500D03*
X0000208630Y0000390500D03*
X0000200630Y0000385000D03*
X0000200630Y0000395000D03*
X0000194630Y0000410500D03*
X0000208630Y0000404500D03*
X0000198630Y0000410500D03*
X0000200630Y0000405000D03*
X0000207630Y0000422500D03*
X0000200630Y0000435000D03*
X0000210630Y0000019000D03*
X0000210630Y0000016500D03*
X0000210630Y0000028000D03*
X0000210630Y0000022500D03*
X0000210630Y0000044000D03*
X0000215630Y0000044000D03*
X0000210630Y0000037500D03*
X0000210630Y0000032500D03*
X0000210630Y0000047500D03*
X0000215630Y0000047500D03*
X0000210630Y0000057500D03*
X0000215630Y0000057500D03*
X0000220630Y0000057500D03*
X0000220630Y0000052500D03*
X0000215630Y0000052500D03*
X0000210630Y0000052500D03*
X0000210630Y0000145000D03*
X0000210630Y0000165000D03*
X0000220630Y0000165000D03*
X0000210630Y0000155000D03*
X0000220630Y0000155000D03*
X0000210630Y0000185000D03*
X0000220630Y0000185000D03*
X0000210630Y0000175000D03*
X0000220630Y0000175000D03*
X0000211630Y0000203352D03*
X0000210630Y0000195000D03*
X0000220630Y0000195000D03*
X0000211630Y0000199400D03*
X0000210704Y0000219352D03*
X0000210704Y0000215400D03*
X0000222630Y0000216048D03*
X0000225630Y0000215000D03*
X0000225630Y0000221000D03*
X0000222630Y0000220000D03*
X0000220630Y0000275000D03*
X0000220630Y0000265000D03*
X0000210630Y0000265000D03*
X0000220630Y0000285000D03*
X0000220630Y0000305000D03*
X0000220630Y0000295000D03*
X0000220630Y0000315000D03*
X0000220630Y0000330000D03*
X0000211630Y0000375000D03*
X0000220630Y0000375000D03*
X0000211630Y0000385000D03*
X0000220630Y0000385000D03*
X0000211630Y0000422500D03*
X0000220630Y0000435000D03*
X0000210630Y0000435000D03*
X0000235630Y0000007150D03*
X0000235630Y0000004000D03*
X0000231630Y0000004000D03*
X0000231630Y0000007150D03*
X0000227630Y0000004000D03*
X0000227630Y0000007150D03*
X0000241630Y0000007150D03*
X0000241630Y0000004000D03*
X0000227630Y0000019000D03*
X0000227630Y0000023000D03*
X0000233130Y0000023000D03*
X0000233130Y0000019000D03*
X0000227630Y0000029500D03*
X0000233130Y0000029500D03*
X0000233130Y0000045500D03*
X0000237630Y0000036000D03*
X0000233630Y0000036000D03*
X0000227630Y0000036000D03*
X0000227630Y0000042000D03*
X0000232687Y0000050557D03*
X0000232687Y0000055557D03*
X0000227630Y0000047500D03*
X0000227630Y0000052000D03*
X0000237630Y0000055500D03*
X0000237630Y0000050500D03*
X0000238630Y0000081114D03*
X0000235630Y0000100000D03*
X0000235630Y0000109000D03*
X0000243630Y0000109500D03*
X0000243630Y0000118000D03*
X0000230630Y0000165000D03*
X0000230630Y0000185000D03*
X0000230630Y0000175000D03*
X0000240630Y0000185000D03*
X0000240630Y0000175000D03*
X0000230630Y0000195000D03*
X0000230630Y0000265000D03*
X0000230630Y0000275000D03*
X0000240630Y0000275000D03*
X0000230630Y0000285000D03*
X0000240630Y0000285000D03*
X0000240630Y0000295000D03*
X0000230630Y0000295000D03*
X0000230630Y0000305000D03*
X0000240630Y0000305000D03*
X0000240630Y0000315000D03*
X0000230630Y0000315000D03*
X0000230630Y0000330000D03*
X0000240630Y0000330000D03*
X0000240630Y0000350000D03*
X0000230630Y0000375000D03*
X0000230630Y0000365000D03*
X0000240630Y0000375000D03*
X0000230630Y0000385000D03*
X0000240630Y0000385000D03*
X0000230630Y0000435000D03*
X0000240630Y0000435000D03*
X0000254130Y0000007150D03*
X0000258130Y0000007150D03*
X0000254130Y0000004000D03*
X0000258130Y0000004000D03*
X0000262130Y0000007150D03*
X0000262130Y0000004000D03*
X0000245630Y0000007150D03*
X0000249630Y0000007150D03*
X0000245630Y0000004000D03*
X0000249630Y0000004000D03*
X0000248630Y0000044200D03*
X0000251630Y0000044200D03*
X0000251630Y0000047000D03*
X0000248630Y0000047000D03*
X0000260630Y0000100000D03*
X0000250630Y0000100000D03*
X0000256130Y0000110500D03*
X0000252630Y0000118500D03*
X0000250630Y0000180000D03*
X0000260630Y0000225000D03*
X0000250630Y0000285000D03*
X0000250630Y0000295000D03*
X0000250630Y0000305000D03*
X0000260630Y0000305000D03*
X0000260630Y0000295000D03*
X0000250630Y0000315000D03*
X0000260630Y0000315000D03*
X0000250630Y0000330000D03*
X0000260630Y0000330000D03*
X0000250630Y0000360000D03*
X0000250630Y0000350000D03*
X0000260630Y0000350000D03*
X0000260630Y0000360000D03*
X0000250630Y0000375000D03*
X0000260630Y0000375000D03*
X0000250630Y0000385000D03*
X0000260630Y0000385000D03*
X0000260630Y0000395000D03*
X0000256630Y0000406500D03*
X0000256630Y0000410500D03*
X0000260630Y0000410000D03*
X0000260630Y0000405000D03*
X0000253130Y0000425000D03*
X0000253130Y0000420000D03*
X0000260630Y0000425000D03*
X0000260630Y0000420000D03*
X0000260630Y0000435000D03*
X0000250630Y0000435000D03*
X0000266630Y0000004000D03*
X0000266630Y0000007150D03*
X0000270630Y0000007150D03*
X0000270630Y0000004000D03*
X0000274630Y0000007150D03*
X0000274630Y0000004000D03*
X0000274630Y0000012000D03*
X0000274630Y0000015500D03*
X0000265130Y0000017000D03*
X0000269130Y0000017000D03*
X0000269130Y0000021000D03*
X0000269130Y0000025000D03*
X0000265130Y0000025000D03*
X0000279016Y0000012114D03*
X0000269130Y0000028500D03*
X0000278630Y0000045500D03*
X0000272610Y0000057980D03*
X0000269730Y0000061700D03*
X0000273730Y0000061100D03*
X0000272430Y0000064100D03*
X0000275130Y0000070614D03*
X0000270630Y0000215000D03*
X0000270630Y0000220000D03*
X0000265630Y0000225000D03*
X0000270630Y0000295000D03*
X0000270630Y0000305000D03*
X0000276380Y0000323250D03*
X0000276630Y0000327500D03*
X0000277630Y0000313000D03*
X0000277630Y0000317500D03*
X0000273630Y0000317500D03*
X0000273630Y0000313000D03*
X0000270630Y0000330000D03*
X0000270630Y0000375000D03*
X0000270630Y0000395000D03*
X0000270630Y0000385000D03*
X0000265630Y0000410000D03*
X0000265630Y0000405000D03*
X0000275630Y0000400000D03*
X0000270630Y0000425000D03*
X0000270630Y0000420000D03*
X0000270630Y0000435000D03*
X0000280630Y0000005000D03*
X0000290630Y0000005000D03*
X0000282244Y0000012000D03*
X0000296130Y0000020500D03*
X0000290630Y0000015000D03*
X0000285130Y0000026000D03*
X0000285130Y0000031500D03*
X0000284130Y0000045500D03*
X0000296122Y0000041000D03*
X0000296130Y0000031500D03*
X0000292744Y0000045500D03*
X0000285630Y0000037500D03*
X0000285130Y0000056500D03*
X0000285130Y0000062000D03*
X0000287130Y0000070614D03*
X0000297630Y0000070500D03*
X0000293630Y0000070500D03*
X0000290630Y0000115000D03*
X0000290630Y0000105000D03*
X0000284630Y0000099500D03*
X0000290130Y0000219500D03*
X0000280630Y0000210000D03*
X0000290130Y0000226000D03*
X0000290130Y0000239185D03*
X0000290130Y0000232500D03*
X0000289945Y0000250185D03*
X0000290130Y0000245185D03*
X0000290130Y0000255685D03*
X0000290130Y0000261185D03*
X0000290630Y0000291000D03*
X0000281630Y0000291000D03*
X0000290630Y0000300000D03*
X0000290630Y0000310000D03*
X0000281630Y0000300000D03*
X0000281630Y0000310000D03*
X0000288630Y0000336000D03*
X0000285630Y0000340000D03*
X0000295630Y0000340000D03*
X0000292630Y0000336000D03*
X0000290630Y0000345000D03*
X0000295630Y0000345000D03*
X0000285630Y0000350000D03*
X0000295630Y0000360000D03*
X0000280630Y0000375000D03*
X0000290630Y0000375000D03*
X0000290630Y0000395000D03*
X0000280630Y0000385000D03*
X0000285630Y0000390000D03*
X0000290630Y0000405000D03*
X0000280630Y0000405000D03*
X0000280630Y0000415000D03*
X0000290630Y0000415000D03*
X0000280630Y0000425000D03*
X0000290630Y0000425000D03*
X0000280630Y0000435000D03*
X0000290630Y0000435000D03*
X0000300630Y0000005000D03*
X0000310630Y0000005000D03*
X0000300130Y0000026000D03*
X0000310630Y0000015000D03*
X0000300630Y0000015000D03*
X0000310630Y0000025000D03*
X0000300130Y0000031500D03*
X0000308630Y0000044000D03*
X0000314130Y0000044000D03*
X0000310630Y0000035000D03*
X0000299630Y0000041000D03*
X0000299630Y0000038000D03*
X0000308630Y0000054000D03*
X0000308630Y0000049000D03*
X0000314130Y0000049000D03*
X0000312630Y0000087000D03*
X0000312630Y0000092000D03*
X0000307630Y0000092000D03*
X0000300630Y0000115000D03*
X0000307130Y0000232185D03*
X0000307130Y0000240185D03*
X0000307130Y0000225000D03*
X0000307130Y0000248000D03*
X0000307315Y0000256185D03*
X0000310630Y0000262500D03*
X0000310630Y0000268685D03*
X0000314130Y0000289000D03*
X0000300630Y0000291000D03*
X0000309630Y0000289000D03*
X0000314130Y0000294500D03*
X0000309630Y0000300000D03*
X0000314130Y0000300000D03*
X0000300630Y0000300000D03*
X0000309630Y0000294500D03*
X0000312630Y0000335000D03*
X0000312630Y0000329000D03*
X0000310630Y0000360000D03*
X0000305630Y0000350000D03*
X0000310630Y0000370000D03*
X0000300630Y0000370000D03*
X0000310630Y0000395000D03*
X0000300630Y0000395000D03*
X0000310630Y0000405000D03*
X0000300630Y0000405000D03*
X0000300630Y0000415000D03*
X0000310630Y0000415000D03*
X0000300630Y0000425000D03*
X0000310630Y0000425000D03*
X0000300630Y0000435000D03*
X0000310630Y0000435000D03*
X0000320630Y0000005000D03*
X0000320630Y0000015000D03*
X0000319630Y0000044000D03*
X0000325630Y0000044000D03*
X0000319630Y0000049000D03*
X0000325630Y0000049000D03*
X0000325630Y0000095000D03*
X0000315630Y0000095000D03*
X0000325630Y0000105000D03*
X0000322130Y0000119000D03*
X0000330130Y0000119000D03*
X0000326130Y0000119000D03*
X0000322130Y0000128000D03*
X0000326130Y0000128000D03*
X0000330130Y0000128000D03*
X0000321630Y0000142500D03*
X0000331630Y0000142500D03*
X0000331630Y0000136500D03*
X0000325130Y0000159500D03*
X0000331130Y0000159000D03*
X0000331130Y0000154500D03*
X0000330630Y0000175000D03*
X0000330630Y0000185000D03*
X0000327130Y0000171000D03*
X0000330630Y0000195000D03*
X0000330630Y0000205000D03*
X0000318630Y0000221500D03*
X0000322630Y0000221500D03*
X0000318630Y0000218000D03*
X0000322630Y0000218000D03*
X0000330630Y0000215000D03*
X0000330630Y0000250000D03*
X0000330630Y0000260000D03*
X0000329130Y0000289000D03*
X0000326130Y0000289000D03*
X0000327630Y0000286500D03*
X0000328530Y0000295800D03*
X0000318130Y0000309500D03*
X0000328630Y0000301982D03*
X0000329130Y0000308000D03*
X0000326130Y0000303378D03*
X0000326130Y0000306878D03*
X0000321130Y0000309283D03*
X0000318337Y0000313793D03*
X0000328630Y0000313793D03*
X0000318130Y0000325500D03*
X0000318327Y0000319697D03*
X0000328630Y0000325604D03*
X0000328638Y0000319697D03*
X0000325630Y0000318689D03*
X0000321130Y0000312783D03*
X0000321130Y0000321094D03*
X0000325630Y0000315189D03*
X0000321130Y0000324594D03*
X0000325630Y0000327000D03*
X0000318130Y0000331500D03*
X0000328638Y0000331508D03*
X0000330630Y0000340000D03*
X0000325630Y0000330500D03*
X0000330630Y0000360000D03*
X0000330630Y0000350000D03*
X0000320630Y0000360000D03*
X0000320630Y0000350000D03*
X0000320630Y0000370000D03*
X0000330630Y0000385000D03*
X0000330630Y0000395000D03*
X0000320630Y0000395000D03*
X0000330630Y0000405000D03*
X0000320630Y0000405000D03*
X0000320630Y0000415000D03*
X0000330630Y0000415000D03*
X0000320630Y0000425000D03*
X0000320630Y0000435000D03*
X0000335630Y0000035000D03*
X0000345630Y0000035000D03*
X0000335630Y0000050000D03*
X0000345630Y0000050000D03*
X0000345630Y0000060000D03*
X0000335630Y0000060000D03*
X0000335630Y0000070000D03*
X0000345630Y0000070000D03*
X0000335630Y0000085000D03*
X0000345630Y0000085000D03*
X0000345630Y0000095000D03*
X0000335630Y0000095000D03*
X0000345630Y0000105000D03*
X0000335630Y0000105000D03*
X0000345630Y0000115000D03*
X0000333630Y0000119000D03*
X0000349130Y0000125215D03*
X0000342130Y0000142000D03*
X0000338630Y0000147500D03*
X0000338630Y0000142000D03*
X0000342130Y0000147500D03*
X0000338630Y0000136500D03*
X0000349486Y0000142144D03*
X0000349549Y0000137419D03*
X0000349400Y0000149230D03*
X0000342130Y0000136500D03*
X0000349630Y0000160500D03*
X0000349630Y0000163500D03*
X0000342130Y0000159000D03*
X0000342130Y0000153000D03*
X0000338630Y0000159000D03*
X0000348789Y0000166159D03*
X0000341630Y0000166159D03*
X0000349630Y0000155000D03*
X0000349530Y0000157800D03*
X0000338630Y0000153000D03*
X0000350630Y0000175000D03*
X0000340630Y0000175000D03*
X0000340630Y0000185000D03*
X0000350630Y0000185000D03*
X0000340630Y0000195000D03*
X0000350630Y0000195000D03*
X0000340630Y0000205000D03*
X0000350630Y0000205000D03*
X0000340630Y0000215000D03*
X0000350630Y0000215000D03*
X0000350630Y0000225000D03*
X0000350630Y0000235000D03*
X0000340630Y0000235000D03*
X0000340630Y0000245000D03*
X0000350630Y0000245000D03*
X0000350630Y0000260000D03*
X0000340630Y0000260000D03*
X0000350630Y0000270000D03*
X0000340630Y0000270000D03*
X0000350630Y0000280000D03*
X0000350630Y0000290000D03*
X0000350630Y0000300000D03*
X0000350630Y0000310000D03*
X0000350630Y0000320000D03*
X0000350630Y0000330000D03*
X0000340630Y0000330000D03*
X0000350630Y0000340000D03*
X0000350630Y0000350000D03*
X0000340630Y0000350000D03*
X0000350630Y0000360000D03*
X0000340630Y0000360000D03*
X0000350630Y0000375000D03*
X0000340630Y0000375000D03*
X0000340630Y0000385000D03*
X0000350630Y0000385000D03*
X0000340630Y0000405000D03*
X0000350630Y0000405000D03*
X0000340630Y0000415000D03*
X0000350630Y0000415000D03*
X0000350630Y0000425000D03*
G54D12*
X0000006224Y0000250664D03*
X0000006224Y0000284679D03*
X0000021185Y0000250664D03*
X0000021185Y0000284679D03*
G54D13*
X0000007912Y0000321568D03*
X0000007912Y0000345977D03*
X0000021141Y0000321568D03*
X0000021141Y0000345977D03*
G54D14*
X0000009500Y0000382158D03*
X0000009500Y0000401843D03*
G54D15*
X0000043670Y0000160822D03*
X0000043670Y0000212397D03*
G54D16*
X0000048000Y0000172829D03*
G54D17*
X0000048000Y0000182672D03*
X0000048000Y0000190546D03*
X0000048000Y0000200389D03*
G54D18*
X0000166929Y0000361811D03*
X0000273228Y0000109055D03*
X0000273228Y0000351575D03*
M02*
