M48
INCH
T01C.00001
;EXTENTS: -21.971 -20.601 23.399  23.675  
;LEADER: 12 
;HEADER: 
;CODE  : ASCII 
;FILE  : C:/Users/rock/Documents/Work/ZHG/CutiePi_V1_2/CutiePi_V1_2_1-6.rou for board C:/Users/rock/Documents/Work/ZHG/CutiePi_V1_2/#Taaaabd08276.tmp, layers TOP to BOTTOM
%
G90
F1
M16
T01
M16
G00X0000012217Y0000401074
G41
M15
G03X0000014579Y0000401074A0000001181
G01X0000014579Y0000401861
G03X0000012217Y0000401861A0000001181
G01X0000012217Y0000401074
M16
G00X0000012217Y0000381389
G41
M15
G03X0000014579Y0000381389A0000001181
G01X0000014579Y0000382176
G03X0000012217Y0000382176A0000001181
G01X0000012217Y0000381389
M16
G00X0000016529Y0000347146
G41
M15
G03X0000016529Y0000344587A0000001280
G01X0000020663Y0000344587
G03X0000020663Y0000347146A0000001280
G01X0000016529Y0000347146
M16
G00X0000016529Y0000322737
G41
M15
G03X0000016529Y0000320178A0000001280
G01X0000020663Y0000320178
G03X0000020663Y0000322737A0000001280
G01X0000016529Y0000322737
M16
G00X0000003301Y0000347146
G41
M15
G03X0000003301Y0000344587A0000001280
G01X0000007435Y0000344587
G03X0000007435Y0000347146A0000001280
G01X0000003301Y0000347146
M16
G00X0000003301Y0000322737
G41
M15
G03X0000003301Y0000320178A0000001280
G01X0000007435Y0000320178
G03X0000007435Y0000322737A0000001280
G01X0000003301Y0000322737
M16
G00X0000020004Y0000285860
G41
M15
G03X0000020004Y0000283498A0000001181
G01X0000022366Y0000283498
G03X0000022366Y0000285860A0000001181
G01X0000020004Y0000285860
M16
G00X0000020004Y0000251845
G41
M15
G03X0000020004Y0000249482A0000001181
G01X0000022366Y0000249482
G03X0000022366Y0000251845A0000001181
G01X0000020004Y0000251845
M16
G00X0000005043Y0000285860
G41
M15
G03X0000005043Y0000283498A0000001181
G01X0000007406Y0000283498
G03X0000007406Y0000285860A0000001181
G01X0000005043Y0000285860
M16
G00X0000005043Y0000251845
G41
M15
G03X0000005043Y0000249482A0000001181
G01X0000007406Y0000249482
G03X0000007406Y0000251845A0000001181
G01X0000005043Y0000251845
M16
G40
M30
