M48
INCH
T01C.01
T02C.04
T03C.078
T04C.043311
T05C.062988
T06C.094488
T07C.133858
;LEADER: 12 
;HEADER: 
;CODE  : ASCII 
;FILE  : CutiePi_V1_2-1-6.drl for board C:/Users/rock/Documents/Work/ZHG/CutiePi_V1_2/#Taaaaax08276.tmp ... layers TOP and BOTTOM
;T01 Holesize 1. = 10.000000 Tolerance = +0.000000/-0.000000 PLATED MILS Quantity = 1308
;T02 Holesize 2. = 40.000000 Tolerance = +0.000000/-0.000000 PLATED MILS Quantity = 4
;T03 Holesize 3. = 78.000000 Tolerance = +0.000000/-0.000000 PLATED MILS Quantity = 2
;T04 Holesize 4. = 43.311000 Tolerance = +0.000000/-0.000000 NON_PLATED MILS Quantity = 1
;T05 Holesize 5. = 62.988000 Tolerance = +0.000000/-0.000000 NON_PLATED MILS Quantity = 1
;T06 Holesize 6. = 94.488000 Tolerance = +0.000000/-0.000000 NON_PLATED MILS Quantity = 2
;T07 Holesize 7. = 133.858000 Tolerance = +0.000000/-0.000000 NON_PLATED MILS Quantity = 4
%
G90
T01
X0000005630Y0000035000
X0000015630Y0000035000
X0000005630Y0000055000
X0000015630Y0000055000
X0000005630Y0000065000
X0000015630Y0000065000
X0000014130Y0000074500
X0000005630Y0000075000
X0000014130Y0000084500
X0000005630Y0000085000
X0000006500Y0000091500
X0000015000Y0000092500
X0000016000Y0000098500
X0000005630Y0000105000
X0000015630Y0000105000
X0000005630Y0000113500
X0000015630Y0000113500
X0000005630Y0000125000
X0000015630Y0000125000
X0000005630Y0000135000
X0000015630Y0000135000
X0000005630Y0000145000
X0000015630Y0000145000
X0000005630Y0000155000
X0000004130Y0000218000
X0000009630Y0000218000
X0000005630Y0000225000
X0000015630Y0000225000
X0000005630Y0000235000
X0000015630Y0000235000
X0000005630Y0000245000
X0000015630Y0000245000
X0000012000Y0000257500
X0000005630Y0000260000
X0000011000Y0000265500
X0000005630Y0000270000
X0000011000Y0000276000
X0000005630Y0000280000
X0000015630Y0000280000
X0000005630Y0000295000
X0000015630Y0000295000
X0000005630Y0000305000
X0000015630Y0000305000
X0000005630Y0000315000
X0000015630Y0000315000
X0000014500Y0000328500
X0000011130Y0000329853
X0000005630Y0000330000
X0000011130Y0000332853
X0000014000Y0000334000
X0000011130Y0000335784
X0000011130Y0000338784
X0000005630Y0000340000
X0000014000Y0000340000
X0000012000Y0000342000
X0000005630Y0000355000
X0000015630Y0000355000
X0000005630Y0000365000
X0000015630Y0000365000
X0000005630Y0000375000
X0000015630Y0000375000
X0000005630Y0000386500
X0000015630Y0000386500
X0000005630Y0000395000
X0000015630Y0000395000
X0000005000Y0000407000
X0000015500Y0000407000
X0000005630Y0000415000
X0000015630Y0000415000
X0000005630Y0000425000
X0000035130Y0000425000
X0000025630Y0000425000
X0000035630Y0000415000
X0000025630Y0000415000
X0000035630Y0000405000
X0000025630Y0000405000
X0000027000Y0000401468
X0000027000Y0000395000
X0000023500Y0000395000
X0000033630Y0000387000
X0000023630Y0000387000
X0000033130Y0000381000
X0000035630Y0000375000
X0000025630Y0000375000
X0000035630Y0000365000
X0000025630Y0000365000
X0000035630Y0000355000
X0000025630Y0000355000
X0000035500Y0000350500
X0000032614Y0000349886
X0000038886Y0000349614
X0000037500Y0000342000
X0000029500Y0000337500
X0000032300Y0000336205
X0000032300Y0000333205
X0000029500Y0000331000
X0000032307Y0000329578
X0000032307Y0000326577
X0000029500Y0000325500
X0000039000Y0000323000
X0000025630Y0000315000
X0000031500Y0000305000
X0000025630Y0000305000
X0000035630Y0000295000
X0000025630Y0000295000
X0000035630Y0000285000
X0000037130Y0000270000
X0000037130Y0000265000
X0000035500Y0000261000
X0000028000Y0000261000
X0000035630Y0000255000
X0000025630Y0000255000
X0000033000Y0000250000
X0000035630Y0000245000
X0000025630Y0000245000
X0000035630Y0000240000
X0000035630Y0000235000
X0000025630Y0000235000
X0000035630Y0000230000
X0000035630Y0000225000
X0000025630Y0000225000
X0000026130Y0000217500
X0000035630Y0000155000
X0000025630Y0000155000
X0000035630Y0000145000
X0000025630Y0000145000
X0000025630Y0000135000
X0000025630Y0000125000
X0000025630Y0000113500
X0000025630Y0000105000
X0000025500Y0000099000
X0000026495Y0000093505
X0000026568Y0000089568
X0000025630Y0000065000
X0000025630Y0000055000
X0000035630Y0000045000
X0000025630Y0000045000
X0000035630Y0000035000
X0000025630Y0000035000
X0000035630Y0000025000
X0000035630Y0000015000
X0000035630Y0000005000
X0000045630Y0000005000
X0000053130Y0000005000
X0000045630Y0000015000
X0000053130Y0000015000
X0000045630Y0000025000
X0000053130Y0000025000
X0000045630Y0000035000
X0000055630Y0000055000
X0000049500Y0000060000
X0000053500Y0000062500
X0000047500Y0000067500
X0000055000Y0000072500
X0000046500Y0000076500
X0000052000Y0000076500
X0000046500Y0000083000
X0000055500Y0000083500
X0000046500Y0000090000
X0000057500Y0000090000
X0000040630Y0000175000
X0000053500Y0000179500
X0000057000Y0000179500
X0000053500Y0000182500
X0000056500Y0000182500
X0000040630Y0000185000
X0000040630Y0000195000
X0000040630Y0000205000
X0000040630Y0000220000
X0000043000Y0000225500
X0000040630Y0000230000
X0000040630Y0000235000
X0000048630Y0000251500
X0000052630Y0000251500
X0000048630Y0000255500
X0000052630Y0000255500
X0000045630Y0000311000
X0000049630Y0000311000
X0000045630Y0000315500
X0000049630Y0000315500
X0000049000Y0000324500
X0000053500Y0000324500
X0000044500Y0000337500
X0000057000Y0000340000
X0000045000Y0000346000
X0000051500Y0000346000
X0000041630Y0000355000
X0000041630Y0000365000
X0000041130Y0000372000
X0000040630Y0000381000
X0000045630Y0000405000
X0000055630Y0000405000
X0000045630Y0000415000
X0000055630Y0000415000
X0000045130Y0000425000
X0000055130Y0000425000
X0000075130Y0000425000
X0000065130Y0000425000
X0000075630Y0000415000
X0000065630Y0000415000
X0000075630Y0000405000
X0000065630Y0000405000
X0000067630Y0000384000
X0000067600Y0000380500
X0000073630Y0000378500
X0000061130Y0000372000
X0000064130Y0000368000
X0000069130Y0000364000
X0000061130Y0000364000
X0000069130Y0000359000
X0000064130Y0000359000
X0000067744Y0000352114
X0000060900Y0000349900
X0000067744Y0000348886
X0000064700Y0000347900
X0000060500Y0000340000
X0000073630Y0000327000
X0000067630Y0000327000
X0000073630Y0000319500
X0000068130Y0000319500
X0000073630Y0000311500
X0000074100Y0000301800
X0000069130Y0000298500
X0000069130Y0000292000
X0000079638Y0000280992
X0000077744Y0000274386
X0000075000Y0000242600
X0000076400Y0000240200
X0000073600Y0000240200
X0000060630Y0000225500
X0000069000Y0000218500
X0000065000Y0000218500
X0000075130Y0000217500
X0000069000Y0000214500
X0000065000Y0000214500
X0000075000Y0000202500
X0000071000Y0000202500
X0000075000Y0000198500
X0000071000Y0000198500
X0000065000Y0000196000
X0000061750Y0000195880
X0000065130Y0000178000
X0000062130Y0000178000
X0000070130Y0000132000
X0000070130Y0000126500
X0000074630Y0000117500
X0000067630Y0000117500
X0000076000Y0000112000
X0000067000Y0000112000
X0000066630Y0000104000
X0000073130Y0000099000
X0000066630Y0000099000
X0000073130Y0000095000
X0000066630Y0000095000
X0000066630Y0000090000
X0000075630Y0000076500
X0000071130Y0000076500
X0000066630Y0000076500
X0000075630Y0000072500
X0000071130Y0000072500
X0000066630Y0000072500
X0000060630Y0000070000
X0000079000Y0000067000
X0000061000Y0000065000
X0000071886Y0000063500
X0000060630Y0000060000
X0000075630Y0000051000
X0000065630Y0000051000
X0000075630Y0000045000
X0000065630Y0000045000
X0000078000Y0000027500
X0000075630Y0000005000
X0000070630Y0000005000
X0000065630Y0000005000
X0000096500Y0000022000
X0000081500Y0000031000
X0000096500Y0000031500
X0000085630Y0000045000
X0000095630Y0000045000
X0000085630Y0000051000
X0000098630Y0000076000
X0000098630Y0000086500
X0000099130Y0000097500
X0000094130Y0000102500
X0000083130Y0000108000
X0000090130Y0000108000
X0000094130Y0000108000
X0000086630Y0000110000
X0000083130Y0000112000
X0000090130Y0000112000
X0000099630Y0000117500
X0000099630Y0000122500
X0000088000Y0000158000
X0000093630Y0000158000
X0000090790Y0000188340
X0000097930Y0000189000
X0000090630Y0000192000
X0000083500Y0000193000
X0000097930Y0000193000
X0000097930Y0000197500
X0000093130Y0000222500
X0000097630Y0000222500
X0000084130Y0000232000
X0000084130Y0000236000
X0000087630Y0000236000
X0000093108Y0000236000
X0000095667Y0000238537
X0000090549Y0000238581
X0000084130Y0000240000
X0000084130Y0000258000
X0000084130Y0000271000
X0000090549Y0000271000
X0000089130Y0000281500
X0000093130Y0000281500
X0000099130Y0000281500
X0000083130Y0000284500
X0000093130Y0000285500
X0000095130Y0000298000
X0000095130Y0000301000
X0000089630Y0000301500
X0000098567Y0000323437
X0000093130Y0000328000
X0000098630Y0000328000
X0000083630Y0000337000
X0000095630Y0000337000
X0000087000Y0000349000
X0000095500Y0000349000
X0000092500Y0000355500
X0000085630Y0000357500
X0000085630Y0000361000
X0000085630Y0000365000
X0000090630Y0000365000
X0000090630Y0000372500
X0000085630Y0000372693
X0000086000Y0000382500
X0000092000Y0000382500
X0000098630Y0000395000
X0000096630Y0000400000
X0000087630Y0000401500
X0000091630Y0000401500
X0000085630Y0000405000
X0000095630Y0000405000
X0000085630Y0000415000
X0000095630Y0000415000
X0000085130Y0000425000
X0000095130Y0000425000
X0000105130Y0000425000
X0000111630Y0000422500
X0000105630Y0000415000
X0000111630Y0000414500
X0000111630Y0000409000
X0000109630Y0000405000
X0000105630Y0000405000
X0000111630Y0000400500
X0000106630Y0000400000
X0000111700Y0000396300
X0000108630Y0000395000
X0000115630Y0000382000
X0000111630Y0000382000
X0000107500Y0000382000
X0000118630Y0000361500
X0000113130Y0000361500
X0000105630Y0000361500
X0000101130Y0000361500
X0000107500Y0000357000
X0000100500Y0000355500
X0000119630Y0000354000
X0000113130Y0000354000
X0000117630Y0000350500
X0000113130Y0000350000
X0000107000Y0000348500
X0000102044Y0000337086
X0000119760Y0000337000
X0000112673Y0000337000
X0000117000Y0000334000
X0000118400Y0000306900
X0000114000Y0000294500
X0000119389Y0000289000
X0000101496Y0000286866
X0000104016Y0000278500
X0000119130Y0000275500
X0000100785Y0000238500
X0000116630Y0000231000
X0000116630Y0000227000
X0000102630Y0000226500
X0000102630Y0000222500
X0000118500Y0000221500
X0000113630Y0000221500
X0000115000Y0000217500
X0000119000Y0000213500
X0000106744Y0000212886
X0000103516Y0000212886
X0000106130Y0000197500
X0000101630Y0000197500
X0000106130Y0000193000
X0000101630Y0000193000
X0000106130Y0000189000
X0000101630Y0000189000
X0000105630Y0000180000
X0000103630Y0000178500
X0000105630Y0000175000
X0000108130Y0000136500
X0000108630Y0000131000
X0000113130Y0000126500
X0000108630Y0000126500
X0000113130Y0000122500
X0000108630Y0000122500
X0000104130Y0000122500
X0000113130Y0000117500
X0000108630Y0000117500
X0000104130Y0000117500
X0000113130Y0000113000
X0000108630Y0000113000
X0000104130Y0000113000
X0000119130Y0000111500
X0000104130Y0000105500
X0000104130Y0000102000
X0000104130Y0000097500
X0000104130Y0000086500
X0000109630Y0000076000
X0000117130Y0000056500
X0000117130Y0000052500
X0000118500Y0000032000
X0000113000Y0000032000
X0000107000Y0000031500
X0000101500Y0000031500
X0000115500Y0000029500
X0000110500Y0000029000
X0000107000Y0000022000
X0000101500Y0000022000
X0000117630Y0000018500
X0000109630Y0000018500
X0000102630Y0000018500
X0000117630Y0000014500
X0000109630Y0000014500
X0000102630Y0000014500
X0000124130Y0000014500
X0000135130Y0000014500
X0000124130Y0000018500
X0000135130Y0000018500
X0000130000Y0000019500
X0000120508Y0000021508
X0000135130Y0000023500
X0000139000Y0000026000
X0000131630Y0000028000
X0000131500Y0000031500
X0000123000Y0000032000
X0000121130Y0000052500
X0000125130Y0000052500
X0000121130Y0000056500
X0000125130Y0000056500
X0000121130Y0000081500
X0000125130Y0000081500
X0000121130Y0000085500
X0000125130Y0000085500
X0000120630Y0000090500
X0000120630Y0000095000
X0000120630Y0000099500
X0000124630Y0000099500
X0000138130Y0000101000
X0000120630Y0000103500
X0000124630Y0000103500
X0000138130Y0000105000
X0000120630Y0000108500
X0000120630Y0000118000
X0000120630Y0000123000
X0000138130Y0000127500
X0000138130Y0000131000
X0000125630Y0000165000
X0000130630Y0000165000
X0000130630Y0000170000
X0000123630Y0000184000
X0000123630Y0000188500
X0000123630Y0000192700
X0000127901Y0000195609
X0000131819Y0000195609
X0000123630Y0000197700
X0000127000Y0000198500
X0000133000Y0000198500
X0000123630Y0000202700
X0000139400Y0000208400
X0000120401Y0000210500
X0000124319Y0000210500
X0000137150Y0000210650
X0000133700Y0000210700
X0000125500Y0000213500
X0000132500Y0000213500
X0000136401Y0000219179
X0000135500Y0000222000
X0000121130Y0000227000
X0000121130Y0000231000
X0000124516Y0000252886
X0000124516Y0000264114
X0000126130Y0000297114
X0000139630Y0000300500
X0000139630Y0000303000
X0000126130Y0000306386
X0000125630Y0000325000
X0000120630Y0000330000
X0000125630Y0000330000
X0000130630Y0000335000
X0000135630Y0000335000
X0000130630Y0000340000
X0000135500Y0000340000
X0000131000Y0000345500
X0000135500Y0000345500
X0000130630Y0000350000
X0000136130Y0000351000
X0000130130Y0000354976
X0000136000Y0000356000
X0000130130Y0000362000
X0000120130Y0000382000
X0000130630Y0000396000
X0000120600Y0000396200
X0000120630Y0000400500
X0000120630Y0000405000
X0000130630Y0000405000
X0000120630Y0000410000
X0000120630Y0000415000
X0000130630Y0000415000
X0000120630Y0000420000
X0000130630Y0000425000
X0000150630Y0000425000
X0000140630Y0000425000
X0000150630Y0000415000
X0000140630Y0000415000
X0000150630Y0000405000
X0000140630Y0000405000
X0000148500Y0000397000
X0000140630Y0000396000
X0000144630Y0000362500
X0000140130Y0000362500
X0000144630Y0000358000
X0000140130Y0000358000
X0000144709Y0000354921
X0000157130Y0000352559
X0000144795Y0000347835
X0000157130Y0000345472
X0000141000Y0000345000
X0000144882Y0000340748
X0000140630Y0000338500
X0000157130Y0000338386
X0000144969Y0000333661
X0000157331Y0000331299
X0000140630Y0000330000
X0000145130Y0000328937
X0000157130Y0000326000
X0000145130Y0000324213
X0000140130Y0000324000
X0000157130Y0000321500
X0000140130Y0000317126
X0000157032Y0000312402
X0000157500Y0000304000
X0000157500Y0000299000
X0000157488Y0000291142
X0000144000Y0000286417
X0000157630Y0000284500
X0000157630Y0000279331
X0000157683Y0000274553
X0000157630Y0000269882
X0000157630Y0000262795
X0000157630Y0000258071
X0000157630Y0000255000
X0000157630Y0000251000
X0000157528Y0000243898
X0000157630Y0000241000
X0000157630Y0000238000
X0000157579Y0000234449
X0000157630Y0000227362
X0000141500Y0000222000
X0000157500Y0000220276
X0000140319Y0000219179
X0000157500Y0000213189
X0000157500Y0000206102
X0000157130Y0000199016
X0000157130Y0000191929
X0000158130Y0000177756
X0000140500Y0000175000
X0000158130Y0000170669
X0000140500Y0000170000
X0000140500Y0000165000
X0000158130Y0000163583
X0000140500Y0000160000
X0000158130Y0000156496
X0000140500Y0000155000
X0000158130Y0000149409
X0000157130Y0000142323
X0000157130Y0000137598
X0000142130Y0000131000
X0000157030Y0000129300
X0000142130Y0000127500
X0000157130Y0000121063
X0000158130Y0000110000
X0000142130Y0000105000
X0000142130Y0000101000
X0000159500Y0000099000
X0000156630Y0000078500
X0000152630Y0000078500
X0000156630Y0000074500
X0000152630Y0000074500
X0000156630Y0000070500
X0000152630Y0000070500
X0000152500Y0000063500
X0000144000Y0000023500
X0000149000Y0000019000
X0000140130Y0000018500
X0000154500Y0000015000
X0000145130Y0000014500
X0000140130Y0000014500
X0000176630Y0000065500
X0000163130Y0000071000
X0000166630Y0000071000
X0000176630Y0000071000
X0000176630Y0000075000
X0000176630Y0000078500
X0000174130Y0000087000
X0000178630Y0000087000
X0000175500Y0000099000
X0000163630Y0000110000
X0000169630Y0000110000
X0000176030Y0000110200
X0000177130Y0000128500
X0000161130Y0000137500
X0000165630Y0000140000
X0000170630Y0000140000
X0000175630Y0000140000
X0000161130Y0000142000
X0000165630Y0000145000
X0000170630Y0000145000
X0000175630Y0000145000
X0000162130Y0000149500
X0000170630Y0000149500
X0000175630Y0000149500
X0000165630Y0000151500
X0000165630Y0000154500
X0000168630Y0000156500
X0000175630Y0000156500
X0000160630Y0000158500
X0000160630Y0000161500
X0000168630Y0000163500
X0000175630Y0000163500
X0000165630Y0000165673
X0000165630Y0000168673
X0000168630Y0000170500
X0000175630Y0000170500
X0000160630Y0000172500
X0000160630Y0000175500
X0000168630Y0000178000
X0000175630Y0000178000
X0000163130Y0000179846
X0000163130Y0000182846
X0000165302Y0000185172
X0000172630Y0000185500
X0000172630Y0000192500
X0000162000Y0000251000
X0000162130Y0000258000
X0000162130Y0000263000
X0000175130Y0000265000
X0000162130Y0000269500
X0000162130Y0000274500
X0000162130Y0000279500
X0000166630Y0000279500
X0000162130Y0000284500
X0000166630Y0000284500
X0000170500Y0000288780
X0000170500Y0000298000
X0000170500Y0000304500
X0000166500Y0000312500
X0000176386Y0000327756
X0000170630Y0000330000
X0000176571Y0000331059
X0000161630Y0000331500
X0000173000Y0000332000
X0000161630Y0000338500
X0000177197Y0000339567
X0000170630Y0000340000
X0000161630Y0000345500
X0000176976Y0000346654
X0000176630Y0000383500
X0000164130Y0000385000
X0000176630Y0000387500
X0000170500Y0000390800
X0000176300Y0000397100
X0000160630Y0000415000
X0000160630Y0000425000
X0000170630Y0000425000
X0000170630Y0000435000
X0000170630Y0000445000
X0000190630Y0000445000
X0000180630Y0000445000
X0000190630Y0000435000
X0000180630Y0000435000
X0000198630Y0000410500
X0000194630Y0000410500
X0000190630Y0000410000
X0000183400Y0000403900
X0000190630Y0000395000
X0000185630Y0000390000
X0000180630Y0000387500
X0000190630Y0000385000
X0000180630Y0000383500
X0000190630Y0000380000
X0000194130Y0000342000
X0000189559Y0000341929
X0000189630Y0000337205
X0000193630Y0000332500
X0000189610Y0000332480
X0000189524Y0000325394
X0000194130Y0000316000
X0000189630Y0000315945
X0000189909Y0000311221
X0000194630Y0000311000
X0000190500Y0000304000
X0000199000Y0000298500
X0000195630Y0000295000
X0000189591Y0000289961
X0000194500Y0000289500
X0000189630Y0000284500
X0000194630Y0000280500
X0000189618Y0000280512
X0000189417Y0000275787
X0000194130Y0000275500
X0000189567Y0000271063
X0000194130Y0000271000
X0000194400Y0000266300
X0000189630Y0000266339
X0000199000Y0000262500
X0000189516Y0000261614
X0000194130Y0000261500
X0000199130Y0000254500
X0000194130Y0000254500
X0000189130Y0000254528
X0000192500Y0000247500
X0000189071Y0000247441
X0000189630Y0000241000
X0000189228Y0000233268
X0000193000Y0000233000
X0000189228Y0000226181
X0000199130Y0000221000
X0000189228Y0000219095
X0000199630Y0000213500
X0000189228Y0000212008
X0000199500Y0000205500
X0000189228Y0000204921
X0000189228Y0000197835
X0000189000Y0000191000
X0000189130Y0000183661
X0000189055Y0000176575
X0000189118Y0000169488
X0000189032Y0000162402
X0000192630Y0000155000
X0000198630Y0000149000
X0000189228Y0000148228
X0000189228Y0000141142
X0000199630Y0000139000
X0000189630Y0000138000
X0000194630Y0000127000
X0000189630Y0000127000
X0000190130Y0000119500
X0000187630Y0000071000
X0000182630Y0000071000
X0000188130Y0000062500
X0000183130Y0000062500
X0000188130Y0000057500
X0000183130Y0000057500
X0000195630Y0000056000
X0000191630Y0000052500
X0000188130Y0000052500
X0000195630Y0000051000
X0000188130Y0000036500
X0000195630Y0000032500
X0000190630Y0000032500
X0000185630Y0000032500
X0000181630Y0000032500
X0000195630Y0000028000
X0000203630Y0000017000
X0000207630Y0000017000
X0000211630Y0000017000
X0000203630Y0000021000
X0000207630Y0000021000
X0000211630Y0000021000
X0000200630Y0000028000
X0000205630Y0000028000
X0000210630Y0000028000
X0000200630Y0000032500
X0000205630Y0000032500
X0000210630Y0000032500
X0000205630Y0000037500
X0000210630Y0000037500
X0000210630Y0000044000
X0000215630Y0000044000
X0000210630Y0000048000
X0000215630Y0000048000
X0000210630Y0000052500
X0000215630Y0000052500
X0000210630Y0000057500
X0000215630Y0000057500
X0000205630Y0000140000
X0000200630Y0000145000
X0000210630Y0000145000
X0000207500Y0000150000
X0000218500Y0000150000
X0000200630Y0000155000
X0000210630Y0000155000
X0000200630Y0000165000
X0000210630Y0000165000
X0000200630Y0000175000
X0000210630Y0000175000
X0000200630Y0000185000
X0000210630Y0000185000
X0000200630Y0000195000
X0000210630Y0000195000
X0000211630Y0000199399
X0000208630Y0000199500
X0000202100Y0000199600
X0000202130Y0000203000
X0000211630Y0000203352
X0000208630Y0000203500
X0000205500Y0000212500
X0000210704Y0000215400
X0000201704Y0000215500
X0000207704Y0000215500
X0000210704Y0000219352
X0000201704Y0000219500
X0000207704Y0000219500
X0000202630Y0000241500
X0000202630Y0000247500
X0000205130Y0000254500
X0000210630Y0000265000
X0000205500Y0000269000
X0000212000Y0000275500
X0000200630Y0000365000
X0000200630Y0000375000
X0000211630Y0000375000
X0000200630Y0000385000
X0000211630Y0000385000
X0000208630Y0000390500
X0000200630Y0000395000
X0000208630Y0000396500
X0000208630Y0000404500
X0000200630Y0000405000
X0000207630Y0000422500
X0000211630Y0000422500
X0000200630Y0000435000
X0000210630Y0000435000
X0000200630Y0000445000
X0000210630Y0000445000
X0000230630Y0000445000
X0000220630Y0000445000
X0000230630Y0000435000
X0000220630Y0000435000
X0000230630Y0000385000
X0000220630Y0000385000
X0000230630Y0000375000
X0000220630Y0000375000
X0000230630Y0000365000
X0000230630Y0000330000
X0000220630Y0000330000
X0000230630Y0000315000
X0000220630Y0000315000
X0000230630Y0000305000
X0000220630Y0000305000
X0000230630Y0000295000
X0000220630Y0000295000
X0000230630Y0000285000
X0000220630Y0000285000
X0000230630Y0000275000
X0000220630Y0000275000
X0000230630Y0000265000
X0000220630Y0000265000
X0000225630Y0000221000
X0000222630Y0000220000
X0000222630Y0000216048
X0000225630Y0000215000
X0000230630Y0000195000
X0000220630Y0000195000
X0000230630Y0000185000
X0000220630Y0000185000
X0000230630Y0000175000
X0000220630Y0000175000
X0000230630Y0000165000
X0000220630Y0000165000
X0000220630Y0000155000
X0000235630Y0000109000
X0000235630Y0000100000
X0000238630Y0000081114
X0000220630Y0000057500
X0000232687Y0000055557
X0000237630Y0000055500
X0000220630Y0000052500
X0000227630Y0000052000
X0000232687Y0000050557
X0000237630Y0000050500
X0000227630Y0000047500
X0000233130Y0000045500
X0000227630Y0000042000
X0000237630Y0000036000
X0000233630Y0000036000
X0000227630Y0000036000
X0000233130Y0000029500
X0000227630Y0000029500
X0000233130Y0000023000
X0000227630Y0000023000
X0000233130Y0000019000
X0000227630Y0000019000
X0000235630Y0000007150
X0000231630Y0000007150
X0000227630Y0000007150
X0000235630Y0000004000
X0000231630Y0000004000
X0000227630Y0000004000
X0000241630Y0000004000
X0000245630Y0000004000
X0000249630Y0000004000
X0000254130Y0000004000
X0000258130Y0000004000
X0000241630Y0000007150
X0000245630Y0000007150
X0000249630Y0000007150
X0000254130Y0000007150
X0000258130Y0000007150
X0000248630Y0000044200
X0000251630Y0000044200
X0000248630Y0000047000
X0000251630Y0000047000
X0000250630Y0000100000
X0000243630Y0000109500
X0000256130Y0000110500
X0000243630Y0000118000
X0000252630Y0000118500
X0000240630Y0000175000
X0000250630Y0000180000
X0000240630Y0000185000
X0000240630Y0000275000
X0000240630Y0000285000
X0000250630Y0000285000
X0000240630Y0000295000
X0000250630Y0000295000
X0000240630Y0000305000
X0000250630Y0000305000
X0000240630Y0000315000
X0000250630Y0000315000
X0000240630Y0000330000
X0000250630Y0000330000
X0000240630Y0000350000
X0000250630Y0000350000
X0000250630Y0000360000
X0000240630Y0000375000
X0000250630Y0000375000
X0000240630Y0000385000
X0000250630Y0000385000
X0000256630Y0000406500
X0000256630Y0000410500
X0000253130Y0000420000
X0000253130Y0000425000
X0000240630Y0000435000
X0000250630Y0000435000
X0000240630Y0000445000
X0000250630Y0000445000
X0000270630Y0000445000
X0000260630Y0000445000
X0000270630Y0000435000
X0000260630Y0000435000
X0000270630Y0000425000
X0000260630Y0000425000
X0000270630Y0000420000
X0000260630Y0000420000
X0000265630Y0000410000
X0000260630Y0000410000
X0000265630Y0000405000
X0000260630Y0000405000
X0000275630Y0000400000
X0000270630Y0000395000
X0000260630Y0000395000
X0000270630Y0000385000
X0000260630Y0000385000
X0000270630Y0000375000
X0000260630Y0000375000
X0000260630Y0000360000
X0000260630Y0000350000
X0000260630Y0000330000
X0000278500Y0000329500
X0000274700Y0000329500
X0000271000Y0000329500
X0000278000Y0000323000
X0000278000Y0000316000
X0000260630Y0000315000
X0000270630Y0000305000
X0000260630Y0000305000
X0000270630Y0000295000
X0000260630Y0000295000
X0000265630Y0000225000
X0000260630Y0000225000
X0000270630Y0000220000
X0000270630Y0000215000
X0000260630Y0000100000
X0000275130Y0000070614
X0000272430Y0000064100
X0000269730Y0000061700
X0000273730Y0000061100
X0000272610Y0000057980
X0000266500Y0000054000
X0000266500Y0000050500
X0000266500Y0000047000
X0000278630Y0000045500
X0000269130Y0000028500
X0000269130Y0000025000
X0000265130Y0000025000
X0000269130Y0000021000
X0000269130Y0000017000
X0000265130Y0000017000
X0000274630Y0000015500
X0000279016Y0000012114
X0000274630Y0000012000
X0000274630Y0000007150
X0000270630Y0000007150
X0000266630Y0000007150
X0000262130Y0000007150
X0000274630Y0000004000
X0000270630Y0000004000
X0000266630Y0000004000
X0000262130Y0000004000
X0000280630Y0000005000
X0000290630Y0000005000
X0000282244Y0000012000
X0000290630Y0000015000
X0000296130Y0000020500
X0000285130Y0000026000
X0000285200Y0000031100
X0000296100Y0000031300
X0000285630Y0000037500
X0000299630Y0000038000
X0000295500Y0000039800
X0000299630Y0000041000
X0000299600Y0000043800
X0000284130Y0000045500
X0000292744Y0000045500
X0000285130Y0000056500
X0000285130Y0000062000
X0000288000Y0000066000
X0000293630Y0000070500
X0000297630Y0000070500
X0000287130Y0000070614
X0000284630Y0000099500
X0000290630Y0000105000
X0000290630Y0000115000
X0000280630Y0000210000
X0000290130Y0000219500
X0000290130Y0000226000
X0000290130Y0000232500
X0000290130Y0000239185
X0000290130Y0000245185
X0000289945Y0000250185
X0000290130Y0000255685
X0000281630Y0000291000
X0000290630Y0000291000
X0000281630Y0000300000
X0000290630Y0000300000
X0000281630Y0000310000
X0000290630Y0000310000
X0000285630Y0000340000
X0000295630Y0000340000
X0000290630Y0000345000
X0000295630Y0000345000
X0000285630Y0000350000
X0000295630Y0000360000
X0000280630Y0000375000
X0000290630Y0000375000
X0000299130Y0000382500
X0000280630Y0000385000
X0000285630Y0000390000
X0000290630Y0000395000
X0000280630Y0000405000
X0000290630Y0000405000
X0000280630Y0000415000
X0000290630Y0000415000
X0000280630Y0000425000
X0000290630Y0000425000
X0000280630Y0000435000
X0000290630Y0000435000
X0000280630Y0000445000
X0000290630Y0000445000
X0000310630Y0000445000
X0000300630Y0000445000
X0000310630Y0000435000
X0000300630Y0000435000
X0000310630Y0000425000
X0000300630Y0000425000
X0000310630Y0000415000
X0000300630Y0000415000
X0000310630Y0000405000
X0000300630Y0000405000
X0000310630Y0000395000
X0000300630Y0000395000
X0000319130Y0000382500
X0000309130Y0000382500
X0000310630Y0000370000
X0000300630Y0000370000
X0000310630Y0000360000
X0000310000Y0000350000
X0000310000Y0000340000
X0000318130Y0000331500
X0000318130Y0000325500
X0000318327Y0000319697
X0000318337Y0000313793
X0000318130Y0000309500
X0000314130Y0000300000
X0000309630Y0000300000
X0000300630Y0000300000
X0000314130Y0000294500
X0000309630Y0000294500
X0000300630Y0000291000
X0000314130Y0000289000
X0000309630Y0000289000
X0000310630Y0000268685
X0000310630Y0000262500
X0000300854Y0000261185
X0000307315Y0000256185
X0000307130Y0000248000
X0000307130Y0000240185
X0000307130Y0000232185
X0000307130Y0000225000
X0000318630Y0000221500
X0000318630Y0000217500
X0000300630Y0000115000
X0000315630Y0000095000
X0000312630Y0000092000
X0000307630Y0000092000
X0000316000Y0000085500
X0000301300Y0000070500
X0000307000Y0000063000
X0000314500Y0000056500
X0000308630Y0000054000
X0000319630Y0000049000
X0000314130Y0000049000
X0000308630Y0000049000
X0000319630Y0000044000
X0000314130Y0000044000
X0000308630Y0000044000
X0000310630Y0000035000
X0000300130Y0000031500
X0000300130Y0000026000
X0000310630Y0000025000
X0000310630Y0000015000
X0000300630Y0000015000
X0000310630Y0000005000
X0000300630Y0000005000
X0000320630Y0000005000
X0000320630Y0000015000
X0000335630Y0000035000
X0000325630Y0000044000
X0000325630Y0000049000
X0000335630Y0000050000
X0000331000Y0000055500
X0000338500Y0000055500
X0000320000Y0000056000
X0000325500Y0000057000
X0000325000Y0000085000
X0000335630Y0000085000
X0000321000Y0000090000
X0000329500Y0000090000
X0000325630Y0000095000
X0000335630Y0000095000
X0000325630Y0000105000
X0000335630Y0000105000
X0000322130Y0000119000
X0000326130Y0000119000
X0000330130Y0000119000
X0000333630Y0000119000
X0000322130Y0000128000
X0000326130Y0000128000
X0000330130Y0000128000
X0000331630Y0000136500
X0000321630Y0000142500
X0000331630Y0000142500
X0000332500Y0000154000
X0000327130Y0000159000
X0000332500Y0000159000
X0000330630Y0000175000
X0000325350Y0000175650
X0000330630Y0000185000
X0000330630Y0000195000
X0000330630Y0000205000
X0000330630Y0000215000
X0000322630Y0000217500
X0000322630Y0000221500
X0000330630Y0000250000
X0000330630Y0000260000
X0000328500Y0000285000
X0000326000Y0000289000
X0000331000Y0000289000
X0000329000Y0000296000
X0000329000Y0000302166
X0000326130Y0000303378
X0000326130Y0000306878
X0000329130Y0000308000
X0000321130Y0000309283
X0000321130Y0000312783
X0000328630Y0000313793
X0000325630Y0000315189
X0000325630Y0000318689
X0000328638Y0000319697
X0000321130Y0000321094
X0000321130Y0000324594
X0000328630Y0000325604
X0000325630Y0000327000
X0000325630Y0000330500
X0000328638Y0000331508
X0000320500Y0000340000
X0000330630Y0000340000
X0000320630Y0000350000
X0000330630Y0000350000
X0000320630Y0000360000
X0000330630Y0000360000
X0000320630Y0000370000
X0000330630Y0000370000
X0000320630Y0000395000
X0000330630Y0000395000
X0000320630Y0000405000
X0000330630Y0000405000
X0000320630Y0000415000
X0000330630Y0000415000
X0000320630Y0000425000
X0000320630Y0000435000
X0000320630Y0000445000
X0000350630Y0000425000
X0000350630Y0000415000
X0000340630Y0000415000
X0000350630Y0000405000
X0000340630Y0000405000
X0000350130Y0000395000
X0000340130Y0000395000
X0000350630Y0000385000
X0000340630Y0000385000
X0000340630Y0000375000
X0000350630Y0000370000
X0000340630Y0000370000
X0000350630Y0000360000
X0000340630Y0000360000
X0000350630Y0000350000
X0000340630Y0000350000
X0000350630Y0000340000
X0000350630Y0000330000
X0000340630Y0000330000
X0000350630Y0000320000
X0000350630Y0000310000
X0000350630Y0000300000
X0000350630Y0000290000
X0000350630Y0000280000
X0000350630Y0000270000
X0000340500Y0000266000
X0000350630Y0000260000
X0000340630Y0000260000
X0000350630Y0000245000
X0000340630Y0000245000
X0000350630Y0000235000
X0000340630Y0000235000
X0000350630Y0000225000
X0000340000Y0000222500
X0000350630Y0000215000
X0000340630Y0000215000
X0000350630Y0000205000
X0000340630Y0000205000
X0000350630Y0000195000
X0000340630Y0000195000
X0000350630Y0000185000
X0000340630Y0000185000
X0000350630Y0000175000
X0000340630Y0000175000
X0000350500Y0000166159
X0000342500Y0000166142
X0000351000Y0000162000
X0000344200Y0000161024
X0000351000Y0000158662
X0000343630Y0000157500
X0000340000Y0000157500
X0000351000Y0000155500
X0000343500Y0000153000
X0000340000Y0000153000
X0000351000Y0000149500
X0000343480Y0000147483
X0000339980Y0000147483
X0000351000Y0000142144
X0000343480Y0000141983
X0000339980Y0000141983
X0000351000Y0000137419
X0000343480Y0000136483
X0000339980Y0000136483
X0000350500Y0000125000
X0000342500Y0000122500
X0000349500Y0000122000
X0000345630Y0000115000
X0000349500Y0000111500
X0000340000Y0000111500
X0000345630Y0000105000
X0000345630Y0000095000
X0000345630Y0000085000
X0000348500Y0000078500
X0000341000Y0000078000
X0000340500Y0000072000
X0000348500Y0000065000
X0000341000Y0000064500
X0000351000Y0000060500
X0000345630Y0000060000
X0000345630Y0000050000
X0000348500Y0000043500
X0000340000Y0000042500
X0000345630Y0000035000
T02
X0000047637Y0000173031
X0000047637Y0000182874
X0000047637Y0000190748
X0000047637Y0000200591
T03
X0000043307Y0000161024
X0000043307Y0000212599
T04
X0000166929Y0000098819
T05
X0000166929Y0000361811
T06
X0000273228Y0000109055
X0000273228Y0000351575
T07
X0000015748Y0000015748
X0000338619Y0000015748
X0000338619Y0000437008
X0000015748Y0000437008
M30
