G04 ================== begin FILE IDENTIFICATION RECORD ==================*
G04 Layout Name:  C:/Users/rock/Documents/Work/ZHG/CutiePi_V1_2/CutiePi_V1_2.brd*
G04 Film Name:    DRILL-1-6*
G04 File Format:  Gerber RS274X*
G04 File Origin:  Cadence Allegro 17.2-S058*
G04 Origin Date:  Tue Mar 10 17:29:52 2020*
G04 *
G04 Layer:  MANUFACTURING/NCLEGEND-1-6*
G04 Layer:  BOARD GEOMETRY/OUTLINE*
G04 *
G04 Offset:    (0.000 0.000)*
G04 Mirror:    No*
G04 Mode:      Positive*
G04 Rotation:  0*
G04 FullContactRelief:  No*
G04 UndefLineWidth:     1.000*
G04 ================== end FILE IDENTIFICATION RECORD ====================*
%FSAX55Y55*MOIN*%
%IR0*IPPOS*OFA0.00000B0.00000*MIA0B0*SFA1.00000B1.00000*%
%AMMACRO16*
1,1,.001,.02,.02*
20,1,.001,.02,.02,.02,-.02,0.0*
1,1,.001,.02,-.02*
20,1,.001,.02,-.02,-.02,-.02,0.0*
1,1,.001,-.02,-.02*
20,1,.001,-.02,-.02,-.02,.02,0.0*
1,1,.001,-.02,.02*
20,1,.001,-.02,.02,.02,.02,0.0*
1,1,.001,.02,.02*
%
%ADD16MACRO16*%
%AMMACRO13*
1,1,.001,-.020669,.012796*
20,1,.001,-.020669,.012796,.020669,.012796,0.0*
1,1,.001,.020669,.012796*
20,1,.001,.020669,.012796,.022891,.012601,0.0*
1,1,.001,.022891,.012601*
20,1,.001,.022891,.012601,.025045,.012024,0.0*
1,1,.001,.025045,.012024*
20,1,.001,.025045,.012024,.027067,.011081,0.0*
1,1,.001,.027067,.011081*
20,1,.001,.027067,.011081,.028894,.009802,0.0*
1,1,.001,.028894,.009802*
20,1,.001,.028894,.009802,.030471,.008225,0.0*
1,1,.001,.030471,.008225*
20,1,.001,.030471,.008225,.03175,.006398,0.0*
1,1,.001,.03175,.006398*
20,1,.001,.03175,.006398,.032693,.004376,0.0*
1,1,.001,.032693,.004376*
20,1,.001,.032693,.004376,.03327,.002222,0.0*
1,1,.001,.03327,.002222*
20,1,.001,.03327,.002222,.033465,0.0,0.0*
1,1,.001,.033465,0.0*
20,1,.001,.033465,0.0,.03327,-.002222,0.0*
1,1,.001,.03327,-.002222*
20,1,.001,.03327,-.002222,.032693,-.004376,0.0*
1,1,.001,.032693,-.004376*
20,1,.001,.032693,-.004376,.03175,-.006398,0.0*
1,1,.001,.03175,-.006398*
20,1,.001,.03175,-.006398,.030471,-.008225,0.0*
1,1,.001,.030471,-.008225*
20,1,.001,.030471,-.008225,.028894,-.009802,0.0*
1,1,.001,.028894,-.009802*
20,1,.001,.028894,-.009802,.027067,-.011081,0.0*
1,1,.001,.027067,-.011081*
20,1,.001,.027067,-.011081,.025045,-.012024,0.0*
1,1,.001,.025045,-.012024*
20,1,.001,.025045,-.012024,.022891,-.012601,0.0*
1,1,.001,.022891,-.012601*
20,1,.001,.022891,-.012601,.020669,-.012796,0.0*
1,1,.001,.020669,-.012796*
20,1,.001,.020669,-.012796,-.020669,-.012796,0.0*
1,1,.001,-.020669,-.012796*
20,1,.001,-.020669,-.012796,-.022891,-.012601,0.0*
1,1,.001,-.022891,-.012601*
20,1,.001,-.022891,-.012601,-.025045,-.012024,0.0*
1,1,.001,-.025045,-.012024*
20,1,.001,-.025045,-.012024,-.027067,-.011081,0.0*
1,1,.001,-.027067,-.011081*
20,1,.001,-.027067,-.011081,-.028894,-.009802,0.0*
1,1,.001,-.028894,-.009802*
20,1,.001,-.028894,-.009802,-.030471,-.008225,0.0*
1,1,.001,-.030471,-.008225*
20,1,.001,-.030471,-.008225,-.03175,-.006398,0.0*
1,1,.001,-.03175,-.006398*
20,1,.001,-.03175,-.006398,-.032693,-.004376,0.0*
1,1,.001,-.032693,-.004376*
20,1,.001,-.032693,-.004376,-.03327,-.002222,0.0*
1,1,.001,-.03327,-.002222*
20,1,.001,-.03327,-.002222,-.033465,0.0,0.0*
1,1,.001,-.033465,0.0*
20,1,.001,-.033465,0.0,-.03327,.002222,0.0*
1,1,.001,-.03327,.002222*
20,1,.001,-.03327,.002222,-.032693,.004376,0.0*
1,1,.001,-.032693,.004376*
20,1,.001,-.032693,.004376,-.03175,.006398,0.0*
1,1,.001,-.03175,.006398*
20,1,.001,-.03175,.006398,-.030471,.008225,0.0*
1,1,.001,-.030471,.008225*
20,1,.001,-.030471,.008225,-.028894,.009802,0.0*
1,1,.001,-.028894,.009802*
20,1,.001,-.028894,.009802,-.027067,.011081,0.0*
1,1,.001,-.027067,.011081*
20,1,.001,-.027067,.011081,-.025045,.012024,0.0*
1,1,.001,-.025045,.012024*
20,1,.001,-.025045,.012024,-.022891,.012601,0.0*
1,1,.001,-.022891,.012601*
20,1,.001,-.022891,.012601,-.020669,.012796,0.0*
1,1,.001,-.020669,.012796*
1,1,.001,-.006398,-.006397*
20,1,.001,-.006398,-.006397,-.008104,-.006184,0.0*
1,1,.001,-.008104,-.006184*
20,1,.001,-.008104,-.006184,-.009596,-.005331,0.0*
1,1,.001,-.009596,-.005331*
20,1,.001,-.009596,-.005331,-.010876,-.004051,0.0*
1,1,.001,-.010876,-.004051*
20,1,.001,-.010876,-.004051,-.011729,-.002559,0.0*
1,1,.001,-.011729,-.002559*
20,1,.001,-.011729,-.002559,-.012155,-.000853,0.0*
1,1,.001,-.012155,-.000853*
20,1,.001,-.012155,-.000853,-.012155,.000854,0.0*
1,1,.001,-.012155,.000854*
20,1,.001,-.012155,.000854,-.011729,.00256,0.0*
1,1,.001,-.011729,.00256*
20,1,.001,-.011729,.00256,-.010876,.004052,0.0*
1,1,.001,-.010876,.004052*
20,1,.001,-.010876,.004052,-.009596,.005332,0.0*
1,1,.001,-.009596,.005332*
20,1,.001,-.009596,.005332,-.008104,.006185,0.0*
1,1,.001,-.008104,.006185*
20,1,.001,-.008104,.006185,-.006398,.006398,0.0*
1,1,.001,-.006398,.006398*
20,1,.001,-.006398,.006398,-.004692,.006185,0.0*
1,1,.001,-.004692,.006185*
20,1,.001,-.004692,.006185,-.003199,.005332,0.0*
1,1,.001,-.003199,.005332*
20,1,.001,-.003199,.005332,-.001919,.004052,0.0*
1,1,.001,-.001919,.004052*
20,1,.001,-.001919,.004052,-.001066,.00256,0.0*
1,1,.001,-.001066,.00256*
20,1,.001,-.001066,.00256,-.00064,.000854,0.0*
1,1,.001,-.00064,.000854*
20,1,.001,-.00064,.000854,-.00064,-.000853,0.0*
1,1,.001,-.00064,-.000853*
20,1,.001,-.00064,-.000853,-.001066,-.002559,0.0*
1,1,.001,-.001066,-.002559*
20,1,.001,-.001066,-.002559,-.001919,-.004051,0.0*
1,1,.001,-.001919,-.004051*
20,1,.001,-.001919,-.004051,-.003199,-.005331,0.0*
1,1,.001,-.003199,-.005331*
20,1,.001,-.003199,-.005331,-.004692,-.006184,0.0*
1,1,.001,-.004692,-.006184*
20,1,.001,-.004692,-.006184,-.006398,-.006397,0.0*
1,1,.001,-.006398,-.006397*
1,1,.001,.008104,.000427*
20,1,.001,.008104,.000427,.008958,.001067,0.0*
1,1,.001,.008958,.001067*
20,1,.001,.008958,.001067,.009597,.002133,0.0*
1,1,.001,.009597,.002133*
20,1,.001,.009597,.002133,.010024,.003626,0.0*
1,1,.001,.010024,.003626*
20,1,.001,.010024,.003626,.009597,.004905,0.0*
1,1,.001,.009597,.004905*
20,1,.001,.009597,.004905,.008744,.005758,0.0*
1,1,.001,.008744,.005758*
20,1,.001,.008744,.005758,.007252,.006398,0.0*
1,1,.001,.007252,.006398*
20,1,.001,.007252,.006398,.001494,.006398,0.0*
1,1,.001,.001494,.006398*
20,1,.001,.001494,.006398,.001494,-.006397,0.0*
1,1,.001,.001494,-.006397*
20,1,.001,.001494,-.006397,.008531,-.006397,0.0*
1,1,.001,.008531,-.006397*
20,1,.001,.008531,-.006397,.010024,-.005544,0.0*
1,1,.001,.010024,-.005544*
20,1,.001,.010024,-.005544,.010877,-.004265,0.0*
1,1,.001,.010877,-.004265*
20,1,.001,.010877,-.004265,.011303,-.002772,0.0*
1,1,.001,.011303,-.002772*
20,1,.001,.011303,-.002772,.010877,-.001279,0.0*
1,1,.001,.010877,-.001279*
20,1,.001,.010877,-.001279,.009597,0.0,0.0*
1,1,.001,.009597,0.0*
20,1,.001,.009597,0.0,.008104,.000427,0.0*
1,1,.001,.008104,.000427*
20,1,.001,.008104,.000427,.001494,.000427,0.0*
1,1,.001,.001494,.000427*
%
%ADD13MACRO13*%
%AMMACRO17*
1,1,.001,.013045,-.031494*
20,1,.001,.013045,-.031494,-.013045,-.031494,0.0*
1,1,.001,-.013045,-.031494*
20,1,.001,-.013045,-.031494,-.031494,-.013045,0.0*
1,1,.001,-.031494,-.013045*
20,1,.001,-.031494,-.013045,-.031494,.013045,0.0*
1,1,.001,-.031494,.013045*
20,1,.001,-.031494,.013045,-.013045,.031494,0.0*
1,1,.001,-.013045,.031494*
20,1,.001,-.013045,.031494,.013045,.031494,0.0*
1,1,.001,.013045,.031494*
20,1,.001,.013045,.031494,.031494,.013045,0.0*
1,1,.001,.031494,.013045*
20,1,.001,.031494,.013045,.031494,-.013045,0.0*
1,1,.001,.031494,-.013045*
20,1,.001,.031494,-.013045,.013045,-.031494,0.0*
1,1,.001,.013045,-.031494*
%
%ADD17MACRO17*%
%AMMACRO19*
1,1,.001,.047244,0.0*
20,1,.001,.047244,0.0,0.0,-.047244,0.0*
1,1,.001,0.0,-.047244*
20,1,.001,0.0,-.047244,-.047244,0.0,0.0*
1,1,.001,-.047244,0.0*
20,1,.001,-.047244,0.0,0.0,.047244,0.0*
1,1,.001,0.0,.047244*
20,1,.001,0.0,.047244,.047244,0.0,0.0*
1,1,.001,.047244,0.0*
%
%ADD19MACRO19*%
%AMMACRO18*
1,1,.001,0.0,.021656*
20,1,.001,0.0,.021656,-.018754,.010828,0.0*
1,1,.001,-.018754,.010828*
20,1,.001,-.018754,.010828,-.018754,-.010828,0.0*
1,1,.001,-.018754,-.010828*
20,1,.001,-.018754,-.010828,0.0,-.021656,0.0*
1,1,.001,0.0,-.021656*
20,1,.001,0.0,-.021656,.018754,-.010828,0.0*
1,1,.001,.018754,-.010828*
20,1,.001,.018754,-.010828,.018754,.010828,0.0*
1,1,.001,.018754,.010828*
20,1,.001,.018754,.010828,0.0,.021656,0.0*
1,1,.001,0.0,.021656*
%
%ADD18MACRO18*%
%AMMACRO15*
1,1,.001,.039,0.0*
20,1,.001,.039,0.0,.0195,.033775,0.0*
1,1,.001,.0195,.033775*
20,1,.001,.0195,.033775,-.0195,.033775,0.0*
1,1,.001,-.0195,.033775*
20,1,.001,-.0195,.033775,-.039,0.0,0.0*
1,1,.001,-.039,0.0*
20,1,.001,-.039,0.0,-.0195,-.033775,0.0*
1,1,.001,-.0195,-.033775*
20,1,.001,-.0195,-.033775,.0195,-.033775,0.0*
1,1,.001,.0195,-.033775*
20,1,.001,.0195,-.033775,.039,0.0,0.0*
1,1,.001,.039,0.0*
%
%ADD15MACRO15*%
%AMMACRO12*
1,1,.001,-.011811,.011811*
20,1,.001,-.011811,.011811,.011811,.011811,0.0*
1,1,.001,.011811,.011811*
20,1,.001,.011811,.011811,.013862,.011632,0.0*
1,1,.001,.013862,.011632*
20,1,.001,.013862,.011632,.015851,.011099,0.0*
1,1,.001,.015851,.011099*
20,1,.001,.015851,.011099,.017716,.010229,0.0*
1,1,.001,.017716,.010229*
20,1,.001,.017716,.010229,.019403,.009048,0.0*
1,1,.001,.019403,.009048*
20,1,.001,.019403,.009048,.020859,.007592,0.0*
1,1,.001,.020859,.007592*
20,1,.001,.020859,.007592,.02204,.005906,0.0*
1,1,.001,.02204,.005906*
20,1,.001,.02204,.005906,.02291,.00404,0.0*
1,1,.001,.02291,.00404*
20,1,.001,.02291,.00404,.023443,.002051,0.0*
1,1,.001,.023443,.002051*
20,1,.001,.023443,.002051,.023622,0.0,0.0*
1,1,.001,.023622,0.0*
20,1,.001,.023622,0.0,.023443,-.002051,0.0*
1,1,.001,.023443,-.002051*
20,1,.001,.023443,-.002051,.02291,-.00404,0.0*
1,1,.001,.02291,-.00404*
20,1,.001,.02291,-.00404,.02204,-.005905,0.0*
1,1,.001,.02204,-.005905*
20,1,.001,.02204,-.005905,.020859,-.007592,0.0*
1,1,.001,.020859,-.007592*
20,1,.001,.020859,-.007592,.019403,-.009048,0.0*
1,1,.001,.019403,-.009048*
20,1,.001,.019403,-.009048,.017717,-.010229,0.0*
1,1,.001,.017717,-.010229*
20,1,.001,.017717,-.010229,.015851,-.011099,0.0*
1,1,.001,.015851,-.011099*
20,1,.001,.015851,-.011099,.013862,-.011632,0.0*
1,1,.001,.013862,-.011632*
20,1,.001,.013862,-.011632,.011811,-.011811,0.0*
1,1,.001,.011811,-.011811*
20,1,.001,.011811,-.011811,-.011811,-.011811,0.0*
1,1,.001,-.011811,-.011811*
20,1,.001,-.011811,-.011811,-.013862,-.011632,0.0*
1,1,.001,-.013862,-.011632*
20,1,.001,-.013862,-.011632,-.015851,-.011099,0.0*
1,1,.001,-.015851,-.011099*
20,1,.001,-.015851,-.011099,-.017716,-.010229,0.0*
1,1,.001,-.017716,-.010229*
20,1,.001,-.017716,-.010229,-.019403,-.009048,0.0*
1,1,.001,-.019403,-.009048*
20,1,.001,-.019403,-.009048,-.020859,-.007592,0.0*
1,1,.001,-.020859,-.007592*
20,1,.001,-.020859,-.007592,-.02204,-.005906,0.0*
1,1,.001,-.02204,-.005906*
20,1,.001,-.02204,-.005906,-.02291,-.00404,0.0*
1,1,.001,-.02291,-.00404*
20,1,.001,-.02291,-.00404,-.023443,-.002051,0.0*
1,1,.001,-.023443,-.002051*
20,1,.001,-.023443,-.002051,-.023622,0.0,0.0*
1,1,.001,-.023622,0.0*
20,1,.001,-.023622,0.0,-.023443,.002051,0.0*
1,1,.001,-.023443,.002051*
20,1,.001,-.023443,.002051,-.02291,.00404,0.0*
1,1,.001,-.02291,.00404*
20,1,.001,-.02291,.00404,-.02204,.005905,0.0*
1,1,.001,-.02204,.005905*
20,1,.001,-.02204,.005905,-.020859,.007592,0.0*
1,1,.001,-.020859,.007592*
20,1,.001,-.020859,.007592,-.019403,.009048,0.0*
1,1,.001,-.019403,.009048*
20,1,.001,-.019403,.009048,-.017717,.010229,0.0*
1,1,.001,-.017717,.010229*
20,1,.001,-.017717,.010229,-.015851,.011099,0.0*
1,1,.001,-.015851,.011099*
20,1,.001,-.015851,.011099,-.013862,.011632,0.0*
1,1,.001,-.013862,.011632*
20,1,.001,-.013862,.011632,-.011811,.011811,0.0*
1,1,.001,-.011811,.011811*
1,1,.001,-.005906,-.005905*
20,1,.001,-.005906,-.005905,-.007481,-.005708,0.0*
1,1,.001,-.007481,-.005708*
20,1,.001,-.007481,-.005708,-.008858,-.004921,0.0*
1,1,.001,-.008858,-.004921*
20,1,.001,-.008858,-.004921,-.010039,-.00374,0.0*
1,1,.001,-.010039,-.00374*
20,1,.001,-.010039,-.00374,-.010827,-.002362,0.0*
1,1,.001,-.010827,-.002362*
20,1,.001,-.010827,-.002362,-.011221,-.000787,0.0*
1,1,.001,-.011221,-.000787*
20,1,.001,-.011221,-.000787,-.011221,.000788,0.0*
1,1,.001,-.011221,.000788*
20,1,.001,-.011221,.000788,-.010827,.002363,0.0*
1,1,.001,-.010827,.002363*
20,1,.001,-.010827,.002363,-.010039,.003741,0.0*
1,1,.001,-.010039,.003741*
20,1,.001,-.010039,.003741,-.008858,.004922,0.0*
1,1,.001,-.008858,.004922*
20,1,.001,-.008858,.004922,-.007481,.005709,0.0*
1,1,.001,-.007481,.005709*
20,1,.001,-.007481,.005709,-.005906,.005906,0.0*
1,1,.001,-.005906,.005906*
20,1,.001,-.005906,.005906,-.004331,.005709,0.0*
1,1,.001,-.004331,.005709*
20,1,.001,-.004331,.005709,-.002953,.004922,0.0*
1,1,.001,-.002953,.004922*
20,1,.001,-.002953,.004922,-.001772,.003741,0.0*
1,1,.001,-.001772,.003741*
20,1,.001,-.001772,.003741,-.000984,.002363,0.0*
1,1,.001,-.000984,.002363*
20,1,.001,-.000984,.002363,-.00059,.000788,0.0*
1,1,.001,-.00059,.000788*
20,1,.001,-.00059,.000788,-.00059,-.000787,0.0*
1,1,.001,-.00059,-.000787*
20,1,.001,-.00059,-.000787,-.000984,-.002362,0.0*
1,1,.001,-.000984,-.002362*
20,1,.001,-.000984,-.002362,-.001772,-.00374,0.0*
1,1,.001,-.001772,-.00374*
20,1,.001,-.001772,-.00374,-.002953,-.004921,0.0*
1,1,.001,-.002953,-.004921*
20,1,.001,-.002953,-.004921,-.004331,-.005708,0.0*
1,1,.001,-.004331,-.005708*
20,1,.001,-.004331,-.005708,-.005906,-.005905,0.0*
1,1,.001,-.005906,-.005905*
1,1,.001,.000985,-.005905*
20,1,.001,.000985,-.005905,.005906,.005906,0.0*
1,1,.001,.005906,.005906*
20,1,.001,.005906,.005906,.010828,-.005905,0.0*
1,1,.001,.010828,-.005905*
1,1,.001,.009056,-.001771*
20,1,.001,.009056,-.001771,.002757,-.001771,0.0*
1,1,.001,.002757,-.001771*
%
%ADD12MACRO12*%
%AMMACRO14*
1,1,.001,-.011811,-.003937*
20,1,.001,-.011811,-.003937,-.011811,.003937,0.0*
1,1,.001,-.011811,.003937*
20,1,.001,-.011811,.003937,-.011632,.005988,0.0*
1,1,.001,-.011632,.005988*
20,1,.001,-.011632,.005988,-.011099,.007977,0.0*
1,1,.001,-.011099,.007977*
20,1,.001,-.011099,.007977,-.010229,.009842,0.0*
1,1,.001,-.010229,.009842*
20,1,.001,-.010229,.009842,-.009048,.011529,0.0*
1,1,.001,-.009048,.011529*
20,1,.001,-.009048,.011529,-.007592,.012985,0.0*
1,1,.001,-.007592,.012985*
20,1,.001,-.007592,.012985,-.005906,.014166,0.0*
1,1,.001,-.005906,.014166*
20,1,.001,-.005906,.014166,-.00404,.015036,0.0*
1,1,.001,-.00404,.015036*
20,1,.001,-.00404,.015036,-.002051,.015569,0.0*
1,1,.001,-.002051,.015569*
20,1,.001,-.002051,.015569,0.0,.015748,0.0*
1,1,.001,0.0,.015748*
20,1,.001,0.0,.015748,.002051,.015569,0.0*
1,1,.001,.002051,.015569*
20,1,.001,.002051,.015569,.00404,.015036,0.0*
1,1,.001,.00404,.015036*
20,1,.001,.00404,.015036,.005905,.014166,0.0*
1,1,.001,.005905,.014166*
20,1,.001,.005905,.014166,.007592,.012985,0.0*
1,1,.001,.007592,.012985*
20,1,.001,.007592,.012985,.009048,.011529,0.0*
1,1,.001,.009048,.011529*
20,1,.001,.009048,.011529,.010229,.009843,0.0*
1,1,.001,.010229,.009843*
20,1,.001,.010229,.009843,.011099,.007977,0.0*
1,1,.001,.011099,.007977*
20,1,.001,.011099,.007977,.011632,.005988,0.0*
1,1,.001,.011632,.005988*
20,1,.001,.011632,.005988,.011811,.003937,0.0*
1,1,.001,.011811,.003937*
20,1,.001,.011811,.003937,.011811,-.003937,0.0*
1,1,.001,.011811,-.003937*
20,1,.001,.011811,-.003937,.011632,-.005988,0.0*
1,1,.001,.011632,-.005988*
20,1,.001,.011632,-.005988,.011099,-.007977,0.0*
1,1,.001,.011099,-.007977*
20,1,.001,.011099,-.007977,.010229,-.009842,0.0*
1,1,.001,.010229,-.009842*
20,1,.001,.010229,-.009842,.009048,-.011529,0.0*
1,1,.001,.009048,-.011529*
20,1,.001,.009048,-.011529,.007592,-.012985,0.0*
1,1,.001,.007592,-.012985*
20,1,.001,.007592,-.012985,.005906,-.014166,0.0*
1,1,.001,.005906,-.014166*
20,1,.001,.005906,-.014166,.00404,-.015036,0.0*
1,1,.001,.00404,-.015036*
20,1,.001,.00404,-.015036,.002051,-.015569,0.0*
1,1,.001,.002051,-.015569*
20,1,.001,.002051,-.015569,0.0,-.015748,0.0*
1,1,.001,0.0,-.015748*
20,1,.001,0.0,-.015748,-.002051,-.015569,0.0*
1,1,.001,-.002051,-.015569*
20,1,.001,-.002051,-.015569,-.00404,-.015036,0.0*
1,1,.001,-.00404,-.015036*
20,1,.001,-.00404,-.015036,-.005905,-.014166,0.0*
1,1,.001,-.005905,-.014166*
20,1,.001,-.005905,-.014166,-.007592,-.012985,0.0*
1,1,.001,-.007592,-.012985*
20,1,.001,-.007592,-.012985,-.009048,-.011529,0.0*
1,1,.001,-.009048,-.011529*
20,1,.001,-.009048,-.011529,-.010229,-.009843,0.0*
1,1,.001,-.010229,-.009843*
20,1,.001,-.010229,-.009843,-.011099,-.007977,0.0*
1,1,.001,-.011099,-.007977*
20,1,.001,-.011099,-.007977,-.011632,-.005988,0.0*
1,1,.001,-.011632,-.005988*
20,1,.001,-.011632,-.005988,-.011811,-.003937,0.0*
1,1,.001,-.011811,-.003937*
1,1,.001,-.005906,-.005905*
20,1,.001,-.005906,-.005905,-.007481,-.005708,0.0*
1,1,.001,-.007481,-.005708*
20,1,.001,-.007481,-.005708,-.008858,-.004921,0.0*
1,1,.001,-.008858,-.004921*
20,1,.001,-.008858,-.004921,-.010039,-.00374,0.0*
1,1,.001,-.010039,-.00374*
20,1,.001,-.010039,-.00374,-.010827,-.002362,0.0*
1,1,.001,-.010827,-.002362*
20,1,.001,-.010827,-.002362,-.011221,-.000787,0.0*
1,1,.001,-.011221,-.000787*
20,1,.001,-.011221,-.000787,-.011221,.000788,0.0*
1,1,.001,-.011221,.000788*
20,1,.001,-.011221,.000788,-.010827,.002363,0.0*
1,1,.001,-.010827,.002363*
20,1,.001,-.010827,.002363,-.010039,.003741,0.0*
1,1,.001,-.010039,.003741*
20,1,.001,-.010039,.003741,-.008858,.004922,0.0*
1,1,.001,-.008858,.004922*
20,1,.001,-.008858,.004922,-.007481,.005709,0.0*
1,1,.001,-.007481,.005709*
20,1,.001,-.007481,.005709,-.005906,.005906,0.0*
1,1,.001,-.005906,.005906*
20,1,.001,-.005906,.005906,-.004331,.005709,0.0*
1,1,.001,-.004331,.005709*
20,1,.001,-.004331,.005709,-.002953,.004922,0.0*
1,1,.001,-.002953,.004922*
20,1,.001,-.002953,.004922,-.001772,.003741,0.0*
1,1,.001,-.001772,.003741*
20,1,.001,-.001772,.003741,-.000984,.002363,0.0*
1,1,.001,-.000984,.002363*
20,1,.001,-.000984,.002363,-.00059,.000788,0.0*
1,1,.001,-.00059,.000788*
20,1,.001,-.00059,.000788,-.00059,-.000787,0.0*
1,1,.001,-.00059,-.000787*
20,1,.001,-.00059,-.000787,-.000984,-.002362,0.0*
1,1,.001,-.000984,-.002362*
20,1,.001,-.000984,-.002362,-.001772,-.00374,0.0*
1,1,.001,-.001772,-.00374*
20,1,.001,-.001772,-.00374,-.002953,-.004921,0.0*
1,1,.001,-.002953,-.004921*
20,1,.001,-.002953,-.004921,-.004331,-.005708,0.0*
1,1,.001,-.004331,-.005708*
20,1,.001,-.004331,-.005708,-.005906,-.005905,0.0*
1,1,.001,-.005906,-.005905*
1,1,.001,.010237,.004922*
20,1,.001,.010237,.004922,.009056,.005512,0.0*
1,1,.001,.009056,.005512*
20,1,.001,.009056,.005512,.007678,.005906,0.0*
1,1,.001,.007678,.005906*
20,1,.001,.007678,.005906,.006103,.005906,0.0*
1,1,.001,.006103,.005906*
20,1,.001,.006103,.005906,.004331,.005315,0.0*
1,1,.001,.004331,.005315*
20,1,.001,.004331,.005315,.002954,.004331,0.0*
1,1,.001,.002954,.004331*
20,1,.001,.002954,.004331,.001969,.00315,0.0*
1,1,.001,.001969,.00315*
20,1,.001,.001969,.00315,.001182,.001182,0.0*
1,1,.001,.001182,.001182*
20,1,.001,.001182,.001182,.000985,-.00059,0.0*
1,1,.001,.000985,-.00059*
20,1,.001,.000985,-.00059,.001379,-.002362,0.0*
1,1,.001,.001379,-.002362*
20,1,.001,.001379,-.002362,.001969,-.003543,0.0*
1,1,.001,.001969,-.003543*
20,1,.001,.001969,-.003543,.003151,-.004724,0.0*
1,1,.001,.003151,-.004724*
20,1,.001,.003151,-.004724,.004529,-.005511,0.0*
1,1,.001,.004529,-.005511*
20,1,.001,.004529,-.005511,.005906,-.005905,0.0*
1,1,.001,.005906,-.005905*
20,1,.001,.005906,-.005905,.007284,-.005905,0.0*
1,1,.001,.007284,-.005905*
20,1,.001,.007284,-.005905,.008662,-.005511,0.0*
1,1,.001,.008662,-.005511*
20,1,.001,.008662,-.005511,.009844,-.004921,0.0*
1,1,.001,.009844,-.004921*
20,1,.001,.009844,-.004921,.010828,-.004134,0.0*
1,1,.001,.010828,-.004134*
%
%ADD14MACRO14*%
%AMMACRO11*
1,1,.001,.005,0.0*
20,1,.001,.005,0.0,-.005,0.0,0.0*
1,1,.001,-.005,0.0*
1,1,.001,0.0,.005*
20,1,.001,0.0,.005,0.0,-.005,0.0*
1,1,.001,0.0,-.005*
%
%ADD11MACRO11*%
%AMMACRO10*
1,1,.001,0.0,.066929*
20,1,.001,0.0,.066929,.066929,-.066929,0.0*
1,1,.001,.066929,-.066929*
20,1,.001,.066929,-.066929,-.066929,-.066929,0.0*
1,1,.001,-.066929,-.066929*
20,1,.001,-.066929,-.066929,0.0,.066929,0.0*
1,1,.001,0.0,.066929*
%
%ADD10MACRO10*%
%ADD20C,.001*%
G75*
%LPD*%
G75*
G54D10*
X0000015748Y0000015748D03*
X0000015748Y0000437008D03*
X0000338619Y0000015748D03*
X0000338619Y0000437008D03*
G54D20*
G01X0Y0000155000D02*
X0Y0000005000D01*
G03X0000005000Y0I0000005000J0D01*
G01X0000349367Y0D01*
G03X0000354367Y0000005000I0J0000005000D01*
G01X0000354367Y0000447756D01*
G03X0000349367Y0000452756I-0000005000J0D01*
G01X0000005000Y0000452756D01*
G03X0Y0000447756I0J-0000005000D01*
G01X0Y0000218500D01*
G03X0000005000Y0000213500I0000005000J0D01*
G01X0000031130Y0000213500D01*
G02X0000036130Y0000208500I0J-0000005000D01*
G01X0000036130Y0000165000D01*
G02X0000031130Y0000160000I-0000005000J0D01*
G01X0000005000Y0000160000D01*
G03X0Y0000155000I0J-0000005000D01*
G01X0000005000Y0000160000D02*
X0000031130Y0000160000D01*
G03X0000036130Y0000165000I0J0000005000D01*
G01X0000036130Y0000208500D01*
G03X0000031130Y0000213500I-0000005000J0D01*
G01X0000005000Y0000213500D01*
G02X0Y0000218500I0J0000005000D01*
G01X0Y0000447756D01*
G02X0000005000Y0000452756I0000005000J0D01*
G01X0000349367Y0000452756D01*
G02X0000354367Y0000447756I0J-0000005000D01*
G01X0000354367Y0000005000D01*
G02X0000349367Y0I-0000005000J0D01*
G01X0000005000Y0D01*
G02X0Y0000005000I0J0000005000D01*
G01X0Y0000155000D01*
G02X0000005000Y0000160000I0000005000J0D01*
G54D11*
X0000005630Y0000035000D03*
X0000005630Y0000055000D03*
X0000005630Y0000075000D03*
X0000005630Y0000065000D03*
X0000005630Y0000085000D03*
X0000006500Y0000091500D03*
X0000005630Y0000105000D03*
X0000005630Y0000125000D03*
X0000005630Y0000113500D03*
X0000005630Y0000145000D03*
X0000005630Y0000135000D03*
X0000005630Y0000155000D03*
X0000005630Y0000225000D03*
X0000004130Y0000218000D03*
X0000005630Y0000245000D03*
X0000005630Y0000235000D03*
X0000005630Y0000260000D03*
X0000005630Y0000280000D03*
X0000005630Y0000270000D03*
X0000005630Y0000295000D03*
X0000005630Y0000315000D03*
X0000005630Y0000305000D03*
X0000005630Y0000330000D03*
X0000005630Y0000340000D03*
X0000005630Y0000365000D03*
X0000005630Y0000355000D03*
X0000005630Y0000386500D03*
X0000005630Y0000375000D03*
X0000005630Y0000395000D03*
X0000005630Y0000415000D03*
X0000005000Y0000407000D03*
X0000005630Y0000425000D03*
X0000025630Y0000035000D03*
X0000015630Y0000035000D03*
X0000015630Y0000055000D03*
X0000025630Y0000055000D03*
X0000025630Y0000045000D03*
X0000025630Y0000065000D03*
X0000015630Y0000065000D03*
X0000014130Y0000074500D03*
X0000014130Y0000084500D03*
X0000015000Y0000092500D03*
X0000015630Y0000105000D03*
X0000025630Y0000105000D03*
X0000016000Y0000098500D03*
X0000025500Y0000099000D03*
X0000025630Y0000125000D03*
X0000015630Y0000125000D03*
X0000025630Y0000113500D03*
X0000015630Y0000113500D03*
X0000025630Y0000145000D03*
X0000015630Y0000145000D03*
X0000015630Y0000135000D03*
X0000025630Y0000135000D03*
X0000025630Y0000155000D03*
X0000025630Y0000225000D03*
X0000015630Y0000225000D03*
X0000026130Y0000217500D03*
X0000009630Y0000218000D03*
X0000015630Y0000245000D03*
X0000025630Y0000245000D03*
X0000025630Y0000235000D03*
X0000015630Y0000235000D03*
X0000025630Y0000255000D03*
X0000012000Y0000257500D03*
X0000011000Y0000265500D03*
X0000015630Y0000280000D03*
X0000011000Y0000276000D03*
X0000015630Y0000295000D03*
X0000025630Y0000295000D03*
X0000015630Y0000315000D03*
X0000025630Y0000315000D03*
X0000025630Y0000305000D03*
X0000015630Y0000305000D03*
X0000014000Y0000334000D03*
X0000014500Y0000328500D03*
X0000011130Y0000329853D03*
X0000011130Y0000332853D03*
X0000011130Y0000335784D03*
X0000014000Y0000340000D03*
X0000011130Y0000338784D03*
X0000012000Y0000342000D03*
X0000025630Y0000365000D03*
X0000015630Y0000365000D03*
X0000015630Y0000355000D03*
X0000025630Y0000355000D03*
X0000015630Y0000386500D03*
X0000015630Y0000375000D03*
X0000025630Y0000375000D03*
X0000023630Y0000387000D03*
X0000025630Y0000405000D03*
X0000015630Y0000395000D03*
X0000023500Y0000395000D03*
X0000025630Y0000415000D03*
X0000015500Y0000407000D03*
X0000015630Y0000415000D03*
X0000025630Y0000425000D03*
X0000035630Y0000005000D03*
X0000035630Y0000015000D03*
X0000035630Y0000035000D03*
X0000035630Y0000025000D03*
X0000035630Y0000045000D03*
X0000026568Y0000089568D03*
X0000026495Y0000093505D03*
X0000035630Y0000145000D03*
X0000035630Y0000155000D03*
X0000040630Y0000175000D03*
X0000040630Y0000195000D03*
X0000040630Y0000185000D03*
X0000040630Y0000205000D03*
X0000035630Y0000225000D03*
X0000040630Y0000230000D03*
X0000035630Y0000230000D03*
X0000040630Y0000220000D03*
X0000043000Y0000225500D03*
X0000035630Y0000245000D03*
X0000035630Y0000235000D03*
X0000035630Y0000240000D03*
X0000040630Y0000235000D03*
X0000033000Y0000250000D03*
X0000037130Y0000265000D03*
X0000035630Y0000255000D03*
X0000028000Y0000261000D03*
X0000035500Y0000261000D03*
X0000037130Y0000270000D03*
X0000035630Y0000295000D03*
X0000035630Y0000285000D03*
X0000031500Y0000305000D03*
X0000029500Y0000331000D03*
X0000029500Y0000325500D03*
X0000032300Y0000336205D03*
X0000032300Y0000333205D03*
X0000032307Y0000329578D03*
X0000032307Y0000326578D03*
X0000039000Y0000323000D03*
X0000029500Y0000337500D03*
X0000038886Y0000349614D03*
X0000032614Y0000349886D03*
X0000035500Y0000350500D03*
X0000037500Y0000342000D03*
X0000035630Y0000355000D03*
X0000035630Y0000365000D03*
X0000041630Y0000355000D03*
X0000041630Y0000365000D03*
X0000035630Y0000375000D03*
X0000033130Y0000381000D03*
X0000040630Y0000381000D03*
X0000041130Y0000372000D03*
X0000033630Y0000387000D03*
X0000035630Y0000405000D03*
X0000027000Y0000395000D03*
X0000027000Y0000401468D03*
X0000035630Y0000415000D03*
X0000035130Y0000425000D03*
X0000045630Y0000005000D03*
X0000053130Y0000005000D03*
X0000045630Y0000015000D03*
X0000053130Y0000015000D03*
X0000045630Y0000035000D03*
X0000045630Y0000025000D03*
X0000053130Y0000025000D03*
X0000055630Y0000055000D03*
X0000046500Y0000076500D03*
X0000052000Y0000076500D03*
X0000060630Y0000060000D03*
X0000060630Y0000070000D03*
X0000053500Y0000062500D03*
X0000047500Y0000067500D03*
X0000055000Y0000072500D03*
X0000049500Y0000060000D03*
X0000061000Y0000065000D03*
X0000046500Y0000090000D03*
X0000055500Y0000083500D03*
X0000057500Y0000090000D03*
X0000046500Y0000083000D03*
X0000057000Y0000179500D03*
X0000053500Y0000179500D03*
X0000053500Y0000182500D03*
X0000056500Y0000182500D03*
X0000060630Y0000225500D03*
X0000052630Y0000251500D03*
X0000048630Y0000251500D03*
X0000052630Y0000255500D03*
X0000048630Y0000255500D03*
X0000049630Y0000315500D03*
X0000045630Y0000315500D03*
X0000045630Y0000311000D03*
X0000049630Y0000311000D03*
X0000049000Y0000324500D03*
X0000053500Y0000324500D03*
X0000060500Y0000340000D03*
X0000057000Y0000340000D03*
X0000044500Y0000337500D03*
X0000051500Y0000346000D03*
X0000060900Y0000349900D03*
X0000045000Y0000346000D03*
X0000055630Y0000405000D03*
X0000045630Y0000405000D03*
X0000055630Y0000415000D03*
X0000045630Y0000415000D03*
X0000045130Y0000425000D03*
X0000055130Y0000425000D03*
X0000065630Y0000005000D03*
X0000075630Y0000005000D03*
X0000070630Y0000005000D03*
X0000078000Y0000027500D03*
X0000075630Y0000045000D03*
X0000065630Y0000045000D03*
X0000065630Y0000051000D03*
X0000075630Y0000051000D03*
X0000066630Y0000072500D03*
X0000066630Y0000076500D03*
X0000071130Y0000076500D03*
X0000071130Y0000072500D03*
X0000075630Y0000072500D03*
X0000075630Y0000076500D03*
X0000071886Y0000063500D03*
X0000066630Y0000090000D03*
X0000066630Y0000104000D03*
X0000066630Y0000099000D03*
X0000073130Y0000099000D03*
X0000073130Y0000095000D03*
X0000066630Y0000095000D03*
X0000070130Y0000126500D03*
X0000067630Y0000117500D03*
X0000074630Y0000117500D03*
X0000076000Y0000112000D03*
X0000067000Y0000112000D03*
X0000070130Y0000132000D03*
X0000065130Y0000178000D03*
X0000062130Y0000178000D03*
X0000061750Y0000195880D03*
X0000065000Y0000196000D03*
X0000069000Y0000214500D03*
X0000065000Y0000214500D03*
X0000075000Y0000202500D03*
X0000071000Y0000202500D03*
X0000071000Y0000198500D03*
X0000075000Y0000198500D03*
X0000075130Y0000217500D03*
X0000069000Y0000218500D03*
X0000065000Y0000218500D03*
X0000073600Y0000240200D03*
X0000075000Y0000242600D03*
X0000076400Y0000240200D03*
X0000077744Y0000274386D03*
X0000074100Y0000301800D03*
X0000069130Y0000298500D03*
X0000069130Y0000292000D03*
X0000073630Y0000311500D03*
X0000073630Y0000319500D03*
X0000068130Y0000319500D03*
X0000073630Y0000327000D03*
X0000067630Y0000327000D03*
X0000067744Y0000348886D03*
X0000067744Y0000352114D03*
X0000064700Y0000347900D03*
X0000069130Y0000359000D03*
X0000069130Y0000364000D03*
X0000061130Y0000364000D03*
X0000064130Y0000359000D03*
X0000064130Y0000368000D03*
X0000067600Y0000380500D03*
X0000061130Y0000372000D03*
X0000067630Y0000384000D03*
X0000073630Y0000378500D03*
X0000075630Y0000405000D03*
X0000065630Y0000405000D03*
X0000075630Y0000415000D03*
X0000065630Y0000415000D03*
X0000065130Y0000425000D03*
X0000075130Y0000425000D03*
X0000081500Y0000031000D03*
X0000085630Y0000045000D03*
X0000095630Y0000045000D03*
X0000085630Y0000051000D03*
X0000079000Y0000067000D03*
X0000086630Y0000110000D03*
X0000083130Y0000108000D03*
X0000090130Y0000108000D03*
X0000094130Y0000108000D03*
X0000094130Y0000102500D03*
X0000083130Y0000112000D03*
X0000090130Y0000112000D03*
X0000088000Y0000158000D03*
X0000093630Y0000158000D03*
X0000083500Y0000193000D03*
X0000090790Y0000188340D03*
X0000090630Y0000192000D03*
X0000093130Y0000222500D03*
X0000084130Y0000232000D03*
X0000095667Y0000238537D03*
X0000093108Y0000236000D03*
X0000090549Y0000238581D03*
X0000084130Y0000240000D03*
X0000084130Y0000236000D03*
X0000087630Y0000236000D03*
X0000084130Y0000258000D03*
X0000084130Y0000271000D03*
X0000093130Y0000281500D03*
X0000089130Y0000281500D03*
X0000083130Y0000284500D03*
X0000079638Y0000280992D03*
X0000090549Y0000271000D03*
X0000095130Y0000298000D03*
X0000095130Y0000301000D03*
X0000093130Y0000285500D03*
X0000089630Y0000301500D03*
X0000093130Y0000328000D03*
X0000083630Y0000337000D03*
X0000087000Y0000349000D03*
X0000095500Y0000349000D03*
X0000095630Y0000337000D03*
X0000092500Y0000355500D03*
X0000085630Y0000365000D03*
X0000090630Y0000365000D03*
X0000085630Y0000361000D03*
X0000085630Y0000357500D03*
X0000086000Y0000382500D03*
X0000092000Y0000382500D03*
X0000090630Y0000372500D03*
X0000085630Y0000372693D03*
X0000091630Y0000401500D03*
X0000087630Y0000401500D03*
X0000095630Y0000405000D03*
X0000085630Y0000405000D03*
X0000095630Y0000415000D03*
X0000085630Y0000415000D03*
X0000085130Y0000425000D03*
X0000095130Y0000425000D03*
X0000109630Y0000018500D03*
X0000109630Y0000014500D03*
X0000102630Y0000018500D03*
X0000102630Y0000014500D03*
X0000107000Y0000022000D03*
X0000096500Y0000022000D03*
X0000101500Y0000022000D03*
X0000096500Y0000031500D03*
X0000107000Y0000031500D03*
X0000101500Y0000031500D03*
X0000113000Y0000032000D03*
X0000110500Y0000029000D03*
X0000109630Y0000076000D03*
X0000098630Y0000076000D03*
X0000098630Y0000086500D03*
X0000104130Y0000086500D03*
X0000104130Y0000102000D03*
X0000104130Y0000105500D03*
X0000104130Y0000097500D03*
X0000099130Y0000097500D03*
X0000099630Y0000122500D03*
X0000104130Y0000122500D03*
X0000108630Y0000122500D03*
X0000108630Y0000126500D03*
X0000113130Y0000126500D03*
X0000113130Y0000122500D03*
X0000113130Y0000117500D03*
X0000113130Y0000113000D03*
X0000104130Y0000113000D03*
X0000104130Y0000117500D03*
X0000099630Y0000117500D03*
X0000108630Y0000117500D03*
X0000108630Y0000113000D03*
X0000108130Y0000136500D03*
X0000108630Y0000131000D03*
X0000103630Y0000178500D03*
X0000105630Y0000180000D03*
X0000105630Y0000175000D03*
X0000101630Y0000193000D03*
X0000101630Y0000197500D03*
X0000101630Y0000189000D03*
X0000106130Y0000189000D03*
X0000106130Y0000193000D03*
X0000106130Y0000197500D03*
X0000097930Y0000189000D03*
X0000097930Y0000193000D03*
X0000097930Y0000197500D03*
X0000106744Y0000212886D03*
X0000103516Y0000212886D03*
X0000097630Y0000222500D03*
X0000102630Y0000222500D03*
X0000102630Y0000226500D03*
X0000100785Y0000238500D03*
X0000104016Y0000278500D03*
X0000099130Y0000281500D03*
X0000101496Y0000286866D03*
X0000098567Y0000323437D03*
X0000098630Y0000328000D03*
X0000112673Y0000337000D03*
X0000113130Y0000350000D03*
X0000113130Y0000354000D03*
X0000107000Y0000348500D03*
X0000102044Y0000337086D03*
X0000105630Y0000361500D03*
X0000101130Y0000361500D03*
X0000113130Y0000361500D03*
X0000100500Y0000355500D03*
X0000107500Y0000357000D03*
X0000111630Y0000382000D03*
X0000107500Y0000382000D03*
X0000105630Y0000405000D03*
X0000111630Y0000400500D03*
X0000109630Y0000405000D03*
X0000098630Y0000395000D03*
X0000108630Y0000395000D03*
X0000096630Y0000400000D03*
X0000106630Y0000400000D03*
X0000111700Y0000396300D03*
X0000105630Y0000415000D03*
X0000111630Y0000409000D03*
X0000111630Y0000414500D03*
X0000111630Y0000422500D03*
X0000105130Y0000425000D03*
X0000120508Y0000021508D03*
X0000124130Y0000018500D03*
X0000124130Y0000014500D03*
X0000117630Y0000018500D03*
X0000117630Y0000014500D03*
X0000130000Y0000019500D03*
X0000118500Y0000032000D03*
X0000123000Y0000032000D03*
X0000115500Y0000029500D03*
X0000117130Y0000056500D03*
X0000117130Y0000052500D03*
X0000121130Y0000056500D03*
X0000121130Y0000052500D03*
X0000125130Y0000056500D03*
X0000125130Y0000052500D03*
X0000120630Y0000090500D03*
X0000121130Y0000081500D03*
X0000125130Y0000081500D03*
X0000121130Y0000085500D03*
X0000125130Y0000085500D03*
X0000120630Y0000103500D03*
X0000124630Y0000103500D03*
X0000120630Y0000099500D03*
X0000124630Y0000099500D03*
X0000120630Y0000095000D03*
X0000120630Y0000108500D03*
X0000119130Y0000111500D03*
X0000120630Y0000118000D03*
X0000120630Y0000123000D03*
X0000125630Y0000165000D03*
X0000123630Y0000184000D03*
X0000123630Y0000192700D03*
X0000123630Y0000197700D03*
X0000123630Y0000188500D03*
X0000127901Y0000195609D03*
X0000123630Y0000202700D03*
X0000125500Y0000213500D03*
X0000119000Y0000213500D03*
X0000127000Y0000198500D03*
X0000120401Y0000210500D03*
X0000124319Y0000210500D03*
X0000116630Y0000227000D03*
X0000116630Y0000231000D03*
X0000121130Y0000227000D03*
X0000121130Y0000231000D03*
X0000113630Y0000221500D03*
X0000118500Y0000221500D03*
X0000115000Y0000217500D03*
X0000124516Y0000264114D03*
X0000124516Y0000252886D03*
X0000119130Y0000275500D03*
X0000126130Y0000297114D03*
X0000119389Y0000289000D03*
X0000114000Y0000294500D03*
X0000126130Y0000306386D03*
X0000118400Y0000306900D03*
X0000120630Y0000330000D03*
X0000125630Y0000330000D03*
X0000125630Y0000325000D03*
X0000117000Y0000334000D03*
X0000119760Y0000337000D03*
X0000119630Y0000354000D03*
X0000117630Y0000350500D03*
X0000130130Y0000354976D03*
X0000118630Y0000361500D03*
X0000130130Y0000362000D03*
X0000115630Y0000382000D03*
X0000120130Y0000382000D03*
X0000120630Y0000405000D03*
X0000120630Y0000400500D03*
X0000120600Y0000396200D03*
X0000120630Y0000410000D03*
X0000120630Y0000415000D03*
X0000120630Y0000420000D03*
X0000135130Y0000018500D03*
X0000135130Y0000014500D03*
X0000140130Y0000014500D03*
X0000145130Y0000014500D03*
X0000135130Y0000023500D03*
X0000140130Y0000018500D03*
X0000144000Y0000023500D03*
X0000131630Y0000028000D03*
X0000131500Y0000031500D03*
X0000139000Y0000026000D03*
X0000138130Y0000105000D03*
X0000138130Y0000101000D03*
X0000142130Y0000105000D03*
X0000142130Y0000101000D03*
X0000138130Y0000127500D03*
X0000142130Y0000127500D03*
X0000138130Y0000131000D03*
X0000142130Y0000131000D03*
X0000140500Y0000160000D03*
X0000140500Y0000155000D03*
X0000140500Y0000170000D03*
X0000130630Y0000170000D03*
X0000130630Y0000165000D03*
X0000140500Y0000165000D03*
X0000140500Y0000175000D03*
X0000131819Y0000195609D03*
X0000132500Y0000213500D03*
X0000139400Y0000208400D03*
X0000133000Y0000198500D03*
X0000137150Y0000210650D03*
X0000133700Y0000210700D03*
X0000135500Y0000222000D03*
X0000141500Y0000222000D03*
X0000140319Y0000219179D03*
X0000136401Y0000219179D03*
X0000139630Y0000300500D03*
X0000144000Y0000286417D03*
X0000140130Y0000317126D03*
X0000139630Y0000303000D03*
X0000140130Y0000324000D03*
X0000145130Y0000324213D03*
X0000145130Y0000328937D03*
X0000144969Y0000333661D03*
X0000135630Y0000335000D03*
X0000140630Y0000330000D03*
X0000130630Y0000335000D03*
X0000144795Y0000347835D03*
X0000144882Y0000340748D03*
X0000130630Y0000350000D03*
X0000135500Y0000345500D03*
X0000130630Y0000340000D03*
X0000135500Y0000340000D03*
X0000136130Y0000351000D03*
X0000140630Y0000338500D03*
X0000141000Y0000345000D03*
X0000131000Y0000345500D03*
X0000144709Y0000354921D03*
X0000136000Y0000356000D03*
X0000144630Y0000358000D03*
X0000144630Y0000362500D03*
X0000140130Y0000358000D03*
X0000140130Y0000362500D03*
X0000140630Y0000405000D03*
X0000130630Y0000405000D03*
X0000130630Y0000396000D03*
X0000140630Y0000396000D03*
X0000130630Y0000415000D03*
X0000140630Y0000415000D03*
X0000140630Y0000425000D03*
X0000130630Y0000425000D03*
X0000149000Y0000019000D03*
X0000154500Y0000015000D03*
X0000152630Y0000074500D03*
X0000156630Y0000074500D03*
X0000152630Y0000070500D03*
X0000156630Y0000070500D03*
X0000163130Y0000071000D03*
X0000152500Y0000063500D03*
X0000152630Y0000078500D03*
X0000156630Y0000078500D03*
X0000158130Y0000110000D03*
X0000163630Y0000110000D03*
X0000159500Y0000099000D03*
X0000157130Y0000121063D03*
X0000161130Y0000142000D03*
X0000157030Y0000129300D03*
X0000157130Y0000142323D03*
X0000157130Y0000137598D03*
X0000161130Y0000137500D03*
X0000158130Y0000149409D03*
X0000162130Y0000149500D03*
X0000158130Y0000156496D03*
X0000160630Y0000161500D03*
X0000160630Y0000158500D03*
X0000158130Y0000163583D03*
X0000158130Y0000170669D03*
X0000158130Y0000177756D03*
X0000160630Y0000172500D03*
X0000163130Y0000179846D03*
X0000160630Y0000175500D03*
X0000157130Y0000191929D03*
X0000163130Y0000182846D03*
X0000157130Y0000199016D03*
X0000157500Y0000206102D03*
X0000157500Y0000213189D03*
X0000157500Y0000220276D03*
X0000157630Y0000227362D03*
X0000157579Y0000234449D03*
X0000157630Y0000241000D03*
X0000157528Y0000243898D03*
X0000157630Y0000238000D03*
X0000162000Y0000251000D03*
X0000157630Y0000255000D03*
X0000157630Y0000251000D03*
X0000157630Y0000262795D03*
X0000162130Y0000263000D03*
X0000157630Y0000258071D03*
X0000162130Y0000258000D03*
X0000157630Y0000269882D03*
X0000157630Y0000284500D03*
X0000162130Y0000279500D03*
X0000162130Y0000269500D03*
X0000157683Y0000274553D03*
X0000162130Y0000274500D03*
X0000157630Y0000279331D03*
X0000162130Y0000284500D03*
X0000157488Y0000291142D03*
X0000157500Y0000299000D03*
X0000157032Y0000312402D03*
X0000157500Y0000304000D03*
X0000161630Y0000331500D03*
X0000157130Y0000321500D03*
X0000157130Y0000326000D03*
X0000157331Y0000331299D03*
X0000157130Y0000338386D03*
X0000157130Y0000352559D03*
X0000161630Y0000345500D03*
X0000157130Y0000345472D03*
X0000161630Y0000338500D03*
X0000164130Y0000385000D03*
X0000150630Y0000405000D03*
X0000148500Y0000397000D03*
X0000150630Y0000415000D03*
X0000160630Y0000415000D03*
X0000150630Y0000425000D03*
X0000160630Y0000425000D03*
X0000181630Y0000032500D03*
X0000176630Y0000071000D03*
X0000166630Y0000071000D03*
X0000176630Y0000075000D03*
X0000176630Y0000065500D03*
X0000176630Y0000078500D03*
X0000178630Y0000087000D03*
X0000174130Y0000087000D03*
X0000176030Y0000110200D03*
X0000169630Y0000110000D03*
X0000175500Y0000099000D03*
X0000177130Y0000128500D03*
X0000165630Y0000145000D03*
X0000165630Y0000140000D03*
X0000170630Y0000140000D03*
X0000170630Y0000145000D03*
X0000175630Y0000145000D03*
X0000175630Y0000140000D03*
X0000168630Y0000156500D03*
X0000175630Y0000156500D03*
X0000170630Y0000149500D03*
X0000175630Y0000149500D03*
X0000165630Y0000151500D03*
X0000165630Y0000154500D03*
X0000168630Y0000163500D03*
X0000168630Y0000178000D03*
X0000168630Y0000170500D03*
X0000175630Y0000163500D03*
X0000175630Y0000170500D03*
X0000175630Y0000178000D03*
X0000165630Y0000165673D03*
X0000165630Y0000168673D03*
X0000165302Y0000185172D03*
X0000172630Y0000185500D03*
X0000172630Y0000192500D03*
X0000175130Y0000265000D03*
X0000166630Y0000279500D03*
X0000166630Y0000284500D03*
X0000170500Y0000298000D03*
X0000170500Y0000288780D03*
X0000170500Y0000304500D03*
X0000166500Y0000312500D03*
X0000170630Y0000330000D03*
X0000173000Y0000332000D03*
X0000176571Y0000331059D03*
X0000176386Y0000327756D03*
X0000177197Y0000339567D03*
X0000176976Y0000346654D03*
X0000170630Y0000340000D03*
X0000176630Y0000383500D03*
X0000180630Y0000383500D03*
X0000180630Y0000387500D03*
X0000176630Y0000387500D03*
X0000170500Y0000390800D03*
X0000176300Y0000397100D03*
X0000180630Y0000435000D03*
X0000170630Y0000435000D03*
X0000170630Y0000425000D03*
X0000185630Y0000032500D03*
X0000190630Y0000032500D03*
X0000195630Y0000032500D03*
X0000195630Y0000028000D03*
X0000188130Y0000036500D03*
X0000183130Y0000057500D03*
X0000188130Y0000057500D03*
X0000188130Y0000052500D03*
X0000191630Y0000052500D03*
X0000195630Y0000056000D03*
X0000195630Y0000051000D03*
X0000187630Y0000071000D03*
X0000183130Y0000062500D03*
X0000188130Y0000062500D03*
X0000182630Y0000071000D03*
X0000190130Y0000119500D03*
X0000189630Y0000127000D03*
X0000194630Y0000127000D03*
X0000189228Y0000141142D03*
X0000189630Y0000138000D03*
X0000199630Y0000139000D03*
X0000189228Y0000148228D03*
X0000189032Y0000162402D03*
X0000198630Y0000149000D03*
X0000192630Y0000155000D03*
X0000189118Y0000169488D03*
X0000189055Y0000176575D03*
X0000189130Y0000183661D03*
X0000189228Y0000197835D03*
X0000189000Y0000191000D03*
X0000189228Y0000204921D03*
X0000189228Y0000212008D03*
X0000199630Y0000213500D03*
X0000199500Y0000205500D03*
X0000189228Y0000219095D03*
X0000189228Y0000226181D03*
X0000199130Y0000221000D03*
X0000189630Y0000241000D03*
X0000189228Y0000233268D03*
X0000189071Y0000247441D03*
X0000193000Y0000233000D03*
X0000192500Y0000247500D03*
X0000199130Y0000254500D03*
X0000194130Y0000261500D03*
X0000194130Y0000254500D03*
X0000189130Y0000254528D03*
X0000189516Y0000261614D03*
X0000199000Y0000262500D03*
X0000189630Y0000266339D03*
X0000194400Y0000266300D03*
X0000189417Y0000275787D03*
X0000194130Y0000271000D03*
X0000189630Y0000284500D03*
X0000189618Y0000280512D03*
X0000194630Y0000280500D03*
X0000194130Y0000275500D03*
X0000189567Y0000271063D03*
X0000189591Y0000289961D03*
X0000195630Y0000295000D03*
X0000194500Y0000289500D03*
X0000199000Y0000298500D03*
X0000189630Y0000315945D03*
X0000194630Y0000311000D03*
X0000189909Y0000311221D03*
X0000194130Y0000316000D03*
X0000190500Y0000304000D03*
X0000193630Y0000332500D03*
X0000189610Y0000332480D03*
X0000189524Y0000325394D03*
X0000194130Y0000342000D03*
X0000189630Y0000337205D03*
X0000189559Y0000341929D03*
X0000190630Y0000385000D03*
X0000190630Y0000380000D03*
X0000185630Y0000390000D03*
X0000190630Y0000395000D03*
X0000183400Y0000403900D03*
X0000194630Y0000410500D03*
X0000198630Y0000410500D03*
X0000190630Y0000410000D03*
X0000190630Y0000435000D03*
X0000203630Y0000021000D03*
X0000203630Y0000017000D03*
X0000207630Y0000021000D03*
X0000207630Y0000017000D03*
X0000211630Y0000021000D03*
X0000211630Y0000017000D03*
X0000200630Y0000032500D03*
X0000205630Y0000032500D03*
X0000205630Y0000028000D03*
X0000200630Y0000028000D03*
X0000205630Y0000037500D03*
X0000210630Y0000037500D03*
X0000210630Y0000032500D03*
X0000210630Y0000028000D03*
X0000210630Y0000048000D03*
X0000210630Y0000044000D03*
X0000215630Y0000048000D03*
X0000215630Y0000044000D03*
X0000210630Y0000057500D03*
X0000215630Y0000057500D03*
X0000215630Y0000052500D03*
X0000210630Y0000052500D03*
X0000200630Y0000145000D03*
X0000210630Y0000145000D03*
X0000205630Y0000140000D03*
X0000210630Y0000155000D03*
X0000200630Y0000155000D03*
X0000207500Y0000150000D03*
X0000210630Y0000175000D03*
X0000200630Y0000175000D03*
X0000210630Y0000165000D03*
X0000200630Y0000165000D03*
X0000200630Y0000195000D03*
X0000210630Y0000195000D03*
X0000210630Y0000185000D03*
X0000200630Y0000185000D03*
X0000202100Y0000199600D03*
X0000202130Y0000203000D03*
X0000210704Y0000215400D03*
X0000211630Y0000203352D03*
X0000208630Y0000203500D03*
X0000208630Y0000199500D03*
X0000205500Y0000212500D03*
X0000211630Y0000199400D03*
X0000210704Y0000219352D03*
X0000201704Y0000219500D03*
X0000201704Y0000215500D03*
X0000207704Y0000215500D03*
X0000207704Y0000219500D03*
X0000202630Y0000241500D03*
X0000202630Y0000247500D03*
X0000205130Y0000254500D03*
X0000210630Y0000265000D03*
X0000212000Y0000275500D03*
X0000205500Y0000269000D03*
X0000200630Y0000365000D03*
X0000200630Y0000375000D03*
X0000200630Y0000385000D03*
X0000211630Y0000375000D03*
X0000211630Y0000385000D03*
X0000208630Y0000396500D03*
X0000208630Y0000390500D03*
X0000208630Y0000404500D03*
X0000200630Y0000395000D03*
X0000200630Y0000405000D03*
X0000211630Y0000422500D03*
X0000207630Y0000422500D03*
X0000200630Y0000435000D03*
X0000210630Y0000435000D03*
X0000231630Y0000004000D03*
X0000227630Y0000004000D03*
X0000231630Y0000007150D03*
X0000227630Y0000007150D03*
X0000227630Y0000019000D03*
X0000227630Y0000023000D03*
X0000233130Y0000023000D03*
X0000233130Y0000019000D03*
X0000227630Y0000029500D03*
X0000233130Y0000029500D03*
X0000233630Y0000036000D03*
X0000227630Y0000036000D03*
X0000232687Y0000050557D03*
X0000232687Y0000055557D03*
X0000220630Y0000057500D03*
X0000220630Y0000052500D03*
X0000233130Y0000045500D03*
X0000227630Y0000042000D03*
X0000227630Y0000047500D03*
X0000227630Y0000052000D03*
X0000220630Y0000155000D03*
X0000218500Y0000150000D03*
X0000230630Y0000175000D03*
X0000220630Y0000175000D03*
X0000230630Y0000165000D03*
X0000220630Y0000165000D03*
X0000220630Y0000195000D03*
X0000230630Y0000195000D03*
X0000230630Y0000185000D03*
X0000220630Y0000185000D03*
X0000225630Y0000215000D03*
X0000222630Y0000216048D03*
X0000225630Y0000221000D03*
X0000222630Y0000220000D03*
X0000220630Y0000265000D03*
X0000230630Y0000265000D03*
X0000220630Y0000275000D03*
X0000230630Y0000275000D03*
X0000220630Y0000295000D03*
X0000220630Y0000285000D03*
X0000230630Y0000285000D03*
X0000230630Y0000295000D03*
X0000220630Y0000315000D03*
X0000220630Y0000305000D03*
X0000230630Y0000305000D03*
X0000230630Y0000315000D03*
X0000220630Y0000330000D03*
X0000230630Y0000330000D03*
X0000230630Y0000365000D03*
X0000220630Y0000385000D03*
X0000220630Y0000375000D03*
X0000230630Y0000375000D03*
X0000230630Y0000385000D03*
X0000230630Y0000435000D03*
X0000220630Y0000435000D03*
X0000235630Y0000004000D03*
X0000245630Y0000004000D03*
X0000249630Y0000004000D03*
X0000241630Y0000004000D03*
X0000235630Y0000007150D03*
X0000245630Y0000007150D03*
X0000249630Y0000007150D03*
X0000241630Y0000007150D03*
X0000237630Y0000036000D03*
X0000251630Y0000047000D03*
X0000248630Y0000047000D03*
X0000248630Y0000044200D03*
X0000251630Y0000044200D03*
X0000237630Y0000055500D03*
X0000237630Y0000050500D03*
X0000238630Y0000081114D03*
X0000250630Y0000100000D03*
X0000235630Y0000100000D03*
X0000235630Y0000109000D03*
X0000243630Y0000109500D03*
X0000243630Y0000118000D03*
X0000240630Y0000175000D03*
X0000250630Y0000180000D03*
X0000240630Y0000185000D03*
X0000240630Y0000275000D03*
X0000240630Y0000285000D03*
X0000250630Y0000285000D03*
X0000250630Y0000295000D03*
X0000240630Y0000295000D03*
X0000240630Y0000305000D03*
X0000250630Y0000305000D03*
X0000250630Y0000315000D03*
X0000240630Y0000315000D03*
X0000240630Y0000330000D03*
X0000250630Y0000330000D03*
X0000250630Y0000350000D03*
X0000240630Y0000350000D03*
X0000250630Y0000360000D03*
X0000240630Y0000385000D03*
X0000240630Y0000375000D03*
X0000250630Y0000385000D03*
X0000250630Y0000375000D03*
X0000240630Y0000435000D03*
X0000250630Y0000435000D03*
X0000266630Y0000004000D03*
X0000254130Y0000004000D03*
X0000258130Y0000004000D03*
X0000262130Y0000004000D03*
X0000266630Y0000007150D03*
X0000265130Y0000017000D03*
X0000269130Y0000017000D03*
X0000269130Y0000021000D03*
X0000254130Y0000007150D03*
X0000258130Y0000007150D03*
X0000262130Y0000007150D03*
X0000269130Y0000025000D03*
X0000265130Y0000025000D03*
X0000269130Y0000028500D03*
X0000266500Y0000054000D03*
X0000266500Y0000050500D03*
X0000266500Y0000047000D03*
X0000260630Y0000100000D03*
X0000256130Y0000110500D03*
X0000252630Y0000118500D03*
X0000260630Y0000225000D03*
X0000265630Y0000225000D03*
X0000260630Y0000295000D03*
X0000260630Y0000315000D03*
X0000260630Y0000305000D03*
X0000260630Y0000330000D03*
X0000260630Y0000350000D03*
X0000260630Y0000360000D03*
X0000260630Y0000375000D03*
X0000260630Y0000385000D03*
X0000260630Y0000405000D03*
X0000265630Y0000405000D03*
X0000260630Y0000395000D03*
X0000256630Y0000406500D03*
X0000256630Y0000410500D03*
X0000253130Y0000420000D03*
X0000260630Y0000420000D03*
X0000260630Y0000410000D03*
X0000265630Y0000410000D03*
X0000253130Y0000425000D03*
X0000260630Y0000425000D03*
X0000260630Y0000435000D03*
X0000270630Y0000004000D03*
X0000274630Y0000004000D03*
X0000280630Y0000005000D03*
X0000270630Y0000007150D03*
X0000274630Y0000007150D03*
X0000274630Y0000012000D03*
X0000274630Y0000015500D03*
X0000282244Y0000012000D03*
X0000279016Y0000012114D03*
X0000285200Y0000031100D03*
X0000285130Y0000026000D03*
X0000285630Y0000037500D03*
X0000284130Y0000045500D03*
X0000285130Y0000056500D03*
X0000272610Y0000057980D03*
X0000278630Y0000045500D03*
X0000285130Y0000062000D03*
X0000269730Y0000061700D03*
X0000273730Y0000061100D03*
X0000272430Y0000064100D03*
X0000275130Y0000070614D03*
X0000284630Y0000099500D03*
X0000270630Y0000215000D03*
X0000280630Y0000210000D03*
X0000270630Y0000220000D03*
X0000281630Y0000300000D03*
X0000281630Y0000291000D03*
X0000270630Y0000295000D03*
X0000278000Y0000316000D03*
X0000281630Y0000310000D03*
X0000270630Y0000305000D03*
X0000278000Y0000323000D03*
X0000271000Y0000329500D03*
X0000274700Y0000329500D03*
X0000278500Y0000329500D03*
X0000285630Y0000350000D03*
X0000285630Y0000340000D03*
X0000270630Y0000385000D03*
X0000270630Y0000375000D03*
X0000280630Y0000375000D03*
X0000280630Y0000385000D03*
X0000280630Y0000405000D03*
X0000270630Y0000395000D03*
X0000275630Y0000400000D03*
X0000285630Y0000390000D03*
X0000280630Y0000415000D03*
X0000270630Y0000420000D03*
X0000280630Y0000425000D03*
X0000280630Y0000435000D03*
X0000270630Y0000425000D03*
X0000270630Y0000435000D03*
X0000290630Y0000005000D03*
X0000300630Y0000005000D03*
X0000296130Y0000020500D03*
X0000300630Y0000015000D03*
X0000290630Y0000015000D03*
X0000300130Y0000031500D03*
X0000300130Y0000026000D03*
X0000295500Y0000039800D03*
X0000296100Y0000031300D03*
X0000299630Y0000041000D03*
X0000299630Y0000038000D03*
X0000292744Y0000045500D03*
X0000299600Y0000043800D03*
X0000287130Y0000070614D03*
X0000288000Y0000066000D03*
X0000297630Y0000070500D03*
X0000293630Y0000070500D03*
X0000301300Y0000070500D03*
X0000290630Y0000105000D03*
X0000300630Y0000115000D03*
X0000290630Y0000115000D03*
X0000290130Y0000219500D03*
X0000290130Y0000226000D03*
X0000290130Y0000232500D03*
X0000290130Y0000245185D03*
X0000290130Y0000239185D03*
X0000289945Y0000250185D03*
X0000290130Y0000255685D03*
X0000300854Y0000261185D03*
X0000300630Y0000291000D03*
X0000300630Y0000300000D03*
X0000290630Y0000300000D03*
X0000290630Y0000291000D03*
X0000290630Y0000310000D03*
X0000295630Y0000340000D03*
X0000290630Y0000345000D03*
X0000295630Y0000345000D03*
X0000300630Y0000370000D03*
X0000295630Y0000360000D03*
X0000290630Y0000375000D03*
X0000299130Y0000382500D03*
X0000300630Y0000395000D03*
X0000290630Y0000395000D03*
X0000300630Y0000405000D03*
X0000290630Y0000405000D03*
X0000290630Y0000415000D03*
X0000300630Y0000415000D03*
X0000290630Y0000425000D03*
X0000300630Y0000425000D03*
X0000290630Y0000435000D03*
X0000300630Y0000435000D03*
X0000310630Y0000005000D03*
X0000320630Y0000005000D03*
X0000320630Y0000015000D03*
X0000310630Y0000015000D03*
X0000310630Y0000025000D03*
X0000310630Y0000035000D03*
X0000308630Y0000054000D03*
X0000308630Y0000049000D03*
X0000308630Y0000044000D03*
X0000314130Y0000049000D03*
X0000314130Y0000044000D03*
X0000319630Y0000049000D03*
X0000319630Y0000044000D03*
X0000314500Y0000056500D03*
X0000320000Y0000056000D03*
X0000307000Y0000063000D03*
X0000312630Y0000092000D03*
X0000307630Y0000092000D03*
X0000316000Y0000085500D03*
X0000321000Y0000090000D03*
X0000315630Y0000095000D03*
X0000318630Y0000221500D03*
X0000318630Y0000217500D03*
X0000307130Y0000232185D03*
X0000307130Y0000225000D03*
X0000307130Y0000240185D03*
X0000307130Y0000248000D03*
X0000310630Y0000262500D03*
X0000307315Y0000256185D03*
X0000310630Y0000268685D03*
X0000314130Y0000294500D03*
X0000314130Y0000289000D03*
X0000309630Y0000300000D03*
X0000314130Y0000300000D03*
X0000309630Y0000289000D03*
X0000309630Y0000294500D03*
X0000318130Y0000309500D03*
X0000318337Y0000313793D03*
X0000321130Y0000312783D03*
X0000321130Y0000309283D03*
X0000318130Y0000325500D03*
X0000318130Y0000331500D03*
X0000318327Y0000319697D03*
X0000321130Y0000321094D03*
X0000321130Y0000324594D03*
X0000320630Y0000350000D03*
X0000310000Y0000350000D03*
X0000320500Y0000340000D03*
X0000310000Y0000340000D03*
X0000320630Y0000360000D03*
X0000310630Y0000360000D03*
X0000310630Y0000370000D03*
X0000320630Y0000370000D03*
X0000319130Y0000382500D03*
X0000309130Y0000382500D03*
X0000320630Y0000395000D03*
X0000310630Y0000395000D03*
X0000320630Y0000405000D03*
X0000310630Y0000405000D03*
X0000310630Y0000415000D03*
X0000320630Y0000415000D03*
X0000310630Y0000425000D03*
X0000320630Y0000425000D03*
X0000310630Y0000435000D03*
X0000320630Y0000435000D03*
X0000335630Y0000035000D03*
X0000325630Y0000049000D03*
X0000325630Y0000044000D03*
X0000335630Y0000050000D03*
X0000331000Y0000055500D03*
X0000338500Y0000055500D03*
X0000325500Y0000057000D03*
X0000335630Y0000085000D03*
X0000325000Y0000085000D03*
X0000329500Y0000090000D03*
X0000335630Y0000095000D03*
X0000325630Y0000095000D03*
X0000335630Y0000105000D03*
X0000325630Y0000105000D03*
X0000322130Y0000119000D03*
X0000330130Y0000119000D03*
X0000326130Y0000119000D03*
X0000333630Y0000119000D03*
X0000322130Y0000128000D03*
X0000326130Y0000128000D03*
X0000330130Y0000128000D03*
X0000321630Y0000142500D03*
X0000331630Y0000142500D03*
X0000331630Y0000136500D03*
X0000327130Y0000159000D03*
X0000332500Y0000159000D03*
X0000332500Y0000154000D03*
X0000330630Y0000175000D03*
X0000325350Y0000175650D03*
X0000330630Y0000185000D03*
X0000330630Y0000195000D03*
X0000330630Y0000205000D03*
X0000330630Y0000215000D03*
X0000322630Y0000221500D03*
X0000322630Y0000217500D03*
X0000330630Y0000250000D03*
X0000330630Y0000260000D03*
X0000331000Y0000289000D03*
X0000326000Y0000289000D03*
X0000328500Y0000285000D03*
X0000329000Y0000296000D03*
X0000329000Y0000302166D03*
X0000328630Y0000313793D03*
X0000329130Y0000308000D03*
X0000326130Y0000303378D03*
X0000325630Y0000318689D03*
X0000326130Y0000306878D03*
X0000325630Y0000315189D03*
X0000328630Y0000325604D03*
X0000328638Y0000319697D03*
X0000328638Y0000331508D03*
X0000325630Y0000330500D03*
X0000325630Y0000327000D03*
X0000330630Y0000350000D03*
X0000330630Y0000340000D03*
X0000330630Y0000360000D03*
X0000330630Y0000370000D03*
X0000330630Y0000395000D03*
X0000330630Y0000405000D03*
X0000330630Y0000415000D03*
X0000345630Y0000035000D03*
X0000345630Y0000050000D03*
X0000340000Y0000042500D03*
X0000348500Y0000043500D03*
X0000345630Y0000060000D03*
X0000351000Y0000060500D03*
X0000341000Y0000064500D03*
X0000348500Y0000065000D03*
X0000340500Y0000072000D03*
X0000345630Y0000085000D03*
X0000341000Y0000078000D03*
X0000348500Y0000078500D03*
X0000345630Y0000095000D03*
X0000345630Y0000105000D03*
X0000350500Y0000125000D03*
X0000345630Y0000115000D03*
X0000342500Y0000122500D03*
X0000349500Y0000122000D03*
X0000340000Y0000111500D03*
X0000349500Y0000111500D03*
X0000343480Y0000141983D03*
X0000339980Y0000141983D03*
X0000339980Y0000136483D03*
X0000351000Y0000142144D03*
X0000351000Y0000137419D03*
X0000343480Y0000136483D03*
X0000351000Y0000162000D03*
X0000344200Y0000161024D03*
X0000339980Y0000147483D03*
X0000343630Y0000157500D03*
X0000343480Y0000147483D03*
X0000343500Y0000153000D03*
X0000340000Y0000157500D03*
X0000351000Y0000149500D03*
X0000351000Y0000155500D03*
X0000351000Y0000158662D03*
X0000340000Y0000153000D03*
X0000350500Y0000166159D03*
X0000342500Y0000166142D03*
X0000350630Y0000175000D03*
X0000340630Y0000175000D03*
X0000340630Y0000185000D03*
X0000350630Y0000185000D03*
X0000340630Y0000195000D03*
X0000350630Y0000195000D03*
X0000340630Y0000205000D03*
X0000350630Y0000205000D03*
X0000340630Y0000215000D03*
X0000350630Y0000215000D03*
X0000350630Y0000225000D03*
X0000340000Y0000222500D03*
X0000350630Y0000235000D03*
X0000340630Y0000235000D03*
X0000340630Y0000245000D03*
X0000350630Y0000245000D03*
X0000350630Y0000260000D03*
X0000340630Y0000260000D03*
X0000340500Y0000266000D03*
X0000350630Y0000270000D03*
X0000350630Y0000280000D03*
X0000350630Y0000290000D03*
X0000350630Y0000300000D03*
X0000350630Y0000310000D03*
X0000350630Y0000320000D03*
X0000350630Y0000330000D03*
X0000340630Y0000330000D03*
X0000350630Y0000340000D03*
X0000350630Y0000350000D03*
X0000340630Y0000350000D03*
X0000350630Y0000360000D03*
X0000340630Y0000360000D03*
X0000350630Y0000370000D03*
X0000340630Y0000370000D03*
X0000340630Y0000375000D03*
X0000340630Y0000385000D03*
X0000350630Y0000385000D03*
X0000340630Y0000405000D03*
X0000350630Y0000405000D03*
X0000340130Y0000395000D03*
X0000350130Y0000395000D03*
X0000340630Y0000415000D03*
X0000350630Y0000415000D03*
X0000350630Y0000425000D03*
G54D12*
X0000006224Y0000250664D03*
X0000006224Y0000284679D03*
X0000021185Y0000250664D03*
X0000021185Y0000284679D03*
G54D13*
X0000005368Y0000321457D03*
X0000005368Y0000345867D03*
X0000018596Y0000321457D03*
X0000018596Y0000345867D03*
G54D14*
X0000013398Y0000381783D03*
X0000013398Y0000401468D03*
G54D15*
X0000043307Y0000161024D03*
X0000043307Y0000212599D03*
G54D16*
X0000047637Y0000173031D03*
X0000047637Y0000190748D03*
X0000047637Y0000182874D03*
X0000047637Y0000200591D03*
G54D17*
X0000166929Y0000361811D03*
G54D18*
X0000166929Y0000098819D03*
G54D19*
X0000273228Y0000109055D03*
X0000273228Y0000351575D03*
M02*
