G04 ================== begin FILE IDENTIFICATION RECORD ==================*
G04 Layout Name:  C:/Users/rock/Documents/Work/ZHG/CutiePi_V1_2/CutiePi_V1_2.brd*
G04 Film Name:    GND02*
G04 File Format:  Gerber RS274X*
G04 File Origin:  Cadence Allegro 17.2-S058*
G04 Origin Date:  Tue Mar 10 17:29:52 2020*
G04 *
G04 Layer:  ETCH/GND02*
G04 Layer:  PIN/GND02*
G04 Layer:  VIA CLASS/GND02*
G04 *
G04 Offset:    (0.000 0.000)*
G04 Mirror:    No*
G04 Mode:      Positive*
G04 Rotation:  0*
G04 FullContactRelief:  No*
G04 UndefLineWidth:     6.000*
G04 ================== end FILE IDENTIFICATION RECORD ====================*
%FSAX55Y55*MOIN*%
%IR0*IPPOS*OFA0.00000B0.00000*MIA0B0*SFA1.00000B1.00000*%
%ADD15C,.1*%
%ADD13O,.100394X.059055*%
%ADD11C,.02*%
%ADD16C,.06*%
%ADD17R,.06X.06*%
%ADD18C,.03937*%
%ADD14O,.047244X.055118*%
%ADD12O,.066929X.043307*%
%ADD10C,.019689*%
%ADD19C,.025*%
%ADD27C,.220624*%
%ADD26C,.220482*%
%ADD22O,.040004X.070004*%
%ADD24O,.040004X.080004*%
%ADD25O,.040004X.075004*%
%ADD30C,.032004*%
%ADD31C,.070004*%
%ADD28C,.059316*%
%ADD23O,.040004X.079529*%
%ADD21O,.057248X.065122*%
%ADD20O,.067248X.075122*%
%ADD29C,.078992*%
G75*
%LPD*%
G75*
G36*
G01X0000169130Y0000450755D02*
X0000332768Y0000450755D01*
G02X0000332929Y0000449989I0J-0000000400D01*
G03X0000351600Y0000431319I0000005690J-0000012981D01*
G02X0000352367Y0000431158I0000000366J-0000000161D01*
G01X0000352367Y0000163751D01*
G02X0000351773Y0000163401I-0000000400J0D01*
G03X0000351000Y0000163600I-0000000773J-0000001401D01*
G03X0000349400Y0000162000I0J-0000001600D01*
G03X0000350118Y0000160665I0000001600J0D01*
G02X0000350118Y0000159997I-0000000221J-0000000334D01*
G03X0000349400Y0000158662I0000000882J-0000001335D01*
G03X0000351000Y0000157062I0000001600J0D01*
G03X0000351773Y0000157261I0J0000001600D01*
G02X0000352367Y0000156911I0000000193J-0000000350D01*
G01X0000352367Y0000021597D01*
G02X0000351600Y0000021437I-0000000400J0D01*
G03X0000332929Y0000002767I-0000012982J-0000005689D01*
G02X0000332769Y0000002000I-0000000161J-0000000366D01*
G01X0000263331Y0000002000D01*
G02X0000263091Y0000002720I0J0000000400D01*
G03X0000263730Y0000004000I-0000000961J0000001280D01*
G03X0000263116Y0000005260I-0000001600J0D01*
G02X0000263116Y0000005890I0000000247J0000000315D01*
G03X0000263730Y0000007150I-0000000986J0000001260D01*
G03X0000260530Y0000007150I-0000001600J0D01*
G03X0000261144Y0000005890I0000001600J0D01*
G02X0000261144Y0000005260I-0000000247J-0000000315D01*
G03X0000260530Y0000004000I0000000986J-0000001260D01*
G03X0000261169Y0000002720I0000001600J0D01*
G02X0000260929Y0000002000I-0000000240J-0000000320D01*
G01X0000259331Y0000002000D01*
G02X0000259091Y0000002720I0J0000000400D01*
G03X0000259730Y0000004000I-0000000961J0000001280D01*
G03X0000259116Y0000005260I-0000001600J0D01*
G02X0000259116Y0000005890I0000000247J0000000315D01*
G03X0000259730Y0000007150I-0000000986J0000001260D01*
G03X0000256530Y0000007150I-0000001600J0D01*
G03X0000257144Y0000005890I0000001600J0D01*
G02X0000257144Y0000005260I-0000000247J-0000000315D01*
G03X0000256530Y0000004000I0000000986J-0000001260D01*
G03X0000257169Y0000002720I0000001600J0D01*
G02X0000256929Y0000002000I-0000000240J-0000000320D01*
G01X0000255331Y0000002000D01*
G02X0000255091Y0000002720I0J0000000400D01*
G03X0000255730Y0000004000I-0000000961J0000001280D01*
G03X0000255116Y0000005260I-0000001600J0D01*
G02X0000255116Y0000005890I0000000247J0000000315D01*
G03X0000255730Y0000007150I-0000000986J0000001260D01*
G03X0000252530Y0000007150I-0000001600J0D01*
G03X0000253144Y0000005890I0000001600J0D01*
G02X0000253144Y0000005260I-0000000247J-0000000315D01*
G03X0000252530Y0000004000I0000000986J-0000001260D01*
G03X0000253169Y0000002720I0000001600J0D01*
G02X0000252929Y0000002000I-0000000240J-0000000320D01*
G01X0000250831Y0000002000D01*
G02X0000250591Y0000002720I0J0000000400D01*
G03X0000251230Y0000004000I-0000000961J0000001280D01*
G03X0000250616Y0000005260I-0000001600J0D01*
G02X0000250616Y0000005890I0000000247J0000000315D01*
G03X0000251230Y0000007150I-0000000986J0000001260D01*
G03X0000248030Y0000007150I-0000001600J0D01*
G03X0000248644Y0000005890I0000001600J0D01*
G02X0000248644Y0000005260I-0000000247J-0000000315D01*
G03X0000248030Y0000004000I0000000986J-0000001260D01*
G03X0000248669Y0000002720I0000001600J0D01*
G02X0000248429Y0000002000I-0000000240J-0000000320D01*
G01X0000246831Y0000002000D01*
G02X0000246591Y0000002720I0J0000000400D01*
G03X0000247230Y0000004000I-0000000961J0000001280D01*
G03X0000246616Y0000005260I-0000001600J0D01*
G02X0000246616Y0000005890I0000000247J0000000315D01*
G03X0000247230Y0000007150I-0000000986J0000001260D01*
G03X0000244030Y0000007150I-0000001600J0D01*
G03X0000244644Y0000005890I0000001600J0D01*
G02X0000244644Y0000005260I-0000000247J-0000000315D01*
G03X0000244030Y0000004000I0000000986J-0000001260D01*
G03X0000244669Y0000002720I0000001600J0D01*
G02X0000244429Y0000002000I-0000000240J-0000000320D01*
G01X0000242831Y0000002000D01*
G02X0000242591Y0000002720I0J0000000400D01*
G03X0000243230Y0000004000I-0000000961J0000001280D01*
G03X0000242616Y0000005260I-0000001600J0D01*
G02X0000242616Y0000005890I0000000247J0000000315D01*
G03X0000243230Y0000007150I-0000000986J0000001260D01*
G03X0000240030Y0000007150I-0000001600J0D01*
G03X0000240644Y0000005890I0000001600J0D01*
G02X0000240644Y0000005260I-0000000247J-0000000315D01*
G03X0000240030Y0000004000I0000000986J-0000001260D01*
G03X0000240669Y0000002720I0000001600J0D01*
G02X0000240429Y0000002000I-0000000240J-0000000320D01*
G01X0000021597Y0000002000D01*
G02X0000021437Y0000002767I0J0000000400D01*
G03X0000002767Y0000021437I-0000005689J0000012981D01*
G02X0000002000Y0000021597I-0000000366J0000000161D01*
G01X0000002000Y0000146504D01*
X0000002000Y0000155000D01*
G02X0000005000Y0000158000I0000003000J0D01*
G01X0000031130Y0000158000D01*
G03X0000037068Y0000161293I0J0000007000D01*
G02X0000037807Y0000161077I0000000339J-0000000212D01*
G03X0000037807Y0000161024I0000005500J-0000000058D01*
G03X0000043307Y0000166524I0000005500J0D01*
G03X0000038836Y0000164227I0J-0000005500D01*
G02X0000038111Y0000164489I-0000000325J0000000233D01*
G03X0000038130Y0000165000I-0000006981J0000000511D01*
G01X0000038130Y0000208500D01*
G03X0000038101Y0000209142I-0000007000J0D01*
G02X0000038825Y0000209411I0000000398J0000000037D01*
G03X0000043307Y0000207098I0000004482J0000003188D01*
G03X0000037807Y0000212599I0J0000005500D01*
G03X0000037810Y0000212428I0000005500J0000000001D01*
G02X0000037070Y0000212203I-0000000400J-0000000013D01*
G03X0000031130Y0000215500I-0000005940J-0000003703D01*
G01X0000005000Y0000215500D01*
G02X0000002000Y0000218500I0J0000003000D01*
G01X0000002000Y0000224473D01*
X0000002000Y0000249110D01*
G02X0000002745Y0000249313I0000000400J0D01*
G03X0000005043Y0000247998I0000002298J0000001351D01*
G01X0000007406Y0000247998D01*
G03X0000007406Y0000253329I0J0000002666D01*
G01X0000005043Y0000253329D01*
G03X0000002745Y0000252014I0J-0000002666D01*
G02X0000002000Y0000252217I-0000000345J0000000203D01*
G01X0000002000Y0000283126D01*
G02X0000002745Y0000283329I0000000400J0D01*
G03X0000005043Y0000282014I0000002298J0000001351D01*
G01X0000007406Y0000282014D01*
G03X0000007406Y0000287345I0J0000002666D01*
G01X0000005043Y0000287345D01*
G03X0000002745Y0000286030I0J-0000002666D01*
G02X0000002000Y0000286233I-0000000345J0000000203D01*
G01X0000002000Y0000317711D01*
G02X0000002494Y0000318100I0000000400J0D01*
G03X0000003301Y0000318004I0000000807J0000003357D01*
G01X0000007435Y0000318004D01*
G03X0000007435Y0000324910I0J0000003453D01*
G01X0000003301Y0000324910D01*
G03X0000002494Y0000324814I0J-0000003453D01*
G02X0000002000Y0000325203I-0000000093J0000000389D01*
G01X0000002000Y0000342120D01*
G02X0000002494Y0000342509I0000000400J0D01*
G03X0000003301Y0000342414I0000000807J0000003357D01*
G01X0000007435Y0000342414D01*
G03X0000007435Y0000349320I0J0000003453D01*
G01X0000003301Y0000349320D01*
G03X0000002494Y0000349224I0J-0000003453D01*
G02X0000002000Y0000349613I-0000000093J0000000389D01*
G01X0000002000Y0000428000D01*
X0000004805Y0000428000D01*
X0000004865Y0000427928D01*
G03X0000026690Y0000428000I0000010883J0000009080D01*
G01X0000107630Y0000428000D01*
X0000113130Y0000422500D01*
X0000113160Y0000422500D01*
X0000113160Y0000395189D01*
X0000113130Y0000395189D01*
X0000113130Y0000394000D01*
X0000113630Y0000393500D01*
X0000113630Y0000385677D01*
X0000118630Y0000385677D01*
X0000118630Y0000393388D01*
X0000119243Y0000394000D01*
X0000119243Y0000395189D01*
X0000119160Y0000395189D01*
X0000119160Y0000421500D01*
X0000120130Y0000422470D01*
X0000120130Y0000422500D01*
X0000121630Y0000424000D01*
X0000121630Y0000428000D01*
X0000169130Y0000428000D01*
X0000169130Y0000450755D01*
G37*
%LPC*%
G75*
G36*
G01X0000016529Y0000349320D02*
X0000020663Y0000349320D01*
G02X0000020663Y0000342414I0J-0000003453D01*
G01X0000016529Y0000342414D01*
G02X0000016529Y0000349320I0J0000003453D01*
G37*
G36*
G01X0000016529Y0000324910D02*
X0000020663Y0000324910D01*
G02X0000020663Y0000318004I0J-0000003453D01*
G01X0000016529Y0000318004D01*
G02X0000016529Y0000324910I0J0000003453D01*
G37*
G36*
G01X0000020004Y0000253329D02*
X0000022366Y0000253329D01*
G02X0000022366Y0000247998I0J-0000002665D01*
G01X0000020004Y0000247998D01*
G02X0000020004Y0000253329I0J0000002666D01*
G37*
G36*
G01X0000020004Y0000287345D02*
X0000022366Y0000287345D01*
G02X0000022366Y0000282014I0J-0000002665D01*
G01X0000020004Y0000282014D01*
G02X0000020004Y0000287345I0J0000002666D01*
G37*
G36*
G01X0000043637Y0000197591D02*
X0000043637Y0000203591D01*
G02X0000044637Y0000204591I0000001000J0D01*
G01X0000050637Y0000204591D01*
G02X0000051638Y0000203591I0J-0000001000D01*
G01X0000051638Y0000197591D01*
G02X0000050637Y0000196591I-0000001000J0D01*
G01X0000044637Y0000196591D01*
G02X0000043637Y0000197591I0J0000001000D01*
G37*
G36*
G01X0000298475Y0000042108D02*
G03X0000298469Y0000042668I-0000000289J0000000277D01*
G02X0000298000Y0000043800I0000001131J0000001132D01*
G02X0000301200Y0000043800I0000001600J0D01*
G02X0000300755Y0000042692I-0000001600J0D01*
G03X0000300761Y0000042132I0000000289J-0000000277D01*
G02X0000301230Y0000041000I-0000001131J-0000001132D01*
G02X0000300689Y0000039800I-0000001600J0D01*
G03X0000300689Y0000039200I0000000265J-0000000300D01*
G02X0000301230Y0000038000I-0000001059J-0000001200D01*
G02X0000298030Y0000038000I-0000001600J0D01*
G02X0000298571Y0000039200I0000001600J0D01*
G03X0000298571Y0000039800I-0000000265J0000000300D01*
G02X0000298030Y0000041000I0000001059J0000001200D01*
G02X0000298475Y0000042108I0000001600J0D01*
G37*
G36*
G01X0000343480Y0000134483D02*
X0000339980Y0000134483D01*
G02X0000339980Y0000138483I0J0000002000D01*
G01X0000343480Y0000138483D01*
G02X0000343480Y0000134483I0J-0000002000D01*
G37*
G36*
G01X0000343480Y0000139983D02*
X0000339980Y0000139983D01*
G02X0000339980Y0000143983I0J0000002000D01*
G01X0000343480Y0000143983D01*
G02X0000343480Y0000139983I0J-0000002000D01*
G37*
G36*
G01X0000343480Y0000145483D02*
X0000339980Y0000145483D01*
G02X0000339980Y0000149483I0J0000002000D01*
G01X0000343480Y0000149483D01*
G02X0000343480Y0000145483I0J-0000002000D01*
G37*
G36*
G01X0000343500Y0000151000D02*
X0000340000Y0000151000D01*
G02X0000340000Y0000155000I0J0000002000D01*
G01X0000343500Y0000155000D01*
G02X0000343500Y0000151000I0J-0000002000D01*
G37*
G36*
G01X0000342546Y0000159500D02*
G03X0000342876Y0000160125I0J0000000400D01*
G02X0000342600Y0000161024I0000001323J0000000899D01*
G02X0000345800Y0000161024I0000001600J0D01*
G02X0000345013Y0000159646I-0000001600J0D01*
G03X0000344952Y0000159001I0000000203J-0000000345D01*
G02X0000345630Y0000157500I-0000001322J-0000001501D01*
G02X0000343630Y0000155500I-0000002000J0D01*
G01X0000340000Y0000155500D01*
G02X0000340000Y0000159500I0J0000002000D01*
G01X0000342546Y0000159500D01*
G37*
G36*
G01X0000063930Y0000176941D02*
G03X0000063330Y0000176941I-0000000300J-0000000265D01*
G02X0000062130Y0000176400I-0000001200J0000001059D01*
G02X0000062130Y0000179600I0J0000001600D01*
G02X0000063330Y0000179059I0J-0000001600D01*
G03X0000063930Y0000179059I0000000300J0000000265D01*
G02X0000065130Y0000179600I0000001200J-0000001059D01*
G02X0000065130Y0000176400I0J-0000001600D01*
G02X0000063930Y0000176941I0J0000001600D01*
G37*
G36*
G01X0000045851Y0000186453D02*
G03X0000045851Y0000187169I-0000000179J0000000358D01*
G02X0000043637Y0000190748I0000001786J0000003579D01*
G02X0000051638Y0000190748I0000004000J0D01*
G02X0000049424Y0000187169I-0000004000J0D01*
G03X0000049424Y0000186453I0000000179J-0000000358D01*
G02X0000051446Y0000184098I-0000001786J-0000003579D01*
G03X0000052105Y0000183934I0000000381J0000000122D01*
G02X0000053500Y0000184500I0000001395J-0000001434D01*
G02X0000054864Y0000183963I0J-0000002000D01*
G03X0000055136Y0000183963I0000000136J0000000146D01*
G02X0000056500Y0000184500I0000001364J-0000001463D01*
G02X0000056500Y0000180500I0J-0000002000D01*
G02X0000055136Y0000181037I0J0000002000D01*
G03X0000054864Y0000181037I-0000000136J-0000000146D01*
G02X0000053500Y0000180500I-0000001364J0000001463D01*
G02X0000051934Y0000181255I0J0000002000D01*
G03X0000051259Y0000181176I-0000000313J-0000000249D01*
G02X0000047637Y0000178874I-0000003622J0000001698D01*
G02X0000043637Y0000182874I0J0000004000D01*
G02X0000045851Y0000186453I0000004000J0D01*
G37*
G36*
G01X0000131819Y0000193609D02*
X0000127901Y0000193609D01*
G02X0000127901Y0000197610I0J0000002000D01*
G01X0000131819Y0000197610D01*
G02X0000131819Y0000193609I0J-0000002000D01*
G37*
G36*
G01X0000200100Y0000199627D02*
X0000200130Y0000203008D01*
X0000200130Y0000203009D01*
G02X0000202130Y0000205000I0000002000J-0000000009D01*
G02X0000204130Y0000203000I0J-0000002000D01*
G02X0000204130Y0000202973I-0000002000J0000000002D01*
G01X0000204100Y0000199592D01*
X0000204100Y0000199591D01*
G02X0000202100Y0000197600I-0000002000J0000000009D01*
G02X0000200100Y0000199600I0J0000002000D01*
G02X0000200100Y0000199627I0000002000J-0000000002D01*
G37*
G36*
G01X0000124319Y0000208500D02*
X0000120401Y0000208500D01*
G02X0000120401Y0000212500I0J0000002000D01*
G01X0000124319Y0000212500D01*
G02X0000124319Y0000208500I0J-0000002000D01*
G37*
G36*
G01X0000133671Y0000208700D02*
G02X0000131700Y0000210700I0000000029J0000002000D01*
G02X0000133700Y0000212700I0000002000J0D01*
G01X0000133701Y0000212700D01*
G02X0000133729Y0000212700I0J-0000002000D01*
G01X0000137179Y0000212650D01*
G02X0000139150Y0000210650I-0000000029J-0000002000D01*
G02X0000137150Y0000208650I-0000002000J0D01*
G01X0000137149Y0000208650D01*
G02X0000137121Y0000208650I0J0000002000D01*
G01X0000133671Y0000208700D01*
G37*
G36*
G01X0000140319Y0000217179D02*
X0000136401Y0000217179D01*
G02X0000136401Y0000221180I0J0000002000D01*
G01X0000140319Y0000221180D01*
G02X0000140319Y0000217179I0J-0000002000D01*
G37*
G36*
G01X0000073166Y0000241740D02*
G03X0000073446Y0000242220I-0000000109J0000000385D01*
G02X0000073400Y0000242600I0000001554J0000000380D01*
G02X0000076600Y0000242600I0000001600J0D01*
G02X0000076554Y0000242220I-0000001600J0D01*
G03X0000076834Y0000241740I0000000389J-0000000095D01*
G02X0000078000Y0000240200I-0000000434J-0000001540D01*
G02X0000076400Y0000238600I-0000001600J0D01*
G02X0000075280Y0000239057I0J0000001600D01*
G03X0000074720Y0000239057I-0000000280J-0000000286D01*
G02X0000073600Y0000238600I-0000001120J0000001143D01*
G02X0000072000Y0000240200I0J0000001600D01*
G02X0000073166Y0000241740I0000001600J0D01*
G37*
G36*
G01X0000094071Y0000299200D02*
G03X0000094071Y0000299800I-0000000265J0000000300D01*
G02X0000093530Y0000301000I0000001059J0000001200D01*
G02X0000096730Y0000301000I0000001600J0D01*
G02X0000096189Y0000299800I-0000001600J0D01*
G03X0000096189Y0000299200I0000000265J-0000000300D01*
G02X0000096730Y0000298000I-0000001059J-0000001200D01*
G02X0000093530Y0000298000I-0000001600J0D01*
G02X0000094071Y0000299200I0000001600J0D01*
G37*
G36*
G01X0000030993Y0000331691D02*
G02X0000030300Y0000333205I0000001307J0000001514D01*
G01X0000030300Y0000336205D01*
G02X0000034300Y0000336205I0000002000J0D01*
G01X0000034300Y0000333205D01*
G02X0000033613Y0000331696I-0000002000J0D01*
G03X0000033614Y0000331092I0000000263J-0000000302D01*
G02X0000034308Y0000329578I-0000001307J-0000001514D01*
G01X0000034308Y0000326578D01*
G02X0000030307Y0000326578I-0000002000J0D01*
G01X0000030307Y0000329578D01*
G02X0000030994Y0000331086I0000002000J0D01*
G03X0000030993Y0000331691I-0000000263J0000000302D01*
G37*
G36*
G01X0000010402Y0000340647D02*
G03X0000010605Y0000341216I-0000000146J0000000373D01*
G02X0000010400Y0000342000I0000001395J0000000784D01*
G02X0000013600Y0000342000I0000001600J0D01*
G02X0000012809Y0000340619I-0000001600J0D01*
G03X0000012698Y0000340026I0000000202J-0000000345D01*
G02X0000013130Y0000338784I-0000001568J-0000001242D01*
G01X0000013130Y0000335784D01*
G02X0000012622Y0000334451I-0000002000J0D01*
G03X0000012622Y0000334185I0000000149J-0000000133D01*
G02X0000013130Y0000332853I-0000001492J-0000001332D01*
G01X0000013130Y0000329853D01*
G02X0000009130Y0000329853I-0000002000J0D01*
G01X0000009130Y0000332853D01*
G02X0000009638Y0000334185I0000002000J0D01*
G03X0000009638Y0000334451I-0000000149J0000000133D01*
G02X0000009130Y0000335784I0000001492J0000001332D01*
G01X0000009130Y0000338784D01*
G02X0000010402Y0000340647I0000002000J0D01*
G37*
G36*
G01X0000034571Y0000349197D02*
G03X0000033994Y0000349074I-0000000232J-0000000326D01*
G02X0000032614Y0000348286I-0000001379J0000000811D01*
G02X0000032614Y0000351486I0J0000001600D01*
G02X0000033544Y0000351188I0J-0000001600D01*
G03X0000034121Y0000351311I0000000232J0000000326D01*
G02X0000035500Y0000352100I0000001379J-0000000811D01*
G02X0000035500Y0000348900I0J-0000001600D01*
G02X0000034571Y0000349197I0J0000001600D01*
G37*
G36*
G01X0000331530Y0000118225D02*
G02X0000330130Y0000117400I-0000001400J0000000775D01*
G02X0000330130Y0000120600I0J0000001600D01*
G02X0000331530Y0000119775I0J-0000001600D01*
G03X0000332230Y0000119775I0000000350J0000000194D01*
G02X0000333630Y0000120600I0000001400J-0000000775D01*
G02X0000333630Y0000117400I0J-0000001600D01*
G02X0000332230Y0000118225I0J0000001600D01*
G03X0000331530Y0000118225I-0000000350J-0000000194D01*
G37*
G36*
G01X0000137355Y0000129600D02*
G02X0000136530Y0000131000I0000000775J0000001400D01*
G02X0000139730Y0000131000I0000001600J0D01*
G02X0000138905Y0000129600I-0000001600J0D01*
G03X0000138905Y0000128900I0000000194J-0000000350D01*
G02X0000139730Y0000127500I-0000000775J-0000001400D01*
G02X0000136530Y0000127500I-0000001600J0D01*
G02X0000137355Y0000128900I0000001600J0D01*
G03X0000137355Y0000129600I-0000000194J0000000350D01*
G37*
G36*
G01X0000141355Y0000129600D02*
G02X0000140530Y0000131000I0000000775J0000001400D01*
G02X0000143730Y0000131000I0000001600J0D01*
G02X0000142905Y0000129600I-0000001600J0D01*
G03X0000142905Y0000128900I0000000194J-0000000350D01*
G02X0000143730Y0000127500I-0000000775J-0000001400D01*
G02X0000140530Y0000127500I-0000001600J0D01*
G02X0000141355Y0000128900I0000001600J0D01*
G03X0000141355Y0000129600I-0000000194J0000000350D01*
G37*
G36*
G01X0000085530Y0000235225D02*
G02X0000084130Y0000234400I-0000001400J0000000775D01*
G02X0000084130Y0000237600I0J0000001600D01*
G02X0000085530Y0000236775I0J-0000001600D01*
G03X0000086230Y0000236775I0000000350J0000000194D01*
G02X0000087630Y0000237600I0000001400J-0000000775D01*
G02X0000087630Y0000234400I0J-0000001600D01*
G02X0000086230Y0000235225I0J0000001600D01*
G03X0000085530Y0000235225I-0000000350J-0000000194D01*
G37*
G36*
G01X0000175599Y0000329788D02*
G02X0000174971Y0000331059I0000000972J0000001271D01*
G02X0000178171Y0000331059I0000001600J0D01*
G02X0000177395Y0000329688I-0000001600J0D01*
G03X0000177358Y0000329027I0000000206J-0000000343D01*
G02X0000177986Y0000327756I-0000000972J-0000001271D01*
G02X0000174786Y0000327756I-0000001600J0D01*
G02X0000175562Y0000329128I0000001600J0D01*
G03X0000175599Y0000329788I-0000000206J0000000343D01*
G37*
G36*
G01X0000058400Y0000339225D02*
G02X0000057000Y0000338400I-0000001400J0000000775D01*
G02X0000057000Y0000341600I0J0000001600D01*
G02X0000058400Y0000340775I0J-0000001600D01*
G03X0000059100Y0000340775I0000000350J0000000194D01*
G02X0000060500Y0000341600I0000001400J-0000000775D01*
G02X0000060500Y0000338400I0J-0000001600D01*
G02X0000059100Y0000339225I0J0000001600D01*
G03X0000058400Y0000339225I-0000000350J-0000000194D01*
G37*
G36*
G01X0000084855Y0000359600D02*
G02X0000084030Y0000361000I0000000775J0000001400D01*
G02X0000087230Y0000361000I0000001600J0D01*
G02X0000086405Y0000359600I-0000001600J0D01*
G03X0000086405Y0000358900I0000000194J-0000000350D01*
G02X0000087230Y0000357500I-0000000775J-0000001400D01*
G02X0000084030Y0000357500I-0000001600J0D01*
G02X0000084855Y0000358900I0000001600J0D01*
G03X0000084855Y0000359600I-0000000194J0000000350D01*
G37*
G36*
G01X0000066843Y0000382607D02*
G02X0000066030Y0000384000I0000000787J0000001393D01*
G02X0000069230Y0000384000I0000001600J0D01*
G02X0000068393Y0000382593I-0000001600J0D01*
G03X0000068387Y0000381893I0000000191J-0000000352D01*
G02X0000069200Y0000380500I-0000000787J-0000001393D01*
G02X0000066000Y0000380500I-0000001600J0D01*
G02X0000066837Y0000381907I0000001600J0D01*
G03X0000066843Y0000382607I-0000000191J0000000352D01*
G37*
G36*
G01X0000024900Y0000394225D02*
G02X0000023500Y0000393400I-0000001400J0000000775D01*
G02X0000023500Y0000396600I0J0000001600D01*
G02X0000024900Y0000395775I0J-0000001600D01*
G03X0000025600Y0000395775I0000000350J0000000194D01*
G02X0000027000Y0000396600I0000001400J-0000000775D01*
G02X0000027000Y0000393400I0J-0000001600D01*
G02X0000025600Y0000394225I0J0000001600D01*
G03X0000024900Y0000394225I-0000000350J-0000000194D01*
G37*
G54D27*
X0000273228Y0000351575D03*
G54D26*
X0000273228Y0000109055D03*
G54D22*
X0000165630Y0000153000D03*
X0000160630Y0000160000D03*
X0000165630Y0000167173D03*
X0000160630Y0000174000D03*
X0000163130Y0000181346D03*
G54D24*
X0000201704Y0000217500D03*
G54D25*
X0000326130Y0000305128D03*
X0000321130Y0000311033D03*
X0000325630Y0000316939D03*
X0000321130Y0000322844D03*
X0000325630Y0000328750D03*
G54D30*
X0000161130Y0000137500D03*
X0000157130Y0000137598D03*
X0000161130Y0000142000D03*
X0000121130Y0000081500D03*
X0000125130Y0000081500D03*
X0000121130Y0000085500D03*
X0000125130Y0000085500D03*
X0000124630Y0000099500D03*
X0000120630Y0000103500D03*
X0000124630Y0000103500D03*
X0000120630Y0000099500D03*
X0000108130Y0000136500D03*
X0000106744Y0000212886D03*
X0000142130Y0000105000D03*
X0000138130Y0000105000D03*
X0000138130Y0000101000D03*
X0000162130Y0000258000D03*
X0000142130Y0000101000D03*
X0000275130Y0000070614D03*
X0000278000Y0000316000D03*
X0000314130Y0000289000D03*
X0000292744Y0000045500D03*
X0000180630Y0000383500D03*
X0000314130Y0000300000D03*
X0000309630Y0000300000D03*
X0000310630Y0000268685D03*
X0000300854Y0000261185D03*
X0000099130Y0000281500D03*
X0000331000Y0000289000D03*
X0000123630Y0000184000D03*
X0000278630Y0000045500D03*
X0000290130Y0000255685D03*
X0000194630Y0000410500D03*
X0000278000Y0000323000D03*
X0000310630Y0000262500D03*
X0000290130Y0000226000D03*
X0000318630Y0000221500D03*
X0000322130Y0000128000D03*
X0000326130Y0000128000D03*
X0000330130Y0000128000D03*
X0000285630Y0000037500D03*
X0000285130Y0000026000D03*
X0000322130Y0000119000D03*
X0000326130Y0000119000D03*
X0000296100Y0000031300D03*
X0000237630Y0000050500D03*
X0000237630Y0000055500D03*
X0000232687Y0000050557D03*
X0000232687Y0000055557D03*
X0000300130Y0000031500D03*
X0000314130Y0000294500D03*
X0000309630Y0000294500D03*
X0000309630Y0000289000D03*
X0000290130Y0000245185D03*
X0000325350Y0000175650D03*
X0000076000Y0000112000D03*
X0000083130Y0000284500D03*
X0000145130Y0000328937D03*
X0000104130Y0000086500D03*
X0000279016Y0000012114D03*
X0000124516Y0000252886D03*
X0000075630Y0000076500D03*
X0000108630Y0000113000D03*
X0000090630Y0000192000D03*
X0000090790Y0000188340D03*
X0000067000Y0000112000D03*
X0000074630Y0000117500D03*
X0000075630Y0000072500D03*
X0000203630Y0000017000D03*
X0000238630Y0000081114D03*
X0000104130Y0000117500D03*
X0000071130Y0000076500D03*
X0000108630Y0000117500D03*
X0000211630Y0000017000D03*
X0000203630Y0000021000D03*
X0000207630Y0000021000D03*
X0000211630Y0000021000D03*
X0000071130Y0000072500D03*
X0000099630Y0000117500D03*
X0000207630Y0000017000D03*
X0000066630Y0000076500D03*
X0000052630Y0000251500D03*
X0000157630Y0000258071D03*
X0000066630Y0000072500D03*
X0000098630Y0000328000D03*
X0000116630Y0000227000D03*
X0000117130Y0000056500D03*
X0000117130Y0000052500D03*
X0000093108Y0000236000D03*
X0000210630Y0000048000D03*
X0000161630Y0000345500D03*
X0000210630Y0000044000D03*
X0000215630Y0000048000D03*
X0000215630Y0000044000D03*
X0000121130Y0000056500D03*
X0000208630Y0000390500D03*
X0000121130Y0000052500D03*
X0000125130Y0000056500D03*
X0000125130Y0000052500D03*
X0000109630Y0000076000D03*
X0000067630Y0000117500D03*
X0000070130Y0000132000D03*
X0000104130Y0000113000D03*
X0000211630Y0000422500D03*
X0000121130Y0000231000D03*
X0000156630Y0000074500D03*
X0000156630Y0000078500D03*
X0000161630Y0000331500D03*
X0000093130Y0000328000D03*
X0000105630Y0000361500D03*
X0000079638Y0000280992D03*
X0000152630Y0000078500D03*
X0000152630Y0000074500D03*
X0000048630Y0000255500D03*
X0000121130Y0000227000D03*
X0000090549Y0000238581D03*
X0000077744Y0000274386D03*
X0000116630Y0000231000D03*
X0000095667Y0000238537D03*
X0000048630Y0000251500D03*
X0000084130Y0000232000D03*
X0000052630Y0000255500D03*
X0000189618Y0000280512D03*
X0000090630Y0000372500D03*
X0000193630Y0000332500D03*
X0000140130Y0000362500D03*
X0000144630Y0000362500D03*
X0000090630Y0000365000D03*
X0000053500Y0000324500D03*
X0000085630Y0000365000D03*
X0000073630Y0000378500D03*
X0000085630Y0000372693D03*
X0000140130Y0000358000D03*
X0000101130Y0000361500D03*
X0000166630Y0000284500D03*
X0000102044Y0000337086D03*
X0000194130Y0000342000D03*
X0000091630Y0000401500D03*
X0000067744Y0000348886D03*
X0000162130Y0000269500D03*
X0000095630Y0000337000D03*
X0000162130Y0000284500D03*
X0000194630Y0000311000D03*
X0000140130Y0000324000D03*
X0000208630Y0000396500D03*
X0000194130Y0000275500D03*
X0000207630Y0000422500D03*
X0000290130Y0000219500D03*
X0000189630Y0000315945D03*
X0000327130Y0000159000D03*
X0000162130Y0000274500D03*
X0000162130Y0000263000D03*
X0000194130Y0000261500D03*
X0000144630Y0000358000D03*
X0000189630Y0000266339D03*
X0000093630Y0000158000D03*
X0000157683Y0000274553D03*
X0000162000Y0000251000D03*
X0000157630Y0000279331D03*
X0000157130Y0000345472D03*
X0000175130Y0000265000D03*
X0000157630Y0000238000D03*
X0000161630Y0000338500D03*
X0000176630Y0000383500D03*
X0000189559Y0000341929D03*
X0000157528Y0000243898D03*
X0000189630Y0000337205D03*
X0000145130Y0000324213D03*
X0000326000Y0000289000D03*
X0000157130Y0000352559D03*
X0000205130Y0000254500D03*
X0000194630Y0000280500D03*
X0000157331Y0000331299D03*
X0000189567Y0000271063D03*
X0000194400Y0000266300D03*
X0000157130Y0000338386D03*
X0000140130Y0000317126D03*
X0000126130Y0000297114D03*
X0000194130Y0000254500D03*
X0000166630Y0000279500D03*
X0000199130Y0000254500D03*
X0000126130Y0000306386D03*
X0000289945Y0000250185D03*
X0000170500Y0000288780D03*
X0000152500Y0000063500D03*
X0000328500Y0000285000D03*
X0000297630Y0000070500D03*
X0000152630Y0000070500D03*
X0000049630Y0000315500D03*
X0000101500Y0000022000D03*
X0000166500Y0000312500D03*
X0000045630Y0000315500D03*
X0000322630Y0000217500D03*
X0000293630Y0000070500D03*
X0000278500Y0000329500D03*
X0000055500Y0000083500D03*
X0000049630Y0000311000D03*
X0000088000Y0000158000D03*
X0000093130Y0000285500D03*
X0000271000Y0000329500D03*
X0000318630Y0000217500D03*
X0000322630Y0000221500D03*
X0000180630Y0000387500D03*
X0000156630Y0000070500D03*
X0000045630Y0000311000D03*
X0000057500Y0000090000D03*
X0000176630Y0000387500D03*
X0000096500Y0000031500D03*
X0000037500Y0000342000D03*
X0000052000Y0000076500D03*
X0000045000Y0000346000D03*
X0000060900Y0000349900D03*
X0000031500Y0000305000D03*
X0000071000Y0000198500D03*
X0000131000Y0000345500D03*
X0000274700Y0000329500D03*
X0000079000Y0000067000D03*
X0000065000Y0000218500D03*
X0000144000Y0000286417D03*
X0000075000Y0000202500D03*
X0000090549Y0000271000D03*
X0000046500Y0000083000D03*
X0000069000Y0000218500D03*
X0000046500Y0000090000D03*
X0000075000Y0000198500D03*
X0000120508Y0000021508D03*
X0000101500Y0000031500D03*
X0000027000Y0000401468D03*
X0000071886Y0000063500D03*
X0000046500Y0000076500D03*
X0000026568Y0000089568D03*
X0000049000Y0000324500D03*
X0000071000Y0000202500D03*
X0000069000Y0000214500D03*
X0000065000Y0000214500D03*
X0000107000Y0000022000D03*
X0000096500Y0000022000D03*
X0000107000Y0000031500D03*
X0000039000Y0000323000D03*
X0000301300Y0000070500D03*
G54D31*
X0000047637Y0000173031D03*
G54D28*
X0000166929Y0000098819D03*
G54D23*
X0000211630Y0000201376D03*
X0000210704Y0000217376D03*
X0000222630Y0000218024D03*
G54D21*
X0000013398Y0000381783D03*
G54D20*
X0000013398Y0000401468D03*
G54D29*
X0000166929Y0000361811D03*
%LPD*%
G75*
G54D10*
X0000015748Y0000015748D03*
X0000015748Y0000437008D03*
X0000166929Y0000098819D03*
X0000338619Y0000015748D03*
X0000338619Y0000437008D03*
G54D11*
X0000005630Y0000035000D03*
X0000005630Y0000055000D03*
X0000005630Y0000075000D03*
X0000005630Y0000065000D03*
X0000005630Y0000085000D03*
X0000006500Y0000091500D03*
X0000005630Y0000105000D03*
X0000005630Y0000125000D03*
X0000005630Y0000113500D03*
X0000005630Y0000145000D03*
X0000005630Y0000135000D03*
X0000005630Y0000155000D03*
X0000005630Y0000225000D03*
X0000004130Y0000218000D03*
X0000005630Y0000245000D03*
X0000005630Y0000235000D03*
X0000005630Y0000260000D03*
X0000005630Y0000280000D03*
X0000005630Y0000270000D03*
X0000005630Y0000295000D03*
X0000005630Y0000315000D03*
X0000005630Y0000305000D03*
X0000005630Y0000330000D03*
X0000005630Y0000340000D03*
X0000005630Y0000365000D03*
X0000005630Y0000355000D03*
X0000005630Y0000386500D03*
X0000005630Y0000375000D03*
X0000005630Y0000395000D03*
X0000005630Y0000415000D03*
X0000005000Y0000407000D03*
X0000005630Y0000425000D03*
X0000025630Y0000035000D03*
X0000015630Y0000035000D03*
X0000015630Y0000055000D03*
X0000025630Y0000055000D03*
X0000025630Y0000045000D03*
X0000025630Y0000065000D03*
X0000015630Y0000065000D03*
X0000014130Y0000074500D03*
X0000014130Y0000084500D03*
X0000015000Y0000092500D03*
X0000015630Y0000105000D03*
X0000025630Y0000105000D03*
X0000016000Y0000098500D03*
X0000025500Y0000099000D03*
X0000025630Y0000125000D03*
X0000015630Y0000125000D03*
X0000025630Y0000113500D03*
X0000015630Y0000113500D03*
X0000025630Y0000145000D03*
X0000015630Y0000145000D03*
X0000015630Y0000135000D03*
X0000025630Y0000135000D03*
X0000025630Y0000155000D03*
X0000025630Y0000225000D03*
X0000015630Y0000225000D03*
X0000026130Y0000217500D03*
X0000009630Y0000218000D03*
X0000015630Y0000245000D03*
X0000025630Y0000245000D03*
X0000025630Y0000235000D03*
X0000015630Y0000235000D03*
X0000025630Y0000255000D03*
X0000012000Y0000257500D03*
X0000011000Y0000265500D03*
X0000015630Y0000280000D03*
X0000011000Y0000276000D03*
X0000015630Y0000295000D03*
X0000025630Y0000295000D03*
X0000015630Y0000315000D03*
X0000025630Y0000315000D03*
X0000025630Y0000305000D03*
X0000015630Y0000305000D03*
X0000014000Y0000334000D03*
X0000014500Y0000328500D03*
X0000011130Y0000329853D03*
X0000011130Y0000332853D03*
X0000011130Y0000335784D03*
X0000014000Y0000340000D03*
X0000011130Y0000338784D03*
X0000012000Y0000342000D03*
X0000025630Y0000365000D03*
X0000015630Y0000365000D03*
X0000015630Y0000355000D03*
X0000025630Y0000355000D03*
X0000015630Y0000386500D03*
X0000015630Y0000375000D03*
X0000025630Y0000375000D03*
X0000023630Y0000387000D03*
X0000025630Y0000405000D03*
X0000015630Y0000395000D03*
X0000023500Y0000395000D03*
X0000025630Y0000415000D03*
X0000015500Y0000407000D03*
X0000015630Y0000415000D03*
X0000025630Y0000425000D03*
X0000035630Y0000005000D03*
X0000035630Y0000015000D03*
X0000035630Y0000035000D03*
X0000035630Y0000025000D03*
X0000035630Y0000045000D03*
X0000026568Y0000089568D03*
X0000026495Y0000093505D03*
X0000035630Y0000145000D03*
X0000035630Y0000155000D03*
X0000040630Y0000175000D03*
X0000040630Y0000195000D03*
X0000040630Y0000185000D03*
X0000040630Y0000205000D03*
X0000035630Y0000225000D03*
X0000040630Y0000230000D03*
X0000035630Y0000230000D03*
X0000040630Y0000220000D03*
X0000043000Y0000225500D03*
X0000035630Y0000245000D03*
X0000035630Y0000235000D03*
X0000035630Y0000240000D03*
X0000040630Y0000235000D03*
X0000033000Y0000250000D03*
X0000037130Y0000265000D03*
X0000035630Y0000255000D03*
X0000028000Y0000261000D03*
X0000035500Y0000261000D03*
X0000037130Y0000270000D03*
X0000035630Y0000295000D03*
X0000035630Y0000285000D03*
X0000031500Y0000305000D03*
X0000029500Y0000331000D03*
X0000029500Y0000325500D03*
X0000032300Y0000336205D03*
X0000032300Y0000333205D03*
X0000032307Y0000329578D03*
X0000032307Y0000326578D03*
X0000039000Y0000323000D03*
X0000029500Y0000337500D03*
X0000038886Y0000349614D03*
X0000032614Y0000349886D03*
X0000035500Y0000350500D03*
X0000037500Y0000342000D03*
X0000035630Y0000355000D03*
X0000035630Y0000365000D03*
X0000041630Y0000355000D03*
X0000041630Y0000365000D03*
X0000035630Y0000375000D03*
X0000033130Y0000381000D03*
X0000040630Y0000381000D03*
X0000041130Y0000372000D03*
X0000033630Y0000387000D03*
X0000035630Y0000405000D03*
X0000027000Y0000395000D03*
X0000027000Y0000401468D03*
X0000035630Y0000415000D03*
X0000035130Y0000425000D03*
X0000045630Y0000005000D03*
X0000053130Y0000005000D03*
X0000045630Y0000015000D03*
X0000053130Y0000015000D03*
X0000045630Y0000035000D03*
X0000045630Y0000025000D03*
X0000053130Y0000025000D03*
X0000055630Y0000055000D03*
X0000046500Y0000076500D03*
X0000052000Y0000076500D03*
X0000060630Y0000060000D03*
X0000060630Y0000070000D03*
X0000053500Y0000062500D03*
X0000047500Y0000067500D03*
X0000055000Y0000072500D03*
X0000049500Y0000060000D03*
X0000061000Y0000065000D03*
X0000046500Y0000090000D03*
X0000055500Y0000083500D03*
X0000057500Y0000090000D03*
X0000046500Y0000083000D03*
X0000057000Y0000179500D03*
X0000053500Y0000179500D03*
X0000053500Y0000182500D03*
X0000056500Y0000182500D03*
X0000060630Y0000225500D03*
X0000052630Y0000251500D03*
X0000048630Y0000251500D03*
X0000052630Y0000255500D03*
X0000048630Y0000255500D03*
X0000049630Y0000315500D03*
X0000045630Y0000315500D03*
X0000045630Y0000311000D03*
X0000049630Y0000311000D03*
X0000049000Y0000324500D03*
X0000053500Y0000324500D03*
X0000060500Y0000340000D03*
X0000057000Y0000340000D03*
X0000044500Y0000337500D03*
X0000051500Y0000346000D03*
X0000060900Y0000349900D03*
X0000045000Y0000346000D03*
X0000055630Y0000405000D03*
X0000045630Y0000405000D03*
X0000055630Y0000415000D03*
X0000045630Y0000415000D03*
X0000045130Y0000425000D03*
X0000055130Y0000425000D03*
X0000065630Y0000005000D03*
X0000075630Y0000005000D03*
X0000070630Y0000005000D03*
X0000078000Y0000027500D03*
X0000075630Y0000045000D03*
X0000065630Y0000045000D03*
X0000065630Y0000051000D03*
X0000075630Y0000051000D03*
X0000066630Y0000072500D03*
X0000066630Y0000076500D03*
X0000071130Y0000076500D03*
X0000071130Y0000072500D03*
X0000075630Y0000072500D03*
X0000075630Y0000076500D03*
X0000071886Y0000063500D03*
X0000066630Y0000090000D03*
X0000066630Y0000104000D03*
X0000066630Y0000099000D03*
X0000073130Y0000099000D03*
X0000073130Y0000095000D03*
X0000066630Y0000095000D03*
X0000070130Y0000126500D03*
X0000067630Y0000117500D03*
X0000074630Y0000117500D03*
X0000076000Y0000112000D03*
X0000067000Y0000112000D03*
X0000070130Y0000132000D03*
X0000065130Y0000178000D03*
X0000062130Y0000178000D03*
X0000061750Y0000195880D03*
X0000065000Y0000196000D03*
X0000069000Y0000214500D03*
X0000065000Y0000214500D03*
X0000075000Y0000202500D03*
X0000071000Y0000202500D03*
X0000071000Y0000198500D03*
X0000075000Y0000198500D03*
X0000075130Y0000217500D03*
X0000069000Y0000218500D03*
X0000065000Y0000218500D03*
X0000073600Y0000240200D03*
X0000075000Y0000242600D03*
X0000076400Y0000240200D03*
X0000077744Y0000274386D03*
X0000074100Y0000301800D03*
X0000069130Y0000298500D03*
X0000069130Y0000292000D03*
X0000073630Y0000311500D03*
X0000073630Y0000319500D03*
X0000068130Y0000319500D03*
X0000073630Y0000327000D03*
X0000067630Y0000327000D03*
X0000067744Y0000348886D03*
X0000067744Y0000352114D03*
X0000064700Y0000347900D03*
X0000069130Y0000359000D03*
X0000069130Y0000364000D03*
X0000061130Y0000364000D03*
X0000064130Y0000359000D03*
X0000064130Y0000368000D03*
X0000067600Y0000380500D03*
X0000061130Y0000372000D03*
X0000067630Y0000384000D03*
X0000073630Y0000378500D03*
X0000075630Y0000405000D03*
X0000065630Y0000405000D03*
X0000075630Y0000415000D03*
X0000065630Y0000415000D03*
X0000065130Y0000425000D03*
X0000075130Y0000425000D03*
X0000081500Y0000031000D03*
X0000085630Y0000045000D03*
X0000095630Y0000045000D03*
X0000085630Y0000051000D03*
X0000079000Y0000067000D03*
X0000086630Y0000110000D03*
X0000083130Y0000108000D03*
X0000090130Y0000108000D03*
X0000094130Y0000108000D03*
X0000094130Y0000102500D03*
X0000083130Y0000112000D03*
X0000090130Y0000112000D03*
X0000088000Y0000158000D03*
X0000093630Y0000158000D03*
X0000083500Y0000193000D03*
X0000090790Y0000188340D03*
X0000090630Y0000192000D03*
X0000093130Y0000222500D03*
X0000084130Y0000232000D03*
X0000095667Y0000238537D03*
X0000093108Y0000236000D03*
X0000090549Y0000238581D03*
X0000084130Y0000240000D03*
X0000084130Y0000236000D03*
X0000087630Y0000236000D03*
X0000084130Y0000258000D03*
X0000084130Y0000271000D03*
X0000093130Y0000281500D03*
X0000089130Y0000281500D03*
X0000083130Y0000284500D03*
X0000079638Y0000280992D03*
X0000090549Y0000271000D03*
X0000095130Y0000298000D03*
X0000095130Y0000301000D03*
X0000093130Y0000285500D03*
X0000089630Y0000301500D03*
X0000093130Y0000328000D03*
X0000083630Y0000337000D03*
X0000087000Y0000349000D03*
X0000095500Y0000349000D03*
X0000095630Y0000337000D03*
X0000092500Y0000355500D03*
X0000085630Y0000365000D03*
X0000090630Y0000365000D03*
X0000085630Y0000361000D03*
X0000085630Y0000357500D03*
X0000086000Y0000382500D03*
X0000092000Y0000382500D03*
X0000090630Y0000372500D03*
X0000085630Y0000372693D03*
X0000091630Y0000401500D03*
X0000087630Y0000401500D03*
X0000095630Y0000405000D03*
X0000085630Y0000405000D03*
X0000095630Y0000415000D03*
X0000085630Y0000415000D03*
X0000085130Y0000425000D03*
X0000095130Y0000425000D03*
X0000109630Y0000018500D03*
X0000109630Y0000014500D03*
X0000102630Y0000018500D03*
X0000102630Y0000014500D03*
X0000107000Y0000022000D03*
X0000096500Y0000022000D03*
X0000101500Y0000022000D03*
X0000096500Y0000031500D03*
X0000107000Y0000031500D03*
X0000101500Y0000031500D03*
X0000113000Y0000032000D03*
X0000110500Y0000029000D03*
X0000109630Y0000076000D03*
X0000098630Y0000076000D03*
X0000098630Y0000086500D03*
X0000104130Y0000086500D03*
X0000104130Y0000102000D03*
X0000104130Y0000105500D03*
X0000104130Y0000097500D03*
X0000099130Y0000097500D03*
X0000099630Y0000122500D03*
X0000104130Y0000122500D03*
X0000108630Y0000122500D03*
X0000108630Y0000126500D03*
X0000113130Y0000126500D03*
X0000113130Y0000122500D03*
X0000113130Y0000117500D03*
X0000113130Y0000113000D03*
X0000104130Y0000113000D03*
X0000104130Y0000117500D03*
X0000099630Y0000117500D03*
X0000108630Y0000117500D03*
X0000108630Y0000113000D03*
X0000108130Y0000136500D03*
X0000108630Y0000131000D03*
X0000103630Y0000178500D03*
X0000105630Y0000180000D03*
X0000105630Y0000175000D03*
X0000101630Y0000193000D03*
X0000101630Y0000197500D03*
X0000101630Y0000189000D03*
X0000106130Y0000189000D03*
X0000106130Y0000193000D03*
X0000106130Y0000197500D03*
X0000097930Y0000189000D03*
X0000097930Y0000193000D03*
X0000097930Y0000197500D03*
X0000106744Y0000212886D03*
X0000103516Y0000212886D03*
X0000097630Y0000222500D03*
X0000102630Y0000222500D03*
X0000102630Y0000226500D03*
X0000100785Y0000238500D03*
X0000104016Y0000278500D03*
X0000099130Y0000281500D03*
X0000101496Y0000286866D03*
X0000098567Y0000323437D03*
X0000098630Y0000328000D03*
X0000112673Y0000337000D03*
X0000113130Y0000350000D03*
X0000113130Y0000354000D03*
X0000107000Y0000348500D03*
X0000102044Y0000337086D03*
X0000105630Y0000361500D03*
X0000101130Y0000361500D03*
X0000113130Y0000361500D03*
X0000100500Y0000355500D03*
X0000107500Y0000357000D03*
X0000111630Y0000382000D03*
X0000107500Y0000382000D03*
X0000105630Y0000405000D03*
X0000111630Y0000400500D03*
X0000109630Y0000405000D03*
X0000098630Y0000395000D03*
X0000108630Y0000395000D03*
X0000096630Y0000400000D03*
X0000106630Y0000400000D03*
X0000111700Y0000396300D03*
X0000105630Y0000415000D03*
X0000111630Y0000409000D03*
X0000111630Y0000414500D03*
X0000111630Y0000422500D03*
X0000105130Y0000425000D03*
X0000120508Y0000021508D03*
X0000124130Y0000018500D03*
X0000124130Y0000014500D03*
X0000117630Y0000018500D03*
X0000117630Y0000014500D03*
X0000130000Y0000019500D03*
X0000118500Y0000032000D03*
X0000123000Y0000032000D03*
X0000115500Y0000029500D03*
X0000117130Y0000056500D03*
X0000117130Y0000052500D03*
X0000121130Y0000056500D03*
X0000121130Y0000052500D03*
X0000125130Y0000056500D03*
X0000125130Y0000052500D03*
X0000120630Y0000090500D03*
X0000121130Y0000081500D03*
X0000125130Y0000081500D03*
X0000121130Y0000085500D03*
X0000125130Y0000085500D03*
X0000120630Y0000103500D03*
X0000124630Y0000103500D03*
X0000120630Y0000099500D03*
X0000124630Y0000099500D03*
X0000120630Y0000095000D03*
X0000120630Y0000108500D03*
X0000119130Y0000111500D03*
X0000120630Y0000118000D03*
X0000120630Y0000123000D03*
X0000125630Y0000165000D03*
X0000123630Y0000184000D03*
X0000123630Y0000192700D03*
X0000123630Y0000197700D03*
X0000123630Y0000188500D03*
X0000127901Y0000195609D03*
X0000123630Y0000202700D03*
X0000125500Y0000213500D03*
X0000119000Y0000213500D03*
X0000127000Y0000198500D03*
X0000120401Y0000210500D03*
X0000124319Y0000210500D03*
X0000116630Y0000227000D03*
X0000116630Y0000231000D03*
X0000121130Y0000227000D03*
X0000121130Y0000231000D03*
X0000113630Y0000221500D03*
X0000118500Y0000221500D03*
X0000115000Y0000217500D03*
X0000124516Y0000264114D03*
X0000124516Y0000252886D03*
X0000119130Y0000275500D03*
X0000126130Y0000297114D03*
X0000119389Y0000289000D03*
X0000114000Y0000294500D03*
X0000126130Y0000306386D03*
X0000118400Y0000306900D03*
X0000120630Y0000330000D03*
X0000125630Y0000330000D03*
X0000125630Y0000325000D03*
X0000117000Y0000334000D03*
X0000119760Y0000337000D03*
X0000119630Y0000354000D03*
X0000117630Y0000350500D03*
X0000130130Y0000354976D03*
X0000118630Y0000361500D03*
X0000130130Y0000362000D03*
X0000115630Y0000382000D03*
X0000120130Y0000382000D03*
X0000120630Y0000405000D03*
X0000120630Y0000400500D03*
X0000120600Y0000396200D03*
X0000120630Y0000410000D03*
X0000120630Y0000415000D03*
X0000120630Y0000420000D03*
X0000135130Y0000018500D03*
X0000135130Y0000014500D03*
X0000140130Y0000014500D03*
X0000145130Y0000014500D03*
X0000135130Y0000023500D03*
X0000140130Y0000018500D03*
X0000144000Y0000023500D03*
X0000131630Y0000028000D03*
X0000131500Y0000031500D03*
X0000139000Y0000026000D03*
X0000138130Y0000105000D03*
X0000138130Y0000101000D03*
X0000142130Y0000105000D03*
X0000142130Y0000101000D03*
X0000138130Y0000127500D03*
X0000142130Y0000127500D03*
X0000138130Y0000131000D03*
X0000142130Y0000131000D03*
X0000140500Y0000160000D03*
X0000140500Y0000155000D03*
X0000140500Y0000170000D03*
X0000130630Y0000170000D03*
X0000130630Y0000165000D03*
X0000140500Y0000165000D03*
X0000140500Y0000175000D03*
X0000131819Y0000195609D03*
X0000132500Y0000213500D03*
X0000139400Y0000208400D03*
X0000133000Y0000198500D03*
X0000137150Y0000210650D03*
X0000133700Y0000210700D03*
X0000135500Y0000222000D03*
X0000141500Y0000222000D03*
X0000140319Y0000219179D03*
X0000136401Y0000219179D03*
X0000139630Y0000300500D03*
X0000144000Y0000286417D03*
X0000140130Y0000317126D03*
X0000139630Y0000303000D03*
X0000140130Y0000324000D03*
X0000145130Y0000324213D03*
X0000145130Y0000328937D03*
X0000144969Y0000333661D03*
X0000135630Y0000335000D03*
X0000140630Y0000330000D03*
X0000130630Y0000335000D03*
X0000144795Y0000347835D03*
X0000144882Y0000340748D03*
X0000130630Y0000350000D03*
X0000135500Y0000345500D03*
X0000130630Y0000340000D03*
X0000135500Y0000340000D03*
X0000136130Y0000351000D03*
X0000140630Y0000338500D03*
X0000141000Y0000345000D03*
X0000131000Y0000345500D03*
X0000144709Y0000354921D03*
X0000136000Y0000356000D03*
X0000144630Y0000358000D03*
X0000144630Y0000362500D03*
X0000140130Y0000358000D03*
X0000140130Y0000362500D03*
X0000140630Y0000405000D03*
X0000130630Y0000405000D03*
X0000130630Y0000396000D03*
X0000140630Y0000396000D03*
X0000130630Y0000415000D03*
X0000140630Y0000415000D03*
X0000140630Y0000425000D03*
X0000130630Y0000425000D03*
X0000149000Y0000019000D03*
X0000154500Y0000015000D03*
X0000152630Y0000074500D03*
X0000156630Y0000074500D03*
X0000152630Y0000070500D03*
X0000156630Y0000070500D03*
X0000163130Y0000071000D03*
X0000152500Y0000063500D03*
X0000152630Y0000078500D03*
X0000156630Y0000078500D03*
X0000158130Y0000110000D03*
X0000163630Y0000110000D03*
X0000159500Y0000099000D03*
X0000157130Y0000121063D03*
X0000161130Y0000142000D03*
X0000157030Y0000129300D03*
X0000157130Y0000142323D03*
X0000157130Y0000137598D03*
X0000161130Y0000137500D03*
X0000158130Y0000149409D03*
X0000162130Y0000149500D03*
X0000158130Y0000156496D03*
X0000160630Y0000161500D03*
X0000160630Y0000158500D03*
X0000158130Y0000163583D03*
X0000158130Y0000170669D03*
X0000158130Y0000177756D03*
X0000160630Y0000172500D03*
X0000163130Y0000179846D03*
X0000160630Y0000175500D03*
X0000157130Y0000191929D03*
X0000163130Y0000182846D03*
X0000157130Y0000199016D03*
X0000157500Y0000206102D03*
X0000157500Y0000213189D03*
X0000157500Y0000220276D03*
X0000157630Y0000227362D03*
X0000157579Y0000234449D03*
X0000157630Y0000241000D03*
X0000157528Y0000243898D03*
X0000157630Y0000238000D03*
X0000162000Y0000251000D03*
X0000157630Y0000255000D03*
X0000157630Y0000251000D03*
X0000157630Y0000262795D03*
X0000162130Y0000263000D03*
X0000157630Y0000258071D03*
X0000162130Y0000258000D03*
X0000157630Y0000269882D03*
X0000157630Y0000284500D03*
X0000162130Y0000279500D03*
X0000162130Y0000269500D03*
X0000157683Y0000274553D03*
X0000162130Y0000274500D03*
X0000157630Y0000279331D03*
X0000162130Y0000284500D03*
X0000157488Y0000291142D03*
X0000157500Y0000299000D03*
X0000157032Y0000312402D03*
X0000157500Y0000304000D03*
X0000161630Y0000331500D03*
X0000157130Y0000321500D03*
X0000157130Y0000326000D03*
X0000157331Y0000331299D03*
X0000157130Y0000338386D03*
X0000157130Y0000352559D03*
X0000161630Y0000345500D03*
X0000157130Y0000345472D03*
X0000161630Y0000338500D03*
X0000164130Y0000385000D03*
X0000150630Y0000405000D03*
X0000148500Y0000397000D03*
X0000150630Y0000415000D03*
X0000160630Y0000415000D03*
X0000150630Y0000425000D03*
X0000160630Y0000425000D03*
X0000181630Y0000032500D03*
X0000176630Y0000071000D03*
X0000166630Y0000071000D03*
X0000176630Y0000075000D03*
X0000176630Y0000065500D03*
X0000176630Y0000078500D03*
X0000178630Y0000087000D03*
X0000174130Y0000087000D03*
X0000176030Y0000110200D03*
X0000169630Y0000110000D03*
X0000175500Y0000099000D03*
X0000177130Y0000128500D03*
X0000165630Y0000145000D03*
X0000165630Y0000140000D03*
X0000170630Y0000140000D03*
X0000170630Y0000145000D03*
X0000175630Y0000145000D03*
X0000175630Y0000140000D03*
X0000168630Y0000156500D03*
X0000175630Y0000156500D03*
X0000170630Y0000149500D03*
X0000175630Y0000149500D03*
X0000165630Y0000151500D03*
X0000165630Y0000154500D03*
X0000168630Y0000163500D03*
X0000168630Y0000178000D03*
X0000168630Y0000170500D03*
X0000175630Y0000163500D03*
X0000175630Y0000170500D03*
X0000175630Y0000178000D03*
X0000165630Y0000165673D03*
X0000165630Y0000168673D03*
X0000165302Y0000185172D03*
X0000172630Y0000185500D03*
X0000172630Y0000192500D03*
X0000175130Y0000265000D03*
X0000166630Y0000279500D03*
X0000166630Y0000284500D03*
X0000170500Y0000298000D03*
X0000170500Y0000288780D03*
X0000170500Y0000304500D03*
X0000166500Y0000312500D03*
X0000170630Y0000330000D03*
X0000173000Y0000332000D03*
X0000176571Y0000331059D03*
X0000176386Y0000327756D03*
X0000177197Y0000339567D03*
X0000176976Y0000346654D03*
X0000170630Y0000340000D03*
X0000176630Y0000383500D03*
X0000180630Y0000383500D03*
X0000180630Y0000387500D03*
X0000176630Y0000387500D03*
X0000170500Y0000390800D03*
X0000176300Y0000397100D03*
X0000180630Y0000435000D03*
X0000170630Y0000435000D03*
X0000170630Y0000425000D03*
X0000185630Y0000032500D03*
X0000190630Y0000032500D03*
X0000195630Y0000032500D03*
X0000195630Y0000028000D03*
X0000188130Y0000036500D03*
X0000183130Y0000057500D03*
X0000188130Y0000057500D03*
X0000188130Y0000052500D03*
X0000191630Y0000052500D03*
X0000195630Y0000056000D03*
X0000195630Y0000051000D03*
X0000187630Y0000071000D03*
X0000183130Y0000062500D03*
X0000188130Y0000062500D03*
X0000182630Y0000071000D03*
X0000190130Y0000119500D03*
X0000189630Y0000127000D03*
X0000194630Y0000127000D03*
X0000189228Y0000141142D03*
X0000189630Y0000138000D03*
X0000199630Y0000139000D03*
X0000189228Y0000148228D03*
X0000189032Y0000162402D03*
X0000198630Y0000149000D03*
X0000192630Y0000155000D03*
X0000189118Y0000169488D03*
X0000189055Y0000176575D03*
X0000189130Y0000183661D03*
X0000189228Y0000197835D03*
X0000189000Y0000191000D03*
X0000189228Y0000204921D03*
X0000189228Y0000212008D03*
X0000199630Y0000213500D03*
X0000199500Y0000205500D03*
X0000189228Y0000219095D03*
X0000189228Y0000226181D03*
X0000199130Y0000221000D03*
X0000189630Y0000241000D03*
X0000189228Y0000233268D03*
X0000189071Y0000247441D03*
X0000193000Y0000233000D03*
X0000192500Y0000247500D03*
X0000199130Y0000254500D03*
X0000194130Y0000261500D03*
X0000194130Y0000254500D03*
X0000189130Y0000254528D03*
X0000189516Y0000261614D03*
X0000199000Y0000262500D03*
X0000189630Y0000266339D03*
X0000194400Y0000266300D03*
X0000189417Y0000275787D03*
X0000194130Y0000271000D03*
X0000189630Y0000284500D03*
X0000189618Y0000280512D03*
X0000194630Y0000280500D03*
X0000194130Y0000275500D03*
X0000189567Y0000271063D03*
X0000189591Y0000289961D03*
X0000195630Y0000295000D03*
X0000194500Y0000289500D03*
X0000199000Y0000298500D03*
X0000189630Y0000315945D03*
X0000194630Y0000311000D03*
X0000189909Y0000311221D03*
X0000194130Y0000316000D03*
X0000190500Y0000304000D03*
X0000193630Y0000332500D03*
X0000189610Y0000332480D03*
X0000189524Y0000325394D03*
X0000194130Y0000342000D03*
X0000189630Y0000337205D03*
X0000189559Y0000341929D03*
X0000190630Y0000385000D03*
X0000190630Y0000380000D03*
X0000185630Y0000390000D03*
X0000190630Y0000395000D03*
X0000183400Y0000403900D03*
X0000194630Y0000410500D03*
X0000198630Y0000410500D03*
X0000190630Y0000410000D03*
X0000190630Y0000435000D03*
X0000203630Y0000021000D03*
X0000203630Y0000017000D03*
X0000207630Y0000021000D03*
X0000207630Y0000017000D03*
X0000211630Y0000021000D03*
X0000211630Y0000017000D03*
X0000200630Y0000032500D03*
X0000205630Y0000032500D03*
X0000205630Y0000028000D03*
X0000200630Y0000028000D03*
X0000205630Y0000037500D03*
X0000210630Y0000037500D03*
X0000210630Y0000032500D03*
X0000210630Y0000028000D03*
X0000210630Y0000048000D03*
X0000210630Y0000044000D03*
X0000215630Y0000048000D03*
X0000215630Y0000044000D03*
X0000210630Y0000057500D03*
X0000215630Y0000057500D03*
X0000215630Y0000052500D03*
X0000210630Y0000052500D03*
X0000200630Y0000145000D03*
X0000210630Y0000145000D03*
X0000205630Y0000140000D03*
X0000210630Y0000155000D03*
X0000200630Y0000155000D03*
X0000207500Y0000150000D03*
X0000210630Y0000175000D03*
X0000200630Y0000175000D03*
X0000210630Y0000165000D03*
X0000200630Y0000165000D03*
X0000200630Y0000195000D03*
X0000210630Y0000195000D03*
X0000210630Y0000185000D03*
X0000200630Y0000185000D03*
X0000202100Y0000199600D03*
X0000202130Y0000203000D03*
X0000210704Y0000215400D03*
X0000211630Y0000203352D03*
X0000208630Y0000203500D03*
X0000208630Y0000199500D03*
X0000205500Y0000212500D03*
X0000211630Y0000199400D03*
X0000210704Y0000219352D03*
X0000201704Y0000219500D03*
X0000201704Y0000215500D03*
X0000207704Y0000215500D03*
X0000207704Y0000219500D03*
X0000202630Y0000241500D03*
X0000202630Y0000247500D03*
X0000205130Y0000254500D03*
X0000210630Y0000265000D03*
X0000212000Y0000275500D03*
X0000205500Y0000269000D03*
X0000200630Y0000365000D03*
X0000200630Y0000375000D03*
X0000200630Y0000385000D03*
X0000211630Y0000375000D03*
X0000211630Y0000385000D03*
X0000208630Y0000396500D03*
X0000208630Y0000390500D03*
X0000208630Y0000404500D03*
X0000200630Y0000395000D03*
X0000200630Y0000405000D03*
X0000211630Y0000422500D03*
X0000207630Y0000422500D03*
X0000200630Y0000435000D03*
X0000210630Y0000435000D03*
X0000231630Y0000004000D03*
X0000227630Y0000004000D03*
X0000231630Y0000007150D03*
X0000227630Y0000007150D03*
X0000227630Y0000019000D03*
X0000227630Y0000023000D03*
X0000233130Y0000023000D03*
X0000233130Y0000019000D03*
X0000227630Y0000029500D03*
X0000233130Y0000029500D03*
X0000233630Y0000036000D03*
X0000227630Y0000036000D03*
X0000232687Y0000050557D03*
X0000232687Y0000055557D03*
X0000220630Y0000057500D03*
X0000220630Y0000052500D03*
X0000233130Y0000045500D03*
X0000227630Y0000042000D03*
X0000227630Y0000047500D03*
X0000227630Y0000052000D03*
X0000220630Y0000155000D03*
X0000218500Y0000150000D03*
X0000230630Y0000175000D03*
X0000220630Y0000175000D03*
X0000230630Y0000165000D03*
X0000220630Y0000165000D03*
X0000220630Y0000195000D03*
X0000230630Y0000195000D03*
X0000230630Y0000185000D03*
X0000220630Y0000185000D03*
X0000225630Y0000215000D03*
X0000222630Y0000216048D03*
X0000225630Y0000221000D03*
X0000222630Y0000220000D03*
X0000220630Y0000265000D03*
X0000230630Y0000265000D03*
X0000220630Y0000275000D03*
X0000230630Y0000275000D03*
X0000220630Y0000295000D03*
X0000220630Y0000285000D03*
X0000230630Y0000285000D03*
X0000230630Y0000295000D03*
X0000220630Y0000315000D03*
X0000220630Y0000305000D03*
X0000230630Y0000305000D03*
X0000230630Y0000315000D03*
X0000220630Y0000330000D03*
X0000230630Y0000330000D03*
X0000230630Y0000365000D03*
X0000220630Y0000385000D03*
X0000220630Y0000375000D03*
X0000230630Y0000375000D03*
X0000230630Y0000385000D03*
X0000230630Y0000435000D03*
X0000220630Y0000435000D03*
X0000235630Y0000004000D03*
X0000245630Y0000004000D03*
X0000249630Y0000004000D03*
X0000241630Y0000004000D03*
X0000235630Y0000007150D03*
X0000245630Y0000007150D03*
X0000249630Y0000007150D03*
X0000241630Y0000007150D03*
X0000237630Y0000036000D03*
X0000251630Y0000047000D03*
X0000248630Y0000047000D03*
X0000248630Y0000044200D03*
X0000251630Y0000044200D03*
X0000237630Y0000055500D03*
X0000237630Y0000050500D03*
X0000238630Y0000081114D03*
X0000250630Y0000100000D03*
X0000235630Y0000100000D03*
X0000235630Y0000109000D03*
X0000243630Y0000109500D03*
X0000243630Y0000118000D03*
X0000240630Y0000175000D03*
X0000250630Y0000180000D03*
X0000240630Y0000185000D03*
X0000240630Y0000275000D03*
X0000240630Y0000285000D03*
X0000250630Y0000285000D03*
X0000250630Y0000295000D03*
X0000240630Y0000295000D03*
X0000240630Y0000305000D03*
X0000250630Y0000305000D03*
X0000250630Y0000315000D03*
X0000240630Y0000315000D03*
X0000240630Y0000330000D03*
X0000250630Y0000330000D03*
X0000250630Y0000350000D03*
X0000240630Y0000350000D03*
X0000250630Y0000360000D03*
X0000240630Y0000385000D03*
X0000240630Y0000375000D03*
X0000250630Y0000385000D03*
X0000250630Y0000375000D03*
X0000240630Y0000435000D03*
X0000250630Y0000435000D03*
X0000266630Y0000004000D03*
X0000254130Y0000004000D03*
X0000258130Y0000004000D03*
X0000262130Y0000004000D03*
X0000266630Y0000007150D03*
X0000265130Y0000017000D03*
X0000269130Y0000017000D03*
X0000269130Y0000021000D03*
X0000254130Y0000007150D03*
X0000258130Y0000007150D03*
X0000262130Y0000007150D03*
X0000269130Y0000025000D03*
X0000265130Y0000025000D03*
X0000269130Y0000028500D03*
X0000266500Y0000054000D03*
X0000266500Y0000050500D03*
X0000266500Y0000047000D03*
X0000260630Y0000100000D03*
X0000256130Y0000110500D03*
X0000252630Y0000118500D03*
X0000260630Y0000225000D03*
X0000265630Y0000225000D03*
X0000260630Y0000295000D03*
X0000260630Y0000315000D03*
X0000260630Y0000305000D03*
X0000260630Y0000330000D03*
X0000260630Y0000350000D03*
X0000260630Y0000360000D03*
X0000260630Y0000375000D03*
X0000260630Y0000385000D03*
X0000260630Y0000405000D03*
X0000265630Y0000405000D03*
X0000260630Y0000395000D03*
X0000256630Y0000406500D03*
X0000256630Y0000410500D03*
X0000253130Y0000420000D03*
X0000260630Y0000420000D03*
X0000260630Y0000410000D03*
X0000265630Y0000410000D03*
X0000253130Y0000425000D03*
X0000260630Y0000425000D03*
X0000260630Y0000435000D03*
X0000270630Y0000004000D03*
X0000274630Y0000004000D03*
X0000280630Y0000005000D03*
X0000270630Y0000007150D03*
X0000274630Y0000007150D03*
X0000274630Y0000012000D03*
X0000274630Y0000015500D03*
X0000282244Y0000012000D03*
X0000279016Y0000012114D03*
X0000285200Y0000031100D03*
X0000285130Y0000026000D03*
X0000285630Y0000037500D03*
X0000284130Y0000045500D03*
X0000285130Y0000056500D03*
X0000272610Y0000057980D03*
X0000278630Y0000045500D03*
X0000285130Y0000062000D03*
X0000269730Y0000061700D03*
X0000273730Y0000061100D03*
X0000272430Y0000064100D03*
X0000275130Y0000070614D03*
X0000284630Y0000099500D03*
X0000270630Y0000215000D03*
X0000280630Y0000210000D03*
X0000270630Y0000220000D03*
X0000281630Y0000300000D03*
X0000281630Y0000291000D03*
X0000270630Y0000295000D03*
X0000278000Y0000316000D03*
X0000281630Y0000310000D03*
X0000270630Y0000305000D03*
X0000278000Y0000323000D03*
X0000271000Y0000329500D03*
X0000274700Y0000329500D03*
X0000278500Y0000329500D03*
X0000285630Y0000350000D03*
X0000285630Y0000340000D03*
X0000270630Y0000385000D03*
X0000270630Y0000375000D03*
X0000280630Y0000375000D03*
X0000280630Y0000385000D03*
X0000280630Y0000405000D03*
X0000270630Y0000395000D03*
X0000275630Y0000400000D03*
X0000285630Y0000390000D03*
X0000280630Y0000415000D03*
X0000270630Y0000420000D03*
X0000280630Y0000425000D03*
X0000280630Y0000435000D03*
X0000270630Y0000425000D03*
X0000270630Y0000435000D03*
X0000290630Y0000005000D03*
X0000300630Y0000005000D03*
X0000296130Y0000020500D03*
X0000300630Y0000015000D03*
X0000290630Y0000015000D03*
X0000300130Y0000031500D03*
X0000300130Y0000026000D03*
X0000295500Y0000039800D03*
X0000296100Y0000031300D03*
X0000299630Y0000041000D03*
X0000299630Y0000038000D03*
X0000292744Y0000045500D03*
X0000299600Y0000043800D03*
X0000287130Y0000070614D03*
X0000288000Y0000066000D03*
X0000297630Y0000070500D03*
X0000293630Y0000070500D03*
X0000301300Y0000070500D03*
X0000290630Y0000105000D03*
X0000300630Y0000115000D03*
X0000290630Y0000115000D03*
X0000290130Y0000219500D03*
X0000290130Y0000226000D03*
X0000290130Y0000232500D03*
X0000290130Y0000245185D03*
X0000290130Y0000239185D03*
X0000289945Y0000250185D03*
X0000290130Y0000255685D03*
X0000300854Y0000261185D03*
X0000300630Y0000291000D03*
X0000300630Y0000300000D03*
X0000290630Y0000300000D03*
X0000290630Y0000291000D03*
X0000290630Y0000310000D03*
X0000295630Y0000340000D03*
X0000290630Y0000345000D03*
X0000295630Y0000345000D03*
X0000300630Y0000370000D03*
X0000295630Y0000360000D03*
X0000290630Y0000375000D03*
X0000299130Y0000382500D03*
X0000300630Y0000395000D03*
X0000290630Y0000395000D03*
X0000300630Y0000405000D03*
X0000290630Y0000405000D03*
X0000290630Y0000415000D03*
X0000300630Y0000415000D03*
X0000290630Y0000425000D03*
X0000300630Y0000425000D03*
X0000290630Y0000435000D03*
X0000300630Y0000435000D03*
X0000310630Y0000005000D03*
X0000320630Y0000005000D03*
X0000320630Y0000015000D03*
X0000310630Y0000015000D03*
X0000310630Y0000025000D03*
X0000310630Y0000035000D03*
X0000308630Y0000054000D03*
X0000308630Y0000049000D03*
X0000308630Y0000044000D03*
X0000314130Y0000049000D03*
X0000314130Y0000044000D03*
X0000319630Y0000049000D03*
X0000319630Y0000044000D03*
X0000314500Y0000056500D03*
X0000320000Y0000056000D03*
X0000307000Y0000063000D03*
X0000312630Y0000092000D03*
X0000307630Y0000092000D03*
X0000316000Y0000085500D03*
X0000321000Y0000090000D03*
X0000315630Y0000095000D03*
X0000318630Y0000221500D03*
X0000318630Y0000217500D03*
X0000307130Y0000232185D03*
X0000307130Y0000225000D03*
X0000307130Y0000240185D03*
X0000307130Y0000248000D03*
X0000310630Y0000262500D03*
X0000307315Y0000256185D03*
X0000310630Y0000268685D03*
X0000314130Y0000294500D03*
X0000314130Y0000289000D03*
X0000309630Y0000300000D03*
X0000314130Y0000300000D03*
X0000309630Y0000289000D03*
X0000309630Y0000294500D03*
X0000318130Y0000309500D03*
X0000318337Y0000313793D03*
X0000321130Y0000312783D03*
X0000321130Y0000309283D03*
X0000318130Y0000325500D03*
X0000318130Y0000331500D03*
X0000318327Y0000319697D03*
X0000321130Y0000321094D03*
X0000321130Y0000324594D03*
X0000320630Y0000350000D03*
X0000310000Y0000350000D03*
X0000320500Y0000340000D03*
X0000310000Y0000340000D03*
X0000320630Y0000360000D03*
X0000310630Y0000360000D03*
X0000310630Y0000370000D03*
X0000320630Y0000370000D03*
X0000319130Y0000382500D03*
X0000309130Y0000382500D03*
X0000320630Y0000395000D03*
X0000310630Y0000395000D03*
X0000320630Y0000405000D03*
X0000310630Y0000405000D03*
X0000310630Y0000415000D03*
X0000320630Y0000415000D03*
X0000310630Y0000425000D03*
X0000320630Y0000425000D03*
X0000310630Y0000435000D03*
X0000320630Y0000435000D03*
X0000335630Y0000035000D03*
X0000325630Y0000049000D03*
X0000325630Y0000044000D03*
X0000335630Y0000050000D03*
X0000331000Y0000055500D03*
X0000338500Y0000055500D03*
X0000325500Y0000057000D03*
X0000335630Y0000085000D03*
X0000325000Y0000085000D03*
X0000329500Y0000090000D03*
X0000335630Y0000095000D03*
X0000325630Y0000095000D03*
X0000335630Y0000105000D03*
X0000325630Y0000105000D03*
X0000322130Y0000119000D03*
X0000330130Y0000119000D03*
X0000326130Y0000119000D03*
X0000333630Y0000119000D03*
X0000322130Y0000128000D03*
X0000326130Y0000128000D03*
X0000330130Y0000128000D03*
X0000321630Y0000142500D03*
X0000331630Y0000142500D03*
X0000331630Y0000136500D03*
X0000327130Y0000159000D03*
X0000332500Y0000159000D03*
X0000332500Y0000154000D03*
X0000330630Y0000175000D03*
X0000325350Y0000175650D03*
X0000330630Y0000185000D03*
X0000330630Y0000195000D03*
X0000330630Y0000205000D03*
X0000330630Y0000215000D03*
X0000322630Y0000221500D03*
X0000322630Y0000217500D03*
X0000330630Y0000250000D03*
X0000330630Y0000260000D03*
X0000331000Y0000289000D03*
X0000326000Y0000289000D03*
X0000328500Y0000285000D03*
X0000329000Y0000296000D03*
X0000329000Y0000302166D03*
X0000328630Y0000313793D03*
X0000329130Y0000308000D03*
X0000326130Y0000303378D03*
X0000325630Y0000318689D03*
X0000326130Y0000306878D03*
X0000325630Y0000315189D03*
X0000328630Y0000325604D03*
X0000328638Y0000319697D03*
X0000328638Y0000331508D03*
X0000325630Y0000330500D03*
X0000325630Y0000327000D03*
X0000330630Y0000350000D03*
X0000330630Y0000340000D03*
X0000330630Y0000360000D03*
X0000330630Y0000370000D03*
X0000330630Y0000395000D03*
X0000330630Y0000405000D03*
X0000330630Y0000415000D03*
X0000345630Y0000035000D03*
X0000345630Y0000050000D03*
X0000340000Y0000042500D03*
X0000348500Y0000043500D03*
X0000345630Y0000060000D03*
X0000351000Y0000060500D03*
X0000341000Y0000064500D03*
X0000348500Y0000065000D03*
X0000340500Y0000072000D03*
X0000345630Y0000085000D03*
X0000341000Y0000078000D03*
X0000348500Y0000078500D03*
X0000345630Y0000095000D03*
X0000345630Y0000105000D03*
X0000350500Y0000125000D03*
X0000345630Y0000115000D03*
X0000342500Y0000122500D03*
X0000349500Y0000122000D03*
X0000340000Y0000111500D03*
X0000349500Y0000111500D03*
X0000343480Y0000141983D03*
X0000339980Y0000141983D03*
X0000339980Y0000136483D03*
X0000351000Y0000142144D03*
X0000351000Y0000137419D03*
X0000343480Y0000136483D03*
X0000351000Y0000162000D03*
X0000344200Y0000161024D03*
X0000339980Y0000147483D03*
X0000343630Y0000157500D03*
X0000343480Y0000147483D03*
X0000343500Y0000153000D03*
X0000340000Y0000157500D03*
X0000351000Y0000149500D03*
X0000351000Y0000155500D03*
X0000351000Y0000158662D03*
X0000340000Y0000153000D03*
X0000350500Y0000166159D03*
X0000342500Y0000166142D03*
X0000350630Y0000175000D03*
X0000340630Y0000175000D03*
X0000340630Y0000185000D03*
X0000350630Y0000185000D03*
X0000340630Y0000195000D03*
X0000350630Y0000195000D03*
X0000340630Y0000205000D03*
X0000350630Y0000205000D03*
X0000340630Y0000215000D03*
X0000350630Y0000215000D03*
X0000350630Y0000225000D03*
X0000340000Y0000222500D03*
X0000350630Y0000235000D03*
X0000340630Y0000235000D03*
X0000340630Y0000245000D03*
X0000350630Y0000245000D03*
X0000350630Y0000260000D03*
X0000340630Y0000260000D03*
X0000340500Y0000266000D03*
X0000350630Y0000270000D03*
X0000350630Y0000280000D03*
X0000350630Y0000290000D03*
X0000350630Y0000300000D03*
X0000350630Y0000310000D03*
X0000350630Y0000320000D03*
X0000350630Y0000330000D03*
X0000340630Y0000330000D03*
X0000350630Y0000340000D03*
X0000350630Y0000350000D03*
X0000340630Y0000350000D03*
X0000350630Y0000360000D03*
X0000340630Y0000360000D03*
X0000350630Y0000370000D03*
X0000340630Y0000370000D03*
X0000340630Y0000375000D03*
X0000340630Y0000385000D03*
X0000350630Y0000385000D03*
X0000340630Y0000405000D03*
X0000350630Y0000405000D03*
X0000340130Y0000395000D03*
X0000350130Y0000395000D03*
X0000340630Y0000415000D03*
X0000350630Y0000415000D03*
X0000350630Y0000425000D03*
G54D12*
X0000006224Y0000250664D03*
X0000006224Y0000284679D03*
X0000021185Y0000250664D03*
X0000021185Y0000284679D03*
G54D13*
X0000005368Y0000321457D03*
X0000005368Y0000345867D03*
X0000018596Y0000321457D03*
X0000018596Y0000345867D03*
G54D14*
X0000013398Y0000381783D03*
X0000013398Y0000401468D03*
G54D15*
X0000043307Y0000161024D03*
X0000043307Y0000212599D03*
G54D16*
X0000047637Y0000173031D03*
X0000047637Y0000190748D03*
X0000047637Y0000182874D03*
G54D17*
X0000047637Y0000200591D03*
G54D18*
X0000166929Y0000361811D03*
X0000273228Y0000109055D03*
X0000273228Y0000351575D03*
G54D19*
G01X0000006224Y0000247798D02*
X0000006224Y0000250664D01*
G01X0000006224Y0000250664D02*
X0000006224Y0000253529D01*
G01X0000006224Y0000250664D02*
X0000010271Y0000250664D01*
G01X0000006224Y0000281814D02*
X0000006224Y0000284679D01*
G01X0000006224Y0000284679D02*
X0000006224Y0000287545D01*
G01X0000006224Y0000284679D02*
X0000010271Y0000284679D01*
G01X0000005368Y0000317804D02*
X0000005368Y0000321457D01*
G01X0000005368Y0000321457D02*
X0000005368Y0000325110D01*
G01X0000005368Y0000321457D02*
X0000011088Y0000321457D01*
G01X0000005368Y0000342214D02*
X0000005368Y0000345867D01*
G01X0000005368Y0000345867D02*
X0000005368Y0000349520D01*
G01X0000005368Y0000345867D02*
X0000011088Y0000345867D01*
G01X0000021185Y0000247798D02*
X0000021185Y0000250664D01*
G01X0000021185Y0000250664D02*
X0000021185Y0000253529D01*
G01X0000017138Y0000250664D02*
X0000021185Y0000250664D01*
G01X0000021185Y0000250664D02*
X0000025232Y0000250664D01*
G01X0000021185Y0000281814D02*
X0000021185Y0000284679D01*
G01X0000021185Y0000284679D02*
X0000021185Y0000287545D01*
G01X0000017138Y0000284679D02*
X0000021185Y0000284679D01*
G01X0000021185Y0000284679D02*
X0000025232Y0000284679D01*
G01X0000018596Y0000317804D02*
X0000018596Y0000321457D01*
G01X0000018596Y0000321457D02*
X0000018596Y0000325110D01*
G01X0000012876Y0000321457D02*
X0000018596Y0000321457D01*
G01X0000018596Y0000321457D02*
X0000024316Y0000321457D01*
G01X0000018596Y0000342214D02*
X0000018596Y0000345867D01*
G01X0000018596Y0000345867D02*
X0000018596Y0000349520D01*
G01X0000012876Y0000345867D02*
X0000018596Y0000345867D01*
G01X0000018596Y0000345867D02*
X0000024316Y0000345867D01*
G01X0000013398Y0000378327D02*
X0000013398Y0000381783D01*
G01X0000013398Y0000381783D02*
X0000013398Y0000385239D01*
G01X0000010336Y0000381783D02*
X0000013398Y0000381783D01*
G01X0000013398Y0000381783D02*
X0000016460Y0000381783D01*
G01X0000043307Y0000155324D02*
X0000043307Y0000161024D01*
G01X0000043307Y0000161024D02*
X0000043307Y0000166724D01*
G01X0000043307Y0000161024D02*
X0000049007Y0000161024D01*
G01X0000043307Y0000206898D02*
X0000043307Y0000212599D01*
G01X0000043307Y0000212599D02*
X0000043307Y0000218299D01*
G01X0000043307Y0000212599D02*
X0000049007Y0000212599D01*
G01X0000047637Y0000169331D02*
X0000047637Y0000173031D01*
G01X0000047637Y0000173031D02*
X0000047637Y0000176732D01*
G01X0000043937Y0000173031D02*
X0000047637Y0000173031D01*
G01X0000047637Y0000173031D02*
X0000051338Y0000173031D01*
M02*
