G04 ================== begin FILE IDENTIFICATION RECORD ==================*
G04 Layout Name:  D:/PCB_Project/CutiePi/CutiePi_V2_0/CutiePi_V2_0.brd*
G04 Film Name:    BOTTOM*
G04 File Format:  Gerber RS274X*
G04 File Origin:  Cadence Allegro 16.6-2015-S108*
G04 Origin Date:  Wed Dec 02 16:58:57 2020*
G04 *
G04 Layer:  ETCH/BOTTOM*
G04 Layer:  PIN/BOTTOM*
G04 Layer:  VIA CLASS/BOTTOM*
G04 *
G04 Offset:    (0.000 0.000)*
G04 Mirror:    No*
G04 Mode:      Positive*
G04 Rotation:  0*
G04 FullContactRelief:  No*
G04 UndefLineWidth:     6.000*
G04 ================== end FILE IDENTIFICATION RECORD ====================*
%FSAX55Y55*MOIN*%
%IR0*IPPOS*OFA0.00000B0.00000*MIA0B0*SFA1.00000B1.00000*%
%ADD15C,.1*%
%ADD13O,.100394X.059055*%
%ADD18C,.106299*%
%ADD11C,.02*%
%ADD16C,.06*%
%ADD17R,.06X.06*%
%ADD14O,.047244X.055118*%
%ADD12O,.066929X.043307*%
%ADD10C,.019689*%
%ADD19C,.005*%
%ADD20C,.006*%
%ADD21C,.031*%
%ADD22C,.015*%
%ADD23C,.025*%
%ADD26C,.276854*%
%ADD27C,.032004*%
%ADD29R,.080004X.080004*%
%ADD28C,.072004*%
%ADD24O,.067248X.075122*%
%ADD25O,.059248X.067122*%
G75*
%LPD*%
G75*
G36*
G01X0000352367Y0000023977D02*
G02X0000350527Y0000023434I-0000001000J0D01*
G03X0000330932Y0000003840I-0000011908J-0000007687D01*
G02X0000330389Y0000002000I-0000000542J-0000000840D01*
G01X0000264530Y0000002000D01*
G02X0000263607Y0000003385I0J0000001000D01*
G03X0000263403Y0000004969I-0000001477J0000000615D01*
G02X0000263403Y0000006181I0000000796J0000000606D01*
G03X0000260899Y0000008173I-0000001273J0000000969D01*
G02X0000259361Y0000008173I-0000000769J0000000639D01*
G03X0000256899Y0000008173I-0000001231J-0000001023D01*
G02X0000255361Y0000008173I-0000000769J0000000639D01*
G03X0000252857Y0000006181I-0000001231J-0000001023D01*
G02X0000252857Y0000004969I-0000000796J-0000000606D01*
G03X0000252653Y0000003385I0000001273J-0000000969D01*
G02X0000251730Y0000002000I-0000000923J-0000000385D01*
G01X0000251100Y0000002000D01*
X0000250750Y0000002857D01*
G03X0000250903Y0000004969I-0000001120J0000001143D01*
G02X0000250903Y0000006181I0000000796J0000000606D01*
G03X0000248399Y0000008173I-0000001273J0000000969D01*
G02X0000246861Y0000008173I-0000000769J0000000639D01*
G03X0000244399Y0000008173I-0000001231J-0000001023D01*
G02X0000242861Y0000008173I-0000000769J0000000639D01*
G03X0000240357Y0000006181I-0000001231J-0000001023D01*
G02X0000240357Y0000004969I-0000000796J-0000000606D01*
G03X0000240153Y0000003385I0000001273J-0000000969D01*
G02X0000239230Y0000002000I-0000000923J-0000000385D01*
G01X0000023977Y0000002000D01*
G02X0000023434Y0000003840I0J0000001000D01*
G03X0000003840Y0000023434I-0000007686J0000011908D01*
G02X0000002000Y0000023977I-0000000840J0000000542D01*
G01X0000002000Y0000155000D01*
G02X0000005000Y0000158000I0000003000J0D01*
G01X0000031130Y0000158000D01*
G03X0000036175Y0000160148I0J0000007000D01*
G02X0000037867Y0000159692I0000000721J-0000000693D01*
G03X0000039013Y0000164619I0000005440J0000001332D01*
G02X0000038130Y0000164944I-0000000383J0000000321D01*
G03X0000038130Y0000165000I-0000007000J0000000053D01*
G01X0000038130Y0000208502D01*
G03X0000038128Y0000208672I-0000007000J-0000000001D01*
G02X0000039011Y0000209006I0000000500J0000000012D01*
G03X0000037848Y0000213847I0000004296J0000003593D01*
G02X0000036155Y0000213374I-0000000975J0000000223D01*
G03X0000031130Y0000215500I-0000005025J-0000004874D01*
G01X0000005000Y0000215500D01*
G02X0000002000Y0000218500I0J0000003000D01*
G01X0000002000Y0000247501D01*
G02X0000003543Y0000248341I0000001000J0D01*
G03X0000005043Y0000247898I0000001501J0000002323D01*
G01X0000007406Y0000247898D01*
G03X0000007406Y0000253429I0J0000002766D01*
G01X0000005043Y0000253429D01*
G03X0000003543Y0000252986I0J-0000002766D01*
G02X0000002000Y0000253826I-0000000543J0000000840D01*
G01X0000002000Y0000281516D01*
G02X0000003543Y0000282356I0000001000J0D01*
G03X0000005043Y0000281914I0000001501J0000002323D01*
G01X0000007406Y0000281914D01*
G03X0000007406Y0000287445I0J0000002766D01*
G01X0000005043Y0000287445D01*
G03X0000003543Y0000287002I0J-0000002766D01*
G02X0000002000Y0000287842I-0000000543J0000000840D01*
G01X0000002000Y0000316914D01*
G02X0000003066Y0000317912I0000001000J0D01*
G03X0000003301Y0000317904I0000000235J0000003545D01*
G01X0000007435Y0000317904D01*
G03X0000007435Y0000325010I0J0000003553D01*
G01X0000003301Y0000325010D01*
G03X0000003066Y0000325002I0J-0000003553D01*
G02X0000002000Y0000326000I-0000000066J0000000998D01*
G01X0000002000Y0000341324D01*
G02X0000003066Y0000342321I0000001000J0D01*
G03X0000003301Y0000342314I0000000235J0000003545D01*
G01X0000007435Y0000342314D01*
G03X0000008977Y0000342666I0J0000003553D01*
G02X0000010406Y0000341855I0000000434J-0000000901D01*
G03X0000010459Y0000341569I0000001594J0000000145D01*
G02X0000010040Y0000340461I-0000000963J-0000000269D01*
G03X0000009530Y0000337584I0000001090J-0000001677D01*
G02X0000009530Y0000336984I-0000000400J-0000000300D01*
G03X0000009510Y0000334611I0000001600J-0000001200D01*
G02X0000009510Y0000334025I-0000000405J-0000000293D01*
G03X0000009530Y0000331653I0000001621J-0000001172D01*
G02X0000009530Y0000331053I-0000000400J-0000000300D01*
G03X0000012730Y0000331053I0000001600J-0000001200D01*
G02X0000012730Y0000331653I0000000400J0000000300D01*
G03X0000012750Y0000334025I-0000001600J0000001200D01*
G02X0000012750Y0000334611I0000000405J0000000293D01*
G03X0000012730Y0000336984I-0000001621J0000001172D01*
G02X0000012730Y0000337584I0000000400J0000000300D01*
G03X0000012916Y0000339683I-0000001600J0000001200D01*
G02X0000013114Y0000340851I0000000893J0000000450D01*
G03X0000013593Y0000341845I-0000001114J0000001149D01*
G02X0000015014Y0000342653I0000000995J-0000000097D01*
G03X0000016529Y0000342314I0000001515J0000003214D01*
G01X0000020663Y0000342314D01*
G03X0000020663Y0000349420I0J0000003553D01*
G01X0000016529Y0000349420D01*
G03X0000013118Y0000344875I0J-0000003553D01*
G02X0000012097Y0000343597I-0000000960J-0000000279D01*
G03X0000011881Y0000343596I-0000000096J-0000001597D01*
G02X0000010846Y0000344873I-0000000075J0000000997D01*
G03X0000007435Y0000349420I-0000003411J0000000994D01*
G01X0000003301Y0000349420D01*
G03X0000003066Y0000349412I0J-0000003553D01*
G02X0000002000Y0000350410I-0000000066J0000000998D01*
G01X0000002000Y0000364338D01*
X0000002380Y0000364432D01*
G03X0000009874Y0000374015I-0000002380J0000009583D01*
G01X0000009874Y0000409449D01*
G03X0000002380Y0000419032I-0000009874J0D01*
G01X0000002000Y0000419126D01*
X0000002000Y0000428779D01*
G02X0000003840Y0000429321I0000001000J0D01*
G03X0000023434Y0000448916I0000011908J0000007686D01*
G02X0000023977Y0000450756I0000000542J0000000840D01*
G01X0000090012Y0000450756D01*
G02X0000090385Y0000448828I0J-0000001000D01*
G03X0000100710Y0000448828I0000005162J-0000012844D01*
G02X0000101083Y0000450756I0000000373J0000000928D01*
G01X0000148689Y0000450756D01*
X0000148689Y0000424177D01*
X0000218242Y0000424177D01*
G03X0000232578Y0000424106I0000007227J0000011807D01*
G01X0000232696Y0000424177D01*
X0000233177Y0000424177D01*
X0000234453Y0000425453D01*
X0000234468Y0000425465D01*
G03X0000235987Y0000426984I-0000008999J0000010518D01*
G01X0000236000Y0000426999D01*
X0000239500Y0000430500D01*
X0000239500Y0000450756D01*
X0000330389Y0000450756D01*
G02X0000330932Y0000448916I0J-0000001000D01*
G03X0000350527Y0000429321I0000007687J-0000011908D01*
G02X0000352367Y0000428779I0000000840J-0000000542D01*
G01X0000352367Y0000164574D01*
G02X0000351226Y0000163584I-0000001000J0D01*
G03X0000349773Y0000160973I-0000000226J-0000001584D01*
G02X0000349773Y0000159689I-0000000767J-0000000642D01*
G03X0000351226Y0000157078I0000001227J-0000001027D01*
G02X0000352367Y0000156088I0000000141J-0000000990D01*
G01X0000352367Y0000023977D01*
G37*
%LPC*%
G75*
G36*
G01X0000051110Y0000180888D02*
G02X0000045171Y0000186024I-0000003472J0000001986D01*
G03X0000045171Y0000187599I-0000000616J0000000787D01*
G02X0000051638Y0000190748I0000002466J0000003150D01*
G01X0000051638Y0000188950D01*
X0000054796Y0000188950D01*
X0000056950Y0000186796D01*
X0000056950Y0000184101D01*
X0000057021Y0000184030D01*
X0000057224Y0000183927D01*
G02X0000055577Y0000181193I-0000000724J-0000001427D01*
G03X0000054423Y0000181193I-0000000577J-0000000817D01*
G02X0000052563Y0000181203I-0000000923J0000001307D01*
G03X0000051110Y0000180888I-0000000585J-0000000811D01*
G37*
G36*
G01X0000082614Y0000065836D02*
X0000085922Y0000065836D01*
X0000105450Y0000046308D01*
X0000105450Y0000031308D01*
X0000116379Y0000020379D01*
G02X0000113621Y0000017621I-0000001379J-0000001379D01*
G01X0000101550Y0000029692D01*
X0000101550Y0000044692D01*
X0000084306Y0000061936D01*
X0000082614Y0000061936D01*
G02X0000082614Y0000065836I0J0000001950D01*
G37*
G36*
G01X0000016529Y0000325010D02*
X0000020663Y0000325010D01*
G02X0000020663Y0000317904I0J-0000003553D01*
G01X0000016529Y0000317904D01*
G02X0000016529Y0000325010I0J0000003553D01*
G37*
G36*
G01X0000020004Y0000287445D02*
X0000022366Y0000287445D01*
G02X0000022366Y0000281914I0J-0000002765D01*
G01X0000020004Y0000281914D01*
G02X0000020004Y0000287445I0J0000002766D01*
G37*
G36*
G01X0000020004Y0000253429D02*
X0000022366Y0000253429D01*
G02X0000022366Y0000247898I0J-0000002765D01*
G01X0000020004Y0000247898D01*
G02X0000020004Y0000253429I0J0000002766D01*
G37*
G36*
G01X0000195200Y0000226997D02*
X0000195200Y0000180503D01*
X0000192497Y0000177800D01*
X0000171003Y0000177800D01*
X0000168800Y0000180003D01*
X0000168800Y0000201503D01*
X0000165003Y0000205300D01*
X0000150503Y0000205300D01*
X0000147800Y0000208003D01*
X0000147800Y0000221997D01*
X0000149503Y0000223700D01*
X0000152003Y0000223700D01*
X0000157503Y0000229200D01*
X0000192997Y0000229200D01*
X0000195200Y0000226997D01*
G37*
G36*
G01X0000106100Y0000386300D02*
G03X0000106100Y0000385700I0000000400J-0000000300D01*
G02X0000102900Y0000385700I-0000001600J-0000001200D01*
G03X0000102900Y0000386300I-0000000400J0000000300D01*
G02X0000106100Y0000386300I0000001600J0000001200D01*
G37*
G36*
G01X0000081600Y0000386300D02*
G03X0000081600Y0000385700I0000000400J-0000000300D01*
G02X0000078400Y0000385700I-0000001600J-0000001200D01*
G03X0000078400Y0000386300I-0000000400J0000000300D01*
G02X0000081600Y0000386300I0000001600J0000001200D01*
G37*
G36*
G01X0000120600Y0000381711D02*
G03X0000120600Y0000381111I0000000400J-0000000300D01*
G02X0000117400Y0000381111I-0000001600J-0000001200D01*
G03X0000117400Y0000381711I-0000000400J0000000300D01*
G02X0000120600Y0000381711I0000001600J0000001200D01*
G37*
G36*
G01X0000109100Y0000376800D02*
G03X0000109100Y0000376200I0000000400J-0000000300D01*
G02X0000105900Y0000376200I-0000001600J-0000001200D01*
G03X0000105900Y0000376800I-0000000400J0000000300D01*
G02X0000109100Y0000376800I0000001600J0000001200D01*
G37*
G36*
G01X0000121100Y0000371300D02*
G03X0000121100Y0000370700I0000000400J-0000000300D01*
G02X0000117900Y0000370700I-0000001600J-0000001200D01*
G03X0000117900Y0000371300I-0000000400J0000000300D01*
G02X0000121100Y0000371300I0000001600J0000001200D01*
G37*
G36*
G01X0000134100Y0000349160D02*
G03X0000134100Y0000348560I0000000400J-0000000300D01*
G02X0000130900Y0000348560I-0000001600J-0000001200D01*
G03X0000130900Y0000349160I-0000000400J0000000300D01*
G02X0000134100Y0000349160I0000001600J0000001200D01*
G37*
G36*
G01X0000141600Y0000343160D02*
G03X0000141600Y0000342560I0000000400J-0000000300D01*
G02X0000138400Y0000342560I-0000001600J-0000001200D01*
G03X0000138400Y0000343160I-0000000400J0000000300D01*
G02X0000141600Y0000343160I0000001600J0000001200D01*
G37*
G36*
G01X0000073060Y0000339600D02*
G03X0000073660Y0000339600I0000000300J0000000400D01*
G02X0000073660Y0000336400I0000001200J-0000001600D01*
G03X0000073060Y0000336400I-0000000300J-0000000400D01*
G02X0000073060Y0000339600I-0000001200J0000001600D01*
G37*
G36*
G01X0000096600Y0000339044D02*
G03X0000096600Y0000338444I0000000400J-0000000300D01*
G02X0000093400Y0000338444I-0000001600J-0000001200D01*
G03X0000093400Y0000339044I-0000000400J0000000300D01*
G02X0000096600Y0000339044I0000001600J0000001200D01*
G37*
G36*
G01X0000134100Y0000336660D02*
G03X0000134100Y0000336060I0000000400J-0000000300D01*
G02X0000130900Y0000336060I-0000001600J-0000001200D01*
G03X0000130900Y0000336660I-0000000400J0000000300D01*
G02X0000134100Y0000336660I0000001600J0000001200D01*
G37*
G36*
G01X0000081600Y0000334320D02*
G03X0000081600Y0000333720I0000000400J-0000000300D01*
G02X0000078400Y0000333720I-0000001600J-0000001200D01*
G03X0000078400Y0000334320I-0000000400J0000000300D01*
G02X0000081600Y0000334320I0000001600J0000001200D01*
G37*
G36*
G01X0000141600Y0000330660D02*
G03X0000141600Y0000330060I0000000400J-0000000300D01*
G02X0000138400Y0000330060I-0000001600J-0000001200D01*
G03X0000138400Y0000330660I-0000000400J0000000300D01*
G02X0000141600Y0000330660I0000001600J0000001200D01*
G37*
G36*
G01X0000134100Y0000324871D02*
G03X0000134100Y0000324271I0000000400J-0000000300D01*
G02X0000130900Y0000324271I-0000001600J-0000001200D01*
G03X0000130900Y0000324871I-0000000400J0000000300D01*
G02X0000134100Y0000324871I0000001600J0000001200D01*
G37*
G36*
G01X0000094900Y0000315534D02*
G03X0000094900Y0000314934I0000000400J-0000000300D01*
G02X0000091699Y0000314934I-0000001600J-0000001200D01*
G03X0000091699Y0000315534I-0000000400J0000000300D01*
G02X0000094900Y0000315534I0000001600J0000001200D01*
G37*
G36*
G01X0000342080Y0000146055D02*
G03X0000341380Y0000146055I-0000000350J-0000000357D01*
G02X0000341380Y0000148912I-0000001400J0000001428D01*
G03X0000342080Y0000148912I0000000350J0000000357D01*
G02X0000342080Y0000146055I0000001400J-0000001429D01*
G37*
G36*
G01X0000342080Y0000140555D02*
G03X0000341380Y0000140555I-0000000350J-0000000357D01*
G02X0000341380Y0000143412I-0000001400J0000001428D01*
G03X0000342080Y0000143412I0000000350J0000000357D01*
G02X0000342080Y0000140555I0000001400J-0000001429D01*
G37*
G36*
G01X0000342080Y0000135055D02*
G03X0000341380Y0000135055I-0000000350J-0000000357D01*
G02X0000341380Y0000137912I-0000001400J0000001428D01*
G03X0000342080Y0000137912I0000000350J0000000357D01*
G02X0000342080Y0000135055I0000001400J-0000001429D01*
G37*
G36*
G01X0000235186Y0000173906D02*
X0000231700Y0000170421D01*
X0000231700Y0000125829D01*
X0000223186Y0000117314D01*
G02X0000220074Y0000120426I-0000001556J0000001556D01*
G01X0000227300Y0000127651D01*
X0000227300Y0000172244D01*
X0000231430Y0000176374D01*
X0000231430Y0000192541D01*
X0000256589Y0000217700D01*
X0000266130Y0000217700D01*
G02X0000266130Y0000213300I0J-0000002200D01*
G01X0000258411Y0000213300D01*
X0000235830Y0000190719D01*
X0000235830Y0000175462D01*
G02X0000235186Y0000173906I-0000002200J0D01*
G37*
G36*
G01X0000205861Y0000018977D02*
G02X0000203607Y0000021231I-0000001231J0000001023D01*
G03X0000203607Y0000022769I-0000000639J0000000769D01*
G02X0000205861Y0000025023I0000001023J0000001231D01*
G03X0000207399Y0000025023I0000000769J0000000639D01*
G02X0000209861Y0000025023I0000001231J-0000001023D01*
G03X0000211399Y0000025023I0000000769J0000000639D01*
G02X0000213653Y0000022769I0000001231J-0000001023D01*
G03X0000213653Y0000021231I0000000639J-0000000769D01*
G02X0000211399Y0000018977I-0000001023J-0000001231D01*
G03X0000209861Y0000018977I-0000000769J-0000000639D01*
G02X0000207399Y0000018977I-0000001231J0000001023D01*
G03X0000205861Y0000018977I-0000000769J-0000000639D01*
G37*
G36*
G01X0000240997Y0000083300D02*
X0000240944Y0000083300D01*
G03X0000240054Y0000081844I0J-0000001000D01*
G02X0000237206Y0000081844I-0000001424J-0000000730D01*
G03X0000236316Y0000083300I-0000000890J0000000456D01*
G01X0000131003Y0000083300D01*
X0000127800Y0000086503D01*
X0000127800Y0000095503D01*
X0000126300Y0000097003D01*
X0000126300Y0000109997D01*
X0000128503Y0000112200D01*
X0000143497Y0000112200D01*
X0000143946Y0000111751D01*
G03X0000144800Y0000112105I0000000354J0000000354D01*
G01X0000144800Y0000112997D01*
X0000147300Y0000115497D01*
X0000147300Y0000128503D01*
X0000144003Y0000131800D01*
X0000128503Y0000131800D01*
X0000119300Y0000141003D01*
X0000119300Y0000295497D01*
X0000146300Y0000322497D01*
X0000146300Y0000371503D01*
X0000126503Y0000391300D01*
X0000026003Y0000391300D01*
X0000024800Y0000392503D01*
X0000024800Y0000399497D01*
X0000026003Y0000400700D01*
X0000030882Y0000400700D01*
X0000030901Y0000401180D01*
G02X0000034099Y0000401180I0000001599J-0000000066D01*
G01X0000034118Y0000400700D01*
X0000132497Y0000400700D01*
X0000157449Y0000375748D01*
X0000157449Y0000320248D01*
X0000166997Y0000310700D01*
X0000237526Y0000310700D01*
G03X0000238477Y0000312008I0J0000001000D01*
G02X0000241523Y0000312008I0000001523J0000000492D01*
G03X0000242474Y0000310700I0000000952J-0000000308D01*
G01X0000244688Y0000310700D01*
G03X0000245395Y0000312407I0J0000001000D01*
G01X0000245300Y0000312503D01*
X0000245300Y0000325409D01*
G03X0000244848Y0000325907I-0000000500J0D01*
G02X0000244848Y0000329093I0000000152J0000001593D01*
G03X0000245300Y0000329591I-0000000048J0000000498D01*
G01X0000245300Y0000330409D01*
G03X0000244848Y0000330907I-0000000500J0D01*
G02X0000244848Y0000334093I0000000152J0000001593D01*
G03X0000245300Y0000334591I-0000000048J0000000498D01*
G01X0000245300Y0000335409D01*
G03X0000244848Y0000335907I-0000000500J0D01*
G02X0000244848Y0000339093I0000000152J0000001593D01*
G03X0000245300Y0000339591I-0000000048J0000000498D01*
G01X0000245300Y0000345409D01*
G03X0000244848Y0000345907I-0000000500J0D01*
G02X0000244848Y0000349093I0000000152J0000001593D01*
G03X0000245300Y0000349591I-0000000048J0000000498D01*
G01X0000245300Y0000350409D01*
G03X0000244848Y0000350907I-0000000500J0D01*
G02X0000243411Y0000352684I0000000153J0000001593D01*
G03X0000242417Y0000353800I-0000000993J0000000115D01*
G01X0000232583Y0000353800D01*
G03X0000231589Y0000352684I0J-0000001000D01*
G02X0000228411Y0000352684I-0000001589J-0000000184D01*
G03X0000227417Y0000353800I-0000000993J0000000115D01*
G01X0000220083Y0000353800D01*
G03X0000219089Y0000352684I0J-0000001000D01*
G02X0000215911Y0000352684I-0000001589J-0000000184D01*
G03X0000214917Y0000353800I-0000000993J0000000115D01*
G01X0000213942Y0000353800D01*
X0000213942Y0000353201D01*
X0000213980Y0000353109D01*
G02X0000211078Y0000353233I-0000001480J-0000000609D01*
G01X0000211245Y0000353558D01*
X0000208800Y0000356003D01*
X0000208800Y0000395497D01*
X0000249003Y0000435700D01*
X0000315497Y0000435700D01*
X0000347700Y0000403497D01*
X0000347700Y0000165503D01*
X0000345536Y0000163339D01*
G03X0000345458Y0000162014I0000000707J-0000000707D01*
G02X0000345358Y0000159920I-0000001258J-0000000989D01*
G03X0000345264Y0000158653I0000000724J-0000000690D01*
G02X0000344908Y0000155962I-0000001634J-0000001153D01*
G03X0000344865Y0000154462I0000000639J-0000000769D01*
G02X0000342100Y0000151572I-0000001365J-0000001462D01*
G03X0000341400Y0000151572I-0000000350J-0000000357D01*
G02X0000338677Y0000154500I-0000001400J0000001429D01*
G03X0000338677Y0000156000I-0000000662J0000000750D01*
G02X0000338197Y0000158367I0000001323J0000001500D01*
G03X0000337296Y0000159800I-0000000901J0000000433D01*
G01X0000329722Y0000159800D01*
G03X0000328726Y0000158877I0J-0000001000D01*
G02X0000326866Y0000157422I-0000001595J0000000123D01*
G03X0000325700Y0000156436I-0000000165J-0000000986D01*
G01X0000325700Y0000130099D01*
G03X0000326184Y0000129599I0000000500J0D01*
G02X0000327361Y0000129023I-0000000054J-0000001599D01*
G03X0000328899Y0000129023I0000000769J0000000639D01*
G02X0000328899Y0000126977I0000001231J-0000001023D01*
G03X0000327361Y0000126977I-0000000769J-0000000639D01*
G02X0000326184Y0000126401I-0000001231J0000001023D01*
G03X0000325700Y0000125901I0000000017J-0000000500D01*
G01X0000325700Y0000121099D01*
G03X0000326184Y0000120599I0000000500J0D01*
G02X0000327361Y0000120023I-0000000054J-0000001599D01*
G03X0000328899Y0000120023I0000000769J0000000639D01*
G02X0000331207Y0000120184I0000001231J-0000001023D01*
G03X0000332553Y0000120184I0000000673J0000000740D01*
G02X0000332553Y0000117816I0000001077J-0000001184D01*
G03X0000331207Y0000117816I-0000000673J-0000000740D01*
G02X0000328899Y0000117977I-0000001077J0000001184D01*
G03X0000327361Y0000117977I-0000000769J-0000000639D01*
G02X0000326184Y0000117401I-0000001231J0000001023D01*
G03X0000325700Y0000116901I0000000017J-0000000500D01*
G01X0000325700Y0000099003D01*
X0000304997Y0000078300D01*
X0000291497Y0000078300D01*
X0000278997Y0000065800D01*
X0000268497Y0000065800D01*
X0000263997Y0000061300D01*
X0000159997Y0000061300D01*
X0000130100Y0000031403D01*
X0000130100Y0000022403D01*
X0000127997Y0000020300D01*
X0000120003Y0000020300D01*
X0000118300Y0000022003D01*
X0000118300Y0000040997D01*
X0000154003Y0000076700D01*
X0000245503Y0000076700D01*
X0000283300Y0000114497D01*
X0000283300Y0000132503D01*
X0000279800Y0000136003D01*
X0000279800Y0000196950D01*
G03X0000278542Y0000197916I-0000001000J0D01*
G02X0000278542Y0000201008I-0000000412J0000001546D01*
G03X0000279800Y0000201975I0000000258J0000000966D01*
G01X0000279800Y0000203218D01*
X0000279148Y0000203218D01*
X0000279021Y0000203133D01*
G02X0000278542Y0000206008I-0000000891J0000001329D01*
G03X0000279800Y0000206975I0000000258J0000000966D01*
G01X0000279800Y0000293188D01*
G03X0000278093Y0000293895I-0000001000J0D01*
G01X0000277997Y0000293800D01*
X0000143997Y0000293800D01*
X0000137700Y0000287503D01*
X0000137700Y0000162997D01*
X0000141247Y0000159450D01*
X0000152247Y0000159450D01*
X0000159747Y0000151950D01*
X0000184247Y0000151950D01*
X0000190700Y0000145497D01*
X0000190700Y0000100003D01*
X0000190105Y0000099407D01*
G03X0000190812Y0000097700I0000000707J-0000000707D01*
G01X0000240997Y0000097700D01*
X0000242700Y0000095997D01*
X0000242700Y0000085003D01*
X0000240997Y0000083300D01*
G37*
G36*
G01X0000297390Y0000030353D02*
G02X0000297290Y0000032370I-0000001290J0000000947D01*
G03X0000298840Y0000032447I0000000744J0000000669D01*
G02X0000298940Y0000030430I0000001290J-0000000947D01*
G03X0000297390Y0000030353I-0000000744J-0000000669D01*
G37*
G36*
G01X0000212653Y0000048231D02*
G02X0000210607Y0000048231I-0000001023J-0000001231D01*
G03X0000210607Y0000049769I-0000000639J0000000769D01*
G02X0000212653Y0000049769I0000001023J0000001231D01*
G03X0000212653Y0000048231I0000000639J-0000000769D01*
G37*
G36*
G01X0000217653Y0000048231D02*
G02X0000215607Y0000048231I-0000001023J-0000001231D01*
G03X0000215607Y0000049769I-0000000639J0000000769D01*
G02X0000217653Y0000049769I0000001023J0000001231D01*
G03X0000217653Y0000048231I0000000639J-0000000769D01*
G37*
G36*
G01X0000119361Y0000054477D02*
G02X0000117107Y0000056731I-0000001231J0000001023D01*
G03X0000117107Y0000058269I-0000000639J0000000769D01*
G02X0000119361Y0000060523I0000001023J0000001231D01*
G03X0000120899Y0000060523I0000000769J0000000639D01*
G02X0000123361Y0000060523I0000001231J-0000001023D01*
G03X0000124899Y0000060523I0000000769J0000000639D01*
G02X0000127153Y0000058269I0000001231J-0000001023D01*
G03X0000127153Y0000056731I0000000639J-0000000769D01*
G02X0000124899Y0000054477I-0000001023J-0000001231D01*
G03X0000123361Y0000054477I-0000000769J-0000000639D01*
G02X0000120899Y0000054477I-0000001231J0000001023D01*
G03X0000119361Y0000054477I-0000000769J-0000000639D01*
G37*
G36*
G01X0000300639Y0000073477D02*
G02X0000300639Y0000075523I-0000001231J0000001023D01*
G03X0000302177Y0000075523I0000000769J0000000639D01*
G02X0000302177Y0000073477I0000001231J-0000001023D01*
G03X0000300639Y0000073477I-0000000769J-0000000639D01*
G37*
G36*
G01X0000076200Y0000206442D02*
X0000076799Y0000206442D01*
X0000076891Y0000206480D01*
G02X0000077316Y0000203411I0000000609J-0000001480D01*
G03X0000076200Y0000202417I-0000000115J-0000000993D01*
G01X0000076200Y0000116503D01*
X0000043497Y0000083800D01*
X0000022003Y0000083800D01*
X0000020800Y0000085003D01*
X0000020800Y0000092497D01*
X0000022503Y0000094200D01*
X0000034503Y0000094200D01*
X0000059300Y0000118997D01*
X0000059300Y0000178997D01*
X0000060800Y0000180497D01*
X0000060800Y0000188003D01*
X0000057050Y0000191753D01*
X0000057050Y0000246747D01*
X0000058800Y0000248497D01*
X0000058800Y0000273503D01*
X0000034300Y0000298003D01*
X0000034300Y0000323746D01*
G03X0000032969Y0000324690I-0000001000J0D01*
G02X0000030707Y0000327778I-0000000662J0000001888D01*
G03X0000030707Y0000328378I-0000000400J0000000300D01*
G02X0000030712Y0000330783I0000001600J0000001200D01*
G03X0000030709Y0000331993I-0000000798J0000000603D01*
G02X0000030700Y0000334405I0000001591J0000001212D01*
G03X0000030700Y0000335005I-0000000400J0000000300D01*
G02X0000031019Y0000337741I0000001600J0000001200D01*
G03X0000031086Y0000339217I-0000000640J0000000768D01*
G01X0000029300Y0000341003D01*
X0000029300Y0000350997D01*
X0000030503Y0000352200D01*
X0000034497Y0000352200D01*
X0000035538Y0000351160D01*
X0000043879Y0000359500D01*
X0000072546Y0000359500D01*
G03X0000073364Y0000361076I0J0000001000D01*
G02X0000073400Y0000363426I0000001636J0000001151D01*
G03X0000073400Y0000364026I-0000000400J0000000300D01*
G02X0000076600Y0000364026I0000001600J0000001200D01*
G03X0000076600Y0000363426I0000000400J-0000000300D01*
G02X0000076636Y0000361076I-0000001600J-0000001200D01*
G03X0000077454Y0000359500I0000000818J-0000000575D01*
G01X0000094621Y0000359500D01*
X0000100874Y0000353247D01*
G03X0000102512Y0000353587I0000000707J0000000707D01*
G02X0000103267Y0000354423I0000001488J-0000000587D01*
G01X0000103337Y0000354458D01*
X0000105879Y0000357000D01*
X0000110621Y0000357000D01*
X0000114500Y0000353121D01*
X0000114500Y0000343379D01*
X0000097621Y0000326500D01*
X0000061121Y0000326500D01*
X0000056458Y0000321837D01*
X0000056423Y0000321767D01*
G02X0000054267Y0000323923I-0000001423J0000000733D01*
G01X0000054337Y0000323958D01*
X0000059879Y0000329500D01*
X0000096379Y0000329500D01*
X0000107171Y0000340293D01*
G03X0000106464Y0000342000I-0000000707J0000000707D01*
G01X0000100879Y0000342000D01*
X0000098379Y0000344500D01*
X0000094121Y0000344500D01*
X0000092621Y0000343000D01*
X0000087379Y0000343000D01*
X0000084810Y0000345568D01*
X0000082973Y0000345568D01*
G03X0000081982Y0000344702I0J-0000001000D01*
G02X0000081600Y0000343768I-0000001982J0000000267D01*
G03X0000081600Y0000343168I0000000400J-0000000300D01*
G02X0000078120Y0000342650I-0000001600J-0000001200D01*
G01X0000078228Y0000342950D01*
X0000077650Y0000343528D01*
X0000076621Y0000342500D01*
X0000070621Y0000342500D01*
X0000068621Y0000340500D01*
X0000060100Y0000340500D01*
X0000060100Y0000340000D01*
G02X0000057423Y0000338816I-0000001600J0D01*
G03X0000056077Y0000338816I-0000000673J-0000000740D01*
G02X0000053400Y0000340000I-0000001077J0000001184D01*
G01X0000053400Y0000340500D01*
X0000041112Y0000340500D01*
G03X0000040405Y0000338793I0J-0000001000D01*
G01X0000044200Y0000334997D01*
X0000044200Y0000306997D01*
X0000076200Y0000274997D01*
X0000076200Y0000212583D01*
G03X0000077316Y0000211590I0000001000J0D01*
G02X0000077316Y0000208410I0000000184J-0000001589D01*
G03X0000076200Y0000207417I-0000000115J-0000000993D01*
G01X0000076200Y0000206442D01*
G37*
G54D26*
X0000095548Y0000247007D03*
X0000225469Y0000247007D03*
G54D27*
X0000055000Y0000080000D03*
X0000050000Y0000080000D03*
X0000055000Y0000085000D03*
X0000050000Y0000085000D03*
X0000050000Y0000257500D03*
X0000055000Y0000257500D03*
X0000050000Y0000252500D03*
X0000055000Y0000252500D03*
X0000055000Y0000312500D03*
X0000050000Y0000312500D03*
X0000050000Y0000322500D03*
X0000050000Y0000317500D03*
X0000055000Y0000317500D03*
X0000079386Y0000070886D03*
X0000082500Y0000210000D03*
X0000082500Y0000205000D03*
X0000124500Y0000013500D03*
X0000126435Y0000126517D03*
X0000111000Y0000141500D03*
X0000134000Y0000014000D03*
X0000133500Y0000024500D03*
X0000133500Y0000029000D03*
X0000130614Y0000016500D03*
X0000131435Y0000126517D03*
X0000136435Y0000126517D03*
X0000141435Y0000126517D03*
X0000155000Y0000180500D03*
X0000160000Y0000180500D03*
X0000165000Y0000170500D03*
X0000165000Y0000175500D03*
X0000207500Y0000347500D03*
X0000202500Y0000347500D03*
X0000202500Y0000352500D03*
X0000207500Y0000352500D03*
X0000212500Y0000327500D03*
X0000225000Y0000347500D03*
X0000217500Y0000337500D03*
X0000212500Y0000337500D03*
X0000217500Y0000332500D03*
X0000225000Y0000337500D03*
X0000212500Y0000332500D03*
X0000217500Y0000342500D03*
X0000212500Y0000347500D03*
X0000212500Y0000342500D03*
X0000217594Y0000347406D03*
X0000232687Y0000050557D03*
X0000232687Y0000055557D03*
X0000237630Y0000050500D03*
X0000237630Y0000055500D03*
X0000240630Y0000169462D03*
X0000240000Y0000327500D03*
X0000230000Y0000322500D03*
X0000240000Y0000332500D03*
X0000230000Y0000347500D03*
X0000240000Y0000342500D03*
X0000230000Y0000332500D03*
X0000240000Y0000347500D03*
X0000250000Y0000029000D03*
X0000253130Y0000154462D03*
X0000253130Y0000164462D03*
X0000253130Y0000169462D03*
X0000245630Y0000186962D03*
X0000245630Y0000191962D03*
X0000273130Y0000159462D03*
X0000260630Y0000154462D03*
X0000268130Y0000159462D03*
X0000268130Y0000154462D03*
X0000260630Y0000159462D03*
X0000268130Y0000169462D03*
X0000268130Y0000174462D03*
X0000279016Y0000012114D03*
X0000285130Y0000026000D03*
X0000278630Y0000045500D03*
X0000292744Y0000045500D03*
X0000285630Y0000037500D03*
G54D29*
X0000047637Y0000200591D03*
G54D28*
X0000047637Y0000173031D03*
G54D24*
X0000017520Y0000401575D03*
G54D25*
X0000017520Y0000381890D03*
%LPD*%
G75*
G36*
G01X0000022500Y0000085000D02*
X0000022000Y0000085500D01*
X0000022000Y0000092000D01*
X0000023000Y0000093000D01*
X0000035000Y0000093000D01*
X0000060500Y0000118500D01*
X0000060500Y0000178500D01*
X0000062000Y0000180000D01*
X0000062000Y0000188500D01*
X0000058250Y0000192250D01*
X0000058250Y0000246250D01*
X0000060000Y0000248000D01*
X0000060000Y0000274000D01*
X0000035500Y0000298500D01*
X0000035500Y0000336500D01*
X0000030500Y0000341500D01*
X0000030500Y0000350500D01*
X0000031000Y0000351000D01*
X0000034000Y0000351000D01*
X0000034500Y0000350500D01*
X0000034500Y0000350058D01*
X0000034489Y0000350026D01*
G03X0000034489Y0000348974I0000001511J-0000000526D01*
G01X0000034500Y0000348942D01*
X0000034500Y0000343000D01*
X0000035970Y0000341530D01*
X0000035984Y0000341486D01*
G03X0000036986Y0000340484I0000001515J0000000514D01*
G01X0000037030Y0000340470D01*
X0000043000Y0000334500D01*
X0000043000Y0000306500D01*
X0000075000Y0000274500D01*
X0000075000Y0000117000D01*
X0000043000Y0000085000D01*
X0000022500Y0000085000D01*
G37*
G36*
G01X0000278500Y0000296000D02*
X0000277500Y0000295000D01*
X0000143500Y0000295000D01*
X0000136500Y0000288000D01*
X0000136500Y0000162500D01*
X0000140750Y0000158250D01*
X0000151750Y0000158250D01*
X0000159250Y0000150750D01*
X0000183750Y0000150750D01*
X0000189500Y0000145000D01*
X0000189500Y0000100500D01*
X0000187000Y0000098000D01*
X0000149000Y0000098000D01*
X0000146000Y0000101000D01*
X0000146000Y0000112500D01*
X0000148500Y0000115000D01*
X0000148500Y0000129000D01*
X0000144500Y0000133000D01*
X0000129000Y0000133000D01*
X0000120500Y0000141500D01*
X0000120500Y0000295000D01*
X0000147500Y0000322000D01*
X0000147500Y0000372000D01*
X0000127000Y0000392500D01*
X0000026500Y0000392500D01*
X0000026000Y0000393000D01*
X0000026000Y0000399000D01*
X0000026500Y0000399500D01*
X0000132000Y0000399500D01*
X0000156249Y0000375251D01*
X0000156249Y0000319751D01*
X0000166500Y0000309500D01*
X0000259500Y0000309500D01*
X0000265500Y0000315500D01*
X0000265500Y0000330500D01*
X0000266500Y0000331500D01*
X0000278500Y0000331500D01*
X0000279000Y0000331000D01*
X0000279000Y0000327500D01*
X0000278000Y0000326500D01*
X0000275500Y0000326500D01*
X0000274500Y0000325500D01*
X0000274500Y0000314000D01*
X0000278500Y0000310000D01*
X0000278500Y0000296000D01*
G37*
G36*
G01X0000036186Y0000343012D02*
X0000035700Y0000343497D01*
X0000035700Y0000347409D01*
G02X0000036152Y0000347907I0000000500J0D01*
G03X0000037423Y0000348767I-0000000153J0000001593D01*
G01X0000037458Y0000348837D01*
X0000045121Y0000356500D01*
X0000074171Y0000356500D01*
G02X0000075114Y0000355167I0J-0000001000D01*
G03X0000075400Y0000353300I0000001886J-0000000667D01*
G02X0000075400Y0000352700I-0000000400J-0000000300D01*
G03X0000075268Y0000350500I0000001600J-0000001200D01*
G02X0000074402Y0000349000I-0000000866J-0000000500D01*
G01X0000073121Y0000349000D01*
X0000070621Y0000351500D01*
X0000059879Y0000351500D01*
X0000058837Y0000350458D01*
X0000058767Y0000350423D01*
G03X0000060954Y0000348333I0000000733J-0000001423D01*
G01X0000061121Y0000348500D01*
X0000069379Y0000348500D01*
X0000070671Y0000347207D01*
G02X0000069964Y0000345500I-0000000707J-0000000707D01*
G01X0000069379Y0000345500D01*
X0000068986Y0000345108D01*
X0000068592Y0000345503D01*
X0000068561Y0000345552D01*
G03X0000065660Y0000346100I-0000001701J-0000001052D01*
G02X0000065060Y0000346100I-0000000300J0000000400D01*
G03X0000061860Y0000344500I-0000001200J-0000001600D01*
G02X0000060860Y0000343500I-0000001000J0D01*
G01X0000047124Y0000343500D01*
G02X0000046307Y0000345077I0J0000001000D01*
G03X0000043693Y0000345077I-0000001307J0000000923D01*
G02X0000042876Y0000343500I-0000000817J-0000000577D01*
G01X0000038062Y0000343500D01*
X0000037988Y0000343524D01*
G03X0000036533Y0000343275I-0000000488J-0000001524D01*
G01X0000036186Y0000343012D01*
G37*
G36*
G01X0000050387Y0000185874D02*
X0000047637Y0000185874D01*
X0000047593Y0000182830D01*
X0000050637Y0000182874D01*
X0000050637Y0000185624D01*
G03X0000050387Y0000185874I-0000000250J0D01*
G37*
G36*
G01X0000050637Y0000187998D02*
X0000050637Y0000190748D01*
X0000047593Y0000190792D01*
X0000047637Y0000187748D01*
X0000050387Y0000187748D01*
G03X0000050637Y0000187998I0J0000000250D01*
G37*
G36*
G01X0000120500Y0000021500D02*
X0000119500Y0000022500D01*
X0000119500Y0000040500D01*
X0000154500Y0000075500D01*
X0000246000Y0000075500D01*
X0000284500Y0000114000D01*
X0000284500Y0000133000D01*
X0000281000Y0000136500D01*
X0000281000Y0000332000D01*
X0000279000Y0000334000D01*
X0000262500Y0000334000D01*
X0000261000Y0000332500D01*
X0000261000Y0000315500D01*
X0000258000Y0000312500D01*
X0000247000Y0000312500D01*
X0000246500Y0000313000D01*
X0000246500Y0000326942D01*
X0000246511Y0000326974D01*
G03X0000246511Y0000328026I-0000001511J0000000526D01*
G01X0000246500Y0000328058D01*
X0000246500Y0000331942D01*
X0000246511Y0000331974D01*
G03X0000246511Y0000333026I-0000001511J0000000526D01*
G01X0000246500Y0000333058D01*
X0000246500Y0000336942D01*
X0000246511Y0000336974D01*
G03X0000246511Y0000338026I-0000001511J0000000526D01*
G01X0000246500Y0000338058D01*
X0000246500Y0000346942D01*
X0000246511Y0000346974D01*
G03X0000246511Y0000348026I-0000001511J0000000526D01*
G01X0000246500Y0000348058D01*
X0000246500Y0000351500D01*
X0000248000Y0000353000D01*
X0000254500Y0000353000D01*
X0000258000Y0000356500D01*
X0000258000Y0000383800D01*
G02X0000258720Y0000384040I0000000400J0D01*
G03X0000258720Y0000385960I0000001280J0000000960D01*
G02X0000258000Y0000386200I-0000000320J0000000240D01*
G01X0000258000Y0000391500D01*
X0000260000Y0000393500D01*
X0000302592Y0000393500D01*
G02X0000302974Y0000392980I0J-0000000400D01*
G03X0000306026Y0000392980I0000001526J-0000000480D01*
G02X0000306408Y0000393500I0000000382J0000000120D01*
G01X0000310500Y0000393500D01*
X0000312500Y0000391500D01*
X0000312500Y0000327998D01*
G02X0000312080Y0000327598I-0000000400J0D01*
G03X0000312080Y0000324402I-0000000080J-0000001598D01*
G02X0000312500Y0000324002I0000000020J-0000000399D01*
G01X0000312500Y0000284000D01*
X0000324500Y0000272000D01*
X0000324500Y0000099500D01*
X0000304500Y0000079500D01*
X0000291000Y0000079500D01*
X0000278500Y0000067000D01*
X0000268000Y0000067000D01*
X0000263500Y0000062500D01*
X0000159500Y0000062500D01*
X0000128900Y0000031900D01*
X0000128900Y0000022900D01*
X0000127500Y0000021500D01*
X0000120500Y0000021500D01*
G37*
G36*
G01X0000143000Y0000111000D02*
X0000144000Y0000110000D01*
X0000144000Y0000100000D01*
X0000147500Y0000096500D01*
X0000240500Y0000096500D01*
X0000241500Y0000095500D01*
X0000241500Y0000085500D01*
X0000240500Y0000084500D01*
X0000131500Y0000084500D01*
X0000129000Y0000087000D01*
X0000129000Y0000096000D01*
X0000127500Y0000097500D01*
X0000127500Y0000109500D01*
X0000129000Y0000111000D01*
X0000143000Y0000111000D01*
G37*
G36*
G01X0000171500Y0000179000D02*
X0000170000Y0000180500D01*
X0000170000Y0000202000D01*
X0000165500Y0000206500D01*
X0000151000Y0000206500D01*
X0000149000Y0000208500D01*
X0000149000Y0000221500D01*
X0000150000Y0000222500D01*
X0000152500Y0000222500D01*
X0000158000Y0000228000D01*
X0000192500Y0000228000D01*
X0000194000Y0000226500D01*
X0000194000Y0000181000D01*
X0000192000Y0000179000D01*
X0000171500Y0000179000D01*
G37*
G36*
G01X0000328000Y0000161000D02*
X0000327000Y0000162000D01*
X0000327000Y0000272500D01*
X0000314000Y0000285500D01*
X0000314000Y0000298078D01*
G02X0000314518Y0000298460I0000000400J0D01*
G03X0000314518Y0000301518I0000000472J0000001529D01*
G02X0000314000Y0000301901I-0000000118J0000000382D01*
G01X0000314000Y0000393000D01*
X0000312000Y0000395000D01*
X0000259000Y0000395000D01*
X0000256500Y0000392500D01*
X0000256500Y0000358000D01*
X0000253500Y0000355000D01*
X0000211500Y0000355000D01*
X0000210000Y0000356500D01*
X0000210000Y0000395000D01*
X0000249500Y0000434500D01*
X0000315000Y0000434500D01*
X0000346500Y0000403000D01*
X0000346500Y0000166000D01*
X0000341500Y0000161000D01*
X0000328000Y0000161000D01*
G37*
%LPC*%
G75*
G36*
G01X0000063084Y0000194997D02*
G02X0000063016Y0000196859I-0000001334J0000000883D01*
G03X0000063666Y0000196883I0000000316J0000000245D01*
G02X0000063734Y0000195021I0000001334J-0000000883D01*
G03X0000063084Y0000194997I-0000000316J-0000000245D01*
G37*
G36*
G01X0000178900Y0000196225D02*
G02X0000176297Y0000198056I-0000001400J0000000775D01*
G03X0000176164Y0000198683I-0000000301J0000000264D01*
G02X0000178364Y0000201963I0000000836J0000001817D01*
G03X0000178636Y0000201963I0000000136J0000000146D01*
G02X0000181457Y0000199129I0000001364J-0000001463D01*
G03X0000181598Y0000198484I0000000291J-0000000274D01*
G02X0000179600Y0000196225I-0000000598J-0000001484D01*
G03X0000178900Y0000196225I-0000000350J-0000000194D01*
G37*
G36*
G01X0000267647Y0000431313D02*
G03X0000267920Y0000431313I0000000136J0000000146D01*
G02X0000267920Y0000428387I0000001364J-0000001463D01*
G03X0000267647Y0000428387I-0000000136J-0000000146D01*
G02X0000264637Y0000428714I-0000001364J0000001463D01*
G03X0000264046Y0000428789I-0000000329J-0000000227D01*
G02X0000264152Y0000431110I-0000001046J0000001211D01*
G03X0000264748Y0000431131I0000000288J0000000278D01*
G02X0000267647Y0000431313I0000001536J-0000001282D01*
G37*
G36*
G01X0000327587Y0000327412D02*
G03X0000328109Y0000327117I0000000391J0000000082D01*
G02X0000327137Y0000325028I0000000521J-0000001513D01*
G03X0000326575Y0000325237I-0000000373J-0000000144D01*
G02X0000324261Y0000328458I-0000000945J0000001763D01*
G03X0000324261Y0000329042I-0000000274J0000000292D01*
G02X0000326702Y0000332189I0000001369J0000001458D01*
G03X0000327261Y0000332323I0000000214J0000000338D01*
G02X0000328030Y0000330028I0000001377J-0000000814D01*
G03X0000327503Y0000329799I-0000000152J-0000000370D01*
G02X0000326999Y0000329042I-0000001873J0000000701D01*
G03X0000326999Y0000328458I0000000274J-0000000292D01*
G02X0000327587Y0000327412I-0000001369J-0000001458D01*
G37*
G36*
G01X0000320322Y0000319264D02*
G03X0000319794Y0000319058I-0000000162J-0000000366D01*
G02X0000318700Y0000321254I-0000001467J0000000640D01*
G03X0000319183Y0000321551I0000000093J0000000389D01*
G02X0000319761Y0000322552I0000001947J-0000000457D01*
G03X0000319761Y0000323135I-0000000274J0000000292D01*
G02X0000319287Y0000323817I0000001369J0000001458D01*
G03X0000318761Y0000324029I-0000000369J-0000000155D01*
G02X0000319469Y0000326376I-0000000631J0000001471D01*
G03X0000320025Y0000326261I0000000335J0000000219D01*
G02X0000322499Y0000323135I0000001105J-0000001667D01*
G03X0000322499Y0000322552I0000000274J-0000000292D01*
G02X0000320322Y0000319264I-0000001369J-0000001458D01*
G37*
G36*
G01X0000327587Y0000315601D02*
G03X0000328109Y0000315306I0000000391J0000000082D01*
G02X0000327137Y0000313217I0000000521J-0000001513D01*
G03X0000326575Y0000313426I-0000000373J-0000000144D01*
G02X0000324261Y0000316647I-0000000945J0000001763D01*
G03X0000324261Y0000317231I-0000000274J0000000292D01*
G02X0000326702Y0000320378I0000001369J0000001458D01*
G03X0000327261Y0000320512I0000000214J0000000338D01*
G02X0000328030Y0000318217I0000001377J-0000000814D01*
G03X0000327503Y0000317988I-0000000152J-0000000370D01*
G02X0000326999Y0000317231I-0000001873J0000000701D01*
G03X0000326999Y0000316647I0000000274J-0000000292D01*
G02X0000327587Y0000315601I-0000001369J-0000001458D01*
G37*
G36*
G01X0000322499Y0000311324D02*
G03X0000322499Y0000310741I0000000274J-0000000292D01*
G02X0000319541Y0000308068I-0000001369J-0000001458D01*
G03X0000319005Y0000308160I-0000000318J-0000000243D01*
G02X0000319189Y0000310700I-0000000875J0000001340D01*
G03X0000319733Y0000310714I0000000265J0000000300D01*
G02X0000319761Y0000310741I0000001398J-0000001431D01*
G03X0000319761Y0000311324I-0000000274J0000000292D01*
G02X0000319278Y0000312027I0000001369J0000001458D01*
G03X0000318794Y0000312259I-0000000370J-0000000151D01*
G02X0000319669Y0000314680I-0000000456J0000001534D01*
G03X0000320190Y0000314548I0000000333J0000000222D01*
G02X0000322499Y0000311324I0000000940J-0000001766D01*
G37*
G36*
G01X0000328042Y0000303965D02*
G03X0000328540Y0000303699I0000000382J0000000117D01*
G02X0000327581Y0000301427I0000000460J-0000001533D01*
G03X0000327043Y0000301598I-0000000355J-0000000185D01*
G02X0000324761Y0000304836I-0000000913J0000001780D01*
G03X0000324761Y0000305420I-0000000274J0000000292D01*
G02X0000327158Y0000308594I0000001369J0000001458D01*
G03X0000327716Y0000308750I0000000206J0000000343D01*
G02X0000328555Y0000306506I0000001414J-0000000750D01*
G03X0000328032Y0000306257I-0000000144J-0000000373D01*
G02X0000327499Y0000305420I-0000001901J0000000621D01*
G03X0000327499Y0000304836I0000000274J-0000000292D01*
G02X0000328042Y0000303965I-0000001369J-0000001458D01*
G37*
G36*
G01X0000279458Y0000428387D02*
G02X0000279458Y0000431313I-0000001364J0000001463D01*
G03X0000279731Y0000431313I0000000136J0000000146D01*
G02X0000282877Y0000430757I0000001364J-0000001463D01*
G03X0000283587Y0000430751I0000000357J0000000181D01*
G02X0000283649Y0000429143I0000001413J-0000000751D01*
G03X0000282941Y0000429082I-0000000338J-0000000214D01*
G02X0000279731Y0000428387I-0000001847J0000000768D01*
G03X0000279458Y0000428387I-0000000136J-0000000146D01*
G37*
G36*
G01X0000273552Y0000423537D02*
G02X0000270453Y0000424006I-0000001364J0000001463D01*
G03X0000269785Y0000424046I-0000000347J-0000000199D01*
G02X0000269785Y0000425954I-0000001285J0000000954D01*
G03X0000270453Y0000425994I0000000321J0000000238D01*
G02X0000273552Y0000426463I0000001736J-0000000994D01*
G03X0000273825Y0000426463I0000000136J0000000146D01*
G02X0000276790Y0000426199I0000001364J-0000001463D01*
G03X0000277388Y0000426151I0000000320J0000000240D01*
G02X0000277388Y0000423849I0000001112J-0000001151D01*
G03X0000276790Y0000423801I-0000000278J-0000000288D01*
G02X0000273825Y0000423537I-0000001601J0000001199D01*
G03X0000273552Y0000423537I-0000000136J-0000000146D01*
G37*
G54D27*
X0000039000Y0000323000D03*
X0000158935Y0000104017D03*
X0000153935Y0000104017D03*
X0000148935Y0000104017D03*
X0000148935Y0000109017D03*
X0000146435Y0000139017D03*
X0000151435Y0000139017D03*
X0000150565Y0000149017D03*
X0000154565Y0000149017D03*
X0000171435Y0000116517D03*
X0000176435Y0000116517D03*
X0000163935Y0000116517D03*
X0000163935Y0000124017D03*
X0000176435Y0000121517D03*
X0000165451Y0000146017D03*
X0000186321Y0000131631D03*
X0000180565Y0000143017D03*
X0000224000Y0000306000D03*
X0000232000Y0000297500D03*
X0000227500Y0000302000D03*
X0000124500Y0000030000D03*
X0000160000Y0000072500D03*
X0000165000Y0000072500D03*
X0000170000Y0000072500D03*
X0000175000Y0000072500D03*
X0000167130Y0000067000D03*
X0000192500Y0000065000D03*
X0000182500Y0000065000D03*
X0000187500Y0000065000D03*
X0000192500Y0000072500D03*
X0000187500Y0000072500D03*
X0000182500Y0000072500D03*
X0000197500Y0000065000D03*
X0000197500Y0000072500D03*
X0000258000Y0000074500D03*
X0000257500Y0000332500D03*
X0000250000Y0000337500D03*
X0000257500Y0000352500D03*
X0000265500Y0000074500D03*
X0000262000Y0000071000D03*
X0000275130Y0000070614D03*
X0000265000Y0000347500D03*
X0000275000Y0000352500D03*
X0000265000Y0000352500D03*
X0000275000Y0000362500D03*
X0000270000Y0000380000D03*
X0000265000Y0000375000D03*
X0000265000Y0000380000D03*
X0000265000Y0000367500D03*
X0000270000Y0000367500D03*
X0000275000Y0000367500D03*
X0000265000Y0000390000D03*
X0000265000Y0000385000D03*
X0000270000Y0000390000D03*
X0000270000Y0000385000D03*
X0000291130Y0000176500D03*
X0000283130Y0000199462D03*
X0000287630Y0000199462D03*
X0000290000Y0000220000D03*
X0000290000Y0000240000D03*
X0000290000Y0000235000D03*
X0000290000Y0000250000D03*
X0000290000Y0000260000D03*
X0000290000Y0000312500D03*
X0000287500Y0000332500D03*
X0000287500Y0000340000D03*
X0000286430Y0000353500D03*
X0000286430Y0000349500D03*
X0000286430Y0000357500D03*
X0000282430Y0000357500D03*
X0000290630Y0000357500D03*
X0000282430Y0000353500D03*
X0000282430Y0000349500D03*
X0000290630Y0000353500D03*
X0000290630Y0000349500D03*
X0000285000Y0000367500D03*
X0000307630Y0000092000D03*
X0000305000Y0000172500D03*
X0000296630Y0000176500D03*
X0000305000Y0000192500D03*
X0000305000Y0000182500D03*
X0000307500Y0000230000D03*
X0000307500Y0000225000D03*
X0000307500Y0000240000D03*
X0000307500Y0000255000D03*
X0000307500Y0000250000D03*
X0000305500Y0000262500D03*
X0000310000Y0000290000D03*
X0000310000Y0000295000D03*
X0000310000Y0000300000D03*
X0000295000Y0000332500D03*
X0000310000Y0000347500D03*
X0000295000Y0000362500D03*
X0000310000Y0000362500D03*
X0000310000Y0000357500D03*
X0000310000Y0000352500D03*
X0000315630Y0000095000D03*
X0000312630Y0000092000D03*
X0000318500Y0000102500D03*
X0000322130Y0000119000D03*
X0000322130Y0000128000D03*
X0000321630Y0000142500D03*
X0000320000Y0000155000D03*
X0000313000Y0000172000D03*
X0000312500Y0000192500D03*
X0000312500Y0000182500D03*
X0000135935Y0000089017D03*
X0000141435Y0000094017D03*
X0000135935Y0000094017D03*
X0000141000Y0000107500D03*
X0000157935Y0000087517D03*
X0000152435Y0000087517D03*
X0000145935Y0000088017D03*
X0000145935Y0000092517D03*
X0000173935Y0000089017D03*
X0000168935Y0000089017D03*
X0000162500Y0000087500D03*
X0000160000Y0000220500D03*
X0000171000Y0000225000D03*
X0000182001Y0000225001D03*
X0000188000Y0000225000D03*
X0000217500Y0000362500D03*
X0000225000Y0000357500D03*
X0000225000Y0000362500D03*
X0000217500Y0000367500D03*
X0000212500Y0000367500D03*
X0000225000Y0000367500D03*
X0000225000Y0000372500D03*
X0000212500Y0000372500D03*
X0000217500Y0000372602D03*
X0000225000Y0000382500D03*
X0000225000Y0000387500D03*
X0000240000Y0000357500D03*
X0000240000Y0000362500D03*
X0000230000Y0000362500D03*
X0000230000Y0000357500D03*
X0000230000Y0000367500D03*
X0000230000Y0000372500D03*
X0000230000Y0000382500D03*
X0000245000Y0000362500D03*
X0000252500Y0000390000D03*
X0000262500Y0000407500D03*
X0000272500Y0000407500D03*
X0000272500Y0000402500D03*
X0000272500Y0000412500D03*
X0000277500Y0000402500D03*
X0000277500Y0000412500D03*
X0000292500Y0000430000D03*
X0000304500Y0000397500D03*
X0000305000Y0000412500D03*
X0000310000Y0000412500D03*
X0000310000Y0000402500D03*
X0000304500Y0000402500D03*
X0000297500Y0000430000D03*
X0000310000Y0000417500D03*
X0000300500Y0000417500D03*
X0000318130Y0000331500D03*
X0000317500Y0000392500D03*
X0000315000Y0000412500D03*
X0000315000Y0000407500D03*
X0000315000Y0000402500D03*
X0000342500Y0000166142D03*
X0000340630Y0000175000D03*
X0000330630Y0000175000D03*
X0000330630Y0000185000D03*
X0000340630Y0000185000D03*
X0000330630Y0000195000D03*
X0000340630Y0000195000D03*
X0000330630Y0000205000D03*
X0000340630Y0000205000D03*
X0000330630Y0000215000D03*
X0000340630Y0000215000D03*
X0000340000Y0000222500D03*
X0000333000Y0000241157D03*
X0000340630Y0000245000D03*
X0000340630Y0000235000D03*
X0000340630Y0000260000D03*
X0000330630Y0000260000D03*
X0000330630Y0000250000D03*
X0000340500Y0000266000D03*
X0000329000Y0000296000D03*
%LPD*%
G75*
G54D10*
X0000015748Y0000015748D03*
X0000015748Y0000437008D03*
X0000338619Y0000015748D03*
X0000338619Y0000437008D03*
G54D20*
G01X0000037500Y0000342000D02*
X0000068000Y0000342000D01*
X0000070000Y0000344000D01*
X0000076000Y0000344000D01*
X0000079068Y0000347068D01*
X0000085432Y0000347068D01*
X0000088000Y0000344500D01*
X0000092000Y0000344500D01*
X0000093500Y0000346000D01*
X0000099000Y0000346000D01*
X0000101500Y0000343500D01*
X0000107500Y0000343500D01*
X0000111000Y0000347000D01*
X0000111000Y0000351000D01*
X0000109000Y0000353000D01*
G01X0000104000Y0000348000D02*
X0000094000Y0000358000D01*
X0000044500Y0000358000D01*
X0000036000Y0000349500D01*
G01X0000055000Y0000322500D02*
X0000060500Y0000328000D01*
X0000097000Y0000328000D01*
X0000113000Y0000344000D01*
X0000113000Y0000352500D01*
X0000110000Y0000355500D01*
X0000106500Y0000355500D01*
X0000104000Y0000353000D01*
G01X0000109000Y0000348000D02*
X0000106500Y0000345500D01*
X0000102500Y0000345500D01*
X0000095000Y0000353000D01*
X0000088000Y0000353000D01*
X0000084400Y0000349400D01*
X0000078500Y0000349400D01*
X0000076600Y0000347500D01*
X0000072500Y0000347500D01*
X0000070000Y0000350000D01*
X0000060500Y0000350000D01*
X0000059500Y0000349000D01*
G54D11*
G01X0000233630Y0000175462D02*
X0000229500Y0000171332D01*
X0000229500Y0000126740D01*
X0000221630Y0000118870D01*
G01X0000266130Y0000215500D02*
X0000257500Y0000215500D01*
X0000233630Y0000191630D01*
X0000233630Y0000175462D01*
X0000005630Y0000035000D03*
X0000005630Y0000065000D03*
X0000005630Y0000055000D03*
X0000005630Y0000105000D03*
X0000005630Y0000113500D03*
X0000005630Y0000125000D03*
X0000005630Y0000145000D03*
X0000005630Y0000135000D03*
X0000003500Y0000227500D03*
X0000010000Y0000227500D03*
X0000003500Y0000220000D03*
X0000003500Y0000242500D03*
X0000003500Y0000235000D03*
X0000010000Y0000242500D03*
X0000010000Y0000235000D03*
X0000005630Y0000260000D03*
X0000005630Y0000280000D03*
X0000011000Y0000276000D03*
X0000005630Y0000270000D03*
X0000011000Y0000265500D03*
X0000005630Y0000295000D03*
X0000005630Y0000305000D03*
X0000005630Y0000330000D03*
X0000005630Y0000315000D03*
X0000011130Y0000329853D03*
X0000005630Y0000340000D03*
X0000011130Y0000338784D03*
X0000011130Y0000332853D03*
X0000011130Y0000335784D03*
X0000005000Y0000355000D03*
X0000015630Y0000035000D03*
X0000025630Y0000035000D03*
X0000025630Y0000045000D03*
X0000015630Y0000065000D03*
X0000025630Y0000065000D03*
X0000015630Y0000055000D03*
X0000025630Y0000055000D03*
X0000025500Y0000096000D03*
X0000025000Y0000087500D03*
X0000025000Y0000091000D03*
X0000015630Y0000105000D03*
X0000016000Y0000098500D03*
X0000015630Y0000113500D03*
X0000025630Y0000105000D03*
X0000025500Y0000100000D03*
X0000025630Y0000113500D03*
X0000015630Y0000125000D03*
X0000025630Y0000125000D03*
X0000015630Y0000145000D03*
X0000015630Y0000135000D03*
X0000025630Y0000145000D03*
X0000025630Y0000135000D03*
X0000025630Y0000155000D03*
X0000017500Y0000227500D03*
X0000025000Y0000227500D03*
X0000025000Y0000220000D03*
X0000017500Y0000242500D03*
X0000025000Y0000242500D03*
X0000017500Y0000235000D03*
X0000025000Y0000235000D03*
X0000027500Y0000255000D03*
X0000012000Y0000257500D03*
X0000015630Y0000280000D03*
X0000015630Y0000295000D03*
X0000025630Y0000295000D03*
X0000015630Y0000305000D03*
X0000025630Y0000305000D03*
X0000015630Y0000315000D03*
X0000025630Y0000315000D03*
X0000014500Y0000328500D03*
X0000014000Y0000334000D03*
X0000014000Y0000339600D03*
X0000012000Y0000342000D03*
X0000025000Y0000355000D03*
X0000015000Y0000355000D03*
X0000015000Y0000375000D03*
X0000025000Y0000375000D03*
X0000015000Y0000365000D03*
X0000025000Y0000365000D03*
X0000020000Y0000395000D03*
X0000025000Y0000385000D03*
X0000027500Y0000394500D03*
X0000025000Y0000410000D03*
X0000015000Y0000410000D03*
X0000025000Y0000420000D03*
X0000015000Y0000420000D03*
X0000035630Y0000005000D03*
X0000035630Y0000015000D03*
X0000035630Y0000025000D03*
X0000035630Y0000035000D03*
X0000035630Y0000045000D03*
X0000035630Y0000145000D03*
X0000035630Y0000155000D03*
X0000040630Y0000175000D03*
X0000040630Y0000195000D03*
X0000040630Y0000185000D03*
X0000040630Y0000205000D03*
X0000032500Y0000220000D03*
X0000040000Y0000220000D03*
X0000040000Y0000227500D03*
X0000032500Y0000227500D03*
X0000037500Y0000246500D03*
X0000032500Y0000242500D03*
X0000032500Y0000235000D03*
X0000040000Y0000235000D03*
X0000032500Y0000257500D03*
X0000028000Y0000261000D03*
X0000035500Y0000261000D03*
X0000032500Y0000250000D03*
X0000037130Y0000265000D03*
X0000037130Y0000270000D03*
X0000030000Y0000292500D03*
X0000030000Y0000285000D03*
X0000035630Y0000295000D03*
X0000037500Y0000285000D03*
X0000029500Y0000325500D03*
X0000029500Y0000331000D03*
X0000032307Y0000329578D03*
X0000032307Y0000326578D03*
X0000039000Y0000323000D03*
X0000029500Y0000337500D03*
X0000044500Y0000337500D03*
X0000032300Y0000336205D03*
X0000032300Y0000333205D03*
X0000037500Y0000342000D03*
X0000035000Y0000355000D03*
X0000039500Y0000349500D03*
X0000032614Y0000349500D03*
X0000036000Y0000349500D03*
X0000035000Y0000375000D03*
X0000035000Y0000365000D03*
X0000035000Y0000385000D03*
X0000032500Y0000394500D03*
X0000035000Y0000410000D03*
X0000032500Y0000401114D03*
X0000035000Y0000430000D03*
X0000035000Y0000420000D03*
X0000035000Y0000445000D03*
X0000035000Y0000440000D03*
X0000045630Y0000005000D03*
X0000053130Y0000005000D03*
X0000045630Y0000015000D03*
X0000053130Y0000015000D03*
X0000045630Y0000025000D03*
X0000053130Y0000025000D03*
X0000045630Y0000035000D03*
X0000055000Y0000055000D03*
X0000055000Y0000080000D03*
X0000050000Y0000080000D03*
X0000055000Y0000085000D03*
X0000050000Y0000085000D03*
X0000057000Y0000179500D03*
X0000053500Y0000179500D03*
X0000053500Y0000182500D03*
X0000056500Y0000182500D03*
X0000047500Y0000227500D03*
X0000047500Y0000220000D03*
X0000047500Y0000235000D03*
X0000050000Y0000257500D03*
X0000055000Y0000257500D03*
X0000050000Y0000252500D03*
X0000055000Y0000252500D03*
X0000055500Y0000275000D03*
X0000050500Y0000275000D03*
X0000055500Y0000267500D03*
X0000049500Y0000267500D03*
X0000045000Y0000285000D03*
X0000055000Y0000312500D03*
X0000050000Y0000312500D03*
X0000050000Y0000322500D03*
X0000055000Y0000322500D03*
X0000050000Y0000317500D03*
X0000055000Y0000317500D03*
X0000058500Y0000340000D03*
X0000055000Y0000340000D03*
X0000059000Y0000331500D03*
X0000050969Y0000345469D03*
X0000045000Y0000346000D03*
X0000059500Y0000349000D03*
X0000060500Y0000378000D03*
X0000060500Y0000372500D03*
X0000060500Y0000367000D03*
X0000045000Y0000365000D03*
X0000045000Y0000375000D03*
X0000045000Y0000385000D03*
X0000055000Y0000410000D03*
X0000045000Y0000410000D03*
X0000055000Y0000430000D03*
X0000045000Y0000430000D03*
X0000055000Y0000420000D03*
X0000045000Y0000420000D03*
X0000055000Y0000445000D03*
X0000045000Y0000445000D03*
X0000055000Y0000440000D03*
X0000045000Y0000440000D03*
X0000075630Y0000005000D03*
X0000065630Y0000005000D03*
X0000070630Y0000005000D03*
X0000065500Y0000010000D03*
X0000070500Y0000010000D03*
X0000077500Y0000042500D03*
X0000070000Y0000042500D03*
X0000062000Y0000063500D03*
X0000066000Y0000062500D03*
X0000077500Y0000050000D03*
X0000077500Y0000057500D03*
X0000070000Y0000050000D03*
X0000062500Y0000050000D03*
X0000062130Y0000178000D03*
X0000065130Y0000178000D03*
X0000061750Y0000195880D03*
X0000065000Y0000196000D03*
X0000077500Y0000205000D03*
X0000077500Y0000210000D03*
X0000077500Y0000215000D03*
X0000077500Y0000225000D03*
X0000065000Y0000220000D03*
X0000070000Y0000215000D03*
X0000070000Y0000220000D03*
X0000065000Y0000215000D03*
X0000077500Y0000245000D03*
X0000077500Y0000235000D03*
X0000077500Y0000255000D03*
X0000077500Y0000275000D03*
X0000077500Y0000265000D03*
X0000065000Y0000292500D03*
X0000075000Y0000287500D03*
X0000075000Y0000300000D03*
X0000062500Y0000300000D03*
X0000070000Y0000312500D03*
X0000072500Y0000325000D03*
X0000072500Y0000317500D03*
X0000062500Y0000317500D03*
X0000062500Y0000325000D03*
X0000069500Y0000334500D03*
X0000064500Y0000331500D03*
X0000062500Y0000347000D03*
X0000069000Y0000347000D03*
X0000070500Y0000341000D03*
X0000076500Y0000341000D03*
X0000063860Y0000344500D03*
X0000066860Y0000344500D03*
X0000071860Y0000338000D03*
X0000074860Y0000338000D03*
X0000074000Y0000350000D03*
X0000071500Y0000360500D03*
X0000077000Y0000351500D03*
X0000077000Y0000354500D03*
X0000075000Y0000362226D03*
X0000065500Y0000378000D03*
X0000065500Y0000372500D03*
X0000071000Y0000372500D03*
X0000071500Y0000367000D03*
X0000065500Y0000367000D03*
X0000075000Y0000365226D03*
X0000075000Y0000410000D03*
X0000065000Y0000410000D03*
X0000075000Y0000430000D03*
X0000065000Y0000430000D03*
X0000075000Y0000420000D03*
X0000065000Y0000420000D03*
X0000075000Y0000445000D03*
X0000065000Y0000445000D03*
X0000075000Y0000440000D03*
X0000065000Y0000440000D03*
X0000078500Y0000027500D03*
X0000082000Y0000030500D03*
X0000085000Y0000042500D03*
X0000092500Y0000042500D03*
X0000092500Y0000050000D03*
X0000085000Y0000050000D03*
X0000082614Y0000063886D03*
X0000092500Y0000070000D03*
X0000079386Y0000070886D03*
X0000092500Y0000092500D03*
X0000087500Y0000125000D03*
X0000087500Y0000150000D03*
X0000087500Y0000162500D03*
X0000087500Y0000175000D03*
X0000087500Y0000200000D03*
X0000087500Y0000212500D03*
X0000082500Y0000210000D03*
X0000082500Y0000205000D03*
X0000087500Y0000225000D03*
X0000087500Y0000262500D03*
X0000087500Y0000275000D03*
X0000085000Y0000295000D03*
X0000087500Y0000287500D03*
X0000090000Y0000305000D03*
X0000093300Y0000313734D03*
X0000080000Y0000317500D03*
X0000080000Y0000325000D03*
X0000084500Y0000322209D03*
X0000082500Y0000331000D03*
X0000091000Y0000325000D03*
X0000091000Y0000319000D03*
X0000093300Y0000316734D03*
X0000091500Y0000347000D03*
X0000082500Y0000340500D03*
X0000082500Y0000337000D03*
X0000080000Y0000335520D03*
X0000080000Y0000332520D03*
X0000080000Y0000341968D03*
X0000080000Y0000344968D03*
X0000079500Y0000356000D03*
X0000091500Y0000360004D03*
X0000091500Y0000350555D03*
X0000091500Y0000355280D03*
X0000092500Y0000378000D03*
X0000092500Y0000375000D03*
X0000091500Y0000368500D03*
X0000091272Y0000364728D03*
X0000080000Y0000387500D03*
X0000080000Y0000384500D03*
X0000083000Y0000389000D03*
X0000083000Y0000383000D03*
X0000087500Y0000404500D03*
X0000087500Y0000411000D03*
X0000085000Y0000420000D03*
X0000100500Y0000015000D03*
X0000097000Y0000017500D03*
X0000107500Y0000042500D03*
X0000100000Y0000042500D03*
X0000100000Y0000062500D03*
X0000100000Y0000075000D03*
X0000100000Y0000082500D03*
X0000107500Y0000087500D03*
X0000107500Y0000107500D03*
X0000100000Y0000100000D03*
X0000100000Y0000137500D03*
X0000100000Y0000162500D03*
X0000100000Y0000175000D03*
X0000100000Y0000187500D03*
X0000100000Y0000200000D03*
X0000100000Y0000212500D03*
X0000100000Y0000225000D03*
X0000100000Y0000262500D03*
X0000100000Y0000275000D03*
X0000098500Y0000283000D03*
X0000110000Y0000297500D03*
X0000100000Y0000295000D03*
X0000105000Y0000290000D03*
X0000110000Y0000285000D03*
X0000107500Y0000312500D03*
X0000105000Y0000302500D03*
X0000100000Y0000307500D03*
X0000095000Y0000300000D03*
X0000107500Y0000320000D03*
X0000096000Y0000330500D03*
X0000096000Y0000325000D03*
X0000096000Y0000321000D03*
X0000102984Y0000317484D03*
X0000096000Y0000343000D03*
X0000096000Y0000334500D03*
X0000095000Y0000340244D03*
X0000095000Y0000337244D03*
X0000104000Y0000353000D03*
X0000103996Y0000360004D03*
X0000104000Y0000356000D03*
X0000109000Y0000353000D03*
X0000104000Y0000348000D03*
X0000109000Y0000348000D03*
X0000107500Y0000375000D03*
X0000107500Y0000378000D03*
X0000105000Y0000373500D03*
X0000104402Y0000378902D03*
X0000104272Y0000364728D03*
X0000104500Y0000368000D03*
X0000104500Y0000384500D03*
X0000108000Y0000384500D03*
X0000108000Y0000388000D03*
X0000095500Y0000388350D03*
X0000095626Y0000383626D03*
X0000104500Y0000387500D03*
X0000100000Y0000411000D03*
X0000100000Y0000404500D03*
X0000105000Y0000420000D03*
X0000095000Y0000420000D03*
X0000124500Y0000013500D03*
X0000124500Y0000030000D03*
X0000124500Y0000022500D03*
X0000124500Y0000025500D03*
X0000115000Y0000019000D03*
X0000115000Y0000042500D03*
X0000112500Y0000050000D03*
X0000112500Y0000062500D03*
X0000126130Y0000055500D03*
X0000126130Y0000059500D03*
X0000122130Y0000055500D03*
X0000122130Y0000059500D03*
X0000118130Y0000055500D03*
X0000118130Y0000059500D03*
X0000112500Y0000075000D03*
X0000126000Y0000094517D03*
X0000126435Y0000126517D03*
X0000111000Y0000141500D03*
X0000115000Y0000292500D03*
X0000117500Y0000302500D03*
X0000112500Y0000307500D03*
X0000121500Y0000355500D03*
X0000121500Y0000361500D03*
X0000119000Y0000379911D03*
X0000119500Y0000369500D03*
X0000111500Y0000378500D03*
X0000118000Y0000367000D03*
X0000118000Y0000375000D03*
X0000122000Y0000378647D03*
X0000119500Y0000372500D03*
X0000119000Y0000382911D03*
X0000122000Y0000384147D03*
X0000115000Y0000411000D03*
X0000115000Y0000404500D03*
X0000125000Y0000420000D03*
X0000115000Y0000420000D03*
X0000125000Y0000430000D03*
X0000115000Y0000430000D03*
X0000125000Y0000440000D03*
X0000115000Y0000440000D03*
X0000140130Y0000014500D03*
X0000134000Y0000014000D03*
X0000133500Y0000024500D03*
X0000133500Y0000029000D03*
X0000135000Y0000019500D03*
X0000140000Y0000019500D03*
X0000142500Y0000027500D03*
X0000128000Y0000019000D03*
X0000130614Y0000016500D03*
X0000136435Y0000081517D03*
X0000135935Y0000089017D03*
X0000141435Y0000094017D03*
X0000135935Y0000094017D03*
X0000133435Y0000109017D03*
X0000128935Y0000109017D03*
X0000128935Y0000104017D03*
X0000133500Y0000104000D03*
X0000141000Y0000107500D03*
X0000131435Y0000126517D03*
X0000136435Y0000126517D03*
X0000141435Y0000126517D03*
X0000138935Y0000144017D03*
X0000141741Y0000162759D03*
X0000141073Y0000148509D03*
X0000140000Y0000202500D03*
X0000140000Y0000212500D03*
X0000140000Y0000225000D03*
X0000140000Y0000237500D03*
X0000140000Y0000252500D03*
X0000137500Y0000317500D03*
X0000135500Y0000321500D03*
X0000136000Y0000327500D03*
X0000142500Y0000327000D03*
X0000132500Y0000323071D03*
X0000140000Y0000328860D03*
X0000132500Y0000326071D03*
X0000142500Y0000333500D03*
X0000136000Y0000333500D03*
X0000135500Y0000339500D03*
X0000143500Y0000340000D03*
X0000143500Y0000346000D03*
X0000136000Y0000346000D03*
X0000132500Y0000334860D03*
X0000140000Y0000341360D03*
X0000132500Y0000347360D03*
X0000140000Y0000331860D03*
X0000132500Y0000337860D03*
X0000140000Y0000344360D03*
X0000142500Y0000354000D03*
X0000142000Y0000362500D03*
X0000135500Y0000359000D03*
X0000136000Y0000352000D03*
X0000132500Y0000350360D03*
X0000141500Y0000372500D03*
X0000135500Y0000376000D03*
X0000136000Y0000367500D03*
X0000129500Y0000411000D03*
X0000129500Y0000404500D03*
X0000135000Y0000420000D03*
X0000135000Y0000430000D03*
X0000135000Y0000440000D03*
X0000145130Y0000014500D03*
X0000154500Y0000015000D03*
X0000147500Y0000030000D03*
X0000155000Y0000022500D03*
X0000144500Y0000024000D03*
X0000149000Y0000019000D03*
X0000160000Y0000072500D03*
X0000157935Y0000087517D03*
X0000152435Y0000087517D03*
X0000145935Y0000088017D03*
X0000145935Y0000092517D03*
X0000158935Y0000104017D03*
X0000153935Y0000104017D03*
X0000148935Y0000104017D03*
X0000148935Y0000109017D03*
X0000148935Y0000100017D03*
X0000158935Y0000100017D03*
X0000153935Y0000100017D03*
X0000146435Y0000126517D03*
X0000146435Y0000139017D03*
X0000151435Y0000139017D03*
X0000150565Y0000149017D03*
X0000154565Y0000149017D03*
X0000160565Y0000149017D03*
X0000144565Y0000152017D03*
X0000144886Y0000180386D03*
X0000160000Y0000170500D03*
X0000160000Y0000175500D03*
X0000155000Y0000180500D03*
X0000160000Y0000180500D03*
X0000152500Y0000230500D03*
X0000157500Y0000230500D03*
X0000150000Y0000225500D03*
X0000160000Y0000220500D03*
X0000150000Y0000220000D03*
X0000155000Y0000240000D03*
X0000157500Y0000262500D03*
X0000155000Y0000250000D03*
X0000150000Y0000270000D03*
X0000147500Y0000411000D03*
X0000147500Y0000404500D03*
X0000155000Y0000420000D03*
X0000145000Y0000420000D03*
X0000145000Y0000430000D03*
X0000145000Y0000440000D03*
X0000162500Y0000022500D03*
X0000172630Y0000067000D03*
X0000165000Y0000072500D03*
X0000170000Y0000072500D03*
X0000175000Y0000072500D03*
X0000167130Y0000067000D03*
X0000173935Y0000089017D03*
X0000168935Y0000089017D03*
X0000162500Y0000087500D03*
X0000163935Y0000100017D03*
X0000171435Y0000116517D03*
X0000176435Y0000116517D03*
X0000163935Y0000116517D03*
X0000163935Y0000124017D03*
X0000176435Y0000121517D03*
X0000165451Y0000146017D03*
X0000176435Y0000161517D03*
X0000170000Y0000165000D03*
X0000165000Y0000165000D03*
X0000172500Y0000175500D03*
X0000172886Y0000180114D03*
X0000165000Y0000170500D03*
X0000165000Y0000175500D03*
X0000177000Y0000200500D03*
X0000167500Y0000230500D03*
X0000171000Y0000225000D03*
X0000162500Y0000230500D03*
X0000176500Y0000225000D03*
X0000175000Y0000245000D03*
X0000170000Y0000235000D03*
X0000165000Y0000240000D03*
X0000165000Y0000255000D03*
X0000175000Y0000282500D03*
X0000167500Y0000290000D03*
X0000167500Y0000345000D03*
X0000167500Y0000355000D03*
X0000175000Y0000355000D03*
X0000167500Y0000375000D03*
X0000167500Y0000365000D03*
X0000175000Y0000365000D03*
X0000175000Y0000375000D03*
X0000167500Y0000385000D03*
X0000175000Y0000385000D03*
X0000162500Y0000411000D03*
X0000162500Y0000404500D03*
X0000175000Y0000420000D03*
X0000165000Y0000420000D03*
X0000182630Y0000035500D03*
X0000186630Y0000035500D03*
X0000191630Y0000035500D03*
X0000189130Y0000039500D03*
X0000192500Y0000065000D03*
X0000182500Y0000065000D03*
X0000187500Y0000065000D03*
X0000182500Y0000060000D03*
X0000187500Y0000060000D03*
X0000192500Y0000060000D03*
X0000192500Y0000055000D03*
X0000192500Y0000072500D03*
X0000187500Y0000072500D03*
X0000182500Y0000072500D03*
X0000186321Y0000131631D03*
X0000186435Y0000119017D03*
X0000180565Y0000143017D03*
X0000185000Y0000155000D03*
X0000185000Y0000160000D03*
X0000190000Y0000155000D03*
X0000190000Y0000160000D03*
X0000181435Y0000156517D03*
X0000180000Y0000170000D03*
X0000185000Y0000170000D03*
X0000190000Y0000175000D03*
X0000190000Y0000170000D03*
X0000185000Y0000175500D03*
X0000177500Y0000197000D03*
X0000181000Y0000197000D03*
X0000180000Y0000200500D03*
X0000182001Y0000225001D03*
X0000188000Y0000225000D03*
X0000192000Y0000225000D03*
X0000187500Y0000232500D03*
X0000182500Y0000237500D03*
X0000190000Y0000267500D03*
X0000182500Y0000275000D03*
X0000185000Y0000320000D03*
X0000185000Y0000330000D03*
X0000185000Y0000365000D03*
X0000185000Y0000375000D03*
X0000185000Y0000385000D03*
X0000192500Y0000411000D03*
X0000192500Y0000404500D03*
X0000177500Y0000411000D03*
X0000177500Y0000404500D03*
X0000185000Y0000420000D03*
X0000204630Y0000024000D03*
X0000204630Y0000020000D03*
X0000208630Y0000024000D03*
X0000208630Y0000020000D03*
X0000206630Y0000031000D03*
X0000201630Y0000031000D03*
X0000196630Y0000031000D03*
X0000196630Y0000035500D03*
X0000201630Y0000035500D03*
X0000206630Y0000035500D03*
X0000206630Y0000040500D03*
X0000197500Y0000065000D03*
X0000197500Y0000060000D03*
X0000197500Y0000055000D03*
X0000197500Y0000072500D03*
X0000195000Y0000110000D03*
X0000205000Y0000110000D03*
X0000205000Y0000120000D03*
X0000210000Y0000155000D03*
X0000210000Y0000160000D03*
X0000195000Y0000170000D03*
X0000195000Y0000175000D03*
X0000210000Y0000170000D03*
X0000195000Y0000262500D03*
X0000195000Y0000325000D03*
X0000195000Y0000315000D03*
X0000195000Y0000335000D03*
X0000207500Y0000347500D03*
X0000202500Y0000347500D03*
X0000202500Y0000352500D03*
X0000207500Y0000352500D03*
X0000195000Y0000375000D03*
X0000210000Y0000411000D03*
X0000210000Y0000404500D03*
X0000205000Y0000420000D03*
X0000195000Y0000420000D03*
X0000212630Y0000024000D03*
X0000212630Y0000020000D03*
X0000211630Y0000031000D03*
X0000211630Y0000047000D03*
X0000216630Y0000047000D03*
X0000211630Y0000040500D03*
X0000211630Y0000035500D03*
X0000211630Y0000051000D03*
X0000216630Y0000051000D03*
X0000211630Y0000060000D03*
X0000216630Y0000060000D03*
X0000216630Y0000055500D03*
X0000211630Y0000055500D03*
X0000225000Y0000092500D03*
X0000225000Y0000087500D03*
X0000215000Y0000120000D03*
X0000215000Y0000130000D03*
X0000221630Y0000118870D03*
X0000223500Y0000139500D03*
X0000213000Y0000139500D03*
X0000221500Y0000133870D03*
X0000220000Y0000160000D03*
X0000220000Y0000155000D03*
X0000215000Y0000160000D03*
X0000215000Y0000155000D03*
X0000215000Y0000195000D03*
X0000220000Y0000190000D03*
X0000225000Y0000185000D03*
X0000212500Y0000200000D03*
X0000220000Y0000220000D03*
X0000220000Y0000230000D03*
X0000215000Y0000260000D03*
X0000215000Y0000290000D03*
X0000225000Y0000290000D03*
X0000224000Y0000306000D03*
X0000217500Y0000312500D03*
X0000217500Y0000327500D03*
X0000217500Y0000322500D03*
X0000217516Y0000317484D03*
X0000212500Y0000327500D03*
X0000225000Y0000347500D03*
X0000217500Y0000337500D03*
X0000225000Y0000342500D03*
X0000225000Y0000332500D03*
X0000212500Y0000337500D03*
X0000217500Y0000332500D03*
X0000225000Y0000337500D03*
X0000212500Y0000332500D03*
X0000217500Y0000342500D03*
X0000212500Y0000347500D03*
X0000212500Y0000342500D03*
X0000217594Y0000347406D03*
X0000217500Y0000352500D03*
X0000217500Y0000362500D03*
X0000225000Y0000357500D03*
X0000225000Y0000352500D03*
X0000225000Y0000362500D03*
X0000212500Y0000352500D03*
X0000212500Y0000377500D03*
X0000217500Y0000377500D03*
X0000225000Y0000377500D03*
X0000217500Y0000367500D03*
X0000212500Y0000367500D03*
X0000225000Y0000367500D03*
X0000225000Y0000372500D03*
X0000212500Y0000372500D03*
X0000217500Y0000372602D03*
X0000225000Y0000382500D03*
X0000225000Y0000387500D03*
X0000225000Y0000420000D03*
X0000215000Y0000420000D03*
X0000235630Y0000006650D03*
X0000235630Y0000003500D03*
X0000231630Y0000003500D03*
X0000231630Y0000006650D03*
X0000228130Y0000003500D03*
X0000228130Y0000006650D03*
X0000241630Y0000007150D03*
X0000241630Y0000004000D03*
X0000227630Y0000019000D03*
X0000227630Y0000023000D03*
X0000233130Y0000023000D03*
X0000233130Y0000019000D03*
X0000227630Y0000029500D03*
X0000233130Y0000029500D03*
X0000238500Y0000036000D03*
X0000233630Y0000036000D03*
X0000227630Y0000036000D03*
X0000227630Y0000042000D03*
X0000233130Y0000045500D03*
X0000227630Y0000047500D03*
X0000232687Y0000050557D03*
X0000232687Y0000055557D03*
X0000227630Y0000052000D03*
X0000237630Y0000050500D03*
X0000237630Y0000055500D03*
X0000238630Y0000081114D03*
X0000230000Y0000087500D03*
X0000235000Y0000087500D03*
X0000240000Y0000087500D03*
X0000240000Y0000092500D03*
X0000235000Y0000092500D03*
X0000230000Y0000092500D03*
X0000240000Y0000139500D03*
X0000230000Y0000180000D03*
X0000233630Y0000170462D03*
X0000233630Y0000175462D03*
X0000240630Y0000169462D03*
X0000240000Y0000210000D03*
X0000230000Y0000210000D03*
X0000240000Y0000230000D03*
X0000240000Y0000220000D03*
X0000230000Y0000220000D03*
X0000230000Y0000230000D03*
X0000240000Y0000240000D03*
X0000240000Y0000260000D03*
X0000232000Y0000297500D03*
X0000240000Y0000312500D03*
X0000227500Y0000302000D03*
X0000230000Y0000312500D03*
X0000240000Y0000327500D03*
X0000230000Y0000327500D03*
X0000240000Y0000322500D03*
X0000230016Y0000317484D03*
X0000230000Y0000322500D03*
X0000230000Y0000342500D03*
X0000230000Y0000337500D03*
X0000240000Y0000332500D03*
X0000230000Y0000347500D03*
X0000240000Y0000342500D03*
X0000230000Y0000332500D03*
X0000240000Y0000347500D03*
X0000230000Y0000352500D03*
X0000240000Y0000357500D03*
X0000240000Y0000362500D03*
X0000230000Y0000362500D03*
X0000230000Y0000357500D03*
X0000240000Y0000352500D03*
X0000230000Y0000377500D03*
X0000230000Y0000367500D03*
X0000230000Y0000372500D03*
X0000230000Y0000382500D03*
X0000242500Y0000445500D03*
X0000258130Y0000007150D03*
X0000258130Y0000004000D03*
X0000254130Y0000007150D03*
X0000254130Y0000004000D03*
X0000245630Y0000007150D03*
X0000249630Y0000007150D03*
X0000245630Y0000004000D03*
X0000249630Y0000004000D03*
X0000250000Y0000029000D03*
X0000248630Y0000044200D03*
X0000251630Y0000044200D03*
X0000248630Y0000047000D03*
X0000251630Y0000047000D03*
X0000258000Y0000074500D03*
X0000250000Y0000139500D03*
X0000253130Y0000154462D03*
X0000253130Y0000164462D03*
X0000253130Y0000174462D03*
X0000253130Y0000169462D03*
X0000245630Y0000186962D03*
X0000245630Y0000191962D03*
X0000250000Y0000317500D03*
X0000245000Y0000327500D03*
X0000245000Y0000347500D03*
X0000257500Y0000332500D03*
X0000245000Y0000332500D03*
X0000245000Y0000337500D03*
X0000250000Y0000337500D03*
X0000250000Y0000362500D03*
X0000250000Y0000357500D03*
X0000245000Y0000357500D03*
X0000245000Y0000352500D03*
X0000245000Y0000362500D03*
X0000257500Y0000352500D03*
X0000260000Y0000390000D03*
X0000260000Y0000385000D03*
X0000252500Y0000390000D03*
X0000245000Y0000435000D03*
X0000250000Y0000445000D03*
X0000266630Y0000004000D03*
X0000266630Y0000007150D03*
X0000270630Y0000007150D03*
X0000270630Y0000004000D03*
X0000277000Y0000004000D03*
X0000274630Y0000012000D03*
X0000262130Y0000007150D03*
X0000262130Y0000004000D03*
X0000274630Y0000015500D03*
X0000265130Y0000017000D03*
X0000269130Y0000017000D03*
X0000269130Y0000021000D03*
X0000269130Y0000025000D03*
X0000265130Y0000025000D03*
X0000269130Y0000028500D03*
X0000266500Y0000047000D03*
X0000272430Y0000064100D03*
X0000269730Y0000061700D03*
X0000272610Y0000057980D03*
X0000273730Y0000061100D03*
X0000266500Y0000054000D03*
X0000266500Y0000050500D03*
X0000265500Y0000074500D03*
X0000262000Y0000071000D03*
X0000275130Y0000070614D03*
X0000265630Y0000116962D03*
X0000275630Y0000139462D03*
X0000263130Y0000139462D03*
X0000273130Y0000154462D03*
X0000273130Y0000159462D03*
X0000260630Y0000154462D03*
X0000268130Y0000159462D03*
X0000268130Y0000154462D03*
X0000260630Y0000159462D03*
X0000276500Y0000180000D03*
X0000273130Y0000171962D03*
X0000268130Y0000169462D03*
X0000268130Y0000174462D03*
X0000275630Y0000189462D03*
X0000263130Y0000191962D03*
X0000263130Y0000199462D03*
X0000265000Y0000230000D03*
X0000275000Y0000230000D03*
X0000275630Y0000216962D03*
X0000270630Y0000216962D03*
X0000266130Y0000215500D03*
X0000275000Y0000240000D03*
X0000265000Y0000240000D03*
X0000265000Y0000250000D03*
X0000275000Y0000250000D03*
X0000275000Y0000260000D03*
X0000265000Y0000260000D03*
X0000265000Y0000347500D03*
X0000270000Y0000362500D03*
X0000265000Y0000362500D03*
X0000275000Y0000352500D03*
X0000265000Y0000352500D03*
X0000275000Y0000362500D03*
X0000270000Y0000380000D03*
X0000265000Y0000375000D03*
X0000265000Y0000380000D03*
X0000265000Y0000367500D03*
X0000270000Y0000367500D03*
X0000275000Y0000367500D03*
X0000265000Y0000390000D03*
X0000265000Y0000385000D03*
X0000270000Y0000390000D03*
X0000270000Y0000385000D03*
X0000262500Y0000407500D03*
X0000272500Y0000407500D03*
X0000272500Y0000402500D03*
X0000272500Y0000412500D03*
X0000263000Y0000430000D03*
X0000268500Y0000425000D03*
X0000269283Y0000429850D03*
X0000275189Y0000425000D03*
X0000272189Y0000425000D03*
X0000266283Y0000429850D03*
X0000276642Y0000439000D03*
X0000270736Y0000439000D03*
X0000264831Y0000439000D03*
X0000286000Y0000005000D03*
X0000290630Y0000005000D03*
X0000290630Y0000015000D03*
X0000282244Y0000012000D03*
X0000279016Y0000012114D03*
X0000285200Y0000031100D03*
X0000285130Y0000026000D03*
X0000284130Y0000045500D03*
X0000278630Y0000045500D03*
X0000292744Y0000045500D03*
X0000285630Y0000037500D03*
X0000285130Y0000062000D03*
X0000285130Y0000056500D03*
X0000287130Y0000070614D03*
X0000280630Y0000126962D03*
X0000291130Y0000176500D03*
X0000278130Y0000194462D03*
X0000283130Y0000199462D03*
X0000287630Y0000199462D03*
X0000278130Y0000199462D03*
X0000278130Y0000204462D03*
X0000290000Y0000220000D03*
X0000290000Y0000225000D03*
X0000290000Y0000245000D03*
X0000290000Y0000240000D03*
X0000290000Y0000235000D03*
X0000290000Y0000250000D03*
X0000290000Y0000255000D03*
X0000290000Y0000260000D03*
X0000290000Y0000312500D03*
X0000277500Y0000322500D03*
X0000277500Y0000315000D03*
X0000277500Y0000330000D03*
X0000287500Y0000332500D03*
X0000287500Y0000340000D03*
X0000282430Y0000357500D03*
X0000290630Y0000357500D03*
X0000286430Y0000357500D03*
X0000282430Y0000353500D03*
X0000282430Y0000349500D03*
X0000290630Y0000353500D03*
X0000290630Y0000349500D03*
X0000286430Y0000349500D03*
X0000286430Y0000353500D03*
X0000285000Y0000367500D03*
X0000277500Y0000402500D03*
X0000277500Y0000412500D03*
X0000285000Y0000430000D03*
X0000278500Y0000425000D03*
X0000292500Y0000430000D03*
X0000278094Y0000429850D03*
X0000281094Y0000429850D03*
X0000285000Y0000445000D03*
X0000288453Y0000439000D03*
X0000282547Y0000439000D03*
X0000295000Y0000009500D03*
X0000300630Y0000005000D03*
X0000300630Y0000015000D03*
X0000300130Y0000031500D03*
X0000296500Y0000020500D03*
X0000296500Y0000026000D03*
X0000296100Y0000031300D03*
X0000296000Y0000037000D03*
X0000308630Y0000044000D03*
X0000307000Y0000063000D03*
X0000308630Y0000054000D03*
X0000308630Y0000049000D03*
X0000303408Y0000074500D03*
X0000299408Y0000074500D03*
X0000307630Y0000092000D03*
X0000305000Y0000172500D03*
X0000296630Y0000176500D03*
X0000305000Y0000192500D03*
X0000305000Y0000182500D03*
X0000307500Y0000230000D03*
X0000307500Y0000225000D03*
X0000307500Y0000240000D03*
X0000310000Y0000262500D03*
X0000307500Y0000255000D03*
X0000307500Y0000250000D03*
X0000305500Y0000262500D03*
X0000310000Y0000290000D03*
X0000310000Y0000295000D03*
X0000310000Y0000300000D03*
X0000310000Y0000342500D03*
X0000295000Y0000332500D03*
X0000310000Y0000347500D03*
X0000295000Y0000362500D03*
X0000310000Y0000362500D03*
X0000310000Y0000357500D03*
X0000310000Y0000352500D03*
X0000295000Y0000367500D03*
X0000304500Y0000397500D03*
X0000304500Y0000392500D03*
X0000305000Y0000412500D03*
X0000310000Y0000412500D03*
X0000310000Y0000402500D03*
X0000304500Y0000402500D03*
X0000307500Y0000430000D03*
X0000305000Y0000417500D03*
X0000297000Y0000421886D03*
X0000297500Y0000430000D03*
X0000310000Y0000417500D03*
X0000300500Y0000417500D03*
X0000305000Y0000445000D03*
X0000295000Y0000445000D03*
X0000300000Y0000440000D03*
X0000295000Y0000440000D03*
X0000320630Y0000005000D03*
X0000320630Y0000015000D03*
X0000310630Y0000005000D03*
X0000310630Y0000015000D03*
X0000310630Y0000025000D03*
X0000319630Y0000044000D03*
X0000325630Y0000044000D03*
X0000310630Y0000035000D03*
X0000314130Y0000044000D03*
X0000319630Y0000049000D03*
X0000325630Y0000049000D03*
X0000320000Y0000056000D03*
X0000325500Y0000057000D03*
X0000314130Y0000049000D03*
X0000314500Y0000056500D03*
X0000325630Y0000095000D03*
X0000315630Y0000095000D03*
X0000312630Y0000092000D03*
X0000316000Y0000085500D03*
X0000325000Y0000085000D03*
X0000321000Y0000090000D03*
X0000318500Y0000102500D03*
X0000322130Y0000119000D03*
X0000326130Y0000119000D03*
X0000322130Y0000128000D03*
X0000326130Y0000128000D03*
X0000321630Y0000142500D03*
X0000320000Y0000155000D03*
X0000313000Y0000172000D03*
X0000312500Y0000192500D03*
X0000312500Y0000182500D03*
X0000317500Y0000220000D03*
X0000322500Y0000220000D03*
X0000317500Y0000215000D03*
X0000322500Y0000215000D03*
X0000315000Y0000295000D03*
X0000315000Y0000290000D03*
X0000326000Y0000289000D03*
X0000314989Y0000299989D03*
X0000318130Y0000309500D03*
X0000318337Y0000313793D03*
X0000326130Y0000303378D03*
X0000321130Y0000312783D03*
X0000326130Y0000306878D03*
X0000321130Y0000309283D03*
X0000318130Y0000325500D03*
X0000318327Y0000319697D03*
X0000312000Y0000326000D03*
X0000325630Y0000330500D03*
X0000325630Y0000318689D03*
X0000321130Y0000321094D03*
X0000325630Y0000315189D03*
X0000321130Y0000324594D03*
X0000325630Y0000327000D03*
X0000318130Y0000331500D03*
X0000317500Y0000392500D03*
X0000315000Y0000412500D03*
X0000315000Y0000407500D03*
X0000315000Y0000402500D03*
X0000325000Y0000445000D03*
X0000335630Y0000035000D03*
X0000340000Y0000042500D03*
X0000341000Y0000064500D03*
X0000335630Y0000050000D03*
X0000331000Y0000055500D03*
X0000338500Y0000055500D03*
X0000340500Y0000072000D03*
X0000341000Y0000078000D03*
X0000335630Y0000095000D03*
X0000335630Y0000085000D03*
X0000329500Y0000090000D03*
X0000327500Y0000105000D03*
X0000335630Y0000105000D03*
X0000340000Y0000111500D03*
X0000330130Y0000119000D03*
X0000333630Y0000119000D03*
X0000330130Y0000128000D03*
X0000342500Y0000122500D03*
X0000343480Y0000141983D03*
X0000339980Y0000147483D03*
X0000339980Y0000141983D03*
X0000343480Y0000147483D03*
X0000339980Y0000136483D03*
X0000331630Y0000142500D03*
X0000331630Y0000136500D03*
X0000343480Y0000136483D03*
X0000330000Y0000162206D03*
X0000333000Y0000162206D03*
X0000327130Y0000159000D03*
X0000343500Y0000153000D03*
X0000340000Y0000157500D03*
X0000332500Y0000159000D03*
X0000332500Y0000154000D03*
X0000340000Y0000153000D03*
X0000342500Y0000166142D03*
X0000340630Y0000175000D03*
X0000330630Y0000175000D03*
X0000330630Y0000185000D03*
X0000340630Y0000185000D03*
X0000330630Y0000195000D03*
X0000340630Y0000195000D03*
X0000330630Y0000205000D03*
X0000340630Y0000205000D03*
X0000330630Y0000215000D03*
X0000340630Y0000215000D03*
X0000340000Y0000222500D03*
X0000333000Y0000241157D03*
X0000340630Y0000245000D03*
X0000340630Y0000235000D03*
X0000340630Y0000260000D03*
X0000330630Y0000260000D03*
X0000330630Y0000250000D03*
X0000340500Y0000266000D03*
X0000328500Y0000286500D03*
X0000331000Y0000289000D03*
X0000329000Y0000296000D03*
X0000329000Y0000302166D03*
X0000328630Y0000313793D03*
X0000329130Y0000308000D03*
X0000328630Y0000325604D03*
X0000328638Y0000319697D03*
X0000328638Y0000331508D03*
X0000345630Y0000035000D03*
X0000348500Y0000043500D03*
X0000348500Y0000065000D03*
X0000345630Y0000050000D03*
X0000345630Y0000060000D03*
X0000351000Y0000060500D03*
X0000348500Y0000078500D03*
X0000350000Y0000090000D03*
X0000345630Y0000095000D03*
X0000345630Y0000085000D03*
X0000350000Y0000100000D03*
X0000345630Y0000105000D03*
X0000349500Y0000111500D03*
X0000345630Y0000115000D03*
X0000350500Y0000125000D03*
X0000349500Y0000122000D03*
X0000351000Y0000142144D03*
X0000351000Y0000137419D03*
X0000344200Y0000161024D03*
X0000351000Y0000162000D03*
X0000343630Y0000157500D03*
X0000351000Y0000155500D03*
X0000351000Y0000149500D03*
X0000351000Y0000158662D03*
X0000350630Y0000175000D03*
X0000350500Y0000166159D03*
X0000350630Y0000185000D03*
X0000350630Y0000195000D03*
X0000350630Y0000205000D03*
X0000350630Y0000215000D03*
X0000350630Y0000225000D03*
X0000350630Y0000245000D03*
X0000350630Y0000235000D03*
X0000350630Y0000260000D03*
X0000350630Y0000280000D03*
X0000350630Y0000270000D03*
X0000350630Y0000290000D03*
X0000350630Y0000310000D03*
X0000350630Y0000300000D03*
X0000350000Y0000315000D03*
X0000350000Y0000325000D03*
X0000350000Y0000340000D03*
X0000350000Y0000350000D03*
X0000350000Y0000360000D03*
X0000350000Y0000370000D03*
X0000350000Y0000400000D03*
X0000350000Y0000410000D03*
X0000350000Y0000420000D03*
G54D21*
G01X0000006224Y0000247398D02*
X0000006224Y0000250664D01*
G01X0000006224Y0000250664D02*
X0000006224Y0000253929D01*
G01X0000006224Y0000250664D02*
X0000010671Y0000250664D01*
G01X0000006224Y0000281414D02*
X0000006224Y0000284679D01*
G01X0000006224Y0000284679D02*
X0000006224Y0000287945D01*
G01X0000006224Y0000284679D02*
X0000010671Y0000284679D01*
G01X0000005368Y0000317404D02*
X0000005368Y0000321457D01*
G01X0000005368Y0000321457D02*
X0000005368Y0000325510D01*
G01X0000005368Y0000321457D02*
X0000011488Y0000321457D01*
G01X0000005368Y0000341814D02*
X0000005368Y0000345867D01*
G01X0000005368Y0000345867D02*
X0000005368Y0000349920D01*
G01X0000005368Y0000345867D02*
X0000011488Y0000345867D01*
G01X0000021185Y0000247398D02*
X0000021185Y0000250664D01*
G01X0000021185Y0000250664D02*
X0000021185Y0000253929D01*
G01X0000016738Y0000250664D02*
X0000021185Y0000250664D01*
G01X0000021185Y0000250664D02*
X0000025632Y0000250664D01*
G01X0000021185Y0000281414D02*
X0000021185Y0000284679D01*
G01X0000021185Y0000284679D02*
X0000021185Y0000287945D01*
G01X0000016738Y0000284679D02*
X0000021185Y0000284679D01*
G01X0000021185Y0000284679D02*
X0000025632Y0000284679D01*
G01X0000018596Y0000317404D02*
X0000018596Y0000321457D01*
G01X0000018596Y0000321457D02*
X0000018596Y0000325510D01*
G01X0000012476Y0000321457D02*
X0000018596Y0000321457D01*
G01X0000018596Y0000321457D02*
X0000024716Y0000321457D01*
G01X0000018596Y0000341814D02*
X0000018596Y0000345867D01*
G01X0000018596Y0000345867D02*
X0000018596Y0000349920D01*
G01X0000012476Y0000345867D02*
X0000018596Y0000345867D01*
G01X0000018596Y0000345867D02*
X0000024716Y0000345867D01*
G01X0000017520Y0000378034D02*
X0000017520Y0000381890D01*
G01X0000017520Y0000381890D02*
X0000017520Y0000385746D01*
G01X0000014057Y0000381890D02*
X0000017520Y0000381890D01*
G01X0000017520Y0000381890D02*
X0000020982Y0000381890D01*
G01X0000043307Y0000154924D02*
X0000043307Y0000161024D01*
G01X0000043307Y0000161024D02*
X0000043307Y0000167124D01*
G01X0000043307Y0000161024D02*
X0000049407Y0000161024D01*
G01X0000043537Y0000173031D02*
X0000047637Y0000173031D01*
G01X0000047637Y0000168931D02*
X0000047637Y0000173031D01*
G01X0000047637Y0000173031D02*
X0000047637Y0000177132D01*
G01X0000047637Y0000173031D02*
X0000051738Y0000173031D01*
G54D12*
X0000006224Y0000250664D03*
X0000006224Y0000284679D03*
X0000021185Y0000250664D03*
X0000021185Y0000284679D03*
G54D22*
G01X0000082614Y0000063886D02*
X0000085114Y0000063886D01*
X0000103500Y0000045500D01*
X0000103500Y0000030500D01*
X0000115000Y0000019000D01*
G54D13*
X0000005368Y0000321457D03*
X0000005368Y0000345867D03*
X0000018596Y0000321457D03*
X0000018596Y0000345867D03*
G54D23*
G01X0000043307Y0000206498D02*
X0000043307Y0000212599D01*
G01X0000043307Y0000212599D02*
X0000043307Y0000218699D01*
G01X0000043307Y0000212599D02*
X0000049407Y0000212599D01*
G54D14*
X0000017520Y0000381890D03*
X0000017520Y0000401575D03*
G54D15*
X0000043307Y0000161024D03*
X0000043307Y0000212599D03*
G54D16*
X0000047637Y0000182874D03*
X0000047637Y0000173031D03*
X0000047637Y0000190748D03*
G54D17*
X0000047637Y0000200591D03*
G54D18*
X0000095548Y0000247007D03*
X0000095548Y0000435984D03*
X0000225469Y0000247007D03*
X0000225469Y0000435984D03*
G54D19*
G01X0000047637Y0000182874D02*
X0000050763Y0000186000D01*
X0000053650Y0000186000D01*
X0000054150Y0000185500D01*
X0000054150Y0000183150D01*
X0000053500Y0000182500D01*
G01X0000047637Y0000190748D02*
X0000050886Y0000187500D01*
X0000054195Y0000187500D01*
X0000055500Y0000186195D01*
X0000055500Y0000183500D01*
X0000056500Y0000182500D01*
M02*
