M48
INCH
T01C.01
T02C.04
T03C.078
T04C.106299
T05C.133858
;LEADER: 12 
;HEADER: 
;CODE  : ASCII 
;FILE  : CutiePi_V2_0-1-6.drl for board D:/PCB_Project/CutiePi/CutiePi_V2_0/#Taaaaby06640.tmp ... layers TOP and BOTTOM
;T01 Holesize 1. = 10.000000 Tolerance = +0.000000/-0.000000 PLATED MILS Quantity = 1195
;T02 Holesize 2. = 40.000000 Tolerance = +0.000000/-0.000000 PLATED MILS Quantity = 4
;T03 Holesize 3. = 78.000000 Tolerance = +0.000000/-0.000000 PLATED MILS Quantity = 2
;T04 Holesize 4. = 106.299000 Tolerance = +0.000000/-0.000000 NON_PLATED MILS Quantity = 4
;T05 Holesize 5. = 133.858000 Tolerance = +0.000000/-0.000000 NON_PLATED MILS Quantity = 4
%
G90
T01
X0000005630Y0000035000
X0000015630Y0000035000
X0000005630Y0000055000
X0000015630Y0000055000
X0000005630Y0000065000
X0000015630Y0000065000
X0000016000Y0000098500
X0000005630Y0000105000
X0000015630Y0000105000
X0000005630Y0000113500
X0000015630Y0000113500
X0000005630Y0000125000
X0000015630Y0000125000
X0000005630Y0000135000
X0000015630Y0000135000
X0000005630Y0000145000
X0000015630Y0000145000
X0000003500Y0000220000
X0000003500Y0000227500
X0000010000Y0000227500
X0000017500Y0000227500
X0000003500Y0000235000
X0000010000Y0000235000
X0000017500Y0000235000
X0000003500Y0000242500
X0000010000Y0000242500
X0000017500Y0000242500
X0000012000Y0000257500
X0000005630Y0000260000
X0000011000Y0000265500
X0000005630Y0000270000
X0000011000Y0000276000
X0000005630Y0000280000
X0000015630Y0000280000
X0000005630Y0000295000
X0000015630Y0000295000
X0000005630Y0000305000
X0000015630Y0000305000
X0000005630Y0000315000
X0000015630Y0000315000
X0000014500Y0000328500
X0000011130Y0000329853
X0000005630Y0000330000
X0000011130Y0000332853
X0000014000Y0000334000
X0000011130Y0000335784
X0000011130Y0000338784
X0000014000Y0000339600
X0000005630Y0000340000
X0000012000Y0000342000
X0000005000Y0000355000
X0000015000Y0000355000
X0000015000Y0000365000
X0000015000Y0000375000
X0000015000Y0000410000
X0000015000Y0000420000
X0000035000Y0000445000
X0000035000Y0000440000
X0000035000Y0000430000
X0000035000Y0000420000
X0000025000Y0000420000
X0000035000Y0000410000
X0000025000Y0000410000
X0000032500Y0000401114
X0000020000Y0000395000
X0000032500Y0000394500
X0000027500Y0000394500
X0000035000Y0000385000
X0000025000Y0000385000
X0000035000Y0000375000
X0000025000Y0000375000
X0000035000Y0000365000
X0000025000Y0000365000
X0000035000Y0000355000
X0000025000Y0000355000
X0000039500Y0000349500
X0000036000Y0000349500
X0000032614Y0000349500
X0000037500Y0000342000
X0000029500Y0000337500
X0000032300Y0000336205
X0000032300Y0000333205
X0000029500Y0000331000
X0000032307Y0000329578
X0000032307Y0000326577
X0000029500Y0000325500
X0000039000Y0000323000
X0000025630Y0000315000
X0000025630Y0000305000
X0000035630Y0000295000
X0000025630Y0000295000
X0000030000Y0000292500
X0000037500Y0000285000
X0000030000Y0000285000
X0000037130Y0000270000
X0000037130Y0000265000
X0000035500Y0000261000
X0000028000Y0000261000
X0000032500Y0000257500
X0000027500Y0000255000
X0000032500Y0000250000
X0000037500Y0000246500
X0000032500Y0000242500
X0000025000Y0000242500
X0000032500Y0000235000
X0000025000Y0000235000
X0000032500Y0000227500
X0000025000Y0000227500
X0000032500Y0000220000
X0000025000Y0000220000
X0000035630Y0000155000
X0000025630Y0000155000
X0000035630Y0000145000
X0000025630Y0000145000
X0000025630Y0000135000
X0000025630Y0000125000
X0000025630Y0000113500
X0000025630Y0000105000
X0000025500Y0000100000
X0000025500Y0000096000
X0000025000Y0000091000
X0000025000Y0000087500
X0000025630Y0000065000
X0000025630Y0000055000
X0000035630Y0000045000
X0000025630Y0000045000
X0000035630Y0000035000
X0000025630Y0000035000
X0000035630Y0000025000
X0000035630Y0000015000
X0000035630Y0000005000
X0000045630Y0000005000
X0000053130Y0000005000
X0000045630Y0000015000
X0000053130Y0000015000
X0000045630Y0000025000
X0000053130Y0000025000
X0000045630Y0000035000
X0000055000Y0000055000
X0000050000Y0000080000
X0000055000Y0000080000
X0000050000Y0000085000
X0000055000Y0000085000
X0000040630Y0000175000
X0000053500Y0000179500
X0000057000Y0000179500
X0000053500Y0000182500
X0000056500Y0000182500
X0000040630Y0000185000
X0000040630Y0000195000
X0000040630Y0000205000
X0000040000Y0000220000
X0000047500Y0000220000
X0000040000Y0000227500
X0000047500Y0000227500
X0000040000Y0000235000
X0000047500Y0000235000
X0000050000Y0000252500
X0000055000Y0000252500
X0000050000Y0000257500
X0000055000Y0000257500
X0000049500Y0000267500
X0000055500Y0000267500
X0000050500Y0000275000
X0000055500Y0000275000
X0000045000Y0000285000
X0000050000Y0000312500
X0000055000Y0000312500
X0000050000Y0000317500
X0000055000Y0000317500
X0000050000Y0000322500
X0000055000Y0000322500
X0000059000Y0000331500
X0000044500Y0000337500
X0000055000Y0000340000
X0000058500Y0000340000
X0000050969Y0000345469
X0000045000Y0000346000
X0000059500Y0000349000
X0000045000Y0000365000
X0000045000Y0000375000
X0000045000Y0000385000
X0000045000Y0000410000
X0000055000Y0000410000
X0000045000Y0000420000
X0000055000Y0000420000
X0000045000Y0000430000
X0000055000Y0000430000
X0000045000Y0000440000
X0000055000Y0000440000
X0000045000Y0000445000
X0000055000Y0000445000
X0000075000Y0000445000
X0000065000Y0000445000
X0000075000Y0000440000
X0000065000Y0000440000
X0000075000Y0000430000
X0000065000Y0000430000
X0000075000Y0000420000
X0000065000Y0000420000
X0000075000Y0000410000
X0000065000Y0000410000
X0000065500Y0000378000
X0000060500Y0000378000
X0000071000Y0000372500
X0000065500Y0000372500
X0000060500Y0000372500
X0000071500Y0000367000
X0000065500Y0000367000
X0000060500Y0000367000
X0000075000Y0000365226
X0000075000Y0000362226
X0000071500Y0000360500
X0000079500Y0000356000
X0000077000Y0000354500
X0000077000Y0000351500
X0000074000Y0000350000
X0000069000Y0000347000
X0000062500Y0000347000
X0000066860Y0000344500
X0000063860Y0000344500
X0000076500Y0000341000
X0000070500Y0000341000
X0000074860Y0000338000
X0000071860Y0000338000
X0000069500Y0000334500
X0000064500Y0000331500
X0000072500Y0000325000
X0000062500Y0000325000
X0000072500Y0000317500
X0000062500Y0000317500
X0000070000Y0000312500
X0000075000Y0000300000
X0000062500Y0000300000
X0000065000Y0000292500
X0000075000Y0000287500
X0000077500Y0000275000
X0000077500Y0000265000
X0000077500Y0000255000
X0000077500Y0000245000
X0000077500Y0000235000
X0000077500Y0000225000
X0000070000Y0000220000
X0000065000Y0000220000
X0000077500Y0000215000
X0000070000Y0000215000
X0000065000Y0000215000
X0000077500Y0000210000
X0000077500Y0000205000
X0000065000Y0000196000
X0000061750Y0000195880
X0000065130Y0000178000
X0000062130Y0000178000
X0000079386Y0000070886
X0000062000Y0000063500
X0000066000Y0000062500
X0000077500Y0000057500
X0000077500Y0000050000
X0000070000Y0000050000
X0000062500Y0000050000
X0000077500Y0000042500
X0000070000Y0000042500
X0000078500Y0000027500
X0000070500Y0000010000
X0000065500Y0000010000
X0000075630Y0000005000
X0000070630Y0000005000
X0000065630Y0000005000
X0000097000Y0000017500
X0000082000Y0000030500
X0000085000Y0000042500
X0000092500Y0000042500
X0000085000Y0000050000
X0000092500Y0000050000
X0000082614Y0000063886
X0000092500Y0000070000
X0000092500Y0000092500
X0000087500Y0000125000
X0000087500Y0000150000
X0000087500Y0000162500
X0000087500Y0000175000
X0000087500Y0000200000
X0000082500Y0000205000
X0000082500Y0000210000
X0000087500Y0000212500
X0000087500Y0000225000
X0000087500Y0000262500
X0000087500Y0000275000
X0000098500Y0000283000
X0000087500Y0000287500
X0000085000Y0000295000
X0000095000Y0000300000
X0000090000Y0000305000
X0000093299Y0000313734
X0000093299Y0000316734
X0000080000Y0000317500
X0000091000Y0000319000
X0000096000Y0000321000
X0000084500Y0000322209
X0000080000Y0000325000
X0000091000Y0000325000
X0000096000Y0000325000
X0000096000Y0000330500
X0000082500Y0000331000
X0000080000Y0000332520
X0000096000Y0000334500
X0000080000Y0000335520
X0000082500Y0000337000
X0000095000Y0000337244
X0000095000Y0000340244
X0000082500Y0000340500
X0000080000Y0000341968
X0000096000Y0000343000
X0000080000Y0000344968
X0000091500Y0000347000
X0000091500Y0000350555
X0000091500Y0000355280
X0000091500Y0000360004
X0000091272Y0000364728
X0000091500Y0000368500
X0000092500Y0000375000
X0000092500Y0000378000
X0000083000Y0000383000
X0000095626Y0000383626
X0000080000Y0000384500
X0000080000Y0000387500
X0000095500Y0000388350
X0000083000Y0000389000
X0000087500Y0000404500
X0000087500Y0000411000
X0000085000Y0000420000
X0000095000Y0000420000
X0000115000Y0000440000
X0000115000Y0000430000
X0000115000Y0000420000
X0000105000Y0000420000
X0000115000Y0000411000
X0000100000Y0000411000
X0000115000Y0000404500
X0000100000Y0000404500
X0000108000Y0000388000
X0000104500Y0000387500
X0000108000Y0000384500
X0000104500Y0000384500
X0000119000Y0000382911
X0000119000Y0000379911
X0000104402Y0000378902
X0000111500Y0000378500
X0000107500Y0000378000
X0000118000Y0000375000
X0000107500Y0000375000
X0000105000Y0000373500
X0000119500Y0000372500
X0000119500Y0000369500
X0000104500Y0000368000
X0000118000Y0000367000
X0000104272Y0000364728
X0000103996Y0000360004
X0000104000Y0000356000
X0000109000Y0000353000
X0000104000Y0000353000
X0000109000Y0000348000
X0000104000Y0000348000
X0000107500Y0000320000
X0000102984Y0000317484
X0000107500Y0000312500
X0000112500Y0000307500
X0000100000Y0000307500
X0000117500Y0000302500
X0000105000Y0000302500
X0000110000Y0000297500
X0000100000Y0000295000
X0000115000Y0000292500
X0000105000Y0000290000
X0000110000Y0000285000
X0000100000Y0000275000
X0000100000Y0000262500
X0000100000Y0000225000
X0000100000Y0000212500
X0000100000Y0000200000
X0000100000Y0000187500
X0000100000Y0000175000
X0000100000Y0000162500
X0000111000Y0000141500
X0000100000Y0000137500
X0000107500Y0000107500
X0000100000Y0000100000
X0000107500Y0000087500
X0000100000Y0000082500
X0000112500Y0000075000
X0000100000Y0000075000
X0000112500Y0000062500
X0000100000Y0000062500
X0000118130Y0000059500
X0000118130Y0000055500
X0000112500Y0000050000
X0000115000Y0000042500
X0000107500Y0000042500
X0000100000Y0000042500
X0000115000Y0000019000
X0000100500Y0000015000
X0000124500Y0000013500
X0000134000Y0000014000
X0000130614Y0000016500
X0000128000Y0000019000
X0000135000Y0000019500
X0000124500Y0000022500
X0000133500Y0000024500
X0000124500Y0000025500
X0000133500Y0000029000
X0000124500Y0000030000
X0000122130Y0000055500
X0000126130Y0000055500
X0000122130Y0000059500
X0000126130Y0000059500
X0000136435Y0000081517
X0000135935Y0000089017
X0000135935Y0000094017
X0000126000Y0000094517
X0000128935Y0000104017
X0000133500Y0000104000
X0000128935Y0000109017
X0000133435Y0000109017
X0000126435Y0000126517
X0000131435Y0000126517
X0000136435Y0000126517
X0000138935Y0000144017
X0000137500Y0000317500
X0000135500Y0000321500
X0000132500Y0000323071
X0000132500Y0000326071
X0000136000Y0000327500
X0000136000Y0000333500
X0000132500Y0000334860
X0000132500Y0000337860
X0000135500Y0000339500
X0000136000Y0000346000
X0000132500Y0000347360
X0000132500Y0000350360
X0000136000Y0000352000
X0000121500Y0000355500
X0000135500Y0000359000
X0000121500Y0000361500
X0000136000Y0000367500
X0000135500Y0000376000
X0000122000Y0000378647
X0000122000Y0000384147
X0000129500Y0000404500
X0000129500Y0000411000
X0000125000Y0000420000
X0000135000Y0000420000
X0000125000Y0000430000
X0000135000Y0000430000
X0000125000Y0000440000
X0000135000Y0000440000
X0000145000Y0000440000
X0000145000Y0000430000
X0000155000Y0000420000
X0000145000Y0000420000
X0000147500Y0000411000
X0000147500Y0000404500
X0000141500Y0000372500
X0000142000Y0000362500
X0000142500Y0000354000
X0000143500Y0000346000
X0000140000Y0000344360
X0000140000Y0000341360
X0000143500Y0000340000
X0000142500Y0000333500
X0000140000Y0000331860
X0000140000Y0000328860
X0000142500Y0000327000
X0000150000Y0000270000
X0000157500Y0000262500
X0000140000Y0000252500
X0000155000Y0000250000
X0000155000Y0000240000
X0000140000Y0000237500
X0000157500Y0000230500
X0000152500Y0000230500
X0000150000Y0000225500
X0000140000Y0000225000
X0000150000Y0000220000
X0000140000Y0000212500
X0000140000Y0000202500
X0000155000Y0000180500
X0000144886Y0000180386
X0000141741Y0000162759
X0000144565Y0000152017
X0000154565Y0000149017
X0000150565Y0000149017
X0000141073Y0000148509
X0000151435Y0000139017
X0000146435Y0000139017
X0000146435Y0000126517
X0000141435Y0000126517
X0000148935Y0000109017
X0000141000Y0000107500
X0000158935Y0000104017
X0000153935Y0000104017
X0000148935Y0000104017
X0000158935Y0000100017
X0000153935Y0000100017
X0000148935Y0000100017
X0000141435Y0000094017
X0000145935Y0000092517
X0000145935Y0000088017
X0000157935Y0000087517
X0000152435Y0000087517
X0000147500Y0000030000
X0000142500Y0000027500
X0000144500Y0000024000
X0000155000Y0000022500
X0000140000Y0000019500
X0000149000Y0000019000
X0000154500Y0000015000
X0000145130Y0000014500
X0000140130Y0000014500
X0000162500Y0000022500
X0000167130Y0000067000
X0000172630Y0000067000
X0000160000Y0000072500
X0000165000Y0000072500
X0000170000Y0000072500
X0000175000Y0000072500
X0000162500Y0000087500
X0000168935Y0000089017
X0000173935Y0000089017
X0000163935Y0000100017
X0000163935Y0000116517
X0000171435Y0000116517
X0000176435Y0000116517
X0000176435Y0000121517
X0000163935Y0000124017
X0000165451Y0000146017
X0000160565Y0000149017
X0000176435Y0000161517
X0000165000Y0000165000
X0000170000Y0000165000
X0000160000Y0000170500
X0000165000Y0000170500
X0000160000Y0000175500
X0000165000Y0000175500
X0000172500Y0000175500
X0000172886Y0000180114
X0000160000Y0000180500
X0000177500Y0000197000
X0000177000Y0000200500
X0000160000Y0000220500
X0000171000Y0000225000
X0000176500Y0000225000
X0000162500Y0000230500
X0000167500Y0000230500
X0000170000Y0000235000
X0000165000Y0000240000
X0000175000Y0000245000
X0000165000Y0000255000
X0000175000Y0000282500
X0000167500Y0000290000
X0000167500Y0000345000
X0000167500Y0000355000
X0000175000Y0000355000
X0000167500Y0000365000
X0000175000Y0000365000
X0000167500Y0000375000
X0000175000Y0000375000
X0000167500Y0000385000
X0000175000Y0000385000
X0000162500Y0000404500
X0000177500Y0000404500
X0000162500Y0000411000
X0000177500Y0000411000
X0000165000Y0000420000
X0000175000Y0000420000
X0000195000Y0000420000
X0000185000Y0000420000
X0000192500Y0000411000
X0000192500Y0000404500
X0000185000Y0000385000
X0000195000Y0000375000
X0000185000Y0000375000
X0000185000Y0000365000
X0000195000Y0000335000
X0000185000Y0000330000
X0000195000Y0000325000
X0000185000Y0000320000
X0000195000Y0000315000
X0000182500Y0000275000
X0000190000Y0000267500
X0000195000Y0000262500
X0000182500Y0000237500
X0000187500Y0000232500
X0000192000Y0000225000
X0000188000Y0000225000
X0000182001Y0000225001
X0000180000Y0000200500
X0000181000Y0000197000
X0000185000Y0000175500
X0000195000Y0000175000
X0000190000Y0000175000
X0000195000Y0000170000
X0000190000Y0000170000
X0000185000Y0000170000
X0000180000Y0000170000
X0000190000Y0000160000
X0000185000Y0000160000
X0000181435Y0000156517
X0000190000Y0000155000
X0000185000Y0000155000
X0000180565Y0000143017
X0000186321Y0000131631
X0000186435Y0000119017
X0000195000Y0000110000
X0000197500Y0000072500
X0000192500Y0000072500
X0000187500Y0000072500
X0000182500Y0000072500
X0000197500Y0000065000
X0000192500Y0000065000
X0000187500Y0000065000
X0000182500Y0000065000
X0000197500Y0000060000
X0000192500Y0000060000
X0000187500Y0000060000
X0000182500Y0000060000
X0000197500Y0000055000
X0000192500Y0000055000
X0000189130Y0000039500
X0000196630Y0000035500
X0000191630Y0000035500
X0000186630Y0000035500
X0000182630Y0000035500
X0000196630Y0000031000
X0000204630Y0000020000
X0000208630Y0000020000
X0000212630Y0000020000
X0000204630Y0000024000
X0000208630Y0000024000
X0000212630Y0000024000
X0000201630Y0000031000
X0000206630Y0000031000
X0000211630Y0000031000
X0000201630Y0000035500
X0000206630Y0000035500
X0000211630Y0000035500
X0000206630Y0000040500
X0000211630Y0000040500
X0000211630Y0000047000
X0000216630Y0000047000
X0000211630Y0000051000
X0000216630Y0000051000
X0000211630Y0000055500
X0000216630Y0000055500
X0000211630Y0000060000
X0000216630Y0000060000
X0000205000Y0000110000
X0000205000Y0000120000
X0000215000Y0000120000
X0000215000Y0000130000
X0000213000Y0000139500
X0000210000Y0000155000
X0000215000Y0000155000
X0000210000Y0000160000
X0000215000Y0000160000
X0000210000Y0000170000
X0000215000Y0000195000
X0000212500Y0000200000
X0000215000Y0000260000
X0000215000Y0000290000
X0000217500Y0000312500
X0000217516Y0000317484
X0000217500Y0000322500
X0000212500Y0000327500
X0000217500Y0000327500
X0000212500Y0000332500
X0000217500Y0000332500
X0000212500Y0000337500
X0000217500Y0000337500
X0000212500Y0000342500
X0000217500Y0000342500
X0000217594Y0000347405
X0000202500Y0000347500
X0000207500Y0000347500
X0000212500Y0000347500
X0000202500Y0000352500
X0000207500Y0000352500
X0000212500Y0000352500
X0000217500Y0000352500
X0000217500Y0000362500
X0000212500Y0000367500
X0000217500Y0000367500
X0000212500Y0000372500
X0000217500Y0000372602
X0000212500Y0000377500
X0000217500Y0000377500
X0000210000Y0000404500
X0000210000Y0000411000
X0000205000Y0000420000
X0000215000Y0000420000
X0000225000Y0000420000
X0000225000Y0000387500
X0000230000Y0000382500
X0000225000Y0000382500
X0000230000Y0000377500
X0000225000Y0000377500
X0000230000Y0000372500
X0000225000Y0000372500
X0000230000Y0000367500
X0000225000Y0000367500
X0000230000Y0000362500
X0000225000Y0000362500
X0000230000Y0000357500
X0000225000Y0000357500
X0000230000Y0000352500
X0000225000Y0000352500
X0000230000Y0000347500
X0000225000Y0000347500
X0000230000Y0000342500
X0000225000Y0000342500
X0000230000Y0000337500
X0000225000Y0000337500
X0000230000Y0000332500
X0000225000Y0000332500
X0000230000Y0000327500
X0000230000Y0000322500
X0000230016Y0000317484
X0000230000Y0000312500
X0000224000Y0000306000
X0000227500Y0000302000
X0000232000Y0000297500
X0000225000Y0000290000
X0000230000Y0000230000
X0000220000Y0000230000
X0000230000Y0000220000
X0000220000Y0000220000
X0000230000Y0000210000
X0000220000Y0000190000
X0000225000Y0000185000
X0000230000Y0000180000
X0000233630Y0000175462
X0000233630Y0000170462
X0000220000Y0000160000
X0000220000Y0000155000
X0000223500Y0000139500
X0000221500Y0000133870
X0000221630Y0000118870
X0000235000Y0000092500
X0000230000Y0000092500
X0000225000Y0000092500
X0000235000Y0000087500
X0000230000Y0000087500
X0000225000Y0000087500
X0000238630Y0000081114
X0000232687Y0000055557
X0000237630Y0000055500
X0000227630Y0000052000
X0000232687Y0000050557
X0000237630Y0000050500
X0000227630Y0000047500
X0000233130Y0000045500
X0000227630Y0000042000
X0000238500Y0000036000
X0000233630Y0000036000
X0000227630Y0000036000
X0000233130Y0000029500
X0000227630Y0000029500
X0000233130Y0000023000
X0000227630Y0000023000
X0000233130Y0000019000
X0000227630Y0000019000
X0000235630Y0000006650
X0000231630Y0000006650
X0000228130Y0000006650
X0000235630Y0000003500
X0000231630Y0000003500
X0000228130Y0000003500
X0000241630Y0000004000
X0000245630Y0000004000
X0000249630Y0000004000
X0000254130Y0000004000
X0000258130Y0000004000
X0000241630Y0000007150
X0000245630Y0000007150
X0000249630Y0000007150
X0000254130Y0000007150
X0000258130Y0000007150
X0000250000Y0000029000
X0000248630Y0000044200
X0000251630Y0000044200
X0000248630Y0000047000
X0000251630Y0000047000
X0000258000Y0000074500
X0000240000Y0000087500
X0000240000Y0000092500
X0000240000Y0000139500
X0000250000Y0000139500
X0000253130Y0000154462
X0000253130Y0000164462
X0000240630Y0000169462
X0000253130Y0000169462
X0000253130Y0000174462
X0000245630Y0000186962
X0000245630Y0000191962
X0000240000Y0000210000
X0000240000Y0000220000
X0000240000Y0000230000
X0000240000Y0000240000
X0000240000Y0000260000
X0000240000Y0000312500
X0000250000Y0000317500
X0000240000Y0000322500
X0000240000Y0000327500
X0000245000Y0000327500
X0000240000Y0000332500
X0000245000Y0000332500
X0000257500Y0000332500
X0000245000Y0000337500
X0000250000Y0000337500
X0000240000Y0000342500
X0000240000Y0000347500
X0000245000Y0000347500
X0000240000Y0000352500
X0000245000Y0000352500
X0000257500Y0000352500
X0000240000Y0000357500
X0000245000Y0000357500
X0000250000Y0000357500
X0000240000Y0000362500
X0000245000Y0000362500
X0000250000Y0000362500
X0000252500Y0000390000
X0000245000Y0000435000
X0000250000Y0000445000
X0000242500Y0000445500
X0000276642Y0000439000
X0000270736Y0000439000
X0000264831Y0000439000
X0000263000Y0000430000
X0000278094Y0000429850
X0000269283Y0000429850
X0000266283Y0000429850
X0000278500Y0000425000
X0000275189Y0000425000
X0000272189Y0000425000
X0000268500Y0000425000
X0000277500Y0000412500
X0000272500Y0000412500
X0000272500Y0000407500
X0000262500Y0000407500
X0000277500Y0000402500
X0000272500Y0000402500
X0000270000Y0000390000
X0000265000Y0000390000
X0000260000Y0000390000
X0000270000Y0000385000
X0000265000Y0000385000
X0000260000Y0000385000
X0000270000Y0000380000
X0000265000Y0000380000
X0000265000Y0000375000
X0000275000Y0000367500
X0000270000Y0000367500
X0000265000Y0000367500
X0000275000Y0000362500
X0000270000Y0000362500
X0000265000Y0000362500
X0000275000Y0000352500
X0000265000Y0000352500
X0000265000Y0000347500
X0000277500Y0000330000
X0000277500Y0000322500
X0000277500Y0000315000
X0000275000Y0000260000
X0000265000Y0000260000
X0000275000Y0000250000
X0000265000Y0000250000
X0000275000Y0000240000
X0000265000Y0000240000
X0000275000Y0000230000
X0000265000Y0000230000
X0000275630Y0000216962
X0000270630Y0000216962
X0000266130Y0000215500
X0000278130Y0000204462
X0000278130Y0000199462
X0000263130Y0000199462
X0000278130Y0000194462
X0000263130Y0000191962
X0000275630Y0000189462
X0000276500Y0000180000
X0000268130Y0000174462
X0000273130Y0000171962
X0000268130Y0000169462
X0000273130Y0000159462
X0000268130Y0000159462
X0000260630Y0000159462
X0000273130Y0000154462
X0000268130Y0000154462
X0000260630Y0000154462
X0000275630Y0000139462
X0000263130Y0000139462
X0000265630Y0000116962
X0000265500Y0000074500
X0000262000Y0000071000
X0000275130Y0000070614
X0000272430Y0000064100
X0000269730Y0000061700
X0000273730Y0000061100
X0000272610Y0000057980
X0000266500Y0000054000
X0000266500Y0000050500
X0000266500Y0000047000
X0000278630Y0000045500
X0000269130Y0000028500
X0000269130Y0000025000
X0000265130Y0000025000
X0000269130Y0000021000
X0000269130Y0000017000
X0000265130Y0000017000
X0000274630Y0000015500
X0000279016Y0000012114
X0000274630Y0000012000
X0000270630Y0000007150
X0000266630Y0000007150
X0000262130Y0000007150
X0000277000Y0000004000
X0000270630Y0000004000
X0000266630Y0000004000
X0000262130Y0000004000
X0000286000Y0000005000
X0000290630Y0000005000
X0000295000Y0000009500
X0000282244Y0000012000
X0000290630Y0000015000
X0000296500Y0000020500
X0000285130Y0000026000
X0000296500Y0000026000
X0000285200Y0000031100
X0000296100Y0000031300
X0000296000Y0000037000
X0000285630Y0000037500
X0000284130Y0000045500
X0000292744Y0000045500
X0000285130Y0000056500
X0000285130Y0000062000
X0000287130Y0000070614
X0000299408Y0000074500
X0000280630Y0000126962
X0000291130Y0000176500
X0000296630Y0000176500
X0000283130Y0000199462
X0000287630Y0000199462
X0000290000Y0000220000
X0000290000Y0000225000
X0000290000Y0000235000
X0000290000Y0000240000
X0000290000Y0000245000
X0000290000Y0000250000
X0000290000Y0000255000
X0000290000Y0000260000
X0000290000Y0000312500
X0000287500Y0000332500
X0000295000Y0000332500
X0000287500Y0000340000
X0000282430Y0000349500
X0000286430Y0000349500
X0000290630Y0000349500
X0000282430Y0000353500
X0000286430Y0000353500
X0000290630Y0000353500
X0000282430Y0000357500
X0000286430Y0000357500
X0000290630Y0000357500
X0000295000Y0000362500
X0000285000Y0000367500
X0000295000Y0000367500
X0000297000Y0000421886
X0000281094Y0000429850
X0000285000Y0000430000
X0000292500Y0000430000
X0000297500Y0000430000
X0000282547Y0000439000
X0000288453Y0000439000
X0000295000Y0000440000
X0000285000Y0000445000
X0000295000Y0000445000
X0000305000Y0000445000
X0000300000Y0000440000
X0000307500Y0000430000
X0000310000Y0000417500
X0000305000Y0000417500
X0000300500Y0000417500
X0000315000Y0000412500
X0000310000Y0000412500
X0000305000Y0000412500
X0000315000Y0000407500
X0000315000Y0000402500
X0000310000Y0000402500
X0000304500Y0000402500
X0000304500Y0000397500
X0000317500Y0000392500
X0000304500Y0000392500
X0000310000Y0000362500
X0000310000Y0000357500
X0000310000Y0000352500
X0000310000Y0000347500
X0000310000Y0000342500
X0000318130Y0000331500
X0000312000Y0000326000
X0000318130Y0000325500
X0000318327Y0000319697
X0000318337Y0000313793
X0000318130Y0000309500
X0000314989Y0000299989
X0000310000Y0000300000
X0000315000Y0000295000
X0000310000Y0000295000
X0000315000Y0000290000
X0000310000Y0000290000
X0000310000Y0000262500
X0000305500Y0000262500
X0000307500Y0000255000
X0000307500Y0000250000
X0000307500Y0000240000
X0000307500Y0000230000
X0000307500Y0000225000
X0000317500Y0000220000
X0000317500Y0000215000
X0000312500Y0000192500
X0000305000Y0000192500
X0000312500Y0000182500
X0000305000Y0000182500
X0000305000Y0000172500
X0000313000Y0000172000
X0000318500Y0000102500
X0000315630Y0000095000
X0000312630Y0000092000
X0000307630Y0000092000
X0000316000Y0000085500
X0000303408Y0000074500
X0000307000Y0000063000
X0000314500Y0000056500
X0000308630Y0000054000
X0000319630Y0000049000
X0000314130Y0000049000
X0000308630Y0000049000
X0000319630Y0000044000
X0000314130Y0000044000
X0000308630Y0000044000
X0000310630Y0000035000
X0000300130Y0000031500
X0000310630Y0000025000
X0000310630Y0000015000
X0000300630Y0000015000
X0000310630Y0000005000
X0000300630Y0000005000
X0000320630Y0000005000
X0000320630Y0000015000
X0000335630Y0000035000
X0000325630Y0000044000
X0000325630Y0000049000
X0000335630Y0000050000
X0000331000Y0000055500
X0000338500Y0000055500
X0000320000Y0000056000
X0000325500Y0000057000
X0000325000Y0000085000
X0000335630Y0000085000
X0000321000Y0000090000
X0000329500Y0000090000
X0000325630Y0000095000
X0000335630Y0000095000
X0000327500Y0000105000
X0000335630Y0000105000
X0000322130Y0000119000
X0000326130Y0000119000
X0000330130Y0000119000
X0000333630Y0000119000
X0000322130Y0000128000
X0000326130Y0000128000
X0000330130Y0000128000
X0000331630Y0000136500
X0000321630Y0000142500
X0000331630Y0000142500
X0000332500Y0000154000
X0000320000Y0000155000
X0000327130Y0000159000
X0000332500Y0000159000
X0000330000Y0000162206
X0000333000Y0000162206
X0000330630Y0000175000
X0000330630Y0000185000
X0000330630Y0000195000
X0000330630Y0000205000
X0000322500Y0000215000
X0000330630Y0000215000
X0000322500Y0000220000
X0000333000Y0000241157
X0000330630Y0000250000
X0000330630Y0000260000
X0000328500Y0000286500
X0000326000Y0000289000
X0000331000Y0000289000
X0000329000Y0000296000
X0000329000Y0000302166
X0000326130Y0000303378
X0000326130Y0000306878
X0000329130Y0000308000
X0000321130Y0000309283
X0000321130Y0000312783
X0000328630Y0000313793
X0000325630Y0000315189
X0000325630Y0000318689
X0000328638Y0000319697
X0000321130Y0000321094
X0000321130Y0000324594
X0000328630Y0000325604
X0000325630Y0000327000
X0000325630Y0000330500
X0000328638Y0000331508
X0000325000Y0000445000
X0000350000Y0000420000
X0000350000Y0000410000
X0000350000Y0000400000
X0000350000Y0000370000
X0000350000Y0000360000
X0000350000Y0000350000
X0000350000Y0000340000
X0000350000Y0000325000
X0000350000Y0000315000
X0000350630Y0000310000
X0000350630Y0000300000
X0000350630Y0000290000
X0000350630Y0000280000
X0000350630Y0000270000
X0000340500Y0000266000
X0000350630Y0000260000
X0000340630Y0000260000
X0000350630Y0000245000
X0000340630Y0000245000
X0000350630Y0000235000
X0000340630Y0000235000
X0000350630Y0000225000
X0000340000Y0000222500
X0000350630Y0000215000
X0000340630Y0000215000
X0000350630Y0000205000
X0000340630Y0000205000
X0000350630Y0000195000
X0000340630Y0000195000
X0000350630Y0000185000
X0000340630Y0000185000
X0000350630Y0000175000
X0000340630Y0000175000
X0000350500Y0000166159
X0000342500Y0000166142
X0000351000Y0000162000
X0000344200Y0000161024
X0000351000Y0000158662
X0000343630Y0000157500
X0000340000Y0000157500
X0000351000Y0000155500
X0000343500Y0000153000
X0000340000Y0000153000
X0000351000Y0000149500
X0000343480Y0000147483
X0000339980Y0000147483
X0000351000Y0000142144
X0000343480Y0000141983
X0000339980Y0000141983
X0000351000Y0000137419
X0000343480Y0000136483
X0000339980Y0000136483
X0000350500Y0000125000
X0000342500Y0000122500
X0000349500Y0000122000
X0000345630Y0000115000
X0000349500Y0000111500
X0000340000Y0000111500
X0000345630Y0000105000
X0000350000Y0000100000
X0000345630Y0000095000
X0000350000Y0000090000
X0000345630Y0000085000
X0000348500Y0000078500
X0000341000Y0000078000
X0000340500Y0000072000
X0000348500Y0000065000
X0000341000Y0000064500
X0000351000Y0000060500
X0000345630Y0000060000
X0000345630Y0000050000
X0000348500Y0000043500
X0000340000Y0000042500
X0000345630Y0000035000
T02
X0000047637Y0000173031
X0000047637Y0000182874
X0000047637Y0000190748
X0000047637Y0000200591
T03
X0000043307Y0000161024
X0000043307Y0000212599
T04
X0000095548Y0000247007
X0000225469Y0000247007
X0000225469Y0000435984
X0000095548Y0000435984
T05
X0000015748Y0000015748
X0000338619Y0000015748
X0000338619Y0000437008
X0000015748Y0000437008
M30
