M48
INCH
T01C.00001
;EXTENTS: -31.971 -30.601 33.399  33.675  
;LEADER: 12 
;HEADER: 
;CODE  : ASCII 
;FILE  : D:/PCB_Project/CutiePi/CutiePi_V2_0/CutiePi_V2_0.rou for board D:/PCB_Project/CutiePi/CutiePi_V2_0/#Taaaacb06640.tmp
%
G90
F1
M16
T01
M16
G00X0000005043Y0000251845
G41
M15
G03X0000005043Y0000249482A0000001181
G01X0000007406Y0000249482
G03X0000007406Y0000251845A0000001181
G01X0000005043Y0000251845
M16
G00X0000005043Y0000285860
G41
M15
G03X0000005043Y0000283498A0000001181
G01X0000007406Y0000283498
G03X0000007406Y0000285860A0000001181
G01X0000005043Y0000285860
M16
G00X0000020004Y0000251845
G41
M15
G03X0000020004Y0000249482A0000001181
G01X0000022366Y0000249482
G03X0000022366Y0000251845A0000001181
G01X0000020004Y0000251845
M16
G00X0000020004Y0000285860
G41
M15
G03X0000020004Y0000283498A0000001181
G01X0000022366Y0000283498
G03X0000022366Y0000285860A0000001181
G01X0000020004Y0000285860
M16
G00X0000003301Y0000322737
G41
M15
G03X0000003301Y0000320178A0000001280
G01X0000007435Y0000320178
G03X0000007435Y0000322737A0000001280
G01X0000003301Y0000322737
M16
G00X0000003301Y0000347146
G41
M15
G03X0000003301Y0000344587A0000001280
G01X0000007435Y0000344587
G03X0000007435Y0000347146A0000001280
G01X0000003301Y0000347146
M16
G00X0000016529Y0000322737
G41
M15
G03X0000016529Y0000320178A0000001280
G01X0000020663Y0000320178
G03X0000020663Y0000322737A0000001280
G01X0000016529Y0000322737
M16
G00X0000016529Y0000347146
G41
M15
G03X0000016529Y0000344587A0000001280
G01X0000020663Y0000344587
G03X0000020663Y0000347146A0000001280
G01X0000016529Y0000347146
M16
G00X0000016338Y0000381496
G41
M15
G03X0000018701Y0000381496A0000001181
G01X0000018701Y0000382283
G03X0000016338Y0000382283A0000001181
G01X0000016338Y0000381496
M16
G00X0000016338Y0000401181
G41
M15
G03X0000018701Y0000401181A0000001181
G01X0000018701Y0000401968
G03X0000016338Y0000401968A0000001181
G01X0000016338Y0000401181
M16
G40
M30
