G04 ================== begin FILE IDENTIFICATION RECORD ==================*
G04 Layout Name:  D:/PCB_Project/CutiePi/CutiePi_V2_0/CutiePi_V2_0.brd*
G04 Film Name:    L03*
G04 File Format:  Gerber RS274X*
G04 File Origin:  Cadence Allegro 16.6-2015-S108*
G04 Origin Date:  Wed Dec 02 16:58:57 2020*
G04 *
G04 Layer:  ETCH/L03*
G04 Layer:  PIN/L03*
G04 Layer:  VIA CLASS/L03*
G04 *
G04 Offset:    (0.000 0.000)*
G04 Mirror:    No*
G04 Mode:      Positive*
G04 Rotation:  0*
G04 FullContactRelief:  No*
G04 UndefLineWidth:     6.000*
G04 ================== end FILE IDENTIFICATION RECORD ====================*
%FSAX55Y55*MOIN*%
%IR0*IPPOS*OFA0.00000B0.00000*MIA0B0*SFA1.00000B1.00000*%
%ADD15C,.1*%
%ADD13O,.100394X.059055*%
%ADD18C,.106299*%
%ADD11C,.02*%
%ADD16C,.06*%
%ADD17R,.06X.06*%
%ADD14O,.047244X.055118*%
%ADD12O,.066929X.043307*%
%ADD10C,.019689*%
%ADD19C,.0045*%
%ADD20C,.0055*%
%ADD21C,.0057*%
%ADD22C,.012*%
%ADD23C,.015*%
%ADD24C,.025*%
%ADD25C,.0307*%
%ADD28C,.276854*%
%ADD29C,.032004*%
%ADD31R,.080004X.080004*%
%ADD30C,.072004*%
%ADD26O,.067248X.075122*%
%ADD27O,.059248X.067122*%
G75*
%LPD*%
G75*
G36*
G01X0000003301Y0000325010D02*
G03X0000003226Y0000325009I0J-0000003553D01*
G02X0000002000Y0000326209I-0000000026J0000001200D01*
G01X0000002000Y0000341115D01*
G02X0000003226Y0000342314I0000001200J0D01*
G03X0000003301Y0000342314I0000000075J0000003552D01*
G01X0000007435Y0000342314D01*
G03X0000008792Y0000342583I0J0000003553D01*
G02X0000010428Y0000341699I0000000458J-0000001109D01*
G03X0000010534Y0000341359I0000001572J0000000301D01*
G01X0000010584Y0000341118D01*
X0000010249Y0000340579D01*
G03X0000009496Y0000337630I0000000881J-0000001796D01*
G02X0000009496Y0000336938I-0000000490J-0000000346D01*
G03X0000009478Y0000334656I0000001634J-0000001154D01*
G01X0000009582Y0000334318D01*
X0000009478Y0000333980D01*
G03X0000009496Y0000331699I0000001652J-0000001127D01*
G02X0000009496Y0000331006I-0000000490J-0000000346D01*
G03X0000012933Y0000328987I0000001634J-0000001154D01*
G01X0000013097Y0000329327D01*
X0000020060Y0000329327D01*
X0000029507Y0000338775D01*
X0000030603Y0000338775D01*
X0000030994Y0000337720D01*
G03X0000030666Y0000335051I0000001306J-0000001515D01*
G02X0000030666Y0000334359I-0000000490J-0000000346D01*
G03X0000030870Y0000331807I0000001634J-0000001154D01*
G01X0000031040Y0000331387D01*
X0000030871Y0000330970D01*
G03X0000030674Y0000328424I0000001436J-0000001392D01*
G02X0000030674Y0000327731I-0000000490J-0000000346D01*
G03X0000034162Y0000325827I0000001634J-0000001154D01*
G01X0000034313Y0000326202D01*
X0000040626Y0000326202D01*
X0000040626Y0000324346D01*
X0000039878Y0000324346D01*
X0000039746Y0000324415D01*
G03X0000039927Y0000321696I-0000000746J-0000001415D01*
G01X0000040341Y0000321990D01*
X0000042556Y0000319775D01*
X0000045998Y0000319775D01*
X0000047393Y0000321170D01*
G02X0000048995Y0000321255I0000000848J-0000000849D01*
G03X0000049501Y0000324020I0000001005J0000001245D01*
G02X0000047927Y0000325160I-0000000374J0000001140D01*
G01X0000047927Y0000326202D01*
X0000068774Y0000326202D01*
X0000075235Y0000332664D01*
X0000075235Y0000335994D01*
X0000075610Y0000336146D01*
G03X0000073706Y0000339634I-0000000750J0000001854D01*
G02X0000073014Y0000339634I-0000000346J0000000490D01*
G03X0000071110Y0000336146I-0000001154J-0000001634D01*
G01X0000071485Y0000335994D01*
X0000071485Y0000334218D01*
X0000067220Y0000329953D01*
X0000058109Y0000329953D01*
G02X0000057261Y0000332001I0J0000001200D01*
G01X0000057463Y0000332204D01*
X0000057463Y0000332875D01*
X0000062446Y0000332875D01*
X0000067235Y0000337664D01*
X0000067235Y0000342494D01*
X0000067610Y0000342646D01*
G03X0000065706Y0000346134I-0000000750J0000001854D01*
G02X0000065014Y0000346134I-0000000346J0000000490D01*
G03X0000063110Y0000342646I-0000001154J-0000001634D01*
G01X0000063485Y0000342494D01*
X0000063485Y0000339218D01*
X0000060892Y0000336625D01*
X0000055642Y0000336625D01*
X0000053813Y0000334796D01*
X0000051984Y0000336625D01*
X0000048542Y0000336625D01*
X0000046713Y0000334796D01*
X0000044884Y0000336625D01*
X0000043255Y0000336625D01*
G02X0000042406Y0000338674I0J0000001200D01*
G01X0000043708Y0000339975D01*
X0000053338Y0000339975D01*
X0000053466Y0000339545D01*
G03X0000056000Y0000338751I0000001534J0000000455D01*
G02X0000057500Y0000338751I0000000750J-0000000937D01*
G03X0000057227Y0000340970I0000001000J0000001249D01*
G01X0000056750Y0000340734D01*
X0000056273Y0000340970D01*
G03X0000056111Y0000341151I-0000001273J-0000000970D01*
G02X0000056096Y0000342863I0000000833J0000000863D01*
G01X0000057225Y0000343992D01*
X0000057225Y0000346414D01*
G02X0000058886Y0000347522I0000001200J0D01*
G03X0000060978Y0000349614I0000000614J0000001478D01*
G02X0000062086Y0000351275I0000001108J0000000461D01*
G01X0000074966Y0000351275D01*
X0000075103Y0000350865D01*
G03X0000078634Y0000352654I0000001897J0000000635D01*
G02X0000078634Y0000353346I0000000490J0000000346D01*
G03X0000075197Y0000355366I-0000001634J0000001154D01*
G01X0000075033Y0000355025D01*
X0000057954Y0000355025D01*
X0000053475Y0000350546D01*
X0000053475Y0000345546D01*
X0000051654Y0000343725D01*
X0000047586Y0000343725D01*
G02X0000046478Y0000345386I0J0000001200D01*
G03X0000046111Y0000347151I-0000001478J0000000614D01*
G02X0000046096Y0000348863I0000000833J0000000863D01*
G01X0000059008Y0000361775D01*
X0000073013Y0000361775D01*
X0000073171Y0000361417D01*
G03X0000076634Y0000363380I0000001829J0000000809D01*
G02X0000076634Y0000364072I0000000490J0000000346D01*
G03X0000073123Y0000365918I-0000001634J0000001154D01*
G01X0000072978Y0000365525D01*
X0000057454Y0000365525D01*
X0000039654Y0000347725D01*
X0000038740Y0000347725D01*
G02X0000037566Y0000349172I0J0000001200D01*
G03X0000035033Y0000350775I-0000001566J0000000328D01*
G02X0000033582Y0000350775I-0000000726J0000000956D01*
G03X0000031048Y0000349172I-0000000967J-0000001275D01*
G02X0000029874Y0000347725I-0000001174J-0000000246D01*
G01X0000027154Y0000347725D01*
X0000026003Y0000346574D01*
G02X0000024020Y0000347030I-0000000849J0000000849D01*
G03X0000020663Y0000349420I-0000003357J-0000001163D01*
G01X0000016529Y0000349420D01*
G03X0000013067Y0000345068I0J-0000003553D01*
G02X0000011942Y0000343599I-0000001169J-0000000270D01*
G03X0000011390Y0000343480I0000000058J-0000001599D01*
G01X0000011162Y0000343434D01*
G02X0000010562Y0000344034I0J0000000600D01*
G01X0000010623Y0000344299D01*
G03X0000007435Y0000349420I-0000003188J0000001568D01*
G01X0000003301Y0000349420D01*
G03X0000003226Y0000349419I0J-0000003553D01*
G02X0000002000Y0000350618I-0000000026J0000001200D01*
G01X0000002000Y0000364335D01*
X0000002451Y0000364450D01*
G03X0000009874Y0000374015I-0000002451J0000009565D01*
G01X0000009874Y0000409449D01*
G03X0000002451Y0000419014I-0000009874J0D01*
G01X0000002000Y0000419129D01*
X0000002000Y0000428126D01*
G02X0000004180Y0000428820I0000001200J0D01*
G03X0000023936Y0000448576I0000011568J0000008188D01*
G02X0000024630Y0000450756I0000000693J0000000980D01*
G01X0000089060Y0000450756D01*
G02X0000089578Y0000448473I0J-0000001200D01*
G03X0000101517Y0000448473I0000005970J-0000012489D01*
G02X0000102035Y0000450756I0000000517J0000001083D01*
G01X0000148689Y0000450756D01*
X0000148689Y0000424177D01*
X0000218242Y0000424177D01*
G03X0000232555Y0000424092I0000007226J0000011807D01*
G01X0000232697Y0000424177D01*
X0000233177Y0000424177D01*
X0000234453Y0000425453D01*
X0000234471Y0000425468D01*
G03X0000235999Y0000426999I-0000009002J0000010516D01*
G01X0000239500Y0000430500D01*
X0000239500Y0000450756D01*
X0000329737Y0000450756D01*
G02X0000330430Y0000448576I0J-0000001200D01*
G03X0000350187Y0000428820I0000008189J-0000011568D01*
G02X0000352367Y0000428126I0000000980J-0000000693D01*
G01X0000352367Y0000164795D01*
G02X0000351095Y0000163597I-0000001200J0D01*
G03X0000350698Y0000163572I-0000000095J-0000001597D01*
G01X0000350642Y0000163561D01*
X0000349985Y0000163561D01*
X0000349985Y0000165015D01*
X0000341515Y0000173485D01*
X0000313604Y0000173485D01*
X0000313511Y0000173517D01*
G03X0000313511Y0000170483I-0000000511J-0000001517D01*
G01X0000313604Y0000170515D01*
X0000340285Y0000170515D01*
X0000347015Y0000163785D01*
X0000347015Y0000160547D01*
X0000349523Y0000158039D01*
X0000349567Y0000157951D01*
G03X0000351095Y0000157065I0000001433J0000000711D01*
G02X0000352367Y0000155867I0000000072J-0000001198D01*
G01X0000352367Y0000024630D01*
G02X0000350187Y0000023936I-0000001200J0D01*
G03X0000330430Y0000004180I-0000011569J-0000008188D01*
G02X0000329737Y0000002000I-0000000693J-0000000979D01*
G01X0000265375Y0000002000D01*
X0000265068Y0000002741D01*
X0000265330Y0000003003D01*
X0000265330Y0000008700D01*
X0000270754Y0000008700D01*
X0000274254Y0000005200D01*
X0000282176Y0000005200D01*
X0000286930Y0000009954D01*
X0000286930Y0000024200D01*
X0000291546Y0000024200D01*
X0000297373Y0000030027D01*
G03X0000297457Y0000030117I-0000001272J0000001273D01*
G02X0000299120Y0000030259I0000000905J-0000000788D01*
G03X0000299002Y0000032635I0000001010J0000001241D01*
G02X0000297333Y0000032611I-0000000846J0000000851D01*
G03X0000294827Y0000032573I-0000001233J-0000001311D01*
G01X0000290054Y0000027800D01*
X0000285130Y0000027800D01*
G03X0000283330Y0000026000I0J-0000001800D01*
G01X0000283330Y0000011446D01*
X0000280684Y0000008800D01*
X0000275746Y0000008800D01*
X0000272246Y0000012300D01*
X0000265330Y0000012300D01*
X0000265330Y0000015497D01*
X0000262562Y0000018265D01*
X0000237360Y0000018265D01*
G02X0000236511Y0000020314I0J0000001200D01*
G01X0000237200Y0000021003D01*
X0000237200Y0000040857D01*
G02X0000239249Y0000041705I0000001200J0D01*
G01X0000248254Y0000032700D01*
X0000267754Y0000032700D01*
X0000277216Y0000023238D01*
X0000277216Y0000012114D01*
G03X0000280816Y0000012114I0000001800J0D01*
G01X0000280816Y0000024730D01*
X0000269246Y0000036300D01*
X0000249746Y0000036300D01*
X0000239430Y0000046616D01*
X0000239430Y0000054754D01*
X0000243376Y0000058700D01*
X0000262746Y0000058700D01*
X0000272860Y0000068814D01*
X0000275130Y0000068814D01*
G03X0000276907Y0000070906I0J0000001800D01*
G02X0000278091Y0000072300I0000001184J0000000194D01*
G01X0000301208Y0000072300D01*
X0000301208Y0000064319D01*
X0000285300Y0000048411D01*
X0000285300Y0000040281D01*
X0000284074Y0000039056D01*
G03X0000287186Y0000035944I0000001556J-0000001556D01*
G01X0000289700Y0000038459D01*
X0000289700Y0000046589D01*
X0000305608Y0000062496D01*
X0000305608Y0000074500D01*
G03X0000303408Y0000076700I-0000002200J0D01*
G01X0000269589Y0000076700D01*
X0000259589Y0000066700D01*
X0000242411Y0000066700D01*
X0000240830Y0000068281D01*
X0000240830Y0000081114D01*
G03X0000240763Y0000081652I-0000002200J0D01*
G01X0000240680Y0000081983D01*
X0000264997Y0000106300D01*
X0000335127Y0000106300D01*
X0000336330Y0000107503D01*
X0000336330Y0000119867D01*
X0000334997Y0000121200D01*
X0000332830Y0000121200D01*
X0000332830Y0000129497D01*
X0000332377Y0000129951D01*
G02X0000332801Y0000130975I0000000424J0000000424D01*
G01X0000340546Y0000130975D01*
X0000343875Y0000134304D01*
X0000343875Y0000134482D01*
X0000344245Y0000134635D01*
G03X0000343949Y0000138428I-0000000765J0000001848D01*
G01X0000343785Y0000138467D01*
X0000343241Y0000139011D01*
X0000343851Y0000139621D01*
X0000343851Y0000139976D01*
X0000344227Y0000140127D01*
G03X0000344178Y0000143858I-0000000746J0000001856D01*
G01X0000344055Y0000143903D01*
X0000343539Y0000144420D01*
X0000344006Y0000144887D01*
X0000344006Y0000145516D01*
X0000344346Y0000145680D01*
G03X0000343756Y0000149464I-0000000866J0000001803D01*
G01X0000343556Y0000149492D01*
X0000342990Y0000150058D01*
X0000343335Y0000150404D01*
X0000343335Y0000150943D01*
X0000343835Y0000151028D01*
G03X0000344962Y0000154365I-0000000335J0000001972D01*
G02X0000345011Y0000156053I0000000877J0000000819D01*
G03X0000345320Y0000158570I-0000001381J0000001447D01*
G02X0000345420Y0000159988I0000001014J0000000642D01*
G03X0000343235Y0000162301I-0000001220J0000001036D01*
G02X0000341662Y0000162409I-0000000724J0000000957D01*
G01X0000336046Y0000168025D01*
X0000296708Y0000168025D01*
X0000279508Y0000185225D01*
X0000248378Y0000185225D01*
G02X0000247201Y0000186655I0J0000001200D01*
G03X0000244216Y0000187712I-0000001570J0000000307D01*
G02X0000242307Y0000187425I-0000001060J0000000562D01*
G01X0000213225Y0000216508D01*
X0000213225Y0000237846D01*
X0000132027Y0000319044D01*
G02X0000132735Y0000321084I0000000849J0000000848D01*
G03X0000134354Y0000322321I-0000000235J0000001986D01*
G01X0000134506Y0000322696D01*
X0000138072Y0000322696D01*
X0000194792Y0000265975D01*
X0000337708Y0000265975D01*
X0000349155Y0000277422D01*
X0000349155Y0000313208D01*
X0000331752Y0000330610D01*
X0000327678Y0000330610D01*
X0000327554Y0000331046D01*
G03X0000324151Y0000329154I-0000001924J-0000000546D01*
G01X0000324307Y0000328750D01*
X0000324151Y0000328346D01*
G03X0000323654Y0000327313I0000001479J-0000001346D01*
G02X0000321967Y0000326410I-0000001185J0000000188D01*
G03X0000319651Y0000323248I-0000000837J-0000001817D01*
G01X0000319807Y0000322844D01*
X0000319651Y0000322440D01*
G03X0000321967Y0000319277I0000001479J-0000001346D01*
G02X0000323654Y0000318375I0000000502J-0000001090D01*
G03X0000324151Y0000317343I0000001975J0000000314D01*
G01X0000324307Y0000316939D01*
X0000324151Y0000316535D01*
G03X0000323654Y0000315502I0000001479J-0000001346D01*
G02X0000321967Y0000314599I-0000001185J0000000188D01*
G03X0000319651Y0000311436I-0000000837J-0000001817D01*
G01X0000319807Y0000311033D01*
X0000319651Y0000310629D01*
G03X0000323054Y0000308736I0000001479J-0000001346D01*
G01X0000323178Y0000309172D01*
X0000324158Y0000309172D01*
X0000324613Y0000308182D01*
G03X0000324651Y0000305532I0000001517J-0000001304D01*
G01X0000324807Y0000305128D01*
X0000324651Y0000304724D01*
G03X0000328056Y0000302837I0000001479J-0000001346D01*
G01X0000328179Y0000303275D01*
X0000329122Y0000303275D01*
X0000329975Y0000302422D01*
X0000329975Y0000295120D01*
X0000329110Y0000294255D01*
X0000324184Y0000294255D01*
X0000316954Y0000287025D01*
X0000214708Y0000287025D01*
X0000177872Y0000323860D01*
X0000181008Y0000326996D01*
X0000181008Y0000329724D01*
X0000178574Y0000332158D01*
X0000175988Y0000332158D01*
X0000175988Y0000334745D01*
X0000173554Y0000337179D01*
X0000170967Y0000337179D01*
X0000170967Y0000339766D01*
X0000168533Y0000342200D01*
X0000165946Y0000342200D01*
X0000165946Y0000344786D01*
X0000163512Y0000347220D01*
X0000160925Y0000347220D01*
X0000160925Y0000349807D01*
X0000158492Y0000352241D01*
X0000155763Y0000352241D01*
X0000152628Y0000349105D01*
X0000150998Y0000350735D01*
X0000135425Y0000350735D01*
X0000134575Y0000351585D01*
X0000134081Y0000351585D01*
G03X0000131828Y0000352244I-0000001581J-0000001225D01*
G02X0000130225Y0000353374I-0000000403J0000001130D01*
G01X0000130225Y0000385508D01*
X0000119708Y0000396025D01*
X0000095454Y0000396025D01*
X0000087304Y0000387875D01*
X0000082006Y0000387875D01*
X0000081854Y0000388250D01*
G03X0000080141Y0000389495I-0000001854J-0000000750D01*
G02X0000079025Y0000390692I0000000084J0000001197D01*
G01X0000079025Y0000392292D01*
X0000086508Y0000399775D01*
X0000192225Y0000399775D01*
X0000196500Y0000395500D01*
X0000229000Y0000395500D01*
X0000233275Y0000399775D01*
X0000245346Y0000399775D01*
X0000262283Y0000416712D01*
X0000262907Y0000416712D01*
G03X0000263773Y0000417071I0J0000001225D01*
G01X0000264339Y0000417637D01*
G03X0000264676Y0000418269I-0000000866J0000000866D01*
G01X0000264710Y0000418449D01*
X0000265236Y0000418975D01*
X0000265292Y0000418975D01*
X0000265734Y0000418534D01*
G03X0000266600Y0000418175I0000000866J0000000866D01*
G01X0000267400Y0000418175D01*
G03X0000268203Y0000418475I0J0000001225D01*
G01X0000268626Y0000418842D01*
X0000269292Y0000418175D01*
X0000271107Y0000418175D01*
X0000271907Y0000418975D01*
X0000272707Y0000418975D01*
X0000275564Y0000421831D01*
X0000275564Y0000422994D01*
X0000275939Y0000423146D01*
G03X0000274035Y0000426634I-0000000750J0000001854D01*
G02X0000273343Y0000426634I-0000000346J0000000490D01*
G03X0000270305Y0000424328I-0000001154J-0000001634D01*
G02X0000269175Y0000422725I-0000001130J-0000000403D01*
G01X0000262992Y0000422725D01*
X0000243792Y0000403525D01*
X0000228533Y0000403525D01*
X0000228508Y0000403500D01*
X0000224900Y0000403500D01*
X0000224875Y0000403525D01*
X0000221433Y0000403525D01*
X0000221408Y0000403500D01*
X0000217800Y0000403500D01*
X0000217775Y0000403525D01*
X0000214333Y0000403525D01*
X0000214308Y0000403500D01*
X0000210700Y0000403500D01*
X0000210675Y0000403525D01*
X0000207233Y0000403525D01*
X0000207208Y0000403500D01*
X0000203600Y0000403500D01*
X0000203575Y0000403525D01*
X0000200133Y0000403525D01*
X0000200108Y0000403500D01*
X0000196500Y0000403500D01*
X0000196475Y0000403525D01*
X0000086655Y0000403525D01*
G02X0000085807Y0000405574I0J0000001200D01*
G01X0000086208Y0000405975D01*
X0000237207Y0000405975D01*
X0000237233Y0000406000D01*
X0000243000Y0000406000D01*
X0000262000Y0000425000D01*
X0000262000Y0000429500D01*
X0000261849Y0000429500D01*
X0000261849Y0000430617D01*
X0000262508Y0000431275D01*
X0000263091Y0000431275D01*
G02X0000264288Y0000429990I0J-0000001200D01*
G03X0000267437Y0000428216I0000001995J-0000000141D01*
G02X0000268130Y0000428216I0000000346J-0000000490D01*
G03X0000270034Y0000431704I0000001154J0000001634D01*
G01X0000269659Y0000431856D01*
X0000269659Y0000433074D01*
X0000267708Y0000435025D01*
X0000260954Y0000435025D01*
X0000255429Y0000429500D01*
X0000255000Y0000429500D01*
X0000235225Y0000409725D01*
X0000086393Y0000409725D01*
G02X0000085545Y0000411774I0J0000001200D01*
G01X0000085746Y0000411975D01*
X0000234208Y0000411975D01*
X0000263008Y0000440775D01*
X0000272292Y0000440775D01*
X0000273092Y0000439975D01*
X0000274908Y0000439975D01*
X0000275708Y0000440775D01*
X0000276654Y0000440775D01*
X0000277719Y0000439710D01*
X0000277719Y0000437608D01*
X0000277278Y0000437166D01*
G03X0000276919Y0000436300I0000000866J-0000000866D01*
G01X0000276919Y0000435500D01*
G03X0000277219Y0000434697I0000001225J0D01*
G01X0000277586Y0000434274D01*
X0000276919Y0000433608D01*
X0000276919Y0000431469D01*
G03X0000279248Y0000428216I0000001175J-0000001619D01*
G02X0000279940Y0000428216I0000000346J-0000000490D01*
G03X0000281845Y0000431704I0000001154J0000001634D01*
G01X0000281470Y0000431856D01*
X0000281470Y0000441263D01*
X0000278208Y0000444525D01*
X0000261454Y0000444525D01*
X0000232654Y0000415725D01*
X0000084192Y0000415725D01*
X0000065975Y0000397508D01*
X0000065975Y0000379454D01*
X0000081275Y0000364154D01*
X0000081275Y0000348168D01*
G02X0000080047Y0000346968I-0000001200J0D01*
G03X0000078366Y0000343815I-0000000047J-0000002000D01*
G02X0000078366Y0000343122I-0000000490J-0000000346D01*
G03X0000081815Y0000341127I0000001634J-0000001154D01*
G01X0000081976Y0000341475D01*
X0000083046Y0000341475D01*
X0000083726Y0000342155D01*
G02X0000085775Y0000341307I0000000849J-0000000849D01*
G01X0000085775Y0000337346D01*
X0000084629Y0000336200D01*
X0000082052Y0000336200D01*
X0000081735Y0000336517D01*
X0000081698Y0000336576D01*
G03X0000078366Y0000334366I-0000001699J-0000001056D01*
G02X0000078366Y0000333674I-0000000490J-0000000346D01*
G03X0000081698Y0000331463I0000001634J-0000001154D01*
G01X0000081735Y0000331522D01*
X0000082663Y0000332450D01*
X0000086183Y0000332450D01*
X0000089525Y0000335792D01*
X0000089525Y0000336351D01*
G02X0000091574Y0000337199I0000001200J0D01*
G01X0000091904Y0000336869D01*
X0000092994Y0000336869D01*
X0000093146Y0000336494D01*
G03X0000095984Y0000335503I0000001854J0000000750D01*
G02X0000097775Y0000334458I0000000591J-0000001045D01*
G01X0000097775Y0000314654D01*
X0000182975Y0000229454D01*
X0000182975Y0000218454D01*
X0000186475Y0000214954D01*
X0000186475Y0000195954D01*
X0000241554Y0000140875D01*
X0000283892Y0000140875D01*
X0000292018Y0000132749D01*
G02X0000291170Y0000130700I-0000000849J-0000000849D01*
G01X0000228633Y0000130700D01*
X0000202800Y0000104867D01*
X0000202800Y0000045003D01*
X0000204003Y0000043800D01*
X0000218997Y0000043800D01*
X0000219776Y0000044578D01*
G02X0000220800Y0000044154I0000000424J-0000000424D01*
G01X0000220800Y0000037997D01*
X0000213003Y0000030200D01*
X0000202503Y0000030200D01*
X0000201300Y0000028997D01*
X0000201300Y0000019003D01*
X0000202053Y0000018250D01*
X0000197503Y0000013700D01*
X0000135657Y0000013700D01*
X0000135585Y0000014218D01*
G03X0000133660Y0000015564I-0000001585J-0000000218D01*
G02X0000132209Y0000016635I-0000000255J0000001173D01*
G03X0000129301Y0000015586I-0000001594J-0000000135D01*
G02X0000128316Y0000013700I-0000000985J-0000000686D01*
G01X0000126140Y0000013700D01*
X0000125991Y0000014082D01*
G03X0000123009Y0000014082I-0000001491J-0000000582D01*
G01X0000122860Y0000013700D01*
X0000090497Y0000013700D01*
X0000069200Y0000034997D01*
X0000069200Y0000055003D01*
X0000088200Y0000074003D01*
X0000088200Y0000094503D01*
X0000111497Y0000117800D01*
X0000136997Y0000117800D01*
X0000138700Y0000119503D01*
X0000138700Y0000124175D01*
G02X0000140558Y0000125179I0000001200J0D01*
G03X0000140558Y0000127856I0000000877J0000001338D01*
G02X0000138700Y0000128859I-0000000658J0000001004D01*
G01X0000138700Y0000128997D01*
X0000136997Y0000130700D01*
X0000098003Y0000130700D01*
X0000067300Y0000099997D01*
X0000067300Y0000081997D01*
X0000060503Y0000075200D01*
X0000046497Y0000075200D01*
X0000044200Y0000077497D01*
X0000044200Y0000113503D01*
X0000084200Y0000153503D01*
X0000084200Y0000192997D01*
X0000065500Y0000211697D01*
G02X0000065771Y0000213598I0000000849J0000000849D01*
G03X0000063409Y0000215170I-0000000771J0000001402D01*
G01X0000063386Y0000214959D01*
X0000062812Y0000214385D01*
X0000061700Y0000215497D01*
X0000061700Y0000255497D01*
X0000057497Y0000259700D01*
X0000049003Y0000259700D01*
X0000047300Y0000257997D01*
X0000047300Y0000250003D01*
X0000051300Y0000246003D01*
X0000051300Y0000211503D01*
X0000070300Y0000192503D01*
X0000070300Y0000166867D01*
X0000028930Y0000125497D01*
X0000028930Y0000053003D01*
X0000078133Y0000003800D01*
X0000223627Y0000003800D01*
X0000227627Y0000007800D01*
X0000238884Y0000007800D01*
G02X0000240061Y0000006836I0J-0000001200D01*
G03X0000240307Y0000006250I0000001569J0000000314D01*
G02X0000240307Y0000004900I-0000000992J-0000000675D01*
G03X0000240097Y0000003543I0000001323J-0000000900D01*
G02X0000238947Y0000002000I-0000001150J-0000000343D01*
G01X0000024629Y0000002000D01*
G02X0000023936Y0000004180I0J0000001200D01*
G03X0000004180Y0000023936I-0000008188J0000011568D01*
G02X0000002000Y0000024629I-0000000979J0000000693D01*
G01X0000002000Y0000155000D01*
G02X0000005000Y0000158000I0000003000J0D01*
G01X0000031130Y0000158000D01*
G03X0000035965Y0000159938I0J0000007000D01*
G02X0000037943Y0000159415I0000000829J-0000000868D01*
G03X0000040032Y0000165566I0000005364J0000001609D01*
G02X0000038130Y0000166540I-0000000702J0000000973D01*
G01X0000038130Y0000207083D01*
G02X0000040032Y0000208056I0000001200J0D01*
G03X0000037920Y0000214129I0000003275J0000004543D01*
G02X0000035941Y0000213585I-0000001154J0000000328D01*
G03X0000031130Y0000215500I-0000004811J-0000005085D01*
G01X0000005000Y0000215500D01*
G02X0000002000Y0000218500I0J0000003000D01*
G01X0000002000Y0000247152D01*
G02X0000003758Y0000248215I0000001200J0D01*
G03X0000005043Y0000247898I0000001285J0000002449D01*
G01X0000007406Y0000247898D01*
G03X0000007406Y0000253429I0J0000002766D01*
G01X0000005043Y0000253429D01*
G03X0000003758Y0000253112I0J-0000002766D01*
G02X0000002000Y0000254175I-0000000558J0000001062D01*
G01X0000002000Y0000281168D01*
G02X0000003758Y0000282231I0000001200J0D01*
G03X0000005043Y0000281914I0000001285J0000002449D01*
G01X0000007406Y0000281914D01*
G03X0000007406Y0000287445I0J0000002766D01*
G01X0000005043Y0000287445D01*
G03X0000003758Y0000287128I0J-0000002766D01*
G02X0000002000Y0000288190I-0000000558J0000001062D01*
G01X0000002000Y0000316705D01*
G02X0000003226Y0000317905I0000001200J0D01*
G03X0000003301Y0000317904I0000000075J0000003552D01*
G01X0000007435Y0000317904D01*
G03X0000007435Y0000325010I0J0000003553D01*
G01X0000003301Y0000325010D01*
G37*
G36*
G01X0000252130Y0000003000D02*
X0000251630Y0000003500D01*
X0000251630Y0000008500D01*
X0000251130Y0000009000D01*
X0000227130Y0000009000D01*
X0000223130Y0000005000D01*
X0000078630Y0000005000D01*
X0000030130Y0000053500D01*
X0000030130Y0000125000D01*
X0000071500Y0000166370D01*
X0000071500Y0000193000D01*
X0000052500Y0000212000D01*
X0000052500Y0000246500D01*
X0000048500Y0000250500D01*
X0000048500Y0000257500D01*
X0000049500Y0000258500D01*
X0000057000Y0000258500D01*
X0000060500Y0000255000D01*
X0000060500Y0000215000D01*
X0000083000Y0000192500D01*
X0000083000Y0000154000D01*
X0000043000Y0000114000D01*
X0000043000Y0000077000D01*
X0000046000Y0000074000D01*
X0000061000Y0000074000D01*
X0000068500Y0000081500D01*
X0000068500Y0000099500D01*
X0000098500Y0000129500D01*
X0000136500Y0000129500D01*
X0000137500Y0000128500D01*
X0000137500Y0000120000D01*
X0000136500Y0000119000D01*
X0000111000Y0000119000D01*
X0000087000Y0000095000D01*
X0000087000Y0000074500D01*
X0000068000Y0000055500D01*
X0000068000Y0000034500D01*
X0000090000Y0000012500D01*
X0000123251Y0000012500D01*
G03X0000125749Y0000012500I0000001249J0000001000D01*
G01X0000133442Y0000012500D01*
X0000133474Y0000012489D01*
G03X0000134526Y0000012489I0000000526J0000001511D01*
G01X0000134558Y0000012500D01*
X0000198000Y0000012500D01*
X0000202532Y0000017032D01*
X0000204467Y0000017032D01*
X0000204500Y0000017065D01*
X0000262065Y0000017065D01*
X0000264130Y0000015000D01*
X0000264130Y0000003500D01*
X0000263630Y0000003000D01*
X0000252130Y0000003000D01*
G37*
G36*
G01X0000189143Y0000226120D02*
G03X0000187957Y0000226600I-0000001143J-0000001120D01*
G02X0000186725Y0000227799I-0000000032J0000001200D01*
G01X0000186725Y0000231008D01*
X0000101525Y0000316208D01*
X0000101525Y0000343025D01*
X0000105500Y0000347000D01*
X0000105500Y0000347435D01*
X0000105527Y0000347523D01*
G03X0000105527Y0000348477I-0000001527J0000000477D01*
G01X0000105500Y0000348565D01*
X0000105500Y0000352435D01*
X0000105527Y0000352523D01*
G03X0000103762Y0000354582I-0000001527J0000000477D01*
G01X0000103463Y0000354537D01*
X0000101525Y0000356475D01*
X0000101525Y0000381837D01*
G02X0000103391Y0000382836I0000001200J0D01*
G03X0000106134Y0000385654I0000001109J0000001664D01*
G02X0000106134Y0000386346I0000000490J0000000346D01*
G03X0000102646Y0000388250I-0000001634J0000001154D01*
G01X0000102494Y0000387875D01*
X0000100304Y0000387875D01*
X0000097775Y0000385346D01*
X0000097775Y0000372355D01*
G02X0000095726Y0000371506I-0000001200J0D01*
G01X0000093708Y0000373525D01*
X0000089208Y0000373525D01*
X0000081379Y0000381354D01*
G02X0000081392Y0000383064I0000000849J0000000849D01*
G03X0000081854Y0000383750I-0000001392J0000001436D01*
G01X0000082006Y0000384125D01*
X0000084292Y0000384125D01*
X0000085092Y0000383325D01*
X0000086908Y0000383325D01*
X0000087708Y0000384125D01*
X0000088858Y0000384125D01*
X0000089423Y0000384690D01*
X0000090555Y0000384690D01*
X0000091479Y0000385615D01*
G03X0000091838Y0000386481I-0000000866J0000000866D01*
G01X0000091838Y0000387105D01*
X0000097008Y0000392275D01*
X0000118154Y0000392275D01*
X0000126475Y0000383954D01*
X0000126475Y0000372593D01*
G02X0000124426Y0000371745I-0000001200J0D01*
G01X0000123296Y0000372875D01*
X0000121506Y0000372875D01*
X0000121354Y0000373250D01*
G03X0000118516Y0000374241I-0000001854J-0000000750D01*
G02X0000116725Y0000375286I-0000000591J0000001045D01*
G01X0000116725Y0000376897D01*
G02X0000118328Y0000378027I0000001200J0D01*
G03X0000120634Y0000381065I0000000672J0000001884D01*
G02X0000120634Y0000381757I0000000490J0000000346D01*
G03X0000117146Y0000383661I-0000001634J0000001154D01*
G01X0000116994Y0000383286D01*
X0000115054Y0000383286D01*
X0000112975Y0000381208D01*
X0000112975Y0000378593D01*
G02X0000110926Y0000377745I-0000001200J0D01*
G01X0000110296Y0000378375D01*
X0000109506Y0000378375D01*
X0000109354Y0000378750D01*
G03X0000105866Y0000376846I-0000001854J-0000000750D01*
G02X0000105866Y0000376154I-0000000490J-0000000346D01*
G03X0000107359Y0000373005I0000001634J-0000001154D01*
G02X0000108475Y0000371808I-0000000084J-0000001197D01*
G01X0000108475Y0000358954D01*
X0000108500Y0000358929D01*
X0000108500Y0000356000D01*
X0000107500Y0000355000D01*
X0000107500Y0000353565D01*
X0000107473Y0000353477D01*
G03X0000107473Y0000352523I0000001527J-0000000477D01*
G01X0000107500Y0000352435D01*
X0000107500Y0000348565D01*
X0000107473Y0000348477D01*
G03X0000107473Y0000347523I0000001527J-0000000477D01*
G01X0000107500Y0000347435D01*
X0000107500Y0000343500D01*
X0000106000Y0000342000D01*
X0000106000Y0000323500D01*
X0000110775Y0000318725D01*
X0000110775Y0000312654D01*
X0000193475Y0000229954D01*
X0000193475Y0000227787D01*
G02X0000192157Y0000226593I-0000001200J0D01*
G03X0000190857Y0000226120I-0000000157J-0000001592D01*
G02X0000189143Y0000226120I-0000000857J0000000840D01*
G37*
G36*
G01X0000249046Y0000153025D02*
X0000228000Y0000174071D01*
X0000228000Y0000180500D01*
X0000201525Y0000206975D01*
X0000201525Y0000234208D01*
X0000119525Y0000316208D01*
X0000119525Y0000361708D01*
X0000116725Y0000364508D01*
X0000116725Y0000366714D01*
G02X0000118516Y0000367759I0000001200J0D01*
G03X0000121251Y0000368533I0000000984J0000001741D01*
G01X0000121292Y0000368607D01*
X0000121776Y0000369091D01*
X0000122775Y0000368092D01*
X0000122775Y0000316154D01*
X0000204475Y0000234454D01*
X0000204475Y0000213292D01*
X0000240792Y0000176975D01*
X0000265656Y0000176975D01*
G02X0000266716Y0000175212I0J-0000001200D01*
G03X0000269544Y0000175212I0000001414J-0000000750D01*
G02X0000270604Y0000176975I0000001060J0000000563D01*
G01X0000272454Y0000176975D01*
X0000285000Y0000164429D01*
X0000285000Y0000153025D01*
X0000270920Y0000153025D01*
G02X0000269724Y0000154327I0J0000001200D01*
G03X0000266536Y0000154327I-0000001594J0000000135D01*
G02X0000265340Y0000153025I-0000001196J-0000000102D01*
G01X0000263420Y0000153025D01*
G02X0000262224Y0000154327I0J0000001200D01*
G03X0000259036Y0000154327I-0000001594J0000000135D01*
G02X0000257840Y0000153025I-0000001196J-0000000102D01*
G01X0000255920Y0000153025D01*
G02X0000254724Y0000154327I0J0000001200D01*
G03X0000251536Y0000154327I-0000001594J0000000135D01*
G02X0000250340Y0000153025I-0000001196J-0000000102D01*
G01X0000249046Y0000153025D01*
G37*
G36*
G01X0000203000Y0000019000D02*
X0000202500Y0000019500D01*
X0000202500Y0000028500D01*
X0000203000Y0000029000D01*
X0000213500Y0000029000D01*
X0000222000Y0000037500D01*
X0000222000Y0000097500D01*
X0000244500Y0000120000D01*
X0000334500Y0000120000D01*
X0000335130Y0000119370D01*
X0000335130Y0000108000D01*
X0000334630Y0000107500D01*
X0000264500Y0000107500D01*
X0000240500Y0000083500D01*
X0000237500Y0000083500D01*
X0000236000Y0000082000D01*
X0000236000Y0000056265D01*
X0000235983Y0000056227D01*
G03X0000235830Y0000055500I0000001647J-0000000727D01*
G01X0000235830Y0000045124D01*
X0000236000Y0000044954D01*
X0000236000Y0000021500D01*
X0000235000Y0000020500D01*
X0000233688Y0000020500D01*
X0000233656Y0000020511D01*
G03X0000232604Y0000020511I-0000000526J-0000001511D01*
G01X0000232572Y0000020500D01*
X0000228188Y0000020500D01*
X0000228156Y0000020511D01*
G03X0000227104Y0000020511I-0000000526J-0000001511D01*
G01X0000227072Y0000020500D01*
X0000225000Y0000020500D01*
X0000223500Y0000019000D01*
X0000203000Y0000019000D01*
G37*
G36*
G01X0000331630Y0000129000D02*
X0000331630Y0000122000D01*
X0000331130Y0000121500D01*
X0000242130Y0000121500D01*
X0000219500Y0000098870D01*
X0000219500Y0000046000D01*
X0000218500Y0000045000D01*
X0000204500Y0000045000D01*
X0000204000Y0000045500D01*
X0000204000Y0000104370D01*
X0000229130Y0000129500D01*
X0000331130Y0000129500D01*
X0000331630Y0000129000D01*
G37*
G36*
G01X0000320775Y0000152225D02*
X0000319000Y0000154000D01*
X0000319000Y0000159000D01*
X0000316500Y0000161500D01*
X0000316230Y0000161500D01*
X0000316005Y0000161725D01*
X0000312563Y0000161725D01*
X0000312337Y0000161500D01*
X0000309130Y0000161500D01*
X0000308905Y0000161725D01*
X0000305463Y0000161725D01*
X0000305237Y0000161500D01*
X0000293233Y0000161500D01*
X0000275306Y0000179426D01*
G02X0000276155Y0000181475I0000000849J0000000849D01*
G01X0000277954Y0000181475D01*
X0000295154Y0000164275D01*
X0000327338Y0000164275D01*
G02X0000328479Y0000162702I0J-0000001200D01*
G03X0000328417Y0000161973I0000001521J-0000000497D01*
G02X0000327187Y0000160599I-0000001187J-0000000174D01*
G03X0000328713Y0000159233I-0000000057J-0000001599D01*
G02X0000329943Y0000160606I0000001187J0000000174D01*
G03X0000331091Y0000161035I0000000057J0000001599D01*
G02X0000331909Y0000161035I0000000409J-0000000439D01*
G03X0000334531Y0000161740I0000001091J0000001171D01*
G02X0000336528Y0000162240I0000001148J-0000000349D01*
G01X0000338381Y0000160386D01*
G02X0000338458Y0000158774I-0000000849J-0000000849D01*
G03X0000338578Y0000156094I0000001542J-0000001274D01*
G02X0000338578Y0000154406I-0000000853J-0000000844D01*
G03X0000338018Y0000153266I0000001422J-0000001406D01*
G02X0000336828Y0000152225I-0000001189J0000000159D01*
G01X0000336438Y0000152225D01*
X0000335946Y0000152716D01*
G03X0000335080Y0000153075I-0000000866J-0000000866D01*
G01X0000333672Y0000153075D01*
X0000332822Y0000152225D01*
X0000330938Y0000152225D01*
X0000330088Y0000153075D01*
X0000328172Y0000153075D01*
X0000327322Y0000152225D01*
X0000320775Y0000152225D01*
G37*
%LPC*%
G75*
G36*
G01X0000016529Y0000325010D02*
X0000020663Y0000325010D01*
G02X0000020663Y0000317904I0J-0000003553D01*
G01X0000016529Y0000317904D01*
G02X0000016529Y0000325010I0J0000003553D01*
G37*
G36*
G01X0000020004Y0000287445D02*
X0000022366Y0000287445D01*
G02X0000022366Y0000281914I0J-0000002765D01*
G01X0000020004Y0000281914D01*
G02X0000020004Y0000287445I0J0000002766D01*
G37*
G36*
G01X0000020004Y0000253429D02*
X0000022366Y0000253429D01*
G02X0000022366Y0000247898I0J-0000002765D01*
G01X0000020004Y0000247898D01*
G02X0000020004Y0000253429I0J0000002766D01*
G37*
G36*
G01X0000178846Y0000198866D02*
G03X0000178154Y0000198866I-0000000346J-0000000490D01*
G02X0000176173Y0000202321I-0000001154J0000001634D01*
G01X0000176525Y0000202481D01*
X0000176525Y0000206192D01*
X0000171992Y0000210725D01*
X0000148492Y0000210725D01*
X0000142325Y0000216892D01*
X0000142325Y0000254872D01*
X0000087825Y0000309372D01*
X0000087825Y0000315093D01*
X0000089942Y0000317210D01*
X0000091318Y0000317210D01*
X0000091478Y0000317561D01*
G02X0000094933Y0000315580I0000001821J-0000000827D01*
G03X0000094933Y0000314888I0000000490J-0000000346D01*
G02X0000094198Y0000311947I-0000001634J-0000001154D01*
G03X0000093888Y0000310027I0000000539J-0000001072D01*
G01X0000094038Y0000309877D01*
X0000094038Y0000308745D01*
X0000094170Y0000308614D01*
X0000095301Y0000308614D01*
X0000096240Y0000307674D01*
G02X0000096608Y0000306889I-0000000902J-0000000902D01*
G03X0000097151Y0000306346I0000000598J0000000055D01*
G02X0000097937Y0000305978I-0000000116J-0000001270D01*
G01X0000098503Y0000305412D01*
G02X0000098876Y0000304510I-0000000902J-0000000902D01*
G01X0000098876Y0000303907D01*
X0000146275Y0000256508D01*
X0000146275Y0000218528D01*
X0000150128Y0000214675D01*
X0000173628Y0000214675D01*
X0000180475Y0000207828D01*
X0000180475Y0000202481D01*
X0000180827Y0000202321D01*
G02X0000178846Y0000198866I-0000000827J-0000001821D01*
G37*
G36*
G01X0000064039Y0000176829D02*
G03X0000063221Y0000176829I-0000000409J-0000000439D01*
G02X0000063221Y0000179171I-0000001091J0000001171D01*
G03X0000064039Y0000179171I0000000409J0000000439D01*
G02X0000064039Y0000176829I0000001091J-0000001171D01*
G37*
G36*
G01X0000267698Y0000214340D02*
X0000267580Y0000214181D01*
X0000267580Y0000208178D01*
X0000275234Y0000200524D01*
G03X0000276960Y0000200554I0000000849J0000000848D01*
G02X0000279729Y0000199526I0000001170J-0000001092D01*
G01X0000279752Y0000198950D01*
X0000283308Y0000198950D01*
X0000298580Y0000183678D01*
X0000298580Y0000176500D01*
G02X0000294680Y0000176500I-0000001950J0D01*
G01X0000294680Y0000182062D01*
X0000281692Y0000195050D01*
X0000275192Y0000195050D01*
X0000263680Y0000206562D01*
X0000263680Y0000215808D01*
X0000264751Y0000216879D01*
G02X0000267698Y0000214340I0000001379J-0000001379D01*
G37*
G36*
G01X0000150002Y0000138306D02*
X0000149958Y0000138394D01*
X0000148337Y0000140015D01*
X0000111604Y0000140015D01*
X0000111511Y0000139983D01*
G02X0000111511Y0000143017I-0000000511J0000001517D01*
G01X0000111604Y0000142985D01*
X0000136140Y0000142985D01*
G03X0000137338Y0000144113I0J0000001200D01*
G02X0000140532Y0000144113I0000001597J-0000000096D01*
G03X0000141730Y0000142985I0000001198J0000000072D01*
G01X0000149567Y0000142985D01*
X0000152058Y0000140494D01*
X0000152146Y0000140450D01*
G02X0000150002Y0000138306I-0000000711J-0000001433D01*
G37*
G36*
G01X0000125671Y0000024409D02*
G03X0000125671Y0000023591I0000000439J-0000000409D01*
G02X0000123329Y0000023591I-0000001171J-0000001091D01*
G03X0000123329Y0000024409I-0000000439J0000000409D01*
G02X0000125671Y0000024409I0000001171J0000001091D01*
G37*
G36*
G01X0000119273Y0000054380D02*
G02X0000117010Y0000056643I-0000001143J0000001120D01*
G03X0000117010Y0000058357I-0000000840J0000000857D01*
G02X0000119273Y0000060620I0000001120J0000001143D01*
G03X0000120987Y0000060620I0000000857J0000000840D01*
G02X0000123273Y0000060620I0000001143J-0000001120D01*
G03X0000124987Y0000060620I0000000857J0000000840D01*
G02X0000127250Y0000058357I0000001143J-0000001120D01*
G03X0000127250Y0000056643I0000000840J-0000000857D01*
G02X0000124987Y0000054380I-0000001120J-0000001143D01*
G03X0000123273Y0000054380I-0000000857J-0000000840D01*
G02X0000120987Y0000054380I-0000001143J0000001120D01*
G03X0000119273Y0000054380I-0000000857J-0000000840D01*
G37*
G36*
G01X0000162794Y0000179485D02*
X0000163115Y0000179485D01*
X0000165623Y0000176977D01*
X0000165711Y0000176933D01*
G02X0000165734Y0000174078I-0000000711J-0000001433D01*
G03X0000165437Y0000172164I0000000551J-0000001066D01*
G01X0000165623Y0000171977D01*
X0000165711Y0000171933D01*
G02X0000163567Y0000169789I-0000000711J-0000001433D01*
G01X0000163523Y0000169877D01*
X0000161385Y0000172015D01*
X0000157385Y0000172015D01*
X0000155885Y0000173515D01*
X0000131115Y0000173515D01*
X0000062485Y0000104885D01*
X0000062485Y0000083885D01*
X0000057115Y0000078515D01*
X0000055604Y0000078515D01*
X0000055511Y0000078483D01*
G02X0000053578Y0000079266I-0000000511J0000001517D01*
G03X0000051664Y0000079563I-0000001066J-0000000551D01*
G01X0000051477Y0000079377D01*
X0000051433Y0000079289D01*
G02X0000049289Y0000081433I-0000001433J0000000711D01*
G01X0000049377Y0000081477D01*
X0000049563Y0000081664D01*
G03X0000049266Y0000083578I-0000000849J0000000848D01*
G02X0000048483Y0000085511I0000000734J0000001422D01*
G01X0000048515Y0000085604D01*
X0000048515Y0000106615D01*
X0000127885Y0000185985D01*
X0000156615Y0000185985D01*
X0000160623Y0000181977D01*
X0000160711Y0000181933D01*
G02X0000161597Y0000180606I-0000000711J-0000001433D01*
G03X0000162794Y0000179485I0000001197J0000000079D01*
G37*
G36*
G01X0000026249Y0000088500D02*
G02X0000023751Y0000088500I-0000001249J-0000001000D01*
G03X0000023751Y0000090000I-0000000937J0000000750D01*
G02X0000026249Y0000090000I0000001249J0000001000D01*
G03X0000026249Y0000088500I0000000937J-0000000750D01*
G37*
G36*
G01X0000150055Y0000101160D02*
G02X0000147815Y0000101160I-0000001120J-0000001143D01*
G03X0000147815Y0000102874I-0000000840J0000000857D01*
G02X0000150055Y0000102874I0000001120J0000001143D01*
G03X0000150055Y0000101160I0000000840J-0000000857D01*
G37*
G36*
G01X0000155055Y0000101160D02*
G02X0000152815Y0000101160I-0000001120J-0000001143D01*
G03X0000152815Y0000102874I-0000000840J0000000857D01*
G02X0000155055Y0000102874I0000001120J0000001143D01*
G03X0000155055Y0000101160I0000000840J-0000000857D01*
G37*
G36*
G01X0000160055Y0000101160D02*
G02X0000157815Y0000101160I-0000001120J-0000001143D01*
G03X0000157815Y0000102874I-0000000840J0000000857D01*
G02X0000160055Y0000102874I0000001120J0000001143D01*
G03X0000160055Y0000101160I0000000840J-0000000857D01*
G37*
G36*
G01X0000051025Y0000180748D02*
G02X0000045024Y0000185903I-0000003388J0000002127D01*
G03X0000045024Y0000187720I-0000000784J0000000909D01*
G02X0000050251Y0000187720I0000002613J0000003028D01*
G03X0000050251Y0000185903I0000000784J-0000000908D01*
G02X0000051268Y0000184553I-0000002613J-0000003028D01*
G03X0000052847Y0000183961I0000001089J0000000504D01*
G02X0000054591Y0000183671I0000000653J-0000001461D01*
G03X0000055409Y0000183671I0000000409J0000000439D01*
G02X0000055409Y0000181329I0000001091J-0000001171D01*
G03X0000054591Y0000181329I-0000000409J-0000000439D01*
G02X0000052667Y0000181134I-0000001091J0000001171D01*
G03X0000051025Y0000180748I-0000000625J-0000001024D01*
G37*
G36*
G01X0000247206Y0000363515D02*
X0000246561Y0000363515D01*
X0000246561Y0000362858D01*
X0000246572Y0000362802D01*
G02X0000243403Y0000362394I-0000001572J-0000000302D01*
G03X0000242206Y0000363515I-0000001197J-0000000079D01*
G01X0000241561Y0000363515D01*
X0000241561Y0000362858D01*
X0000241572Y0000362802D01*
G02X0000238403Y0000362394I-0000001572J-0000000302D01*
G03X0000237206Y0000363515I-0000001197J-0000000079D01*
G01X0000227794Y0000363515D01*
G03X0000226597Y0000362394I0J-0000001200D01*
G02X0000223403Y0000362394I-0000001597J0000000106D01*
G03X0000222206Y0000363515I-0000001197J-0000000079D01*
G01X0000221885Y0000363515D01*
X0000219515Y0000365885D01*
X0000219515Y0000368487D01*
X0000216877Y0000371125D01*
X0000216789Y0000371169D01*
G02X0000218933Y0000373314I0000000711J0000001433D01*
G01X0000218977Y0000373226D01*
X0000222485Y0000369718D01*
X0000222485Y0000367984D01*
X0000223435Y0000367984D01*
X0000223607Y0000368288D01*
G02X0000226597Y0000367606I0000001393J-0000000788D01*
G03X0000227794Y0000366485I0000001197J0000000079D01*
G01X0000231017Y0000366485D01*
G03X0000231866Y0000368534I0J0000001200D01*
G01X0000229377Y0000371023D01*
X0000229289Y0000371067D01*
G02X0000228578Y0000371766I0000000711J0000001433D01*
G03X0000226664Y0000372063I-0000001066J-0000000551D01*
G01X0000226477Y0000371877D01*
X0000226433Y0000371789D01*
G02X0000224289Y0000373933I-0000001433J0000000711D01*
G01X0000224377Y0000373977D01*
X0000224563Y0000374164D01*
G03X0000224266Y0000376078I-0000000849J0000000848D01*
G02X0000226572Y0000377198I0000000734J0000001422D01*
G01X0000226561Y0000377142D01*
X0000226561Y0000376485D01*
X0000227206Y0000376485D01*
G03X0000228403Y0000377606I0J0000001200D01*
G02X0000231528Y0000377026I0000001597J-0000000106D01*
G01X0000231421Y0000376680D01*
X0000236115Y0000371985D01*
X0000252115Y0000371985D01*
X0000261512Y0000362588D01*
G03X0000263492Y0000363035I0000000849J0000000849D01*
G02X0000265535Y0000360992I0000001508J-0000000535D01*
G03X0000265088Y0000359012I0000000401J-0000001131D01*
G01X0000266485Y0000357615D01*
X0000266485Y0000353104D01*
X0000266517Y0000353011D01*
G02X0000265734Y0000351078I-0000001517J-0000000511D01*
G03X0000265437Y0000349164I0000000551J-0000001066D01*
G01X0000265623Y0000348977D01*
X0000265711Y0000348933D01*
G02X0000263567Y0000346789I-0000000711J-0000001433D01*
G01X0000263523Y0000346877D01*
X0000260015Y0000350385D01*
X0000260015Y0000352016D01*
X0000259065Y0000352016D01*
X0000258893Y0000351712D01*
G02X0000255983Y0000353011I-0000001393J0000000788D01*
G01X0000256015Y0000353104D01*
X0000256015Y0000357885D01*
X0000252674Y0000361225D01*
G03X0000251043Y0000361287I-0000000849J-0000000849D01*
G02X0000248403Y0000362394I-0000001043J0000001213D01*
G03X0000247206Y0000363515I-0000001197J-0000000079D01*
G37*
G36*
G01X0000296015Y0000365939D02*
X0000295358Y0000365939D01*
X0000295302Y0000365928D01*
G02X0000294894Y0000369097I-0000000302J0000001572D01*
G03X0000296015Y0000370294I-0000000079J0000001197D01*
G01X0000296015Y0000395385D01*
X0000287885Y0000403515D01*
X0000280294Y0000403515D01*
G03X0000279097Y0000402394I0J-0000001200D01*
G02X0000275903Y0000402394I-0000001597J0000000106D01*
G03X0000274706Y0000403515I-0000001197J-0000000079D01*
G01X0000274061Y0000403515D01*
X0000274061Y0000402858D01*
X0000274072Y0000402802D01*
G02X0000270903Y0000402394I-0000001572J-0000000302D01*
G03X0000269706Y0000403515I-0000001197J-0000000079D01*
G01X0000264385Y0000403515D01*
X0000261877Y0000406023D01*
X0000261789Y0000406067D01*
G02X0000263933Y0000408211I0000000711J0000001433D01*
G01X0000263977Y0000408123D01*
X0000265615Y0000406485D01*
X0000269706Y0000406485D01*
G03X0000270903Y0000407606I0J0000001200D01*
G02X0000274097Y0000407606I0000001597J-0000000106D01*
G03X0000275294Y0000406485I0000001197J0000000079D01*
G01X0000289148Y0000406485D01*
G03X0000291015Y0000407483I0000000667J0000000997D01*
G01X0000291015Y0000429396D01*
X0000290983Y0000429489D01*
G02X0000293922Y0000430735I0000001517J0000000511D01*
G03X0000295836Y0000430437I0000001066J0000000551D01*
G01X0000296023Y0000430623D01*
X0000296067Y0000430711D01*
G02X0000298211Y0000428567I0000001433J-0000000711D01*
G01X0000298123Y0000428523D01*
X0000295985Y0000426385D01*
X0000295985Y0000424680D01*
G03X0000297106Y0000423482I0000001200J0D01*
G02X0000297106Y0000420289I-0000000106J-0000001597D01*
G03X0000295985Y0000419092I0000000079J-0000001197D01*
G01X0000295985Y0000408115D01*
X0000303485Y0000400615D01*
X0000303485Y0000344385D01*
X0000292615Y0000333515D01*
X0000260294Y0000333515D01*
G03X0000259097Y0000332394I0J-0000001200D01*
G02X0000258211Y0000331067I-0000001597J0000000106D01*
G01X0000258123Y0000331023D01*
X0000245615Y0000318515D01*
X0000225385Y0000318515D01*
X0000220885Y0000323015D01*
X0000215534Y0000323015D01*
G03X0000215110Y0000321990I0J-0000000600D01*
G01X0000215615Y0000321485D01*
X0000219615Y0000321485D01*
X0000237115Y0000303985D01*
X0000313094Y0000303985D01*
X0000315613Y0000301466D01*
X0000315701Y0000301423D01*
G02X0000313556Y0000299278I-0000000711J-0000001433D01*
G01X0000313512Y0000299366D01*
X0000313329Y0000299549D01*
G03X0000311418Y0000299258I-0000000849J-0000000849D01*
G02X0000309489Y0000298483I-0000001418J0000000742D01*
G01X0000309396Y0000298515D01*
X0000235385Y0000298515D01*
X0000220385Y0000313515D01*
X0000217483Y0000313515D01*
G03X0000216634Y0000311466I0J-0000001200D01*
G01X0000231615Y0000296485D01*
X0000309396Y0000296485D01*
X0000309489Y0000296517D01*
G02X0000311000Y0000293751I0000000511J-0000001517D01*
G01X0000311000Y0000291249D01*
G02X0000308567Y0000289289I-0000001000J-0000001249D01*
G01X0000308523Y0000289377D01*
X0000307385Y0000290515D01*
X0000229885Y0000290515D01*
X0000202015Y0000318385D01*
X0000202015Y0000339000D01*
X0000202000Y0000339000D01*
X0000202000Y0000345941D01*
X0000201700Y0000346114D01*
G02X0000201700Y0000348886I0000000800J0000001386D01*
G01X0000202000Y0000349059D01*
X0000202000Y0000350941D01*
X0000201700Y0000351114D01*
G02X0000201789Y0000353933I0000000800J0000001386D01*
G01X0000201877Y0000353977D01*
X0000204885Y0000356985D01*
X0000219115Y0000356985D01*
X0000221485Y0000354615D01*
X0000221485Y0000343115D01*
X0000223615Y0000340985D01*
X0000233615Y0000340985D01*
X0000240623Y0000333977D01*
X0000240711Y0000333933D01*
G02X0000241597Y0000332606I-0000000711J-0000001433D01*
G03X0000242794Y0000331485I0000001197J0000000079D01*
G01X0000243439Y0000331485D01*
X0000243439Y0000332142D01*
X0000243428Y0000332198D01*
G02X0000245511Y0000334017I0000001572J0000000302D01*
G01X0000245604Y0000333985D01*
X0000248885Y0000333985D01*
X0000249251Y0000334352D01*
G03X0000249087Y0000336186I-0000000849J0000000849D01*
G02X0000251314Y0000338413I0000000913J0000001314D01*
G03X0000253148Y0000338249I0000000986J0000000685D01*
G01X0000253650Y0000338750D01*
X0000246385Y0000346015D01*
X0000245604Y0000346015D01*
X0000245511Y0000345983D01*
G02X0000243403Y0000347394I-0000000511J0000001517D01*
G03X0000242206Y0000348515I-0000001197J-0000000079D01*
G01X0000241561Y0000348515D01*
X0000241561Y0000347858D01*
X0000241572Y0000347802D01*
G02X0000238403Y0000347394I-0000001572J-0000000302D01*
G03X0000237206Y0000348515I-0000001197J-0000000079D01*
G01X0000232794Y0000348515D01*
G03X0000231597Y0000347394I0J-0000001200D01*
G02X0000228578Y0000346766I-0000001597J0000000106D01*
G03X0000226664Y0000347063I-0000001066J-0000000551D01*
G01X0000226477Y0000346877D01*
X0000226433Y0000346789D01*
G02X0000224289Y0000348933I-0000001433J0000000711D01*
G01X0000224377Y0000348977D01*
X0000226885Y0000351485D01*
X0000227206Y0000351485D01*
G03X0000228403Y0000352606I0J0000001200D01*
G02X0000231597Y0000352606I0000001597J-0000000106D01*
G03X0000232794Y0000351485I0000001197J0000000079D01*
G01X0000242206Y0000351485D01*
G03X0000243403Y0000352606I0J0000001200D01*
G02X0000246597Y0000352606I0000001597J-0000000106D01*
G03X0000247794Y0000351485I0000001197J0000000079D01*
G01X0000248615Y0000351485D01*
X0000255615Y0000344485D01*
X0000282385Y0000344485D01*
X0000284385Y0000346485D01*
X0000289385Y0000346485D01*
X0000293515Y0000350615D01*
X0000293515Y0000361896D01*
X0000293483Y0000361989D01*
G02X0000294894Y0000364097I0000001517J0000000511D01*
G03X0000296015Y0000365294I-0000000079J0000001197D01*
G01X0000296015Y0000365939D01*
G37*
G54D28*
X0000095548Y0000247007D03*
X0000225469Y0000247007D03*
G54D29*
X0000027500Y0000394500D03*
X0000032500Y0000394500D03*
X0000032500Y0000401114D03*
X0000055000Y0000312500D03*
X0000050000Y0000312500D03*
X0000055000Y0000322500D03*
X0000050000Y0000317500D03*
X0000055000Y0000317500D03*
X0000077500Y0000205000D03*
X0000077500Y0000210000D03*
X0000065000Y0000220000D03*
X0000070000Y0000215000D03*
X0000070000Y0000220000D03*
X0000082614Y0000063886D03*
X0000082500Y0000210000D03*
X0000082500Y0000205000D03*
X0000124500Y0000030000D03*
X0000115000Y0000019000D03*
X0000133500Y0000024500D03*
X0000133500Y0000029000D03*
X0000133435Y0000109017D03*
X0000128935Y0000109017D03*
X0000128935Y0000104017D03*
X0000133500Y0000104000D03*
X0000141000Y0000107500D03*
X0000141073Y0000148509D03*
X0000160565Y0000149017D03*
X0000144565Y0000152017D03*
X0000160000Y0000220500D03*
X0000150000Y0000220000D03*
X0000172630Y0000067000D03*
X0000167130Y0000067000D03*
X0000173935Y0000089017D03*
X0000168935Y0000089017D03*
X0000163935Y0000100017D03*
X0000171435Y0000116517D03*
X0000176435Y0000116517D03*
X0000163935Y0000124017D03*
X0000176435Y0000121517D03*
X0000172886Y0000180114D03*
X0000176500Y0000225000D03*
X0000186435Y0000119017D03*
X0000212500Y0000377500D03*
X0000217500Y0000377500D03*
X0000212500Y0000367500D03*
X0000212500Y0000372500D03*
X0000225000Y0000382500D03*
X0000240000Y0000312500D03*
X0000240000Y0000342500D03*
X0000240000Y0000357500D03*
X0000230000Y0000382500D03*
X0000250000Y0000029000D03*
X0000245630Y0000191962D03*
X0000250000Y0000317500D03*
X0000245000Y0000337500D03*
X0000250000Y0000357500D03*
X0000245000Y0000357500D03*
X0000260000Y0000390000D03*
X0000252500Y0000390000D03*
X0000270000Y0000362500D03*
X0000275000Y0000362500D03*
X0000265000Y0000367500D03*
X0000270000Y0000367500D03*
X0000275000Y0000367500D03*
X0000272500Y0000412500D03*
X0000278630Y0000045500D03*
X0000292744Y0000045500D03*
X0000278130Y0000204462D03*
X0000290000Y0000220000D03*
X0000290000Y0000225000D03*
X0000290000Y0000245000D03*
X0000290000Y0000250000D03*
X0000290000Y0000255000D03*
X0000290000Y0000260000D03*
X0000277500Y0000322500D03*
X0000277500Y0000315000D03*
X0000277500Y0000330000D03*
X0000277500Y0000412500D03*
X0000310000Y0000262500D03*
X0000305500Y0000262500D03*
X0000310000Y0000342500D03*
X0000307500Y0000430000D03*
X0000305000Y0000417500D03*
X0000310000Y0000417500D03*
X0000300500Y0000417500D03*
X0000317500Y0000220000D03*
X0000322500Y0000220000D03*
X0000317500Y0000215000D03*
X0000322500Y0000215000D03*
X0000315000Y0000295000D03*
X0000315000Y0000290000D03*
X0000055000Y0000055000D03*
X0000062000Y0000063500D03*
X0000066000Y0000062500D03*
X0000062500Y0000050000D03*
X0000079386Y0000070886D03*
X0000233630Y0000175462D03*
X0000240630Y0000169462D03*
X0000253130Y0000164462D03*
X0000253130Y0000169462D03*
X0000273130Y0000159462D03*
X0000268130Y0000159462D03*
X0000260630Y0000159462D03*
X0000268130Y0000169462D03*
X0000225000Y0000092500D03*
X0000225000Y0000087500D03*
X0000227630Y0000023000D03*
X0000233130Y0000023000D03*
X0000227630Y0000029500D03*
X0000233130Y0000029500D03*
X0000233630Y0000036000D03*
X0000227630Y0000036000D03*
X0000227630Y0000042000D03*
X0000233130Y0000045500D03*
X0000227630Y0000047500D03*
X0000232687Y0000050557D03*
X0000232687Y0000055557D03*
X0000227630Y0000052000D03*
X0000230000Y0000087500D03*
X0000235000Y0000087500D03*
X0000240000Y0000087500D03*
X0000240000Y0000092500D03*
X0000235000Y0000092500D03*
X0000230000Y0000092500D03*
X0000265630Y0000116962D03*
X0000211630Y0000060000D03*
X0000216630Y0000060000D03*
X0000216630Y0000055500D03*
X0000211630Y0000055500D03*
X0000221630Y0000118870D03*
X0000280630Y0000126962D03*
G54D31*
X0000047637Y0000200591D03*
G54D30*
X0000047637Y0000173031D03*
G54D26*
X0000017520Y0000401575D03*
G54D27*
X0000017520Y0000381890D03*
%LPD*%
G75*
G36*
G01X0000226115Y0000326485D02*
X0000221615Y0000330985D01*
X0000220282Y0000330985D01*
G02X0000219090Y0000332320I0J0000001200D01*
G03X0000218234Y0000333922I-0000001590J0000000180D01*
G02X0000217937Y0000335836I0000000551J0000001066D01*
G01X0000218123Y0000336023D01*
X0000218211Y0000336067D01*
G03X0000216612Y0000338832I-0000000711J0000001433D01*
G01X0000216203Y0000338559D01*
X0000215431Y0000339331D01*
X0000217041Y0000340940D01*
X0000217327Y0000340909D01*
G03X0000218456Y0000341217I0000000173J0000001591D01*
G01X0000218872Y0000341527D01*
X0000222385Y0000338015D01*
X0000223379Y0000338015D01*
X0000223401Y0000337438D01*
G03X0000225173Y0000335909I0000001599J0000000062D01*
G01X0000225459Y0000335940D01*
X0000228440Y0000332959D01*
X0000228409Y0000332673D01*
G03X0000231314Y0000331587I0000001591J-0000000173D01*
G02X0000233148Y0000331751I0000000986J-0000000685D01*
G01X0000236385Y0000328515D01*
X0000237206Y0000328515D01*
G02X0000238403Y0000327394I0J-0000001200D01*
G03X0000238428Y0000327198I0000001597J0000000106D01*
G01X0000238439Y0000327142D01*
X0000238439Y0000326485D01*
X0000226115Y0000326485D01*
G37*
G54D10*
X0000015748Y0000015748D03*
X0000015748Y0000437008D03*
X0000338619Y0000015748D03*
X0000338619Y0000437008D03*
G54D20*
G01X0000180000Y0000200500D02*
X0000179200Y0000201300D01*
X0000179200Y0000207300D01*
X0000173100Y0000213400D01*
X0000149600Y0000213400D01*
X0000145000Y0000218000D01*
X0000145000Y0000255980D01*
X0000097601Y0000303379D01*
X0000097601Y0000304510D01*
X0000097036Y0000305076D01*
X0000095904Y0000305076D01*
X0000095338Y0000305641D01*
X0000095338Y0000306773D01*
X0000094773Y0000307339D01*
X0000093641Y0000307339D01*
X0000092763Y0000308217D01*
X0000092763Y0000309349D01*
X0000092197Y0000309914D01*
X0000091066Y0000309914D01*
X0000090500Y0000310480D01*
X0000090500Y0000313984D01*
X0000091050Y0000314534D01*
X0000092500Y0000314534D01*
X0000093300Y0000313734D01*
G01X0000177000Y0000200500D02*
X0000177800Y0000201300D01*
X0000177800Y0000206720D01*
X0000172520Y0000212000D01*
X0000149020Y0000212000D01*
X0000143600Y0000217420D01*
X0000143600Y0000255400D01*
X0000089100Y0000309900D01*
X0000089100Y0000314564D01*
X0000090470Y0000315934D01*
X0000092500Y0000315934D01*
X0000093300Y0000316734D01*
G54D11*
G01X0000238630Y0000081114D02*
X0000238630Y0000067370D01*
X0000241500Y0000064500D01*
X0000260500Y0000064500D01*
X0000270500Y0000074500D01*
X0000299408Y0000074500D01*
G01X0000285630Y0000037500D02*
X0000287500Y0000039370D01*
X0000287500Y0000047500D01*
X0000303408Y0000063408D01*
X0000303408Y0000074500D01*
G01X0000299408Y0000074500D02*
X0000303408Y0000074500D01*
X0000005630Y0000035000D03*
X0000005630Y0000065000D03*
X0000005630Y0000055000D03*
X0000005630Y0000105000D03*
X0000005630Y0000113500D03*
X0000005630Y0000125000D03*
X0000005630Y0000145000D03*
X0000005630Y0000135000D03*
X0000003500Y0000227500D03*
X0000010000Y0000227500D03*
X0000003500Y0000220000D03*
X0000003500Y0000242500D03*
X0000003500Y0000235000D03*
X0000010000Y0000242500D03*
X0000010000Y0000235000D03*
X0000005630Y0000260000D03*
X0000005630Y0000280000D03*
X0000011000Y0000276000D03*
X0000005630Y0000270000D03*
X0000011000Y0000265500D03*
X0000005630Y0000295000D03*
X0000005630Y0000305000D03*
X0000005630Y0000330000D03*
X0000005630Y0000315000D03*
X0000011130Y0000329853D03*
X0000005630Y0000340000D03*
X0000011130Y0000338784D03*
X0000011130Y0000332853D03*
X0000011130Y0000335784D03*
X0000005000Y0000355000D03*
X0000015630Y0000035000D03*
X0000025630Y0000035000D03*
X0000025630Y0000045000D03*
X0000015630Y0000065000D03*
X0000025630Y0000065000D03*
X0000015630Y0000055000D03*
X0000025630Y0000055000D03*
X0000025500Y0000096000D03*
X0000025000Y0000087500D03*
X0000025000Y0000091000D03*
X0000015630Y0000105000D03*
X0000016000Y0000098500D03*
X0000015630Y0000113500D03*
X0000025630Y0000105000D03*
X0000025500Y0000100000D03*
X0000025630Y0000113500D03*
X0000015630Y0000125000D03*
X0000025630Y0000125000D03*
X0000015630Y0000145000D03*
X0000015630Y0000135000D03*
X0000025630Y0000145000D03*
X0000025630Y0000135000D03*
X0000025630Y0000155000D03*
X0000017500Y0000227500D03*
X0000025000Y0000227500D03*
X0000025000Y0000220000D03*
X0000017500Y0000242500D03*
X0000025000Y0000242500D03*
X0000017500Y0000235000D03*
X0000025000Y0000235000D03*
X0000027500Y0000255000D03*
X0000012000Y0000257500D03*
X0000015630Y0000280000D03*
X0000015630Y0000295000D03*
X0000025630Y0000295000D03*
X0000015630Y0000305000D03*
X0000025630Y0000305000D03*
X0000015630Y0000315000D03*
X0000025630Y0000315000D03*
X0000014500Y0000328500D03*
X0000014000Y0000334000D03*
X0000014000Y0000339600D03*
X0000012000Y0000342000D03*
X0000025000Y0000355000D03*
X0000015000Y0000355000D03*
X0000015000Y0000375000D03*
X0000025000Y0000375000D03*
X0000015000Y0000365000D03*
X0000025000Y0000365000D03*
X0000020000Y0000395000D03*
X0000025000Y0000385000D03*
X0000027500Y0000394500D03*
X0000025000Y0000410000D03*
X0000015000Y0000410000D03*
X0000025000Y0000420000D03*
X0000015000Y0000420000D03*
X0000035630Y0000005000D03*
X0000035630Y0000015000D03*
X0000035630Y0000025000D03*
X0000035630Y0000035000D03*
X0000035630Y0000045000D03*
X0000035630Y0000145000D03*
X0000035630Y0000155000D03*
X0000040630Y0000175000D03*
X0000040630Y0000195000D03*
X0000040630Y0000185000D03*
X0000040630Y0000205000D03*
X0000032500Y0000220000D03*
X0000040000Y0000220000D03*
X0000040000Y0000227500D03*
X0000032500Y0000227500D03*
X0000037500Y0000246500D03*
X0000032500Y0000242500D03*
X0000032500Y0000235000D03*
X0000040000Y0000235000D03*
X0000032500Y0000257500D03*
X0000028000Y0000261000D03*
X0000035500Y0000261000D03*
X0000032500Y0000250000D03*
X0000037130Y0000265000D03*
X0000037130Y0000270000D03*
X0000030000Y0000292500D03*
X0000030000Y0000285000D03*
X0000035630Y0000295000D03*
X0000037500Y0000285000D03*
X0000029500Y0000325500D03*
X0000029500Y0000331000D03*
X0000032307Y0000329578D03*
X0000032307Y0000326578D03*
X0000039000Y0000323000D03*
X0000029500Y0000337500D03*
X0000044500Y0000337500D03*
X0000032300Y0000336205D03*
X0000032300Y0000333205D03*
X0000037500Y0000342000D03*
X0000035000Y0000355000D03*
X0000039500Y0000349500D03*
X0000032614Y0000349500D03*
X0000036000Y0000349500D03*
X0000035000Y0000375000D03*
X0000035000Y0000365000D03*
X0000035000Y0000385000D03*
X0000032500Y0000394500D03*
X0000035000Y0000410000D03*
X0000032500Y0000401114D03*
X0000035000Y0000430000D03*
X0000035000Y0000420000D03*
X0000035000Y0000445000D03*
X0000035000Y0000440000D03*
X0000045630Y0000005000D03*
X0000053130Y0000005000D03*
X0000045630Y0000015000D03*
X0000053130Y0000015000D03*
X0000045630Y0000025000D03*
X0000053130Y0000025000D03*
X0000045630Y0000035000D03*
X0000055000Y0000055000D03*
X0000055000Y0000080000D03*
X0000050000Y0000080000D03*
X0000055000Y0000085000D03*
X0000050000Y0000085000D03*
X0000057000Y0000179500D03*
X0000053500Y0000179500D03*
X0000053500Y0000182500D03*
X0000056500Y0000182500D03*
X0000047500Y0000227500D03*
X0000047500Y0000220000D03*
X0000047500Y0000235000D03*
X0000050000Y0000257500D03*
X0000055000Y0000257500D03*
X0000050000Y0000252500D03*
X0000055000Y0000252500D03*
X0000055500Y0000275000D03*
X0000050500Y0000275000D03*
X0000055500Y0000267500D03*
X0000049500Y0000267500D03*
X0000045000Y0000285000D03*
X0000055000Y0000312500D03*
X0000050000Y0000312500D03*
X0000050000Y0000322500D03*
X0000055000Y0000322500D03*
X0000050000Y0000317500D03*
X0000055000Y0000317500D03*
X0000058500Y0000340000D03*
X0000055000Y0000340000D03*
X0000059000Y0000331500D03*
X0000050969Y0000345469D03*
X0000045000Y0000346000D03*
X0000059500Y0000349000D03*
X0000060500Y0000378000D03*
X0000060500Y0000372500D03*
X0000060500Y0000367000D03*
X0000045000Y0000365000D03*
X0000045000Y0000375000D03*
X0000045000Y0000385000D03*
X0000055000Y0000410000D03*
X0000045000Y0000410000D03*
X0000055000Y0000430000D03*
X0000045000Y0000430000D03*
X0000055000Y0000420000D03*
X0000045000Y0000420000D03*
X0000055000Y0000445000D03*
X0000045000Y0000445000D03*
X0000055000Y0000440000D03*
X0000045000Y0000440000D03*
X0000075630Y0000005000D03*
X0000065630Y0000005000D03*
X0000070630Y0000005000D03*
X0000065500Y0000010000D03*
X0000070500Y0000010000D03*
X0000077500Y0000042500D03*
X0000070000Y0000042500D03*
X0000062000Y0000063500D03*
X0000066000Y0000062500D03*
X0000077500Y0000050000D03*
X0000077500Y0000057500D03*
X0000070000Y0000050000D03*
X0000062500Y0000050000D03*
X0000062130Y0000178000D03*
X0000065130Y0000178000D03*
X0000061750Y0000195880D03*
X0000065000Y0000196000D03*
X0000077500Y0000205000D03*
X0000077500Y0000210000D03*
X0000077500Y0000215000D03*
X0000077500Y0000225000D03*
X0000065000Y0000220000D03*
X0000070000Y0000215000D03*
X0000070000Y0000220000D03*
X0000065000Y0000215000D03*
X0000077500Y0000245000D03*
X0000077500Y0000235000D03*
X0000077500Y0000255000D03*
X0000077500Y0000275000D03*
X0000077500Y0000265000D03*
X0000065000Y0000292500D03*
X0000075000Y0000287500D03*
X0000075000Y0000300000D03*
X0000062500Y0000300000D03*
X0000070000Y0000312500D03*
X0000072500Y0000325000D03*
X0000072500Y0000317500D03*
X0000062500Y0000317500D03*
X0000062500Y0000325000D03*
X0000069500Y0000334500D03*
X0000064500Y0000331500D03*
X0000062500Y0000347000D03*
X0000069000Y0000347000D03*
X0000070500Y0000341000D03*
X0000076500Y0000341000D03*
X0000063860Y0000344500D03*
X0000066860Y0000344500D03*
X0000071860Y0000338000D03*
X0000074860Y0000338000D03*
X0000074000Y0000350000D03*
X0000071500Y0000360500D03*
X0000077000Y0000351500D03*
X0000077000Y0000354500D03*
X0000075000Y0000362226D03*
X0000065500Y0000378000D03*
X0000065500Y0000372500D03*
X0000071000Y0000372500D03*
X0000071500Y0000367000D03*
X0000065500Y0000367000D03*
X0000075000Y0000365226D03*
X0000075000Y0000410000D03*
X0000065000Y0000410000D03*
X0000075000Y0000430000D03*
X0000065000Y0000430000D03*
X0000075000Y0000420000D03*
X0000065000Y0000420000D03*
X0000075000Y0000445000D03*
X0000065000Y0000445000D03*
X0000075000Y0000440000D03*
X0000065000Y0000440000D03*
X0000078500Y0000027500D03*
X0000082000Y0000030500D03*
X0000085000Y0000042500D03*
X0000092500Y0000042500D03*
X0000092500Y0000050000D03*
X0000085000Y0000050000D03*
X0000082614Y0000063886D03*
X0000092500Y0000070000D03*
X0000079386Y0000070886D03*
X0000092500Y0000092500D03*
X0000087500Y0000125000D03*
X0000087500Y0000150000D03*
X0000087500Y0000162500D03*
X0000087500Y0000175000D03*
X0000087500Y0000200000D03*
X0000087500Y0000212500D03*
X0000082500Y0000210000D03*
X0000082500Y0000205000D03*
X0000087500Y0000225000D03*
X0000087500Y0000262500D03*
X0000087500Y0000275000D03*
X0000085000Y0000295000D03*
X0000087500Y0000287500D03*
X0000090000Y0000305000D03*
X0000093300Y0000313734D03*
X0000080000Y0000317500D03*
X0000080000Y0000325000D03*
X0000084500Y0000322209D03*
X0000082500Y0000331000D03*
X0000091000Y0000325000D03*
X0000091000Y0000319000D03*
X0000093300Y0000316734D03*
X0000091500Y0000347000D03*
X0000082500Y0000340500D03*
X0000082500Y0000337000D03*
X0000080000Y0000335520D03*
X0000080000Y0000332520D03*
X0000080000Y0000341968D03*
X0000080000Y0000344968D03*
X0000079500Y0000356000D03*
X0000091500Y0000360004D03*
X0000091500Y0000350555D03*
X0000091500Y0000355280D03*
X0000092500Y0000378000D03*
X0000092500Y0000375000D03*
X0000091500Y0000368500D03*
X0000091272Y0000364728D03*
X0000080000Y0000387500D03*
X0000080000Y0000384500D03*
X0000083000Y0000389000D03*
X0000083000Y0000383000D03*
X0000087500Y0000404500D03*
X0000087500Y0000411000D03*
X0000085000Y0000420000D03*
X0000100500Y0000015000D03*
X0000097000Y0000017500D03*
X0000107500Y0000042500D03*
X0000100000Y0000042500D03*
X0000100000Y0000062500D03*
X0000100000Y0000075000D03*
X0000100000Y0000082500D03*
X0000107500Y0000087500D03*
X0000107500Y0000107500D03*
X0000100000Y0000100000D03*
X0000100000Y0000137500D03*
X0000100000Y0000162500D03*
X0000100000Y0000175000D03*
X0000100000Y0000187500D03*
X0000100000Y0000200000D03*
X0000100000Y0000212500D03*
X0000100000Y0000225000D03*
X0000100000Y0000262500D03*
X0000100000Y0000275000D03*
X0000098500Y0000283000D03*
X0000110000Y0000297500D03*
X0000100000Y0000295000D03*
X0000105000Y0000290000D03*
X0000110000Y0000285000D03*
X0000107500Y0000312500D03*
X0000105000Y0000302500D03*
X0000100000Y0000307500D03*
X0000095000Y0000300000D03*
X0000107500Y0000320000D03*
X0000096000Y0000330500D03*
X0000096000Y0000325000D03*
X0000096000Y0000321000D03*
X0000102984Y0000317484D03*
X0000096000Y0000343000D03*
X0000096000Y0000334500D03*
X0000095000Y0000340244D03*
X0000095000Y0000337244D03*
X0000104000Y0000353000D03*
X0000103996Y0000360004D03*
X0000104000Y0000356000D03*
X0000109000Y0000353000D03*
X0000104000Y0000348000D03*
X0000109000Y0000348000D03*
X0000107500Y0000375000D03*
X0000107500Y0000378000D03*
X0000105000Y0000373500D03*
X0000104402Y0000378902D03*
X0000104272Y0000364728D03*
X0000104500Y0000368000D03*
X0000104500Y0000384500D03*
X0000108000Y0000384500D03*
X0000108000Y0000388000D03*
X0000095500Y0000388350D03*
X0000095626Y0000383626D03*
X0000104500Y0000387500D03*
X0000100000Y0000411000D03*
X0000100000Y0000404500D03*
X0000105000Y0000420000D03*
X0000095000Y0000420000D03*
X0000124500Y0000013500D03*
X0000124500Y0000030000D03*
X0000124500Y0000022500D03*
X0000124500Y0000025500D03*
X0000115000Y0000019000D03*
X0000115000Y0000042500D03*
X0000112500Y0000050000D03*
X0000112500Y0000062500D03*
X0000126130Y0000055500D03*
X0000126130Y0000059500D03*
X0000122130Y0000055500D03*
X0000122130Y0000059500D03*
X0000118130Y0000055500D03*
X0000118130Y0000059500D03*
X0000112500Y0000075000D03*
X0000126000Y0000094517D03*
X0000126435Y0000126517D03*
X0000111000Y0000141500D03*
X0000115000Y0000292500D03*
X0000117500Y0000302500D03*
X0000112500Y0000307500D03*
X0000121500Y0000355500D03*
X0000121500Y0000361500D03*
X0000119000Y0000379911D03*
X0000119500Y0000369500D03*
X0000111500Y0000378500D03*
X0000118000Y0000367000D03*
X0000118000Y0000375000D03*
X0000122000Y0000378647D03*
X0000119500Y0000372500D03*
X0000119000Y0000382911D03*
X0000122000Y0000384147D03*
X0000115000Y0000411000D03*
X0000115000Y0000404500D03*
X0000125000Y0000420000D03*
X0000115000Y0000420000D03*
X0000125000Y0000430000D03*
X0000115000Y0000430000D03*
X0000125000Y0000440000D03*
X0000115000Y0000440000D03*
X0000140130Y0000014500D03*
X0000134000Y0000014000D03*
X0000133500Y0000024500D03*
X0000133500Y0000029000D03*
X0000135000Y0000019500D03*
X0000140000Y0000019500D03*
X0000142500Y0000027500D03*
X0000128000Y0000019000D03*
X0000130614Y0000016500D03*
X0000136435Y0000081517D03*
X0000135935Y0000089017D03*
X0000141435Y0000094017D03*
X0000135935Y0000094017D03*
X0000133435Y0000109017D03*
X0000128935Y0000109017D03*
X0000128935Y0000104017D03*
X0000133500Y0000104000D03*
X0000141000Y0000107500D03*
X0000131435Y0000126517D03*
X0000136435Y0000126517D03*
X0000141435Y0000126517D03*
X0000138935Y0000144017D03*
X0000141741Y0000162759D03*
X0000141073Y0000148509D03*
X0000140000Y0000202500D03*
X0000140000Y0000212500D03*
X0000140000Y0000225000D03*
X0000140000Y0000237500D03*
X0000140000Y0000252500D03*
X0000137500Y0000317500D03*
X0000135500Y0000321500D03*
X0000136000Y0000327500D03*
X0000142500Y0000327000D03*
X0000132500Y0000323071D03*
X0000140000Y0000328860D03*
X0000132500Y0000326071D03*
X0000142500Y0000333500D03*
X0000136000Y0000333500D03*
X0000135500Y0000339500D03*
X0000143500Y0000340000D03*
X0000143500Y0000346000D03*
X0000136000Y0000346000D03*
X0000132500Y0000334860D03*
X0000140000Y0000341360D03*
X0000132500Y0000347360D03*
X0000140000Y0000331860D03*
X0000132500Y0000337860D03*
X0000140000Y0000344360D03*
X0000142500Y0000354000D03*
X0000142000Y0000362500D03*
X0000135500Y0000359000D03*
X0000136000Y0000352000D03*
X0000132500Y0000350360D03*
X0000141500Y0000372500D03*
X0000135500Y0000376000D03*
X0000136000Y0000367500D03*
X0000129500Y0000411000D03*
X0000129500Y0000404500D03*
X0000135000Y0000420000D03*
X0000135000Y0000430000D03*
X0000135000Y0000440000D03*
X0000145130Y0000014500D03*
X0000154500Y0000015000D03*
X0000147500Y0000030000D03*
X0000155000Y0000022500D03*
X0000144500Y0000024000D03*
X0000149000Y0000019000D03*
X0000160000Y0000072500D03*
X0000157935Y0000087517D03*
X0000152435Y0000087517D03*
X0000145935Y0000088017D03*
X0000145935Y0000092517D03*
X0000158935Y0000104017D03*
X0000153935Y0000104017D03*
X0000148935Y0000104017D03*
X0000148935Y0000109017D03*
X0000148935Y0000100017D03*
X0000158935Y0000100017D03*
X0000153935Y0000100017D03*
X0000146435Y0000126517D03*
X0000146435Y0000139017D03*
X0000151435Y0000139017D03*
X0000150565Y0000149017D03*
X0000154565Y0000149017D03*
X0000160565Y0000149017D03*
X0000144565Y0000152017D03*
X0000144886Y0000180386D03*
X0000160000Y0000170500D03*
X0000160000Y0000175500D03*
X0000155000Y0000180500D03*
X0000160000Y0000180500D03*
X0000152500Y0000230500D03*
X0000157500Y0000230500D03*
X0000150000Y0000225500D03*
X0000160000Y0000220500D03*
X0000150000Y0000220000D03*
X0000155000Y0000240000D03*
X0000157500Y0000262500D03*
X0000155000Y0000250000D03*
X0000150000Y0000270000D03*
X0000147500Y0000411000D03*
X0000147500Y0000404500D03*
X0000155000Y0000420000D03*
X0000145000Y0000420000D03*
X0000145000Y0000430000D03*
X0000145000Y0000440000D03*
X0000162500Y0000022500D03*
X0000172630Y0000067000D03*
X0000165000Y0000072500D03*
X0000170000Y0000072500D03*
X0000175000Y0000072500D03*
X0000167130Y0000067000D03*
X0000173935Y0000089017D03*
X0000168935Y0000089017D03*
X0000162500Y0000087500D03*
X0000163935Y0000100017D03*
X0000171435Y0000116517D03*
X0000176435Y0000116517D03*
X0000163935Y0000116517D03*
X0000163935Y0000124017D03*
X0000176435Y0000121517D03*
X0000165451Y0000146017D03*
X0000176435Y0000161517D03*
X0000170000Y0000165000D03*
X0000165000Y0000165000D03*
X0000172500Y0000175500D03*
X0000172886Y0000180114D03*
X0000165000Y0000170500D03*
X0000165000Y0000175500D03*
X0000177000Y0000200500D03*
X0000167500Y0000230500D03*
X0000171000Y0000225000D03*
X0000162500Y0000230500D03*
X0000176500Y0000225000D03*
X0000175000Y0000245000D03*
X0000170000Y0000235000D03*
X0000165000Y0000240000D03*
X0000165000Y0000255000D03*
X0000175000Y0000282500D03*
X0000167500Y0000290000D03*
X0000167500Y0000345000D03*
X0000167500Y0000355000D03*
X0000175000Y0000355000D03*
X0000167500Y0000375000D03*
X0000167500Y0000365000D03*
X0000175000Y0000365000D03*
X0000175000Y0000375000D03*
X0000167500Y0000385000D03*
X0000175000Y0000385000D03*
X0000162500Y0000411000D03*
X0000162500Y0000404500D03*
X0000175000Y0000420000D03*
X0000165000Y0000420000D03*
X0000182630Y0000035500D03*
X0000186630Y0000035500D03*
X0000191630Y0000035500D03*
X0000189130Y0000039500D03*
X0000192500Y0000065000D03*
X0000182500Y0000065000D03*
X0000187500Y0000065000D03*
X0000182500Y0000060000D03*
X0000187500Y0000060000D03*
X0000192500Y0000060000D03*
X0000192500Y0000055000D03*
X0000192500Y0000072500D03*
X0000187500Y0000072500D03*
X0000182500Y0000072500D03*
X0000186321Y0000131631D03*
X0000186435Y0000119017D03*
X0000180565Y0000143017D03*
X0000185000Y0000155000D03*
X0000185000Y0000160000D03*
X0000190000Y0000155000D03*
X0000190000Y0000160000D03*
X0000181435Y0000156517D03*
X0000180000Y0000170000D03*
X0000185000Y0000170000D03*
X0000190000Y0000175000D03*
X0000190000Y0000170000D03*
X0000185000Y0000175500D03*
X0000177500Y0000197000D03*
X0000181000Y0000197000D03*
X0000180000Y0000200500D03*
X0000182001Y0000225001D03*
X0000188000Y0000225000D03*
X0000192000Y0000225000D03*
X0000187500Y0000232500D03*
X0000182500Y0000237500D03*
X0000190000Y0000267500D03*
X0000182500Y0000275000D03*
X0000185000Y0000320000D03*
X0000185000Y0000330000D03*
X0000185000Y0000365000D03*
X0000185000Y0000375000D03*
X0000185000Y0000385000D03*
X0000192500Y0000411000D03*
X0000192500Y0000404500D03*
X0000177500Y0000411000D03*
X0000177500Y0000404500D03*
X0000185000Y0000420000D03*
X0000204630Y0000024000D03*
X0000204630Y0000020000D03*
X0000208630Y0000024000D03*
X0000208630Y0000020000D03*
X0000206630Y0000031000D03*
X0000201630Y0000031000D03*
X0000196630Y0000031000D03*
X0000196630Y0000035500D03*
X0000201630Y0000035500D03*
X0000206630Y0000035500D03*
X0000206630Y0000040500D03*
X0000197500Y0000065000D03*
X0000197500Y0000060000D03*
X0000197500Y0000055000D03*
X0000197500Y0000072500D03*
X0000195000Y0000110000D03*
X0000205000Y0000110000D03*
X0000205000Y0000120000D03*
X0000210000Y0000155000D03*
X0000210000Y0000160000D03*
X0000195000Y0000170000D03*
X0000195000Y0000175000D03*
X0000210000Y0000170000D03*
X0000195000Y0000262500D03*
X0000195000Y0000325000D03*
X0000195000Y0000315000D03*
X0000195000Y0000335000D03*
X0000207500Y0000347500D03*
X0000202500Y0000347500D03*
X0000202500Y0000352500D03*
X0000207500Y0000352500D03*
X0000195000Y0000375000D03*
X0000210000Y0000411000D03*
X0000210000Y0000404500D03*
X0000205000Y0000420000D03*
X0000195000Y0000420000D03*
X0000212630Y0000024000D03*
X0000212630Y0000020000D03*
X0000211630Y0000031000D03*
X0000211630Y0000047000D03*
X0000216630Y0000047000D03*
X0000211630Y0000040500D03*
X0000211630Y0000035500D03*
X0000211630Y0000051000D03*
X0000216630Y0000051000D03*
X0000211630Y0000060000D03*
X0000216630Y0000060000D03*
X0000216630Y0000055500D03*
X0000211630Y0000055500D03*
X0000225000Y0000092500D03*
X0000225000Y0000087500D03*
X0000215000Y0000120000D03*
X0000215000Y0000130000D03*
X0000221630Y0000118870D03*
X0000223500Y0000139500D03*
X0000213000Y0000139500D03*
X0000221500Y0000133870D03*
X0000220000Y0000160000D03*
X0000220000Y0000155000D03*
X0000215000Y0000160000D03*
X0000215000Y0000155000D03*
X0000215000Y0000195000D03*
X0000220000Y0000190000D03*
X0000225000Y0000185000D03*
X0000212500Y0000200000D03*
X0000220000Y0000220000D03*
X0000220000Y0000230000D03*
X0000215000Y0000260000D03*
X0000215000Y0000290000D03*
X0000225000Y0000290000D03*
X0000224000Y0000306000D03*
X0000217500Y0000312500D03*
X0000217500Y0000327500D03*
X0000217500Y0000322500D03*
X0000217516Y0000317484D03*
X0000212500Y0000327500D03*
X0000225000Y0000347500D03*
X0000217500Y0000337500D03*
X0000225000Y0000342500D03*
X0000225000Y0000332500D03*
X0000212500Y0000337500D03*
X0000217500Y0000332500D03*
X0000225000Y0000337500D03*
X0000212500Y0000332500D03*
X0000217500Y0000342500D03*
X0000212500Y0000347500D03*
X0000212500Y0000342500D03*
X0000217594Y0000347406D03*
X0000217500Y0000352500D03*
X0000217500Y0000362500D03*
X0000225000Y0000357500D03*
X0000225000Y0000352500D03*
X0000225000Y0000362500D03*
X0000212500Y0000352500D03*
X0000212500Y0000377500D03*
X0000217500Y0000377500D03*
X0000225000Y0000377500D03*
X0000217500Y0000367500D03*
X0000212500Y0000367500D03*
X0000225000Y0000367500D03*
X0000225000Y0000372500D03*
X0000212500Y0000372500D03*
X0000217500Y0000372602D03*
X0000225000Y0000382500D03*
X0000225000Y0000387500D03*
X0000225000Y0000420000D03*
X0000215000Y0000420000D03*
X0000235630Y0000006650D03*
X0000235630Y0000003500D03*
X0000231630Y0000003500D03*
X0000231630Y0000006650D03*
X0000228130Y0000003500D03*
X0000228130Y0000006650D03*
X0000241630Y0000007150D03*
X0000241630Y0000004000D03*
X0000227630Y0000019000D03*
X0000227630Y0000023000D03*
X0000233130Y0000023000D03*
X0000233130Y0000019000D03*
X0000227630Y0000029500D03*
X0000233130Y0000029500D03*
X0000238500Y0000036000D03*
X0000233630Y0000036000D03*
X0000227630Y0000036000D03*
X0000227630Y0000042000D03*
X0000233130Y0000045500D03*
X0000227630Y0000047500D03*
X0000232687Y0000050557D03*
X0000232687Y0000055557D03*
X0000227630Y0000052000D03*
X0000237630Y0000050500D03*
X0000237630Y0000055500D03*
X0000238630Y0000081114D03*
X0000230000Y0000087500D03*
X0000235000Y0000087500D03*
X0000240000Y0000087500D03*
X0000240000Y0000092500D03*
X0000235000Y0000092500D03*
X0000230000Y0000092500D03*
X0000240000Y0000139500D03*
X0000230000Y0000180000D03*
X0000233630Y0000170462D03*
X0000233630Y0000175462D03*
X0000240630Y0000169462D03*
X0000240000Y0000210000D03*
X0000230000Y0000210000D03*
X0000240000Y0000230000D03*
X0000240000Y0000220000D03*
X0000230000Y0000220000D03*
X0000230000Y0000230000D03*
X0000240000Y0000240000D03*
X0000240000Y0000260000D03*
X0000232000Y0000297500D03*
X0000240000Y0000312500D03*
X0000227500Y0000302000D03*
X0000230000Y0000312500D03*
X0000240000Y0000327500D03*
X0000230000Y0000327500D03*
X0000240000Y0000322500D03*
X0000230016Y0000317484D03*
X0000230000Y0000322500D03*
X0000230000Y0000342500D03*
X0000230000Y0000337500D03*
X0000240000Y0000332500D03*
X0000230000Y0000347500D03*
X0000240000Y0000342500D03*
X0000230000Y0000332500D03*
X0000240000Y0000347500D03*
X0000230000Y0000352500D03*
X0000240000Y0000357500D03*
X0000240000Y0000362500D03*
X0000230000Y0000362500D03*
X0000230000Y0000357500D03*
X0000240000Y0000352500D03*
X0000230000Y0000377500D03*
X0000230000Y0000367500D03*
X0000230000Y0000372500D03*
X0000230000Y0000382500D03*
X0000242500Y0000445500D03*
X0000258130Y0000007150D03*
X0000258130Y0000004000D03*
X0000254130Y0000007150D03*
X0000254130Y0000004000D03*
X0000245630Y0000007150D03*
X0000249630Y0000007150D03*
X0000245630Y0000004000D03*
X0000249630Y0000004000D03*
X0000250000Y0000029000D03*
X0000248630Y0000044200D03*
X0000251630Y0000044200D03*
X0000248630Y0000047000D03*
X0000251630Y0000047000D03*
X0000258000Y0000074500D03*
X0000250000Y0000139500D03*
X0000253130Y0000154462D03*
X0000253130Y0000164462D03*
X0000253130Y0000174462D03*
X0000253130Y0000169462D03*
X0000245630Y0000186962D03*
X0000245630Y0000191962D03*
X0000250000Y0000317500D03*
X0000245000Y0000327500D03*
X0000245000Y0000347500D03*
X0000257500Y0000332500D03*
X0000245000Y0000332500D03*
X0000245000Y0000337500D03*
X0000250000Y0000337500D03*
X0000250000Y0000362500D03*
X0000250000Y0000357500D03*
X0000245000Y0000357500D03*
X0000245000Y0000352500D03*
X0000245000Y0000362500D03*
X0000257500Y0000352500D03*
X0000260000Y0000390000D03*
X0000260000Y0000385000D03*
X0000252500Y0000390000D03*
X0000245000Y0000435000D03*
X0000250000Y0000445000D03*
X0000266630Y0000004000D03*
X0000266630Y0000007150D03*
X0000270630Y0000007150D03*
X0000270630Y0000004000D03*
X0000277000Y0000004000D03*
X0000274630Y0000012000D03*
X0000262130Y0000007150D03*
X0000262130Y0000004000D03*
X0000274630Y0000015500D03*
X0000265130Y0000017000D03*
X0000269130Y0000017000D03*
X0000269130Y0000021000D03*
X0000269130Y0000025000D03*
X0000265130Y0000025000D03*
X0000269130Y0000028500D03*
X0000266500Y0000047000D03*
X0000272430Y0000064100D03*
X0000269730Y0000061700D03*
X0000272610Y0000057980D03*
X0000273730Y0000061100D03*
X0000266500Y0000054000D03*
X0000266500Y0000050500D03*
X0000265500Y0000074500D03*
X0000262000Y0000071000D03*
X0000275130Y0000070614D03*
X0000265630Y0000116962D03*
X0000275630Y0000139462D03*
X0000263130Y0000139462D03*
X0000273130Y0000154462D03*
X0000273130Y0000159462D03*
X0000260630Y0000154462D03*
X0000268130Y0000159462D03*
X0000268130Y0000154462D03*
X0000260630Y0000159462D03*
X0000276500Y0000180000D03*
X0000273130Y0000171962D03*
X0000268130Y0000169462D03*
X0000268130Y0000174462D03*
X0000275630Y0000189462D03*
X0000263130Y0000191962D03*
X0000263130Y0000199462D03*
X0000265000Y0000230000D03*
X0000275000Y0000230000D03*
X0000275630Y0000216962D03*
X0000270630Y0000216962D03*
X0000266130Y0000215500D03*
X0000275000Y0000240000D03*
X0000265000Y0000240000D03*
X0000265000Y0000250000D03*
X0000275000Y0000250000D03*
X0000275000Y0000260000D03*
X0000265000Y0000260000D03*
X0000265000Y0000347500D03*
X0000270000Y0000362500D03*
X0000265000Y0000362500D03*
X0000275000Y0000352500D03*
X0000265000Y0000352500D03*
X0000275000Y0000362500D03*
X0000270000Y0000380000D03*
X0000265000Y0000375000D03*
X0000265000Y0000380000D03*
X0000265000Y0000367500D03*
X0000270000Y0000367500D03*
X0000275000Y0000367500D03*
X0000265000Y0000390000D03*
X0000265000Y0000385000D03*
X0000270000Y0000390000D03*
X0000270000Y0000385000D03*
X0000262500Y0000407500D03*
X0000272500Y0000407500D03*
X0000272500Y0000402500D03*
X0000272500Y0000412500D03*
X0000263000Y0000430000D03*
X0000268500Y0000425000D03*
X0000269283Y0000429850D03*
X0000275189Y0000425000D03*
X0000272189Y0000425000D03*
X0000266283Y0000429850D03*
X0000276642Y0000439000D03*
X0000270736Y0000439000D03*
X0000264831Y0000439000D03*
X0000286000Y0000005000D03*
X0000290630Y0000005000D03*
X0000290630Y0000015000D03*
X0000282244Y0000012000D03*
X0000279016Y0000012114D03*
X0000285200Y0000031100D03*
X0000285130Y0000026000D03*
X0000284130Y0000045500D03*
X0000278630Y0000045500D03*
X0000292744Y0000045500D03*
X0000285630Y0000037500D03*
X0000285130Y0000062000D03*
X0000285130Y0000056500D03*
X0000287130Y0000070614D03*
X0000280630Y0000126962D03*
X0000291130Y0000176500D03*
X0000278130Y0000194462D03*
X0000283130Y0000199462D03*
X0000287630Y0000199462D03*
X0000278130Y0000199462D03*
X0000278130Y0000204462D03*
X0000290000Y0000220000D03*
X0000290000Y0000225000D03*
X0000290000Y0000245000D03*
X0000290000Y0000240000D03*
X0000290000Y0000235000D03*
X0000290000Y0000250000D03*
X0000290000Y0000255000D03*
X0000290000Y0000260000D03*
X0000290000Y0000312500D03*
X0000277500Y0000322500D03*
X0000277500Y0000315000D03*
X0000277500Y0000330000D03*
X0000287500Y0000332500D03*
X0000287500Y0000340000D03*
X0000282430Y0000357500D03*
X0000290630Y0000357500D03*
X0000286430Y0000357500D03*
X0000282430Y0000353500D03*
X0000282430Y0000349500D03*
X0000290630Y0000353500D03*
X0000290630Y0000349500D03*
X0000286430Y0000349500D03*
X0000286430Y0000353500D03*
X0000285000Y0000367500D03*
X0000277500Y0000402500D03*
X0000277500Y0000412500D03*
X0000285000Y0000430000D03*
X0000278500Y0000425000D03*
X0000292500Y0000430000D03*
X0000278094Y0000429850D03*
X0000281094Y0000429850D03*
X0000285000Y0000445000D03*
X0000288453Y0000439000D03*
X0000282547Y0000439000D03*
X0000295000Y0000009500D03*
X0000300630Y0000005000D03*
X0000300630Y0000015000D03*
X0000300130Y0000031500D03*
X0000296500Y0000020500D03*
X0000296500Y0000026000D03*
X0000296100Y0000031300D03*
X0000296000Y0000037000D03*
X0000308630Y0000044000D03*
X0000307000Y0000063000D03*
X0000308630Y0000054000D03*
X0000308630Y0000049000D03*
X0000303408Y0000074500D03*
X0000299408Y0000074500D03*
X0000307630Y0000092000D03*
X0000305000Y0000172500D03*
X0000296630Y0000176500D03*
X0000305000Y0000192500D03*
X0000305000Y0000182500D03*
X0000307500Y0000230000D03*
X0000307500Y0000225000D03*
X0000307500Y0000240000D03*
X0000310000Y0000262500D03*
X0000307500Y0000255000D03*
X0000307500Y0000250000D03*
X0000305500Y0000262500D03*
X0000310000Y0000290000D03*
X0000310000Y0000295000D03*
X0000310000Y0000300000D03*
X0000310000Y0000342500D03*
X0000295000Y0000332500D03*
X0000310000Y0000347500D03*
X0000295000Y0000362500D03*
X0000310000Y0000362500D03*
X0000310000Y0000357500D03*
X0000310000Y0000352500D03*
X0000295000Y0000367500D03*
X0000304500Y0000397500D03*
X0000304500Y0000392500D03*
X0000305000Y0000412500D03*
X0000310000Y0000412500D03*
X0000310000Y0000402500D03*
X0000304500Y0000402500D03*
X0000307500Y0000430000D03*
X0000305000Y0000417500D03*
X0000297000Y0000421886D03*
X0000297500Y0000430000D03*
X0000310000Y0000417500D03*
X0000300500Y0000417500D03*
X0000305000Y0000445000D03*
X0000295000Y0000445000D03*
X0000300000Y0000440000D03*
X0000295000Y0000440000D03*
X0000320630Y0000005000D03*
X0000320630Y0000015000D03*
X0000310630Y0000005000D03*
X0000310630Y0000015000D03*
X0000310630Y0000025000D03*
X0000319630Y0000044000D03*
X0000325630Y0000044000D03*
X0000310630Y0000035000D03*
X0000314130Y0000044000D03*
X0000319630Y0000049000D03*
X0000325630Y0000049000D03*
X0000320000Y0000056000D03*
X0000325500Y0000057000D03*
X0000314130Y0000049000D03*
X0000314500Y0000056500D03*
X0000325630Y0000095000D03*
X0000315630Y0000095000D03*
X0000312630Y0000092000D03*
X0000316000Y0000085500D03*
X0000325000Y0000085000D03*
X0000321000Y0000090000D03*
X0000318500Y0000102500D03*
X0000322130Y0000119000D03*
X0000326130Y0000119000D03*
X0000322130Y0000128000D03*
X0000326130Y0000128000D03*
X0000321630Y0000142500D03*
X0000320000Y0000155000D03*
X0000313000Y0000172000D03*
X0000312500Y0000192500D03*
X0000312500Y0000182500D03*
X0000317500Y0000220000D03*
X0000322500Y0000220000D03*
X0000317500Y0000215000D03*
X0000322500Y0000215000D03*
X0000315000Y0000295000D03*
X0000315000Y0000290000D03*
X0000326000Y0000289000D03*
X0000314989Y0000299989D03*
X0000318130Y0000309500D03*
X0000318337Y0000313793D03*
X0000326130Y0000303378D03*
X0000321130Y0000312783D03*
X0000326130Y0000306878D03*
X0000321130Y0000309283D03*
X0000318130Y0000325500D03*
X0000318327Y0000319697D03*
X0000312000Y0000326000D03*
X0000325630Y0000330500D03*
X0000325630Y0000318689D03*
X0000321130Y0000321094D03*
X0000325630Y0000315189D03*
X0000321130Y0000324594D03*
X0000325630Y0000327000D03*
X0000318130Y0000331500D03*
X0000317500Y0000392500D03*
X0000315000Y0000412500D03*
X0000315000Y0000407500D03*
X0000315000Y0000402500D03*
X0000325000Y0000445000D03*
X0000335630Y0000035000D03*
X0000340000Y0000042500D03*
X0000341000Y0000064500D03*
X0000335630Y0000050000D03*
X0000331000Y0000055500D03*
X0000338500Y0000055500D03*
X0000340500Y0000072000D03*
X0000341000Y0000078000D03*
X0000335630Y0000095000D03*
X0000335630Y0000085000D03*
X0000329500Y0000090000D03*
X0000327500Y0000105000D03*
X0000335630Y0000105000D03*
X0000340000Y0000111500D03*
X0000330130Y0000119000D03*
X0000333630Y0000119000D03*
X0000330130Y0000128000D03*
X0000342500Y0000122500D03*
X0000343480Y0000141983D03*
X0000339980Y0000147483D03*
X0000339980Y0000141983D03*
X0000343480Y0000147483D03*
X0000339980Y0000136483D03*
X0000331630Y0000142500D03*
X0000331630Y0000136500D03*
X0000343480Y0000136483D03*
X0000330000Y0000162206D03*
X0000333000Y0000162206D03*
X0000327130Y0000159000D03*
X0000343500Y0000153000D03*
X0000340000Y0000157500D03*
X0000332500Y0000159000D03*
X0000332500Y0000154000D03*
X0000340000Y0000153000D03*
X0000342500Y0000166142D03*
X0000340630Y0000175000D03*
X0000330630Y0000175000D03*
X0000330630Y0000185000D03*
X0000340630Y0000185000D03*
X0000330630Y0000195000D03*
X0000340630Y0000195000D03*
X0000330630Y0000205000D03*
X0000340630Y0000205000D03*
X0000330630Y0000215000D03*
X0000340630Y0000215000D03*
X0000340000Y0000222500D03*
X0000333000Y0000241157D03*
X0000340630Y0000245000D03*
X0000340630Y0000235000D03*
X0000340630Y0000260000D03*
X0000330630Y0000260000D03*
X0000330630Y0000250000D03*
X0000340500Y0000266000D03*
X0000328500Y0000286500D03*
X0000331000Y0000289000D03*
X0000329000Y0000296000D03*
X0000329000Y0000302166D03*
X0000328630Y0000313793D03*
X0000329130Y0000308000D03*
X0000328630Y0000325604D03*
X0000328638Y0000319697D03*
X0000328638Y0000331508D03*
X0000345630Y0000035000D03*
X0000348500Y0000043500D03*
X0000348500Y0000065000D03*
X0000345630Y0000050000D03*
X0000345630Y0000060000D03*
X0000351000Y0000060500D03*
X0000348500Y0000078500D03*
X0000350000Y0000090000D03*
X0000345630Y0000095000D03*
X0000345630Y0000085000D03*
X0000350000Y0000100000D03*
X0000345630Y0000105000D03*
X0000349500Y0000111500D03*
X0000345630Y0000115000D03*
X0000350500Y0000125000D03*
X0000349500Y0000122000D03*
X0000351000Y0000142144D03*
X0000351000Y0000137419D03*
X0000344200Y0000161024D03*
X0000351000Y0000162000D03*
X0000343630Y0000157500D03*
X0000351000Y0000155500D03*
X0000351000Y0000149500D03*
X0000351000Y0000158662D03*
X0000350630Y0000175000D03*
X0000350500Y0000166159D03*
X0000350630Y0000185000D03*
X0000350630Y0000195000D03*
X0000350630Y0000205000D03*
X0000350630Y0000215000D03*
X0000350630Y0000225000D03*
X0000350630Y0000245000D03*
X0000350630Y0000235000D03*
X0000350630Y0000260000D03*
X0000350630Y0000280000D03*
X0000350630Y0000270000D03*
X0000350630Y0000290000D03*
X0000350630Y0000310000D03*
X0000350630Y0000300000D03*
X0000350000Y0000315000D03*
X0000350000Y0000325000D03*
X0000350000Y0000340000D03*
X0000350000Y0000350000D03*
X0000350000Y0000360000D03*
X0000350000Y0000370000D03*
X0000350000Y0000400000D03*
X0000350000Y0000410000D03*
X0000350000Y0000420000D03*
G54D21*
G01X0000165000Y0000170500D02*
X0000162000Y0000173500D01*
X0000158000Y0000173500D01*
X0000156500Y0000175000D01*
X0000130500Y0000175000D01*
X0000061000Y0000105500D01*
X0000061000Y0000084500D01*
X0000056500Y0000080000D01*
X0000055000Y0000080000D01*
G01X0000050000Y0000080000D02*
X0000052500Y0000082500D01*
X0000056000Y0000082500D01*
X0000058000Y0000084500D01*
X0000058000Y0000106000D01*
X0000130000Y0000178000D01*
X0000162500Y0000178000D01*
X0000165000Y0000175500D01*
G01X0000055000Y0000085000D02*
X0000055000Y0000107000D01*
X0000130500Y0000182500D01*
X0000153000Y0000182500D01*
X0000155000Y0000180500D01*
G01X0000050000Y0000085000D02*
X0000050000Y0000106000D01*
X0000128500Y0000184500D01*
X0000156000Y0000184500D01*
X0000160000Y0000180500D01*
G01X0000111000Y0000141500D02*
X0000148952Y0000141500D01*
X0000151435Y0000139017D01*
G01X0000310000Y0000300000D02*
X0000236000Y0000300000D01*
X0000221000Y0000315000D01*
X0000215500Y0000315000D01*
X0000208000Y0000322500D01*
X0000208000Y0000336500D01*
X0000211500Y0000340000D01*
X0000214000Y0000340000D01*
X0000215000Y0000341000D01*
X0000215000Y0000350000D01*
X0000217500Y0000352500D01*
G01X0000310000Y0000290000D02*
X0000308000Y0000292000D01*
X0000230500Y0000292000D01*
X0000203500Y0000319000D01*
X0000203500Y0000338500D01*
X0000212500Y0000347500D01*
G01X0000310000Y0000295000D02*
X0000231000Y0000295000D01*
X0000206000Y0000320000D01*
X0000206000Y0000337500D01*
X0000211000Y0000342500D01*
X0000212500Y0000342500D01*
G01X0000240000Y0000332500D02*
X0000233000Y0000339500D01*
X0000223000Y0000339500D01*
X0000220000Y0000342500D01*
X0000220000Y0000354000D01*
X0000218500Y0000355500D01*
X0000205500Y0000355500D01*
X0000202500Y0000352500D01*
G01X0000314989Y0000299989D02*
X0000312479Y0000302500D01*
X0000236500Y0000302500D01*
X0000219000Y0000320000D01*
X0000215000Y0000320000D01*
X0000210000Y0000325000D01*
X0000210000Y0000334000D01*
X0000211000Y0000335000D01*
X0000215000Y0000335000D01*
X0000217500Y0000337500D01*
G01X0000212500Y0000327500D02*
X0000215500Y0000324500D01*
X0000221500Y0000324500D01*
X0000226000Y0000320000D01*
X0000245000Y0000320000D01*
X0000257500Y0000332500D01*
G01X0000212500Y0000332500D02*
X0000215500Y0000329500D01*
X0000221000Y0000329500D01*
X0000225500Y0000325000D01*
X0000246000Y0000325000D01*
X0000256000Y0000335000D01*
X0000292000Y0000335000D01*
X0000302000Y0000345000D01*
X0000302000Y0000400000D01*
X0000294500Y0000407500D01*
X0000294500Y0000427000D01*
X0000297500Y0000430000D01*
G01X0000225000Y0000337500D02*
X0000226000Y0000337500D01*
X0000229000Y0000334500D01*
X0000232500Y0000334500D01*
X0000237000Y0000330000D01*
X0000242500Y0000330000D01*
X0000245000Y0000327500D01*
G01X0000295000Y0000362500D02*
X0000295000Y0000350000D01*
X0000290000Y0000345000D01*
X0000285000Y0000345000D01*
X0000283000Y0000343000D01*
X0000255000Y0000343000D01*
X0000248000Y0000350000D01*
X0000227500Y0000350000D01*
X0000225000Y0000347500D01*
G01X0000265000Y0000352500D02*
X0000265000Y0000357000D01*
X0000251500Y0000370500D01*
X0000235500Y0000370500D01*
X0000231000Y0000375000D01*
X0000227500Y0000375000D01*
X0000225000Y0000372500D01*
G01X0000217500Y0000372602D02*
X0000221000Y0000369102D01*
X0000221000Y0000366500D01*
X0000222500Y0000365000D01*
X0000251000Y0000365000D01*
X0000257500Y0000358500D01*
X0000257500Y0000352500D01*
G01X0000265000Y0000347500D02*
X0000261500Y0000351000D01*
X0000261500Y0000357500D01*
X0000251000Y0000368000D01*
X0000234500Y0000368000D01*
X0000230000Y0000372500D01*
G01X0000245000Y0000347500D02*
X0000247000Y0000347500D01*
X0000254500Y0000340000D01*
X0000283000Y0000340000D01*
X0000286000Y0000343000D01*
X0000292000Y0000343000D01*
X0000297500Y0000348500D01*
X0000297500Y0000396000D01*
X0000288500Y0000405000D01*
X0000265000Y0000405000D01*
X0000262500Y0000407500D01*
G01X0000292500Y0000430000D02*
X0000292500Y0000405500D01*
X0000300000Y0000398000D01*
X0000300000Y0000347500D01*
X0000290000Y0000337500D01*
X0000254500Y0000337500D01*
X0000249500Y0000332500D01*
X0000245000Y0000332500D01*
G01X0000351000Y0000158662D02*
X0000348500Y0000161162D01*
X0000348500Y0000164400D01*
X0000340900Y0000172000D01*
X0000313000Y0000172000D01*
G54D12*
X0000006224Y0000250664D03*
X0000006224Y0000284679D03*
X0000021185Y0000250664D03*
X0000021185Y0000284679D03*
G54D22*
G01X0000279016Y0000012114D02*
X0000279016Y0000023984D01*
X0000268500Y0000034500D01*
X0000249000Y0000034500D01*
X0000237630Y0000045870D01*
X0000237630Y0000050500D01*
G01X0000237630Y0000055500D02*
X0000237630Y0000050500D01*
G01X0000237630Y0000055500D02*
X0000242630Y0000060500D01*
X0000262000Y0000060500D01*
X0000272114Y0000070614D01*
X0000275130Y0000070614D01*
G01X0000262630Y0000010500D02*
X0000271500Y0000010500D01*
X0000275000Y0000007000D01*
X0000281430Y0000007000D01*
X0000285130Y0000010700D01*
X0000285130Y0000026000D01*
G01X0000296100Y0000031300D02*
X0000290800Y0000026000D01*
X0000285130Y0000026000D01*
G54D13*
X0000005368Y0000321457D03*
X0000005368Y0000345867D03*
X0000018596Y0000321457D03*
X0000018596Y0000345867D03*
G54D23*
G01X0000266130Y0000215500D02*
X0000265630Y0000215000D01*
X0000265630Y0000207370D01*
X0000276000Y0000197000D01*
X0000282500Y0000197000D01*
X0000296630Y0000182870D01*
X0000296630Y0000176500D01*
G54D14*
X0000017520Y0000381890D03*
X0000017520Y0000401575D03*
G54D24*
G01X0000043307Y0000206398D02*
X0000043307Y0000212599D01*
G01X0000043307Y0000212599D02*
X0000043307Y0000218799D01*
G01X0000043307Y0000212599D02*
X0000049507Y0000212599D01*
G54D15*
X0000043307Y0000161024D03*
X0000043307Y0000212599D03*
G54D25*
G01X0000006224Y0000247298D02*
X0000006224Y0000250664D01*
G01X0000006224Y0000250664D02*
X0000006224Y0000254029D01*
G01X0000006224Y0000250664D02*
X0000010771Y0000250664D01*
G01X0000006224Y0000281314D02*
X0000006224Y0000284679D01*
G01X0000006224Y0000284679D02*
X0000006224Y0000288045D01*
G01X0000006224Y0000284679D02*
X0000010771Y0000284679D01*
G01X0000005368Y0000317304D02*
X0000005368Y0000321457D01*
G01X0000005368Y0000321457D02*
X0000005368Y0000325610D01*
G01X0000005368Y0000341714D02*
X0000005368Y0000345867D01*
G01X0000005368Y0000345867D02*
X0000005368Y0000350020D01*
G01X0000021185Y0000247298D02*
X0000021185Y0000250664D01*
G01X0000021185Y0000250664D02*
X0000021185Y0000254029D01*
G01X0000016638Y0000250664D02*
X0000021185Y0000250664D01*
G01X0000021185Y0000250664D02*
X0000025732Y0000250664D01*
G01X0000021185Y0000281314D02*
X0000021185Y0000284679D01*
G01X0000021185Y0000284679D02*
X0000021185Y0000288045D01*
G01X0000016638Y0000284679D02*
X0000021185Y0000284679D01*
G01X0000021185Y0000284679D02*
X0000025732Y0000284679D01*
G01X0000018596Y0000317304D02*
X0000018596Y0000321457D01*
G01X0000018596Y0000321457D02*
X0000018596Y0000325610D01*
G01X0000018596Y0000321457D02*
X0000024816Y0000321457D01*
G01X0000018596Y0000345867D02*
X0000018596Y0000350020D01*
G01X0000018596Y0000345867D02*
X0000024816Y0000350020D01*
G01X0000017520Y0000377934D02*
X0000017520Y0000381890D01*
G01X0000017520Y0000381890D02*
X0000017520Y0000385846D01*
G01X0000013957Y0000381890D02*
X0000017520Y0000381890D01*
G01X0000017520Y0000381890D02*
X0000021082Y0000381890D01*
G01X0000043307Y0000154824D02*
X0000043307Y0000161024D01*
G01X0000043307Y0000161024D02*
X0000043307Y0000167224D01*
G01X0000043307Y0000161024D02*
X0000049507Y0000161024D01*
G01X0000043437Y0000173031D02*
X0000047637Y0000173031D01*
G01X0000047637Y0000168831D02*
X0000047637Y0000173031D01*
G01X0000047637Y0000173031D02*
X0000047637Y0000177232D01*
G01X0000047637Y0000173031D02*
X0000051838Y0000173031D01*
G54D16*
X0000047637Y0000182874D03*
X0000047637Y0000173031D03*
X0000047637Y0000190748D03*
G54D17*
X0000047637Y0000200591D03*
G54D18*
X0000095548Y0000247007D03*
X0000095548Y0000435984D03*
X0000225469Y0000247007D03*
X0000225469Y0000435984D03*
G54D19*
G01X0000075000Y0000365226D02*
X0000074074Y0000364300D01*
X0000057962Y0000364300D01*
X0000040162Y0000346500D01*
X0000027661Y0000346500D01*
X0000018661Y0000337500D01*
X0000012414Y0000337500D01*
X0000011130Y0000338784D01*
G01X0000011130Y0000329853D02*
X0000011830Y0000330553D01*
X0000019552Y0000330553D01*
X0000029000Y0000340000D01*
X0000033662Y0000340000D01*
X0000035162Y0000338500D01*
X0000040500Y0000338500D01*
X0000043200Y0000341200D01*
X0000052700Y0000341200D01*
X0000056000Y0000344500D01*
X0000056000Y0000349500D01*
X0000059000Y0000352500D01*
X0000076000Y0000352500D01*
X0000077000Y0000351500D01*
G01X0000011130Y0000332853D02*
X0000012130Y0000331853D01*
X0000019014Y0000331853D01*
X0000028461Y0000341300D01*
X0000034200Y0000341300D01*
X0000035700Y0000339800D01*
X0000039962Y0000339800D01*
X0000042662Y0000342500D01*
X0000052162Y0000342500D01*
X0000054700Y0000345038D01*
X0000054700Y0000350038D01*
X0000058462Y0000353800D01*
X0000076300Y0000353800D01*
X0000077000Y0000354500D01*
G01X0000075000Y0000362226D02*
X0000074226Y0000363000D01*
X0000058500Y0000363000D01*
X0000040700Y0000345200D01*
X0000028200Y0000345200D01*
X0000019200Y0000336200D01*
X0000011546Y0000336200D01*
X0000011130Y0000335784D01*
G01X0000071860Y0000338000D02*
X0000072710Y0000337150D01*
X0000072710Y0000333710D01*
X0000067728Y0000328728D01*
X0000046613Y0000328728D01*
X0000045402Y0000327516D01*
X0000045402Y0000322750D01*
X0000044952Y0000322300D01*
X0000043602Y0000322300D01*
X0000043152Y0000322750D01*
X0000043152Y0000327516D01*
X0000041940Y0000328728D01*
X0000033157Y0000328728D01*
X0000032307Y0000329578D01*
G01X0000074860Y0000338000D02*
X0000074010Y0000337150D01*
X0000074010Y0000333172D01*
X0000068266Y0000327428D01*
X0000047152Y0000327428D01*
X0000046702Y0000326978D01*
X0000046702Y0000322212D01*
X0000045490Y0000321000D01*
X0000043063Y0000321000D01*
X0000041852Y0000322212D01*
X0000041852Y0000326978D01*
X0000041402Y0000327428D01*
X0000033157Y0000327428D01*
X0000032307Y0000326578D01*
G01X0000063860Y0000344500D02*
X0000064710Y0000343650D01*
X0000064710Y0000338710D01*
X0000061400Y0000335400D01*
X0000056150Y0000335400D01*
X0000054938Y0000334189D01*
X0000054938Y0000333250D01*
X0000054488Y0000332800D01*
X0000053138Y0000332800D01*
X0000052688Y0000333250D01*
X0000052688Y0000334189D01*
X0000051477Y0000335400D01*
X0000049050Y0000335400D01*
X0000047838Y0000334189D01*
X0000047838Y0000333250D01*
X0000047388Y0000332800D01*
X0000046038Y0000332800D01*
X0000045588Y0000333250D01*
X0000045588Y0000334189D01*
X0000044377Y0000335400D01*
X0000041950Y0000335400D01*
X0000040738Y0000334189D01*
X0000040738Y0000333250D01*
X0000040288Y0000332800D01*
X0000038938Y0000332800D01*
X0000038488Y0000333250D01*
X0000038488Y0000334189D01*
X0000037277Y0000335400D01*
X0000033105Y0000335400D01*
X0000032300Y0000336205D01*
G01X0000066860Y0000344500D02*
X0000066010Y0000343650D01*
X0000066010Y0000338172D01*
X0000061938Y0000334100D01*
X0000056688Y0000334100D01*
X0000056238Y0000333650D01*
X0000056238Y0000332712D01*
X0000055027Y0000331500D01*
X0000052600Y0000331500D01*
X0000051388Y0000332712D01*
X0000051388Y0000333650D01*
X0000050938Y0000334100D01*
X0000049588Y0000334100D01*
X0000049138Y0000333650D01*
X0000049138Y0000332712D01*
X0000047927Y0000331500D01*
X0000045500Y0000331500D01*
X0000044288Y0000332712D01*
X0000044288Y0000333650D01*
X0000043838Y0000334100D01*
X0000042488Y0000334100D01*
X0000042038Y0000333650D01*
X0000042038Y0000332712D01*
X0000040827Y0000331500D01*
X0000038400Y0000331500D01*
X0000037188Y0000332712D01*
X0000037188Y0000333650D01*
X0000036738Y0000334100D01*
X0000033195Y0000334100D01*
X0000032300Y0000333205D01*
G01X0000080000Y0000335520D02*
X0000081000Y0000335520D01*
X0000081545Y0000334975D01*
X0000085137Y0000334975D01*
X0000087000Y0000336838D01*
X0000087000Y0000366161D01*
X0000071700Y0000381461D01*
X0000071700Y0000395038D01*
X0000085162Y0000408500D01*
X0000236162Y0000408500D01*
X0000239149Y0000411487D01*
X0000240862Y0000411487D01*
X0000242187Y0000410162D01*
X0000242824Y0000410162D01*
X0000243778Y0000411117D01*
X0000243778Y0000411753D01*
X0000242453Y0000413078D01*
X0000242453Y0000414792D01*
X0000244170Y0000416508D01*
X0000245883Y0000416508D01*
X0000247208Y0000415183D01*
X0000247844Y0000415183D01*
X0000248799Y0000416138D01*
X0000248799Y0000416774D01*
X0000247474Y0000418099D01*
X0000247474Y0000419812D01*
X0000249190Y0000421529D01*
X0000250904Y0000421529D01*
X0000252229Y0000420204D01*
X0000252865Y0000420204D01*
X0000253820Y0000421158D01*
X0000253820Y0000421795D01*
X0000252495Y0000423120D01*
X0000252495Y0000424833D01*
X0000261461Y0000433800D01*
X0000267200Y0000433800D01*
X0000268433Y0000432567D01*
X0000268433Y0000430700D01*
X0000269283Y0000429850D01*
G01X0000080000Y0000332520D02*
X0000081000Y0000332520D01*
X0000082155Y0000333675D01*
X0000085675Y0000333675D01*
X0000088300Y0000336300D01*
X0000088300Y0000366700D01*
X0000073000Y0000382000D01*
X0000073000Y0000394500D01*
X0000085700Y0000407200D01*
X0000236700Y0000407200D01*
X0000239687Y0000410187D01*
X0000240324Y0000410187D01*
X0000241649Y0000408862D01*
X0000243362Y0000408862D01*
X0000245078Y0000410578D01*
X0000245078Y0000412292D01*
X0000243753Y0000413617D01*
X0000243753Y0000414253D01*
X0000244708Y0000415208D01*
X0000245344Y0000415208D01*
X0000246669Y0000413883D01*
X0000248383Y0000413883D01*
X0000250099Y0000415599D01*
X0000250099Y0000417312D01*
X0000248774Y0000418638D01*
X0000248774Y0000419274D01*
X0000249729Y0000420229D01*
X0000250365Y0000420229D01*
X0000251690Y0000418904D01*
X0000253403Y0000418904D01*
X0000255120Y0000420620D01*
X0000255120Y0000422333D01*
X0000253795Y0000423658D01*
X0000253795Y0000424295D01*
X0000254401Y0000424901D01*
X0000255533Y0000424901D01*
X0000256099Y0000425467D01*
X0000256099Y0000426599D01*
X0000256664Y0000427164D01*
X0000257796Y0000427164D01*
X0000258361Y0000427730D01*
X0000258361Y0000428861D01*
X0000258927Y0000429427D01*
X0000260059Y0000429427D01*
X0000260624Y0000429993D01*
X0000260624Y0000431124D01*
X0000262000Y0000432500D01*
X0000266662Y0000432500D01*
X0000267133Y0000432028D01*
X0000267133Y0000430700D01*
X0000266283Y0000429850D01*
G01X0000080000Y0000341968D02*
X0000080732Y0000342700D01*
X0000082538Y0000342700D01*
X0000083800Y0000343962D01*
X0000083800Y0000365200D01*
X0000068500Y0000380500D01*
X0000068500Y0000396462D01*
X0000085238Y0000413200D01*
X0000233700Y0000413200D01*
X0000262500Y0000442000D01*
X0000272800Y0000442000D01*
X0000273600Y0000441200D01*
X0000274400Y0000441200D01*
X0000275200Y0000442000D01*
X0000277162Y0000442000D01*
X0000278944Y0000440217D01*
X0000278944Y0000437100D01*
X0000278144Y0000436300D01*
X0000278144Y0000435500D01*
X0000278944Y0000434700D01*
X0000278944Y0000433900D01*
X0000278144Y0000433100D01*
X0000278144Y0000432300D01*
X0000278944Y0000431500D01*
X0000278944Y0000430700D01*
X0000278094Y0000429850D01*
G01X0000080000Y0000344968D02*
X0000080968Y0000344000D01*
X0000082000Y0000344000D01*
X0000082500Y0000344500D01*
X0000082500Y0000364662D01*
X0000067200Y0000379962D01*
X0000067200Y0000397000D01*
X0000084700Y0000414500D01*
X0000233162Y0000414500D01*
X0000261962Y0000443300D01*
X0000277700Y0000443300D01*
X0000280244Y0000440756D01*
X0000280244Y0000430700D01*
X0000281094Y0000429850D01*
G01X0000095000Y0000340244D02*
X0000094150Y0000339394D01*
X0000092950Y0000339394D01*
X0000092500Y0000339844D01*
X0000092500Y0000343000D01*
X0000096000Y0000346500D01*
X0000096000Y0000369500D01*
X0000093200Y0000372300D01*
X0000088700Y0000372300D01*
X0000077800Y0000383200D01*
X0000077800Y0000392800D01*
X0000086000Y0000401000D01*
X0000195429Y0000401000D01*
X0000195879Y0000400550D01*
X0000195879Y0000398212D01*
X0000197091Y0000397000D01*
X0000199518Y0000397000D01*
X0000200729Y0000398212D01*
X0000200729Y0000400550D01*
X0000201179Y0000401000D01*
X0000202529Y0000401000D01*
X0000202979Y0000400550D01*
X0000202979Y0000398212D01*
X0000204191Y0000397000D01*
X0000206618Y0000397000D01*
X0000207829Y0000398212D01*
X0000207829Y0000400550D01*
X0000208279Y0000401000D01*
X0000209629Y0000401000D01*
X0000210079Y0000400550D01*
X0000210079Y0000398212D01*
X0000211291Y0000397000D01*
X0000213718Y0000397000D01*
X0000214929Y0000398212D01*
X0000214929Y0000400550D01*
X0000215379Y0000401000D01*
X0000216729Y0000401000D01*
X0000217179Y0000400550D01*
X0000217179Y0000398212D01*
X0000218391Y0000397000D01*
X0000220818Y0000397000D01*
X0000222029Y0000398212D01*
X0000222029Y0000400550D01*
X0000222479Y0000401000D01*
X0000223829Y0000401000D01*
X0000224279Y0000400550D01*
X0000224279Y0000398212D01*
X0000225491Y0000397000D01*
X0000227918Y0000397000D01*
X0000229129Y0000398212D01*
X0000229129Y0000400550D01*
X0000229579Y0000401000D01*
X0000244838Y0000401000D01*
X0000261776Y0000417937D01*
X0000262907Y0000417937D01*
X0000263473Y0000418503D01*
X0000263473Y0000419634D01*
X0000264038Y0000420200D01*
X0000265800Y0000420200D01*
X0000266600Y0000419400D01*
X0000267400Y0000419400D01*
X0000268200Y0000420200D01*
X0000269000Y0000420200D01*
X0000269800Y0000419400D01*
X0000270600Y0000419400D01*
X0000271400Y0000420200D01*
X0000272200Y0000420200D01*
X0000274339Y0000422339D01*
X0000274339Y0000424150D01*
X0000275189Y0000425000D01*
G01X0000272189Y0000425000D02*
X0000273039Y0000424150D01*
X0000273039Y0000422877D01*
X0000271662Y0000421500D01*
X0000263500Y0000421500D01*
X0000244300Y0000402300D01*
X0000229041Y0000402300D01*
X0000227829Y0000401088D01*
X0000227829Y0000398750D01*
X0000227379Y0000398300D01*
X0000226029Y0000398300D01*
X0000225579Y0000398750D01*
X0000225579Y0000401088D01*
X0000224368Y0000402300D01*
X0000221941Y0000402300D01*
X0000220729Y0000401088D01*
X0000220729Y0000398750D01*
X0000220279Y0000398300D01*
X0000218929Y0000398300D01*
X0000218479Y0000398750D01*
X0000218479Y0000401088D01*
X0000217268Y0000402300D01*
X0000214841Y0000402300D01*
X0000213629Y0000401088D01*
X0000213629Y0000398750D01*
X0000213179Y0000398300D01*
X0000211829Y0000398300D01*
X0000211379Y0000398750D01*
X0000211379Y0000401088D01*
X0000210168Y0000402300D01*
X0000207741Y0000402300D01*
X0000206529Y0000401088D01*
X0000206529Y0000398750D01*
X0000206079Y0000398300D01*
X0000204729Y0000398300D01*
X0000204279Y0000398750D01*
X0000204279Y0000401088D01*
X0000203068Y0000402300D01*
X0000200641Y0000402300D01*
X0000199429Y0000401088D01*
X0000199429Y0000398750D01*
X0000198979Y0000398300D01*
X0000197629Y0000398300D01*
X0000197179Y0000398750D01*
X0000197179Y0000401088D01*
X0000195968Y0000402300D01*
X0000085462Y0000402300D01*
X0000076500Y0000393339D01*
X0000076500Y0000382662D01*
X0000088162Y0000371000D01*
X0000092662Y0000371000D01*
X0000094700Y0000368962D01*
X0000094700Y0000347038D01*
X0000091200Y0000343538D01*
X0000091200Y0000339306D01*
X0000092412Y0000338094D01*
X0000094150Y0000338094D01*
X0000095000Y0000337244D01*
G01X0000343630Y0000157500D02*
X0000342530Y0000158600D01*
X0000342530Y0000159808D01*
X0000335538Y0000166800D01*
X0000296200Y0000166800D01*
X0000279000Y0000184000D01*
X0000244000Y0000184000D01*
X0000212000Y0000216000D01*
X0000212000Y0000237338D01*
X0000129000Y0000320338D01*
X0000129000Y0000385000D01*
X0000119200Y0000394800D01*
X0000095962Y0000394800D01*
X0000087812Y0000386650D01*
X0000080850Y0000386650D01*
X0000080000Y0000387500D01*
G01X0000340000Y0000157500D02*
X0000341230Y0000158730D01*
X0000341230Y0000159270D01*
X0000335000Y0000165500D01*
X0000295662Y0000165500D01*
X0000278461Y0000182700D01*
X0000243462Y0000182700D01*
X0000210700Y0000215461D01*
X0000210700Y0000236800D01*
X0000127700Y0000319800D01*
X0000127700Y0000384462D01*
X0000118662Y0000393500D01*
X0000096500Y0000393500D01*
X0000090613Y0000387613D01*
X0000090613Y0000386481D01*
X0000090047Y0000385916D01*
X0000088916Y0000385916D01*
X0000088350Y0000385350D01*
X0000087200Y0000385350D01*
X0000086400Y0000384550D01*
X0000085600Y0000384550D01*
X0000084800Y0000385350D01*
X0000080850Y0000385350D01*
X0000080000Y0000384500D01*
G01X0000339980Y0000136483D02*
X0000340900Y0000136483D01*
X0000341350Y0000136033D01*
X0000341350Y0000135350D01*
X0000339500Y0000133500D01*
X0000337930Y0000133500D01*
X0000337080Y0000134350D01*
X0000336180Y0000134350D01*
X0000335330Y0000133500D01*
X0000333430Y0000133500D01*
X0000332580Y0000134350D01*
X0000331680Y0000134350D01*
X0000330830Y0000133500D01*
X0000329930Y0000133500D01*
X0000329080Y0000134350D01*
X0000328180Y0000134350D01*
X0000327330Y0000133500D01*
X0000326430Y0000133500D01*
X0000325580Y0000134350D01*
X0000324680Y0000134350D01*
X0000323830Y0000133500D01*
X0000322930Y0000133500D01*
X0000322080Y0000134350D01*
X0000321180Y0000134350D01*
X0000320330Y0000133500D01*
X0000319430Y0000133500D01*
X0000318580Y0000134350D01*
X0000317680Y0000134350D01*
X0000316830Y0000133500D01*
X0000315930Y0000133500D01*
X0000315080Y0000134350D01*
X0000314180Y0000134350D01*
X0000313330Y0000133500D01*
X0000294838Y0000133500D01*
X0000284938Y0000143400D01*
X0000242600Y0000143400D01*
X0000189000Y0000197000D01*
X0000189000Y0000216000D01*
X0000185500Y0000219500D01*
X0000185500Y0000230500D01*
X0000100300Y0000315700D01*
X0000100300Y0000384300D01*
X0000101350Y0000385350D01*
X0000103650Y0000385350D01*
X0000104500Y0000384500D01*
G01X0000343480Y0000136483D02*
X0000342650Y0000135652D01*
X0000342650Y0000134811D01*
X0000340039Y0000132200D01*
X0000294300Y0000132200D01*
X0000284400Y0000142100D01*
X0000242061Y0000142100D01*
X0000187700Y0000196462D01*
X0000187700Y0000215461D01*
X0000184200Y0000218962D01*
X0000184200Y0000229961D01*
X0000099000Y0000315162D01*
X0000099000Y0000384839D01*
X0000100812Y0000386650D01*
X0000103650Y0000386650D01*
X0000104500Y0000387500D01*
G01X0000343480Y0000141983D02*
X0000342626Y0000141128D01*
X0000342626Y0000140128D01*
X0000341181Y0000138683D01*
X0000295817Y0000138683D01*
X0000288300Y0000146200D01*
X0000245300Y0000146200D01*
X0000194700Y0000196800D01*
X0000194700Y0000230461D01*
X0000112000Y0000313162D01*
X0000112000Y0000322815D01*
X0000111550Y0000323265D01*
X0000108712Y0000323265D01*
X0000107500Y0000324476D01*
X0000107500Y0000326903D01*
X0000108712Y0000328115D01*
X0000111550Y0000328115D01*
X0000112000Y0000328565D01*
X0000112000Y0000329915D01*
X0000111550Y0000330365D01*
X0000108712Y0000330365D01*
X0000107500Y0000331576D01*
X0000107500Y0000334003D01*
X0000108712Y0000335215D01*
X0000111550Y0000335215D01*
X0000112000Y0000335665D01*
X0000112000Y0000337015D01*
X0000111550Y0000337465D01*
X0000108712Y0000337465D01*
X0000107500Y0000338676D01*
X0000107500Y0000341103D01*
X0000108712Y0000342315D01*
X0000111550Y0000342315D01*
X0000112000Y0000342765D01*
X0000112000Y0000357162D01*
X0000109700Y0000359462D01*
X0000109700Y0000375400D01*
X0000109250Y0000375850D01*
X0000108350Y0000375850D01*
X0000107500Y0000375000D01*
G01X0000339980Y0000141983D02*
X0000340876Y0000141983D01*
X0000341326Y0000141533D01*
X0000341326Y0000140667D01*
X0000340642Y0000139983D01*
X0000296355Y0000139983D01*
X0000288838Y0000147500D01*
X0000245838Y0000147500D01*
X0000196000Y0000197338D01*
X0000196000Y0000231000D01*
X0000113300Y0000313700D01*
X0000113300Y0000323353D01*
X0000112088Y0000324565D01*
X0000109250Y0000324565D01*
X0000108800Y0000325015D01*
X0000108800Y0000326365D01*
X0000109250Y0000326815D01*
X0000112088Y0000326815D01*
X0000113300Y0000328026D01*
X0000113300Y0000330453D01*
X0000112088Y0000331665D01*
X0000109250Y0000331665D01*
X0000108800Y0000332115D01*
X0000108800Y0000333465D01*
X0000109250Y0000333915D01*
X0000112088Y0000333915D01*
X0000113300Y0000335126D01*
X0000113300Y0000337553D01*
X0000112088Y0000338765D01*
X0000109250Y0000338765D01*
X0000108800Y0000339215D01*
X0000108800Y0000340565D01*
X0000109250Y0000341015D01*
X0000112088Y0000341015D01*
X0000113300Y0000342226D01*
X0000113300Y0000357700D01*
X0000111000Y0000360000D01*
X0000111000Y0000375939D01*
X0000109788Y0000377150D01*
X0000108350Y0000377150D01*
X0000107500Y0000378000D01*
G01X0000339980Y0000147483D02*
X0000341030Y0000147483D01*
X0000341480Y0000147033D01*
X0000341480Y0000145933D01*
X0000341030Y0000145483D01*
X0000337147Y0000145483D01*
X0000336630Y0000146000D01*
X0000335730Y0000146000D01*
X0000334880Y0000146850D01*
X0000333980Y0000146850D01*
X0000333130Y0000146000D01*
X0000332230Y0000146000D01*
X0000331380Y0000146850D01*
X0000330480Y0000146850D01*
X0000329630Y0000146000D01*
X0000328730Y0000146000D01*
X0000327880Y0000146850D01*
X0000326980Y0000146850D01*
X0000326130Y0000146000D01*
X0000325230Y0000146000D01*
X0000324380Y0000146850D01*
X0000323480Y0000146850D01*
X0000322630Y0000146000D01*
X0000321730Y0000146000D01*
X0000320880Y0000146850D01*
X0000319980Y0000146850D01*
X0000319130Y0000146000D01*
X0000318230Y0000146000D01*
X0000317380Y0000146850D01*
X0000316480Y0000146850D01*
X0000315630Y0000146000D01*
X0000314830Y0000146000D01*
X0000314030Y0000146800D01*
X0000313230Y0000146800D01*
X0000312430Y0000146000D01*
X0000311630Y0000146000D01*
X0000310830Y0000146800D01*
X0000310030Y0000146800D01*
X0000309230Y0000146000D01*
X0000298500Y0000146000D01*
X0000292700Y0000151800D01*
X0000248538Y0000151800D01*
X0000222148Y0000178190D01*
X0000222148Y0000178826D01*
X0000223554Y0000180232D01*
X0000223554Y0000181945D01*
X0000221838Y0000183662D01*
X0000220125Y0000183662D01*
X0000218719Y0000182256D01*
X0000218083Y0000182256D01*
X0000217128Y0000183211D01*
X0000217128Y0000183847D01*
X0000218534Y0000185253D01*
X0000218534Y0000186966D01*
X0000216818Y0000188682D01*
X0000215104Y0000188683D01*
X0000213698Y0000187277D01*
X0000213062Y0000187277D01*
X0000212107Y0000188231D01*
X0000212107Y0000188868D01*
X0000213513Y0000190274D01*
X0000213513Y0000191987D01*
X0000211797Y0000193703D01*
X0000210084Y0000193703D01*
X0000208677Y0000192297D01*
X0000208041Y0000192297D01*
X0000207086Y0000193252D01*
X0000207086Y0000193888D01*
X0000208492Y0000195294D01*
X0000208492Y0000197008D01*
X0000206776Y0000198724D01*
X0000205063Y0000198724D01*
X0000203657Y0000197318D01*
X0000203020Y0000197318D01*
X0000200300Y0000200038D01*
X0000200300Y0000233700D01*
X0000118300Y0000315700D01*
X0000118300Y0000361200D01*
X0000115500Y0000364000D01*
X0000115500Y0000380162D01*
X0000116100Y0000380761D01*
X0000118150Y0000380761D01*
X0000119000Y0000379911D01*
G01X0000343480Y0000147483D02*
X0000342780Y0000146783D01*
X0000342780Y0000145395D01*
X0000341569Y0000144183D01*
X0000336608Y0000144183D01*
X0000336092Y0000144700D01*
X0000297962Y0000144700D01*
X0000292161Y0000150500D01*
X0000248000Y0000150500D01*
X0000220848Y0000177652D01*
X0000220848Y0000179365D01*
X0000222254Y0000180771D01*
X0000222254Y0000181407D01*
X0000221300Y0000182362D01*
X0000220663Y0000182362D01*
X0000219257Y0000180956D01*
X0000217544Y0000180956D01*
X0000215828Y0000182672D01*
X0000215828Y0000184386D01*
X0000217234Y0000185792D01*
X0000217234Y0000186428D01*
X0000216279Y0000187382D01*
X0000215643Y0000187382D01*
X0000214237Y0000185976D01*
X0000212523Y0000185976D01*
X0000210807Y0000187693D01*
X0000210807Y0000189406D01*
X0000212213Y0000190812D01*
X0000212213Y0000191448D01*
X0000211258Y0000192403D01*
X0000210622Y0000192403D01*
X0000209216Y0000190997D01*
X0000207503Y0000190997D01*
X0000205786Y0000192714D01*
X0000205786Y0000194427D01*
X0000207192Y0000195833D01*
X0000207192Y0000196469D01*
X0000206238Y0000197424D01*
X0000205601Y0000197424D01*
X0000204195Y0000196018D01*
X0000202482Y0000196018D01*
X0000199000Y0000199500D01*
X0000199000Y0000233161D01*
X0000117000Y0000315162D01*
X0000117000Y0000360662D01*
X0000114200Y0000363462D01*
X0000114200Y0000380700D01*
X0000115561Y0000382061D01*
X0000118150Y0000382061D01*
X0000119000Y0000382911D01*
G01X0000343500Y0000153000D02*
X0000343000Y0000153000D01*
X0000342110Y0000152110D01*
X0000342110Y0000150912D01*
X0000340899Y0000149700D01*
X0000316620Y0000149700D01*
X0000315409Y0000150912D01*
X0000315409Y0000158750D01*
X0000314959Y0000159200D01*
X0000313609Y0000159200D01*
X0000313159Y0000158750D01*
X0000313159Y0000150912D01*
X0000311947Y0000149700D01*
X0000309520Y0000149700D01*
X0000308309Y0000150912D01*
X0000308309Y0000158750D01*
X0000307859Y0000159200D01*
X0000306509Y0000159200D01*
X0000306059Y0000158750D01*
X0000306059Y0000150912D01*
X0000304847Y0000149700D01*
X0000301462Y0000149700D01*
X0000272962Y0000178200D01*
X0000241300Y0000178200D01*
X0000205700Y0000213800D01*
X0000205700Y0000234962D01*
X0000124000Y0000316662D01*
X0000124000Y0000368600D01*
X0000122250Y0000370350D01*
X0000120350Y0000370350D01*
X0000119500Y0000369500D01*
G01X0000340000Y0000153000D02*
X0000340810Y0000152190D01*
X0000340810Y0000151450D01*
X0000340360Y0000151000D01*
X0000335930Y0000151000D01*
X0000335080Y0000151850D01*
X0000334180Y0000151850D01*
X0000333330Y0000151000D01*
X0000330430Y0000151000D01*
X0000329580Y0000151850D01*
X0000328680Y0000151850D01*
X0000327830Y0000151000D01*
X0000317159Y0000151000D01*
X0000316709Y0000151450D01*
X0000316709Y0000159288D01*
X0000315497Y0000160500D01*
X0000313070Y0000160500D01*
X0000311859Y0000159288D01*
X0000311859Y0000151450D01*
X0000311409Y0000151000D01*
X0000310059Y0000151000D01*
X0000309609Y0000151450D01*
X0000309609Y0000159288D01*
X0000308397Y0000160500D01*
X0000305970Y0000160500D01*
X0000304759Y0000159288D01*
X0000304759Y0000151450D01*
X0000304309Y0000151000D01*
X0000302000Y0000151000D01*
X0000273500Y0000179500D01*
X0000241838Y0000179500D01*
X0000207000Y0000214338D01*
X0000207000Y0000235500D01*
X0000125300Y0000317200D01*
X0000125300Y0000369139D01*
X0000122789Y0000371650D01*
X0000120350Y0000371650D01*
X0000119500Y0000372500D01*
G01X0000325630Y0000330500D02*
X0000326745Y0000329385D01*
X0000331245Y0000329385D01*
X0000347930Y0000312700D01*
X0000347930Y0000277930D01*
X0000337200Y0000267200D01*
X0000195300Y0000267200D01*
X0000138579Y0000323921D01*
X0000133350Y0000323921D01*
X0000132500Y0000323071D01*
G01X0000140000Y0000328860D02*
X0000140850Y0000329710D01*
X0000142952Y0000329710D01*
X0000200962Y0000271700D01*
X0000335200Y0000271700D01*
X0000343930Y0000280430D01*
X0000343930Y0000310200D01*
X0000330651Y0000323479D01*
X0000322245Y0000323479D01*
X0000321130Y0000324594D01*
G01X0000325630Y0000327000D02*
X0000326715Y0000328085D01*
X0000330706Y0000328085D01*
X0000346630Y0000312162D01*
X0000346630Y0000278468D01*
X0000336662Y0000268500D01*
X0000195838Y0000268500D01*
X0000139118Y0000325221D01*
X0000133350Y0000325221D01*
X0000132500Y0000326071D01*
G01X0000325630Y0000318689D02*
X0000326715Y0000317604D01*
X0000330364Y0000317604D01*
X0000339930Y0000308038D01*
X0000339930Y0000283092D01*
X0000332839Y0000276000D01*
X0000203662Y0000276000D01*
X0000198758Y0000280903D01*
X0000198759Y0000282616D01*
X0000199834Y0000283691D01*
X0000199834Y0000284328D01*
X0000198879Y0000285282D01*
X0000198242Y0000285282D01*
X0000197167Y0000284207D01*
X0000195454Y0000284208D01*
X0000193738Y0000285924D01*
X0000193738Y0000287637D01*
X0000194813Y0000288712D01*
X0000194813Y0000289348D01*
X0000193858Y0000290303D01*
X0000193222Y0000290303D01*
X0000192147Y0000289228D01*
X0000190433Y0000289228D01*
X0000188717Y0000290945D01*
X0000188717Y0000292658D01*
X0000189792Y0000293733D01*
X0000189792Y0000294369D01*
X0000188837Y0000295324D01*
X0000188201Y0000295324D01*
X0000187126Y0000294249D01*
X0000185412Y0000294249D01*
X0000183696Y0000295965D01*
X0000183696Y0000297678D01*
X0000184772Y0000298754D01*
X0000184772Y0000299390D01*
X0000183817Y0000300345D01*
X0000183180Y0000300345D01*
X0000182105Y0000299270D01*
X0000180392Y0000299270D01*
X0000143952Y0000335710D01*
X0000133350Y0000335710D01*
X0000132500Y0000334860D01*
G01X0000321130Y0000312783D02*
X0000322215Y0000311698D01*
X0000330932Y0000311698D01*
X0000336000Y0000306630D01*
X0000336000Y0000285662D01*
X0000330838Y0000280500D01*
X0000210162Y0000280500D01*
X0000184445Y0000306217D01*
X0000183808Y0000306217D01*
X0000182902Y0000305311D01*
X0000181189Y0000305311D01*
X0000179473Y0000307028D01*
X0000179473Y0000308741D01*
X0000180379Y0000309647D01*
X0000180379Y0000310283D01*
X0000179424Y0000311238D01*
X0000178788Y0000311238D01*
X0000177882Y0000310332D01*
X0000176168Y0000310332D01*
X0000174452Y0000312048D01*
X0000174452Y0000313761D01*
X0000175358Y0000314667D01*
X0000175358Y0000315304D01*
X0000174403Y0000316258D01*
X0000173767Y0000316258D01*
X0000172861Y0000315352D01*
X0000171147Y0000315353D01*
X0000169431Y0000317069D01*
X0000169431Y0000318782D01*
X0000170337Y0000319688D01*
X0000170337Y0000320324D01*
X0000169382Y0000321279D01*
X0000168746Y0000321279D01*
X0000167840Y0000320373D01*
X0000166127Y0000320373D01*
X0000164411Y0000322090D01*
X0000164411Y0000323803D01*
X0000165317Y0000324709D01*
X0000165317Y0000325345D01*
X0000164362Y0000326300D01*
X0000163725Y0000326300D01*
X0000162819Y0000325394D01*
X0000161106Y0000325394D01*
X0000159390Y0000327110D01*
X0000159390Y0000328824D01*
X0000160296Y0000329729D01*
X0000160296Y0000330366D01*
X0000159341Y0000331320D01*
X0000158705Y0000331320D01*
X0000157799Y0000330414D01*
X0000156085Y0000330415D01*
X0000154369Y0000332131D01*
X0000154369Y0000333844D01*
X0000155275Y0000334750D01*
X0000155275Y0000335386D01*
X0000154320Y0000336341D01*
X0000153684Y0000336341D01*
X0000152778Y0000335435D01*
X0000151065Y0000335435D01*
X0000149348Y0000337152D01*
X0000149349Y0000338865D01*
X0000150255Y0000339771D01*
X0000150255Y0000340407D01*
X0000148452Y0000342210D01*
X0000142418Y0000342210D01*
X0000141568Y0000341360D01*
X0000140000Y0000341360D01*
G01X0000321130Y0000321094D02*
X0000322215Y0000322179D01*
X0000330113Y0000322179D01*
X0000342630Y0000309662D01*
X0000342630Y0000280968D01*
X0000334662Y0000273000D01*
X0000201500Y0000273000D01*
X0000143490Y0000331010D01*
X0000140850Y0000331010D01*
X0000140000Y0000331860D01*
G01X0000325630Y0000315189D02*
X0000326745Y0000316304D01*
X0000329826Y0000316304D01*
X0000338630Y0000307500D01*
X0000338630Y0000283630D01*
X0000332300Y0000277300D01*
X0000204200Y0000277300D01*
X0000200058Y0000281442D01*
X0000200059Y0000282078D01*
X0000201134Y0000283153D01*
X0000201134Y0000284866D01*
X0000199417Y0000286582D01*
X0000197704Y0000286582D01*
X0000196629Y0000285508D01*
X0000195992Y0000285508D01*
X0000195038Y0000286462D01*
X0000195038Y0000287098D01*
X0000196113Y0000288174D01*
X0000196113Y0000289887D01*
X0000194397Y0000291603D01*
X0000192683Y0000291603D01*
X0000191608Y0000290528D01*
X0000190972Y0000290528D01*
X0000190017Y0000291483D01*
X0000190017Y0000292119D01*
X0000191092Y0000293194D01*
X0000191092Y0000294907D01*
X0000189376Y0000296624D01*
X0000187662Y0000296624D01*
X0000186588Y0000295549D01*
X0000185951Y0000295549D01*
X0000184996Y0000296504D01*
X0000184996Y0000297140D01*
X0000186072Y0000298215D01*
X0000186072Y0000299928D01*
X0000184355Y0000301645D01*
X0000182642Y0000301645D01*
X0000181567Y0000300570D01*
X0000180930Y0000300570D01*
X0000144490Y0000337010D01*
X0000133350Y0000337010D01*
X0000132500Y0000337860D01*
G01X0000321130Y0000309283D02*
X0000322245Y0000310398D01*
X0000330394Y0000310398D01*
X0000334700Y0000306092D01*
X0000334700Y0000286200D01*
X0000330300Y0000281800D01*
X0000210700Y0000281800D01*
X0000184983Y0000307517D01*
X0000183270Y0000307517D01*
X0000182364Y0000306611D01*
X0000181727Y0000306611D01*
X0000180773Y0000307566D01*
X0000180773Y0000308202D01*
X0000181679Y0000309108D01*
X0000181679Y0000310821D01*
X0000179962Y0000312538D01*
X0000178249Y0000312538D01*
X0000177343Y0000311632D01*
X0000176707Y0000311632D01*
X0000175752Y0000312587D01*
X0000175752Y0000313223D01*
X0000176658Y0000314129D01*
X0000176658Y0000315842D01*
X0000174942Y0000317558D01*
X0000173228Y0000317558D01*
X0000172322Y0000316652D01*
X0000171686Y0000316653D01*
X0000170731Y0000317607D01*
X0000170731Y0000318244D01*
X0000171637Y0000319150D01*
X0000171637Y0000320863D01*
X0000169921Y0000322579D01*
X0000168208Y0000322579D01*
X0000167302Y0000321673D01*
X0000166665Y0000321673D01*
X0000165711Y0000322628D01*
X0000165711Y0000323264D01*
X0000166617Y0000324170D01*
X0000166617Y0000325883D01*
X0000164900Y0000327600D01*
X0000163187Y0000327600D01*
X0000162281Y0000326694D01*
X0000161645Y0000326694D01*
X0000160690Y0000327649D01*
X0000160690Y0000328285D01*
X0000161596Y0000329191D01*
X0000161596Y0000330904D01*
X0000159880Y0000332620D01*
X0000158166Y0000332620D01*
X0000157260Y0000331715D01*
X0000156624Y0000331715D01*
X0000155669Y0000332669D01*
X0000155669Y0000333306D01*
X0000156575Y0000334212D01*
X0000156575Y0000335925D01*
X0000154859Y0000337641D01*
X0000153146Y0000337641D01*
X0000152240Y0000336735D01*
X0000151603Y0000336735D01*
X0000150648Y0000337690D01*
X0000150649Y0000338326D01*
X0000151555Y0000339232D01*
X0000151555Y0000340946D01*
X0000148990Y0000343510D01*
X0000142418Y0000343510D01*
X0000141568Y0000344360D01*
X0000140000Y0000344360D01*
G01X0000326130Y0000303378D02*
X0000327252Y0000304500D01*
X0000329630Y0000304500D01*
X0000331200Y0000302930D01*
X0000331200Y0000294612D01*
X0000329618Y0000293030D01*
X0000324692Y0000293030D01*
X0000317462Y0000285800D01*
X0000214200Y0000285800D01*
X0000176458Y0000323542D01*
X0000176458Y0000324178D01*
X0000179783Y0000327504D01*
X0000179783Y0000329217D01*
X0000178067Y0000330933D01*
X0000176354Y0000330933D01*
X0000173028Y0000327608D01*
X0000172392Y0000327608D01*
X0000171437Y0000328563D01*
X0000171437Y0000329199D01*
X0000174762Y0000332524D01*
X0000174762Y0000334238D01*
X0000173046Y0000335954D01*
X0000171333Y0000335954D01*
X0000168008Y0000332629D01*
X0000167371Y0000332629D01*
X0000166417Y0000333584D01*
X0000166417Y0000334220D01*
X0000169742Y0000337545D01*
X0000169742Y0000339258D01*
X0000168026Y0000340974D01*
X0000166312Y0000340974D01*
X0000162987Y0000337649D01*
X0000162351Y0000337649D01*
X0000161396Y0000338604D01*
X0000161396Y0000339241D01*
X0000164721Y0000342566D01*
X0000164721Y0000344279D01*
X0000163005Y0000345995D01*
X0000161291Y0000345995D01*
X0000157966Y0000342670D01*
X0000157330Y0000342670D01*
X0000156375Y0000343625D01*
X0000156375Y0000344261D01*
X0000159700Y0000347586D01*
X0000159700Y0000349300D01*
X0000157984Y0000351016D01*
X0000156271Y0000351016D01*
X0000152946Y0000347691D01*
X0000152309Y0000347691D01*
X0000150490Y0000349510D01*
X0000134918Y0000349510D01*
X0000134068Y0000350360D01*
X0000132500Y0000350360D01*
G01X0000326130Y0000306878D02*
X0000327208Y0000305800D01*
X0000330168Y0000305800D01*
X0000332500Y0000303468D01*
X0000332500Y0000294074D01*
X0000330156Y0000291730D01*
X0000325230Y0000291730D01*
X0000318000Y0000284500D01*
X0000213662Y0000284500D01*
X0000175158Y0000323004D01*
X0000175158Y0000324717D01*
X0000178483Y0000328042D01*
X0000178483Y0000328678D01*
X0000177528Y0000329633D01*
X0000176892Y0000329633D01*
X0000173567Y0000326308D01*
X0000171854Y0000326308D01*
X0000170137Y0000328024D01*
X0000170137Y0000329738D01*
X0000173462Y0000333063D01*
X0000173462Y0000333699D01*
X0000172508Y0000334654D01*
X0000171871Y0000334654D01*
X0000168546Y0000331329D01*
X0000166833Y0000331329D01*
X0000165117Y0000333045D01*
X0000165117Y0000334758D01*
X0000168442Y0000338083D01*
X0000168442Y0000338720D01*
X0000167487Y0000339674D01*
X0000166851Y0000339674D01*
X0000163526Y0000336349D01*
X0000161812Y0000336349D01*
X0000160096Y0000338066D01*
X0000160096Y0000339779D01*
X0000163421Y0000343104D01*
X0000163421Y0000343741D01*
X0000162466Y0000344695D01*
X0000161830Y0000344695D01*
X0000158505Y0000341370D01*
X0000156792Y0000341370D01*
X0000155075Y0000343086D01*
X0000155075Y0000344800D01*
X0000158400Y0000348125D01*
X0000158400Y0000348761D01*
X0000157446Y0000349716D01*
X0000156809Y0000349716D01*
X0000153484Y0000346391D01*
X0000151771Y0000346391D01*
X0000149952Y0000348210D01*
X0000134918Y0000348210D01*
X0000134068Y0000347360D01*
X0000132500Y0000347360D01*
M02*
