G04 ================== begin FILE IDENTIFICATION RECORD ==================*
G04 Layout Name:  D:/PCB_Project/CutiePi/CutiePi_V2_0/CutiePi_V2_0.brd*
G04 Film Name:    L04*
G04 File Format:  Gerber RS274X*
G04 File Origin:  Cadence Allegro 16.6-2015-S108*
G04 Origin Date:  Wed Dec 02 16:58:57 2020*
G04 *
G04 Layer:  ETCH/L04*
G04 Layer:  PIN/L04*
G04 Layer:  VIA CLASS/L04*
G04 *
G04 Offset:    (0.000 0.000)*
G04 Mirror:    No*
G04 Mode:      Positive*
G04 Rotation:  0*
G04 FullContactRelief:  No*
G04 UndefLineWidth:     6.000*
G04 ================== end FILE IDENTIFICATION RECORD ====================*
%FSAX55Y55*MOIN*%
%IR0*IPPOS*OFA0.00000B0.00000*MIA0B0*SFA1.00000B1.00000*%
%ADD15C,.1*%
%ADD13O,.100394X.059055*%
%ADD18C,.106299*%
%ADD11C,.02*%
%ADD16C,.06*%
%ADD17R,.06X.06*%
%ADD14O,.047244X.055118*%
%ADD12O,.066929X.043307*%
%ADD10C,.019689*%
%ADD19C,.0057*%
%ADD20C,.012*%
%ADD21C,.025*%
%ADD22C,.0307*%
%ADD28C,.276854*%
%ADD25C,.032004*%
%ADD27R,.080004X.080004*%
%ADD26C,.072004*%
%ADD23O,.067248X.075122*%
%ADD24O,.059248X.067122*%
G75*
%LPD*%
G75*
G36*
G01X0000127933Y0000111967D02*
G02X0000127877Y0000110218I-0000000849J-0000000848D01*
G03X0000128920Y0000107417I0000001058J-0000001201D01*
G02X0000129515Y0000106817I-0000000006J-0000000600D01*
G01X0000129515Y0000106217D01*
G02X0000128920Y0000105617I-0000000600J0D01*
G03X0000128920Y0000102417I0000000015J-0000001600D01*
G02X0000129515Y0000101817I-0000000006J-0000000600D01*
G01X0000129515Y0000073385D01*
X0000137515Y0000065385D01*
X0000137515Y0000028115D01*
X0000135385Y0000025985D01*
X0000134104Y0000025985D01*
X0000134011Y0000026017D01*
G03X0000134011Y0000022983I-0000000511J-0000001517D01*
G01X0000134104Y0000023015D01*
X0000136615Y0000023015D01*
X0000140485Y0000026885D01*
X0000140485Y0000066615D01*
X0000132485Y0000074615D01*
X0000132485Y0000102439D01*
X0000133142Y0000102439D01*
X0000133198Y0000102429D01*
G03X0000133438Y0000102401I0000000302J0000001571D01*
G01X0000134015Y0000101802D01*
X0000134015Y0000098385D01*
X0000137015Y0000095385D01*
X0000137015Y0000089385D01*
X0000160885Y0000065515D01*
X0000166526Y0000065515D01*
X0000166619Y0000065483D01*
G03X0000166619Y0000068517I0000000511J0000001517D01*
G01X0000166526Y0000068485D01*
X0000162115Y0000068485D01*
X0000139985Y0000090615D01*
X0000139985Y0000096615D01*
X0000136985Y0000099615D01*
X0000136985Y0000113115D01*
X0000135485Y0000114615D01*
X0000135485Y0000123728D01*
G02X0000136578Y0000124923I0000001200J0D01*
G03X0000136578Y0000128111I-0000000143J0000001594D01*
G02X0000135485Y0000129306I0000000107J0000001195D01*
G01X0000135485Y0000283385D01*
X0000200305Y0000348204D01*
X0000200888Y0000347620D01*
X0000200903Y0000347395D01*
G03X0000200983Y0000346989I0000001597J0000000105D01*
G01X0000201015Y0000346896D01*
X0000201015Y0000306115D01*
X0000196015Y0000301115D01*
X0000196015Y0000155115D01*
X0000176885Y0000135985D01*
X0000161885Y0000135985D01*
X0000150885Y0000124985D01*
X0000145067Y0000124985D01*
X0000142912Y0000127140D01*
X0000142868Y0000127228D01*
G03X0000140724Y0000125084I-0000001433J-0000000711D01*
G01X0000140812Y0000125040D01*
X0000143837Y0000122015D01*
X0000148017Y0000122015D01*
G02X0000148866Y0000119966I0J-0000001200D01*
G01X0000139515Y0000110615D01*
X0000139515Y0000108104D01*
X0000139483Y0000108011D01*
G03X0000140894Y0000105903I0000001517J-0000000511D01*
G02X0000142015Y0000104706I-0000000079J-0000001197D01*
G01X0000142015Y0000098385D01*
X0000149885Y0000090515D01*
X0000165385Y0000090515D01*
X0000167426Y0000088474D01*
X0000167471Y0000088371D01*
G03X0000170357Y0000088283I0000001464J0000000646D01*
G02X0000172271Y0000088580I0000001066J-0000000551D01*
G01X0000172458Y0000088394D01*
X0000172502Y0000088306D01*
G03X0000174646Y0000090450I0000001433J0000000711D01*
G01X0000174558Y0000090494D01*
X0000172586Y0000092466D01*
G02X0000173435Y0000094515I0000000849J0000000849D01*
G01X0000191629Y0000094515D01*
X0000231210Y0000054934D01*
X0000231254Y0000054846D01*
G03X0000231953Y0000054135I0000001433J0000000711D01*
G02X0000232250Y0000052221I-0000000551J-0000001066D01*
G01X0000232064Y0000052034D01*
X0000231976Y0000051990D01*
G03X0000234120Y0000049846I0000000711J-0000001433D01*
G01X0000234164Y0000049934D01*
X0000234294Y0000050063D01*
G02X0000236208Y0000049765I0000000848J-0000000849D01*
G03X0000237736Y0000048903I0000001422J0000000735D01*
G02X0000239015Y0000047706I0000000079J-0000001197D01*
G01X0000239015Y0000045385D01*
X0000250108Y0000034291D01*
G02X0000250720Y0000032266I-0000000236J-0000001176D01*
G01X0000248727Y0000030273D01*
G03X0000251273Y0000027727I0000001273J-0000001273D01*
G01X0000253246Y0000029700D01*
X0000270254Y0000029700D01*
X0000278254Y0000021700D01*
X0000289246Y0000021700D01*
X0000294246Y0000026700D01*
X0000301746Y0000026700D01*
X0000304800Y0000029754D01*
X0000304800Y0000035990D01*
X0000290990Y0000049800D01*
X0000280384Y0000049800D01*
X0000277357Y0000046773D01*
G03X0000279903Y0000044227I0000001273J-0000001273D01*
G01X0000281876Y0000046200D01*
X0000289498Y0000046200D01*
X0000301200Y0000034499D01*
X0000301200Y0000033979D01*
G02X0000300176Y0000033555I-0000000600J0D01*
G01X0000298745Y0000034985D01*
X0000293885Y0000034985D01*
X0000288885Y0000029985D01*
X0000279115Y0000029985D01*
X0000271815Y0000037285D01*
X0000251315Y0000037285D01*
X0000241985Y0000046615D01*
X0000241985Y0000057615D01*
X0000194098Y0000105502D01*
X0000159539Y0000105502D01*
X0000159446Y0000105534D01*
G03X0000157513Y0000104752I-0000000511J-0000001517D01*
G02X0000155599Y0000104454I-0000001066J0000000551D01*
G01X0000155412Y0000104640D01*
X0000155368Y0000104728D01*
G03X0000152513Y0000104752I-0000001433J-0000000711D01*
G02X0000150599Y0000104454I-0000001066J0000000551D01*
G01X0000150412Y0000104640D01*
X0000150368Y0000104728D01*
G03X0000148506Y0000105559I-0000001433J-0000000711D01*
G02X0000146985Y0000106715I-0000000321J0000001156D01*
G01X0000146985Y0000108056D01*
X0000156444Y0000117515D01*
X0000168615Y0000117515D01*
X0000169485Y0000118385D01*
X0000170221Y0000117649D01*
X0000170017Y0000117258D01*
G03X0000170724Y0000115084I0000001418J-0000000741D01*
G01X0000170812Y0000115040D01*
X0000173337Y0000112515D01*
X0000186615Y0000112515D01*
X0000209615Y0000135515D01*
X0000294115Y0000135515D01*
X0000327985Y0000169385D01*
X0000327985Y0000267615D01*
X0000281985Y0000313615D01*
X0000281985Y0000320115D01*
X0000278977Y0000323123D01*
X0000278933Y0000323211D01*
G03X0000277320Y0000324090I-0000001433J-0000000711D01*
G02X0000275985Y0000325282I-0000000135J0000001192D01*
G01X0000275985Y0000327218D01*
G02X0000277320Y0000328410I0000001200J0D01*
G03X0000277320Y0000331590I0000000180J0000001590D01*
G02X0000275985Y0000332782I-0000000135J0000001192D01*
G01X0000275985Y0000347385D01*
X0000278985Y0000350385D01*
X0000278985Y0000355885D01*
X0000282485Y0000359385D01*
X0000282485Y0000383615D01*
X0000277115Y0000388985D01*
X0000262794Y0000388985D01*
G02X0000261597Y0000390106I0J0000001200D01*
G03X0000258403Y0000390106I-0000001597J-0000000106D01*
G02X0000257206Y0000388985I-0000001197J0000000079D01*
G01X0000255615Y0000388985D01*
X0000253977Y0000390623D01*
X0000253933Y0000390711D01*
G03X0000251789Y0000388567I-0000001433J-0000000711D01*
G01X0000251877Y0000388523D01*
X0000254385Y0000386015D01*
X0000275885Y0000386015D01*
X0000279515Y0000382385D01*
X0000279515Y0000373483D01*
G02X0000277466Y0000372634I-0000001200J0D01*
G01X0000276615Y0000373485D01*
X0000261885Y0000373485D01*
X0000255749Y0000367349D01*
G02X0000253700Y0000368198I-0000000849J0000000849D01*
G01X0000253700Y0000373497D01*
X0000246997Y0000380200D01*
X0000239700Y0000380200D01*
X0000239700Y0000397503D01*
X0000249997Y0000407800D01*
X0000260843Y0000407800D01*
X0000260915Y0000407282D01*
G03X0000264085Y0000407282I0000001585J0000000218D01*
G01X0000264157Y0000407800D01*
X0000270843Y0000407800D01*
X0000270915Y0000407282D01*
G03X0000274085Y0000407282I0000001585J0000000218D01*
G01X0000274157Y0000407800D01*
X0000288997Y0000407800D01*
X0000296466Y0000415269D01*
G02X0000298515Y0000414420I0000000849J-0000000849D01*
G01X0000298515Y0000304385D01*
X0000308523Y0000294377D01*
X0000308567Y0000294289D01*
G03X0000309266Y0000293578I0000001433J0000000711D01*
G02X0000309563Y0000291664I-0000000551J-0000001066D01*
G01X0000309377Y0000291477D01*
X0000309289Y0000291433D01*
G03X0000311433Y0000289289I0000000711J-0000001433D01*
G01X0000311477Y0000289377D01*
X0000311664Y0000289563D01*
G02X0000313578Y0000289266I0000000848J-0000000849D01*
G03X0000314698Y0000291572I0000001422J0000000734D01*
G01X0000314642Y0000291561D01*
X0000313985Y0000291561D01*
X0000313985Y0000292206D01*
G02X0000315106Y0000293403I0000001200J0D01*
G03X0000315106Y0000296597I-0000000106J0000001597D01*
G02X0000313985Y0000297794I0000000079J0000001197D01*
G01X0000313985Y0000298426D01*
X0000314641Y0000298426D01*
X0000314695Y0000298416D01*
G03X0000314830Y0000301582I0000000294J0000001573D01*
G01X0000314547Y0000301553D01*
X0000303485Y0000312615D01*
X0000303485Y0000412815D01*
X0000304185Y0000413515D01*
X0000308115Y0000413515D01*
X0000310623Y0000416023D01*
X0000310711Y0000416067D01*
G03X0000311594Y0000417645I-0000000711J0000001433D01*
G01X0000311591Y0000417672D01*
X0000311591Y0000418300D01*
X0000312503Y0000418300D01*
X0000335800Y0000395003D01*
X0000335800Y0000174497D01*
X0000324300Y0000162997D01*
X0000324300Y0000152503D01*
X0000326503Y0000150300D01*
X0000334997Y0000150300D01*
X0000336606Y0000151909D01*
G02X0000338409Y0000151788I0000000849J-0000000849D01*
G03X0000341346Y0000151521I0000001591J0000001212D01*
G01X0000341750Y0000151677D01*
X0000342154Y0000151521D01*
G03X0000344962Y0000154365I0000001346J0000001479D01*
G02X0000345011Y0000156053I0000000877J0000000819D01*
G03X0000345614Y0000157250I-0000001381J0000001447D01*
G02X0000346805Y0000158300I0000001191J-0000000150D01*
G01X0000349397Y0000158300D01*
X0000349561Y0000157962D01*
G03X0000351095Y0000157065I0000001439J0000000700D01*
G02X0000352367Y0000155867I0000000072J-0000001198D01*
G01X0000352367Y0000024630D01*
G02X0000350187Y0000023936I-0000001200J0D01*
G03X0000330430Y0000004180I-0000011569J-0000008188D01*
G02X0000329737Y0000002000I-0000000693J-0000000979D01*
G01X0000264814Y0000002000D01*
G02X0000263664Y0000003543I0J0000001200D01*
G03X0000263453Y0000004900I-0000001534J0000000457D01*
G02X0000263453Y0000006250I0000000992J0000000675D01*
G03X0000260987Y0000008270I-0000001323J0000000900D01*
G02X0000259273Y0000008270I-0000000857J0000000840D01*
G03X0000256987Y0000008270I-0000001143J-0000001120D01*
G02X0000255273Y0000008270I-0000000857J0000000840D01*
G03X0000252807Y0000006250I-0000001143J-0000001120D01*
G02X0000252807Y0000004900I-0000000992J-0000000675D01*
G03X0000252597Y0000003543I0000001323J-0000000900D01*
G02X0000251447Y0000002000I-0000001150J-0000000343D01*
G01X0000250727Y0000002000D01*
X0000250727Y0000002816D01*
X0000250864Y0000002982D01*
G03X0000250953Y0000004900I-0000001235J0000001018D01*
G02X0000250953Y0000006250I0000000992J0000000675D01*
G03X0000248487Y0000008270I-0000001323J0000000900D01*
G02X0000246773Y0000008270I-0000000857J0000000840D01*
G03X0000244487Y0000008270I-0000001143J-0000001120D01*
G02X0000242773Y0000008270I-0000000857J0000000840D01*
G03X0000240307Y0000006250I-0000001143J-0000001120D01*
G02X0000240307Y0000004900I-0000000992J-0000000675D01*
G03X0000240097Y0000003543I0000001323J-0000000900D01*
G02X0000238947Y0000002000I-0000001150J-0000000343D01*
G01X0000024629Y0000002000D01*
G02X0000023936Y0000004180I0J0000001200D01*
G03X0000004180Y0000023936I-0000008188J0000011568D01*
G02X0000002000Y0000024629I-0000000979J0000000693D01*
G01X0000002000Y0000155000D01*
G02X0000005000Y0000158000I0000003000J0D01*
G01X0000031130Y0000158000D01*
G03X0000035965Y0000159938I0J0000007000D01*
G02X0000037943Y0000159415I0000000829J-0000000868D01*
G03X0000040032Y0000165566I0000005364J0000001609D01*
G02X0000038130Y0000166540I-0000000702J0000000973D01*
G01X0000038130Y0000207083D01*
G02X0000040032Y0000208056I0000001200J0D01*
G03X0000037920Y0000214129I0000003275J0000004543D01*
G02X0000035941Y0000213585I-0000001154J0000000328D01*
G03X0000031130Y0000215500I-0000004811J-0000005085D01*
G01X0000005000Y0000215500D01*
G02X0000002000Y0000218500I0J0000003000D01*
G01X0000002000Y0000247152D01*
G02X0000003758Y0000248215I0000001200J0D01*
G03X0000005043Y0000247898I0000001285J0000002449D01*
G01X0000007406Y0000247898D01*
G03X0000007406Y0000253429I0J0000002766D01*
G01X0000005043Y0000253429D01*
G03X0000003758Y0000253112I0J-0000002766D01*
G02X0000002000Y0000254175I-0000000558J0000001062D01*
G01X0000002000Y0000281168D01*
G02X0000003758Y0000282231I0000001200J0D01*
G03X0000005043Y0000281914I0000001285J0000002449D01*
G01X0000007406Y0000281914D01*
G03X0000007406Y0000287445I0J0000002766D01*
G01X0000005043Y0000287445D01*
G03X0000003758Y0000287128I0J-0000002766D01*
G02X0000002000Y0000288190I-0000000558J0000001062D01*
G01X0000002000Y0000316705D01*
G02X0000003226Y0000317905I0000001200J0D01*
G03X0000003301Y0000317904I0000000075J0000003552D01*
G01X0000007435Y0000317904D01*
G03X0000007435Y0000325010I0J0000003553D01*
G01X0000003301Y0000325010D01*
G03X0000003226Y0000325009I0J-0000003553D01*
G02X0000002000Y0000326209I-0000000026J0000001200D01*
G01X0000002000Y0000341115D01*
G02X0000003226Y0000342314I0000001200J0D01*
G03X0000003301Y0000342314I0000000075J0000003552D01*
G01X0000007435Y0000342314D01*
G03X0000008792Y0000342583I0J0000003553D01*
G02X0000010428Y0000341699I0000000458J-0000001109D01*
G03X0000010534Y0000341359I0000001572J0000000301D01*
G01X0000010584Y0000341118D01*
X0000010249Y0000340579D01*
G03X0000009496Y0000337630I0000000881J-0000001796D01*
G02X0000009496Y0000336938I-0000000490J-0000000346D01*
G03X0000009478Y0000334656I0000001634J-0000001154D01*
G01X0000009582Y0000334318D01*
X0000009478Y0000333980D01*
G03X0000009496Y0000331699I0000001652J-0000001127D01*
G02X0000009496Y0000331006I-0000000490J-0000000346D01*
G03X0000012764Y0000331006I0000001634J-0000001154D01*
G02X0000012764Y0000331699I0000000490J0000000346D01*
G03X0000012782Y0000333980I-0000001634J0000001154D01*
G01X0000012678Y0000334318D01*
X0000012782Y0000334656D01*
G03X0000012764Y0000336938I-0000001652J0000001127D01*
G02X0000012764Y0000337630I0000000490J0000000346D01*
G03X0000013053Y0000339335I-0000001634J0000001154D01*
G01X0000013030Y0000339416D01*
X0000013030Y0000340100D01*
X0000014300Y0000340100D01*
X0000015385Y0000339015D01*
X0000025715Y0000339015D01*
X0000032615Y0000345915D01*
X0000034515Y0000345915D01*
X0000036623Y0000348023D01*
X0000036711Y0000348067D01*
G03X0000035033Y0000350775I-0000000711J0000001433D01*
G02X0000033582Y0000350775I-0000000726J0000000956D01*
G03X0000031083Y0000349033I-0000000967J-0000001275D01*
G01X0000031189Y0000348689D01*
X0000024485Y0000341985D01*
X0000023209Y0000341985D01*
X0000022841Y0000343059D01*
G03X0000020663Y0000349420I-0000002178J0000002807D01*
G01X0000016529Y0000349420D01*
G03X0000013067Y0000345068I0J-0000003553D01*
G02X0000011942Y0000343599I-0000001169J-0000000270D01*
G03X0000011390Y0000343480I0000000058J-0000001599D01*
G01X0000011162Y0000343434D01*
G02X0000010562Y0000344034I0J0000000600D01*
G01X0000010623Y0000344299D01*
G03X0000007435Y0000349420I-0000003188J0000001568D01*
G01X0000003301Y0000349420D01*
G03X0000003226Y0000349419I0J-0000003553D01*
G02X0000002000Y0000350618I-0000000026J0000001200D01*
G01X0000002000Y0000364335D01*
X0000002451Y0000364450D01*
G03X0000009874Y0000374015I-0000002451J0000009565D01*
G01X0000009874Y0000409449D01*
G03X0000002451Y0000419014I-0000009874J0D01*
G01X0000002000Y0000419129D01*
X0000002000Y0000428126D01*
G02X0000004180Y0000428820I0000001200J0D01*
G03X0000023936Y0000448576I0000011568J0000008188D01*
G02X0000024630Y0000450756I0000000693J0000000980D01*
G01X0000089060Y0000450756D01*
G02X0000089578Y0000448473I0J-0000001200D01*
G03X0000101517Y0000448473I0000005970J-0000012489D01*
G02X0000102035Y0000450756I0000000517J0000001083D01*
G01X0000148689Y0000450756D01*
X0000148689Y0000424177D01*
X0000218242Y0000424177D01*
G03X0000232555Y0000424092I0000007226J0000011807D01*
G01X0000232697Y0000424177D01*
X0000233177Y0000424177D01*
X0000234453Y0000425453D01*
X0000234471Y0000425468D01*
G03X0000235999Y0000426999I-0000009002J0000010516D01*
G01X0000239500Y0000430500D01*
X0000239500Y0000450756D01*
X0000329737Y0000450756D01*
G02X0000330430Y0000448576I0J-0000001200D01*
G03X0000350187Y0000428820I0000008189J-0000011568D01*
G02X0000352367Y0000428126I0000000980J-0000000693D01*
G01X0000352367Y0000165200D01*
X0000349497Y0000165200D01*
X0000349200Y0000165497D01*
X0000349200Y0000401497D01*
X0000321997Y0000428700D01*
X0000310298Y0000428700D01*
G02X0000309099Y0000429943I0J0000001200D01*
G03X0000305901Y0000429943I-0000001599J0000000057D01*
G02X0000304702Y0000428700I-0000001199J-0000000043D01*
G01X0000300298Y0000428700D01*
G02X0000299099Y0000429943I0J0000001200D01*
G03X0000295901Y0000429943I-0000001599J0000000057D01*
G02X0000294702Y0000428700I-0000001199J-0000000043D01*
G01X0000293986Y0000428700D01*
X0000293986Y0000429398D01*
X0000294017Y0000429491D01*
G03X0000290901Y0000429943I-0000001517J0000000509D01*
G02X0000289702Y0000428700I-0000001199J-0000000043D01*
G01X0000284294Y0000428700D01*
G02X0000283094Y0000429881I0J0000001200D01*
G03X0000279940Y0000431484I-0000002000J-0000000031D01*
G02X0000279248Y0000431484I-0000000346J0000000490D01*
G03X0000279248Y0000428216I-0000001154J-0000001634D01*
G02X0000279940Y0000428216I0000000346J-0000000490D01*
G03X0000280171Y0000428076I0000001154J0000001634D01*
G02X0000280465Y0000426163I-0000000554J-0000001064D01*
G01X0000278503Y0000424200D01*
X0000277181Y0000424200D01*
X0000277181Y0000424823D01*
X0000277183Y0000424846D01*
G03X0000274035Y0000426634I-0000001994J0000000154D01*
G02X0000273343Y0000426634I-0000000346J0000000490D01*
G03X0000270204Y0000425250I-0000001154J-0000001634D01*
G02X0000269014Y0000424200I-0000001191J0000000150D01*
G01X0000244003Y0000424200D01*
X0000226300Y0000406497D01*
X0000226300Y0000386497D01*
X0000226003Y0000386200D01*
X0000223503Y0000386200D01*
X0000221800Y0000384497D01*
X0000221800Y0000383346D01*
G02X0000220776Y0000382922I-0000000600J0D01*
G01X0000200997Y0000402700D01*
X0000067503Y0000402700D01*
X0000052300Y0000387497D01*
X0000052300Y0000343497D01*
X0000044800Y0000335997D01*
X0000044800Y0000321503D01*
X0000046003Y0000320300D01*
X0000049436Y0000320300D01*
X0000050997Y0000320300D01*
X0000052200Y0000321503D01*
X0000052200Y0000323058D01*
X0000053389Y0000323058D01*
X0000053400Y0000322470D01*
G03X0000054086Y0000323813I0000001600J0000000030D01*
G02X0000052200Y0000324798I-0000000686J0000000985D01*
G01X0000052200Y0000330003D01*
X0000060700Y0000338503D01*
X0000060700Y0000341497D01*
X0000059200Y0000342997D01*
X0000059200Y0000347343D01*
X0000059718Y0000347415D01*
G03X0000059718Y0000350585I-0000000218J0000001585D01*
G01X0000059200Y0000350657D01*
X0000059200Y0000381503D01*
X0000068497Y0000390800D01*
X0000190503Y0000390800D01*
X0000205269Y0000376034D01*
G02X0000204420Y0000373985I-0000000849J-0000000849D01*
G01X0000200385Y0000373985D01*
X0000114015Y0000287615D01*
X0000114015Y0000138615D01*
X0000112015Y0000136615D01*
X0000112015Y0000105615D01*
X0000078762Y0000072363D01*
X0000078674Y0000072319D01*
G03X0000080819Y0000070174I0000000711J-0000001433D01*
G01X0000080863Y0000070262D01*
X0000111966Y0000101366D01*
G02X0000114015Y0000100517I0000000849J-0000000849D01*
G01X0000114015Y0000048385D01*
X0000116515Y0000045885D01*
X0000116515Y0000021782D01*
G02X0000115180Y0000020590I-0000001200J0D01*
G03X0000116188Y0000017928I-0000000180J-0000001590D01*
G02X0000117927Y0000017972I0000000891J-0000000804D01*
G01X0000123023Y0000012877D01*
X0000123067Y0000012789D01*
G03X0000125761Y0000012515I0000001433J0000000711D01*
G01X0000133396Y0000012515D01*
X0000133489Y0000012483D01*
G03X0000133489Y0000015517I0000000511J0000001517D01*
G01X0000133396Y0000015485D01*
X0000132175Y0000015485D01*
X0000132175Y0000016142D01*
X0000132186Y0000016198D01*
G03X0000130104Y0000018017I-0000001572J0000000302D01*
G01X0000130010Y0000017985D01*
X0000127615Y0000017985D01*
X0000125775Y0000019826D01*
G02X0000125713Y0000021457I0000000849J0000000849D01*
G03X0000125671Y0000023591I-0000001213J0000001043D01*
G02X0000125671Y0000024409I0000000439J0000000409D01*
G03X0000124562Y0000027099I-0000001171J0000001091D01*
G01X0000123985Y0000027699D01*
X0000123985Y0000027802D01*
X0000124562Y0000028401D01*
G03X0000125933Y0000029289I-0000000062J0000001599D01*
G01X0000125977Y0000029377D01*
X0000130966Y0000034366D01*
G02X0000133015Y0000033517I0000000849J-0000000849D01*
G01X0000133015Y0000030615D01*
X0000132897Y0000030498D01*
X0000132711Y0000030392D01*
G03X0000134933Y0000028289I0000000789J-0000001392D01*
G01X0000134977Y0000028376D01*
X0000135550Y0000028950D01*
G03X0000135560Y0000028959I-0000001046J0000001055D01*
G01X0000135985Y0000029385D01*
X0000135985Y0000029986D01*
G03X0000135985Y0000030014I-0000001485J0000000014D01*
G01X0000135985Y0000063615D01*
X0000124985Y0000074615D01*
X0000124985Y0000123728D01*
G02X0000126292Y0000124923I0000001200J0D01*
G03X0000126366Y0000124918I0000000143J0000001594D01*
G02X0000127515Y0000123720I-0000000052J-0000001199D01*
G01X0000127515Y0000112385D01*
X0000127933Y0000111967D01*
G37*
G36*
G01X0000046500Y0000321500D02*
X0000046000Y0000322000D01*
X0000046000Y0000335500D01*
X0000053500Y0000343000D01*
X0000053500Y0000387000D01*
X0000068000Y0000401500D01*
X0000200500Y0000401500D01*
X0000223000Y0000379000D01*
X0000223303Y0000379000D01*
X0000223503Y0000378800D01*
X0000237497Y0000378800D01*
X0000237697Y0000379000D01*
X0000246500Y0000379000D01*
X0000252500Y0000373000D01*
X0000252500Y0000358500D01*
X0000250500Y0000356500D01*
X0000244500Y0000356500D01*
X0000244000Y0000357000D01*
X0000244000Y0000359000D01*
X0000246500Y0000361500D01*
X0000246500Y0000361942D01*
X0000246511Y0000361974D01*
G03X0000246511Y0000363026I-0000001511J0000000526D01*
G01X0000246500Y0000363058D01*
X0000246500Y0000365000D01*
X0000242500Y0000369000D01*
X0000230558Y0000369000D01*
X0000230526Y0000369011D01*
G03X0000229474Y0000369011I-0000000526J-0000001511D01*
G01X0000229442Y0000369000D01*
X0000225558Y0000369000D01*
X0000225526Y0000369011D01*
G03X0000224474Y0000369011I-0000000526J-0000001511D01*
G01X0000224442Y0000369000D01*
X0000218058Y0000369000D01*
X0000218026Y0000369011D01*
G03X0000216974Y0000369011I-0000000526J-0000001511D01*
G01X0000216942Y0000369000D01*
X0000215500Y0000369000D01*
X0000214000Y0000370500D01*
X0000214000Y0000371942D01*
X0000214011Y0000371974D01*
G03X0000211974Y0000374011I-0000001511J0000000526D01*
G01X0000211942Y0000374000D01*
X0000209000Y0000374000D01*
X0000191000Y0000392000D01*
X0000068000Y0000392000D01*
X0000058000Y0000382000D01*
X0000058000Y0000349558D01*
X0000057989Y0000349526D01*
G03X0000057989Y0000348474I0000001511J-0000000526D01*
G01X0000058000Y0000348442D01*
X0000058000Y0000342500D01*
X0000059500Y0000341000D01*
X0000059500Y0000339000D01*
X0000051000Y0000330500D01*
X0000051000Y0000322000D01*
X0000050500Y0000321500D01*
X0000049000Y0000321500D01*
X0000046500Y0000321500D01*
G37*
G36*
G01X0000206534Y0000187566D02*
X0000242466Y0000151634D01*
G02X0000241617Y0000149585I-0000000849J-0000000849D01*
G01X0000205485Y0000149585D01*
X0000184885Y0000128985D01*
X0000183534Y0000128985D01*
G02X0000183110Y0000130010I0J0000000600D01*
G01X0000204485Y0000151385D01*
X0000204485Y0000186717D01*
G02X0000206534Y0000187566I0000001200J0D01*
G37*
G36*
G01X0000247617Y0000151385D02*
X0000246915Y0000151385D01*
X0000207485Y0000190815D01*
X0000207485Y0000204517D01*
G02X0000209534Y0000205366I0000001200J0D01*
G01X0000239145Y0000175755D01*
X0000239145Y0000170066D01*
X0000239113Y0000169973D01*
G03X0000240450Y0000167872I0000001517J-0000000511D01*
G02X0000241515Y0000166680I-0000000135J-0000001192D01*
G01X0000241515Y0000160385D01*
X0000248466Y0000153434D01*
G02X0000247617Y0000151385I-0000000849J-0000000849D01*
G37*
G36*
G01X0000210110Y0000139510D02*
X0000211115Y0000140515D01*
X0000293466Y0000140515D01*
G02X0000293890Y0000139490I0J-0000000600D01*
G01X0000292885Y0000138485D01*
X0000210534Y0000138485D01*
G02X0000210110Y0000139510I0J0000000600D01*
G37*
G36*
G01X0000239015Y0000182983D02*
G02X0000236966Y0000182134I-0000001200J0D01*
G01X0000209985Y0000209115D01*
X0000209985Y0000294385D01*
X0000223500Y0000307900D01*
X0000241515Y0000289885D01*
X0000241515Y0000198615D01*
X0000239015Y0000196115D01*
X0000239015Y0000182983D01*
G37*
G36*
G01X0000327000Y0000151500D02*
X0000325500Y0000153000D01*
X0000325500Y0000162500D01*
X0000337000Y0000174000D01*
X0000337000Y0000395500D01*
X0000313000Y0000419500D01*
X0000299000Y0000419500D01*
X0000288500Y0000409000D01*
X0000273058Y0000409000D01*
X0000273026Y0000409011D01*
G03X0000271974Y0000409011I-0000000526J-0000001511D01*
G01X0000271942Y0000409000D01*
X0000263058Y0000409000D01*
X0000263026Y0000409011D01*
G03X0000261974Y0000409011I-0000000526J-0000001511D01*
G01X0000261942Y0000409000D01*
X0000249500Y0000409000D01*
X0000238500Y0000398000D01*
X0000238500Y0000381500D01*
X0000237000Y0000380000D01*
X0000224000Y0000380000D01*
X0000223000Y0000381000D01*
X0000223000Y0000384000D01*
X0000224000Y0000385000D01*
X0000226500Y0000385000D01*
X0000227500Y0000386000D01*
X0000227500Y0000406000D01*
X0000244500Y0000423000D01*
X0000272162Y0000423000D01*
G03X0000272216Y0000423000I0000000027J0000002000D01*
G01X0000275162Y0000423000D01*
G03X0000275216Y0000423000I0000000027J0000002000D01*
G01X0000279000Y0000423000D01*
X0000283500Y0000427500D01*
X0000321500Y0000427500D01*
X0000348000Y0000401000D01*
X0000348000Y0000165000D01*
X0000349000Y0000164000D01*
X0000351500Y0000164000D01*
X0000352000Y0000163500D01*
X0000352000Y0000161000D01*
X0000351500Y0000160500D01*
X0000350500Y0000160500D01*
X0000349500Y0000159500D01*
X0000343657Y0000159500D01*
G03X0000343603Y0000159500I-0000000027J-0000002000D01*
G01X0000340027Y0000159500D01*
G03X0000339973Y0000159500I-0000000027J-0000002000D01*
G01X0000338000Y0000159500D01*
X0000336000Y0000157500D01*
X0000336000Y0000153000D01*
X0000334500Y0000151500D01*
X0000327000Y0000151500D01*
G37*
G36*
G01X0000260485Y0000177333D02*
X0000260485Y0000177615D01*
X0000256985Y0000181115D01*
X0000256985Y0000290517D01*
G02X0000259034Y0000291366I0000001200J0D01*
G01X0000282515Y0000267885D01*
X0000282515Y0000255385D01*
X0000288523Y0000249377D01*
X0000288567Y0000249289D01*
G03X0000290180Y0000248410I0000001433J0000000711D01*
G02X0000291515Y0000247218I0000000135J-0000001192D01*
G01X0000291515Y0000246401D01*
X0000290784Y0000246401D01*
X0000290665Y0000246455D01*
G03X0000290180Y0000243410I-0000000665J-0000001455D01*
G02X0000291515Y0000242218I0000000135J-0000001192D01*
G01X0000291515Y0000227782D01*
G02X0000290180Y0000226590I-0000001200J0D01*
G03X0000289266Y0000223578I-0000000180J-0000001590D01*
G02X0000289563Y0000221664I-0000000551J-0000001066D01*
G01X0000289377Y0000221477D01*
X0000289289Y0000221433D01*
G03X0000291433Y0000219289I0000000711J-0000001433D01*
G01X0000291477Y0000219377D01*
X0000293466Y0000221366D01*
G02X0000295515Y0000220517I0000000849J-0000000849D01*
G01X0000295515Y0000204115D01*
X0000274185Y0000182785D01*
X0000266985Y0000182785D01*
X0000261226Y0000177027D01*
X0000260485Y0000177333D01*
G37*
G36*
G01X0000268178Y0000152410D02*
X0000268753Y0000152985D01*
X0000268841Y0000153029D01*
G03X0000266697Y0000155174I-0000000711J0000001433D01*
G01X0000266653Y0000155086D01*
X0000265453Y0000153885D01*
X0000265050Y0000153885D01*
G02X0000264202Y0000155934I0J0000001200D01*
G01X0000264485Y0000156217D01*
X0000264485Y0000158110D01*
G02X0000266534Y0000158958I0000001200J0D01*
G01X0000266653Y0000158839D01*
X0000266697Y0000158751D01*
G03X0000269552Y0000158728I0000001433J0000000711D01*
G02X0000271466Y0000159026I0000001066J-0000000551D01*
G01X0000271653Y0000158839D01*
X0000271697Y0000158751D01*
G03X0000273841Y0000160896I0000001433J0000000711D01*
G01X0000273753Y0000160939D01*
X0000267426Y0000167267D01*
X0000268010Y0000167851D01*
X0000268235Y0000167865D01*
G03X0000268641Y0000167946I-0000000105J0000001597D01*
G01X0000268734Y0000167977D01*
X0000278077Y0000167977D01*
X0000305485Y0000195385D01*
X0000305485Y0000255885D01*
X0000306115Y0000256515D01*
X0000309615Y0000256515D01*
X0000309774Y0000256674D01*
X0000310515Y0000256367D01*
X0000310515Y0000196385D01*
X0000314015Y0000192885D01*
X0000314015Y0000174794D01*
G02X0000312894Y0000173597I-0000001200J0D01*
G03X0000311567Y0000172711I0000000106J-0000001597D01*
G01X0000311523Y0000172623D01*
X0000290285Y0000151385D01*
X0000268602Y0000151385D01*
G02X0000268178Y0000152410I0J0000000600D01*
G37*
%LPC*%
G75*
G36*
G01X0000016529Y0000325010D02*
X0000020663Y0000325010D01*
G02X0000020663Y0000317904I0J-0000003553D01*
G01X0000016529Y0000317904D01*
G02X0000016529Y0000325010I0J0000003553D01*
G37*
G36*
G01X0000020004Y0000287445D02*
X0000022366Y0000287445D01*
G02X0000022366Y0000281914I0J-0000002765D01*
G01X0000020004Y0000281914D01*
G02X0000020004Y0000287445I0J0000002766D01*
G37*
G36*
G01X0000020004Y0000253429D02*
X0000022366Y0000253429D01*
G02X0000022366Y0000247898I0J-0000002765D01*
G01X0000020004Y0000247898D01*
G02X0000020004Y0000253429I0J0000002766D01*
G37*
G36*
G01X0000267437Y0000431484D02*
G03X0000268130Y0000431484I0000000346J0000000490D01*
G02X0000268130Y0000428216I0000001154J-0000001634D01*
G03X0000267437Y0000428216I-0000000346J-0000000490D01*
G02X0000267437Y0000431484I-0000001154J0000001634D01*
G37*
G36*
G01X0000106134Y0000386346D02*
G03X0000106134Y0000385654I0000000490J-0000000346D01*
G02X0000102866Y0000385654I-0000001634J-0000001154D01*
G03X0000102866Y0000386346I-0000000490J0000000346D01*
G02X0000106134Y0000386346I0000001634J0000001154D01*
G37*
G36*
G01X0000081634Y0000386346D02*
G03X0000081634Y0000385654I0000000490J-0000000346D01*
G02X0000078366Y0000385654I-0000001634J-0000001154D01*
G03X0000078366Y0000386346I-0000000490J0000000346D01*
G02X0000081634Y0000386346I0000001634J0000001154D01*
G37*
G36*
G01X0000120634Y0000381757D02*
G03X0000120634Y0000381065I0000000490J-0000000346D01*
G02X0000117366Y0000381065I-0000001634J-0000001154D01*
G03X0000117366Y0000381757I-0000000490J0000000346D01*
G02X0000120634Y0000381757I0000001634J0000001154D01*
G37*
G36*
G01X0000109134Y0000376846D02*
G03X0000109134Y0000376154I0000000490J-0000000346D01*
G02X0000105866Y0000376154I-0000001634J-0000001154D01*
G03X0000105866Y0000376846I-0000000490J0000000346D01*
G02X0000109134Y0000376846I0000001634J0000001154D01*
G37*
G36*
G01X0000121134Y0000371346D02*
G03X0000121134Y0000370654I0000000490J-0000000346D01*
G02X0000117866Y0000370654I-0000001634J-0000001154D01*
G03X0000117866Y0000371346I-0000000490J0000000346D01*
G02X0000121134Y0000371346I0000001634J0000001154D01*
G37*
G36*
G01X0000076634Y0000364072D02*
G03X0000076634Y0000363380I0000000490J-0000000346D01*
G02X0000073366Y0000363380I-0000001634J-0000001154D01*
G03X0000073366Y0000364072I-0000000490J0000000346D01*
G02X0000076634Y0000364072I0000001634J0000001154D01*
G37*
G36*
G01X0000078634Y0000353346D02*
G03X0000078634Y0000352654I0000000490J-0000000346D01*
G02X0000075366Y0000352654I-0000001634J-0000001154D01*
G03X0000075366Y0000353346I-0000000490J0000000346D01*
G02X0000078634Y0000353346I0000001634J0000001154D01*
G37*
G36*
G01X0000134134Y0000349206D02*
G03X0000134134Y0000348514I0000000490J-0000000346D01*
G02X0000130866Y0000348514I-0000001634J-0000001154D01*
G03X0000130866Y0000349206I-0000000490J0000000346D01*
G02X0000134134Y0000349206I0000001634J0000001154D01*
G37*
G36*
G01X0000065014Y0000346134D02*
G03X0000065706Y0000346134I0000000346J0000000490D01*
G02X0000065706Y0000342866I0000001154J-0000001634D01*
G03X0000065014Y0000342866I-0000000346J-0000000490D01*
G02X0000065014Y0000346134I-0000001154J0000001634D01*
G37*
G36*
G01X0000081634Y0000343815D02*
G03X0000081634Y0000343122I0000000490J-0000000346D01*
G02X0000078366Y0000343122I-0000001634J-0000001154D01*
G03X0000078366Y0000343815I-0000000490J0000000346D01*
G02X0000081634Y0000343815I0000001634J0000001154D01*
G37*
G36*
G01X0000141634Y0000343206D02*
G03X0000141634Y0000342514I0000000490J-0000000346D01*
G02X0000138366Y0000342514I-0000001634J-0000001154D01*
G03X0000138366Y0000343206I-0000000490J0000000346D01*
G02X0000141634Y0000343206I0000001634J0000001154D01*
G37*
G36*
G01X0000073014Y0000339634D02*
G03X0000073706Y0000339634I0000000346J0000000490D01*
G02X0000073706Y0000336366I0000001154J-0000001634D01*
G03X0000073014Y0000336366I-0000000346J-0000000490D01*
G02X0000073014Y0000339634I-0000001154J0000001634D01*
G37*
G36*
G01X0000096634Y0000339090D02*
G03X0000096634Y0000338398I0000000490J-0000000346D01*
G02X0000093366Y0000338398I-0000001634J-0000001154D01*
G03X0000093366Y0000339090I-0000000490J0000000346D01*
G02X0000096634Y0000339090I0000001634J0000001154D01*
G37*
G36*
G01X0000134134Y0000336706D02*
G03X0000134134Y0000336014I0000000490J-0000000346D01*
G02X0000130866Y0000336014I-0000001634J-0000001154D01*
G03X0000130866Y0000336706I-0000000490J0000000346D01*
G02X0000134134Y0000336706I0000001634J0000001154D01*
G37*
G36*
G01X0000081634Y0000334366D02*
G03X0000081634Y0000333674I0000000490J-0000000346D01*
G02X0000078366Y0000333674I-0000001634J-0000001154D01*
G03X0000078366Y0000334366I-0000000490J0000000346D01*
G02X0000081634Y0000334366I0000001634J0000001154D01*
G37*
G36*
G01X0000141634Y0000330706D02*
G03X0000141634Y0000330014I0000000490J-0000000346D01*
G02X0000138366Y0000330014I-0000001634J-0000001154D01*
G03X0000138366Y0000330706I-0000000490J0000000346D01*
G02X0000141634Y0000330706I0000001634J0000001154D01*
G37*
G36*
G01X0000030674Y0000327731D02*
G03X0000030674Y0000328424I-0000000490J0000000346D01*
G02X0000030871Y0000330970I0000001634J0000001154D01*
G03X0000030870Y0000331807I-0000000431J0000000418D01*
G02X0000030666Y0000334359I0000001430J0000001398D01*
G03X0000030666Y0000335051I-0000000490J0000000346D01*
G02X0000033934Y0000335051I0000001634J0000001154D01*
G03X0000033934Y0000334359I0000000490J-0000000346D01*
G02X0000033736Y0000331813I-0000001634J-0000001154D01*
G03X0000033738Y0000330976I0000000431J-0000000418D01*
G02X0000033941Y0000328424I-0000001430J-0000001398D01*
G03X0000033941Y0000327731I0000000490J-0000000346D01*
G02X0000030674Y0000327731I-0000001634J-0000001154D01*
G37*
G36*
G01X0000134134Y0000324917D02*
G03X0000134134Y0000324225I0000000490J-0000000346D01*
G02X0000130866Y0000324225I-0000001634J-0000001154D01*
G03X0000130866Y0000324917I-0000000490J0000000346D01*
G02X0000134134Y0000324917I0000001634J0000001154D01*
G37*
G36*
G01X0000094933Y0000315580D02*
G03X0000094933Y0000314888I0000000490J-0000000346D01*
G02X0000091666Y0000314888I-0000001634J-0000001154D01*
G03X0000091666Y0000315580I-0000000490J0000000346D01*
G02X0000094933Y0000315580I0000001634J0000001154D01*
G37*
G36*
G01X0000327609Y0000305532D02*
G03X0000327609Y0000304724I0000000444J-0000000404D01*
G02X0000324651Y0000304724I-0000001479J-0000001346D01*
G03X0000324651Y0000305532I-0000000444J0000000404D01*
G02X0000327609Y0000305532I0000001479J0000001346D01*
G37*
G36*
G01X0000178846Y0000198866D02*
G03X0000178154Y0000198866I-0000000346J-0000000490D01*
G02X0000178154Y0000202134I-0000001154J0000001634D01*
G03X0000178846Y0000202134I0000000346J0000000490D01*
G02X0000178846Y0000198866I0000001154J-0000001634D01*
G37*
G36*
G01X0000064039Y0000176829D02*
G03X0000063221Y0000176829I-0000000409J-0000000439D01*
G02X0000063221Y0000179171I-0000001091J0000001171D01*
G03X0000064039Y0000179171I0000000409J0000000439D01*
G02X0000064039Y0000176829I0000001091J-0000001171D01*
G37*
G36*
G01X0000342134Y0000146004D02*
G03X0000341327Y0000146004I-0000000404J-0000000444D01*
G02X0000341327Y0000148962I-0000001346J0000001479D01*
G03X0000342134Y0000148962I0000000404J0000000444D01*
G02X0000342134Y0000146004I0000001346J-0000001479D01*
G37*
G36*
G01X0000342134Y0000140504D02*
G03X0000341327Y0000140504I-0000000404J-0000000444D01*
G02X0000341327Y0000143462I-0000001346J0000001479D01*
G03X0000342134Y0000143462I0000000404J0000000444D01*
G02X0000342134Y0000140504I0000001346J-0000001479D01*
G37*
G36*
G01X0000342134Y0000135004D02*
G03X0000341327Y0000135004I-0000000404J-0000000444D01*
G02X0000341327Y0000137962I-0000001346J0000001479D01*
G03X0000342134Y0000137962I0000000404J0000000444D01*
G02X0000342134Y0000135004I0000001346J-0000001479D01*
G37*
G36*
G01X0000205773Y0000018880D02*
G02X0000203510Y0000021143I-0000001143J0000001120D01*
G03X0000203510Y0000022857I-0000000840J0000000857D01*
G02X0000205773Y0000025120I0000001120J0000001143D01*
G03X0000207487Y0000025120I0000000857J0000000840D01*
G02X0000209773Y0000025120I0000001143J-0000001120D01*
G03X0000211487Y0000025120I0000000857J0000000840D01*
G02X0000213750Y0000022857I0000001143J-0000001120D01*
G03X0000213750Y0000021143I0000000840J-0000000857D01*
G02X0000211487Y0000018880I-0000001120J-0000001143D01*
G03X0000209773Y0000018880I-0000000857J-0000000840D01*
G02X0000207487Y0000018880I-0000001143J0000001120D01*
G03X0000205773Y0000018880I-0000000857J-0000000840D01*
G37*
G36*
G01X0000212750Y0000048143D02*
G02X0000210510Y0000048143I-0000001120J-0000001143D01*
G03X0000210510Y0000049857I-0000000840J0000000857D01*
G02X0000212750Y0000049857I0000001120J0000001143D01*
G03X0000212750Y0000048143I0000000840J-0000000857D01*
G37*
G36*
G01X0000217750Y0000048143D02*
G02X0000215510Y0000048143I-0000001120J-0000001143D01*
G03X0000215510Y0000049857I-0000000840J0000000857D01*
G02X0000217750Y0000049857I0000001120J0000001143D01*
G03X0000217750Y0000048143I0000000840J-0000000857D01*
G37*
G36*
G01X0000300551Y0000073380D02*
G02X0000300551Y0000075620I-0000001143J0000001120D01*
G03X0000302265Y0000075620I0000000857J0000000840D01*
G02X0000302265Y0000073380I0000001143J-0000001120D01*
G03X0000300551Y0000073380I-0000000857J-0000000840D01*
G37*
G36*
G01X0000026249Y0000088500D02*
G02X0000023751Y0000088500I-0000001249J-0000001000D01*
G03X0000023751Y0000090000I-0000000937J0000000750D01*
G02X0000026249Y0000090000I0000001249J0000001000D01*
G03X0000026249Y0000088500I0000000937J-0000000750D01*
G37*
G36*
G01X0000323273Y0000117880D02*
G02X0000323273Y0000120120I-0000001143J0000001120D01*
G03X0000324987Y0000120120I0000000857J0000000840D01*
G02X0000327273Y0000120120I0000001143J-0000001120D01*
G03X0000328987Y0000120120I0000000857J0000000840D01*
G02X0000331130Y0000120249I0000001143J-0000001120D01*
G03X0000332630Y0000120249I0000000750J0000000937D01*
G02X0000332630Y0000117751I0000001000J-0000001249D01*
G03X0000331130Y0000117751I-0000000750J-0000000937D01*
G02X0000328987Y0000117880I-0000001000J0000001249D01*
G03X0000327273Y0000117880I-0000000857J-0000000840D01*
G02X0000324987Y0000117880I-0000001143J0000001120D01*
G03X0000323273Y0000117880I-0000000857J-0000000840D01*
G37*
G36*
G01X0000323273Y0000126880D02*
G02X0000323273Y0000129120I-0000001143J0000001120D01*
G03X0000324987Y0000129120I0000000857J0000000840D01*
G02X0000327273Y0000129120I0000001143J-0000001120D01*
G03X0000328987Y0000129120I0000000857J0000000840D01*
G02X0000328987Y0000126880I0000001143J-0000001120D01*
G03X0000327273Y0000126880I-0000000857J-0000000840D01*
G02X0000324987Y0000126880I-0000001143J0000001120D01*
G03X0000323273Y0000126880I-0000000857J-0000000840D01*
G37*
G36*
G01X0000109515Y0000276385D02*
X0000079885Y0000306015D01*
X0000046385Y0000306015D01*
X0000040015Y0000312385D01*
X0000040015Y0000320206D01*
G03X0000038894Y0000321403I-0000001200J0D01*
G02X0000037483Y0000323511I0000000106J0000001597D01*
G01X0000037515Y0000323604D01*
X0000037515Y0000340336D01*
X0000037074Y0000340457D01*
G02X0000038543Y0000343213I0000000426J0000001543D01*
G03X0000040174Y0000343275I0000000782J0000000910D01*
G01X0000043523Y0000346623D01*
X0000043567Y0000346711D01*
G02X0000045180Y0000347590I0000001433J-0000000711D01*
G03X0000046515Y0000348782I0000000135J0000001192D01*
G01X0000046515Y0000384999D01*
X0000031877Y0000399637D01*
X0000031789Y0000399681D01*
G02X0000033933Y0000401826I0000000711J0000001433D01*
G01X0000033977Y0000401738D01*
X0000049485Y0000386229D01*
X0000049485Y0000344385D01*
X0000042985Y0000337885D01*
X0000042985Y0000313615D01*
X0000047615Y0000308985D01*
X0000081115Y0000308985D01*
X0000112485Y0000277615D01*
X0000112485Y0000142104D01*
X0000112517Y0000142011D01*
G02X0000109483Y0000142011I-0000001517J-0000000511D01*
G01X0000109515Y0000142104D01*
X0000109515Y0000239053D01*
G03X0000107296Y0000239687I-0000001200J0D01*
G02X0000107296Y0000254327I-0000011749J0000007320D01*
G03X0000109515Y0000254962I0000001018J0000000635D01*
G01X0000109515Y0000276385D01*
G37*
G36*
G01X0000051025Y0000180748D02*
G02X0000045024Y0000185903I-0000003388J0000002127D01*
G03X0000045024Y0000187720I-0000000784J0000000909D01*
G02X0000050251Y0000187720I0000002613J0000003028D01*
G03X0000050251Y0000185903I0000000784J-0000000908D01*
G02X0000051268Y0000184553I-0000002613J-0000003028D01*
G03X0000052847Y0000183961I0000001089J0000000504D01*
G02X0000054591Y0000183671I0000000653J-0000001461D01*
G03X0000055409Y0000183671I0000000409J0000000439D01*
G02X0000055409Y0000181329I0000001091J-0000001171D01*
G03X0000054591Y0000181329I-0000000409J-0000000439D01*
G02X0000052667Y0000181134I-0000001091J0000001171D01*
G03X0000051025Y0000180748I-0000000625J-0000001024D01*
G37*
G36*
G01X0000189143Y0000223880D02*
G02X0000189143Y0000226120I-0000001143J0000001120D01*
G03X0000190857Y0000226120I0000000857J0000000840D01*
G02X0000190857Y0000223880I0000001143J-0000001120D01*
G03X0000189143Y0000223880I-0000000857J-0000000840D01*
G37*
G36*
G01X0000330092Y0000286337D02*
G02X0000326908Y0000286337I-0000001592J0000000163D01*
G03X0000325837Y0000287408I-0000001194J-0000000122D01*
G02X0000327592Y0000289163I0000000163J0000001592D01*
G03X0000328663Y0000288092I0000001194J0000000122D01*
G02X0000328736Y0000288083I-0000000164J-0000001592D01*
G03X0000329417Y0000288764I0000000088J0000000593D01*
G02X0000331163Y0000287408I0000001583J0000000235D01*
G03X0000330092Y0000286337I0000000122J-0000001194D01*
G37*
G36*
G01X0000322609Y0000310629D02*
G02X0000319651Y0000310629I-0000001479J-0000001346D01*
G03X0000319651Y0000311436I-0000000444J0000000404D01*
G02X0000321967Y0000314599I0000001479J0000001346D01*
G03X0000323654Y0000315502I0000000502J0000001090D01*
G02X0000324151Y0000316535I0000001976J-0000000313D01*
G03X0000324151Y0000317343I-0000000444J0000000404D01*
G02X0000323654Y0000318375I0000001479J0000001346D01*
G03X0000321967Y0000319277I-0000001185J-0000000188D01*
G02X0000319651Y0000322440I-0000000837J0000001817D01*
G03X0000319651Y0000323248I-0000000444J0000000404D01*
G02X0000321967Y0000326410I0000001479J0000001346D01*
G03X0000323654Y0000327313I0000000502J0000001090D01*
G02X0000324151Y0000328346I0000001976J-0000000313D01*
G03X0000324151Y0000329154I-0000000444J0000000404D01*
G02X0000327109Y0000329154I0000001479J0000001346D01*
G03X0000327109Y0000328346I0000000444J-0000000404D01*
G02X0000324793Y0000325183I-0000001479J-0000001346D01*
G03X0000323106Y0000324281I-0000000502J-0000001090D01*
G02X0000322609Y0000323248I-0000001976J0000000313D01*
G03X0000322609Y0000322440I0000000444J-0000000404D01*
G02X0000323106Y0000321407I-0000001479J-0000001346D01*
G03X0000324793Y0000320506I0000001185J0000000188D01*
G02X0000327109Y0000317343I0000000837J-0000001817D01*
G03X0000327109Y0000316535I0000000444J-0000000404D01*
G02X0000324793Y0000313372I-0000001479J-0000001346D01*
G03X0000323106Y0000312470I-0000000502J-0000001090D01*
G02X0000322609Y0000311436I-0000001976J0000000313D01*
G03X0000322609Y0000310629I0000000444J-0000000404D01*
G37*
G36*
G01X0000049974Y0000319100D02*
X0000050000Y0000319100D01*
X0000050026Y0000319100D01*
G02X0000049974Y0000319100I-0000000026J-0000001600D01*
G37*
G36*
G01X0000333625Y0000160138D02*
G02X0000331775Y0000160426I-0000001125J-0000001138D01*
G03X0000331875Y0000161068I-0000000181J0000000357D01*
G02X0000331800Y0000161147I0000001124J0000001139D01*
G03X0000331200Y0000161147I-0000000300J-0000000265D01*
G02X0000331200Y0000163264I-0000001200J0000001059D01*
G03X0000331800Y0000163264I0000000300J0000000265D01*
G02X0000333725Y0000160779I0000001200J-0000001059D01*
G03X0000333625Y0000160138I0000000181J-0000000357D01*
G37*
G54D28*
X0000225469Y0000247007D03*
G54D25*
X0000027500Y0000394500D03*
X0000032500Y0000394500D03*
X0000055000Y0000080000D03*
X0000050000Y0000080000D03*
X0000055000Y0000085000D03*
X0000050000Y0000085000D03*
X0000050000Y0000257500D03*
X0000055000Y0000257500D03*
X0000050000Y0000252500D03*
X0000055000Y0000252500D03*
X0000055000Y0000312500D03*
X0000050000Y0000312500D03*
X0000055000Y0000317500D03*
X0000077500Y0000205000D03*
X0000077500Y0000210000D03*
X0000065000Y0000220000D03*
X0000070000Y0000215000D03*
X0000070000Y0000220000D03*
X0000065000Y0000215000D03*
X0000082614Y0000063886D03*
X0000082500Y0000210000D03*
X0000082500Y0000205000D03*
X0000104000Y0000353000D03*
X0000109000Y0000353000D03*
X0000104000Y0000348000D03*
X0000109000Y0000348000D03*
X0000138935Y0000144017D03*
X0000141073Y0000148509D03*
X0000151435Y0000139017D03*
X0000160565Y0000149017D03*
X0000144565Y0000152017D03*
X0000155000Y0000180500D03*
X0000160000Y0000180500D03*
X0000160000Y0000220500D03*
X0000150000Y0000220000D03*
X0000172630Y0000067000D03*
X0000172886Y0000180114D03*
X0000165000Y0000170500D03*
X0000165000Y0000175500D03*
X0000176500Y0000225000D03*
X0000225000Y0000092500D03*
X0000225000Y0000087500D03*
X0000221630Y0000118870D03*
X0000238630Y0000081114D03*
X0000230000Y0000087500D03*
X0000235000Y0000087500D03*
X0000240000Y0000087500D03*
X0000240000Y0000092500D03*
X0000235000Y0000092500D03*
X0000230000Y0000092500D03*
X0000275130Y0000070614D03*
X0000272500Y0000402500D03*
X0000279016Y0000012114D03*
X0000285630Y0000037500D03*
X0000277500Y0000402500D03*
X0000310000Y0000342500D03*
X0000295000Y0000362500D03*
X0000295000Y0000367500D03*
X0000225000Y0000372500D03*
X0000217500Y0000372602D03*
X0000230000Y0000372500D03*
X0000233630Y0000175462D03*
X0000272500Y0000412500D03*
X0000277500Y0000412500D03*
X0000297000Y0000421886D03*
X0000332500Y0000154000D03*
X0000342500Y0000166142D03*
X0000340630Y0000175000D03*
X0000340630Y0000185000D03*
X0000340630Y0000195000D03*
X0000340630Y0000205000D03*
X0000340630Y0000215000D03*
X0000340000Y0000222500D03*
X0000340630Y0000245000D03*
X0000340630Y0000235000D03*
X0000340630Y0000260000D03*
X0000340500Y0000266000D03*
X0000266130Y0000215500D03*
X0000278130Y0000199462D03*
X0000278130Y0000204462D03*
X0000296630Y0000176500D03*
G54D27*
X0000047637Y0000200591D03*
G54D26*
X0000047637Y0000173031D03*
G54D23*
X0000017520Y0000401575D03*
G54D24*
X0000017520Y0000381890D03*
%LPD*%
G75*
G54D10*
X0000015748Y0000015748D03*
X0000015748Y0000437008D03*
X0000338619Y0000015748D03*
X0000338619Y0000437008D03*
G54D20*
G01X0000292744Y0000045500D02*
X0000303000Y0000035244D01*
X0000303000Y0000030500D01*
X0000301000Y0000028500D01*
X0000293500Y0000028500D01*
X0000288500Y0000023500D01*
X0000279000Y0000023500D01*
X0000271000Y0000031500D01*
X0000252500Y0000031500D01*
X0000250000Y0000029000D01*
G01X0000292744Y0000045500D02*
X0000290244Y0000048000D01*
X0000281130Y0000048000D01*
X0000278630Y0000045500D01*
G54D11*
X0000005630Y0000035000D03*
X0000005630Y0000065000D03*
X0000005630Y0000055000D03*
X0000005630Y0000105000D03*
X0000005630Y0000113500D03*
X0000005630Y0000125000D03*
X0000005630Y0000145000D03*
X0000005630Y0000135000D03*
X0000003500Y0000227500D03*
X0000010000Y0000227500D03*
X0000003500Y0000220000D03*
X0000003500Y0000242500D03*
X0000003500Y0000235000D03*
X0000010000Y0000242500D03*
X0000010000Y0000235000D03*
X0000005630Y0000260000D03*
X0000005630Y0000280000D03*
X0000011000Y0000276000D03*
X0000005630Y0000270000D03*
X0000011000Y0000265500D03*
X0000005630Y0000295000D03*
X0000005630Y0000305000D03*
X0000005630Y0000330000D03*
X0000005630Y0000315000D03*
X0000011130Y0000329853D03*
X0000005630Y0000340000D03*
X0000011130Y0000338784D03*
X0000011130Y0000332853D03*
X0000011130Y0000335784D03*
X0000005000Y0000355000D03*
X0000015630Y0000035000D03*
X0000025630Y0000035000D03*
X0000025630Y0000045000D03*
X0000015630Y0000065000D03*
X0000025630Y0000065000D03*
X0000015630Y0000055000D03*
X0000025630Y0000055000D03*
X0000025500Y0000096000D03*
X0000025000Y0000087500D03*
X0000025000Y0000091000D03*
X0000015630Y0000105000D03*
X0000016000Y0000098500D03*
X0000015630Y0000113500D03*
X0000025630Y0000105000D03*
X0000025500Y0000100000D03*
X0000025630Y0000113500D03*
X0000015630Y0000125000D03*
X0000025630Y0000125000D03*
X0000015630Y0000145000D03*
X0000015630Y0000135000D03*
X0000025630Y0000145000D03*
X0000025630Y0000135000D03*
X0000025630Y0000155000D03*
X0000017500Y0000227500D03*
X0000025000Y0000227500D03*
X0000025000Y0000220000D03*
X0000017500Y0000242500D03*
X0000025000Y0000242500D03*
X0000017500Y0000235000D03*
X0000025000Y0000235000D03*
X0000027500Y0000255000D03*
X0000012000Y0000257500D03*
X0000015630Y0000280000D03*
X0000015630Y0000295000D03*
X0000025630Y0000295000D03*
X0000015630Y0000305000D03*
X0000025630Y0000305000D03*
X0000015630Y0000315000D03*
X0000025630Y0000315000D03*
X0000014500Y0000328500D03*
X0000014000Y0000334000D03*
X0000014000Y0000339600D03*
X0000012000Y0000342000D03*
X0000025000Y0000355000D03*
X0000015000Y0000355000D03*
X0000015000Y0000375000D03*
X0000025000Y0000375000D03*
X0000015000Y0000365000D03*
X0000025000Y0000365000D03*
X0000020000Y0000395000D03*
X0000025000Y0000385000D03*
X0000027500Y0000394500D03*
X0000025000Y0000410000D03*
X0000015000Y0000410000D03*
X0000025000Y0000420000D03*
X0000015000Y0000420000D03*
X0000035630Y0000005000D03*
X0000035630Y0000015000D03*
X0000035630Y0000025000D03*
X0000035630Y0000035000D03*
X0000035630Y0000045000D03*
X0000035630Y0000145000D03*
X0000035630Y0000155000D03*
X0000040630Y0000175000D03*
X0000040630Y0000195000D03*
X0000040630Y0000185000D03*
X0000040630Y0000205000D03*
X0000032500Y0000220000D03*
X0000040000Y0000220000D03*
X0000040000Y0000227500D03*
X0000032500Y0000227500D03*
X0000037500Y0000246500D03*
X0000032500Y0000242500D03*
X0000032500Y0000235000D03*
X0000040000Y0000235000D03*
X0000032500Y0000257500D03*
X0000028000Y0000261000D03*
X0000035500Y0000261000D03*
X0000032500Y0000250000D03*
X0000037130Y0000265000D03*
X0000037130Y0000270000D03*
X0000030000Y0000292500D03*
X0000030000Y0000285000D03*
X0000035630Y0000295000D03*
X0000037500Y0000285000D03*
X0000029500Y0000325500D03*
X0000029500Y0000331000D03*
X0000032307Y0000329578D03*
X0000032307Y0000326578D03*
X0000039000Y0000323000D03*
X0000029500Y0000337500D03*
X0000044500Y0000337500D03*
X0000032300Y0000336205D03*
X0000032300Y0000333205D03*
X0000037500Y0000342000D03*
X0000035000Y0000355000D03*
X0000039500Y0000349500D03*
X0000032614Y0000349500D03*
X0000036000Y0000349500D03*
X0000035000Y0000375000D03*
X0000035000Y0000365000D03*
X0000035000Y0000385000D03*
X0000032500Y0000394500D03*
X0000035000Y0000410000D03*
X0000032500Y0000401114D03*
X0000035000Y0000430000D03*
X0000035000Y0000420000D03*
X0000035000Y0000445000D03*
X0000035000Y0000440000D03*
X0000045630Y0000005000D03*
X0000053130Y0000005000D03*
X0000045630Y0000015000D03*
X0000053130Y0000015000D03*
X0000045630Y0000025000D03*
X0000053130Y0000025000D03*
X0000045630Y0000035000D03*
X0000055000Y0000055000D03*
X0000055000Y0000080000D03*
X0000050000Y0000080000D03*
X0000055000Y0000085000D03*
X0000050000Y0000085000D03*
X0000057000Y0000179500D03*
X0000053500Y0000179500D03*
X0000053500Y0000182500D03*
X0000056500Y0000182500D03*
X0000047500Y0000227500D03*
X0000047500Y0000220000D03*
X0000047500Y0000235000D03*
X0000050000Y0000257500D03*
X0000055000Y0000257500D03*
X0000050000Y0000252500D03*
X0000055000Y0000252500D03*
X0000055500Y0000275000D03*
X0000050500Y0000275000D03*
X0000055500Y0000267500D03*
X0000049500Y0000267500D03*
X0000045000Y0000285000D03*
X0000055000Y0000312500D03*
X0000050000Y0000312500D03*
X0000050000Y0000322500D03*
X0000055000Y0000322500D03*
X0000050000Y0000317500D03*
X0000055000Y0000317500D03*
X0000058500Y0000340000D03*
X0000055000Y0000340000D03*
X0000059000Y0000331500D03*
X0000050969Y0000345469D03*
X0000045000Y0000346000D03*
X0000059500Y0000349000D03*
X0000060500Y0000378000D03*
X0000060500Y0000372500D03*
X0000060500Y0000367000D03*
X0000045000Y0000365000D03*
X0000045000Y0000375000D03*
X0000045000Y0000385000D03*
X0000055000Y0000410000D03*
X0000045000Y0000410000D03*
X0000055000Y0000430000D03*
X0000045000Y0000430000D03*
X0000055000Y0000420000D03*
X0000045000Y0000420000D03*
X0000055000Y0000445000D03*
X0000045000Y0000445000D03*
X0000055000Y0000440000D03*
X0000045000Y0000440000D03*
X0000075630Y0000005000D03*
X0000065630Y0000005000D03*
X0000070630Y0000005000D03*
X0000065500Y0000010000D03*
X0000070500Y0000010000D03*
X0000077500Y0000042500D03*
X0000070000Y0000042500D03*
X0000062000Y0000063500D03*
X0000066000Y0000062500D03*
X0000077500Y0000050000D03*
X0000077500Y0000057500D03*
X0000070000Y0000050000D03*
X0000062500Y0000050000D03*
X0000062130Y0000178000D03*
X0000065130Y0000178000D03*
X0000061750Y0000195880D03*
X0000065000Y0000196000D03*
X0000077500Y0000205000D03*
X0000077500Y0000210000D03*
X0000077500Y0000215000D03*
X0000077500Y0000225000D03*
X0000065000Y0000220000D03*
X0000070000Y0000215000D03*
X0000070000Y0000220000D03*
X0000065000Y0000215000D03*
X0000077500Y0000245000D03*
X0000077500Y0000235000D03*
X0000077500Y0000255000D03*
X0000077500Y0000275000D03*
X0000077500Y0000265000D03*
X0000065000Y0000292500D03*
X0000075000Y0000287500D03*
X0000075000Y0000300000D03*
X0000062500Y0000300000D03*
X0000070000Y0000312500D03*
X0000072500Y0000325000D03*
X0000072500Y0000317500D03*
X0000062500Y0000317500D03*
X0000062500Y0000325000D03*
X0000069500Y0000334500D03*
X0000064500Y0000331500D03*
X0000062500Y0000347000D03*
X0000069000Y0000347000D03*
X0000070500Y0000341000D03*
X0000076500Y0000341000D03*
X0000063860Y0000344500D03*
X0000066860Y0000344500D03*
X0000071860Y0000338000D03*
X0000074860Y0000338000D03*
X0000074000Y0000350000D03*
X0000071500Y0000360500D03*
X0000077000Y0000351500D03*
X0000077000Y0000354500D03*
X0000075000Y0000362226D03*
X0000065500Y0000378000D03*
X0000065500Y0000372500D03*
X0000071000Y0000372500D03*
X0000071500Y0000367000D03*
X0000065500Y0000367000D03*
X0000075000Y0000365226D03*
X0000075000Y0000410000D03*
X0000065000Y0000410000D03*
X0000075000Y0000430000D03*
X0000065000Y0000430000D03*
X0000075000Y0000420000D03*
X0000065000Y0000420000D03*
X0000075000Y0000445000D03*
X0000065000Y0000445000D03*
X0000075000Y0000440000D03*
X0000065000Y0000440000D03*
X0000078500Y0000027500D03*
X0000082000Y0000030500D03*
X0000085000Y0000042500D03*
X0000092500Y0000042500D03*
X0000092500Y0000050000D03*
X0000085000Y0000050000D03*
X0000082614Y0000063886D03*
X0000092500Y0000070000D03*
X0000079386Y0000070886D03*
X0000092500Y0000092500D03*
X0000087500Y0000125000D03*
X0000087500Y0000150000D03*
X0000087500Y0000162500D03*
X0000087500Y0000175000D03*
X0000087500Y0000200000D03*
X0000087500Y0000212500D03*
X0000082500Y0000210000D03*
X0000082500Y0000205000D03*
X0000087500Y0000225000D03*
X0000087500Y0000262500D03*
X0000087500Y0000275000D03*
X0000085000Y0000295000D03*
X0000087500Y0000287500D03*
X0000090000Y0000305000D03*
X0000093300Y0000313734D03*
X0000080000Y0000317500D03*
X0000080000Y0000325000D03*
X0000084500Y0000322209D03*
X0000082500Y0000331000D03*
X0000091000Y0000325000D03*
X0000091000Y0000319000D03*
X0000093300Y0000316734D03*
X0000091500Y0000347000D03*
X0000082500Y0000340500D03*
X0000082500Y0000337000D03*
X0000080000Y0000335520D03*
X0000080000Y0000332520D03*
X0000080000Y0000341968D03*
X0000080000Y0000344968D03*
X0000079500Y0000356000D03*
X0000091500Y0000360004D03*
X0000091500Y0000350555D03*
X0000091500Y0000355280D03*
X0000092500Y0000378000D03*
X0000092500Y0000375000D03*
X0000091500Y0000368500D03*
X0000091272Y0000364728D03*
X0000080000Y0000387500D03*
X0000080000Y0000384500D03*
X0000083000Y0000389000D03*
X0000083000Y0000383000D03*
X0000087500Y0000404500D03*
X0000087500Y0000411000D03*
X0000085000Y0000420000D03*
X0000100500Y0000015000D03*
X0000097000Y0000017500D03*
X0000107500Y0000042500D03*
X0000100000Y0000042500D03*
X0000100000Y0000062500D03*
X0000100000Y0000075000D03*
X0000100000Y0000082500D03*
X0000107500Y0000087500D03*
X0000107500Y0000107500D03*
X0000100000Y0000100000D03*
X0000100000Y0000137500D03*
X0000100000Y0000162500D03*
X0000100000Y0000175000D03*
X0000100000Y0000187500D03*
X0000100000Y0000200000D03*
X0000100000Y0000212500D03*
X0000100000Y0000225000D03*
X0000100000Y0000262500D03*
X0000100000Y0000275000D03*
X0000098500Y0000283000D03*
X0000110000Y0000297500D03*
X0000100000Y0000295000D03*
X0000105000Y0000290000D03*
X0000110000Y0000285000D03*
X0000107500Y0000312500D03*
X0000105000Y0000302500D03*
X0000100000Y0000307500D03*
X0000095000Y0000300000D03*
X0000107500Y0000320000D03*
X0000096000Y0000330500D03*
X0000096000Y0000325000D03*
X0000096000Y0000321000D03*
X0000102984Y0000317484D03*
X0000096000Y0000343000D03*
X0000096000Y0000334500D03*
X0000095000Y0000340244D03*
X0000095000Y0000337244D03*
X0000104000Y0000353000D03*
X0000103996Y0000360004D03*
X0000104000Y0000356000D03*
X0000109000Y0000353000D03*
X0000104000Y0000348000D03*
X0000109000Y0000348000D03*
X0000107500Y0000375000D03*
X0000107500Y0000378000D03*
X0000105000Y0000373500D03*
X0000104402Y0000378902D03*
X0000104272Y0000364728D03*
X0000104500Y0000368000D03*
X0000104500Y0000384500D03*
X0000108000Y0000384500D03*
X0000108000Y0000388000D03*
X0000095500Y0000388350D03*
X0000095626Y0000383626D03*
X0000104500Y0000387500D03*
X0000100000Y0000411000D03*
X0000100000Y0000404500D03*
X0000105000Y0000420000D03*
X0000095000Y0000420000D03*
X0000124500Y0000013500D03*
X0000124500Y0000030000D03*
X0000124500Y0000022500D03*
X0000124500Y0000025500D03*
X0000115000Y0000019000D03*
X0000115000Y0000042500D03*
X0000112500Y0000050000D03*
X0000112500Y0000062500D03*
X0000126130Y0000055500D03*
X0000126130Y0000059500D03*
X0000122130Y0000055500D03*
X0000122130Y0000059500D03*
X0000118130Y0000055500D03*
X0000118130Y0000059500D03*
X0000112500Y0000075000D03*
X0000126000Y0000094517D03*
X0000126435Y0000126517D03*
X0000111000Y0000141500D03*
X0000115000Y0000292500D03*
X0000117500Y0000302500D03*
X0000112500Y0000307500D03*
X0000121500Y0000355500D03*
X0000121500Y0000361500D03*
X0000119000Y0000379911D03*
X0000119500Y0000369500D03*
X0000111500Y0000378500D03*
X0000118000Y0000367000D03*
X0000118000Y0000375000D03*
X0000122000Y0000378647D03*
X0000119500Y0000372500D03*
X0000119000Y0000382911D03*
X0000122000Y0000384147D03*
X0000115000Y0000411000D03*
X0000115000Y0000404500D03*
X0000125000Y0000420000D03*
X0000115000Y0000420000D03*
X0000125000Y0000430000D03*
X0000115000Y0000430000D03*
X0000125000Y0000440000D03*
X0000115000Y0000440000D03*
X0000140130Y0000014500D03*
X0000134000Y0000014000D03*
X0000133500Y0000024500D03*
X0000133500Y0000029000D03*
X0000135000Y0000019500D03*
X0000140000Y0000019500D03*
X0000142500Y0000027500D03*
X0000128000Y0000019000D03*
X0000130614Y0000016500D03*
X0000136435Y0000081517D03*
X0000135935Y0000089017D03*
X0000141435Y0000094017D03*
X0000135935Y0000094017D03*
X0000133435Y0000109017D03*
X0000128935Y0000109017D03*
X0000128935Y0000104017D03*
X0000133500Y0000104000D03*
X0000141000Y0000107500D03*
X0000131435Y0000126517D03*
X0000136435Y0000126517D03*
X0000141435Y0000126517D03*
X0000138935Y0000144017D03*
X0000141741Y0000162759D03*
X0000141073Y0000148509D03*
X0000140000Y0000202500D03*
X0000140000Y0000212500D03*
X0000140000Y0000225000D03*
X0000140000Y0000237500D03*
X0000140000Y0000252500D03*
X0000137500Y0000317500D03*
X0000135500Y0000321500D03*
X0000136000Y0000327500D03*
X0000142500Y0000327000D03*
X0000132500Y0000323071D03*
X0000140000Y0000328860D03*
X0000132500Y0000326071D03*
X0000142500Y0000333500D03*
X0000136000Y0000333500D03*
X0000135500Y0000339500D03*
X0000143500Y0000340000D03*
X0000143500Y0000346000D03*
X0000136000Y0000346000D03*
X0000132500Y0000334860D03*
X0000140000Y0000341360D03*
X0000132500Y0000347360D03*
X0000140000Y0000331860D03*
X0000132500Y0000337860D03*
X0000140000Y0000344360D03*
X0000142500Y0000354000D03*
X0000142000Y0000362500D03*
X0000135500Y0000359000D03*
X0000136000Y0000352000D03*
X0000132500Y0000350360D03*
X0000141500Y0000372500D03*
X0000135500Y0000376000D03*
X0000136000Y0000367500D03*
X0000129500Y0000411000D03*
X0000129500Y0000404500D03*
X0000135000Y0000420000D03*
X0000135000Y0000430000D03*
X0000135000Y0000440000D03*
X0000145130Y0000014500D03*
X0000154500Y0000015000D03*
X0000147500Y0000030000D03*
X0000155000Y0000022500D03*
X0000144500Y0000024000D03*
X0000149000Y0000019000D03*
X0000160000Y0000072500D03*
X0000157935Y0000087517D03*
X0000152435Y0000087517D03*
X0000145935Y0000088017D03*
X0000145935Y0000092517D03*
X0000158935Y0000104017D03*
X0000153935Y0000104017D03*
X0000148935Y0000104017D03*
X0000148935Y0000109017D03*
X0000148935Y0000100017D03*
X0000158935Y0000100017D03*
X0000153935Y0000100017D03*
X0000146435Y0000126517D03*
X0000146435Y0000139017D03*
X0000151435Y0000139017D03*
X0000150565Y0000149017D03*
X0000154565Y0000149017D03*
X0000160565Y0000149017D03*
X0000144565Y0000152017D03*
X0000144886Y0000180386D03*
X0000160000Y0000170500D03*
X0000160000Y0000175500D03*
X0000155000Y0000180500D03*
X0000160000Y0000180500D03*
X0000152500Y0000230500D03*
X0000157500Y0000230500D03*
X0000150000Y0000225500D03*
X0000160000Y0000220500D03*
X0000150000Y0000220000D03*
X0000155000Y0000240000D03*
X0000157500Y0000262500D03*
X0000155000Y0000250000D03*
X0000150000Y0000270000D03*
X0000147500Y0000411000D03*
X0000147500Y0000404500D03*
X0000155000Y0000420000D03*
X0000145000Y0000420000D03*
X0000145000Y0000430000D03*
X0000145000Y0000440000D03*
X0000162500Y0000022500D03*
X0000172630Y0000067000D03*
X0000165000Y0000072500D03*
X0000170000Y0000072500D03*
X0000175000Y0000072500D03*
X0000167130Y0000067000D03*
X0000173935Y0000089017D03*
X0000168935Y0000089017D03*
X0000162500Y0000087500D03*
X0000163935Y0000100017D03*
X0000171435Y0000116517D03*
X0000176435Y0000116517D03*
X0000163935Y0000116517D03*
X0000163935Y0000124017D03*
X0000176435Y0000121517D03*
X0000165451Y0000146017D03*
X0000176435Y0000161517D03*
X0000170000Y0000165000D03*
X0000165000Y0000165000D03*
X0000172500Y0000175500D03*
X0000172886Y0000180114D03*
X0000165000Y0000170500D03*
X0000165000Y0000175500D03*
X0000177000Y0000200500D03*
X0000167500Y0000230500D03*
X0000171000Y0000225000D03*
X0000162500Y0000230500D03*
X0000176500Y0000225000D03*
X0000175000Y0000245000D03*
X0000170000Y0000235000D03*
X0000165000Y0000240000D03*
X0000165000Y0000255000D03*
X0000175000Y0000282500D03*
X0000167500Y0000290000D03*
X0000167500Y0000345000D03*
X0000167500Y0000355000D03*
X0000175000Y0000355000D03*
X0000167500Y0000375000D03*
X0000167500Y0000365000D03*
X0000175000Y0000365000D03*
X0000175000Y0000375000D03*
X0000167500Y0000385000D03*
X0000175000Y0000385000D03*
X0000162500Y0000411000D03*
X0000162500Y0000404500D03*
X0000175000Y0000420000D03*
X0000165000Y0000420000D03*
X0000182630Y0000035500D03*
X0000186630Y0000035500D03*
X0000191630Y0000035500D03*
X0000189130Y0000039500D03*
X0000192500Y0000065000D03*
X0000182500Y0000065000D03*
X0000187500Y0000065000D03*
X0000182500Y0000060000D03*
X0000187500Y0000060000D03*
X0000192500Y0000060000D03*
X0000192500Y0000055000D03*
X0000192500Y0000072500D03*
X0000187500Y0000072500D03*
X0000182500Y0000072500D03*
X0000186321Y0000131631D03*
X0000186435Y0000119017D03*
X0000180565Y0000143017D03*
X0000185000Y0000155000D03*
X0000185000Y0000160000D03*
X0000190000Y0000155000D03*
X0000190000Y0000160000D03*
X0000181435Y0000156517D03*
X0000180000Y0000170000D03*
X0000185000Y0000170000D03*
X0000190000Y0000175000D03*
X0000190000Y0000170000D03*
X0000185000Y0000175500D03*
X0000177500Y0000197000D03*
X0000181000Y0000197000D03*
X0000180000Y0000200500D03*
X0000182001Y0000225001D03*
X0000188000Y0000225000D03*
X0000192000Y0000225000D03*
X0000187500Y0000232500D03*
X0000182500Y0000237500D03*
X0000190000Y0000267500D03*
X0000182500Y0000275000D03*
X0000185000Y0000320000D03*
X0000185000Y0000330000D03*
X0000185000Y0000365000D03*
X0000185000Y0000375000D03*
X0000185000Y0000385000D03*
X0000192500Y0000411000D03*
X0000192500Y0000404500D03*
X0000177500Y0000411000D03*
X0000177500Y0000404500D03*
X0000185000Y0000420000D03*
X0000204630Y0000024000D03*
X0000204630Y0000020000D03*
X0000208630Y0000024000D03*
X0000208630Y0000020000D03*
X0000206630Y0000031000D03*
X0000201630Y0000031000D03*
X0000196630Y0000031000D03*
X0000196630Y0000035500D03*
X0000201630Y0000035500D03*
X0000206630Y0000035500D03*
X0000206630Y0000040500D03*
X0000197500Y0000065000D03*
X0000197500Y0000060000D03*
X0000197500Y0000055000D03*
X0000197500Y0000072500D03*
X0000195000Y0000110000D03*
X0000205000Y0000110000D03*
X0000205000Y0000120000D03*
X0000210000Y0000155000D03*
X0000210000Y0000160000D03*
X0000195000Y0000170000D03*
X0000195000Y0000175000D03*
X0000210000Y0000170000D03*
X0000195000Y0000262500D03*
X0000195000Y0000325000D03*
X0000195000Y0000315000D03*
X0000195000Y0000335000D03*
X0000207500Y0000347500D03*
X0000202500Y0000347500D03*
X0000202500Y0000352500D03*
X0000207500Y0000352500D03*
X0000195000Y0000375000D03*
X0000210000Y0000411000D03*
X0000210000Y0000404500D03*
X0000205000Y0000420000D03*
X0000195000Y0000420000D03*
X0000212630Y0000024000D03*
X0000212630Y0000020000D03*
X0000211630Y0000031000D03*
X0000211630Y0000047000D03*
X0000216630Y0000047000D03*
X0000211630Y0000040500D03*
X0000211630Y0000035500D03*
X0000211630Y0000051000D03*
X0000216630Y0000051000D03*
X0000211630Y0000060000D03*
X0000216630Y0000060000D03*
X0000216630Y0000055500D03*
X0000211630Y0000055500D03*
X0000225000Y0000092500D03*
X0000225000Y0000087500D03*
X0000215000Y0000120000D03*
X0000215000Y0000130000D03*
X0000221630Y0000118870D03*
X0000223500Y0000139500D03*
X0000213000Y0000139500D03*
X0000221500Y0000133870D03*
X0000220000Y0000160000D03*
X0000220000Y0000155000D03*
X0000215000Y0000160000D03*
X0000215000Y0000155000D03*
X0000215000Y0000195000D03*
X0000220000Y0000190000D03*
X0000225000Y0000185000D03*
X0000212500Y0000200000D03*
X0000220000Y0000220000D03*
X0000220000Y0000230000D03*
X0000215000Y0000260000D03*
X0000215000Y0000290000D03*
X0000225000Y0000290000D03*
X0000224000Y0000306000D03*
X0000217500Y0000312500D03*
X0000217500Y0000327500D03*
X0000217500Y0000322500D03*
X0000217516Y0000317484D03*
X0000212500Y0000327500D03*
X0000225000Y0000347500D03*
X0000217500Y0000337500D03*
X0000225000Y0000342500D03*
X0000225000Y0000332500D03*
X0000212500Y0000337500D03*
X0000217500Y0000332500D03*
X0000225000Y0000337500D03*
X0000212500Y0000332500D03*
X0000217500Y0000342500D03*
X0000212500Y0000347500D03*
X0000212500Y0000342500D03*
X0000217594Y0000347406D03*
X0000217500Y0000352500D03*
X0000217500Y0000362500D03*
X0000225000Y0000357500D03*
X0000225000Y0000352500D03*
X0000225000Y0000362500D03*
X0000212500Y0000352500D03*
X0000212500Y0000377500D03*
X0000217500Y0000377500D03*
X0000225000Y0000377500D03*
X0000217500Y0000367500D03*
X0000212500Y0000367500D03*
X0000225000Y0000367500D03*
X0000225000Y0000372500D03*
X0000212500Y0000372500D03*
X0000217500Y0000372602D03*
X0000225000Y0000382500D03*
X0000225000Y0000387500D03*
X0000225000Y0000420000D03*
X0000215000Y0000420000D03*
X0000235630Y0000006650D03*
X0000235630Y0000003500D03*
X0000231630Y0000003500D03*
X0000231630Y0000006650D03*
X0000228130Y0000003500D03*
X0000228130Y0000006650D03*
X0000241630Y0000007150D03*
X0000241630Y0000004000D03*
X0000227630Y0000019000D03*
X0000227630Y0000023000D03*
X0000233130Y0000023000D03*
X0000233130Y0000019000D03*
X0000227630Y0000029500D03*
X0000233130Y0000029500D03*
X0000238500Y0000036000D03*
X0000233630Y0000036000D03*
X0000227630Y0000036000D03*
X0000227630Y0000042000D03*
X0000233130Y0000045500D03*
X0000227630Y0000047500D03*
X0000232687Y0000050557D03*
X0000232687Y0000055557D03*
X0000227630Y0000052000D03*
X0000237630Y0000050500D03*
X0000237630Y0000055500D03*
X0000238630Y0000081114D03*
X0000230000Y0000087500D03*
X0000235000Y0000087500D03*
X0000240000Y0000087500D03*
X0000240000Y0000092500D03*
X0000235000Y0000092500D03*
X0000230000Y0000092500D03*
X0000240000Y0000139500D03*
X0000230000Y0000180000D03*
X0000233630Y0000170462D03*
X0000233630Y0000175462D03*
X0000240630Y0000169462D03*
X0000240000Y0000210000D03*
X0000230000Y0000210000D03*
X0000240000Y0000230000D03*
X0000240000Y0000220000D03*
X0000230000Y0000220000D03*
X0000230000Y0000230000D03*
X0000240000Y0000240000D03*
X0000240000Y0000260000D03*
X0000232000Y0000297500D03*
X0000240000Y0000312500D03*
X0000227500Y0000302000D03*
X0000230000Y0000312500D03*
X0000240000Y0000327500D03*
X0000230000Y0000327500D03*
X0000240000Y0000322500D03*
X0000230016Y0000317484D03*
X0000230000Y0000322500D03*
X0000230000Y0000342500D03*
X0000230000Y0000337500D03*
X0000240000Y0000332500D03*
X0000230000Y0000347500D03*
X0000240000Y0000342500D03*
X0000230000Y0000332500D03*
X0000240000Y0000347500D03*
X0000230000Y0000352500D03*
X0000240000Y0000357500D03*
X0000240000Y0000362500D03*
X0000230000Y0000362500D03*
X0000230000Y0000357500D03*
X0000240000Y0000352500D03*
X0000230000Y0000377500D03*
X0000230000Y0000367500D03*
X0000230000Y0000372500D03*
X0000230000Y0000382500D03*
X0000242500Y0000445500D03*
X0000258130Y0000007150D03*
X0000258130Y0000004000D03*
X0000254130Y0000007150D03*
X0000254130Y0000004000D03*
X0000245630Y0000007150D03*
X0000249630Y0000007150D03*
X0000245630Y0000004000D03*
X0000249630Y0000004000D03*
X0000250000Y0000029000D03*
X0000248630Y0000044200D03*
X0000251630Y0000044200D03*
X0000248630Y0000047000D03*
X0000251630Y0000047000D03*
X0000258000Y0000074500D03*
X0000250000Y0000139500D03*
X0000253130Y0000154462D03*
X0000253130Y0000164462D03*
X0000253130Y0000174462D03*
X0000253130Y0000169462D03*
X0000245630Y0000186962D03*
X0000245630Y0000191962D03*
X0000250000Y0000317500D03*
X0000245000Y0000327500D03*
X0000245000Y0000347500D03*
X0000257500Y0000332500D03*
X0000245000Y0000332500D03*
X0000245000Y0000337500D03*
X0000250000Y0000337500D03*
X0000250000Y0000362500D03*
X0000250000Y0000357500D03*
X0000245000Y0000357500D03*
X0000245000Y0000352500D03*
X0000245000Y0000362500D03*
X0000257500Y0000352500D03*
X0000260000Y0000390000D03*
X0000260000Y0000385000D03*
X0000252500Y0000390000D03*
X0000245000Y0000435000D03*
X0000250000Y0000445000D03*
X0000266630Y0000004000D03*
X0000266630Y0000007150D03*
X0000270630Y0000007150D03*
X0000270630Y0000004000D03*
X0000277000Y0000004000D03*
X0000274630Y0000012000D03*
X0000262130Y0000007150D03*
X0000262130Y0000004000D03*
X0000274630Y0000015500D03*
X0000265130Y0000017000D03*
X0000269130Y0000017000D03*
X0000269130Y0000021000D03*
X0000269130Y0000025000D03*
X0000265130Y0000025000D03*
X0000269130Y0000028500D03*
X0000266500Y0000047000D03*
X0000272430Y0000064100D03*
X0000269730Y0000061700D03*
X0000272610Y0000057980D03*
X0000273730Y0000061100D03*
X0000266500Y0000054000D03*
X0000266500Y0000050500D03*
X0000265500Y0000074500D03*
X0000262000Y0000071000D03*
X0000275130Y0000070614D03*
X0000265630Y0000116962D03*
X0000275630Y0000139462D03*
X0000263130Y0000139462D03*
X0000273130Y0000154462D03*
X0000273130Y0000159462D03*
X0000260630Y0000154462D03*
X0000268130Y0000159462D03*
X0000268130Y0000154462D03*
X0000260630Y0000159462D03*
X0000276500Y0000180000D03*
X0000273130Y0000171962D03*
X0000268130Y0000169462D03*
X0000268130Y0000174462D03*
X0000275630Y0000189462D03*
X0000263130Y0000191962D03*
X0000263130Y0000199462D03*
X0000265000Y0000230000D03*
X0000275000Y0000230000D03*
X0000275630Y0000216962D03*
X0000270630Y0000216962D03*
X0000266130Y0000215500D03*
X0000275000Y0000240000D03*
X0000265000Y0000240000D03*
X0000265000Y0000250000D03*
X0000275000Y0000250000D03*
X0000275000Y0000260000D03*
X0000265000Y0000260000D03*
X0000265000Y0000347500D03*
X0000270000Y0000362500D03*
X0000265000Y0000362500D03*
X0000275000Y0000352500D03*
X0000265000Y0000352500D03*
X0000275000Y0000362500D03*
X0000270000Y0000380000D03*
X0000265000Y0000375000D03*
X0000265000Y0000380000D03*
X0000265000Y0000367500D03*
X0000270000Y0000367500D03*
X0000275000Y0000367500D03*
X0000265000Y0000390000D03*
X0000265000Y0000385000D03*
X0000270000Y0000390000D03*
X0000270000Y0000385000D03*
X0000262500Y0000407500D03*
X0000272500Y0000407500D03*
X0000272500Y0000402500D03*
X0000272500Y0000412500D03*
X0000263000Y0000430000D03*
X0000268500Y0000425000D03*
X0000269283Y0000429850D03*
X0000275189Y0000425000D03*
X0000272189Y0000425000D03*
X0000266283Y0000429850D03*
X0000276642Y0000439000D03*
X0000270736Y0000439000D03*
X0000264831Y0000439000D03*
X0000286000Y0000005000D03*
X0000290630Y0000005000D03*
X0000290630Y0000015000D03*
X0000282244Y0000012000D03*
X0000279016Y0000012114D03*
X0000285200Y0000031100D03*
X0000285130Y0000026000D03*
X0000284130Y0000045500D03*
X0000278630Y0000045500D03*
X0000292744Y0000045500D03*
X0000285630Y0000037500D03*
X0000285130Y0000062000D03*
X0000285130Y0000056500D03*
X0000287130Y0000070614D03*
X0000280630Y0000126962D03*
X0000291130Y0000176500D03*
X0000278130Y0000194462D03*
X0000283130Y0000199462D03*
X0000287630Y0000199462D03*
X0000278130Y0000199462D03*
X0000278130Y0000204462D03*
X0000290000Y0000220000D03*
X0000290000Y0000225000D03*
X0000290000Y0000245000D03*
X0000290000Y0000240000D03*
X0000290000Y0000235000D03*
X0000290000Y0000250000D03*
X0000290000Y0000255000D03*
X0000290000Y0000260000D03*
X0000290000Y0000312500D03*
X0000277500Y0000322500D03*
X0000277500Y0000315000D03*
X0000277500Y0000330000D03*
X0000287500Y0000332500D03*
X0000287500Y0000340000D03*
X0000282430Y0000357500D03*
X0000290630Y0000357500D03*
X0000286430Y0000357500D03*
X0000282430Y0000353500D03*
X0000282430Y0000349500D03*
X0000290630Y0000353500D03*
X0000290630Y0000349500D03*
X0000286430Y0000349500D03*
X0000286430Y0000353500D03*
X0000285000Y0000367500D03*
X0000277500Y0000402500D03*
X0000277500Y0000412500D03*
X0000285000Y0000430000D03*
X0000278500Y0000425000D03*
X0000292500Y0000430000D03*
X0000278094Y0000429850D03*
X0000281094Y0000429850D03*
X0000285000Y0000445000D03*
X0000288453Y0000439000D03*
X0000282547Y0000439000D03*
X0000295000Y0000009500D03*
X0000300630Y0000005000D03*
X0000300630Y0000015000D03*
X0000300130Y0000031500D03*
X0000296500Y0000020500D03*
X0000296500Y0000026000D03*
X0000296100Y0000031300D03*
X0000296000Y0000037000D03*
X0000308630Y0000044000D03*
X0000307000Y0000063000D03*
X0000308630Y0000054000D03*
X0000308630Y0000049000D03*
X0000303408Y0000074500D03*
X0000299408Y0000074500D03*
X0000307630Y0000092000D03*
X0000305000Y0000172500D03*
X0000296630Y0000176500D03*
X0000305000Y0000192500D03*
X0000305000Y0000182500D03*
X0000307500Y0000230000D03*
X0000307500Y0000225000D03*
X0000307500Y0000240000D03*
X0000310000Y0000262500D03*
X0000307500Y0000255000D03*
X0000307500Y0000250000D03*
X0000305500Y0000262500D03*
X0000310000Y0000290000D03*
X0000310000Y0000295000D03*
X0000310000Y0000300000D03*
X0000310000Y0000342500D03*
X0000295000Y0000332500D03*
X0000310000Y0000347500D03*
X0000295000Y0000362500D03*
X0000310000Y0000362500D03*
X0000310000Y0000357500D03*
X0000310000Y0000352500D03*
X0000295000Y0000367500D03*
X0000304500Y0000397500D03*
X0000304500Y0000392500D03*
X0000305000Y0000412500D03*
X0000310000Y0000412500D03*
X0000310000Y0000402500D03*
X0000304500Y0000402500D03*
X0000307500Y0000430000D03*
X0000305000Y0000417500D03*
X0000297000Y0000421886D03*
X0000297500Y0000430000D03*
X0000310000Y0000417500D03*
X0000300500Y0000417500D03*
X0000305000Y0000445000D03*
X0000295000Y0000445000D03*
X0000300000Y0000440000D03*
X0000295000Y0000440000D03*
X0000320630Y0000005000D03*
X0000320630Y0000015000D03*
X0000310630Y0000005000D03*
X0000310630Y0000015000D03*
X0000310630Y0000025000D03*
X0000319630Y0000044000D03*
X0000325630Y0000044000D03*
X0000310630Y0000035000D03*
X0000314130Y0000044000D03*
X0000319630Y0000049000D03*
X0000325630Y0000049000D03*
X0000320000Y0000056000D03*
X0000325500Y0000057000D03*
X0000314130Y0000049000D03*
X0000314500Y0000056500D03*
X0000325630Y0000095000D03*
X0000315630Y0000095000D03*
X0000312630Y0000092000D03*
X0000316000Y0000085500D03*
X0000325000Y0000085000D03*
X0000321000Y0000090000D03*
X0000318500Y0000102500D03*
X0000322130Y0000119000D03*
X0000326130Y0000119000D03*
X0000322130Y0000128000D03*
X0000326130Y0000128000D03*
X0000321630Y0000142500D03*
X0000320000Y0000155000D03*
X0000313000Y0000172000D03*
X0000312500Y0000192500D03*
X0000312500Y0000182500D03*
X0000317500Y0000220000D03*
X0000322500Y0000220000D03*
X0000317500Y0000215000D03*
X0000322500Y0000215000D03*
X0000315000Y0000295000D03*
X0000315000Y0000290000D03*
X0000326000Y0000289000D03*
X0000314989Y0000299989D03*
X0000318130Y0000309500D03*
X0000318337Y0000313793D03*
X0000326130Y0000303378D03*
X0000321130Y0000312783D03*
X0000326130Y0000306878D03*
X0000321130Y0000309283D03*
X0000318130Y0000325500D03*
X0000318327Y0000319697D03*
X0000312000Y0000326000D03*
X0000325630Y0000330500D03*
X0000325630Y0000318689D03*
X0000321130Y0000321094D03*
X0000325630Y0000315189D03*
X0000321130Y0000324594D03*
X0000325630Y0000327000D03*
X0000318130Y0000331500D03*
X0000317500Y0000392500D03*
X0000315000Y0000412500D03*
X0000315000Y0000407500D03*
X0000315000Y0000402500D03*
X0000325000Y0000445000D03*
X0000335630Y0000035000D03*
X0000340000Y0000042500D03*
X0000341000Y0000064500D03*
X0000335630Y0000050000D03*
X0000331000Y0000055500D03*
X0000338500Y0000055500D03*
X0000340500Y0000072000D03*
X0000341000Y0000078000D03*
X0000335630Y0000095000D03*
X0000335630Y0000085000D03*
X0000329500Y0000090000D03*
X0000327500Y0000105000D03*
X0000335630Y0000105000D03*
X0000340000Y0000111500D03*
X0000330130Y0000119000D03*
X0000333630Y0000119000D03*
X0000330130Y0000128000D03*
X0000342500Y0000122500D03*
X0000343480Y0000141983D03*
X0000339980Y0000147483D03*
X0000339980Y0000141983D03*
X0000343480Y0000147483D03*
X0000339980Y0000136483D03*
X0000331630Y0000142500D03*
X0000331630Y0000136500D03*
X0000343480Y0000136483D03*
X0000330000Y0000162206D03*
X0000333000Y0000162206D03*
X0000327130Y0000159000D03*
X0000343500Y0000153000D03*
X0000340000Y0000157500D03*
X0000332500Y0000159000D03*
X0000332500Y0000154000D03*
X0000340000Y0000153000D03*
X0000342500Y0000166142D03*
X0000340630Y0000175000D03*
X0000330630Y0000175000D03*
X0000330630Y0000185000D03*
X0000340630Y0000185000D03*
X0000330630Y0000195000D03*
X0000340630Y0000195000D03*
X0000330630Y0000205000D03*
X0000340630Y0000205000D03*
X0000330630Y0000215000D03*
X0000340630Y0000215000D03*
X0000340000Y0000222500D03*
X0000333000Y0000241157D03*
X0000340630Y0000245000D03*
X0000340630Y0000235000D03*
X0000340630Y0000260000D03*
X0000330630Y0000260000D03*
X0000330630Y0000250000D03*
X0000340500Y0000266000D03*
X0000328500Y0000286500D03*
X0000331000Y0000289000D03*
X0000329000Y0000296000D03*
X0000329000Y0000302166D03*
X0000328630Y0000313793D03*
X0000329130Y0000308000D03*
X0000328630Y0000325604D03*
X0000328638Y0000319697D03*
X0000328638Y0000331508D03*
X0000345630Y0000035000D03*
X0000348500Y0000043500D03*
X0000348500Y0000065000D03*
X0000345630Y0000050000D03*
X0000345630Y0000060000D03*
X0000351000Y0000060500D03*
X0000348500Y0000078500D03*
X0000350000Y0000090000D03*
X0000345630Y0000095000D03*
X0000345630Y0000085000D03*
X0000350000Y0000100000D03*
X0000345630Y0000105000D03*
X0000349500Y0000111500D03*
X0000345630Y0000115000D03*
X0000350500Y0000125000D03*
X0000349500Y0000122000D03*
X0000351000Y0000142144D03*
X0000351000Y0000137419D03*
X0000344200Y0000161024D03*
X0000351000Y0000162000D03*
X0000343630Y0000157500D03*
X0000351000Y0000155500D03*
X0000351000Y0000149500D03*
X0000351000Y0000158662D03*
X0000350630Y0000175000D03*
X0000350500Y0000166159D03*
X0000350630Y0000185000D03*
X0000350630Y0000195000D03*
X0000350630Y0000205000D03*
X0000350630Y0000215000D03*
X0000350630Y0000225000D03*
X0000350630Y0000245000D03*
X0000350630Y0000235000D03*
X0000350630Y0000260000D03*
X0000350630Y0000280000D03*
X0000350630Y0000270000D03*
X0000350630Y0000290000D03*
X0000350630Y0000310000D03*
X0000350630Y0000300000D03*
X0000350000Y0000315000D03*
X0000350000Y0000325000D03*
X0000350000Y0000340000D03*
X0000350000Y0000350000D03*
X0000350000Y0000360000D03*
X0000350000Y0000370000D03*
X0000350000Y0000400000D03*
X0000350000Y0000410000D03*
X0000350000Y0000420000D03*
G54D21*
G01X0000043307Y0000206398D02*
X0000043307Y0000212599D01*
G01X0000043307Y0000212599D02*
X0000043307Y0000218799D01*
G01X0000043307Y0000212599D02*
X0000049507Y0000212599D01*
G54D12*
X0000006224Y0000250664D03*
X0000006224Y0000284679D03*
X0000021185Y0000250664D03*
X0000021185Y0000284679D03*
G54D22*
G01X0000006224Y0000247298D02*
X0000006224Y0000250664D01*
G01X0000006224Y0000250664D02*
X0000006224Y0000254029D01*
G01X0000006224Y0000250664D02*
X0000010771Y0000250664D01*
G01X0000006224Y0000281314D02*
X0000006224Y0000284679D01*
G01X0000006224Y0000284679D02*
X0000006224Y0000288045D01*
G01X0000006224Y0000284679D02*
X0000010771Y0000284679D01*
G01X0000005368Y0000317304D02*
X0000005368Y0000321457D01*
G01X0000005368Y0000321457D02*
X0000005368Y0000325610D01*
G01X0000005368Y0000341714D02*
X0000005368Y0000345867D01*
G01X0000005368Y0000345867D02*
X0000005368Y0000350020D01*
G01X0000021185Y0000247298D02*
X0000021185Y0000250664D01*
G01X0000021185Y0000250664D02*
X0000021185Y0000254029D01*
G01X0000016638Y0000250664D02*
X0000021185Y0000250664D01*
G01X0000021185Y0000250664D02*
X0000025732Y0000250664D01*
G01X0000021185Y0000281314D02*
X0000021185Y0000284679D01*
G01X0000021185Y0000284679D02*
X0000021185Y0000288045D01*
G01X0000016638Y0000284679D02*
X0000021185Y0000284679D01*
G01X0000021185Y0000284679D02*
X0000025732Y0000284679D01*
G01X0000018596Y0000317304D02*
X0000018596Y0000321457D01*
G01X0000018596Y0000321457D02*
X0000018596Y0000325610D01*
G01X0000018596Y0000321457D02*
X0000024816Y0000321457D01*
G01X0000018596Y0000345867D02*
X0000018596Y0000350020D01*
G01X0000018596Y0000345867D02*
X0000024816Y0000345867D01*
G01X0000017520Y0000377934D02*
X0000017520Y0000381890D01*
G01X0000017520Y0000381890D02*
X0000017520Y0000385846D01*
G01X0000013957Y0000381890D02*
X0000017520Y0000381890D01*
G01X0000017520Y0000381890D02*
X0000021082Y0000381890D01*
G01X0000043307Y0000154824D02*
X0000043307Y0000161024D01*
G01X0000043307Y0000161024D02*
X0000043307Y0000167224D01*
G01X0000043307Y0000161024D02*
X0000049507Y0000161024D01*
G01X0000043437Y0000173031D02*
X0000047637Y0000173031D01*
G01X0000047637Y0000168831D02*
X0000047637Y0000173031D01*
G01X0000047637Y0000173031D02*
X0000047637Y0000177232D01*
G01X0000047637Y0000173031D02*
X0000051838Y0000173031D01*
G54D13*
X0000005368Y0000321457D03*
X0000005368Y0000345867D03*
X0000018596Y0000321457D03*
X0000018596Y0000345867D03*
G54D14*
X0000017520Y0000381890D03*
X0000017520Y0000401575D03*
G54D15*
X0000043307Y0000161024D03*
X0000043307Y0000212599D03*
G54D16*
X0000047637Y0000182874D03*
X0000047637Y0000173031D03*
X0000047637Y0000190748D03*
G54D17*
X0000047637Y0000200591D03*
G54D18*
X0000095548Y0000247007D03*
X0000095548Y0000435984D03*
X0000225469Y0000247007D03*
X0000225469Y0000435984D03*
G54D19*
G01X0000036000Y0000349500D02*
X0000033900Y0000347400D01*
X0000032000Y0000347400D01*
X0000025100Y0000340500D01*
X0000016000Y0000340500D01*
X0000014915Y0000341585D01*
X0000012415Y0000341585D01*
X0000012000Y0000342000D01*
G01X0000032500Y0000401114D02*
X0000048000Y0000385614D01*
X0000048000Y0000345000D01*
X0000041500Y0000338500D01*
X0000041500Y0000313000D01*
X0000047000Y0000307500D01*
X0000080500Y0000307500D01*
X0000111000Y0000277000D01*
X0000111000Y0000141500D01*
G01X0000045000Y0000346000D02*
X0000039000Y0000340000D01*
X0000039000Y0000323000D01*
G01X0000079386Y0000070886D02*
X0000113500Y0000105000D01*
X0000113500Y0000136000D01*
X0000115500Y0000138000D01*
X0000115500Y0000287000D01*
X0000201000Y0000372500D01*
X0000212500Y0000372500D01*
G01X0000124500Y0000013500D02*
X0000118000Y0000020000D01*
X0000118000Y0000046500D01*
X0000115500Y0000049000D01*
X0000115500Y0000134500D01*
X0000118001Y0000137000D01*
X0000118001Y0000286500D01*
X0000199000Y0000367500D01*
X0000212500Y0000367500D01*
G01X0000240000Y0000362500D02*
X0000237500Y0000365000D01*
X0000229500Y0000365000D01*
X0000228000Y0000363500D01*
X0000228000Y0000362000D01*
X0000226000Y0000360000D01*
X0000222000Y0000360000D01*
X0000220500Y0000358500D01*
X0000199000Y0000358500D01*
X0000125500Y0000285000D01*
X0000125500Y0000134000D01*
X0000121370Y0000129870D01*
X0000121370Y0000073130D01*
X0000132500Y0000062000D01*
X0000132500Y0000038000D01*
X0000124500Y0000030000D01*
G01X0000225000Y0000367500D02*
X0000222500Y0000365000D01*
X0000199500Y0000365000D01*
X0000120500Y0000286000D01*
X0000120500Y0000136000D01*
X0000117500Y0000133000D01*
X0000117500Y0000071000D01*
X0000128500Y0000060000D01*
X0000128500Y0000042500D01*
X0000120500Y0000034500D01*
X0000120500Y0000020500D01*
X0000127000Y0000014000D01*
X0000134000Y0000014000D01*
G01X0000225000Y0000362500D02*
X0000221000Y0000362500D01*
X0000219000Y0000360500D01*
X0000198000Y0000360500D01*
X0000123001Y0000285501D01*
X0000123001Y0000135000D01*
X0000119500Y0000131500D01*
X0000119500Y0000072000D01*
X0000130500Y0000061000D01*
X0000130500Y0000040500D01*
X0000122500Y0000032500D01*
X0000122500Y0000021000D01*
X0000127000Y0000016500D01*
X0000130614Y0000016500D01*
G01X0000245000Y0000362500D02*
X0000242500Y0000360000D01*
X0000229000Y0000360000D01*
X0000227500Y0000358500D01*
X0000227500Y0000356500D01*
X0000226000Y0000355000D01*
X0000223500Y0000355000D01*
X0000222000Y0000356500D01*
X0000200000Y0000356500D01*
X0000128500Y0000285000D01*
X0000128500Y0000133500D01*
X0000123500Y0000128500D01*
X0000123500Y0000074000D01*
X0000134500Y0000063000D01*
X0000134500Y0000030000D01*
X0000133500Y0000029000D01*
G01X0000240000Y0000357500D02*
X0000235500Y0000357500D01*
X0000232500Y0000354500D01*
X0000229000Y0000354500D01*
X0000227500Y0000353000D01*
X0000227500Y0000351000D01*
X0000226500Y0000350000D01*
X0000224000Y0000350000D01*
X0000219500Y0000354500D01*
X0000201000Y0000354500D01*
X0000131500Y0000285000D01*
X0000131500Y0000131000D01*
X0000129000Y0000128500D01*
X0000129000Y0000113000D01*
X0000131000Y0000111000D01*
X0000131000Y0000074000D01*
X0000139000Y0000066000D01*
X0000139000Y0000027500D01*
X0000136000Y0000024500D01*
X0000133500Y0000024500D01*
G01X0000167130Y0000067000D02*
X0000161500Y0000067000D01*
X0000138500Y0000090000D01*
X0000138500Y0000096000D01*
X0000135500Y0000099000D01*
X0000135500Y0000112500D01*
X0000134000Y0000114000D01*
X0000134000Y0000284000D01*
X0000202500Y0000352500D01*
G01X0000141000Y0000107500D02*
X0000141000Y0000110000D01*
X0000163000Y0000132000D01*
X0000178500Y0000132000D01*
X0000200500Y0000154000D01*
X0000200500Y0000298500D01*
X0000207500Y0000305500D01*
X0000207500Y0000347500D01*
G01X0000141435Y0000126517D02*
X0000144452Y0000123500D01*
X0000151500Y0000123500D01*
X0000162500Y0000134500D01*
X0000177500Y0000134500D01*
X0000197500Y0000154500D01*
X0000197500Y0000300500D01*
X0000202500Y0000305500D01*
X0000202500Y0000347500D01*
G01X0000173935Y0000089017D02*
X0000168952Y0000094000D01*
X0000151329Y0000094000D01*
X0000145500Y0000099828D01*
X0000145500Y0000108671D01*
X0000155828Y0000119000D01*
X0000168000Y0000119000D01*
X0000174500Y0000125500D01*
X0000187000Y0000125500D01*
X0000207000Y0000145500D01*
X0000293000Y0000145500D01*
X0000317500Y0000170000D01*
X0000317500Y0000195500D01*
X0000314000Y0000199000D01*
X0000314000Y0000256000D01*
X0000316500Y0000258500D01*
X0000316500Y0000266500D01*
X0000272000Y0000311000D01*
X0000272000Y0000353500D01*
X0000279000Y0000360500D01*
X0000279000Y0000369000D01*
X0000276000Y0000372000D01*
X0000262500Y0000372000D01*
X0000255500Y0000365000D01*
X0000255500Y0000358500D01*
X0000252000Y0000355000D01*
X0000237000Y0000355000D01*
X0000234500Y0000352500D01*
X0000230000Y0000352500D01*
G01X0000168935Y0000089017D02*
X0000168935Y0000089065D01*
X0000166000Y0000092000D01*
X0000150500Y0000092000D01*
X0000143500Y0000099000D01*
X0000143500Y0000109500D01*
X0000155500Y0000121500D01*
X0000166500Y0000121500D01*
X0000172500Y0000127500D01*
X0000185500Y0000127500D01*
X0000206100Y0000148100D01*
X0000292600Y0000148100D01*
X0000315500Y0000171000D01*
X0000315500Y0000193500D01*
X0000312000Y0000197000D01*
X0000312000Y0000258000D01*
X0000314000Y0000260000D01*
X0000314000Y0000266000D01*
X0000270000Y0000310000D01*
X0000270000Y0000354500D01*
X0000277000Y0000361500D01*
X0000277000Y0000368500D01*
X0000275500Y0000370000D01*
X0000264000Y0000370000D01*
X0000258500Y0000364500D01*
X0000258500Y0000358500D01*
X0000252500Y0000352500D01*
X0000245000Y0000352500D01*
G01X0000232687Y0000055557D02*
X0000192244Y0000096000D01*
X0000155000Y0000096000D01*
X0000151500Y0000099500D01*
X0000151500Y0000101452D01*
X0000148935Y0000104017D01*
G01X0000158935Y0000104017D02*
X0000193483Y0000104017D01*
X0000240500Y0000057000D01*
X0000240500Y0000046000D01*
X0000250700Y0000035800D01*
X0000271200Y0000035800D01*
X0000278500Y0000028500D01*
X0000289500Y0000028500D01*
X0000294500Y0000033500D01*
X0000298130Y0000033500D01*
X0000300130Y0000031500D01*
G01X0000232687Y0000050557D02*
X0000235130Y0000053000D01*
X0000235130Y0000057870D01*
X0000195000Y0000098000D01*
X0000157500Y0000098000D01*
X0000156500Y0000099000D01*
X0000156500Y0000101452D01*
X0000153935Y0000104017D01*
G01X0000171435Y0000116517D02*
X0000173952Y0000114000D01*
X0000186000Y0000114000D01*
X0000209000Y0000137000D01*
X0000293500Y0000137000D01*
X0000326500Y0000170000D01*
X0000326500Y0000267000D01*
X0000280500Y0000313000D01*
X0000280500Y0000319500D01*
X0000277500Y0000322500D01*
G01X0000217500Y0000332500D02*
X0000215000Y0000330000D01*
X0000215000Y0000309500D01*
X0000203000Y0000297500D01*
X0000203000Y0000152000D01*
X0000180500Y0000129500D01*
X0000169418Y0000129500D01*
X0000163935Y0000124017D01*
G01X0000277500Y0000315000D02*
X0000277500Y0000312500D01*
X0000324500Y0000265500D01*
X0000324500Y0000171000D01*
X0000295500Y0000142000D01*
X0000210500Y0000142000D01*
X0000190000Y0000121500D01*
X0000181418Y0000121500D01*
X0000176435Y0000116517D01*
G01X0000252500Y0000390000D02*
X0000255000Y0000387500D01*
X0000276500Y0000387500D01*
X0000281000Y0000383000D01*
X0000281000Y0000360000D01*
X0000277500Y0000356500D01*
X0000277500Y0000351000D01*
X0000274500Y0000348000D01*
X0000274500Y0000312000D01*
X0000320000Y0000266500D01*
X0000320000Y0000169500D01*
X0000294500Y0000144000D01*
X0000209000Y0000144000D01*
X0000188500Y0000123500D01*
X0000178418Y0000123500D01*
X0000176435Y0000121517D01*
G01X0000212500Y0000337500D02*
X0000215000Y0000335000D01*
X0000218000Y0000335000D01*
X0000220000Y0000333000D01*
X0000220000Y0000310500D01*
X0000206000Y0000296500D01*
X0000206000Y0000190200D01*
X0000246300Y0000149900D01*
X0000290900Y0000149900D01*
X0000313000Y0000172000D01*
G01X0000240630Y0000169462D02*
X0000240630Y0000176370D01*
X0000208500Y0000208500D01*
X0000208500Y0000295000D01*
X0000222000Y0000308500D01*
X0000222000Y0000333500D01*
X0000219500Y0000336000D01*
X0000219500Y0000338500D01*
X0000218000Y0000340000D01*
X0000211500Y0000340000D01*
X0000210000Y0000341500D01*
X0000210000Y0000350000D01*
X0000207500Y0000352500D01*
G01X0000217500Y0000342500D02*
X0000218000Y0000342500D01*
X0000221500Y0000339000D01*
X0000221500Y0000337000D01*
X0000223500Y0000335000D01*
X0000226000Y0000335000D01*
X0000227500Y0000333500D01*
X0000227500Y0000330500D01*
X0000225000Y0000328000D01*
X0000225000Y0000308500D01*
X0000243000Y0000290500D01*
X0000243000Y0000198000D01*
X0000240500Y0000195500D01*
X0000240500Y0000181000D01*
X0000243000Y0000178500D01*
X0000243000Y0000161000D01*
X0000251600Y0000152400D01*
X0000266068Y0000152400D01*
X0000268130Y0000154462D01*
G01X0000212500Y0000352500D02*
X0000215000Y0000350000D01*
X0000215000Y0000346500D01*
X0000216500Y0000345000D01*
X0000219000Y0000345000D01*
X0000223500Y0000340500D01*
X0000230500Y0000340500D01*
X0000234000Y0000337000D01*
X0000234000Y0000309000D01*
X0000250500Y0000292500D01*
X0000250500Y0000172092D01*
X0000253130Y0000169462D01*
G01X0000217594Y0000347406D02*
X0000220595Y0000347406D01*
X0000223000Y0000345000D01*
X0000231500Y0000345000D01*
X0000236500Y0000340000D01*
X0000241000Y0000340000D01*
X0000242500Y0000341500D01*
X0000249000Y0000341500D01*
X0000252500Y0000338000D01*
X0000252500Y0000307500D01*
X0000290000Y0000270000D01*
X0000290000Y0000260000D01*
G01X0000253130Y0000154462D02*
X0000245500Y0000162092D01*
X0000245500Y0000180000D01*
X0000243000Y0000182500D01*
X0000243000Y0000193000D01*
X0000245500Y0000195500D01*
X0000245500Y0000292000D01*
X0000227500Y0000310000D01*
X0000227500Y0000320000D01*
X0000230000Y0000322500D01*
G01X0000240000Y0000312500D02*
X0000284000Y0000268500D01*
X0000284000Y0000256000D01*
X0000290000Y0000250000D01*
G01X0000245000Y0000337500D02*
X0000242500Y0000335000D01*
X0000242500Y0000331500D01*
X0000241000Y0000330000D01*
X0000238570Y0000330000D01*
X0000238000Y0000329430D01*
X0000238000Y0000311000D01*
X0000255500Y0000293500D01*
X0000255500Y0000180500D01*
X0000259000Y0000177000D01*
X0000259000Y0000165000D01*
X0000263000Y0000161000D01*
X0000263000Y0000156832D01*
X0000260630Y0000154462D01*
G01X0000253130Y0000164462D02*
X0000248000Y0000169592D01*
X0000248000Y0000292500D01*
X0000232500Y0000308000D01*
X0000232500Y0000330000D01*
X0000230000Y0000332500D01*
G01X0000250000Y0000337500D02*
X0000247500Y0000340000D01*
X0000243500Y0000340000D01*
X0000236000Y0000332500D01*
X0000236000Y0000310000D01*
X0000253000Y0000293000D01*
X0000253000Y0000179000D01*
X0000255500Y0000176500D01*
X0000255500Y0000164592D01*
X0000260630Y0000159462D01*
G01X0000240000Y0000327500D02*
X0000244000Y0000323500D01*
X0000244000Y0000312000D01*
X0000286500Y0000269500D01*
X0000286500Y0000259500D01*
X0000288500Y0000257500D01*
X0000291000Y0000257500D01*
X0000293000Y0000255500D01*
X0000293000Y0000223000D01*
X0000290000Y0000220000D01*
G01X0000230000Y0000347500D02*
X0000234500Y0000347500D01*
X0000236847Y0000345153D01*
X0000250847Y0000345153D01*
X0000260000Y0000336000D01*
X0000260000Y0000306500D01*
X0000299500Y0000267000D01*
X0000299500Y0000199500D01*
X0000277100Y0000177100D01*
X0000267200Y0000177100D01*
X0000265500Y0000175400D01*
X0000265500Y0000167092D01*
X0000273130Y0000159462D01*
G01X0000268130Y0000159462D02*
X0000262500Y0000165092D01*
X0000262500Y0000176200D01*
X0000267600Y0000181300D01*
X0000274800Y0000181300D01*
X0000297000Y0000203500D01*
X0000297000Y0000265964D01*
X0000255000Y0000307964D01*
X0000255000Y0000338500D01*
X0000250500Y0000343000D01*
X0000240500Y0000343000D01*
X0000240000Y0000342500D01*
G01X0000305500Y0000262500D02*
X0000305500Y0000264500D01*
X0000262000Y0000308000D01*
X0000262000Y0000337500D01*
X0000249500Y0000350000D01*
X0000242500Y0000350000D01*
X0000240000Y0000347500D01*
G01X0000268130Y0000169462D02*
X0000277462Y0000169462D01*
X0000304000Y0000196000D01*
X0000304000Y0000256500D01*
X0000305500Y0000258000D01*
X0000309000Y0000258000D01*
X0000312000Y0000261000D01*
X0000312000Y0000264500D01*
X0000267500Y0000309000D01*
X0000267500Y0000355000D01*
X0000275000Y0000362500D01*
G01X0000275000Y0000367500D02*
X0000272500Y0000365000D01*
X0000268500Y0000365000D01*
X0000267500Y0000364000D01*
X0000267500Y0000360000D01*
X0000263000Y0000355500D01*
X0000263000Y0000346000D01*
X0000265000Y0000344000D01*
X0000265000Y0000308500D01*
X0000308000Y0000265500D01*
X0000308000Y0000261500D01*
X0000306500Y0000260000D01*
X0000304000Y0000260000D01*
X0000301500Y0000257500D01*
X0000301500Y0000198500D01*
X0000277462Y0000174462D01*
X0000268130Y0000174462D01*
G01X0000300500Y0000417500D02*
X0000300000Y0000417000D01*
X0000300000Y0000305000D01*
X0000310000Y0000295000D01*
G01X0000310000Y0000417500D02*
X0000307500Y0000415000D01*
X0000303570Y0000415000D01*
X0000302000Y0000413430D01*
X0000302000Y0000312000D01*
X0000312500Y0000301500D01*
X0000312500Y0000292500D01*
X0000310000Y0000290000D01*
M02*
