G04 ================== begin FILE IDENTIFICATION RECORD ==================*
G04 Layout Name:  D:/PCB_Project/CutiePi/CutiePi_V2_0/CutiePi_V2_0.brd*
G04 Film Name:    SOLDER_TOP*
G04 File Format:  Gerber RS274X*
G04 File Origin:  Cadence Allegro 16.6-2015-S108*
G04 Origin Date:  Wed Dec 02 16:58:58 2020*
G04 *
G04 Layer:  BOARD GEOMETRY/SOLDERMASK_TOP*
G04 Layer:  PACKAGE GEOMETRY/SOLDERMASK_TOP*
G04 Layer:  PIN/SOLDERMASK_TOP*
G04 Layer:  VIA CLASS/SOLDERMASK_TOP*
G04 Layer:  BOARD GEOMETRY/OUTLINE*
G04 *
G04 Offset:    (0.000 0.000)*
G04 Mirror:    No*
G04 Mode:      Positive*
G04 Rotation:  0*
G04 FullContactRelief:  No*
G04 UndefLineWidth:     6.000*
G04 ================== end FILE IDENTIFICATION RECORD ====================*
%FSAX55Y55*MOIN*%
%IR0*IPPOS*OFA0.00000B0.00000*MIA0B0*SFA1.00000B1.00000*%
%AMMACRO64*
4,1,6,-.015748,.01772,
-.015748,-.01772,
-.003929,-.01772,
-.003929,-.001969,
.015748,-.001969,
.015748,.01772,
-.015748,.01772,
0.0*
%
%ADD64MACRO64*%
%ADD17R,.062992X.037795*%
%ADD23C,.11*%
%ADD66R,.066X.131*%
%ADD46R,.112X.069*%
%ADD39C,.240157*%
%ADD10C,.275591*%
%ADD14O,.106299X.064961*%
%ADD12R,.108268X.084646*%
%ADD48R,.106299X.066929*%
%AMMACRO59*
4,1,6,.015748,-.01772,
.015748,.01772,
.003929,.01772,
.003929,.001969,
-.015748,.001969,
-.015748,-.01772,
.015748,-.01772,
0.0*
%
%ADD59MACRO59*%
%AMMACRO57*
4,1,7,.015748,.01772,
.015748,-.01772,
.003929,-.01772,
.003929,-.001969,
-.015748,-.001969,
-.015748,.008689,
-.00672,.01772,
.015748,.01772,
0.0*
%
%ADD57MACRO57*%
%ADD47R,.061X.03*%
%ADD29R,.026X.026*%
%ADD26R,.026X.026*%
%ADD42R,.038X.036*%
%ADD40R,.0315X.01181*%
%ADD45R,.056X.046*%
%ADD41R,.036X.038*%
%ADD32C,.07*%
%ADD53R,.046X.056*%
%ADD25C,.044*%
%ADD15C,.08*%
%ADD71R,.108272X.112201*%
%ADD28C,.012402*%
%ADD24R,.069X.054*%
%ADD22O,.05315X.061024*%
%ADD33R,.054X.069*%
%ADD78R,.043311X.02165*%
%ADD34R,.07X.07*%
%ADD68C,.035433*%
%ADD70R,.037402X.01772*%
%ADD49O,.02165X.07087*%
%ADD56R,.035429X.011811*%
%ADD54O,.093311X.03189*%
%ADD58R,.011811X.035429*%
%ADD77R,.043311X.015748*%
%ADD67R,.015748X.043311*%
%ADD52R,.072831X.093311*%
%ADD30R,.061024X.080709*%
%ADD74R,.08465X.037402*%
%ADD72R,.04528X.029531*%
%ADD75R,.037402X.015748*%
%ADD69R,.01772X.035429*%
%ADD51O,.021654X.091339*%
%ADD38R,.057087X.061024*%
%ADD13O,.072835X.049213*%
%ADD61R,.03937X.041339*%
%ADD37R,.045276X.043307*%
%ADD44R,.041339X.03937*%
%ADD36R,.037402X.064961*%
%ADD76R,.057091X.07087*%
%ADD60O,.016535X.070866*%
%ADD16R,.064961X.021654*%
%ADD62R,.07087X.057091*%
%ADD55O,.070866X.016535*%
%ADD20R,.03937X.012992*%
%ADD73R,.031496X.017717*%
%ADD50R,.057091X.049209*%
%ADD19R,.062992X.035433*%
%ADD63R,.01772X.076772*%
%ADD43R,.030709X.038583*%
%ADD21R,.045276X.012992*%
%ADD35R,.019689X.037402*%
%ADD27R,.037402X.019689*%
%ADD18R,.062992X.03937*%
%ADD11R,.064961X.045276*%
%ADD31O,.027559X.059059*%
%AMMACRO65*
4,1,6,-.015748,-.01772,
-.015748,.01772,
-.003929,.01772,
-.003929,.001969,
.015748,.001969,
.015748,-.01772,
-.015748,-.01772,
0.0*
%
%ADD65MACRO65*%
%ADD79C,.006*%
G75*
%LPD*%
G75*
G54D10*
X0000015748Y0000015748D03*
X0000015748Y0000437008D03*
X0000338619Y0000015748D03*
X0000338619Y0000437008D03*
G54D11*
X0000003213Y0000069488D03*
X0000003213Y0000097835D03*
X0000312614Y0000312067D03*
X0000312614Y0000332539D03*
X0000347669Y0000054331D03*
X0000347669Y0000070866D03*
X0000347429Y0000376772D03*
X0000347429Y0000389370D03*
G54D20*
X0000024167Y0000329725D03*
X0000024167Y0000328150D03*
X0000024167Y0000326575D03*
X0000024167Y0000340749D03*
X0000024167Y0000339174D03*
X0000024167Y0000337599D03*
X0000024167Y0000336024D03*
X0000024167Y0000334449D03*
X0000024167Y0000332874D03*
X0000024167Y0000331300D03*
G54D21*
X0000019344Y0000328938D03*
X0000019344Y0000327363D03*
X0000019344Y0000339961D03*
X0000019344Y0000338386D03*
X0000019344Y0000336812D03*
X0000019344Y0000335237D03*
X0000019344Y0000333662D03*
X0000019344Y0000332087D03*
X0000019344Y0000330512D03*
G54D30*
X0000059843Y0000006405D03*
X0000111614Y0000002468D03*
G54D12*
X0000011459Y0000155315D03*
X0000011459Y0000218307D03*
G54D31*
X0000059760Y0000182768D03*
X0000059760Y0000191232D03*
X0000063500Y0000182768D03*
X0000067240Y0000182768D03*
X0000067240Y0000191232D03*
X0000063500Y0000191232D03*
G54D13*
X0000006224Y0000250664D03*
X0000006224Y0000284679D03*
X0000021185Y0000250664D03*
X0000021185Y0000284679D03*
G54D22*
X0000017520Y0000381890D03*
X0000017520Y0000401575D03*
G54D40*
X0000087665Y0000312760D03*
X0000087665Y0000328508D03*
X0000087665Y0000326933D03*
X0000087665Y0000325358D03*
X0000087665Y0000323783D03*
X0000087665Y0000322209D03*
X0000087665Y0000320634D03*
X0000087665Y0000319059D03*
X0000087665Y0000317484D03*
X0000087665Y0000315909D03*
X0000087665Y0000314335D03*
X0000087665Y0000345831D03*
X0000087665Y0000344256D03*
X0000087665Y0000342681D03*
X0000087665Y0000341106D03*
X0000087665Y0000339532D03*
X0000087665Y0000337957D03*
X0000087665Y0000336382D03*
X0000087665Y0000334807D03*
X0000087665Y0000333232D03*
X0000087665Y0000331658D03*
X0000087665Y0000330083D03*
X0000087665Y0000363154D03*
X0000087665Y0000361579D03*
X0000087665Y0000360004D03*
X0000087665Y0000358429D03*
X0000087665Y0000356854D03*
X0000087665Y0000355280D03*
X0000087665Y0000353705D03*
X0000087665Y0000352130D03*
X0000087665Y0000350555D03*
X0000087665Y0000348980D03*
X0000087665Y0000347406D03*
X0000087665Y0000378902D03*
X0000087665Y0000377327D03*
X0000087665Y0000375752D03*
X0000087665Y0000374177D03*
X0000087665Y0000372602D03*
X0000087665Y0000371028D03*
X0000087665Y0000369453D03*
X0000087665Y0000367878D03*
X0000087665Y0000366303D03*
X0000087665Y0000364728D03*
X0000087665Y0000389925D03*
X0000087665Y0000388350D03*
X0000087665Y0000386776D03*
X0000087665Y0000385201D03*
X0000087665Y0000383626D03*
X0000087665Y0000382051D03*
X0000087665Y0000380476D03*
X0000099792Y0000312760D03*
X0000099792Y0000328508D03*
X0000099792Y0000326933D03*
X0000099792Y0000325358D03*
X0000099792Y0000323783D03*
X0000099792Y0000322209D03*
X0000099792Y0000320634D03*
X0000099792Y0000319059D03*
X0000099792Y0000317484D03*
X0000099792Y0000315909D03*
X0000099792Y0000314335D03*
X0000099792Y0000345831D03*
X0000099792Y0000344256D03*
X0000099792Y0000342681D03*
X0000099792Y0000341106D03*
X0000099792Y0000339532D03*
X0000099792Y0000337957D03*
X0000099792Y0000336382D03*
X0000099792Y0000334807D03*
X0000099792Y0000333232D03*
X0000099792Y0000331658D03*
X0000099792Y0000330083D03*
X0000099792Y0000363154D03*
X0000099792Y0000361579D03*
X0000099792Y0000360004D03*
X0000099792Y0000358429D03*
X0000099792Y0000356854D03*
X0000099792Y0000355280D03*
X0000099792Y0000353705D03*
X0000099792Y0000352130D03*
X0000099792Y0000350555D03*
X0000099792Y0000348980D03*
X0000099792Y0000347406D03*
X0000099792Y0000378902D03*
X0000099792Y0000377327D03*
X0000099792Y0000375752D03*
X0000099792Y0000374177D03*
X0000099792Y0000372602D03*
X0000099792Y0000371028D03*
X0000099792Y0000369453D03*
X0000099792Y0000367878D03*
X0000099792Y0000366303D03*
X0000099792Y0000364728D03*
X0000099792Y0000389925D03*
X0000099792Y0000388350D03*
X0000099792Y0000386776D03*
X0000099792Y0000385201D03*
X0000099792Y0000383626D03*
X0000099792Y0000382051D03*
X0000099792Y0000380476D03*
X0000221209Y0000312760D03*
X0000221209Y0000328508D03*
X0000221209Y0000326933D03*
X0000221209Y0000325358D03*
X0000221209Y0000323783D03*
X0000221209Y0000322209D03*
X0000221209Y0000320634D03*
X0000221209Y0000319059D03*
X0000221209Y0000317484D03*
X0000221209Y0000315909D03*
X0000221209Y0000314335D03*
X0000221209Y0000345831D03*
X0000221209Y0000344256D03*
X0000221209Y0000342681D03*
X0000221209Y0000341106D03*
X0000221209Y0000339532D03*
X0000221209Y0000337957D03*
X0000221209Y0000336382D03*
X0000221209Y0000334807D03*
X0000221209Y0000333232D03*
X0000221209Y0000331658D03*
X0000221209Y0000330083D03*
X0000221209Y0000363154D03*
X0000221209Y0000361579D03*
X0000221209Y0000360004D03*
X0000221209Y0000358429D03*
X0000221209Y0000356854D03*
X0000221209Y0000355280D03*
X0000221209Y0000353705D03*
X0000221209Y0000352130D03*
X0000221209Y0000350555D03*
X0000221209Y0000348980D03*
X0000221209Y0000347406D03*
X0000221209Y0000378902D03*
X0000221209Y0000377327D03*
X0000221209Y0000375752D03*
X0000221209Y0000374177D03*
X0000221209Y0000372602D03*
X0000221209Y0000371028D03*
X0000221209Y0000369453D03*
X0000221209Y0000367878D03*
X0000221209Y0000366303D03*
X0000221209Y0000364728D03*
X0000221209Y0000389925D03*
X0000221209Y0000388350D03*
X0000221209Y0000386776D03*
X0000221209Y0000385201D03*
X0000221209Y0000383626D03*
X0000221209Y0000382051D03*
X0000221209Y0000380476D03*
X0000233335Y0000312760D03*
X0000233335Y0000328508D03*
X0000233335Y0000326933D03*
X0000233335Y0000325358D03*
X0000233335Y0000323783D03*
X0000233335Y0000322209D03*
X0000233335Y0000320634D03*
X0000233335Y0000319059D03*
X0000233335Y0000317484D03*
X0000233335Y0000315909D03*
X0000233335Y0000314335D03*
X0000233335Y0000345831D03*
X0000233335Y0000344256D03*
X0000233335Y0000342681D03*
X0000233335Y0000341106D03*
X0000233335Y0000339532D03*
X0000233335Y0000337957D03*
X0000233335Y0000336382D03*
X0000233335Y0000334807D03*
X0000233335Y0000333232D03*
X0000233335Y0000331658D03*
X0000233335Y0000330083D03*
X0000233335Y0000363154D03*
X0000233335Y0000361579D03*
X0000233335Y0000360004D03*
X0000233335Y0000358429D03*
X0000233335Y0000356854D03*
X0000233335Y0000355280D03*
X0000233335Y0000353705D03*
X0000233335Y0000352130D03*
X0000233335Y0000350555D03*
X0000233335Y0000348980D03*
X0000233335Y0000347406D03*
X0000233335Y0000378902D03*
X0000233335Y0000377327D03*
X0000233335Y0000375752D03*
X0000233335Y0000374177D03*
X0000233335Y0000372602D03*
X0000233335Y0000371028D03*
X0000233335Y0000369453D03*
X0000233335Y0000367878D03*
X0000233335Y0000366303D03*
X0000233335Y0000364728D03*
X0000233335Y0000389925D03*
X0000233335Y0000388350D03*
X0000233335Y0000386776D03*
X0000233335Y0000385201D03*
X0000233335Y0000383626D03*
X0000233335Y0000382051D03*
X0000233335Y0000380476D03*
G54D50*
X0000155028Y0000162759D03*
X0000145972Y0000162759D03*
X0000145972Y0000170241D03*
X0000155028Y0000170241D03*
X0000167037Y0000157758D03*
X0000176093Y0000157758D03*
X0000176093Y0000150276D03*
X0000167037Y0000150276D03*
X0000266102Y0000128703D03*
X0000275158Y0000128703D03*
X0000275158Y0000121221D03*
X0000266102Y0000121221D03*
G54D32*
X0000047637Y0000182874D03*
X0000047637Y0000173031D03*
X0000047637Y0000190748D03*
G54D41*
X0000124492Y0000019000D03*
X0000118508Y0000019000D03*
X0000184122Y0000054500D03*
X0000178138Y0000054500D03*
X0000256138Y0000195962D03*
X0000253508Y0000361500D03*
X0000259492Y0000361500D03*
X0000253508Y0000368500D03*
X0000259492Y0000368500D03*
X0000262122Y0000195962D03*
X0000274622Y0000195962D03*
X0000268638Y0000195962D03*
X0000274622Y0000202462D03*
X0000268638Y0000202462D03*
X0000274138Y0000388500D03*
X0000276138Y0000406500D03*
X0000289122Y0000374500D03*
X0000283138Y0000374500D03*
X0000280122Y0000388500D03*
X0000282122Y0000406500D03*
X0000294008Y0000239500D03*
X0000299992Y0000239500D03*
X0000294008Y0000233000D03*
X0000299992Y0000233000D03*
X0000312638Y0000225000D03*
X0000318622Y0000225000D03*
G54D14*
X0000005368Y0000321457D03*
X0000005368Y0000345867D03*
X0000018596Y0000321457D03*
X0000018596Y0000345867D03*
G54D23*
X0000043307Y0000161024D03*
X0000043307Y0000212599D03*
G54D60*
X0000251803Y0000147132D03*
X0000253772Y0000147132D03*
X0000255740Y0000147132D03*
X0000257709Y0000147132D03*
X0000259677Y0000147132D03*
X0000259677Y0000180793D03*
X0000257709Y0000180793D03*
X0000255740Y0000180793D03*
X0000253772Y0000180793D03*
X0000251803Y0000180793D03*
X0000261646Y0000147132D03*
X0000263614Y0000147132D03*
X0000265583Y0000147132D03*
X0000267551Y0000147132D03*
X0000269520Y0000147132D03*
X0000271488Y0000147132D03*
X0000273457Y0000147132D03*
X0000273457Y0000180793D03*
X0000271488Y0000180793D03*
X0000269520Y0000180793D03*
X0000267551Y0000180793D03*
X0000265583Y0000180793D03*
X0000263614Y0000180793D03*
X0000261646Y0000180793D03*
G54D51*
X0000147122Y0000189189D03*
X0000149642Y0000189189D03*
X0000152161Y0000189189D03*
X0000154681Y0000189189D03*
X0000157201Y0000189189D03*
X0000159720Y0000189189D03*
X0000159720Y0000207811D03*
X0000157201Y0000207811D03*
X0000154681Y0000207811D03*
X0000152161Y0000207811D03*
X0000149642Y0000207811D03*
X0000147122Y0000207811D03*
X0000162240Y0000189189D03*
X0000164760Y0000189189D03*
X0000167280Y0000189189D03*
X0000169799Y0000189189D03*
X0000172319Y0000189189D03*
X0000174839Y0000189189D03*
X0000174839Y0000207811D03*
X0000172319Y0000207811D03*
X0000169799Y0000207811D03*
X0000167280Y0000207811D03*
X0000164760Y0000207811D03*
X0000162240Y0000207811D03*
X0000177358Y0000189189D03*
X0000179878Y0000189189D03*
X0000179878Y0000207811D03*
X0000177358Y0000207811D03*
G54D33*
X0000059594Y0000208000D03*
X0000071406Y0000208000D03*
X0000234224Y0000012000D03*
X0000257224Y0000012000D03*
X0000246036Y0000012000D03*
X0000246094Y0000377000D03*
X0000257906Y0000377000D03*
X0000269036Y0000012000D03*
X0000297224Y0000407500D03*
X0000309036Y0000407500D03*
G54D24*
X0000043130Y0000240594D03*
X0000043130Y0000252406D03*
X0000043130Y0000261594D03*
X0000043130Y0000273406D03*
G54D15*
X0000015000Y0000046000D03*
X0000047500Y0000401000D03*
X0000321630Y0000031000D03*
G54D42*
X0000122000Y0000042508D03*
X0000122000Y0000048492D03*
X0000155935Y0000090525D03*
X0000155935Y0000096509D03*
X0000149435Y0000090525D03*
X0000149435Y0000096509D03*
X0000144565Y0000142525D03*
X0000144565Y0000148509D03*
X0000208130Y0000056492D03*
X0000208130Y0000050508D03*
X0000201630Y0000056492D03*
X0000201630Y0000050508D03*
X0000249630Y0000190470D03*
X0000249630Y0000196454D03*
X0000288630Y0000195954D03*
X0000288630Y0000189970D03*
X0000282130Y0000195954D03*
X0000282130Y0000189970D03*
X0000326130Y0000140177D03*
X0000326130Y0000134193D03*
G54D43*
X0000120545Y0000112517D03*
X0000120545Y0000120517D03*
X0000129325Y0000112517D03*
X0000129325Y0000120517D03*
G54D16*
X0000017307Y0000077756D03*
X0000017307Y0000073819D03*
X0000017307Y0000085630D03*
X0000017307Y0000081693D03*
X0000017307Y0000089567D03*
X0000017307Y0000093504D03*
X0000298520Y0000316398D03*
X0000298520Y0000320335D03*
X0000298520Y0000324272D03*
X0000298520Y0000328209D03*
X0000333575Y0000058662D03*
X0000333575Y0000062599D03*
X0000333575Y0000066536D03*
X0000333335Y0000381103D03*
X0000333335Y0000385040D03*
G54D61*
X0000249850Y0000322500D03*
X0000256150Y0000322500D03*
G54D52*
X0000174000Y0000016028D03*
X0000174000Y0000031972D03*
G54D70*
X0000278698Y0000348840D03*
X0000278698Y0000350808D03*
X0000278698Y0000352777D03*
X0000278698Y0000354745D03*
X0000278698Y0000356714D03*
X0000278698Y0000358682D03*
X0000294250Y0000348840D03*
X0000294250Y0000350808D03*
X0000294250Y0000352777D03*
X0000294250Y0000354745D03*
X0000294250Y0000356714D03*
X0000294250Y0000358682D03*
X0000347577Y0000127954D03*
X0000347577Y0000130316D03*
X0000347577Y0000132678D03*
X0000347577Y0000135040D03*
X0000347577Y0000137402D03*
X0000347577Y0000139765D03*
X0000347577Y0000142127D03*
X0000347577Y0000144489D03*
X0000347577Y0000146851D03*
X0000347577Y0000149213D03*
X0000347577Y0000151576D03*
X0000347577Y0000153938D03*
X0000347577Y0000156300D03*
X0000347577Y0000158662D03*
X0000347577Y0000161024D03*
X0000347577Y0000163387D03*
G54D34*
X0000047637Y0000200591D03*
G54D25*
X0000032500Y0000278000D03*
X0000059500Y0000217000D03*
X0000121435Y0000105017D03*
X0000137500Y0000057000D03*
X0000235630Y0000140962D03*
X0000235630Y0000152462D03*
X0000228630Y0000152462D03*
X0000228630Y0000159962D03*
X0000235630Y0000159962D03*
X0000244500Y0000398000D03*
X0000244500Y0000386000D03*
X0000244500Y0000405500D03*
X0000259630Y0000035500D03*
X0000249130Y0000035500D03*
X0000249500Y0000329000D03*
X0000257000Y0000328500D03*
X0000253500Y0000335000D03*
X0000251500Y0000386000D03*
X0000251500Y0000405500D03*
X0000258500Y0000405500D03*
X0000273130Y0000020500D03*
X0000262130Y0000203462D03*
X0000290000Y0000059500D03*
X0000282130Y0000135462D03*
X0000291130Y0000162962D03*
X0000291130Y0000156462D03*
X0000291130Y0000181462D03*
X0000282500Y0000330500D03*
X0000282500Y0000316000D03*
X0000282500Y0000323000D03*
X0000283130Y0000381000D03*
X0000289130Y0000406500D03*
X0000298630Y0000162962D03*
X0000298630Y0000156462D03*
X0000303500Y0000221500D03*
X0000302500Y0000250500D03*
X0000321000Y0000078000D03*
X0000326630Y0000123500D03*
X0000320500Y0000397500D03*
X0000321000Y0000382500D03*
G54D35*
X0000050969Y0000342350D03*
X0000047031Y0000342350D03*
X0000049000Y0000348650D03*
G54D62*
X0000255874Y0000441980D03*
X0000315126Y0000441980D03*
G54D44*
X0000127565Y0000132367D03*
X0000127565Y0000138667D03*
X0000227630Y0000063850D03*
X0000227630Y0000070150D03*
X0000234630Y0000063850D03*
X0000234630Y0000070150D03*
G54D71*
X0000286474Y0000353761D03*
G54D53*
X0000193693Y0000042500D03*
X0000201567Y0000042500D03*
X0000238193Y0000029000D03*
X0000238193Y0000021000D03*
X0000257193Y0000021000D03*
X0000257193Y0000029000D03*
X0000246067Y0000029000D03*
X0000246067Y0000021000D03*
X0000265067Y0000021000D03*
X0000265067Y0000029000D03*
G54D26*
X0000030886Y0000270000D03*
X0000034114Y0000270000D03*
X0000030886Y0000265000D03*
X0000034114Y0000265000D03*
X0000038886Y0000346000D03*
X0000042114Y0000346000D03*
X0000030886Y0000346000D03*
X0000034114Y0000346000D03*
X0000074614Y0000067500D03*
X0000071386Y0000067500D03*
X0000065114Y0000175000D03*
X0000061886Y0000175000D03*
X0000065114Y0000199500D03*
X0000061886Y0000199500D03*
X0000072886Y0000312500D03*
X0000076114Y0000312500D03*
X0000079386Y0000067500D03*
X0000082614Y0000067500D03*
X0000121614Y0000013500D03*
X0000118386Y0000013500D03*
X0000121614Y0000008000D03*
X0000118386Y0000008000D03*
X0000121614Y0000024500D03*
X0000118386Y0000024500D03*
X0000121614Y0000030000D03*
X0000118386Y0000030000D03*
X0000130614Y0000013500D03*
X0000127386Y0000013500D03*
X0000130614Y0000030000D03*
X0000127386Y0000030000D03*
X0000130614Y0000024500D03*
X0000127386Y0000024500D03*
X0000137321Y0000084517D03*
X0000140549Y0000084517D03*
X0000139179Y0000139017D03*
X0000135951Y0000139017D03*
X0000149049Y0000084517D03*
X0000145821Y0000084517D03*
X0000153386Y0000177000D03*
X0000156614Y0000177000D03*
X0000148114Y0000177000D03*
X0000144886Y0000177000D03*
X0000168679Y0000143017D03*
X0000165451Y0000143017D03*
X0000174451Y0000143017D03*
X0000192016Y0000049500D03*
X0000177679Y0000143017D03*
X0000195244Y0000049500D03*
X0000241016Y0000040500D03*
X0000241016Y0000045500D03*
X0000241016Y0000055500D03*
X0000241016Y0000050500D03*
X0000244244Y0000040500D03*
X0000244244Y0000045500D03*
X0000244244Y0000055500D03*
X0000244244Y0000050500D03*
X0000257516Y0000189962D03*
X0000252886Y0000316500D03*
X0000256114Y0000316500D03*
X0000254386Y0000355500D03*
X0000257614Y0000355500D03*
X0000247614Y0000392000D03*
X0000244386Y0000392000D03*
X0000267744Y0000134962D03*
X0000264516Y0000134962D03*
X0000273016Y0000134962D03*
X0000276244Y0000134962D03*
X0000268516Y0000189962D03*
X0000271744Y0000189962D03*
X0000260744Y0000189962D03*
X0000273516Y0000374500D03*
X0000276744Y0000374500D03*
X0000273516Y0000380500D03*
X0000276744Y0000380500D03*
X0000279016Y0000015000D03*
X0000282244Y0000015000D03*
X0000289886Y0000031500D03*
X0000293114Y0000031500D03*
X0000293114Y0000026000D03*
X0000289886Y0000026000D03*
X0000289886Y0000020500D03*
X0000293114Y0000020500D03*
X0000279016Y0000026000D03*
X0000282244Y0000026000D03*
X0000282244Y0000020500D03*
X0000279016Y0000020500D03*
X0000279016Y0000031500D03*
X0000282244Y0000031500D03*
X0000293114Y0000037000D03*
X0000289886Y0000037000D03*
X0000293114Y0000042500D03*
X0000289886Y0000042500D03*
X0000279016Y0000037500D03*
X0000282244Y0000037500D03*
X0000282244Y0000042500D03*
X0000279016Y0000042500D03*
X0000293114Y0000048500D03*
X0000289886Y0000048500D03*
X0000293114Y0000053500D03*
X0000289886Y0000053500D03*
X0000281744Y0000062000D03*
X0000278516Y0000062000D03*
X0000281744Y0000056500D03*
X0000278516Y0000056500D03*
X0000293386Y0000245500D03*
X0000293386Y0000261000D03*
X0000293386Y0000250500D03*
X0000293386Y0000256000D03*
X0000284744Y0000339000D03*
X0000281516Y0000339000D03*
X0000291614Y0000367500D03*
X0000288386Y0000367500D03*
X0000293886Y0000227000D03*
X0000297114Y0000227000D03*
X0000297114Y0000221500D03*
X0000293886Y0000221500D03*
X0000296614Y0000245500D03*
X0000296614Y0000261000D03*
X0000296614Y0000250500D03*
X0000296614Y0000256000D03*
X0000305114Y0000343500D03*
X0000301886Y0000343500D03*
X0000305114Y0000363500D03*
X0000301886Y0000363500D03*
X0000305114Y0000353500D03*
X0000301886Y0000353500D03*
X0000301886Y0000358500D03*
X0000305114Y0000358500D03*
X0000301886Y0000348500D03*
X0000305114Y0000348500D03*
X0000298744Y0000374500D03*
X0000295516Y0000374500D03*
X0000308244Y0000374500D03*
X0000305016Y0000374500D03*
X0000317244Y0000263185D03*
X0000314016Y0000263185D03*
X0000317244Y0000268685D03*
X0000314016Y0000268685D03*
X0000319016Y0000289000D03*
X0000322244Y0000289000D03*
X0000319016Y0000294500D03*
X0000322244Y0000294500D03*
G54D17*
X0000021776Y0000261687D03*
X0000021776Y0000273656D03*
G54D18*
X0000021776Y0000256845D03*
X0000021776Y0000278498D03*
G54D27*
X0000036850Y0000328500D03*
X0000043150Y0000330469D03*
X0000043150Y0000326531D03*
X0000140215Y0000130548D03*
X0000133915Y0000132517D03*
X0000140215Y0000134486D03*
X0000268480Y0000395031D03*
X0000274780Y0000397000D03*
X0000268480Y0000398969D03*
G54D63*
X0000262630Y0000050500D03*
X0000260268Y0000050500D03*
G54D36*
X0000062953Y0000015420D03*
X0000067284Y0000015420D03*
X0000071614Y0000014633D03*
X0000075945Y0000015420D03*
X0000080276Y0000014633D03*
X0000084606Y0000015420D03*
X0000088937Y0000016995D03*
X0000093268Y0000015420D03*
G54D72*
X0000320118Y0000240185D03*
X0000311142Y0000240185D03*
X0000320118Y0000232185D03*
X0000311142Y0000232185D03*
X0000320118Y0000256185D03*
X0000311142Y0000256185D03*
X0000320118Y0000248185D03*
X0000311142Y0000248185D03*
G54D54*
X0000228651Y0000128870D03*
X0000228651Y0000123870D03*
X0000228651Y0000118870D03*
X0000228651Y0000133870D03*
X0000247273Y0000118870D03*
X0000247273Y0000123870D03*
X0000247273Y0000128870D03*
X0000247273Y0000133870D03*
X0000292319Y0000397500D03*
X0000292319Y0000392500D03*
X0000292319Y0000387500D03*
X0000292319Y0000382500D03*
X0000310941Y0000382500D03*
X0000310941Y0000387500D03*
X0000310941Y0000392500D03*
X0000310941Y0000397500D03*
G54D45*
X0000129500Y0000041063D03*
X0000129500Y0000048937D03*
X0000155500Y0000226437D03*
X0000155500Y0000218563D03*
X0000164000Y0000226437D03*
X0000164000Y0000218563D03*
X0000200000Y0000026437D03*
X0000200000Y0000018563D03*
X0000310000Y0000079563D03*
X0000301500Y0000079563D03*
X0000310000Y0000087437D03*
X0000301500Y0000087437D03*
G54D19*
X0000021776Y0000269640D03*
X0000021776Y0000265703D03*
G54D73*
X0000336258Y0000129135D03*
X0000336258Y0000131497D03*
X0000336258Y0000133859D03*
X0000336258Y0000136221D03*
X0000336258Y0000138584D03*
X0000336258Y0000140946D03*
X0000336258Y0000143308D03*
X0000336258Y0000145670D03*
X0000336258Y0000148032D03*
X0000336258Y0000150394D03*
X0000336258Y0000152757D03*
X0000336258Y0000155119D03*
X0000336258Y0000157481D03*
X0000336258Y0000159843D03*
X0000336258Y0000162206D03*
G54D55*
X0000245799Y0000162978D03*
X0000245799Y0000161009D03*
X0000245799Y0000159041D03*
X0000245799Y0000157072D03*
X0000245799Y0000155104D03*
X0000245799Y0000153135D03*
X0000245799Y0000174789D03*
X0000245799Y0000172820D03*
X0000245799Y0000170852D03*
X0000245799Y0000168884D03*
X0000245799Y0000166915D03*
X0000245799Y0000164946D03*
X0000279461Y0000153135D03*
X0000279461Y0000155104D03*
X0000279461Y0000157072D03*
X0000279461Y0000159041D03*
X0000279461Y0000161009D03*
X0000279461Y0000162978D03*
X0000279461Y0000164946D03*
X0000279461Y0000166915D03*
X0000279461Y0000168884D03*
X0000279461Y0000170852D03*
X0000279461Y0000172820D03*
X0000279461Y0000174789D03*
G54D37*
X0000071614Y0000059062D03*
G54D28*
X0000042075Y0000339075D03*
X0000042075Y0000337500D03*
X0000042075Y0000335925D03*
X0000040500Y0000339075D03*
X0000040500Y0000337500D03*
X0000040500Y0000335925D03*
X0000038925Y0000339075D03*
X0000038925Y0000337500D03*
X0000038925Y0000335925D03*
G54D46*
X0000141500Y0000036488D03*
X0000141500Y0000047512D03*
X0000188130Y0000017988D03*
X0000188130Y0000029012D03*
G54D64*
X0000269126Y0000043020D03*
G54D65*
X0000269126Y0000057980D03*
G54D38*
X0000066142Y0000058176D03*
X0000088583Y0000058176D03*
G54D74*
X0000341496Y0000228559D03*
X0000341496Y0000251787D03*
G54D56*
X0000255150Y0000046563D03*
X0000255150Y0000054437D03*
X0000255150Y0000052862D03*
X0000255150Y0000051287D03*
X0000255150Y0000049713D03*
X0000255150Y0000048138D03*
X0000270110Y0000046563D03*
X0000270110Y0000054437D03*
X0000270110Y0000052862D03*
X0000270110Y0000051287D03*
X0000270110Y0000049713D03*
X0000270110Y0000048138D03*
G54D29*
X0000029000Y0000401114D03*
X0000029000Y0000397886D03*
X0000049000Y0000330614D03*
X0000049000Y0000327386D03*
X0000056500Y0000347114D03*
X0000056500Y0000343886D03*
X0000121935Y0000098131D03*
X0000121935Y0000094903D03*
X0000140435Y0000114131D03*
X0000140435Y0000110903D03*
X0000135435Y0000114131D03*
X0000135435Y0000110903D03*
X0000140435Y0000119403D03*
X0000140435Y0000122631D03*
X0000135435Y0000119403D03*
X0000135435Y0000122631D03*
X0000145435Y0000114131D03*
X0000145435Y0000110903D03*
X0000145435Y0000119403D03*
X0000145435Y0000122631D03*
X0000145565Y0000130403D03*
X0000145565Y0000133631D03*
X0000150565Y0000142903D03*
X0000150565Y0000146131D03*
X0000155565Y0000142903D03*
X0000155565Y0000146131D03*
X0000147000Y0000217386D03*
X0000147000Y0000220614D03*
X0000172630Y0000063614D03*
X0000172630Y0000060386D03*
X0000167130Y0000060386D03*
X0000167130Y0000063614D03*
X0000173935Y0000093903D03*
X0000173935Y0000097131D03*
X0000168435Y0000093903D03*
X0000168435Y0000097131D03*
X0000162435Y0000097131D03*
X0000162435Y0000093903D03*
X0000160565Y0000142903D03*
X0000160565Y0000146131D03*
X0000176500Y0000180114D03*
X0000176500Y0000176886D03*
X0000176500Y0000218386D03*
X0000176500Y0000221614D03*
X0000171000Y0000218386D03*
X0000171000Y0000221614D03*
X0000178130Y0000063614D03*
X0000178130Y0000060386D03*
X0000183065Y0000128403D03*
X0000183065Y0000123631D03*
X0000183065Y0000120403D03*
X0000183065Y0000131631D03*
X0000181500Y0000176886D03*
X0000181500Y0000180114D03*
X0000182001Y0000218403D03*
X0000182001Y0000221632D03*
X0000192000Y0000218386D03*
X0000192000Y0000221614D03*
X0000187000Y0000218386D03*
X0000187000Y0000221614D03*
X0000235630Y0000043614D03*
X0000235630Y0000040386D03*
X0000234630Y0000077886D03*
X0000234630Y0000081114D03*
X0000227630Y0000077886D03*
X0000227630Y0000081114D03*
X0000237130Y0000174576D03*
X0000237130Y0000171348D03*
X0000257500Y0000395886D03*
X0000257500Y0000399114D03*
X0000266130Y0000212576D03*
X0000266130Y0000209348D03*
X0000271130Y0000212576D03*
X0000271130Y0000209348D03*
X0000276130Y0000209348D03*
X0000276130Y0000212576D03*
X0000271630Y0000353386D03*
X0000271630Y0000356614D03*
X0000263130Y0000395886D03*
X0000263130Y0000399114D03*
X0000284130Y0000048386D03*
X0000284130Y0000051614D03*
X0000278630Y0000048386D03*
X0000278630Y0000051614D03*
X0000284130Y0000070614D03*
X0000284130Y0000067386D03*
X0000278630Y0000070614D03*
X0000278630Y0000067386D03*
X0000291130Y0000173576D03*
X0000291130Y0000170348D03*
X0000289500Y0000319114D03*
X0000289500Y0000315886D03*
X0000289500Y0000328114D03*
X0000289500Y0000324886D03*
X0000280630Y0000396886D03*
X0000280630Y0000400114D03*
X0000296630Y0000170348D03*
X0000296630Y0000173576D03*
X0000306000Y0000421886D03*
X0000306000Y0000425114D03*
X0000300500Y0000421886D03*
X0000300500Y0000425114D03*
X0000327130Y0000162386D03*
X0000327130Y0000165614D03*
G54D47*
X0000140683Y0000098257D03*
X0000140683Y0000090777D03*
X0000130447Y0000090777D03*
X0000130447Y0000094517D03*
X0000130447Y0000098257D03*
X0000173882Y0000040760D03*
X0000173882Y0000044500D03*
X0000173882Y0000048240D03*
X0000184118Y0000048240D03*
X0000184118Y0000040760D03*
X0000184118Y0000044500D03*
G54D75*
X0000328996Y0000235252D03*
X0000328996Y0000237220D03*
X0000328996Y0000239189D03*
X0000328996Y0000241157D03*
X0000328996Y0000243126D03*
X0000328996Y0000245094D03*
G54D57*
X0000256134Y0000043020D03*
G54D48*
X0000159130Y0000035323D03*
X0000159130Y0000050677D03*
X0000248130Y0000066823D03*
X0000248130Y0000082177D03*
G54D39*
X0000095548Y0000247007D03*
X0000095548Y0000435984D03*
X0000225469Y0000247007D03*
X0000225469Y0000435984D03*
G54D66*
X0000263138Y0000083500D03*
X0000289122Y0000083500D03*
G54D76*
X0000343690Y0000281398D03*
X0000343690Y0000340650D03*
G54D67*
X0000274673Y0000434500D03*
X0000272705Y0000434500D03*
X0000270736Y0000434500D03*
X0000268768Y0000434500D03*
X0000266799Y0000434500D03*
X0000264831Y0000434500D03*
X0000292390Y0000434500D03*
X0000290421Y0000434500D03*
X0000288453Y0000434500D03*
X0000286484Y0000434500D03*
X0000284516Y0000434500D03*
X0000282547Y0000434500D03*
X0000280579Y0000434500D03*
X0000278610Y0000434500D03*
X0000276642Y0000434500D03*
X0000306169Y0000434500D03*
X0000304201Y0000434500D03*
X0000302232Y0000434500D03*
X0000300264Y0000434500D03*
X0000298295Y0000434500D03*
X0000296327Y0000434500D03*
X0000294358Y0000434500D03*
G54D58*
X0000258693Y0000043020D03*
X0000258693Y0000057980D03*
X0000260268Y0000043020D03*
X0000261843Y0000043020D03*
X0000263417Y0000043020D03*
X0000264992Y0000043020D03*
X0000266567Y0000043020D03*
X0000260268Y0000057980D03*
X0000261843Y0000057980D03*
X0000263417Y0000057980D03*
X0000264992Y0000057980D03*
X0000266567Y0000057980D03*
G54D49*
X0000151984Y0000110955D03*
X0000154543Y0000110955D03*
X0000157102Y0000110955D03*
X0000159661Y0000110955D03*
X0000159661Y0000133199D03*
X0000157102Y0000133199D03*
X0000154543Y0000133199D03*
X0000151984Y0000133199D03*
X0000162220Y0000110955D03*
X0000164780Y0000110955D03*
X0000167339Y0000110955D03*
X0000169898Y0000110955D03*
X0000172457Y0000110955D03*
X0000175016Y0000110955D03*
X0000175016Y0000133199D03*
X0000172457Y0000133199D03*
X0000169898Y0000133199D03*
X0000167339Y0000133199D03*
X0000164780Y0000133199D03*
X0000162220Y0000133199D03*
G54D77*
X0000336210Y0000290355D03*
X0000336210Y0000292323D03*
X0000336210Y0000294292D03*
X0000336210Y0000296260D03*
X0000336210Y0000298229D03*
X0000336210Y0000300197D03*
X0000336210Y0000302166D03*
X0000336210Y0000304134D03*
X0000336210Y0000306103D03*
X0000336210Y0000308071D03*
X0000336210Y0000310040D03*
X0000336210Y0000312008D03*
X0000336210Y0000313977D03*
X0000336210Y0000315945D03*
X0000336210Y0000317914D03*
X0000336210Y0000319882D03*
X0000336210Y0000321852D03*
X0000336210Y0000323819D03*
X0000336210Y0000325789D03*
X0000336210Y0000327756D03*
X0000336210Y0000329726D03*
X0000336210Y0000331693D03*
G54D68*
X0000282962Y0000205870D03*
X0000282962Y0000212563D03*
X0000292647Y0000212563D03*
X0000292647Y0000205870D03*
G54D59*
X0000256134Y0000057980D03*
G54D69*
X0000291395Y0000345887D03*
X0000289427Y0000345887D03*
X0000287458Y0000345887D03*
X0000285490Y0000345887D03*
X0000283521Y0000345887D03*
X0000281553Y0000345887D03*
X0000291395Y0000361635D03*
X0000289427Y0000361635D03*
X0000287458Y0000361635D03*
X0000285490Y0000361635D03*
X0000283521Y0000361635D03*
X0000281553Y0000361635D03*
G54D78*
X0000346504Y0000125198D03*
X0000346504Y0000166142D03*
G54D79*
G01X0000005000Y0000160000D02*
G03X0Y0000155000I0J-0000005000D01*
G01X0Y0000005000D01*
G03X0000005000Y0I0000005000J0D01*
G01X0000349367Y0D01*
G03X0000354367Y0000005000I0J0000005000D01*
G01X0000354367Y0000447756D01*
G03X0000349367Y0000452756I-0000005000J0D01*
G01X0000005000Y0000452756D01*
G03X0Y0000447756I0J-0000005000D01*
G01X0Y0000417323D01*
G02X0000007874Y0000409449I0J-0000007874D01*
G01X0000007874Y0000374015D01*
G02X0Y0000366141I-0000007874J0D01*
G01X0Y0000218500D01*
G03X0000005000Y0000213500I0000005000J0D01*
G01X0000031130Y0000213500D01*
G02X0000036130Y0000208500I0J-0000005000D01*
G01X0000036130Y0000165000D01*
G02X0000031130Y0000160000I-0000005000J0D01*
G01X0000005000Y0000160000D01*
G01X0Y0000447756D02*
G02X0000005000Y0000452756I0000005000J0D01*
G01X0000349367Y0000452756D01*
G02X0000354367Y0000447756I0J-0000005000D01*
G01X0000354367Y0000005000D01*
G02X0000349367Y0I-0000005000J0D01*
G01X0000005000Y0D01*
G02X0Y0000005000I0J0000005000D01*
G01X0Y0000155000D01*
G02X0000005000Y0000160000I0000005000J0D01*
G01X0Y0000155000D02*
X0Y0000005000D01*
G01X0Y0000005000D02*
G03X0000005000Y0I0000005000J0D01*
G01X0000005000Y0D02*
X0000349367Y0D01*
G01X0000005000Y0000160000D02*
X0000031130Y0000160000D01*
G03X0000036130Y0000165000I0J0000005000D01*
G01X0000036130Y0000208500D01*
G03X0000031130Y0000213500I-0000005000J0D01*
G01X0000005000Y0000213500D01*
G02X0Y0000218500I0J0000005000D01*
G01X0000031130Y0000160000D02*
X0000005000Y0000160000D01*
G01X0000005000Y0000160000D02*
G03X0Y0000155000I0J-0000005000D01*
G01X0Y0000218500D02*
G03X0000005000Y0000213500I0000005000J0D01*
G01X0000005000Y0000213500D02*
X0000031130Y0000213500D01*
G01X0Y0000366141D02*
X0Y0000218500D01*
G01X0Y0000366141D02*
G03X0000007874Y0000374015I0J0000007874D01*
G01X0000007874Y0000409449D02*
X0000007874Y0000374015D01*
G01X0000007874Y0000409449D02*
G03X0Y0000417323I-0000007874J0D01*
G01X0Y0000447756D02*
X0Y0000417323D01*
G01X0000349367Y0000452756D02*
X0000005000Y0000452756D01*
G01X0000005000Y0000452756D02*
G03X0Y0000447756I0J-0000005000D01*
G01X0000036130Y0000165000D02*
G02X0000031130Y0000160000I-0000005000J0D01*
G01X0000036130Y0000208500D02*
X0000036130Y0000165000D01*
G01X0000031130Y0000213500D02*
G02X0000036130Y0000208500I0J-0000005000D01*
G01X0000349367Y0D02*
G03X0000354367Y0000005000I0J0000005000D01*
G01X0000354367Y0000005000D02*
X0000354367Y0000447756D01*
G01X0000354367Y0000447756D02*
G03X0000349367Y0000452756I-0000005000J0D01*
M02*
