G04 ================== begin FILE IDENTIFICATION RECORD ==================*
G04 Layout Name:  D:/PCB_Project/CutiePi/CutiePi_V2_0/CutiePi_V2_0.brd*
G04 Film Name:    VCC05*
G04 File Format:  Gerber RS274X*
G04 File Origin:  Cadence Allegro 16.6-2015-S108*
G04 Origin Date:  Wed Dec 02 16:58:57 2020*
G04 *
G04 Layer:  ETCH/VCC05*
G04 Layer:  PIN/VCC05*
G04 Layer:  VIA CLASS/VCC05*
G04 *
G04 Offset:    (0.000 0.000)*
G04 Mirror:    No*
G04 Mode:      Positive*
G04 Rotation:  0*
G04 FullContactRelief:  No*
G04 UndefLineWidth:     6.000*
G04 ================== end FILE IDENTIFICATION RECORD ====================*
%FSAX55Y55*MOIN*%
%IR0*IPPOS*OFA0.00000B0.00000*MIA0B0*SFA1.00000B1.00000*%
%ADD15C,.1*%
%ADD13O,.100394X.059055*%
%ADD18C,.106299*%
%ADD11C,.02*%
%ADD16C,.06*%
%ADD17R,.06X.06*%
%ADD14O,.047244X.055118*%
%ADD12O,.066929X.043307*%
%ADD10C,.019689*%
%ADD19C,.276854*%
%ADD20C,.032004*%
%ADD22R,.080004X.080004*%
%ADD21C,.080004*%
G75*
%LPD*%
G75*
G36*
G01X0000238000Y0000002500D02*
X0000237500Y0000003000D01*
X0000237500Y0000005500D01*
X0000237067Y0000005933D01*
X0000237116Y0000006056D01*
G03X0000234042Y0000006450I-0000001486J0000000594D01*
G02X0000233646Y0000006000I-0000000397J-0000000050D01*
G01X0000233614Y0000006000D01*
G02X0000233218Y0000006450I0J0000000400D01*
G03X0000230230Y0000007425I-0000001588J0000000200D01*
G02X0000229530Y0000007425I-0000000350J0000000194D01*
G03X0000226542Y0000006450I-0000001400J-0000000775D01*
G02X0000226145Y0000006000I-0000000397J-0000000050D01*
G01X0000076879Y0000006000D01*
G03X0000074381Y0000006000I-0000001249J-0000001000D01*
G01X0000071879Y0000006000D01*
G03X0000069381Y0000006000I-0000001249J-0000001000D01*
G01X0000066879Y0000006000D01*
G03X0000064381Y0000006000I-0000001249J-0000001000D01*
G01X0000054379Y0000006000D01*
G03X0000051881Y0000006000I-0000001249J-0000001000D01*
G01X0000046879Y0000006000D01*
G03X0000044381Y0000006000I-0000001249J-0000001000D01*
G01X0000036879Y0000006000D01*
G03X0000034381Y0000006000I-0000001249J-0000001000D01*
G01X0000026928Y0000006000D01*
G02X0000026621Y0000006657I0J0000000400D01*
G03X0000006657Y0000026621I-0000010873J0000009091D01*
G02X0000006000Y0000026928I-0000000257J0000000307D01*
G01X0000006000Y0000033436D01*
X0000006137Y0000033482D01*
G03X0000006137Y0000036518I-0000000507J0000001518D01*
G01X0000006000Y0000036564D01*
X0000006000Y0000053436D01*
X0000006137Y0000053482D01*
G03X0000006137Y0000056518I-0000000507J0000001518D01*
G01X0000006000Y0000056564D01*
X0000006000Y0000063437D01*
X0000006137Y0000063482D01*
G03X0000006137Y0000066518I-0000000507J0000001518D01*
G01X0000006000Y0000066564D01*
X0000006000Y0000103436D01*
X0000006137Y0000103482D01*
G03X0000006137Y0000106518I-0000000507J0000001518D01*
G01X0000006000Y0000106564D01*
X0000006000Y0000111936D01*
X0000006137Y0000111982D01*
G03X0000006137Y0000115018I-0000000507J0000001518D01*
G01X0000006000Y0000115064D01*
X0000006000Y0000123436D01*
X0000006137Y0000123482D01*
G03X0000006137Y0000126518I-0000000507J0000001518D01*
G01X0000006000Y0000126564D01*
X0000006000Y0000133436D01*
X0000006137Y0000133482D01*
G03X0000006137Y0000136518I-0000000507J0000001518D01*
G01X0000006000Y0000136564D01*
X0000006000Y0000143436D01*
X0000006137Y0000143482D01*
G03X0000006137Y0000146518I-0000000507J0000001518D01*
G01X0000006000Y0000146564D01*
X0000006000Y0000154000D01*
X0000024381Y0000154000D01*
G03X0000026879Y0000154000I0000001249J0000001000D01*
G01X0000031130Y0000154000D01*
G03X0000034139Y0000154420I0J0000011000D01*
G03X0000037053Y0000155731I0000001491J0000000580D01*
G03X0000038628Y0000156951I-0000005923J0000009269D01*
G02X0000038910Y0000156941I0000000136J-0000000146D01*
G03X0000042579Y0000166980I0000004397J0000004083D01*
G02X0000042130Y0000167377I-0000000049J0000000397D01*
G01X0000042130Y0000174442D01*
X0000042141Y0000174474D01*
G03X0000042141Y0000175526I-0000001511J0000000526D01*
G01X0000042130Y0000175558D01*
X0000042130Y0000184442D01*
X0000042141Y0000184474D01*
G03X0000042141Y0000185526I-0000001511J0000000526D01*
G01X0000042130Y0000185558D01*
X0000042130Y0000194442D01*
X0000042141Y0000194474D01*
G03X0000042141Y0000195526I-0000001511J0000000526D01*
G01X0000042130Y0000195558D01*
X0000042130Y0000204442D01*
X0000042141Y0000204474D01*
G03X0000042141Y0000205526I-0000001511J0000000526D01*
G01X0000042130Y0000205558D01*
X0000042130Y0000206246D01*
G02X0000042579Y0000206643I0000000400J0D01*
G03X0000038852Y0000216618I0000000728J0000005956D01*
G02X0000038568Y0000216604I-0000000148J0000000134D01*
G03X0000034298Y0000219034I-0000007438J-0000008104D01*
G02X0000034031Y0000219534I0000000115J0000000383D01*
G03X0000030902Y0000219920I-0000001531J0000000466D01*
G02X0000030502Y0000219500I-0000000399J-0000000020D01*
G01X0000026998Y0000219500D01*
G02X0000026598Y0000219920I0J0000000400D01*
G03X0000023402Y0000219920I-0000001598J0000000080D01*
G02X0000023002Y0000219500I-0000000399J-0000000020D01*
G01X0000006000Y0000219500D01*
X0000006000Y0000247498D01*
X0000007406Y0000247498D01*
G03X0000007406Y0000253829I0J0000003166D01*
G01X0000006000Y0000253829D01*
X0000006000Y0000258436D01*
X0000006137Y0000258482D01*
G03X0000006137Y0000261518I-0000000507J0000001518D01*
G01X0000006000Y0000261564D01*
X0000006000Y0000268436D01*
X0000006137Y0000268482D01*
G03X0000006137Y0000271518I-0000000507J0000001518D01*
G01X0000006000Y0000271564D01*
X0000006000Y0000278436D01*
X0000006137Y0000278482D01*
G03X0000006959Y0000280891I-0000000507J0000001518D01*
G02X0000007291Y0000281514I0000000332J0000000223D01*
G01X0000007406Y0000281514D01*
G03X0000007406Y0000287845I0J0000003166D01*
G01X0000006000Y0000287845D01*
X0000006000Y0000293436D01*
X0000006137Y0000293482D01*
G03X0000006137Y0000296518I-0000000507J0000001518D01*
G01X0000006000Y0000296564D01*
X0000006000Y0000303436D01*
X0000006137Y0000303482D01*
G03X0000006137Y0000306518I-0000000507J0000001518D01*
G01X0000006000Y0000306564D01*
X0000006000Y0000313436D01*
X0000006137Y0000313482D01*
G03X0000006137Y0000316518I-0000000507J0000001518D01*
G01X0000006000Y0000316564D01*
X0000006000Y0000317504D01*
X0000007435Y0000317504D01*
G03X0000007435Y0000325410I0J0000003953D01*
G01X0000006000Y0000325410D01*
X0000006000Y0000328436D01*
X0000006137Y0000328482D01*
G03X0000006137Y0000331518I-0000000507J0000001518D01*
G01X0000006000Y0000331564D01*
X0000006000Y0000338436D01*
X0000006137Y0000338482D01*
G03X0000006137Y0000341518I-0000000507J0000001518D01*
G01X0000006000Y0000341564D01*
X0000006000Y0000341914D01*
X0000007435Y0000341914D01*
G03X0000007435Y0000349820I0J0000003953D01*
G01X0000006000Y0000349820D01*
X0000006000Y0000353751D01*
G03X0000006000Y0000356249I-0000001000J0000001249D01*
G01X0000006000Y0000361506D01*
G03X0000013848Y0000373171I-0000006000J0000012510D01*
G02X0000014398Y0000373517I0000000399J-0000000024D01*
G03X0000014419Y0000376491I0000000602J0000001483D01*
G02X0000013874Y0000376864I-0000000145J0000000373D01*
G01X0000013874Y0000379593D01*
G02X0000014619Y0000379795I0000000400J0D01*
G03X0000020882Y0000381496I0000002901J0000001701D01*
G01X0000020882Y0000382284D01*
G03X0000014619Y0000383984I-0000003362J0D01*
G02X0000013874Y0000384187I-0000000345J0000000202D01*
G01X0000013874Y0000399278D01*
G02X0000014619Y0000399480I0000000400J0D01*
G03X0000020882Y0000401181I0000002901J0000001701D01*
G01X0000020882Y0000401968D01*
G03X0000014619Y0000403669I-0000003362J0D01*
G02X0000013874Y0000403872I-0000000345J0000000202D01*
G01X0000013874Y0000408136D01*
G02X0000014419Y0000408509I0000000400J0D01*
G03X0000014266Y0000411422I0000000581J0000001491D01*
G02X0000013688Y0000411712I-0000000183J0000000355D01*
G03X0000006000Y0000421958I-0000013688J-0000002263D01*
G01X0000006000Y0000425828D01*
G02X0000006657Y0000426135I0000000400J0D01*
G03X0000026621Y0000446099I0000009091J0000010873D01*
G02X0000026928Y0000446756I0000000307J0000000257D01*
G01X0000033529Y0000446756D01*
G02X0000033824Y0000446085I0J-0000000400D01*
G03X0000036176Y0000446085I0000001177J-0000001085D01*
G02X0000036471Y0000446756I0000000294J0000000271D01*
G01X0000043529Y0000446756D01*
G02X0000043824Y0000446085I0J-0000000400D01*
G03X0000046176Y0000446085I0000001176J-0000001085D01*
G02X0000046471Y0000446756I0000000294J0000000271D01*
G01X0000053529Y0000446756D01*
G02X0000053824Y0000446085I0J-0000000400D01*
G03X0000056176Y0000446085I0000001177J-0000001085D01*
G02X0000056471Y0000446756I0000000294J0000000271D01*
G01X0000063529Y0000446756D01*
G02X0000063824Y0000446085I0J-0000000400D01*
G03X0000066176Y0000446085I0000001177J-0000001085D01*
G02X0000066471Y0000446756I0000000294J0000000271D01*
G01X0000073529Y0000446756D01*
G02X0000073824Y0000446085I0J-0000000400D01*
G03X0000076176Y0000446085I0000001177J-0000001085D01*
G02X0000076471Y0000446756I0000000294J0000000271D01*
G01X0000085787Y0000446756D01*
G02X0000086061Y0000446065I0J-0000000400D01*
G03X0000105034Y0000446065I0000009487J-0000010081D01*
G02X0000105308Y0000446756I0000000274J0000000291D01*
G01X0000148689Y0000446756D01*
X0000148689Y0000424177D01*
X0000218242Y0000424177D01*
G03X0000232647Y0000424148I0000007226J0000011807D01*
G01X0000232695Y0000424177D01*
X0000233177Y0000424177D01*
X0000234453Y0000425453D01*
X0000234459Y0000425458D01*
G03X0000235999Y0000426999I-0000008991J0000010526D01*
G01X0000239500Y0000430500D01*
X0000239500Y0000446756D01*
X0000240692Y0000446756D01*
G02X0000241054Y0000446185I0J-0000000400D01*
G03X0000243946Y0000446185I0000001446J-0000000685D01*
G02X0000244308Y0000446756I0000000362J0000000171D01*
G01X0000248529Y0000446756D01*
G02X0000248824Y0000446085I0J-0000000400D01*
G03X0000251176Y0000446085I0000001177J-0000001085D01*
G02X0000251471Y0000446756I0000000294J0000000271D01*
G01X0000283529Y0000446756D01*
G02X0000283824Y0000446085I0J-0000000400D01*
G03X0000286176Y0000446085I0000001177J-0000001085D01*
G02X0000286471Y0000446756I0000000294J0000000271D01*
G01X0000293529Y0000446756D01*
G02X0000293824Y0000446085I0J-0000000400D01*
G03X0000296176Y0000446085I0000001177J-0000001085D01*
G02X0000296471Y0000446756I0000000294J0000000271D01*
G01X0000303529Y0000446756D01*
G02X0000303824Y0000446085I0J-0000000400D01*
G03X0000306176Y0000446085I0000001177J-0000001085D01*
G02X0000306471Y0000446756I0000000294J0000000271D01*
G01X0000323529Y0000446756D01*
G02X0000323824Y0000446085I0J-0000000400D01*
G03X0000325278Y0000443424I0000001176J-0000001085D01*
G02X0000325712Y0000442865I0000000070J-0000000394D01*
G03X0000347710Y0000426135I0000012906J-0000005857D01*
G02X0000348367Y0000425828I0000000257J-0000000307D01*
G01X0000348367Y0000123130D01*
G03X0000348367Y0000120870I0000001133J-0000001130D01*
G01X0000348367Y0000112630D01*
G03X0000348367Y0000110370I0000001133J-0000001130D01*
G01X0000348367Y0000080103D01*
X0000348204Y0000080073D01*
G03X0000348204Y0000076927I0000000296J-0000001573D01*
G01X0000348367Y0000076897D01*
X0000348367Y0000066603D01*
X0000348204Y0000066573D01*
G03X0000348204Y0000063427I0000000296J-0000001573D01*
G01X0000348367Y0000063397D01*
X0000348367Y0000045103D01*
X0000348204Y0000045073D01*
G03X0000348204Y0000041927I0000000296J-0000001573D01*
G01X0000348367Y0000041897D01*
X0000348367Y0000026928D01*
G02X0000347710Y0000026621I-0000000400J0D01*
G03X0000327745Y0000006657I-0000009092J-0000010873D01*
G02X0000327438Y0000006000I-0000000307J-0000000257D01*
G01X0000321879Y0000006000D01*
G03X0000319381Y0000006000I-0000001249J-0000001000D01*
G01X0000311879Y0000006000D01*
G03X0000309381Y0000006000I-0000001249J-0000001000D01*
G01X0000301879Y0000006000D01*
G03X0000299381Y0000006000I-0000001249J-0000001000D01*
G01X0000291879Y0000006000D01*
G03X0000289381Y0000006000I-0000001249J-0000001000D01*
G01X0000287249Y0000006000D01*
G03X0000284751Y0000006000I-0000001249J-0000001000D01*
G01X0000272484Y0000006000D01*
G02X0000272113Y0000006550I0J0000000400D01*
G03X0000269147Y0000006550I-0000001483J0000000600D01*
G02X0000268776Y0000006000I-0000000371J-0000000150D01*
G01X0000268484Y0000006000D01*
G02X0000268113Y0000006550I0J0000000400D01*
G03X0000265147Y0000006550I-0000001483J0000000600D01*
G02X0000264776Y0000006000I-0000000371J-0000000150D01*
G01X0000263984Y0000006000D01*
G02X0000263613Y0000006550I0J0000000400D01*
G03X0000260647Y0000006550I-0000001483J0000000600D01*
G02X0000260276Y0000006000I-0000000371J-0000000150D01*
G01X0000259984Y0000006000D01*
G02X0000259613Y0000006550I0J0000000400D01*
G03X0000256647Y0000006550I-0000001483J0000000600D01*
G02X0000256276Y0000006000I-0000000371J-0000000150D01*
G01X0000255984Y0000006000D01*
G02X0000255613Y0000006550I0J0000000400D01*
G03X0000252771Y0000006306I-0000001483J0000000600D01*
G02X0000252601Y0000006000I-0000000170J-0000000105D01*
G01X0000252500Y0000006000D01*
X0000252000Y0000005500D01*
X0000252000Y0000003000D01*
X0000251500Y0000002500D01*
X0000238000Y0000002500D01*
G37*
%LPC*%
G75*
G36*
G01X0000016529Y0000341914D02*
G02X0000016529Y0000349820I0J0000003953D01*
G01X0000020663Y0000349820D01*
G02X0000020663Y0000341914I0J-0000003953D01*
G01X0000016529Y0000341914D01*
G37*
G36*
G01X0000016529Y0000317504D02*
G02X0000016529Y0000325410I0J0000003953D01*
G01X0000020663Y0000325410D01*
G02X0000020663Y0000317504I0J-0000003953D01*
G01X0000016529Y0000317504D01*
G37*
G36*
G01X0000020004Y0000281514D02*
G02X0000020004Y0000287845I0J0000003166D01*
G01X0000022366Y0000287845D01*
G02X0000022366Y0000281514I0J-0000003165D01*
G01X0000020004Y0000281514D01*
G37*
G36*
G01X0000020004Y0000247498D02*
G02X0000020004Y0000253829I0J0000003166D01*
G01X0000022366Y0000253829D01*
G02X0000022366Y0000247498I0J-0000003165D01*
G01X0000020004Y0000247498D01*
G37*
G36*
G01X0000267647Y0000431313D02*
G03X0000267920Y0000431313I0000000136J0000000146D01*
G02X0000267920Y0000428387I0000001364J-0000001463D01*
G03X0000267647Y0000428387I-0000000136J-0000000146D01*
G02X0000264637Y0000428714I-0000001364J0000001463D01*
G03X0000264046Y0000428789I-0000000329J-0000000227D01*
G02X0000264152Y0000431110I-0000001046J0000001211D01*
G03X0000264748Y0000431131I0000000288J0000000278D01*
G02X0000267647Y0000431313I0000001536J-0000001282D01*
G37*
G36*
G01X0000081973Y0000384831D02*
G03X0000082494Y0000384518I0000000394J0000000066D01*
G02X0000081482Y0000382494I0000000506J-0000001518D01*
G03X0000080919Y0000382723I-0000000379J-0000000126D01*
G02X0000078537Y0000385864I-0000000919J0000001777D01*
G03X0000078537Y0000386136I-0000000146J0000000136D01*
G02X0000080919Y0000389277I0000001463J0000001364D01*
G03X0000081482Y0000389506I0000000184J0000000355D01*
G02X0000082494Y0000387482I0000001518J-0000000506D01*
G03X0000081973Y0000387169I-0000000127J-0000000379D01*
G02X0000081463Y0000386136I-0000001973J0000000331D01*
G03X0000081463Y0000385864I0000000146J-0000000136D01*
G02X0000081973Y0000384831I-0000001463J-0000001364D01*
G37*
G36*
G01X0000120933Y0000380425D02*
G03X0000121456Y0000380152I0000000387J0000000103D01*
G02X0000120543Y0000377986I0000000544J-0000001505D01*
G03X0000119982Y0000378169I-0000000364J-0000000165D01*
G02X0000117537Y0000381275I-0000000982J0000001742D01*
G03X0000117537Y0000381548I-0000000146J0000000136D01*
G02X0000119991Y0000384649I0000001463J0000001364D01*
G03X0000120551Y0000384826I0000000198J0000000347D01*
G02X0000121450Y0000382645I0000001449J-0000000679D01*
G03X0000120927Y0000382376I-0000000137J-0000000376D01*
G02X0000120463Y0000381548I-0000001927J0000000535D01*
G03X0000120463Y0000381275I0000000146J-0000000136D01*
G02X0000120933Y0000380425I-0000001463J-0000001364D01*
G37*
G36*
G01X0000093559Y0000376800D02*
G03X0000093559Y0000376200I0000000265J-0000000300D01*
G02X0000091441Y0000376200I-0000001059J-0000001200D01*
G03X0000091441Y0000376800I-0000000265J0000000300D01*
G02X0000093559Y0000376800I0000001059J0000001200D01*
G37*
G36*
G01X0000106942Y0000373079D02*
G03X0000106465Y0000372856I-0000000111J-0000000384D01*
G02X0000105121Y0000375096I-0000001465J0000000644D01*
G03X0000105543Y0000375412I0000000030J0000000399D01*
G02X0000106037Y0000376364I0000001957J-0000000412D01*
G03X0000106037Y0000376636I-0000000146J0000000136D01*
G02X0000105645Y0000377252I0000001463J0000001364D01*
G03X0000105100Y0000377462I-0000000371J-0000000150D01*
G02X0000105763Y0000379742I-0000000698J0000001440D01*
G03X0000106336Y0000379627I0000000340J0000000210D01*
G02X0000108963Y0000376636I0000001164J-0000001627D01*
G03X0000108963Y0000376364I0000000146J-0000000136D01*
G02X0000106942Y0000373079I-0000001463J-0000001364D01*
G37*
G36*
G01X0000119596Y0000374879D02*
G03X0000119912Y0000374457I0000000399J-0000000030D01*
G02X0000120963Y0000371136I-0000000412J-0000001957D01*
G03X0000120963Y0000370864I0000000146J-0000000136D01*
G02X0000119912Y0000367543I-0000001463J-0000001364D01*
G03X0000119596Y0000367121I0000000082J-0000000391D01*
G02X0000117356Y0000368465I-0000001596J-0000000121D01*
G03X0000117579Y0000368943I-0000000161J0000000366D01*
G02X0000118037Y0000370864I0000001921J0000000557D01*
G03X0000118037Y0000371136I-0000000146J0000000136D01*
G02X0000117579Y0000373058I0000001463J0000001364D01*
G03X0000117356Y0000373535I-0000000384J0000000111D01*
G02X0000119596Y0000374879I0000000644J0000001465D01*
G37*
G36*
G01X0000105059Y0000354800D02*
G03X0000105059Y0000354200I0000000265J-0000000300D01*
G02X0000102941Y0000354200I-0000001059J-0000001200D01*
G03X0000102941Y0000354800I-0000000265J0000000300D01*
G02X0000105059Y0000354800I0000001059J0000001200D01*
G37*
G36*
G01X0000075537Y0000352864D02*
G03X0000075537Y0000353136I-0000000146J0000000136D01*
G02X0000077558Y0000356421I0000001463J0000001364D01*
G03X0000078035Y0000356644I0000000111J0000000384D01*
G02X0000079379Y0000354404I0000001465J-0000000644D01*
G03X0000078957Y0000354088I-0000000030J-0000000399D01*
G02X0000078463Y0000353136I-0000001957J0000000412D01*
G03X0000078463Y0000352864I0000000146J-0000000136D01*
G02X0000076081Y0000349723I-0000001463J-0000001364D01*
G03X0000075518Y0000349494I-0000000184J-0000000355D01*
G02X0000074506Y0000351518I-0000001518J0000000506D01*
G03X0000075027Y0000351831I0000000127J0000000379D01*
G02X0000075537Y0000352864I0000001973J-0000000331D01*
G37*
G36*
G01X0000065496Y0000343037D02*
G03X0000065224Y0000343037I-0000000136J-0000000146D01*
G02X0000062008Y0000345256I-0000001364J0000001463D01*
G03X0000061898Y0000345517I-0000000185J0000000076D01*
G02X0000064072Y0000346700I0000000602J0000001483D01*
G03X0000064231Y0000346466I0000000196J-0000000038D01*
G02X0000065224Y0000345963I-0000000371J-0000001965D01*
G03X0000065496Y0000345963I0000000136J0000000146D01*
G02X0000066979Y0000346497I0000001364J-0000001463D01*
G03X0000067402Y0000346917I0000000024J0000000399D01*
G02X0000069164Y0000345408I0000001598J0000000083D01*
G03X0000068814Y0000344925I0000000041J-0000000398D01*
G02X0000065496Y0000343037I-0000001954J-0000000425D01*
G37*
G36*
G01X0000096779Y0000336330D02*
G03X0000096908Y0000335818I0000000356J-0000000183D01*
G02X0000094457Y0000334925I-0000000908J-0000001318D01*
G03X0000094226Y0000335400I-0000000386J0000000106D01*
G02X0000093537Y0000338608I0000000774J0000001844D01*
G03X0000093537Y0000338880I-0000000146J0000000136D01*
G02X0000094229Y0000342090I0000001463J0000001364D01*
G03X0000094460Y0000342567I-0000000154J0000000369D01*
G02X0000096904Y0000341680I0000001540J0000000433D01*
G03X0000096775Y0000341166I0000000226J-0000000330D01*
G02X0000096463Y0000338880I-0000001775J-0000000921D01*
G03X0000096463Y0000338608I0000000146J-0000000136D01*
G02X0000096779Y0000336330I-0000001463J-0000001364D01*
G37*
G36*
G01X0000142399Y0000331903D02*
G03X0000141978Y0000331563I-0000000025J-0000000399D01*
G02X0000141463Y0000330496I-0000001978J0000000297D01*
G03X0000141463Y0000330224I0000000146J-0000000136D01*
G02X0000141997Y0000328975I-0000001463J-0000001364D01*
G03X0000142417Y0000328598I0000000399J0000000023D01*
G02X0000140946Y0000326620I0000000083J-0000001598D01*
G03X0000140464Y0000326914I-0000000389J-0000000095D01*
G02X0000138537Y0000330224I-0000000464J0000001946D01*
G03X0000138537Y0000330496I-0000000146J0000000136D01*
G02X0000140516Y0000333793I0000001463J0000001364D01*
G03X0000140995Y0000334043I0000000103J0000000386D01*
G02X0000142399Y0000331903I0000001505J-0000000543D01*
G37*
G36*
G01X0000327587Y0000327412D02*
G03X0000328109Y0000327117I0000000391J0000000082D01*
G02X0000327137Y0000325028I0000000521J-0000001513D01*
G03X0000326575Y0000325237I-0000000373J-0000000144D01*
G02X0000324261Y0000328458I-0000000945J0000001763D01*
G03X0000324261Y0000329042I-0000000274J0000000292D01*
G02X0000326702Y0000332189I0000001369J0000001458D01*
G03X0000327261Y0000332323I0000000214J0000000338D01*
G02X0000328030Y0000330028I0000001377J-0000000814D01*
G03X0000327503Y0000329799I-0000000152J-0000000370D01*
G02X0000326999Y0000329042I-0000001873J0000000701D01*
G03X0000326999Y0000328458I0000000274J-0000000292D01*
G02X0000327587Y0000327412I-0000001369J-0000001458D01*
G37*
G36*
G01X0000031385Y0000324802D02*
G03X0000030861Y0000324658I-0000000184J-0000000355D01*
G02X0000029948Y0000327036I-0000001361J0000000842D01*
G03X0000030435Y0000327280I0000000112J0000000384D01*
G02X0000030844Y0000327941I0000001873J-0000000702D01*
G03X0000030844Y0000328214I-0000000146J0000000136D01*
G02X0000030355Y0000329142I0000001463J0000001364D01*
G03X0000029872Y0000329444I-0000000390J-0000000087D01*
G02X0000029830Y0000332566I-0000000372J0000001556D01*
G03X0000030310Y0000332998I0000000083J0000000391D01*
G02X0000030837Y0000334568I0000001990J0000000206D01*
G03X0000030837Y0000334841I-0000000146J0000000136D01*
G02X0000030373Y0000335668I0000001463J0000001364D01*
G03X0000029890Y0000335948I-0000000385J-0000000107D01*
G02X0000030935Y0000338207I-0000000390J0000001552D01*
G03X0000031462Y0000338021I0000000359J0000000177D01*
G02X0000033763Y0000334841I0000000838J-0000001816D01*
G03X0000033763Y0000334568I0000000146J-0000000136D01*
G02X0000033613Y0000331696I-0000001463J-0000001364D01*
G03X0000033614Y0000331092I0000000263J-0000000302D01*
G02X0000033771Y0000328214I-0000001307J-0000001514D01*
G03X0000033771Y0000327941I0000000146J-0000000136D01*
G02X0000031385Y0000324802I-0000001463J-0000001364D01*
G37*
G36*
G01X0000320322Y0000319264D02*
G03X0000319794Y0000319058I-0000000162J-0000000366D01*
G02X0000318700Y0000321254I-0000001467J0000000640D01*
G03X0000319183Y0000321551I0000000093J0000000389D01*
G02X0000319761Y0000322552I0000001947J-0000000457D01*
G03X0000319761Y0000323135I-0000000274J0000000292D01*
G02X0000319287Y0000323817I0000001369J0000001458D01*
G03X0000318761Y0000324029I-0000000369J-0000000155D01*
G02X0000319469Y0000326376I-0000000631J0000001471D01*
G03X0000320025Y0000326261I0000000335J0000000219D01*
G02X0000322499Y0000323135I0000001105J-0000001667D01*
G03X0000322499Y0000322552I0000000274J-0000000292D01*
G02X0000320322Y0000319264I-0000001369J-0000001458D01*
G37*
G36*
G01X0000327587Y0000315601D02*
G03X0000328109Y0000315306I0000000391J0000000082D01*
G02X0000327137Y0000313217I0000000521J-0000001513D01*
G03X0000326575Y0000313426I-0000000373J-0000000144D01*
G02X0000324261Y0000316647I-0000000945J0000001763D01*
G03X0000324261Y0000317231I-0000000274J0000000292D01*
G02X0000326702Y0000320378I0000001369J0000001458D01*
G03X0000327261Y0000320512I0000000214J0000000338D01*
G02X0000328030Y0000318217I0000001377J-0000000814D01*
G03X0000327503Y0000317988I-0000000152J-0000000370D01*
G02X0000326999Y0000317231I-0000001873J0000000701D01*
G03X0000326999Y0000316647I0000000274J-0000000292D01*
G02X0000327587Y0000315601I-0000001369J-0000001458D01*
G37*
G36*
G01X0000091312Y0000316957D02*
G03X0000090931Y0000317401I-0000000398J0000000045D01*
G02X0000092598Y0000319092I0000000069J0000001599D01*
G03X0000093047Y0000318719I0000000399J0000000023D01*
G02X0000094763Y0000315371I0000000252J-0000001984D01*
G03X0000094763Y0000315098I0000000146J-0000000136D01*
G02X0000091836Y0000315098I-0000001463J-0000001364D01*
G03X0000091836Y0000315371I-0000000146J0000000136D01*
G02X0000091312Y0000316957I0000001463J0000001364D01*
G37*
G36*
G01X0000322499Y0000311324D02*
G03X0000322499Y0000310741I0000000274J-0000000292D01*
G02X0000319541Y0000308068I-0000001369J-0000001458D01*
G03X0000319005Y0000308160I-0000000318J-0000000243D01*
G02X0000319189Y0000310700I-0000000875J0000001340D01*
G03X0000319733Y0000310714I0000000265J0000000300D01*
G02X0000319761Y0000310741I0000001398J-0000001431D01*
G03X0000319761Y0000311324I-0000000274J0000000292D01*
G02X0000319278Y0000312027I0000001369J0000001458D01*
G03X0000318794Y0000312259I-0000000370J-0000000151D01*
G02X0000319669Y0000314680I-0000000456J0000001534D01*
G03X0000320190Y0000314548I0000000333J0000000222D01*
G02X0000322499Y0000311324I0000000940J-0000001766D01*
G37*
G36*
G01X0000328042Y0000303965D02*
G03X0000328540Y0000303699I0000000382J0000000117D01*
G02X0000327581Y0000301427I0000000460J-0000001533D01*
G03X0000327043Y0000301598I-0000000355J-0000000185D01*
G02X0000324761Y0000304836I-0000000913J0000001780D01*
G03X0000324761Y0000305420I-0000000274J0000000292D01*
G02X0000327158Y0000308594I0000001369J0000001458D01*
G03X0000327716Y0000308750I0000000206J0000000343D01*
G02X0000328555Y0000306506I0000001414J-0000000750D01*
G03X0000328032Y0000306257I-0000000144J-0000000373D01*
G02X0000327499Y0000305420I-0000001901J0000000621D01*
G03X0000327499Y0000304836I0000000274J-0000000292D01*
G02X0000328042Y0000303965I-0000001369J-0000001458D01*
G37*
G36*
G01X0000063930Y0000176941D02*
G03X0000063330Y0000176941I-0000000300J-0000000265D01*
G02X0000063330Y0000179059I-0000001200J0000001059D01*
G03X0000063930Y0000179059I0000000300J0000000265D01*
G02X0000063930Y0000176941I0000001200J-0000001059D01*
G37*
G36*
G01X0000341512Y0000158809D02*
G03X0000342118Y0000158809I0000000303J0000000262D01*
G02X0000342849Y0000159341I0000001513J-0000001309D01*
G03X0000342994Y0000159972I-0000000156J0000000368D01*
G02X0000345013Y0000159646I0000001206J0000001052D01*
G03X0000344952Y0000159001I0000000203J-0000000345D01*
G02X0000342118Y0000156191I-0000001322J-0000001501D01*
G03X0000341512Y0000156191I-0000000303J-0000000262D01*
G02X0000341512Y0000158809I-0000001513J0000001309D01*
G37*
G36*
G01X0000342042Y0000151631D02*
G03X0000341458Y0000151631I-0000000292J-0000000274D01*
G02X0000341458Y0000154369I-0000001458J0000001369D01*
G03X0000342042Y0000154369I0000000292J0000000274D01*
G02X0000342042Y0000151631I0000001458J-0000001369D01*
G37*
G36*
G01X0000342022Y0000146114D02*
G03X0000341439Y0000146114I-0000000292J-0000000274D01*
G02X0000341439Y0000148852I-0000001458J0000001369D01*
G03X0000342022Y0000148852I0000000292J0000000274D01*
G02X0000342022Y0000146114I0000001458J-0000001369D01*
G37*
G36*
G01X0000342022Y0000140614D02*
G03X0000341439Y0000140614I-0000000292J-0000000274D01*
G02X0000341439Y0000143352I-0000001458J0000001369D01*
G03X0000342022Y0000143352I0000000292J0000000274D01*
G02X0000342022Y0000140614I0000001458J-0000001369D01*
G37*
G36*
G01X0000342022Y0000135114D02*
G03X0000341439Y0000135114I-0000000292J-0000000274D01*
G02X0000341439Y0000137852I-0000001458J0000001369D01*
G03X0000342022Y0000137852I0000000292J0000000274D01*
G02X0000342022Y0000135114I0000001458J-0000001369D01*
G37*
G36*
G01X0000250430Y0000043141D02*
G03X0000249830Y0000043141I-0000000300J-0000000265D01*
G02X0000247487Y0000045320I-0000001200J0000001059D01*
G03X0000247487Y0000045880I-0000000286J0000000280D01*
G02X0000249830Y0000048059I0000001143J0000001120D01*
G03X0000250430Y0000048059I0000000300J0000000265D01*
G02X0000252773Y0000045880I0000001200J-0000001059D01*
G03X0000252773Y0000045320I0000000286J-0000000280D01*
G02X0000250430Y0000043141I-0000001143J-0000001120D01*
G37*
G36*
G01X0000125559Y0000024300D02*
G03X0000125559Y0000023700I0000000265J-0000000300D01*
G02X0000123441Y0000023700I-0000001059J-0000001200D01*
G03X0000123441Y0000024300I-0000000265J0000000300D01*
G02X0000125559Y0000024300I0000001059J0000001200D01*
G37*
G36*
G01X0000279458Y0000428387D02*
G02X0000279458Y0000431313I-0000001364J0000001463D01*
G03X0000279731Y0000431313I0000000136J0000000146D01*
G02X0000282877Y0000430757I0000001364J-0000001463D01*
G03X0000283587Y0000430751I0000000357J0000000181D01*
G02X0000283649Y0000429143I0000001413J-0000000751D01*
G03X0000282941Y0000429082I-0000000338J-0000000214D01*
G02X0000279731Y0000428387I-0000001847J0000000768D01*
G03X0000279458Y0000428387I-0000000136J-0000000146D01*
G37*
G36*
G01X0000273552Y0000423537D02*
G02X0000270453Y0000424006I-0000001364J0000001463D01*
G03X0000269785Y0000424046I-0000000347J-0000000199D01*
G02X0000269785Y0000425954I-0000001285J0000000954D01*
G03X0000270453Y0000425994I0000000321J0000000238D01*
G02X0000273552Y0000426463I0000001736J-0000000994D01*
G03X0000273825Y0000426463I0000000136J0000000146D01*
G02X0000276790Y0000426199I0000001364J-0000001463D01*
G03X0000277388Y0000426151I0000000320J0000000240D01*
G02X0000277388Y0000423849I0000001112J-0000001151D01*
G03X0000276790Y0000423801I-0000000278J-0000000288D01*
G02X0000273825Y0000423537I-0000001601J0000001199D01*
G03X0000273552Y0000423537I-0000000136J-0000000146D01*
G37*
G36*
G01X0000106168Y0000383396D02*
G02X0000103037Y0000385864I-0000001668J0000001104D01*
G03X0000103037Y0000386136I-0000000146J0000000136D01*
G02X0000106010Y0000388811I0000001463J0000001364D01*
G03X0000106650Y0000388859I0000000302J0000000262D01*
G02X0000108775Y0000386600I0000001350J-0000000859D01*
G03X0000108775Y0000385900I0000000194J-0000000350D01*
G02X0000106801Y0000383440I-0000000775J-0000001400D01*
G03X0000106168Y0000383396I-0000000300J-0000000265D01*
G37*
G36*
G01X0000105277Y0000365973D02*
G02X0000103449Y0000366101I-0000001005J-0000001245D01*
G03X0000103495Y0000366755I-0000000206J0000000343D01*
G02X0000105323Y0000366628I0000001005J0000001245D01*
G03X0000105277Y0000365973I0000000206J-0000000343D01*
G37*
G36*
G01X0000073096Y0000360385D02*
G02X0000072380Y0000361836I-0000001596J0000000115D01*
G03X0000073000Y0000362180I0000000220J0000000334D01*
G02X0000073537Y0000363590I0000002000J0000000046D01*
G03X0000073537Y0000363862I-0000000146J0000000136D01*
G02X0000073002Y0000365313I0000001463J0000001364D01*
G03X0000072382Y0000365665I-0000000400J0000000017D01*
G02X0000073098Y0000367078I-0000000882J0000001335D01*
G03X0000073748Y0000366786I0000000400J0000000020D01*
G02X0000076463Y0000363862I0000001252J-0000001560D01*
G03X0000076463Y0000363590I0000000146J-0000000136D01*
G02X0000073746Y0000360668I-0000001463J-0000001364D01*
G03X0000073096Y0000360385I-0000000251J-0000000312D01*
G37*
G36*
G01X0000033969Y0000348648D02*
G02X0000033969Y0000350352I-0000001354J0000000852D01*
G03X0000034646Y0000350352I0000000339J0000000213D01*
G02X0000037400Y0000350275I0000001354J-0000000852D01*
G03X0000038100Y0000350275I0000000350J0000000194D01*
G02X0000038100Y0000348725I0000001400J-0000000775D01*
G03X0000037400Y0000348725I-0000000350J-0000000194D01*
G02X0000034646Y0000348648I-0000001400J0000000775D01*
G03X0000033969Y0000348648I-0000000339J-0000000213D01*
G37*
G36*
G01X0000092234Y0000348422D02*
G02X0000090766Y0000348422I-0000000734J-0000001422D01*
G03X0000090766Y0000349133I-0000000183J0000000355D01*
G02X0000092234Y0000349133I0000000734J0000001422D01*
G03X0000092234Y0000348422I0000000183J-0000000355D01*
G37*
G36*
G01X0000135105Y0000347327D02*
G02X0000134444Y0000345626I0000000895J-0000001327D01*
G03X0000133796Y0000345837I-0000000389J-0000000094D01*
G02X0000131037Y0000348724I-0000001296J0000001523D01*
G03X0000131037Y0000348996I-0000000146J0000000136D01*
G02X0000133760Y0000351913I0000001463J0000001364D01*
G03X0000134410Y0000352179I0000000252J0000000311D01*
G02X0000135120Y0000350664I0000001590J-0000000179D01*
G03X0000134500Y0000350334I-0000000220J-0000000334D01*
G02X0000133963Y0000348996I-0000002000J0000000026D01*
G03X0000133963Y0000348724I0000000146J-0000000136D01*
G02X0000134485Y0000347609I-0000001463J-0000001364D01*
G03X0000135105Y0000347327I0000000397J0000000050D01*
G37*
G36*
G01X0000142605Y0000341327D02*
G02X0000141944Y0000339626I0000000895J-0000001327D01*
G03X0000141296Y0000339837I-0000000389J-0000000094D01*
G02X0000138537Y0000342724I-0000001296J0000001523D01*
G03X0000138537Y0000342996I-0000000146J0000000136D01*
G02X0000141260Y0000345913I0000001463J0000001364D01*
G03X0000141910Y0000346179I0000000252J0000000311D01*
G02X0000142620Y0000344664I0000001590J-0000000179D01*
G03X0000142000Y0000344334I-0000000220J-0000000334D01*
G02X0000141463Y0000342996I-0000002000J0000000026D01*
G03X0000141463Y0000342724I0000000146J-0000000136D01*
G02X0000141985Y0000341609I-0000001463J-0000001364D01*
G03X0000142605Y0000341327I0000000397J0000000050D01*
G37*
G36*
G01X0000056400Y0000339225D02*
G02X0000056400Y0000340775I-0000001400J0000000775D01*
G03X0000057100Y0000340775I0000000350J0000000194D01*
G02X0000057100Y0000339225I0000001400J-0000000775D01*
G03X0000056400Y0000339225I-0000000350J-0000000194D01*
G37*
G36*
G01X0000135105Y0000334827D02*
G02X0000134444Y0000333126I0000000895J-0000001327D01*
G03X0000133796Y0000333337I-0000000389J-0000000094D01*
G02X0000131037Y0000336224I-0000001296J0000001523D01*
G03X0000131037Y0000336496I-0000000146J0000000136D01*
G02X0000133388Y0000339652I0000001463J0000001364D01*
G03X0000133953Y0000339908I0000000178J0000000358D01*
G02X0000135008Y0000337977I0000001547J-0000000408D01*
G03X0000134488Y0000337640I-0000000123J-0000000381D01*
G02X0000133963Y0000336496I-0000001988J0000000220D01*
G03X0000133963Y0000336224I0000000146J-0000000136D01*
G02X0000134485Y0000335109I-0000001463J-0000001364D01*
G03X0000135105Y0000334827I0000000397J0000000050D01*
G37*
G36*
G01X0000082382Y0000332596D02*
G02X0000081029Y0000330370I0000000118J-0000001596D01*
G03X0000080551Y0000330597I-0000000368J-0000000158D01*
G02X0000078537Y0000333883I-0000000551J0000001923D01*
G03X0000078537Y0000334156I-0000000146J0000000136D01*
G02X0000080564Y0000337439I0000001463J0000001364D01*
G03X0000081041Y0000337658I0000000113J0000000384D01*
G02X0000081725Y0000338400I0000001459J-0000000658D01*
G03X0000081725Y0000339100I-0000000194J0000000350D01*
G02X0000081045Y0000339834I0000000775J0000001400D01*
G03X0000080568Y0000340051I-0000000364J-0000000167D01*
G02X0000078622Y0000340519I-0000000568J0000001918D01*
G03X0000077977Y0000340384I-0000000276J-0000000290D01*
G02X0000076908Y0000339453I-0000001477J0000000617D01*
G03X0000076652Y0000338888I0000000102J-0000000387D01*
G02X0000073496Y0000336537I-0000001792J-0000000888D01*
G03X0000073224Y0000336537I-0000000136J-0000000146D01*
G02X0000070102Y0000338954I-0000001364J0000001463D01*
G03X0000069901Y0000339516I-0000000352J0000000191D01*
G02X0000072011Y0000340473I0000000599J0000001484D01*
G03X0000072300Y0000339951I0000000378J-0000000132D01*
G02X0000073224Y0000339463I-0000000441J-0000001951D01*
G03X0000073496Y0000339463I0000000136J0000000146D01*
G02X0000074640Y0000339988I0000001364J-0000001463D01*
G03X0000074977Y0000340508I-0000000044J0000000398D01*
G02X0000077450Y0000342288I0000001523J0000000492D01*
G03X0000078072Y0000342503I0000000237J0000000322D01*
G02X0000078537Y0000343332I0000001927J-0000000535D01*
G03X0000078537Y0000343605I-0000000146J0000000136D01*
G02X0000081463Y0000343605I0000001463J0000001364D01*
G03X0000081463Y0000343332I0000000146J-0000000136D01*
G02X0000081952Y0000342406I-0000001463J-0000001364D01*
G03X0000082374Y0000342095I0000000390J0000000088D01*
G02X0000083275Y0000339100I0000000126J-0000001595D01*
G03X0000083275Y0000338400I0000000194J-0000000350D01*
G02X0000082376Y0000335405I-0000000775J-0000001400D01*
G03X0000081954Y0000335092I-0000000031J-0000000399D01*
G02X0000081463Y0000334156I-0000001954J0000000428D01*
G03X0000081463Y0000333883I0000000146J-0000000136D01*
G02X0000081961Y0000332916I-0000001463J-0000001364D01*
G03X0000082382Y0000332596I0000000392J0000000079D01*
G37*
G36*
G01X0000013700Y0000329886D02*
G02X0000012964Y0000328052I0000000800J-0000001386D01*
G03X0000012338Y0000328259I-0000000384J-0000000112D01*
G02X0000009667Y0000331216I-0000001208J0000001594D01*
G03X0000009667Y0000331489I-0000000146J0000000136D01*
G02X0000009638Y0000334185I0000001463J0000001364D01*
G03X0000009638Y0000334451I-0000000149J0000000133D01*
G02X0000009667Y0000337147I0000001492J0000001332D01*
G03X0000009667Y0000337420I-0000000146J0000000136D01*
G02X0000010402Y0000340647I0000001463J0000001364D01*
G03X0000010605Y0000341216I-0000000146J0000000373D01*
G02X0000013568Y0000341680I0000001395J0000000785D01*
G03X0000013968Y0000341200I0000000392J-0000000080D01*
G02X0000013430Y0000338105I0000000032J-0000001600D01*
G03X0000012928Y0000337907I-0000000143J-0000000374D01*
G02X0000012593Y0000337420I-0000001798J0000000877D01*
G03X0000012593Y0000337147I0000000146J-0000000136D01*
G02X0000013126Y0000335916I-0000001463J-0000001364D01*
G03X0000013620Y0000335554I0000000399J0000000027D01*
G02X0000013525Y0000332472I0000000380J-0000001554D01*
G03X0000013027Y0000332217I-0000000119J-0000000382D01*
G02X0000012593Y0000331489I-0000001897J0000000635D01*
G03X0000012593Y0000331216I0000000146J-0000000136D01*
G02X0000013105Y0000330169I-0000001463J-0000001364D01*
G03X0000013700Y0000329886I0000000395J0000000063D01*
G37*
G36*
G01X0000135002Y0000323021D02*
G02X0000133966Y0000321043I0000000498J-0000001521D01*
G03X0000133403Y0000321286I-0000000383J-0000000114D01*
G02X0000131037Y0000324434I-0000000903J0000001785D01*
G03X0000131037Y0000324707I-0000000146J0000000136D01*
G02X0000133785Y0000327603I0000001463J0000001364D01*
G03X0000134434Y0000327828I0000000257J0000000306D01*
G02X0000135111Y0000326170I0000001566J-0000000328D01*
G03X0000134491Y0000325876I-0000000222J-0000000333D01*
G02X0000133963Y0000324707I-0000001991J0000000195D01*
G03X0000133963Y0000324434I0000000146J-0000000136D01*
G02X0000134481Y0000323346I-0000001463J-0000001364D01*
G03X0000135002Y0000323021I0000000396J0000000055D01*
G37*
G36*
G01X0000330029Y0000286971D02*
G02X0000326971Y0000286971I-0000001529J-0000000471D01*
G03X0000326471Y0000287471I-0000000382J0000000118D01*
G02X0000327529Y0000288529I-0000000471J0000001529D01*
G03X0000328029Y0000288029I0000000382J-0000000118D01*
G02X0000328971Y0000288029I0000000471J-0000001529D01*
G03X0000329471Y0000288529I0000000118J0000000382D01*
G02X0000330529Y0000287471I0000001529J0000000471D01*
G03X0000330029Y0000286971I-0000000118J-0000000382D01*
G37*
G36*
G01X0000178900Y0000196225D02*
G02X0000176297Y0000198056I-0000001400J0000000775D01*
G03X0000176164Y0000198683I-0000000301J0000000264D01*
G02X0000178364Y0000201963I0000000836J0000001817D01*
G03X0000178636Y0000201963I0000000136J0000000146D01*
G02X0000181457Y0000199129I0000001364J-0000001463D01*
G03X0000181598Y0000198484I0000000291J-0000000274D01*
G02X0000179600Y0000196225I-0000000598J-0000001484D01*
G03X0000178900Y0000196225I-0000000350J-0000000194D01*
G37*
G36*
G01X0000063084Y0000194997D02*
G02X0000063016Y0000196859I-0000001334J0000000883D01*
G03X0000063666Y0000196883I0000000316J0000000245D01*
G02X0000063734Y0000195021I0000001334J-0000000883D01*
G03X0000063084Y0000194997I-0000000316J-0000000245D01*
G37*
G36*
G01X0000054900Y0000178725D02*
G02X0000052441Y0000180700I-0000001400J0000000775D01*
G03X0000052441Y0000181300I-0000000265J0000000300D01*
G02X0000052140Y0000181657I0000001059J0000001200D01*
G03X0000051421Y0000181577I-0000000340J-0000000211D01*
G02X0000045851Y0000186453I-0000003784J0000001298D01*
G03X0000045851Y0000187169I-0000000179J0000000358D01*
G02X0000049424Y0000187169I0000001787J0000003579D01*
G03X0000049424Y0000186453I0000000179J-0000000358D01*
G02X0000051555Y0000183680I-0000001787J-0000003579D01*
G03X0000052258Y0000183509I0000000392J0000000081D01*
G02X0000054700Y0000183559I0000001242J-0000001009D01*
G03X0000055300Y0000183559I0000000300J0000000265D01*
G02X0000057725Y0000181471I0000001200J-0000001059D01*
G03X0000057825Y0000180871I0000000306J-0000000257D01*
G02X0000055600Y0000178725I-0000000825J-0000001371D01*
G03X0000054900Y0000178725I-0000000350J-0000000194D01*
G37*
G36*
G01X0000333625Y0000160138D02*
G02X0000331775Y0000160426I-0000001125J-0000001138D01*
G03X0000331875Y0000161068I-0000000181J0000000357D01*
G02X0000331800Y0000161147I0000001124J0000001139D01*
G03X0000331200Y0000161147I-0000000300J-0000000265D01*
G02X0000331200Y0000163264I-0000001200J0000001059D01*
G03X0000331800Y0000163264I0000000300J0000000265D01*
G02X0000333725Y0000160779I0000001200J-0000001059D01*
G03X0000333625Y0000160138I0000000181J-0000000357D01*
G37*
G36*
G01X0000331530Y0000118225D02*
G02X0000331530Y0000119775I-0000001400J0000000775D01*
G03X0000332230Y0000119775I0000000350J0000000194D01*
G02X0000332230Y0000118225I0000001400J-0000000775D01*
G03X0000331530Y0000118225I-0000000350J-0000000194D01*
G37*
G36*
G01X0000025775Y0000088900D02*
G02X0000024225Y0000088900I-0000000775J-0000001400D01*
G03X0000024225Y0000089600I-0000000194J0000000350D01*
G02X0000025775Y0000089600I0000000775J0000001400D01*
G03X0000025775Y0000088900I0000000194J-0000000350D01*
G37*
G36*
G01X0000273901Y0000058925D02*
G02X0000272215Y0000059531I-0000001291J-0000000945D01*
G03X0000272439Y0000060155I-0000000099J0000000388D01*
G02X0000272364Y0000061933I0000001291J0000000945D01*
G03X0000272104Y0000062533I-0000000341J0000000208D01*
G02X0000273796Y0000063267I0000000326J0000001567D01*
G03X0000274056Y0000062667I0000000341J-0000000208D01*
G02X0000274125Y0000059549I-0000000326J-0000001567D01*
G03X0000273901Y0000058925I0000000099J-0000000388D01*
G37*
G36*
G01X0000267275Y0000048400D02*
G02X0000265725Y0000048400I-0000000775J-0000001400D01*
G03X0000265725Y0000049100I-0000000194J0000000350D01*
G02X0000265725Y0000051900I0000000775J0000001400D01*
G03X0000265725Y0000052600I-0000000194J0000000350D01*
G02X0000267275Y0000052600I0000000775J0000001400D01*
G03X0000267275Y0000051900I0000000194J-0000000350D01*
G02X0000267275Y0000049100I-0000000775J-0000001400D01*
G03X0000267275Y0000048400I0000000194J-0000000350D01*
G37*
G36*
G01X0000269905Y0000026400D02*
G02X0000268355Y0000026400I-0000000775J-0000001400D01*
G03X0000268355Y0000027100I-0000000194J0000000350D01*
G02X0000269905Y0000027100I0000000775J0000001400D01*
G03X0000269905Y0000026400I0000000194J-0000000350D01*
G37*
G36*
G01X0000280986Y0000012989D02*
G02X0000280919Y0000011102I0000001258J-0000000989D01*
G03X0000280274Y0000011125I-0000000331J-0000000224D01*
G02X0000280341Y0000013012I-0000001258J0000000989D01*
G03X0000280986Y0000012989I0000000331J0000000224D01*
G37*
G36*
G01X0000275405Y0000013400D02*
G02X0000273855Y0000013400I-0000000775J-0000001400D01*
G03X0000273855Y0000014100I-0000000194J0000000350D01*
G02X0000275405Y0000014100I0000000775J0000001400D01*
G03X0000275405Y0000013400I0000000194J-0000000350D01*
G37*
G54D19*
X0000095548Y0000247007D03*
X0000225469Y0000247007D03*
G54D20*
X0000010000Y0000227500D03*
X0000010000Y0000242500D03*
X0000010000Y0000235000D03*
X0000011000Y0000276000D03*
X0000011000Y0000265500D03*
X0000015630Y0000035000D03*
X0000025630Y0000035000D03*
X0000025630Y0000045000D03*
X0000015630Y0000065000D03*
X0000025630Y0000065000D03*
X0000015630Y0000055000D03*
X0000025630Y0000055000D03*
X0000025500Y0000096000D03*
X0000015630Y0000105000D03*
X0000016000Y0000098500D03*
X0000015630Y0000113500D03*
X0000025630Y0000105000D03*
X0000025500Y0000100000D03*
X0000025630Y0000113500D03*
X0000015630Y0000125000D03*
X0000025630Y0000125000D03*
X0000015630Y0000145000D03*
X0000015630Y0000135000D03*
X0000025630Y0000145000D03*
X0000025630Y0000135000D03*
X0000017500Y0000227500D03*
X0000025000Y0000227500D03*
X0000017500Y0000242500D03*
X0000025000Y0000242500D03*
X0000017500Y0000235000D03*
X0000025000Y0000235000D03*
X0000027500Y0000255000D03*
X0000012000Y0000257500D03*
X0000015630Y0000280000D03*
X0000015630Y0000295000D03*
X0000025630Y0000295000D03*
X0000015630Y0000305000D03*
X0000025630Y0000305000D03*
X0000015630Y0000315000D03*
X0000025630Y0000315000D03*
X0000025000Y0000355000D03*
X0000015000Y0000355000D03*
X0000025000Y0000375000D03*
X0000015000Y0000365000D03*
X0000025000Y0000365000D03*
X0000020000Y0000395000D03*
X0000025000Y0000385000D03*
X0000027500Y0000394500D03*
X0000025000Y0000410000D03*
X0000025000Y0000420000D03*
X0000015000Y0000420000D03*
X0000035630Y0000015000D03*
X0000035630Y0000025000D03*
X0000035630Y0000035000D03*
X0000035630Y0000045000D03*
X0000035630Y0000145000D03*
X0000040000Y0000220000D03*
X0000040000Y0000227500D03*
X0000032500Y0000227500D03*
X0000037500Y0000246500D03*
X0000032500Y0000242500D03*
X0000032500Y0000235000D03*
X0000040000Y0000235000D03*
X0000032500Y0000257500D03*
X0000028000Y0000261000D03*
X0000035500Y0000261000D03*
X0000032500Y0000250000D03*
X0000037130Y0000265000D03*
X0000037130Y0000270000D03*
X0000030000Y0000292500D03*
X0000030000Y0000285000D03*
X0000035630Y0000295000D03*
X0000037500Y0000285000D03*
X0000039000Y0000323000D03*
X0000044500Y0000337500D03*
X0000037500Y0000342000D03*
X0000035000Y0000355000D03*
X0000035000Y0000375000D03*
X0000035000Y0000365000D03*
X0000035000Y0000385000D03*
X0000032500Y0000394500D03*
X0000035000Y0000410000D03*
X0000032500Y0000401114D03*
X0000035000Y0000430000D03*
X0000035000Y0000420000D03*
X0000035000Y0000440000D03*
X0000045630Y0000015000D03*
X0000053130Y0000015000D03*
X0000045630Y0000025000D03*
X0000053130Y0000025000D03*
X0000045630Y0000035000D03*
X0000055000Y0000055000D03*
X0000055000Y0000080000D03*
X0000050000Y0000080000D03*
X0000055000Y0000085000D03*
X0000050000Y0000085000D03*
X0000047500Y0000227500D03*
X0000047500Y0000220000D03*
X0000047500Y0000235000D03*
X0000050000Y0000257500D03*
X0000055000Y0000257500D03*
X0000050000Y0000252500D03*
X0000055000Y0000252500D03*
X0000055500Y0000275000D03*
X0000050500Y0000275000D03*
X0000055500Y0000267500D03*
X0000049500Y0000267500D03*
X0000045000Y0000285000D03*
X0000050000Y0000322500D03*
X0000055000Y0000322500D03*
X0000059000Y0000331500D03*
X0000050969Y0000345469D03*
X0000045000Y0000346000D03*
X0000059500Y0000349000D03*
X0000060500Y0000378000D03*
X0000060500Y0000372500D03*
X0000060500Y0000367000D03*
X0000045000Y0000365000D03*
X0000045000Y0000375000D03*
X0000045000Y0000385000D03*
X0000055000Y0000410000D03*
X0000045000Y0000410000D03*
X0000055000Y0000430000D03*
X0000045000Y0000430000D03*
X0000055000Y0000420000D03*
X0000045000Y0000420000D03*
X0000055000Y0000440000D03*
X0000045000Y0000440000D03*
X0000065500Y0000010000D03*
X0000070500Y0000010000D03*
X0000077500Y0000042500D03*
X0000070000Y0000042500D03*
X0000062000Y0000063500D03*
X0000066000Y0000062500D03*
X0000077500Y0000050000D03*
X0000077500Y0000057500D03*
X0000070000Y0000050000D03*
X0000062500Y0000050000D03*
X0000077500Y0000215000D03*
X0000077500Y0000225000D03*
X0000065000Y0000220000D03*
X0000070000Y0000215000D03*
X0000070000Y0000220000D03*
X0000065000Y0000215000D03*
X0000077500Y0000245000D03*
X0000077500Y0000235000D03*
X0000077500Y0000255000D03*
X0000077500Y0000275000D03*
X0000077500Y0000265000D03*
X0000065000Y0000292500D03*
X0000075000Y0000287500D03*
X0000075000Y0000300000D03*
X0000062500Y0000300000D03*
X0000070000Y0000312500D03*
X0000072500Y0000325000D03*
X0000072500Y0000317500D03*
X0000062500Y0000317500D03*
X0000062500Y0000325000D03*
X0000069500Y0000334500D03*
X0000064500Y0000331500D03*
X0000065500Y0000378000D03*
X0000065500Y0000372500D03*
X0000071000Y0000372500D03*
X0000065500Y0000367000D03*
X0000075000Y0000410000D03*
X0000065000Y0000410000D03*
X0000075000Y0000430000D03*
X0000065000Y0000430000D03*
X0000075000Y0000420000D03*
X0000065000Y0000420000D03*
X0000075000Y0000440000D03*
X0000065000Y0000440000D03*
X0000078500Y0000027500D03*
X0000082000Y0000030500D03*
X0000085000Y0000042500D03*
X0000092500Y0000042500D03*
X0000092500Y0000050000D03*
X0000085000Y0000050000D03*
X0000082614Y0000063886D03*
X0000092500Y0000070000D03*
X0000079386Y0000070886D03*
X0000092500Y0000092500D03*
X0000087500Y0000125000D03*
X0000087500Y0000150000D03*
X0000087500Y0000162500D03*
X0000087500Y0000175000D03*
X0000087500Y0000200000D03*
X0000087500Y0000212500D03*
X0000087500Y0000225000D03*
X0000087500Y0000262500D03*
X0000087500Y0000275000D03*
X0000085000Y0000295000D03*
X0000087500Y0000287500D03*
X0000090000Y0000305000D03*
X0000080000Y0000317500D03*
X0000080000Y0000325000D03*
X0000084500Y0000322209D03*
X0000091000Y0000325000D03*
X0000091500Y0000360004D03*
X0000091500Y0000355280D03*
X0000091500Y0000368500D03*
X0000091272Y0000364728D03*
X0000087500Y0000404500D03*
X0000087500Y0000411000D03*
X0000085000Y0000420000D03*
X0000100500Y0000015000D03*
X0000097000Y0000017500D03*
X0000107500Y0000042500D03*
X0000100000Y0000042500D03*
X0000100000Y0000062500D03*
X0000100000Y0000075000D03*
X0000100000Y0000082500D03*
X0000107500Y0000087500D03*
X0000107500Y0000107500D03*
X0000100000Y0000100000D03*
X0000100000Y0000137500D03*
X0000100000Y0000162500D03*
X0000100000Y0000175000D03*
X0000100000Y0000187500D03*
X0000100000Y0000200000D03*
X0000100000Y0000212500D03*
X0000100000Y0000225000D03*
X0000100000Y0000262500D03*
X0000100000Y0000275000D03*
X0000098500Y0000283000D03*
X0000110000Y0000297500D03*
X0000100000Y0000295000D03*
X0000105000Y0000290000D03*
X0000110000Y0000285000D03*
X0000107500Y0000312500D03*
X0000105000Y0000302500D03*
X0000100000Y0000307500D03*
X0000095000Y0000300000D03*
X0000107500Y0000320000D03*
X0000096000Y0000330500D03*
X0000096000Y0000325000D03*
X0000096000Y0000321000D03*
X0000102984Y0000317484D03*
X0000103996Y0000360004D03*
X0000109000Y0000353000D03*
X0000104000Y0000348000D03*
X0000109000Y0000348000D03*
X0000095500Y0000388350D03*
X0000095626Y0000383626D03*
X0000100000Y0000411000D03*
X0000100000Y0000404500D03*
X0000105000Y0000420000D03*
X0000095000Y0000420000D03*
X0000124500Y0000013500D03*
X0000124500Y0000030000D03*
X0000115000Y0000019000D03*
X0000115000Y0000042500D03*
X0000112500Y0000050000D03*
X0000112500Y0000062500D03*
X0000112500Y0000075000D03*
X0000126000Y0000094517D03*
X0000126435Y0000126517D03*
X0000111000Y0000141500D03*
X0000115000Y0000292500D03*
X0000117500Y0000302500D03*
X0000112500Y0000307500D03*
X0000121500Y0000355500D03*
X0000121500Y0000361500D03*
X0000111500Y0000378500D03*
X0000115000Y0000411000D03*
X0000115000Y0000404500D03*
X0000125000Y0000420000D03*
X0000115000Y0000420000D03*
X0000125000Y0000430000D03*
X0000115000Y0000430000D03*
X0000125000Y0000440000D03*
X0000115000Y0000440000D03*
X0000140130Y0000014500D03*
X0000134000Y0000014000D03*
X0000133500Y0000024500D03*
X0000133500Y0000029000D03*
X0000135000Y0000019500D03*
X0000140000Y0000019500D03*
X0000142500Y0000027500D03*
X0000128000Y0000019000D03*
X0000130614Y0000016500D03*
X0000136435Y0000081517D03*
X0000135935Y0000089017D03*
X0000141435Y0000094017D03*
X0000135935Y0000094017D03*
X0000133435Y0000109017D03*
X0000128935Y0000109017D03*
X0000128935Y0000104017D03*
X0000133500Y0000104000D03*
X0000141000Y0000107500D03*
X0000131435Y0000126517D03*
X0000136435Y0000126517D03*
X0000141435Y0000126517D03*
X0000138935Y0000144017D03*
X0000141741Y0000162759D03*
X0000141073Y0000148509D03*
X0000140000Y0000202500D03*
X0000140000Y0000212500D03*
X0000140000Y0000225000D03*
X0000140000Y0000237500D03*
X0000140000Y0000252500D03*
X0000137500Y0000317500D03*
X0000142500Y0000354000D03*
X0000142000Y0000362500D03*
X0000135500Y0000359000D03*
X0000141500Y0000372500D03*
X0000135500Y0000376000D03*
X0000136000Y0000367500D03*
X0000129500Y0000411000D03*
X0000129500Y0000404500D03*
X0000135000Y0000420000D03*
X0000135000Y0000430000D03*
X0000135000Y0000440000D03*
X0000145130Y0000014500D03*
X0000154500Y0000015000D03*
X0000147500Y0000030000D03*
X0000155000Y0000022500D03*
X0000144500Y0000024000D03*
X0000149000Y0000019000D03*
X0000160000Y0000072500D03*
X0000157935Y0000087517D03*
X0000152435Y0000087517D03*
X0000145935Y0000088017D03*
X0000145935Y0000092517D03*
X0000158935Y0000104017D03*
X0000153935Y0000104017D03*
X0000148935Y0000104017D03*
X0000148935Y0000109017D03*
X0000148935Y0000100017D03*
X0000158935Y0000100017D03*
X0000153935Y0000100017D03*
X0000146435Y0000126517D03*
X0000146435Y0000139017D03*
X0000151435Y0000139017D03*
X0000150565Y0000149017D03*
X0000154565Y0000149017D03*
X0000160565Y0000149017D03*
X0000144565Y0000152017D03*
X0000144886Y0000180386D03*
X0000160000Y0000170500D03*
X0000160000Y0000175500D03*
X0000155000Y0000180500D03*
X0000160000Y0000180500D03*
X0000152500Y0000230500D03*
X0000157500Y0000230500D03*
X0000150000Y0000225500D03*
X0000150000Y0000220000D03*
X0000155000Y0000240000D03*
X0000157500Y0000262500D03*
X0000155000Y0000250000D03*
X0000150000Y0000270000D03*
X0000147500Y0000411000D03*
X0000147500Y0000404500D03*
X0000155000Y0000420000D03*
X0000145000Y0000420000D03*
X0000145000Y0000430000D03*
X0000145000Y0000440000D03*
X0000162500Y0000022500D03*
X0000172630Y0000067000D03*
X0000165000Y0000072500D03*
X0000170000Y0000072500D03*
X0000175000Y0000072500D03*
X0000167130Y0000067000D03*
X0000173935Y0000089017D03*
X0000168935Y0000089017D03*
X0000162500Y0000087500D03*
X0000163935Y0000100017D03*
X0000171435Y0000116517D03*
X0000176435Y0000116517D03*
X0000163935Y0000116517D03*
X0000163935Y0000124017D03*
X0000176435Y0000121517D03*
X0000165451Y0000146017D03*
X0000176435Y0000161517D03*
X0000170000Y0000165000D03*
X0000165000Y0000165000D03*
X0000172500Y0000175500D03*
X0000172886Y0000180114D03*
X0000165000Y0000170500D03*
X0000165000Y0000175500D03*
X0000167500Y0000230500D03*
X0000171000Y0000225000D03*
X0000162500Y0000230500D03*
X0000176500Y0000225000D03*
X0000175000Y0000245000D03*
X0000170000Y0000235000D03*
X0000165000Y0000240000D03*
X0000165000Y0000255000D03*
X0000175000Y0000282500D03*
X0000167500Y0000290000D03*
X0000167500Y0000345000D03*
X0000167500Y0000355000D03*
X0000175000Y0000355000D03*
X0000167500Y0000375000D03*
X0000167500Y0000365000D03*
X0000175000Y0000365000D03*
X0000175000Y0000375000D03*
X0000167500Y0000385000D03*
X0000175000Y0000385000D03*
X0000162500Y0000411000D03*
X0000162500Y0000404500D03*
X0000175000Y0000420000D03*
X0000165000Y0000420000D03*
X0000182630Y0000035500D03*
X0000186630Y0000035500D03*
X0000191630Y0000035500D03*
X0000189130Y0000039500D03*
X0000192500Y0000065000D03*
X0000182500Y0000065000D03*
X0000187500Y0000065000D03*
X0000182500Y0000060000D03*
X0000187500Y0000060000D03*
X0000192500Y0000060000D03*
X0000192500Y0000055000D03*
X0000192500Y0000072500D03*
X0000187500Y0000072500D03*
X0000182500Y0000072500D03*
X0000186321Y0000131631D03*
X0000186435Y0000119017D03*
X0000180565Y0000143017D03*
X0000185000Y0000155000D03*
X0000185000Y0000160000D03*
X0000190000Y0000155000D03*
X0000190000Y0000160000D03*
X0000181435Y0000156517D03*
X0000180000Y0000170000D03*
X0000185000Y0000170000D03*
X0000190000Y0000175000D03*
X0000190000Y0000170000D03*
X0000185000Y0000175500D03*
X0000182001Y0000225001D03*
X0000192000Y0000225000D03*
X0000187500Y0000232500D03*
X0000182500Y0000237500D03*
X0000190000Y0000267500D03*
X0000182500Y0000275000D03*
X0000185000Y0000320000D03*
X0000185000Y0000330000D03*
X0000185000Y0000365000D03*
X0000185000Y0000375000D03*
X0000185000Y0000385000D03*
X0000192500Y0000411000D03*
X0000192500Y0000404500D03*
X0000177500Y0000411000D03*
X0000177500Y0000404500D03*
X0000185000Y0000420000D03*
X0000204630Y0000024000D03*
X0000204630Y0000020000D03*
X0000208630Y0000024000D03*
X0000208630Y0000020000D03*
X0000206630Y0000031000D03*
X0000201630Y0000031000D03*
X0000196630Y0000031000D03*
X0000196630Y0000035500D03*
X0000201630Y0000035500D03*
X0000206630Y0000035500D03*
X0000206630Y0000040500D03*
X0000197500Y0000065000D03*
X0000197500Y0000060000D03*
X0000197500Y0000055000D03*
X0000197500Y0000072500D03*
X0000195000Y0000110000D03*
X0000205000Y0000110000D03*
X0000205000Y0000120000D03*
X0000210000Y0000155000D03*
X0000210000Y0000160000D03*
X0000195000Y0000170000D03*
X0000195000Y0000175000D03*
X0000210000Y0000170000D03*
X0000195000Y0000262500D03*
X0000195000Y0000325000D03*
X0000195000Y0000315000D03*
X0000195000Y0000335000D03*
X0000207500Y0000347500D03*
X0000202500Y0000347500D03*
X0000202500Y0000352500D03*
X0000207500Y0000352500D03*
X0000195000Y0000375000D03*
X0000210000Y0000411000D03*
X0000210000Y0000404500D03*
X0000205000Y0000420000D03*
X0000195000Y0000420000D03*
X0000212630Y0000024000D03*
X0000212630Y0000020000D03*
X0000211630Y0000031000D03*
X0000211630Y0000047000D03*
X0000216630Y0000047000D03*
X0000211630Y0000040500D03*
X0000211630Y0000035500D03*
X0000211630Y0000051000D03*
X0000216630Y0000051000D03*
X0000211630Y0000060000D03*
X0000216630Y0000060000D03*
X0000216630Y0000055500D03*
X0000211630Y0000055500D03*
X0000225000Y0000092500D03*
X0000225000Y0000087500D03*
X0000215000Y0000120000D03*
X0000215000Y0000130000D03*
X0000221630Y0000118870D03*
X0000223500Y0000139500D03*
X0000213000Y0000139500D03*
X0000221500Y0000133870D03*
X0000220000Y0000160000D03*
X0000220000Y0000155000D03*
X0000215000Y0000160000D03*
X0000215000Y0000155000D03*
X0000215000Y0000195000D03*
X0000220000Y0000190000D03*
X0000225000Y0000185000D03*
X0000212500Y0000200000D03*
X0000220000Y0000220000D03*
X0000220000Y0000230000D03*
X0000215000Y0000260000D03*
X0000215000Y0000290000D03*
X0000225000Y0000290000D03*
X0000224000Y0000306000D03*
X0000217500Y0000312500D03*
X0000217500Y0000327500D03*
X0000217500Y0000322500D03*
X0000217516Y0000317484D03*
X0000212500Y0000327500D03*
X0000225000Y0000347500D03*
X0000217500Y0000337500D03*
X0000225000Y0000342500D03*
X0000225000Y0000332500D03*
X0000212500Y0000337500D03*
X0000217500Y0000332500D03*
X0000225000Y0000337500D03*
X0000212500Y0000332500D03*
X0000217500Y0000342500D03*
X0000212500Y0000347500D03*
X0000212500Y0000342500D03*
X0000217594Y0000347406D03*
X0000217500Y0000352500D03*
X0000217500Y0000362500D03*
X0000225000Y0000357500D03*
X0000225000Y0000352500D03*
X0000225000Y0000362500D03*
X0000212500Y0000352500D03*
X0000212500Y0000377500D03*
X0000217500Y0000377500D03*
X0000225000Y0000377500D03*
X0000217500Y0000367500D03*
X0000212500Y0000367500D03*
X0000225000Y0000367500D03*
X0000225000Y0000372500D03*
X0000212500Y0000372500D03*
X0000217500Y0000372602D03*
X0000225000Y0000382500D03*
X0000225000Y0000387500D03*
X0000225000Y0000420000D03*
X0000215000Y0000420000D03*
X0000227630Y0000019000D03*
X0000227630Y0000023000D03*
X0000233130Y0000023000D03*
X0000233130Y0000019000D03*
X0000227630Y0000029500D03*
X0000233130Y0000029500D03*
X0000238500Y0000036000D03*
X0000233630Y0000036000D03*
X0000227630Y0000036000D03*
X0000227630Y0000042000D03*
X0000233130Y0000045500D03*
X0000227630Y0000047500D03*
X0000232687Y0000050557D03*
X0000232687Y0000055557D03*
X0000227630Y0000052000D03*
X0000237630Y0000050500D03*
X0000237630Y0000055500D03*
X0000238630Y0000081114D03*
X0000230000Y0000087500D03*
X0000235000Y0000087500D03*
X0000240000Y0000087500D03*
X0000240000Y0000092500D03*
X0000235000Y0000092500D03*
X0000230000Y0000092500D03*
X0000240000Y0000139500D03*
X0000230000Y0000180000D03*
X0000233630Y0000170462D03*
X0000233630Y0000175462D03*
X0000240630Y0000169462D03*
X0000240000Y0000210000D03*
X0000230000Y0000210000D03*
X0000240000Y0000230000D03*
X0000240000Y0000220000D03*
X0000230000Y0000220000D03*
X0000230000Y0000230000D03*
X0000240000Y0000240000D03*
X0000240000Y0000260000D03*
X0000232000Y0000297500D03*
X0000240000Y0000312500D03*
X0000227500Y0000302000D03*
X0000230000Y0000312500D03*
X0000240000Y0000327500D03*
X0000230000Y0000327500D03*
X0000240000Y0000322500D03*
X0000230016Y0000317484D03*
X0000230000Y0000322500D03*
X0000230000Y0000342500D03*
X0000230000Y0000337500D03*
X0000240000Y0000332500D03*
X0000230000Y0000347500D03*
X0000240000Y0000342500D03*
X0000230000Y0000332500D03*
X0000240000Y0000347500D03*
X0000230000Y0000352500D03*
X0000240000Y0000357500D03*
X0000240000Y0000362500D03*
X0000230000Y0000362500D03*
X0000230000Y0000357500D03*
X0000240000Y0000352500D03*
X0000230000Y0000377500D03*
X0000230000Y0000367500D03*
X0000230000Y0000372500D03*
X0000230000Y0000382500D03*
X0000258000Y0000074500D03*
X0000250000Y0000139500D03*
X0000253130Y0000154462D03*
X0000253130Y0000164462D03*
X0000253130Y0000174462D03*
X0000253130Y0000169462D03*
X0000250000Y0000317500D03*
X0000245000Y0000327500D03*
X0000245000Y0000347500D03*
X0000257500Y0000332500D03*
X0000245000Y0000332500D03*
X0000245000Y0000337500D03*
X0000250000Y0000337500D03*
X0000250000Y0000362500D03*
X0000250000Y0000357500D03*
X0000245000Y0000357500D03*
X0000245000Y0000352500D03*
X0000245000Y0000362500D03*
X0000257500Y0000352500D03*
X0000260000Y0000390000D03*
X0000260000Y0000385000D03*
X0000252500Y0000390000D03*
X0000245000Y0000435000D03*
X0000265130Y0000017000D03*
X0000269130Y0000017000D03*
X0000269130Y0000021000D03*
X0000265130Y0000025000D03*
X0000269730Y0000061700D03*
X0000265500Y0000074500D03*
X0000262000Y0000071000D03*
X0000275130Y0000070614D03*
X0000265630Y0000116962D03*
X0000275630Y0000139462D03*
X0000263130Y0000139462D03*
X0000273130Y0000154462D03*
X0000273130Y0000159462D03*
X0000260630Y0000154462D03*
X0000268130Y0000159462D03*
X0000268130Y0000154462D03*
X0000260630Y0000159462D03*
X0000276500Y0000180000D03*
X0000273130Y0000171962D03*
X0000268130Y0000169462D03*
X0000268130Y0000174462D03*
X0000275630Y0000189462D03*
X0000263130Y0000191962D03*
X0000263130Y0000199462D03*
X0000265000Y0000230000D03*
X0000275000Y0000230000D03*
X0000275630Y0000216962D03*
X0000270630Y0000216962D03*
X0000266130Y0000215500D03*
X0000275000Y0000240000D03*
X0000265000Y0000240000D03*
X0000265000Y0000250000D03*
X0000275000Y0000250000D03*
X0000275000Y0000260000D03*
X0000265000Y0000260000D03*
X0000265000Y0000347500D03*
X0000270000Y0000362500D03*
X0000265000Y0000362500D03*
X0000275000Y0000352500D03*
X0000265000Y0000352500D03*
X0000275000Y0000362500D03*
X0000270000Y0000380000D03*
X0000265000Y0000375000D03*
X0000265000Y0000380000D03*
X0000275000Y0000367500D03*
X0000265000Y0000390000D03*
X0000265000Y0000385000D03*
X0000270000Y0000390000D03*
X0000270000Y0000385000D03*
X0000262500Y0000407500D03*
X0000276642Y0000439000D03*
X0000270736Y0000439000D03*
X0000264831Y0000439000D03*
X0000290630Y0000015000D03*
X0000285200Y0000031100D03*
X0000285130Y0000026000D03*
X0000284130Y0000045500D03*
X0000285630Y0000037500D03*
X0000285130Y0000062000D03*
X0000285130Y0000056500D03*
X0000287130Y0000070614D03*
X0000280630Y0000126962D03*
X0000291130Y0000176500D03*
X0000278130Y0000194462D03*
X0000283130Y0000199462D03*
X0000287630Y0000199462D03*
X0000290000Y0000220000D03*
X0000290000Y0000225000D03*
X0000290000Y0000245000D03*
X0000290000Y0000240000D03*
X0000290000Y0000235000D03*
X0000290000Y0000250000D03*
X0000290000Y0000255000D03*
X0000290000Y0000260000D03*
X0000290000Y0000312500D03*
X0000277500Y0000322500D03*
X0000277500Y0000315000D03*
X0000277500Y0000330000D03*
X0000287500Y0000332500D03*
X0000287500Y0000340000D03*
X0000282430Y0000357500D03*
X0000290630Y0000357500D03*
X0000286430Y0000357500D03*
X0000282430Y0000353500D03*
X0000282430Y0000349500D03*
X0000290630Y0000353500D03*
X0000290630Y0000349500D03*
X0000286430Y0000349500D03*
X0000286430Y0000353500D03*
X0000285000Y0000367500D03*
X0000292500Y0000430000D03*
X0000288453Y0000439000D03*
X0000282547Y0000439000D03*
X0000295000Y0000009500D03*
X0000300630Y0000015000D03*
X0000300130Y0000031500D03*
X0000296500Y0000020500D03*
X0000296500Y0000026000D03*
X0000296100Y0000031300D03*
X0000296000Y0000037000D03*
X0000308630Y0000044000D03*
X0000307000Y0000063000D03*
X0000308630Y0000054000D03*
X0000308630Y0000049000D03*
X0000303408Y0000074500D03*
X0000299408Y0000074500D03*
X0000307630Y0000092000D03*
X0000305000Y0000172500D03*
X0000296630Y0000176500D03*
X0000305000Y0000192500D03*
X0000305000Y0000182500D03*
X0000307500Y0000230000D03*
X0000307500Y0000225000D03*
X0000307500Y0000240000D03*
X0000310000Y0000262500D03*
X0000307500Y0000255000D03*
X0000307500Y0000250000D03*
X0000305500Y0000262500D03*
X0000310000Y0000290000D03*
X0000310000Y0000295000D03*
X0000310000Y0000300000D03*
X0000310000Y0000342500D03*
X0000295000Y0000332500D03*
X0000310000Y0000347500D03*
X0000295000Y0000362500D03*
X0000310000Y0000362500D03*
X0000310000Y0000357500D03*
X0000310000Y0000352500D03*
X0000295000Y0000367500D03*
X0000304500Y0000397500D03*
X0000304500Y0000392500D03*
X0000305000Y0000412500D03*
X0000310000Y0000412500D03*
X0000310000Y0000402500D03*
X0000304500Y0000402500D03*
X0000307500Y0000430000D03*
X0000305000Y0000417500D03*
X0000297000Y0000421886D03*
X0000297500Y0000430000D03*
X0000310000Y0000417500D03*
X0000300500Y0000417500D03*
X0000300000Y0000440000D03*
X0000295000Y0000440000D03*
X0000320630Y0000015000D03*
X0000310630Y0000015000D03*
X0000310630Y0000025000D03*
X0000319630Y0000044000D03*
X0000325630Y0000044000D03*
X0000310630Y0000035000D03*
X0000314130Y0000044000D03*
X0000319630Y0000049000D03*
X0000325630Y0000049000D03*
X0000320000Y0000056000D03*
X0000325500Y0000057000D03*
X0000314130Y0000049000D03*
X0000314500Y0000056500D03*
X0000325630Y0000095000D03*
X0000315630Y0000095000D03*
X0000312630Y0000092000D03*
X0000316000Y0000085500D03*
X0000325000Y0000085000D03*
X0000321000Y0000090000D03*
X0000318500Y0000102500D03*
X0000322130Y0000119000D03*
X0000326130Y0000119000D03*
X0000322130Y0000128000D03*
X0000326130Y0000128000D03*
X0000321630Y0000142500D03*
X0000320000Y0000155000D03*
X0000313000Y0000172000D03*
X0000312500Y0000192500D03*
X0000312500Y0000182500D03*
X0000317500Y0000220000D03*
X0000322500Y0000220000D03*
X0000317500Y0000215000D03*
X0000322500Y0000215000D03*
X0000315000Y0000295000D03*
X0000315000Y0000290000D03*
X0000314989Y0000299989D03*
X0000312000Y0000326000D03*
X0000318130Y0000331500D03*
X0000317500Y0000392500D03*
X0000315000Y0000412500D03*
X0000315000Y0000407500D03*
X0000315000Y0000402500D03*
X0000335630Y0000035000D03*
X0000340000Y0000042500D03*
X0000341000Y0000064500D03*
X0000335630Y0000050000D03*
X0000331000Y0000055500D03*
X0000338500Y0000055500D03*
X0000340500Y0000072000D03*
X0000341000Y0000078000D03*
X0000335630Y0000095000D03*
X0000335630Y0000085000D03*
X0000329500Y0000090000D03*
X0000327500Y0000105000D03*
X0000335630Y0000105000D03*
X0000340000Y0000111500D03*
X0000330130Y0000128000D03*
X0000342500Y0000122500D03*
X0000331630Y0000142500D03*
X0000331630Y0000136500D03*
X0000327130Y0000159000D03*
X0000332500Y0000154000D03*
X0000342500Y0000166142D03*
X0000340630Y0000175000D03*
X0000330630Y0000175000D03*
X0000330630Y0000185000D03*
X0000340630Y0000185000D03*
X0000330630Y0000195000D03*
X0000340630Y0000195000D03*
X0000330630Y0000205000D03*
X0000340630Y0000205000D03*
X0000330630Y0000215000D03*
X0000340630Y0000215000D03*
X0000340000Y0000222500D03*
X0000333000Y0000241157D03*
X0000340630Y0000245000D03*
X0000340630Y0000235000D03*
X0000340630Y0000260000D03*
X0000330630Y0000260000D03*
X0000330630Y0000250000D03*
X0000340500Y0000266000D03*
X0000329000Y0000296000D03*
X0000345630Y0000035000D03*
X0000345630Y0000050000D03*
X0000345630Y0000060000D03*
X0000345630Y0000095000D03*
X0000345630Y0000085000D03*
X0000345630Y0000105000D03*
X0000345630Y0000115000D03*
G54D22*
X0000047637Y0000200591D03*
G54D21*
X0000047637Y0000173031D03*
%LPD*%
G75*
G54D10*
X0000015748Y0000015748D03*
X0000015748Y0000437008D03*
X0000338619Y0000015748D03*
X0000338619Y0000437008D03*
G54D11*
X0000005630Y0000035000D03*
X0000005630Y0000065000D03*
X0000005630Y0000055000D03*
X0000005630Y0000105000D03*
X0000005630Y0000113500D03*
X0000005630Y0000125000D03*
X0000005630Y0000145000D03*
X0000005630Y0000135000D03*
X0000003500Y0000227500D03*
X0000010000Y0000227500D03*
X0000003500Y0000220000D03*
X0000003500Y0000242500D03*
X0000003500Y0000235000D03*
X0000010000Y0000242500D03*
X0000010000Y0000235000D03*
X0000005630Y0000260000D03*
X0000005630Y0000280000D03*
X0000011000Y0000276000D03*
X0000005630Y0000270000D03*
X0000011000Y0000265500D03*
X0000005630Y0000295000D03*
X0000005630Y0000305000D03*
X0000005630Y0000330000D03*
X0000005630Y0000315000D03*
X0000011130Y0000329853D03*
X0000005630Y0000340000D03*
X0000011130Y0000338784D03*
X0000011130Y0000332853D03*
X0000011130Y0000335784D03*
X0000005000Y0000355000D03*
X0000015630Y0000035000D03*
X0000025630Y0000035000D03*
X0000025630Y0000045000D03*
X0000015630Y0000065000D03*
X0000025630Y0000065000D03*
X0000015630Y0000055000D03*
X0000025630Y0000055000D03*
X0000025500Y0000096000D03*
X0000025000Y0000087500D03*
X0000025000Y0000091000D03*
X0000015630Y0000105000D03*
X0000016000Y0000098500D03*
X0000015630Y0000113500D03*
X0000025630Y0000105000D03*
X0000025500Y0000100000D03*
X0000025630Y0000113500D03*
X0000015630Y0000125000D03*
X0000025630Y0000125000D03*
X0000015630Y0000145000D03*
X0000015630Y0000135000D03*
X0000025630Y0000145000D03*
X0000025630Y0000135000D03*
X0000025630Y0000155000D03*
X0000017500Y0000227500D03*
X0000025000Y0000227500D03*
X0000025000Y0000220000D03*
X0000017500Y0000242500D03*
X0000025000Y0000242500D03*
X0000017500Y0000235000D03*
X0000025000Y0000235000D03*
X0000027500Y0000255000D03*
X0000012000Y0000257500D03*
X0000015630Y0000280000D03*
X0000015630Y0000295000D03*
X0000025630Y0000295000D03*
X0000015630Y0000305000D03*
X0000025630Y0000305000D03*
X0000015630Y0000315000D03*
X0000025630Y0000315000D03*
X0000014500Y0000328500D03*
X0000014000Y0000334000D03*
X0000014000Y0000339600D03*
X0000012000Y0000342000D03*
X0000025000Y0000355000D03*
X0000015000Y0000355000D03*
X0000015000Y0000375000D03*
X0000025000Y0000375000D03*
X0000015000Y0000365000D03*
X0000025000Y0000365000D03*
X0000020000Y0000395000D03*
X0000025000Y0000385000D03*
X0000027500Y0000394500D03*
X0000025000Y0000410000D03*
X0000015000Y0000410000D03*
X0000025000Y0000420000D03*
X0000015000Y0000420000D03*
X0000035630Y0000005000D03*
X0000035630Y0000015000D03*
X0000035630Y0000025000D03*
X0000035630Y0000035000D03*
X0000035630Y0000045000D03*
X0000035630Y0000145000D03*
X0000035630Y0000155000D03*
X0000040630Y0000175000D03*
X0000040630Y0000195000D03*
X0000040630Y0000185000D03*
X0000040630Y0000205000D03*
X0000032500Y0000220000D03*
X0000040000Y0000220000D03*
X0000040000Y0000227500D03*
X0000032500Y0000227500D03*
X0000037500Y0000246500D03*
X0000032500Y0000242500D03*
X0000032500Y0000235000D03*
X0000040000Y0000235000D03*
X0000032500Y0000257500D03*
X0000028000Y0000261000D03*
X0000035500Y0000261000D03*
X0000032500Y0000250000D03*
X0000037130Y0000265000D03*
X0000037130Y0000270000D03*
X0000030000Y0000292500D03*
X0000030000Y0000285000D03*
X0000035630Y0000295000D03*
X0000037500Y0000285000D03*
X0000029500Y0000325500D03*
X0000029500Y0000331000D03*
X0000032307Y0000329578D03*
X0000032307Y0000326578D03*
X0000039000Y0000323000D03*
X0000029500Y0000337500D03*
X0000044500Y0000337500D03*
X0000032300Y0000336205D03*
X0000032300Y0000333205D03*
X0000037500Y0000342000D03*
X0000035000Y0000355000D03*
X0000039500Y0000349500D03*
X0000032614Y0000349500D03*
X0000036000Y0000349500D03*
X0000035000Y0000375000D03*
X0000035000Y0000365000D03*
X0000035000Y0000385000D03*
X0000032500Y0000394500D03*
X0000035000Y0000410000D03*
X0000032500Y0000401114D03*
X0000035000Y0000430000D03*
X0000035000Y0000420000D03*
X0000035000Y0000445000D03*
X0000035000Y0000440000D03*
X0000045630Y0000005000D03*
X0000053130Y0000005000D03*
X0000045630Y0000015000D03*
X0000053130Y0000015000D03*
X0000045630Y0000025000D03*
X0000053130Y0000025000D03*
X0000045630Y0000035000D03*
X0000055000Y0000055000D03*
X0000055000Y0000080000D03*
X0000050000Y0000080000D03*
X0000055000Y0000085000D03*
X0000050000Y0000085000D03*
X0000057000Y0000179500D03*
X0000053500Y0000179500D03*
X0000053500Y0000182500D03*
X0000056500Y0000182500D03*
X0000047500Y0000227500D03*
X0000047500Y0000220000D03*
X0000047500Y0000235000D03*
X0000050000Y0000257500D03*
X0000055000Y0000257500D03*
X0000050000Y0000252500D03*
X0000055000Y0000252500D03*
X0000055500Y0000275000D03*
X0000050500Y0000275000D03*
X0000055500Y0000267500D03*
X0000049500Y0000267500D03*
X0000045000Y0000285000D03*
X0000055000Y0000312500D03*
X0000050000Y0000312500D03*
X0000050000Y0000322500D03*
X0000055000Y0000322500D03*
X0000050000Y0000317500D03*
X0000055000Y0000317500D03*
X0000058500Y0000340000D03*
X0000055000Y0000340000D03*
X0000059000Y0000331500D03*
X0000050969Y0000345469D03*
X0000045000Y0000346000D03*
X0000059500Y0000349000D03*
X0000060500Y0000378000D03*
X0000060500Y0000372500D03*
X0000060500Y0000367000D03*
X0000045000Y0000365000D03*
X0000045000Y0000375000D03*
X0000045000Y0000385000D03*
X0000055000Y0000410000D03*
X0000045000Y0000410000D03*
X0000055000Y0000430000D03*
X0000045000Y0000430000D03*
X0000055000Y0000420000D03*
X0000045000Y0000420000D03*
X0000055000Y0000445000D03*
X0000045000Y0000445000D03*
X0000055000Y0000440000D03*
X0000045000Y0000440000D03*
X0000075630Y0000005000D03*
X0000065630Y0000005000D03*
X0000070630Y0000005000D03*
X0000065500Y0000010000D03*
X0000070500Y0000010000D03*
X0000077500Y0000042500D03*
X0000070000Y0000042500D03*
X0000062000Y0000063500D03*
X0000066000Y0000062500D03*
X0000077500Y0000050000D03*
X0000077500Y0000057500D03*
X0000070000Y0000050000D03*
X0000062500Y0000050000D03*
X0000062130Y0000178000D03*
X0000065130Y0000178000D03*
X0000061750Y0000195880D03*
X0000065000Y0000196000D03*
X0000077500Y0000205000D03*
X0000077500Y0000210000D03*
X0000077500Y0000215000D03*
X0000077500Y0000225000D03*
X0000065000Y0000220000D03*
X0000070000Y0000215000D03*
X0000070000Y0000220000D03*
X0000065000Y0000215000D03*
X0000077500Y0000245000D03*
X0000077500Y0000235000D03*
X0000077500Y0000255000D03*
X0000077500Y0000275000D03*
X0000077500Y0000265000D03*
X0000065000Y0000292500D03*
X0000075000Y0000287500D03*
X0000075000Y0000300000D03*
X0000062500Y0000300000D03*
X0000070000Y0000312500D03*
X0000072500Y0000325000D03*
X0000072500Y0000317500D03*
X0000062500Y0000317500D03*
X0000062500Y0000325000D03*
X0000069500Y0000334500D03*
X0000064500Y0000331500D03*
X0000062500Y0000347000D03*
X0000069000Y0000347000D03*
X0000070500Y0000341000D03*
X0000076500Y0000341000D03*
X0000063860Y0000344500D03*
X0000066860Y0000344500D03*
X0000071860Y0000338000D03*
X0000074860Y0000338000D03*
X0000074000Y0000350000D03*
X0000071500Y0000360500D03*
X0000077000Y0000351500D03*
X0000077000Y0000354500D03*
X0000075000Y0000362226D03*
X0000065500Y0000378000D03*
X0000065500Y0000372500D03*
X0000071000Y0000372500D03*
X0000071500Y0000367000D03*
X0000065500Y0000367000D03*
X0000075000Y0000365226D03*
X0000075000Y0000410000D03*
X0000065000Y0000410000D03*
X0000075000Y0000430000D03*
X0000065000Y0000430000D03*
X0000075000Y0000420000D03*
X0000065000Y0000420000D03*
X0000075000Y0000445000D03*
X0000065000Y0000445000D03*
X0000075000Y0000440000D03*
X0000065000Y0000440000D03*
X0000078500Y0000027500D03*
X0000082000Y0000030500D03*
X0000085000Y0000042500D03*
X0000092500Y0000042500D03*
X0000092500Y0000050000D03*
X0000085000Y0000050000D03*
X0000082614Y0000063886D03*
X0000092500Y0000070000D03*
X0000079386Y0000070886D03*
X0000092500Y0000092500D03*
X0000087500Y0000125000D03*
X0000087500Y0000150000D03*
X0000087500Y0000162500D03*
X0000087500Y0000175000D03*
X0000087500Y0000200000D03*
X0000087500Y0000212500D03*
X0000082500Y0000210000D03*
X0000082500Y0000205000D03*
X0000087500Y0000225000D03*
X0000087500Y0000262500D03*
X0000087500Y0000275000D03*
X0000085000Y0000295000D03*
X0000087500Y0000287500D03*
X0000090000Y0000305000D03*
X0000093300Y0000313734D03*
X0000080000Y0000317500D03*
X0000080000Y0000325000D03*
X0000084500Y0000322209D03*
X0000082500Y0000331000D03*
X0000091000Y0000325000D03*
X0000091000Y0000319000D03*
X0000093300Y0000316734D03*
X0000091500Y0000347000D03*
X0000082500Y0000340500D03*
X0000082500Y0000337000D03*
X0000080000Y0000335520D03*
X0000080000Y0000332520D03*
X0000080000Y0000341968D03*
X0000080000Y0000344968D03*
X0000079500Y0000356000D03*
X0000091500Y0000360004D03*
X0000091500Y0000350555D03*
X0000091500Y0000355280D03*
X0000092500Y0000378000D03*
X0000092500Y0000375000D03*
X0000091500Y0000368500D03*
X0000091272Y0000364728D03*
X0000080000Y0000387500D03*
X0000080000Y0000384500D03*
X0000083000Y0000389000D03*
X0000083000Y0000383000D03*
X0000087500Y0000404500D03*
X0000087500Y0000411000D03*
X0000085000Y0000420000D03*
X0000100500Y0000015000D03*
X0000097000Y0000017500D03*
X0000107500Y0000042500D03*
X0000100000Y0000042500D03*
X0000100000Y0000062500D03*
X0000100000Y0000075000D03*
X0000100000Y0000082500D03*
X0000107500Y0000087500D03*
X0000107500Y0000107500D03*
X0000100000Y0000100000D03*
X0000100000Y0000137500D03*
X0000100000Y0000162500D03*
X0000100000Y0000175000D03*
X0000100000Y0000187500D03*
X0000100000Y0000200000D03*
X0000100000Y0000212500D03*
X0000100000Y0000225000D03*
X0000100000Y0000262500D03*
X0000100000Y0000275000D03*
X0000098500Y0000283000D03*
X0000110000Y0000297500D03*
X0000100000Y0000295000D03*
X0000105000Y0000290000D03*
X0000110000Y0000285000D03*
X0000107500Y0000312500D03*
X0000105000Y0000302500D03*
X0000100000Y0000307500D03*
X0000095000Y0000300000D03*
X0000107500Y0000320000D03*
X0000096000Y0000330500D03*
X0000096000Y0000325000D03*
X0000096000Y0000321000D03*
X0000102984Y0000317484D03*
X0000096000Y0000343000D03*
X0000096000Y0000334500D03*
X0000095000Y0000340244D03*
X0000095000Y0000337244D03*
X0000104000Y0000353000D03*
X0000103996Y0000360004D03*
X0000104000Y0000356000D03*
X0000109000Y0000353000D03*
X0000104000Y0000348000D03*
X0000109000Y0000348000D03*
X0000107500Y0000375000D03*
X0000107500Y0000378000D03*
X0000105000Y0000373500D03*
X0000104402Y0000378902D03*
X0000104272Y0000364728D03*
X0000104500Y0000368000D03*
X0000104500Y0000384500D03*
X0000108000Y0000384500D03*
X0000108000Y0000388000D03*
X0000095500Y0000388350D03*
X0000095626Y0000383626D03*
X0000104500Y0000387500D03*
X0000100000Y0000411000D03*
X0000100000Y0000404500D03*
X0000105000Y0000420000D03*
X0000095000Y0000420000D03*
X0000124500Y0000013500D03*
X0000124500Y0000030000D03*
X0000124500Y0000022500D03*
X0000124500Y0000025500D03*
X0000115000Y0000019000D03*
X0000115000Y0000042500D03*
X0000112500Y0000050000D03*
X0000112500Y0000062500D03*
X0000126130Y0000055500D03*
X0000126130Y0000059500D03*
X0000122130Y0000055500D03*
X0000122130Y0000059500D03*
X0000118130Y0000055500D03*
X0000118130Y0000059500D03*
X0000112500Y0000075000D03*
X0000126000Y0000094517D03*
X0000126435Y0000126517D03*
X0000111000Y0000141500D03*
X0000115000Y0000292500D03*
X0000117500Y0000302500D03*
X0000112500Y0000307500D03*
X0000121500Y0000355500D03*
X0000121500Y0000361500D03*
X0000119000Y0000379911D03*
X0000119500Y0000369500D03*
X0000111500Y0000378500D03*
X0000118000Y0000367000D03*
X0000118000Y0000375000D03*
X0000122000Y0000378647D03*
X0000119500Y0000372500D03*
X0000119000Y0000382911D03*
X0000122000Y0000384147D03*
X0000115000Y0000411000D03*
X0000115000Y0000404500D03*
X0000125000Y0000420000D03*
X0000115000Y0000420000D03*
X0000125000Y0000430000D03*
X0000115000Y0000430000D03*
X0000125000Y0000440000D03*
X0000115000Y0000440000D03*
X0000140130Y0000014500D03*
X0000134000Y0000014000D03*
X0000133500Y0000024500D03*
X0000133500Y0000029000D03*
X0000135000Y0000019500D03*
X0000140000Y0000019500D03*
X0000142500Y0000027500D03*
X0000128000Y0000019000D03*
X0000130614Y0000016500D03*
X0000136435Y0000081517D03*
X0000135935Y0000089017D03*
X0000141435Y0000094017D03*
X0000135935Y0000094017D03*
X0000133435Y0000109017D03*
X0000128935Y0000109017D03*
X0000128935Y0000104017D03*
X0000133500Y0000104000D03*
X0000141000Y0000107500D03*
X0000131435Y0000126517D03*
X0000136435Y0000126517D03*
X0000141435Y0000126517D03*
X0000138935Y0000144017D03*
X0000141741Y0000162759D03*
X0000141073Y0000148509D03*
X0000140000Y0000202500D03*
X0000140000Y0000212500D03*
X0000140000Y0000225000D03*
X0000140000Y0000237500D03*
X0000140000Y0000252500D03*
X0000137500Y0000317500D03*
X0000135500Y0000321500D03*
X0000136000Y0000327500D03*
X0000142500Y0000327000D03*
X0000132500Y0000323071D03*
X0000140000Y0000328860D03*
X0000132500Y0000326071D03*
X0000142500Y0000333500D03*
X0000136000Y0000333500D03*
X0000135500Y0000339500D03*
X0000143500Y0000340000D03*
X0000143500Y0000346000D03*
X0000136000Y0000346000D03*
X0000132500Y0000334860D03*
X0000140000Y0000341360D03*
X0000132500Y0000347360D03*
X0000140000Y0000331860D03*
X0000132500Y0000337860D03*
X0000140000Y0000344360D03*
X0000142500Y0000354000D03*
X0000142000Y0000362500D03*
X0000135500Y0000359000D03*
X0000136000Y0000352000D03*
X0000132500Y0000350360D03*
X0000141500Y0000372500D03*
X0000135500Y0000376000D03*
X0000136000Y0000367500D03*
X0000129500Y0000411000D03*
X0000129500Y0000404500D03*
X0000135000Y0000420000D03*
X0000135000Y0000430000D03*
X0000135000Y0000440000D03*
X0000145130Y0000014500D03*
X0000154500Y0000015000D03*
X0000147500Y0000030000D03*
X0000155000Y0000022500D03*
X0000144500Y0000024000D03*
X0000149000Y0000019000D03*
X0000160000Y0000072500D03*
X0000157935Y0000087517D03*
X0000152435Y0000087517D03*
X0000145935Y0000088017D03*
X0000145935Y0000092517D03*
X0000158935Y0000104017D03*
X0000153935Y0000104017D03*
X0000148935Y0000104017D03*
X0000148935Y0000109017D03*
X0000148935Y0000100017D03*
X0000158935Y0000100017D03*
X0000153935Y0000100017D03*
X0000146435Y0000126517D03*
X0000146435Y0000139017D03*
X0000151435Y0000139017D03*
X0000150565Y0000149017D03*
X0000154565Y0000149017D03*
X0000160565Y0000149017D03*
X0000144565Y0000152017D03*
X0000144886Y0000180386D03*
X0000160000Y0000170500D03*
X0000160000Y0000175500D03*
X0000155000Y0000180500D03*
X0000160000Y0000180500D03*
X0000152500Y0000230500D03*
X0000157500Y0000230500D03*
X0000150000Y0000225500D03*
X0000160000Y0000220500D03*
X0000150000Y0000220000D03*
X0000155000Y0000240000D03*
X0000157500Y0000262500D03*
X0000155000Y0000250000D03*
X0000150000Y0000270000D03*
X0000147500Y0000411000D03*
X0000147500Y0000404500D03*
X0000155000Y0000420000D03*
X0000145000Y0000420000D03*
X0000145000Y0000430000D03*
X0000145000Y0000440000D03*
X0000162500Y0000022500D03*
X0000172630Y0000067000D03*
X0000165000Y0000072500D03*
X0000170000Y0000072500D03*
X0000175000Y0000072500D03*
X0000167130Y0000067000D03*
X0000173935Y0000089017D03*
X0000168935Y0000089017D03*
X0000162500Y0000087500D03*
X0000163935Y0000100017D03*
X0000171435Y0000116517D03*
X0000176435Y0000116517D03*
X0000163935Y0000116517D03*
X0000163935Y0000124017D03*
X0000176435Y0000121517D03*
X0000165451Y0000146017D03*
X0000176435Y0000161517D03*
X0000170000Y0000165000D03*
X0000165000Y0000165000D03*
X0000172500Y0000175500D03*
X0000172886Y0000180114D03*
X0000165000Y0000170500D03*
X0000165000Y0000175500D03*
X0000177000Y0000200500D03*
X0000167500Y0000230500D03*
X0000171000Y0000225000D03*
X0000162500Y0000230500D03*
X0000176500Y0000225000D03*
X0000175000Y0000245000D03*
X0000170000Y0000235000D03*
X0000165000Y0000240000D03*
X0000165000Y0000255000D03*
X0000175000Y0000282500D03*
X0000167500Y0000290000D03*
X0000167500Y0000345000D03*
X0000167500Y0000355000D03*
X0000175000Y0000355000D03*
X0000167500Y0000375000D03*
X0000167500Y0000365000D03*
X0000175000Y0000365000D03*
X0000175000Y0000375000D03*
X0000167500Y0000385000D03*
X0000175000Y0000385000D03*
X0000162500Y0000411000D03*
X0000162500Y0000404500D03*
X0000175000Y0000420000D03*
X0000165000Y0000420000D03*
X0000182630Y0000035500D03*
X0000186630Y0000035500D03*
X0000191630Y0000035500D03*
X0000189130Y0000039500D03*
X0000192500Y0000065000D03*
X0000182500Y0000065000D03*
X0000187500Y0000065000D03*
X0000182500Y0000060000D03*
X0000187500Y0000060000D03*
X0000192500Y0000060000D03*
X0000192500Y0000055000D03*
X0000192500Y0000072500D03*
X0000187500Y0000072500D03*
X0000182500Y0000072500D03*
X0000186321Y0000131631D03*
X0000186435Y0000119017D03*
X0000180565Y0000143017D03*
X0000185000Y0000155000D03*
X0000185000Y0000160000D03*
X0000190000Y0000155000D03*
X0000190000Y0000160000D03*
X0000181435Y0000156517D03*
X0000180000Y0000170000D03*
X0000185000Y0000170000D03*
X0000190000Y0000175000D03*
X0000190000Y0000170000D03*
X0000185000Y0000175500D03*
X0000177500Y0000197000D03*
X0000181000Y0000197000D03*
X0000180000Y0000200500D03*
X0000182001Y0000225001D03*
X0000188000Y0000225000D03*
X0000192000Y0000225000D03*
X0000187500Y0000232500D03*
X0000182500Y0000237500D03*
X0000190000Y0000267500D03*
X0000182500Y0000275000D03*
X0000185000Y0000320000D03*
X0000185000Y0000330000D03*
X0000185000Y0000365000D03*
X0000185000Y0000375000D03*
X0000185000Y0000385000D03*
X0000192500Y0000411000D03*
X0000192500Y0000404500D03*
X0000177500Y0000411000D03*
X0000177500Y0000404500D03*
X0000185000Y0000420000D03*
X0000204630Y0000024000D03*
X0000204630Y0000020000D03*
X0000208630Y0000024000D03*
X0000208630Y0000020000D03*
X0000206630Y0000031000D03*
X0000201630Y0000031000D03*
X0000196630Y0000031000D03*
X0000196630Y0000035500D03*
X0000201630Y0000035500D03*
X0000206630Y0000035500D03*
X0000206630Y0000040500D03*
X0000197500Y0000065000D03*
X0000197500Y0000060000D03*
X0000197500Y0000055000D03*
X0000197500Y0000072500D03*
X0000195000Y0000110000D03*
X0000205000Y0000110000D03*
X0000205000Y0000120000D03*
X0000210000Y0000155000D03*
X0000210000Y0000160000D03*
X0000195000Y0000170000D03*
X0000195000Y0000175000D03*
X0000210000Y0000170000D03*
X0000195000Y0000262500D03*
X0000195000Y0000325000D03*
X0000195000Y0000315000D03*
X0000195000Y0000335000D03*
X0000207500Y0000347500D03*
X0000202500Y0000347500D03*
X0000202500Y0000352500D03*
X0000207500Y0000352500D03*
X0000195000Y0000375000D03*
X0000210000Y0000411000D03*
X0000210000Y0000404500D03*
X0000205000Y0000420000D03*
X0000195000Y0000420000D03*
X0000212630Y0000024000D03*
X0000212630Y0000020000D03*
X0000211630Y0000031000D03*
X0000211630Y0000047000D03*
X0000216630Y0000047000D03*
X0000211630Y0000040500D03*
X0000211630Y0000035500D03*
X0000211630Y0000051000D03*
X0000216630Y0000051000D03*
X0000211630Y0000060000D03*
X0000216630Y0000060000D03*
X0000216630Y0000055500D03*
X0000211630Y0000055500D03*
X0000225000Y0000092500D03*
X0000225000Y0000087500D03*
X0000215000Y0000120000D03*
X0000215000Y0000130000D03*
X0000221630Y0000118870D03*
X0000223500Y0000139500D03*
X0000213000Y0000139500D03*
X0000221500Y0000133870D03*
X0000220000Y0000160000D03*
X0000220000Y0000155000D03*
X0000215000Y0000160000D03*
X0000215000Y0000155000D03*
X0000215000Y0000195000D03*
X0000220000Y0000190000D03*
X0000225000Y0000185000D03*
X0000212500Y0000200000D03*
X0000220000Y0000220000D03*
X0000220000Y0000230000D03*
X0000215000Y0000260000D03*
X0000215000Y0000290000D03*
X0000225000Y0000290000D03*
X0000224000Y0000306000D03*
X0000217500Y0000312500D03*
X0000217500Y0000327500D03*
X0000217500Y0000322500D03*
X0000217516Y0000317484D03*
X0000212500Y0000327500D03*
X0000225000Y0000347500D03*
X0000217500Y0000337500D03*
X0000225000Y0000342500D03*
X0000225000Y0000332500D03*
X0000212500Y0000337500D03*
X0000217500Y0000332500D03*
X0000225000Y0000337500D03*
X0000212500Y0000332500D03*
X0000217500Y0000342500D03*
X0000212500Y0000347500D03*
X0000212500Y0000342500D03*
X0000217594Y0000347406D03*
X0000217500Y0000352500D03*
X0000217500Y0000362500D03*
X0000225000Y0000357500D03*
X0000225000Y0000352500D03*
X0000225000Y0000362500D03*
X0000212500Y0000352500D03*
X0000212500Y0000377500D03*
X0000217500Y0000377500D03*
X0000225000Y0000377500D03*
X0000217500Y0000367500D03*
X0000212500Y0000367500D03*
X0000225000Y0000367500D03*
X0000225000Y0000372500D03*
X0000212500Y0000372500D03*
X0000217500Y0000372602D03*
X0000225000Y0000382500D03*
X0000225000Y0000387500D03*
X0000225000Y0000420000D03*
X0000215000Y0000420000D03*
X0000235630Y0000006650D03*
X0000235630Y0000003500D03*
X0000231630Y0000003500D03*
X0000231630Y0000006650D03*
X0000228130Y0000003500D03*
X0000228130Y0000006650D03*
X0000241630Y0000007150D03*
X0000241630Y0000004000D03*
X0000227630Y0000019000D03*
X0000227630Y0000023000D03*
X0000233130Y0000023000D03*
X0000233130Y0000019000D03*
X0000227630Y0000029500D03*
X0000233130Y0000029500D03*
X0000238500Y0000036000D03*
X0000233630Y0000036000D03*
X0000227630Y0000036000D03*
X0000227630Y0000042000D03*
X0000233130Y0000045500D03*
X0000227630Y0000047500D03*
X0000232687Y0000050557D03*
X0000232687Y0000055557D03*
X0000227630Y0000052000D03*
X0000237630Y0000050500D03*
X0000237630Y0000055500D03*
X0000238630Y0000081114D03*
X0000230000Y0000087500D03*
X0000235000Y0000087500D03*
X0000240000Y0000087500D03*
X0000240000Y0000092500D03*
X0000235000Y0000092500D03*
X0000230000Y0000092500D03*
X0000240000Y0000139500D03*
X0000230000Y0000180000D03*
X0000233630Y0000170462D03*
X0000233630Y0000175462D03*
X0000240630Y0000169462D03*
X0000240000Y0000210000D03*
X0000230000Y0000210000D03*
X0000240000Y0000230000D03*
X0000240000Y0000220000D03*
X0000230000Y0000220000D03*
X0000230000Y0000230000D03*
X0000240000Y0000240000D03*
X0000240000Y0000260000D03*
X0000232000Y0000297500D03*
X0000240000Y0000312500D03*
X0000227500Y0000302000D03*
X0000230000Y0000312500D03*
X0000240000Y0000327500D03*
X0000230000Y0000327500D03*
X0000240000Y0000322500D03*
X0000230016Y0000317484D03*
X0000230000Y0000322500D03*
X0000230000Y0000342500D03*
X0000230000Y0000337500D03*
X0000240000Y0000332500D03*
X0000230000Y0000347500D03*
X0000240000Y0000342500D03*
X0000230000Y0000332500D03*
X0000240000Y0000347500D03*
X0000230000Y0000352500D03*
X0000240000Y0000357500D03*
X0000240000Y0000362500D03*
X0000230000Y0000362500D03*
X0000230000Y0000357500D03*
X0000240000Y0000352500D03*
X0000230000Y0000377500D03*
X0000230000Y0000367500D03*
X0000230000Y0000372500D03*
X0000230000Y0000382500D03*
X0000242500Y0000445500D03*
X0000258130Y0000007150D03*
X0000258130Y0000004000D03*
X0000254130Y0000007150D03*
X0000254130Y0000004000D03*
X0000245630Y0000007150D03*
X0000249630Y0000007150D03*
X0000245630Y0000004000D03*
X0000249630Y0000004000D03*
X0000250000Y0000029000D03*
X0000248630Y0000044200D03*
X0000251630Y0000044200D03*
X0000248630Y0000047000D03*
X0000251630Y0000047000D03*
X0000258000Y0000074500D03*
X0000250000Y0000139500D03*
X0000253130Y0000154462D03*
X0000253130Y0000164462D03*
X0000253130Y0000174462D03*
X0000253130Y0000169462D03*
X0000245630Y0000186962D03*
X0000245630Y0000191962D03*
X0000250000Y0000317500D03*
X0000245000Y0000327500D03*
X0000245000Y0000347500D03*
X0000257500Y0000332500D03*
X0000245000Y0000332500D03*
X0000245000Y0000337500D03*
X0000250000Y0000337500D03*
X0000250000Y0000362500D03*
X0000250000Y0000357500D03*
X0000245000Y0000357500D03*
X0000245000Y0000352500D03*
X0000245000Y0000362500D03*
X0000257500Y0000352500D03*
X0000260000Y0000390000D03*
X0000260000Y0000385000D03*
X0000252500Y0000390000D03*
X0000245000Y0000435000D03*
X0000250000Y0000445000D03*
X0000266630Y0000004000D03*
X0000266630Y0000007150D03*
X0000270630Y0000007150D03*
X0000270630Y0000004000D03*
X0000277000Y0000004000D03*
X0000274630Y0000012000D03*
X0000262130Y0000007150D03*
X0000262130Y0000004000D03*
X0000274630Y0000015500D03*
X0000265130Y0000017000D03*
X0000269130Y0000017000D03*
X0000269130Y0000021000D03*
X0000269130Y0000025000D03*
X0000265130Y0000025000D03*
X0000269130Y0000028500D03*
X0000266500Y0000047000D03*
X0000272430Y0000064100D03*
X0000269730Y0000061700D03*
X0000272610Y0000057980D03*
X0000273730Y0000061100D03*
X0000266500Y0000054000D03*
X0000266500Y0000050500D03*
X0000265500Y0000074500D03*
X0000262000Y0000071000D03*
X0000275130Y0000070614D03*
X0000265630Y0000116962D03*
X0000275630Y0000139462D03*
X0000263130Y0000139462D03*
X0000273130Y0000154462D03*
X0000273130Y0000159462D03*
X0000260630Y0000154462D03*
X0000268130Y0000159462D03*
X0000268130Y0000154462D03*
X0000260630Y0000159462D03*
X0000276500Y0000180000D03*
X0000273130Y0000171962D03*
X0000268130Y0000169462D03*
X0000268130Y0000174462D03*
X0000275630Y0000189462D03*
X0000263130Y0000191962D03*
X0000263130Y0000199462D03*
X0000265000Y0000230000D03*
X0000275000Y0000230000D03*
X0000275630Y0000216962D03*
X0000270630Y0000216962D03*
X0000266130Y0000215500D03*
X0000275000Y0000240000D03*
X0000265000Y0000240000D03*
X0000265000Y0000250000D03*
X0000275000Y0000250000D03*
X0000275000Y0000260000D03*
X0000265000Y0000260000D03*
X0000265000Y0000347500D03*
X0000270000Y0000362500D03*
X0000265000Y0000362500D03*
X0000275000Y0000352500D03*
X0000265000Y0000352500D03*
X0000275000Y0000362500D03*
X0000270000Y0000380000D03*
X0000265000Y0000375000D03*
X0000265000Y0000380000D03*
X0000265000Y0000367500D03*
X0000270000Y0000367500D03*
X0000275000Y0000367500D03*
X0000265000Y0000390000D03*
X0000265000Y0000385000D03*
X0000270000Y0000390000D03*
X0000270000Y0000385000D03*
X0000262500Y0000407500D03*
X0000272500Y0000407500D03*
X0000272500Y0000402500D03*
X0000272500Y0000412500D03*
X0000263000Y0000430000D03*
X0000268500Y0000425000D03*
X0000269283Y0000429850D03*
X0000275189Y0000425000D03*
X0000272189Y0000425000D03*
X0000266283Y0000429850D03*
X0000276642Y0000439000D03*
X0000270736Y0000439000D03*
X0000264831Y0000439000D03*
X0000286000Y0000005000D03*
X0000290630Y0000005000D03*
X0000290630Y0000015000D03*
X0000282244Y0000012000D03*
X0000279016Y0000012114D03*
X0000285200Y0000031100D03*
X0000285130Y0000026000D03*
X0000284130Y0000045500D03*
X0000278630Y0000045500D03*
X0000292744Y0000045500D03*
X0000285630Y0000037500D03*
X0000285130Y0000062000D03*
X0000285130Y0000056500D03*
X0000287130Y0000070614D03*
X0000280630Y0000126962D03*
X0000291130Y0000176500D03*
X0000278130Y0000194462D03*
X0000283130Y0000199462D03*
X0000287630Y0000199462D03*
X0000278130Y0000199462D03*
X0000278130Y0000204462D03*
X0000290000Y0000220000D03*
X0000290000Y0000225000D03*
X0000290000Y0000245000D03*
X0000290000Y0000240000D03*
X0000290000Y0000235000D03*
X0000290000Y0000250000D03*
X0000290000Y0000255000D03*
X0000290000Y0000260000D03*
X0000290000Y0000312500D03*
X0000277500Y0000322500D03*
X0000277500Y0000315000D03*
X0000277500Y0000330000D03*
X0000287500Y0000332500D03*
X0000287500Y0000340000D03*
X0000282430Y0000357500D03*
X0000290630Y0000357500D03*
X0000286430Y0000357500D03*
X0000282430Y0000353500D03*
X0000282430Y0000349500D03*
X0000290630Y0000353500D03*
X0000290630Y0000349500D03*
X0000286430Y0000349500D03*
X0000286430Y0000353500D03*
X0000285000Y0000367500D03*
X0000277500Y0000402500D03*
X0000277500Y0000412500D03*
X0000285000Y0000430000D03*
X0000278500Y0000425000D03*
X0000292500Y0000430000D03*
X0000278094Y0000429850D03*
X0000281094Y0000429850D03*
X0000285000Y0000445000D03*
X0000288453Y0000439000D03*
X0000282547Y0000439000D03*
X0000295000Y0000009500D03*
X0000300630Y0000005000D03*
X0000300630Y0000015000D03*
X0000300130Y0000031500D03*
X0000296500Y0000020500D03*
X0000296500Y0000026000D03*
X0000296100Y0000031300D03*
X0000296000Y0000037000D03*
X0000308630Y0000044000D03*
X0000307000Y0000063000D03*
X0000308630Y0000054000D03*
X0000308630Y0000049000D03*
X0000303408Y0000074500D03*
X0000299408Y0000074500D03*
X0000307630Y0000092000D03*
X0000305000Y0000172500D03*
X0000296630Y0000176500D03*
X0000305000Y0000192500D03*
X0000305000Y0000182500D03*
X0000307500Y0000230000D03*
X0000307500Y0000225000D03*
X0000307500Y0000240000D03*
X0000310000Y0000262500D03*
X0000307500Y0000255000D03*
X0000307500Y0000250000D03*
X0000305500Y0000262500D03*
X0000310000Y0000290000D03*
X0000310000Y0000295000D03*
X0000310000Y0000300000D03*
X0000310000Y0000342500D03*
X0000295000Y0000332500D03*
X0000310000Y0000347500D03*
X0000295000Y0000362500D03*
X0000310000Y0000362500D03*
X0000310000Y0000357500D03*
X0000310000Y0000352500D03*
X0000295000Y0000367500D03*
X0000304500Y0000397500D03*
X0000304500Y0000392500D03*
X0000305000Y0000412500D03*
X0000310000Y0000412500D03*
X0000310000Y0000402500D03*
X0000304500Y0000402500D03*
X0000307500Y0000430000D03*
X0000305000Y0000417500D03*
X0000297000Y0000421886D03*
X0000297500Y0000430000D03*
X0000310000Y0000417500D03*
X0000300500Y0000417500D03*
X0000305000Y0000445000D03*
X0000295000Y0000445000D03*
X0000300000Y0000440000D03*
X0000295000Y0000440000D03*
X0000320630Y0000005000D03*
X0000320630Y0000015000D03*
X0000310630Y0000005000D03*
X0000310630Y0000015000D03*
X0000310630Y0000025000D03*
X0000319630Y0000044000D03*
X0000325630Y0000044000D03*
X0000310630Y0000035000D03*
X0000314130Y0000044000D03*
X0000319630Y0000049000D03*
X0000325630Y0000049000D03*
X0000320000Y0000056000D03*
X0000325500Y0000057000D03*
X0000314130Y0000049000D03*
X0000314500Y0000056500D03*
X0000325630Y0000095000D03*
X0000315630Y0000095000D03*
X0000312630Y0000092000D03*
X0000316000Y0000085500D03*
X0000325000Y0000085000D03*
X0000321000Y0000090000D03*
X0000318500Y0000102500D03*
X0000322130Y0000119000D03*
X0000326130Y0000119000D03*
X0000322130Y0000128000D03*
X0000326130Y0000128000D03*
X0000321630Y0000142500D03*
X0000320000Y0000155000D03*
X0000313000Y0000172000D03*
X0000312500Y0000192500D03*
X0000312500Y0000182500D03*
X0000317500Y0000220000D03*
X0000322500Y0000220000D03*
X0000317500Y0000215000D03*
X0000322500Y0000215000D03*
X0000315000Y0000295000D03*
X0000315000Y0000290000D03*
X0000326000Y0000289000D03*
X0000314989Y0000299989D03*
X0000318130Y0000309500D03*
X0000318337Y0000313793D03*
X0000326130Y0000303378D03*
X0000321130Y0000312783D03*
X0000326130Y0000306878D03*
X0000321130Y0000309283D03*
X0000318130Y0000325500D03*
X0000318327Y0000319697D03*
X0000312000Y0000326000D03*
X0000325630Y0000330500D03*
X0000325630Y0000318689D03*
X0000321130Y0000321094D03*
X0000325630Y0000315189D03*
X0000321130Y0000324594D03*
X0000325630Y0000327000D03*
X0000318130Y0000331500D03*
X0000317500Y0000392500D03*
X0000315000Y0000412500D03*
X0000315000Y0000407500D03*
X0000315000Y0000402500D03*
X0000325000Y0000445000D03*
X0000335630Y0000035000D03*
X0000340000Y0000042500D03*
X0000341000Y0000064500D03*
X0000335630Y0000050000D03*
X0000331000Y0000055500D03*
X0000338500Y0000055500D03*
X0000340500Y0000072000D03*
X0000341000Y0000078000D03*
X0000335630Y0000095000D03*
X0000335630Y0000085000D03*
X0000329500Y0000090000D03*
X0000327500Y0000105000D03*
X0000335630Y0000105000D03*
X0000340000Y0000111500D03*
X0000330130Y0000119000D03*
X0000333630Y0000119000D03*
X0000330130Y0000128000D03*
X0000342500Y0000122500D03*
X0000343480Y0000141983D03*
X0000339980Y0000147483D03*
X0000339980Y0000141983D03*
X0000343480Y0000147483D03*
X0000339980Y0000136483D03*
X0000331630Y0000142500D03*
X0000331630Y0000136500D03*
X0000343480Y0000136483D03*
X0000330000Y0000162206D03*
X0000333000Y0000162206D03*
X0000327130Y0000159000D03*
X0000343500Y0000153000D03*
X0000340000Y0000157500D03*
X0000332500Y0000159000D03*
X0000332500Y0000154000D03*
X0000340000Y0000153000D03*
X0000342500Y0000166142D03*
X0000340630Y0000175000D03*
X0000330630Y0000175000D03*
X0000330630Y0000185000D03*
X0000340630Y0000185000D03*
X0000330630Y0000195000D03*
X0000340630Y0000195000D03*
X0000330630Y0000205000D03*
X0000340630Y0000205000D03*
X0000330630Y0000215000D03*
X0000340630Y0000215000D03*
X0000340000Y0000222500D03*
X0000333000Y0000241157D03*
X0000340630Y0000245000D03*
X0000340630Y0000235000D03*
X0000340630Y0000260000D03*
X0000330630Y0000260000D03*
X0000330630Y0000250000D03*
X0000340500Y0000266000D03*
X0000328500Y0000286500D03*
X0000331000Y0000289000D03*
X0000329000Y0000296000D03*
X0000329000Y0000302166D03*
X0000328630Y0000313793D03*
X0000329130Y0000308000D03*
X0000328630Y0000325604D03*
X0000328638Y0000319697D03*
X0000328638Y0000331508D03*
X0000345630Y0000035000D03*
X0000348500Y0000043500D03*
X0000348500Y0000065000D03*
X0000345630Y0000050000D03*
X0000345630Y0000060000D03*
X0000351000Y0000060500D03*
X0000348500Y0000078500D03*
X0000350000Y0000090000D03*
X0000345630Y0000095000D03*
X0000345630Y0000085000D03*
X0000350000Y0000100000D03*
X0000345630Y0000105000D03*
X0000349500Y0000111500D03*
X0000345630Y0000115000D03*
X0000350500Y0000125000D03*
X0000349500Y0000122000D03*
X0000351000Y0000142144D03*
X0000351000Y0000137419D03*
X0000344200Y0000161024D03*
X0000351000Y0000162000D03*
X0000343630Y0000157500D03*
X0000351000Y0000155500D03*
X0000351000Y0000149500D03*
X0000351000Y0000158662D03*
X0000350630Y0000175000D03*
X0000350500Y0000166159D03*
X0000350630Y0000185000D03*
X0000350630Y0000195000D03*
X0000350630Y0000205000D03*
X0000350630Y0000215000D03*
X0000350630Y0000225000D03*
X0000350630Y0000245000D03*
X0000350630Y0000235000D03*
X0000350630Y0000260000D03*
X0000350630Y0000280000D03*
X0000350630Y0000270000D03*
X0000350630Y0000290000D03*
X0000350630Y0000310000D03*
X0000350630Y0000300000D03*
X0000350000Y0000315000D03*
X0000350000Y0000325000D03*
X0000350000Y0000340000D03*
X0000350000Y0000350000D03*
X0000350000Y0000360000D03*
X0000350000Y0000370000D03*
X0000350000Y0000400000D03*
X0000350000Y0000410000D03*
X0000350000Y0000420000D03*
G54D12*
X0000006224Y0000250664D03*
X0000006224Y0000284679D03*
X0000021185Y0000250664D03*
X0000021185Y0000284679D03*
G54D13*
X0000005368Y0000321457D03*
X0000005368Y0000345867D03*
X0000018596Y0000321457D03*
X0000018596Y0000345867D03*
G54D14*
X0000017520Y0000381890D03*
X0000017520Y0000401575D03*
G54D15*
X0000043307Y0000161024D03*
X0000043307Y0000212599D03*
G54D16*
X0000047637Y0000182874D03*
X0000047637Y0000173031D03*
X0000047637Y0000190748D03*
G54D17*
X0000047637Y0000200591D03*
G54D18*
X0000095548Y0000247007D03*
X0000095548Y0000435984D03*
X0000225469Y0000247007D03*
X0000225469Y0000435984D03*
M02*
